g AlienRock1_LP.013
v -0.06865966 0.07899475 -0.008373141
v -0.06293786 0.0558154 -0.01596773
v -0.05712044 0.04934418 -0.02344453
v -0.05684197 0.08814907 -0.03075731
v -0.03614032 0.06663876 -0.04830873
v -0.03835738 0.05029964 -0.04075849
v -0.01504385 0.04888117 -0.05398357
v -0.002258182 0.06613767 -0.05402696
v 0.03032458 0.03346372 -0.04417551
v 0.0237025 0.07172531 -0.03734291
v 0.05429304 0.02465773 -0.02922428
v -0.02160561 0.09111524 -0.04323995
v -0.05463421 0.09386897 -0.02762496
v -0.01645792 0.09983993 -0.02607143
v -0.04981005 0.09402126 0.01672995
v -0.05171502 0.08216124 0.03381264
v -0.03499258 0.09337246 0.02314961
v -0.03044736 0.07793026 0.0434581
v -0.02316916 0.106385 0.001809239
v -0.01332724 0.1031556 0.01296532
v 0.01676738 0.0834878 0.0116359
v 0.007965446 0.06036484 0.0527755
v -0.01121438 0.0929811 -0.01135099
v 0.02721679 0.06612575 0.03659642
v 0.02582443 0.04084229 0.05449021
v 0.07169592 0.01389629 0.02266085
v 0.04071724 0.07578033 0.01469719
v 0.03674853 0.07300472 -0.009694457
v 0.06365979 0.04395503 0.01630175
v 0.06560624 0.0191896 -0.007167697
v 0.05049932 0.04925919 -0.00797689
v 0.05727327 0.03983241 -0.01604068
v -0.06865966 0.07899475 -0.008373141
v -0.05171502 0.08216124 0.03381264
v -0.04307234 0.05406111 0.0340358
v -0.06293786 0.0558154 -0.01596773
v -0.0176295 0.05874782 0.05431998
v -0.03044736 0.07793026 0.0434581
v 0.007965446 0.06036484 0.0527755
v 0.02582443 0.04084229 0.05449021
v -0.04431784 0.04199004 0.004860044
v -0.05712044 0.04934418 -0.02344453
v -0.01868165 0.02712309 0.03208792
v -0.009271979 0.01478958 -0.01508081
v 0.01747787 0.01155746 0.03660262
v 0.003818393 0.0287292 0.04724944
v 0.004089475 0.02475494 -0.03347147
v -0.03835738 0.05029964 -0.04075849
v -0.01504385 0.04888117 -0.05398357
v 0.03032458 0.03346372 -0.04417551
v 0.02733219 0.006730318 -0.01196229
v 0.04634011 0.01435226 -0.0157994
v 0.05429304 0.02465773 -0.02922428
v 0.06669891 0 0.01865637
v 0.06560624 0.0191896 -0.007167697
v 0.07169592 0.01389629 0.02266085
v 0.0396558 0.02080125 0.04294789
vt 0.7304688 0.7724609
vt 0.7202148 0.7192383
vt 0.7045898 0.699707
vt 0.6879883 0.7617188
vt 0.6401367 0.7246094
vt 0.6494141 0.6972656
vt 0.5874023 0.7099609
vt 0.5820313 0.7475586
vt 0.4975586 0.7641602
vt 0.5551758 0.7958984
vt 0.4587402 0.809082
vt 0.6303711 0.769043
vt 0.6865234 0.7719727
vt 0.6323242 0.7998047
vt 0.7104492 0.8408203
vt 0.7338867 0.871582
vt 0.6928711 0.8647461
vt 0.6962891 0.9135742
vt 0.6582031 0.8364258
vt 0.6508789 0.8569336
vt 0.5942383 0.878418
vt 0.6147461 0.956543
vt 0.6254883 0.8256836
vt 0.5766602 0.9277344
vt 0.5620117 0.9790039
vt 0.4472656 0.9311523
vt 0.5546875 0.8881836
vt 0.5488281 0.8476563
vt 0.4924316 0.8999023
vt 0.4414063 0.8642578
vt 0.5019531 0.8515625
vt 0.479248 0.8422852
vt 0.5048828 0.6020508
vt 0.5649414 0.6645508
vt 0.597168 0.6279297
vt 0.5268555 0.5610352
vt 0.6484375 0.6533203
vt 0.6103516 0.6782227
vt 0.6943359 0.6660156
vt 0.7338867 0.6303711
vt 0.5805664 0.5737305
vt 0.534668 0.5385742
vt 0.6459961 0.5922852
vt 0.6352539 0.5107422
vt 0.7060547 0.5732422
vt 0.6904297 0.609375
vt 0.6367188 0.4677734
vt 0.5498047 0.4912109
vt 0.5766602 0.4467773
vt 0.6699219 0.4230957
vt 0.6943359 0.4902344
vt 0.7246094 0.4702148
vt 0.7290039 0.4379883
vt 0.7719727 0.5239258
vt 0.7675781 0.4741211
vt 0.7949219 0.5317383
vt 0.7456055 0.581543
vn -0.9829102 0.07208252 0.1695557
vn -0.9433594 -0.3288574 0.04016113
vn -0.6962891 -0.6123047 -0.3742676
vn -0.621582 0.1671143 -0.765625
vn -0.456543 0.07965088 -0.8862305
vn -0.5200195 -0.5795898 -0.6274414
vn -0.2481689 -0.4421387 -0.8618164
vn 0.2563477 0.3681641 -0.8935547
vn 0.3703613 -0.2088623 -0.9052734
vn 0.5961914 0.5922852 -0.5419922
vn 0.6455078 -0.1939697 -0.7387695
vn 0.04458618 0.6987305 -0.7143555
vn -0.4445801 0.831543 -0.3325195
vn 0.215332 0.9179688 -0.333252
vn -0.5668945 0.8076172 0.1629639
vn -0.8212891 0.1074829 0.5605469
vn -0.2294922 0.8598633 0.4555664
vn -0.004894257 0.590332 0.8071289
vn -0.138916 0.9902344 -0.002307892
vn 0.2294922 0.8989258 0.3730469
vn 0.3759766 0.8779297 0.2963867
vn 0.2127686 0.486084 0.8476563
vn 0.5219727 0.8466797 -0.1040649
vn 0.550293 0.5649414 0.6152344
vn 0.4714355 0.1384277 0.8710938
vn 0.8432617 0.1578369 0.5136719
vn 0.6557617 0.6865234 0.3139648
vn 0.652832 0.6987305 -0.293457
vn 0.909668 0.4143066 0.03201294
vn 0.8950195 -0.2067871 -0.3947754
vn 0.7998047 0.4973145 -0.3364258
vn 0.8681641 0.3730469 -0.3269043
vn -0.9829102 0.07208252 0.1695557
vn -0.8212891 0.1074829 0.5605469
vn -0.7348633 -0.4157715 0.5361328
vn -0.9433594 -0.3288574 0.04016113
vn -0.3647461 -0.2213135 0.9042969
vn -0.004894257 0.590332 0.8071289
vn 0.2127686 0.486084 0.8476563
vn 0.4714355 0.1384277 0.8710938
vn -0.6450195 -0.746582 0.1633301
vn -0.6962891 -0.6123047 -0.3742676
vn -0.5380859 -0.7631836 0.3574219
vn -0.4274902 -0.887207 -0.173584
vn -0.2546387 -0.9038086 0.3444824
vn -0.2371826 -0.4506836 0.8603516
vn -0.1734619 -0.7641602 -0.6210938
vn -0.5200195 -0.5795898 -0.6274414
vn -0.2481689 -0.4421387 -0.8618164
vn 0.3703613 -0.2088623 -0.9052734
vn 0.1082764 -0.9384766 -0.328125
vn 0.1478271 -0.8945313 -0.4221191
vn 0.6455078 -0.1939697 -0.7387695
vn 0.1525879 -0.980957 0.1191406
vn 0.8950195 -0.2067871 -0.3947754
vn 0.8432617 0.1578369 0.5136719
vn 0.2580566 -0.463623 0.8476563
g AlienRock1_LP.013_0
f 3/3/3 2/2/2 1/1/1
f 4/4/4 3/3/3 1/1/1
f 3/3/3 4/4/4 5/5/5
f 6/6/6 3/3/3 5/5/5
f 5/5/5 7/7/7 6/6/6
f 8/8/8 7/7/7 5/5/5
f 9/9/9 7/7/7 8/8/8
f 8/8/8 10/10/10 9/9/9
f 10/10/10 11/11/11 9/9/9
f 12/12/12 8/8/8 5/5/5
f 5/5/5 4/4/4 12/12/12
f 10/10/10 8/8/8 12/12/12
f 1/1/1 13/13/13 4/4/4
f 4/4/4 13/13/13 12/12/12
f 14/14/14 10/10/10 12/12/12
f 12/12/12 13/13/13 14/14/14
f 15/15/15 13/13/13 1/1/1
f 16/16/16 15/15/15 1/1/1
f 17/17/17 15/15/15 16/16/16
f 15/15/15 17/17/17 13/13/13
f 16/16/16 18/18/18 17/17/17
f 13/13/13 19/19/19 14/14/14
f 13/13/13 17/17/17 19/19/19
f 18/18/18 20/20/20 17/17/17
f 17/17/17 20/20/20 19/19/19
f 20/20/20 18/18/18 21/21/21
f 18/18/18 22/22/22 21/21/21
f 19/19/19 23/23/23 14/14/14
f 23/23/23 19/19/19 20/20/20
f 10/10/10 14/14/14 23/23/23
f 21/21/21 23/23/23 20/20/20
f 21/21/21 10/10/10 23/23/23
f 21/21/21 22/22/22 24/24/24
f 25/25/25 24/24/24 22/22/22
f 25/25/25 26/26/26 24/24/24
f 27/27/27 21/21/21 24/24/24
f 26/26/26 27/27/27 24/24/24
f 10/10/10 21/21/21 28/28/28
f 21/21/21 27/27/27 28/28/28
f 26/26/26 29/29/29 27/27/27
f 27/27/27 29/29/29 28/28/28
f 29/29/29 26/26/26 30/30/30
f 28/28/28 31/31/31 10/10/10
f 29/29/29 31/31/31 28/28/28
f 31/31/31 11/11/11 10/10/10
f 11/11/11 32/32/32 30/30/30
f 32/32/32 29/29/29 30/30/30
f 29/29/29 32/32/32 31/31/31
f 32/32/32 11/11/11 31/31/31
f 35/35/35 34/34/34 33/33/33
f 36/36/36 35/35/35 33/33/33
f 35/35/35 37/37/37 34/34/34
f 37/37/37 38/38/38 34/34/34
f 38/38/38 37/37/37 39/39/39
f 40/40/40 39/39/39 37/37/37
f 36/36/36 41/41/41 35/35/35
f 41/41/41 36/36/36 42/42/42
f 35/35/35 43/43/43 37/37/37
f 41/41/41 43/43/43 35/35/35
f 42/42/42 44/44/44 41/41/41
f 44/44/44 43/43/43 41/41/41
f 43/43/43 44/44/44 45/45/45
f 43/43/43 46/46/46 37/37/37
f 46/46/46 40/40/40 37/37/37
f 45/45/45 46/46/46 43/43/43
f 40/40/40 46/46/46 45/45/45
f 44/44/44 42/42/42 47/47/47
f 42/42/42 48/48/48 47/47/47
f 48/48/48 49/49/49 47/47/47
f 49/49/49 50/50/50 47/47/47
f 51/51/51 44/44/44 47/47/47
f 50/50/50 51/51/51 47/47/47
f 44/44/44 51/51/51 45/45/45
f 52/52/52 51/51/51 50/50/50
f 51/51/51 52/52/52 45/45/45
f 53/53/53 52/52/52 50/50/50
f 54/54/54 52/52/52 53/53/53
f 45/45/45 52/52/52 54/54/54
f 55/55/55 54/54/54 53/53/53
f 56/56/56 54/54/54 55/55/55
f 57/57/57 40/40/40 45/45/45
f 54/54/54 57/57/57 45/45/45
f 57/57/57 54/54/54 56/56/56
f 40/40/40 57/57/57 56/56/56
