g base
v -0.08779142 0.02551982 0.06391639
v -0.08779142 0.02519854 0.07316007
v -0.08241072 0.01905217 0.06151646
v -0.08241072 0.01905217 0.06151646
v -0.08779142 0.02519854 0.07316007
v -0.06942049 0.01637319 0.06000143
v 0.06673858 0.01637319 0.06001737
v 0.08510954 0.02519854 0.07316173
v 0.07972881 0.01905217 0.06151803
v 0.07972881 0.01905217 0.06151803
v 0.08510954 0.02519854 0.07316173
v 0.08510954 0.02551982 0.06391807
v 0.06673858 0.01637319 0.06001737
v -0.06942049 0.01637319 0.06000143
v -0.08779142 0.02519854 0.07316007
v 0.08510954 0.02519854 0.07316173
v -0.08779142 0.03555857 0.08828648
v 0.08510954 0.03555857 0.08829248
v 0.06488226 0.02551983 -0.031654
v 0.08510954 0.02551982 0.06391807
v 0.08510954 0.04382547 0.0707756
v 0.06488226 0.04382548 -0.031654
v 0.08510954 0.02551982 0.06391807
v 0.08510954 0.02519854 0.07316173
v 0.08510954 0.03555857 0.08829248
v 0.08510954 0.04382547 0.0707756
v 0.08510954 0.06301083 0.0967131
v -0.08779142 0.02551982 0.06391639
v -0.06756416 0.02551983 -0.031654
v -0.06756416 0.04382548 -0.031654
v -0.08779142 0.04382547 0.07077318
v 0.06488226 0.04382548 -0.031654
v 0.08510954 0.04382547 0.0707756
v -0.08779142 0.04382547 0.07077318
v -0.06756416 0.04382548 -0.031654
v 0.08553545 0.01702245 0.06138383
v 0.08844616 0.01702245 0.04523291
v 0.08844616 0.07643084 0.08115752
v 0.08553545 0.07643083 0.0964047
v 0.08844616 0.01702245 0.04523291
v 0.09582737 0.01702245 0.04523291
v 0.09582737 0.07643084 0.08115752
v 0.08844616 0.07643084 0.08115752
v 0.09582737 0.01702245 0.04523291
v 0.09873809 0.01702245 0.06138383
v 0.09873809 0.07643083 0.0964047
v 0.09582737 0.07643084 0.08115752
v 0.09873809 0.01702245 0.06138383
v 0.08553545 0.01702245 0.06138383
v 0.08553545 0.07643083 0.0964047
v 0.09873809 0.07643083 0.0964047
v 0.08844616 0.01702245 0.04523291
v 0.08553545 0.01702245 0.06138383
v 0.09873809 0.01702245 0.06138383
v 0.09582737 0.01702245 0.04523291
v 0.09582737 0.07643084 0.08115752
v 0.09873809 0.07643083 0.0964047
v 0.08553545 0.07643083 0.0964047
v 0.08844616 0.07643084 0.08115752
v -0.1008956 0.01702245 0.06138383
v -0.0979849 0.01702245 0.04523291
v -0.0979849 0.07643084 0.08115752
v -0.1008956 0.07643083 0.0964047
v -0.0979849 0.01702245 0.04523291
v -0.09060367 0.01702245 0.04523291
v -0.09060367 0.07643084 0.08115752
v -0.0979849 0.07643084 0.08115752
v -0.09060367 0.01702245 0.04523291
v -0.08769295 0.01702245 0.06138383
v -0.08769295 0.07643083 0.0964047
v -0.09060367 0.07643084 0.08115752
v -0.08769295 0.01702245 0.06138383
v -0.1008956 0.01702245 0.06138383
v -0.1008956 0.07643083 0.0964047
v -0.08769295 0.07643083 0.0964047
v -0.0979849 0.01702245 0.04523291
v -0.1008956 0.01702245 0.06138383
v -0.08769295 0.01702245 0.06138383
v -0.09060367 0.01702245 0.04523291
v -0.09060367 0.07643084 0.08115752
v -0.08769295 0.07643083 0.0964047
v -0.1008956 0.07643083 0.0964047
v -0.0979849 0.07643084 0.08115752
v 0.08510954 0.03555857 0.08829248
v -0.08779142 0.03555857 0.08828648
v -0.08779142 0.06301083 0.09670392
v 0.08510954 0.06301083 0.0967131
v 0.05950154 0.01905219 -0.031654
v 0.06488226 0.02551983 -0.031654
v 0.06488226 0.04382548 -0.031654
v -0.06756416 0.04382548 -0.031654
v 0.04651131 0.01637321 -0.031654
v -0.04919322 0.01637321 -0.031654
v -0.06218344 0.01905219 -0.031654
v -0.06756416 0.02551983 -0.031654
v -0.08779142 0.03555857 0.08828648
v -0.08779142 0.02519854 0.07316007
v -0.08779142 0.02551982 0.06391639
v -0.08779142 0.04382547 0.07077318
v -0.08779142 0.06301083 0.09670392
v 0.08510954 0.04382547 0.0707756
v 0.08510954 0.06301083 0.0967131
v -0.08779142 0.06301083 0.09670392
v -0.08779142 0.04382547 0.07077318
v -0.04919322 0.01637321 -0.031654
v -0.06218344 0.01905219 -0.031654
v -0.08241072 0.01905217 0.06151646
v -0.06942049 0.01637319 0.06000143
v 0.06673858 0.01637319 0.06001737
v 0.04651131 0.01637321 -0.031654
v 0.05950154 0.01905219 -0.031654
v 0.07972881 0.01905217 0.06151803
v -0.06218344 0.01905219 -0.031654
v -0.06756416 0.02551983 -0.031654
v -0.08779142 0.02551982 0.06391639
v -0.08241072 0.01905217 0.06151646
v 0.07972881 0.01905217 0.06151803
v 0.08510954 0.02551982 0.06391807
v 0.06488226 0.02551983 -0.031654
v 0.05950154 0.01905219 -0.031654
vt 0.6054688 0.7539063
vt 0.6054688 0.7539063
vt 0.6054688 0.7539063
vt 0.6054688 0.7539063
vt 0.6054688 0.7539063
vt 0.6054688 0.7539063
vt 0.6054688 0.7539063
vt 0.6054688 0.7539063
vt 0.6054688 0.7539063
vt 0.6054688 0.7539063
vt 0.6054688 0.7539063
vt 0.6054688 0.7539063
vt 0.5961914 0.7802734
vt 0.5961914 0.7802734
vt 0.5961914 0.7802734
vt 0.5961914 0.7802734
vt 0.5961914 0.7802734
vt 0.5961914 0.7802734
vt 0.6054688 0.7412109
vt 0.6054688 0.7412109
vt 0.6054688 0.7412109
vt 0.6054688 0.7412109
vt 0.6098633 0.7460938
vt 0.6098633 0.7460938
vt 0.6098633 0.7460938
vt 0.6098633 0.7460938
vt 0.6098633 0.7460938
vt 0.6054688 0.7412109
vt 0.6054688 0.7412109
vt 0.6054688 0.7412109
vt 0.6054688 0.7412109
vt 0.6035156 0.7290039
vt 0.6035156 0.7290039
vt 0.6035156 0.7290039
vt 0.6035156 0.7290039
vt 0.5678711 0.7236328
vt 0.5703125 0.7241211
vt 0.5703125 0.7143555
vt 0.5678711 0.7138672
vt 0.5795898 0.7138672
vt 0.5786133 0.7138672
vt 0.5786133 0.7236328
vt 0.5795898 0.7236328
vt 0.574707 0.7138672
vt 0.5727539 0.7143555
vt 0.5727539 0.7241211
vt 0.574707 0.7236328
vt 0.5761719 0.7138672
vt 0.574707 0.7138672
vt 0.574707 0.7236328
vt 0.5761719 0.7236328
vt 0.5751953 0.7236328
vt 0.574707 0.7260742
vt 0.5761719 0.7260742
vt 0.5761719 0.7236328
vt 0.5766602 0.7236328
vt 0.5761719 0.7260742
vt 0.578125 0.7260742
vt 0.5776367 0.7236328
vt 0.5678711 0.7143555
vt 0.5654297 0.7138672
vt 0.5654297 0.7236328
vt 0.5678711 0.7241211
vt 0.5786133 0.7138672
vt 0.578125 0.7138672
vt 0.578125 0.7236328
vt 0.5786133 0.7236328
vt 0.5727539 0.7138672
vt 0.5703125 0.7143555
vt 0.5703125 0.7241211
vt 0.5727539 0.7236328
vt 0.578125 0.7138672
vt 0.5761719 0.7138672
vt 0.5761719 0.7236328
vt 0.578125 0.7236328
vt 0.5737305 0.7241211
vt 0.5732422 0.7265625
vt 0.574707 0.7265625
vt 0.574707 0.7241211
vt 0.5722656 0.7241211
vt 0.5717773 0.7265625
vt 0.5732422 0.7265625
vt 0.5732422 0.7241211
vt 0.6054688 0.7539063
vt 0.6054688 0.7539063
vt 0.6054688 0.7539063
vt 0.6054688 0.7539063
vt 0.6054688 0.7475586
vt 0.6054688 0.7475586
vt 0.6054688 0.7475586
vt 0.6054688 0.7475586
vt 0.6054688 0.7475586
vt 0.6054688 0.7475586
vt 0.6054688 0.7475586
vt 0.6054688 0.7475586
vt 0.6098633 0.7460938
vt 0.6098633 0.7460938
vt 0.6098633 0.7460938
vt 0.6098633 0.7460938
vt 0.6098633 0.7460938
vt 0.6054688 0.7539063
vt 0.6054688 0.7539063
vt 0.6054688 0.7539063
vt 0.6054688 0.7539063
vt 0.6054688 0.7539063
vt 0.6054688 0.7539063
vt 0.6054688 0.7539063
vt 0.6054688 0.7539063
vt 0.6054688 0.7539063
vt 0.6054688 0.7539063
vt 0.6054688 0.7539063
vt 0.6054688 0.7539063
vt 0.6054688 0.7539063
vt 0.6054688 0.7539063
vt 0.6054688 0.7539063
vt 0.6054688 0.7539063
vt 0.6054688 0.7539063
vt 0.6054688 0.7539063
vt 0.6054688 0.7539063
vt 0.6054688 0.7539063
vn -0.7749023 -0.6274414 -0.07824707
vn -0.7724609 -0.6347656 -0.02204895
vn -0.7744141 -0.6191406 -0.1291504
vn -0.1376953 -0.9008789 0.4118652
vn -0.02397156 -0.8427734 0.5375977
vn -0.02409363 -0.8432617 0.5371094
vn 0.02416992 -0.8432617 0.5371094
vn 0.02403259 -0.8427734 0.5375977
vn 0.1381836 -0.9008789 0.4116211
vn 0.7744141 -0.6191406 -0.1291504
vn 0.7724609 -0.6347656 -0.02204895
vn 0.7749023 -0.6274414 -0.07824707
vn 0.02416992 -0.8432617 0.5371094
vn -0.02409363 -0.8432617 0.5371094
vn -0.02397156 -0.8427734 0.5375977
vn 0.02403259 -0.8427734 0.5375977
vn -2.086163E-05 -0.8276367 0.5615234
vn -2.086163E-05 -0.8276367 0.5615234
vn 0.9790039 0.03747559 -0.2000732
vn 0.9921875 0.02282715 -0.1218872
vn 0.9980469 0.01212311 -0.0647583
vn 0.9790039 0.03747559 -0.2000732
vn 0.9921875 0.02282715 -0.1218872
vn 1 0 0
vn 1 0 0
vn 0.9980469 0.01212311 -0.0647583
vn 1 0 0
vn -0.9921875 0.02282715 -0.1218872
vn -0.9790039 0.03747559 -0.2000732
vn -0.9790039 0.03747559 -0.2000732
vn -0.9980469 0.01212311 -0.0647583
vn 0 1 1.192093E-07
vn 0 1 1.192093E-07
vn 0 1 1.192093E-07
vn 0 1 1.192093E-07
vn -0.9775391 0.1082153 -0.1812744
vn -0.9775391 0.1082153 -0.1812744
vn -0.9775391 0.1082153 -0.1812744
vn -0.9775391 0.1082153 -0.1812744
vn 0 0.5175781 -0.8554688
vn 0 0.5175781 -0.8554688
vn 0 0.5175781 -0.8554688
vn 0 0.5175781 -0.8554688
vn 0.9775391 0.1082153 -0.1812744
vn 0.9775391 0.1082153 -0.1812744
vn 0.9775391 0.1082153 -0.1812744
vn 0.9775391 0.1082153 -0.1812744
vn 0 -0.5078125 0.8613281
vn 0 -0.5078125 0.8613281
vn 0 -0.5078125 0.8613281
vn 0 -0.5078125 0.8613281
vn 0 -1 -2.384186E-07
vn 0 -1 -2.384186E-07
vn 0 -1 -2.384186E-07
vn 0 -1 -2.384186E-07
vn 0 1 4.768372E-07
vn 0 1 4.768372E-07
vn 0 1 4.768372E-07
vn 0 1 4.768372E-07
vn -0.9775391 0.1082153 -0.1812744
vn -0.9775391 0.1082153 -0.1812744
vn -0.9775391 0.1082153 -0.1812744
vn -0.9775391 0.1082153 -0.1812744
vn 0 0.5175781 -0.8554688
vn 0 0.5175781 -0.8554688
vn 0 0.5175781 -0.8554688
vn 0 0.5175781 -0.8554688
vn 0.9775391 0.1082153 -0.1812744
vn 0.9775391 0.1082153 -0.1812744
vn 0.9775391 0.1082153 -0.1812744
vn 0.9775391 0.1082153 -0.1812744
vn 0 -0.5078125 0.8613281
vn 0 -0.5078125 0.8613281
vn 0 -0.5078125 0.8613281
vn 0 -0.5078125 0.8613281
vn 0 -1 -2.384186E-07
vn 0 -1 -2.384186E-07
vn 0 -1 -2.384186E-07
vn 0 -1 -2.384186E-07
vn 0 1 4.768372E-07
vn 0 1 4.768372E-07
vn 0 1 4.768372E-07
vn 0 1 4.768372E-07
vn -4.196167E-05 -0.2932129 0.9560547
vn -4.196167E-05 -0.2932129 0.9560547
vn -4.196167E-05 -0.2932129 0.9560547
vn -4.196167E-05 -0.2932129 0.9560547
vn 0 1.788139E-07 -1
vn 0 1.788139E-07 -1
vn 0 1.788139E-07 -1
vn 0 1.788139E-07 -1
vn 0 1.788139E-07 -1
vn 0 1.788139E-07 -1
vn 0 1.788139E-07 -1
vn 0 1.788139E-07 -1
vn -1 0 -4.768372E-07
vn -1 0 -4.768372E-07
vn -0.9921875 0.02282715 -0.1218872
vn -0.9980469 0.01212311 -0.0647583
vn -1 0 -4.768372E-07
vn 1.990795E-05 0.8037109 -0.5947266
vn 1.990795E-05 0.8037109 -0.5947266
vn 1.990795E-05 0.8037109 -0.5947266
vn 1.990795E-05 0.8037109 -0.5947266
vn -0.08868408 -0.9960938 -0.01940918
vn -0.2042236 -0.9780273 -0.04470825
vn -0.2042236 -0.9780273 -0.04470825
vn -0.119873 -0.9926758 -0.02622986
vn 0.119812 -0.9926758 -0.02622986
vn 0.08868408 -0.9960938 -0.01940918
vn 0.2042236 -0.9780273 -0.04470825
vn 0.2042236 -0.9780273 -0.04470825
vn -0.7729492 -0.6123047 -0.1656494
vn -0.7729492 -0.6123047 -0.1656494
vn -0.7749023 -0.6274414 -0.07824707
vn -0.7744141 -0.6191406 -0.1291504
vn 0.7744141 -0.6191406 -0.1291504
vn 0.7749023 -0.6274414 -0.07824707
vn 0.7729492 -0.6123047 -0.1656494
vn 0.7729492 -0.6123047 -0.1656494
g base_0
f 3/3/3 2/2/2 1/1/1
f 6/6/6 5/5/5 4/4/4
f 9/9/9 8/8/8 7/7/7
f 12/12/12 11/11/11 10/10/10
f 15/15/15 14/14/14 13/13/13
f 13/13/13 16/16/16 15/15/15
f 16/16/16 17/17/17 15/15/15
f 16/16/16 18/18/18 17/17/17
f 21/21/21 20/20/20 19/19/19
f 22/22/22 21/21/21 19/19/19
f 25/25/25 24/24/24 23/23/23
f 23/23/23 26/26/26 25/25/25
f 26/26/26 27/27/27 25/25/25
f 30/30/30 29/29/29 28/28/28
f 31/31/31 30/30/30 28/28/28
f 34/34/34 33/33/33 32/32/32
f 35/35/35 34/34/34 32/32/32
f 38/38/38 37/37/37 36/36/36
f 39/39/39 38/38/38 36/36/36
f 42/42/42 41/41/41 40/40/40
f 43/43/43 42/42/42 40/40/40
f 46/46/46 45/45/45 44/44/44
f 47/47/47 46/46/46 44/44/44
f 50/50/50 49/49/49 48/48/48
f 51/51/51 50/50/50 48/48/48
f 54/54/54 53/53/53 52/52/52
f 55/55/55 54/54/54 52/52/52
f 58/58/58 57/57/57 56/56/56
f 59/59/59 58/58/58 56/56/56
f 62/62/62 61/61/61 60/60/60
f 63/63/63 62/62/62 60/60/60
f 66/66/66 65/65/65 64/64/64
f 67/67/67 66/66/66 64/64/64
f 70/70/70 69/69/69 68/68/68
f 71/71/71 70/70/70 68/68/68
f 74/74/74 73/73/73 72/72/72
f 75/75/75 74/74/74 72/72/72
f 78/78/78 77/77/77 76/76/76
f 79/79/79 78/78/78 76/76/76
f 82/82/82 81/81/81 80/80/80
f 83/83/83 82/82/82 80/80/80
f 86/86/86 85/85/85 84/84/84
f 87/87/87 86/86/86 84/84/84
f 90/90/90 89/89/89 88/88/88
f 88/88/88 91/91/91 90/90/90
f 88/88/88 92/92/92 91/91/91
f 92/92/92 93/93/93 91/91/91
f 93/93/93 94/94/94 91/91/91
f 94/94/94 95/95/95 91/91/91
f 98/98/98 97/97/97 96/96/96
f 96/96/96 99/99/99 98/98/98
f 96/96/96 100/100/100 99/99/99
f 103/103/103 102/102/102 101/101/101
f 104/104/104 103/103/103 101/101/101
f 107/107/107 106/106/106 105/105/105
f 108/108/108 107/107/107 105/105/105
f 109/109/109 108/108/108 105/105/105
f 110/110/110 109/109/109 105/105/105
f 110/110/110 111/111/111 109/109/109
f 111/111/111 112/112/112 109/109/109
f 115/115/115 114/114/114 113/113/113
f 116/116/116 115/115/115 113/113/113
f 119/119/119 118/118/118 117/117/117
f 120/120/120 119/119/119 117/117/117
