g base.001
v 0.06139766 0.01637319 0.06001737
v -0.06096688 0.01637319 0.06000143
v -0.07747664 0.02519854 0.07316007
v 0.07790743 0.02519854 0.07316173
v -0.07747664 0.03555857 0.08828648
v 0.07790743 0.03555857 0.08829248
v 0.0597294 0.02551983 -0.031654
v 0.07790743 0.02551982 0.06391807
v 0.07790743 0.04382547 0.0707756
v 0.0597294 0.04382548 -0.03165399
v 0.07790743 0.02551982 0.06391807
v 0.07790743 0.02519854 0.07316173
v 0.07790743 0.03555857 0.08829248
v 0.07790743 0.04382547 0.0707756
v 0.07790743 0.06301083 0.0967131
v -0.07747664 0.02551982 0.06391639
v -0.05929862 0.02551983 -0.031654
v -0.05929862 0.04382548 -0.03165399
v -0.07747664 0.04382547 0.07077318
v 0.0597294 0.04382548 -0.03165399
v 0.07790743 0.04382547 0.0707756
v -0.07747664 0.04382547 0.07077318
v -0.05929862 0.04382548 -0.03165399
v 0.07222109 0.01702245 0.06138383
v 0.07408469 0.01702245 0.04523291
v 0.07408469 0.07643084 0.08115752
v 0.07222109 0.07643083 0.0964047
v 0.07408469 0.01702245 0.04523291
v 0.07881053 0.01702245 0.04523291
v 0.07881053 0.07643084 0.08115752
v 0.07408469 0.07643084 0.08115752
v 0.07881053 0.01702245 0.04523291
v 0.08067412 0.01702245 0.06138383
v 0.08067412 0.07643083 0.0964047
v 0.07881053 0.07643084 0.08115752
v 0.08067412 0.01702245 0.06138383
v 0.07222109 0.01702245 0.06138383
v 0.07222109 0.07643083 0.0964047
v 0.08067412 0.07643083 0.0964047
v 0.07408469 0.01702245 0.04523291
v 0.07222109 0.01702245 0.06138383
v 0.08067412 0.01702245 0.06138383
v 0.07881053 0.01702245 0.04523291
v 0.07881053 0.07643084 0.08115752
v 0.08067412 0.07643083 0.0964047
v 0.07222109 0.07643083 0.0964047
v 0.07408469 0.07643084 0.08115752
v -0.08042916 0.01702245 0.06138383
v -0.07856557 0.01702245 0.04523291
v -0.07856557 0.07643084 0.08115752
v -0.08042916 0.07643083 0.0964047
v -0.07856557 0.01702245 0.04523291
v -0.07383974 0.01702245 0.04523291
v -0.07383974 0.07643084 0.08115752
v -0.07856557 0.07643084 0.08115752
v -0.07383974 0.01702245 0.04523291
v -0.07197614 0.01702245 0.06138383
v -0.07197614 0.07643083 0.0964047
v -0.07383974 0.07643084 0.08115752
v -0.07197614 0.01702245 0.06138383
v -0.08042916 0.01702245 0.06138383
v -0.08042916 0.07643083 0.0964047
v -0.07197614 0.07643083 0.0964047
v -0.07856557 0.01702245 0.04523291
v -0.08042916 0.01702245 0.06138383
v -0.07197614 0.01702245 0.06138383
v -0.07383974 0.01702245 0.04523291
v -0.07383974 0.07643084 0.08115752
v -0.07197614 0.07643083 0.0964047
v -0.08042916 0.07643083 0.0964047
v -0.07856557 0.07643084 0.08115752
v 0.07790743 0.03555857 0.08829248
v -0.07747664 0.03555857 0.08828648
v -0.07747664 0.06301083 0.09670392
v 0.07790743 0.06301083 0.0967131
v 0.05489383 0.01905219 -0.031654
v 0.0597294 0.02551983 -0.031654
v 0.0597294 0.04382548 -0.03165399
v -0.05929862 0.04382548 -0.03165399
v 0.04321966 0.01637321 -0.031654
v -0.04278887 0.01637321 -0.031654
v -0.05446302 0.01905219 -0.031654
v -0.05929862 0.02551983 -0.031654
v -0.07747664 0.03555857 0.08828648
v -0.07747664 0.02519854 0.07316007
v -0.07747664 0.02551982 0.06391639
v -0.07747664 0.04382547 0.07077318
v -0.07747664 0.06301083 0.09670392
v 0.07790743 0.04382547 0.0707756
v 0.07790743 0.06301083 0.0967131
v -0.07747664 0.06301083 0.09670392
v -0.07747664 0.04382547 0.07077318
v -0.07747664 0.02551982 0.06391639
v -0.07747664 0.02519854 0.07316007
v -0.07264104 0.01905217 0.06151646
v -0.06096688 0.01637319 0.06000143
v 0.06139766 0.01637319 0.06001737
v 0.07790743 0.02519854 0.07316173
v 0.07307183 0.01905217 0.06151803
v 0.07790743 0.02551982 0.06391807
v -0.04278887 0.01637321 -0.031654
v -0.05446302 0.01905219 -0.031654
v -0.07264104 0.01905217 0.06151646
v -0.06096688 0.01637319 0.06000143
v 0.06139766 0.01637319 0.06001737
v 0.04321966 0.01637321 -0.031654
v 0.05489383 0.01905219 -0.031654
v 0.07307183 0.01905217 0.06151803
v 0.0597294 0.02551983 -0.031654
v 0.07790743 0.02551982 0.06391807
v -0.05446302 0.01905219 -0.031654
v -0.05929862 0.02551983 -0.031654
v -0.07747664 0.02551982 0.06391639
v -0.07264104 0.01905217 0.06151646
vt 0.6352539 0.4677734
vt 0.6352539 0.4677734
vt 0.6352539 0.4677734
vt 0.6352539 0.4677734
vt 0.6352539 0.4677734
vt 0.6352539 0.4677734
vt 0.6445313 0.4289551
vt 0.6445313 0.4289551
vt 0.6445313 0.4289551
vt 0.6445313 0.4289551
vt 0.6489258 0.4335938
vt 0.6489258 0.4335938
vt 0.6489258 0.4335938
vt 0.6489258 0.4335938
vt 0.6489258 0.4335938
vt 0.6445313 0.4289551
vt 0.6445313 0.4289551
vt 0.6445313 0.4289551
vt 0.6445313 0.4289551
vt 0.6425781 0.4165039
vt 0.6425781 0.4165039
vt 0.6425781 0.4165039
vt 0.6425781 0.4165039
vt 0.6069336 0.4111328
vt 0.609375 0.4118652
vt 0.609375 0.4018555
vt 0.6069336 0.401123
vt 0.6186523 0.401123
vt 0.6176758 0.401123
vt 0.6176758 0.4111328
vt 0.6186523 0.4111328
vt 0.6137695 0.401123
vt 0.6118164 0.4018555
vt 0.6118164 0.4118652
vt 0.6137695 0.4111328
vt 0.6152344 0.401123
vt 0.6137695 0.401123
vt 0.6137695 0.4111328
vt 0.6152344 0.4111328
vt 0.6142578 0.4111328
vt 0.6137695 0.4135742
vt 0.6152344 0.4135742
vt 0.6152344 0.4111328
vt 0.6157227 0.4111328
vt 0.6152344 0.4135742
vt 0.6171875 0.4135742
vt 0.6166992 0.4111328
vt 0.6069336 0.4018555
vt 0.6044922 0.401123
vt 0.6044922 0.4111328
vt 0.6069336 0.4118652
vt 0.6176758 0.401123
vt 0.6171875 0.401123
vt 0.6171875 0.4111328
vt 0.6176758 0.4111328
vt 0.6118164 0.401123
vt 0.609375 0.4018555
vt 0.609375 0.4118652
vt 0.6118164 0.4111328
vt 0.6171875 0.401123
vt 0.6152344 0.401123
vt 0.6152344 0.4111328
vt 0.6171875 0.4111328
vt 0.612793 0.4118652
vt 0.6123047 0.4143066
vt 0.6137695 0.4143066
vt 0.6137695 0.4118652
vt 0.6113281 0.4118652
vt 0.6108398 0.4143066
vt 0.6123047 0.4143066
vt 0.6123047 0.4118652
vt 0.6445313 0.4414063
vt 0.6445313 0.4414063
vt 0.6445313 0.4414063
vt 0.6445313 0.4414063
vt 0.6445313 0.4350586
vt 0.6445313 0.4350586
vt 0.6445313 0.4350586
vt 0.6445313 0.4350586
vt 0.6445313 0.4350586
vt 0.6445313 0.4350586
vt 0.6445313 0.4350586
vt 0.6445313 0.4350586
vt 0.6489258 0.4335938
vt 0.6489258 0.4335938
vt 0.6489258 0.4335938
vt 0.6489258 0.4335938
vt 0.6489258 0.4335938
vt 0.6445313 0.4414063
vt 0.6445313 0.4414063
vt 0.6445313 0.4414063
vt 0.6445313 0.4414063
vt 0.6445313 0.4414063
vt 0.6445313 0.4414063
vt 0.6445313 0.4414063
vt 0.6445313 0.4414063
vt 0.6445313 0.4414063
vt 0.6445313 0.4414063
vt 0.6445313 0.4414063
vt 0.6445313 0.4414063
vt 0.6445313 0.4414063
vt 0.6445313 0.4414063
vt 0.6445313 0.4414063
vt 0.6445313 0.4414063
vt 0.6445313 0.4414063
vt 0.6445313 0.4414063
vt 0.6445313 0.4414063
vt 0.6445313 0.4414063
vt 0.6445313 0.4414063
vt 0.6445313 0.4414063
vt 0.6445313 0.4414063
vt 0.6445313 0.4414063
vt 0.6445313 0.4414063
vt 0.6445313 0.4414063
vn 0.02679443 -0.9956055 0.08709717
vn -0.02761841 -0.9970703 0.07043457
vn -0.04907227 -0.828125 0.5585938
vn 0.04647827 -0.828125 0.5585938
vn -3.868341E-05 -0.4399414 0.8979492
vn -4.23789E-05 -0.4399414 0.8979492
vn 0.9707031 -0.1586914 -0.180542
vn 0.9804688 -0.09533691 -0.1723633
vn 0.9892578 0.02696228 -0.1439209
vn 0.9829102 0.03381348 -0.180542
vn 0.9804688 -0.09533691 -0.1723633
vn 0.04647827 -0.828125 0.5585938
vn 1 0 0
vn 0.9892578 0.02696228 -0.1439209
vn 1 0 0
vn -0.9804688 -0.09533691 -0.1723633
vn -0.9707031 -0.1586914 -0.180542
vn -0.9829102 0.03381348 -0.180542
vn -0.9892578 0.02696228 -0.1439209
vn 0 1 1.192093E-07
vn 6.616116E-06 0.9838867 -0.1776123
vn 6.616116E-06 0.9838867 -0.1776123
vn 0 1 1.192093E-07
vn -0.9907227 0.07019043 -0.1176147
vn -0.9907227 0.07019043 -0.1176147
vn -0.9907227 0.07019043 -0.1176147
vn -0.9907227 0.07019043 -0.1176147
vn 0 0.5175781 -0.8554688
vn 0 0.5175781 -0.8554688
vn 0 0.7036133 -0.7104492
vn 0 0.7036133 -0.7104492
vn 0.9907227 0.07019043 -0.1176147
vn 0.9907227 0.07019043 -0.1176147
vn 0.9907227 0.07019043 -0.1176147
vn 0.9907227 0.07019043 -0.1176147
vn 0 -0.6181641 0.7861328
vn 0 -0.6181641 0.7861328
vn 0 -0.5078125 0.8613281
vn 0 -0.5078125 0.8613281
vn 0 -1 0
vn 0 -0.6181641 0.7861328
vn 0 -0.6181641 0.7861328
vn 0 -1 0
vn 0 0.7036133 -0.7104492
vn 0 1 0
vn 0 1 0
vn 0 0.7036133 -0.7104492
vn -0.9907227 0.07019043 -0.1176147
vn -0.9907227 0.07019043 -0.1176147
vn -0.9907227 0.07019043 -0.1176147
vn -0.9907227 0.07019043 -0.1176147
vn 0 0.5175781 -0.8554688
vn 0 0.5175781 -0.8554688
vn 0 0.7036133 -0.7104492
vn 0 0.7036133 -0.7104492
vn 0.9907227 0.07019043 -0.1176147
vn 0.9907227 0.07019043 -0.1176147
vn 0.9907227 0.07019043 -0.1176147
vn 0.9907227 0.07019043 -0.1176147
vn 0 -0.6181641 0.7861328
vn 0 -0.6181641 0.7861328
vn 0 -0.5078125 0.8613281
vn 0 -0.5078125 0.8613281
vn 0 -1 0
vn 0 -0.6181641 0.7861328
vn 0 -0.6181641 0.7861328
vn 0 -1 0
vn 0 0.7036133 -0.7104492
vn 0 1 0
vn 0 1 0
vn 0 0.7036133 -0.7104492
vn -4.23789E-05 -0.4399414 0.8979492
vn -3.868341E-05 -0.4399414 0.8979492
vn -4.667044E-05 -0.2932129 0.9560547
vn -4.667044E-05 -0.2932129 0.9560547
vn 0 2.980232E-07 -1
vn 0 0 -1
vn 0 2.980232E-07 -1
vn 0 0 -1
vn 0 0 -1
vn 0 2.384186E-07 -1
vn 0 0 -1
vn 0 0 -1
vn -1 0 0
vn -0.04907227 -0.828125 0.5585938
vn -0.9804688 -0.09533691 -0.1723633
vn -0.9892578 0.02696228 -0.1439209
vn -1 0 0
vn 6.616116E-06 0.9838867 -0.1776123
vn 2.217293E-05 0.8037109 -0.5947266
vn 2.217293E-05 0.8037109 -0.5947266
vn 6.616116E-06 0.9838867 -0.1776123
vn -0.9804688 -0.09533691 -0.1723633
vn -0.04907227 -0.828125 0.5585938
vn -0.5512695 -0.8305664 -0.081604
vn -0.02761841 -0.9970703 0.07043457
vn 0.02679443 -0.9956055 0.08709717
vn 0.04647827 -0.828125 0.5585938
vn 0.5507813 -0.8305664 -0.081604
vn 0.9804688 -0.09533691 -0.1723633
vn -0.01863098 -1 -0.003664017
vn -0.465332 -0.8803711 -0.090271
vn -0.5512695 -0.8305664 -0.081604
vn -0.02761841 -0.9970703 0.07043457
vn 0.02679443 -0.9956055 0.08709717
vn 0.01863098 -1 -0.003664017
vn 0.465332 -0.8803711 -0.09020996
vn 0.5507813 -0.8305664 -0.081604
vn 0.9707031 -0.1586914 -0.180542
vn 0.9804688 -0.09533691 -0.1723633
vn -0.465332 -0.8803711 -0.090271
vn -0.9707031 -0.1586914 -0.180542
vn -0.9804688 -0.09533691 -0.1723633
vn -0.5512695 -0.8305664 -0.081604
g base.001_0
f 3/3/3 2/2/2 1/1/1
f 1/1/1 4/4/4 3/3/3
f 4/4/4 5/5/5 3/3/3
f 4/4/4 6/6/6 5/5/5
f 9/9/9 8/8/8 7/7/7
f 10/10/10 9/9/9 7/7/7
f 13/13/13 12/12/12 11/11/11
f 11/11/11 14/14/14 13/13/13
f 14/14/14 15/15/15 13/13/13
f 18/18/18 17/17/17 16/16/16
f 19/19/19 18/18/18 16/16/16
f 22/22/22 21/21/21 20/20/20
f 23/23/23 22/22/22 20/20/20
f 26/26/26 25/25/25 24/24/24
f 27/27/27 26/26/26 24/24/24
f 30/30/30 29/29/29 28/28/28
f 31/31/31 30/30/30 28/28/28
f 34/34/34 33/33/33 32/32/32
f 35/35/35 34/34/34 32/32/32
f 38/38/38 37/37/37 36/36/36
f 39/39/39 38/38/38 36/36/36
f 42/42/42 41/41/41 40/40/40
f 43/43/43 42/42/42 40/40/40
f 46/46/46 45/45/45 44/44/44
f 47/47/47 46/46/46 44/44/44
f 50/50/50 49/49/49 48/48/48
f 51/51/51 50/50/50 48/48/48
f 54/54/54 53/53/53 52/52/52
f 55/55/55 54/54/54 52/52/52
f 58/58/58 57/57/57 56/56/56
f 59/59/59 58/58/58 56/56/56
f 62/62/62 61/61/61 60/60/60
f 63/63/63 62/62/62 60/60/60
f 66/66/66 65/65/65 64/64/64
f 67/67/67 66/66/66 64/64/64
f 70/70/70 69/69/69 68/68/68
f 71/71/71 70/70/70 68/68/68
f 74/74/74 73/73/73 72/72/72
f 75/75/75 74/74/74 72/72/72
f 78/78/78 77/77/77 76/76/76
f 76/76/76 79/79/79 78/78/78
f 76/76/76 80/80/80 79/79/79
f 80/80/80 81/81/81 79/79/79
f 81/81/81 82/82/82 79/79/79
f 82/82/82 83/83/83 79/79/79
f 86/86/86 85/85/85 84/84/84
f 84/84/84 87/87/87 86/86/86
f 84/84/84 88/88/88 87/87/87
f 91/91/91 90/90/90 89/89/89
f 92/92/92 91/91/91 89/89/89
f 95/95/95 94/94/94 93/93/93
f 96/96/96 94/94/94 95/95/95
f 99/99/99 98/98/98 97/97/97
f 100/100/100 98/98/98 99/99/99
f 103/103/103 102/102/102 101/101/101
f 104/104/104 103/103/103 101/101/101
f 105/105/105 104/104/104 101/101/101
f 106/106/106 105/105/105 101/101/101
f 106/106/106 107/107/107 105/105/105
f 107/107/107 108/108/108 105/105/105
f 107/107/107 109/109/109 108/108/108
f 109/109/109 110/110/110 108/108/108
f 113/113/113 112/112/112 111/111/111
f 114/114/114 113/113/113 111/111/111
