g base.001
v -0.07747664 0.02551982 0.06391639
v -0.07747664 0.02519854 0.07316007
v -0.07264104 0.01905217 0.06151646
v -0.07264104 0.01905217 0.06151646
v -0.07747664 0.02519854 0.07316007
v -0.06096688 0.01637319 0.06000143
v 0.06139766 0.01637319 0.06001737
v 0.07790743 0.02519854 0.07316173
v 0.07307183 0.01905217 0.06151803
v 0.07307183 0.01905217 0.06151803
v 0.07790743 0.02519854 0.07316173
v 0.07790743 0.02551982 0.06391807
v 0.06139766 0.01637319 0.06001737
v -0.06096688 0.01637319 0.06000143
v -0.07747664 0.02519854 0.07316007
v 0.07790743 0.02519854 0.07316173
v -0.07747664 0.03555857 0.08828648
v 0.07790743 0.03555857 0.08829248
v 0.0597294 0.02551983 -0.031654
v 0.07790743 0.02551982 0.06391807
v 0.07790743 0.04382547 0.0707756
v 0.0597294 0.04382548 -0.03165399
v 0.07790743 0.02551982 0.06391807
v 0.07790743 0.02519854 0.07316173
v 0.07790743 0.03555857 0.08829248
v 0.07790743 0.04382547 0.0707756
v 0.07790743 0.06301083 0.0967131
v -0.07747664 0.02551982 0.06391639
v -0.05929862 0.02551983 -0.031654
v -0.05929862 0.04382548 -0.03165399
v -0.07747664 0.04382547 0.07077318
v 0.0597294 0.04382548 -0.03165399
v 0.07790743 0.04382547 0.0707756
v -0.07747664 0.04382547 0.07077318
v -0.05929862 0.04382548 -0.03165399
v 0.07222109 0.01702245 0.06138383
v 0.07408469 0.01702245 0.04523291
v 0.07408469 0.07643084 0.08115752
v 0.07222109 0.07643083 0.0964047
v 0.07408469 0.01702245 0.04523291
v 0.07881053 0.01702245 0.04523291
v 0.07881053 0.07643084 0.08115752
v 0.07408469 0.07643084 0.08115752
v 0.07881053 0.01702245 0.04523291
v 0.08067412 0.01702245 0.06138383
v 0.08067412 0.07643083 0.0964047
v 0.07881053 0.07643084 0.08115752
v 0.08067412 0.01702245 0.06138383
v 0.07222109 0.01702245 0.06138383
v 0.07222109 0.07643083 0.0964047
v 0.08067412 0.07643083 0.0964047
v 0.07408469 0.01702245 0.04523291
v 0.07222109 0.01702245 0.06138383
v 0.08067412 0.01702245 0.06138383
v 0.07881053 0.01702245 0.04523291
v 0.07881053 0.07643084 0.08115752
v 0.08067412 0.07643083 0.0964047
v 0.07222109 0.07643083 0.0964047
v 0.07408469 0.07643084 0.08115752
v -0.08042916 0.01702245 0.06138383
v -0.07856557 0.01702245 0.04523291
v -0.07856557 0.07643084 0.08115752
v -0.08042916 0.07643083 0.0964047
v -0.07856557 0.01702245 0.04523291
v -0.07383974 0.01702245 0.04523291
v -0.07383974 0.07643084 0.08115752
v -0.07856557 0.07643084 0.08115752
v -0.07383974 0.01702245 0.04523291
v -0.07197614 0.01702245 0.06138383
v -0.07197614 0.07643083 0.0964047
v -0.07383974 0.07643084 0.08115752
v -0.07197614 0.01702245 0.06138383
v -0.08042916 0.01702245 0.06138383
v -0.08042916 0.07643083 0.0964047
v -0.07197614 0.07643083 0.0964047
v -0.07856557 0.01702245 0.04523291
v -0.08042916 0.01702245 0.06138383
v -0.07197614 0.01702245 0.06138383
v -0.07383974 0.01702245 0.04523291
v -0.07383974 0.07643084 0.08115752
v -0.07197614 0.07643083 0.0964047
v -0.08042916 0.07643083 0.0964047
v -0.07856557 0.07643084 0.08115752
v 0.07790743 0.03555857 0.08829248
v -0.07747664 0.03555857 0.08828648
v -0.07747664 0.06301083 0.09670392
v 0.07790743 0.06301083 0.0967131
v 0.05489383 0.01905219 -0.031654
v 0.0597294 0.02551983 -0.031654
v 0.0597294 0.04382548 -0.03165399
v -0.05929862 0.04382548 -0.03165399
v 0.04321966 0.01637321 -0.031654
v -0.04278887 0.01637321 -0.031654
v -0.05446302 0.01905219 -0.031654
v -0.05929862 0.02551983 -0.031654
v -0.07747664 0.03555857 0.08828648
v -0.07747664 0.02519854 0.07316007
v -0.07747664 0.02551982 0.06391639
v -0.07747664 0.04382547 0.07077318
v -0.07747664 0.06301083 0.09670392
v 0.07790743 0.04382547 0.0707756
v 0.07790743 0.06301083 0.0967131
v -0.07747664 0.06301083 0.09670392
v -0.07747664 0.04382547 0.07077318
v -0.04278887 0.01637321 -0.031654
v -0.05446302 0.01905219 -0.031654
v -0.07264104 0.01905217 0.06151646
v -0.06096688 0.01637319 0.06000143
v 0.06139766 0.01637319 0.06001737
v 0.04321966 0.01637321 -0.031654
v 0.05489383 0.01905219 -0.031654
v 0.07307183 0.01905217 0.06151803
v -0.05446302 0.01905219 -0.031654
v -0.05929862 0.02551983 -0.031654
v -0.07747664 0.02551982 0.06391639
v -0.07264104 0.01905217 0.06151646
v 0.07307183 0.01905217 0.06151803
v 0.07790743 0.02551982 0.06391807
v 0.0597294 0.02551983 -0.031654
v 0.05489383 0.01905219 -0.031654
vt 0.9438477 0.8974609
vt 0.9438477 0.8974609
vt 0.9438477 0.8974609
vt 0.9438477 0.8974609
vt 0.9438477 0.8974609
vt 0.9438477 0.8974609
vt 0.9438477 0.8974609
vt 0.9438477 0.8974609
vt 0.9438477 0.8974609
vt 0.9438477 0.8974609
vt 0.9438477 0.8974609
vt 0.9438477 0.8974609
vt 0.9345703 0.9238281
vt 0.9345703 0.9238281
vt 0.9345703 0.9238281
vt 0.9345703 0.9238281
vt 0.9345703 0.9238281
vt 0.9345703 0.9238281
vt 0.9438477 0.8852539
vt 0.9438477 0.8852539
vt 0.9438477 0.8852539
vt 0.9438477 0.8852539
vt 0.9487305 0.8896484
vt 0.9487305 0.8896484
vt 0.9487305 0.8896484
vt 0.9487305 0.8896484
vt 0.9487305 0.8896484
vt 0.9438477 0.8852539
vt 0.9438477 0.8852539
vt 0.9438477 0.8852539
vt 0.9438477 0.8852539
vt 0.9423828 0.8725586
vt 0.9423828 0.8725586
vt 0.9423828 0.8725586
vt 0.9423828 0.8725586
vt 0.9067383 0.8671875
vt 0.9091797 0.8681641
vt 0.9091797 0.8579102
vt 0.9067383 0.8574219
vt 0.918457 0.8574219
vt 0.9174805 0.8574219
vt 0.9174805 0.8671875
vt 0.918457 0.8671875
vt 0.9135742 0.8574219
vt 0.9111328 0.8579102
vt 0.9111328 0.8681641
vt 0.9135742 0.8671875
vt 0.9150391 0.8574219
vt 0.9135742 0.8574219
vt 0.9135742 0.8671875
vt 0.9150391 0.8671875
vt 0.9140625 0.8671875
vt 0.9135742 0.8696289
vt 0.9150391 0.8696289
vt 0.9150391 0.8671875
vt 0.9155273 0.8671875
vt 0.9150391 0.8696289
vt 0.9165039 0.8696289
vt 0.9165039 0.8671875
vt 0.9067383 0.8579102
vt 0.9042969 0.8574219
vt 0.9042969 0.8671875
vt 0.9067383 0.8681641
vt 0.9174805 0.8574219
vt 0.9165039 0.8574219
vt 0.9165039 0.8671875
vt 0.9174805 0.8671875
vt 0.9111328 0.8574219
vt 0.9091797 0.8579102
vt 0.9091797 0.8681641
vt 0.9111328 0.8671875
vt 0.9165039 0.8574219
vt 0.9150391 0.8574219
vt 0.9150391 0.8671875
vt 0.9165039 0.8671875
vt 0.9125977 0.8681641
vt 0.9121094 0.8706055
vt 0.9135742 0.8706055
vt 0.9135742 0.8681641
vt 0.9111328 0.8681641
vt 0.9106445 0.8706055
vt 0.9121094 0.8706055
vt 0.9116211 0.8681641
vt 0.9438477 0.8974609
vt 0.9438477 0.8974609
vt 0.9438477 0.8974609
vt 0.9438477 0.8974609
vt 0.9438477 0.8911133
vt 0.9438477 0.8911133
vt 0.9438477 0.8911133
vt 0.9438477 0.8911133
vt 0.9438477 0.8911133
vt 0.9438477 0.8911133
vt 0.9438477 0.8911133
vt 0.9438477 0.8911133
vt 0.9487305 0.8896484
vt 0.9487305 0.8896484
vt 0.9487305 0.8896484
vt 0.9487305 0.8896484
vt 0.9487305 0.8896484
vt 0.9438477 0.8974609
vt 0.9438477 0.8974609
vt 0.9438477 0.8974609
vt 0.9438477 0.8974609
vt 0.9438477 0.8974609
vt 0.9438477 0.8974609
vt 0.9438477 0.8974609
vt 0.9438477 0.8974609
vt 0.9438477 0.8974609
vt 0.9438477 0.8974609
vt 0.9438477 0.8974609
vt 0.9438477 0.8974609
vt 0.9438477 0.8974609
vt 0.9438477 0.8974609
vt 0.9438477 0.8974609
vt 0.9438477 0.8974609
vt 0.9438477 0.8974609
vt 0.9438477 0.8974609
vt 0.9438477 0.8974609
vt 0.9438477 0.8974609
vn -0.8061523 -0.5869141 -0.07324219
vn -0.8041992 -0.59375 -0.02062988
vn -0.8061523 -0.5795898 -0.1203613
vn -0.1529541 -0.8989258 0.4108887
vn -0.02536011 -0.8422852 0.5385742
vn -0.02862549 -0.84375 0.5356445
vn 0.02871704 -0.8442383 0.5356445
vn 0.0254364 -0.8422852 0.5385742
vn 0.1534424 -0.8989258 0.4106445
vn 0.8061523 -0.5795898 -0.1203613
vn 0.8041992 -0.59375 -0.02062988
vn 0.8061523 -0.5869141 -0.07324219
vn 0.02871704 -0.8442383 0.5356445
vn -0.02862549 -0.84375 0.5356445
vn -0.02536011 -0.8422852 0.5385742
vn 0.0254364 -0.8422852 0.5385742
vn -2.324581E-05 -0.8271484 0.5615234
vn -2.324581E-05 -0.8271484 0.5615234
vn 0.9829102 0.03381348 -0.180542
vn 0.9936523 0.02058411 -0.1099243
vn 0.9980469 0.01092529 -0.05831909
vn 0.9829102 0.03381348 -0.180542
vn 0.9936523 0.02058411 -0.1099243
vn 1 0 0
vn 1 0 0
vn 0.9980469 0.01092529 -0.05831909
vn 1 0 0
vn -0.9936523 0.02058411 -0.1099243
vn -0.9829102 0.03381348 -0.180542
vn -0.9829102 0.03381348 -0.180542
vn -0.9980469 0.01092529 -0.05831909
vn 0 1 1.192093E-07
vn 0 1 1.192093E-07
vn 0 1 1.192093E-07
vn 0 1 1.192093E-07
vn -0.9907227 0.07019043 -0.1176147
vn -0.9907227 0.07019043 -0.1176147
vn -0.9907227 0.07019043 -0.1176147
vn -0.9907227 0.07019043 -0.1176147
vn 0 0.5175781 -0.8554688
vn 0 0.5175781 -0.8554688
vn 0 0.5175781 -0.8554688
vn 0 0.5175781 -0.8554688
vn 0.9907227 0.07019043 -0.1176147
vn 0.9907227 0.07019043 -0.1176147
vn 0.9907227 0.07019043 -0.1176147
vn 0.9907227 0.07019043 -0.1176147
vn 0 -0.5078125 0.8613281
vn 0 -0.5078125 0.8613281
vn 0 -0.5078125 0.8613281
vn 0 -0.5078125 0.8613281
vn 0 -1 -2.384186E-07
vn 0 -1 -2.384186E-07
vn 0 -1 -2.384186E-07
vn 0 -1 -2.384186E-07
vn 0 1 4.768372E-07
vn 0 1 4.768372E-07
vn 0 1 4.768372E-07
vn 0 1 4.768372E-07
vn -0.9907227 0.07019043 -0.1176147
vn -0.9907227 0.07019043 -0.1176147
vn -0.9907227 0.07019043 -0.1176147
vn -0.9907227 0.07019043 -0.1176147
vn 0 0.5175781 -0.8554688
vn 0 0.5175781 -0.8554688
vn 0 0.5175781 -0.8554688
vn 0 0.5175781 -0.8554688
vn 0.9907227 0.07019043 -0.1176147
vn 0.9907227 0.07019043 -0.1176147
vn 0.9907227 0.07019043 -0.1176147
vn 0.9907227 0.07019043 -0.1176147
vn 0 -0.5078125 0.8613281
vn 0 -0.5078125 0.8613281
vn 0 -0.5078125 0.8613281
vn 0 -0.5078125 0.8613281
vn 0 -1 -2.384186E-07
vn 0 -1 -2.384186E-07
vn 0 -1 -2.384186E-07
vn 0 -1 -2.384186E-07
vn 0 1 4.768372E-07
vn 0 1 4.768372E-07
vn 0 1 4.768372E-07
vn 0 1 4.768372E-07
vn -4.667044E-05 -0.2932129 0.9560547
vn -4.667044E-05 -0.2932129 0.9560547
vn -4.667044E-05 -0.2932129 0.9560547
vn -4.667044E-05 -0.2932129 0.9560547
vn 0 2.980232E-07 -1
vn 0 2.980232E-07 -1
vn 0 2.980232E-07 -1
vn 0 2.980232E-07 -1
vn 0 2.980232E-07 -1
vn 0 2.980232E-07 -1
vn 0 2.980232E-07 -1
vn 0 2.980232E-07 -1
vn -1 0 0
vn -1 0 0
vn -0.9936523 0.02058411 -0.1099243
vn -0.9980469 0.01092529 -0.05831909
vn -1 0 0
vn 2.217293E-05 0.8037109 -0.5947266
vn 2.217293E-05 0.8037109 -0.5947266
vn 2.217293E-05 0.8037109 -0.5947266
vn 2.217293E-05 0.8037109 -0.5947266
vn -0.09985352 -0.9946289 -0.01963806
vn -0.2261963 -0.9731445 -0.04449463
vn -0.2261963 -0.9731445 -0.04449463
vn -0.1317139 -0.9907227 -0.02590942
vn 0.1317139 -0.9907227 -0.02589417
vn 0.09985352 -0.9946289 -0.01963806
vn 0.2261963 -0.9731445 -0.04449463
vn 0.2261963 -0.9731445 -0.04449463
vn -0.8046875 -0.5727539 -0.1550293
vn -0.8046875 -0.5727539 -0.1550293
vn -0.8061523 -0.5869141 -0.07324219
vn -0.8061523 -0.5795898 -0.1203613
vn 0.8061523 -0.5795898 -0.1203613
vn 0.8061523 -0.5869141 -0.07324219
vn 0.8046875 -0.5727539 -0.1550293
vn 0.8046875 -0.5727539 -0.1550293
g base.001_0
f 3/3/3 2/2/2 1/1/1
f 6/6/6 5/5/5 4/4/4
f 9/9/9 8/8/8 7/7/7
f 12/12/12 11/11/11 10/10/10
f 15/15/15 14/14/14 13/13/13
f 13/13/13 16/16/16 15/15/15
f 16/16/16 17/17/17 15/15/15
f 16/16/16 18/18/18 17/17/17
f 21/21/21 20/20/20 19/19/19
f 22/22/22 21/21/21 19/19/19
f 25/25/25 24/24/24 23/23/23
f 23/23/23 26/26/26 25/25/25
f 26/26/26 27/27/27 25/25/25
f 30/30/30 29/29/29 28/28/28
f 31/31/31 30/30/30 28/28/28
f 34/34/34 33/33/33 32/32/32
f 35/35/35 34/34/34 32/32/32
f 38/38/38 37/37/37 36/36/36
f 39/39/39 38/38/38 36/36/36
f 42/42/42 41/41/41 40/40/40
f 43/43/43 42/42/42 40/40/40
f 46/46/46 45/45/45 44/44/44
f 47/47/47 46/46/46 44/44/44
f 50/50/50 49/49/49 48/48/48
f 51/51/51 50/50/50 48/48/48
f 54/54/54 53/53/53 52/52/52
f 55/55/55 54/54/54 52/52/52
f 58/58/58 57/57/57 56/56/56
f 59/59/59 58/58/58 56/56/56
f 62/62/62 61/61/61 60/60/60
f 63/63/63 62/62/62 60/60/60
f 66/66/66 65/65/65 64/64/64
f 67/67/67 66/66/66 64/64/64
f 70/70/70 69/69/69 68/68/68
f 71/71/71 70/70/70 68/68/68
f 74/74/74 73/73/73 72/72/72
f 75/75/75 74/74/74 72/72/72
f 78/78/78 77/77/77 76/76/76
f 79/79/79 78/78/78 76/76/76
f 82/82/82 81/81/81 80/80/80
f 83/83/83 82/82/82 80/80/80
f 86/86/86 85/85/85 84/84/84
f 87/87/87 86/86/86 84/84/84
f 90/90/90 89/89/89 88/88/88
f 88/88/88 91/91/91 90/90/90
f 88/88/88 92/92/92 91/91/91
f 92/92/92 93/93/93 91/91/91
f 93/93/93 94/94/94 91/91/91
f 94/94/94 95/95/95 91/91/91
f 98/98/98 97/97/97 96/96/96
f 96/96/96 99/99/99 98/98/98
f 96/96/96 100/100/100 99/99/99
f 103/103/103 102/102/102 101/101/101
f 104/104/104 103/103/103 101/101/101
f 107/107/107 106/106/106 105/105/105
f 108/108/108 107/107/107 105/105/105
f 109/109/109 108/108/108 105/105/105
f 110/110/110 109/109/109 105/105/105
f 110/110/110 111/111/111 109/109/109
f 111/111/111 112/112/112 109/109/109
f 115/115/115 114/114/114 113/113/113
f 116/116/116 115/115/115 113/113/113
f 119/119/119 118/118/118 117/117/117
f 120/120/120 119/119/119 117/117/117
