g BASE
v -0.4609367 0.2551982 0.5396806
v -0.4609367 0.2519855 0.6341578
v -0.4075477 0.1905218 0.5396806
v -0.4075477 0.1905218 0.5396806
v -0.4609367 0.2519855 0.6341578
v -0.2786553 0.163732 0.5396806
v 0.2671311 0.163732 0.5396806
v 0.4494126 0.2519855 0.6341578
v 0.3960236 0.1905218 0.5396806
v 0.3960236 0.1905218 0.5396806
v 0.4494126 0.2519855 0.6341578
v 0.4494126 0.2551982 0.5396806
v 0.4494126 0.2519855 0.6341578
v 0.2671311 0.163732 0.5396806
v -0.2786553 0.163732 0.5396806
v -0.4609367 0.2519855 0.6341578
v 0.4494126 0.3555858 0.7450642
v -0.4609367 0.3555858 0.7450642
v 0.2487121 0.2551982 -0.3165399
v 0.4494126 0.2551982 0.5396806
v 0.4494126 0.4382548 0.5396806
v 0.2487121 0.4382548 -0.3165399
v 0.4494126 0.2551982 0.5396806
v 0.4494126 0.2519855 0.6341578
v 0.4494126 0.3555858 0.7450642
v 0.4494126 0.4382548 0.5396806
v 0.4494126 0.6301085 0.7450642
v -0.4609367 0.2551982 0.5396806
v -0.2602362 0.2551982 -0.3165399
v -0.2602362 0.4382548 -0.3165399
v -0.4609367 0.4382548 0.5396806
v 0.2487121 0.4382548 -0.3165399
v 0.4494126 0.4382548 0.5396806
v -0.4609367 0.4382548 0.5396806
v -0.2602362 0.4382548 -0.3165399
v 0.3866307 0.1702246 0.5455397
v 0.4072065 0.1702246 0.3930678
v 0.4072065 0.7643085 0.575083
v 0.3866307 0.7643085 0.7275547
v 0.4072065 0.1702246 0.3930678
v 0.4593836 0.1702246 0.3930678
v 0.4593836 0.7643085 0.575083
v 0.4072065 0.7643085 0.575083
v 0.4593836 0.1702246 0.3930678
v 0.4799593 0.1702246 0.5455397
v 0.4799593 0.7643085 0.7275547
v 0.4593836 0.7643085 0.575083
v 0.4799593 0.1702246 0.5455397
v 0.3866307 0.1702246 0.5455397
v 0.3866307 0.7643085 0.7275547
v 0.4799593 0.7643085 0.7275547
v 0.4072065 0.1702246 0.3930678
v 0.3866307 0.1702246 0.5455397
v 0.4799593 0.1702246 0.5455397
v 0.4593836 0.1702246 0.3930678
v 0.4593836 0.7643085 0.575083
v 0.4799593 0.7643085 0.7275547
v 0.3866307 0.7643085 0.7275547
v 0.4072065 0.7643085 0.575083
v -0.4935352 0.1702246 0.5455397
v -0.4729596 0.1702246 0.3930678
v -0.4729596 0.7643085 0.575083
v -0.4935352 0.7643085 0.7275547
v -0.4729596 0.1702246 0.3930678
v -0.4207823 0.1702246 0.3930678
v -0.4207823 0.7643085 0.575083
v -0.4729596 0.7643085 0.575083
v -0.4207823 0.1702246 0.3930678
v -0.4002066 0.1702246 0.5455397
v -0.4002066 0.7643085 0.7275547
v -0.4207823 0.7643085 0.575083
v -0.4002066 0.1702246 0.5455397
v -0.4935352 0.1702246 0.5455397
v -0.4935352 0.7643085 0.7275547
v -0.4002066 0.7643085 0.7275547
v -0.4729596 0.1702246 0.3930678
v -0.4935352 0.1702246 0.5455397
v -0.4002066 0.1702246 0.5455397
v -0.4207823 0.1702246 0.3930678
v -0.4207823 0.7643085 0.575083
v -0.4002066 0.7643085 0.7275547
v -0.4935352 0.7643085 0.7275547
v -0.4729596 0.7643085 0.575083
v 0.4494126 0.3555858 0.7450642
v -0.4609367 0.3555858 0.7450642
v -0.4609367 0.6301085 0.7450642
v 0.4494126 0.6301085 0.7450642
v 0.1953231 0.1905218 -0.3165399
v 0.2487121 0.2551982 -0.3165399
v 0.2487121 0.4382548 -0.3165399
v -0.2602362 0.4382548 -0.3165399
v 0.06643068 0.163732 -0.3165399
v -0.07795475 0.163732 -0.3165399
v -0.2068472 0.1905218 -0.3165399
v -0.2602362 0.2551982 -0.3165399
v -0.4609367 0.3555858 0.7450642
v -0.4609367 0.2519855 0.6341578
v -0.4609367 0.2551982 0.5396806
v -0.4609367 0.4382548 0.5396806
v -0.4609367 0.6301085 0.7450642
v 0.4494126 0.4382548 0.5396806
v 0.4494126 0.6301085 0.7450642
v -0.4609367 0.6301085 0.7450642
v -0.4609367 0.4382548 0.5396806
v -0.07795475 0.163732 -0.3165399
v -0.2068472 0.1905218 -0.3165399
v -0.4075477 0.1905218 0.5396806
v -0.2786553 0.163732 0.5396806
v 0.2671311 0.163732 0.5396806
v 0.06643068 0.163732 -0.3165399
v 0.1953231 0.1905218 -0.3165399
v 0.3960236 0.1905218 0.5396806
v -0.2068472 0.1905218 -0.3165399
v -0.2602362 0.2551982 -0.3165399
v -0.4609367 0.2551982 0.5396806
v -0.4075477 0.1905218 0.5396806
v 0.3960236 0.1905218 0.5396806
v 0.4494126 0.2551982 0.5396806
v 0.2487121 0.2551982 -0.3165399
v 0.1953231 0.1905218 -0.3165399
vt 0.6445313 0.4414063
vt 0.6445313 0.4414063
vt 0.6445313 0.4414063
vt 0.6445313 0.4414063
vt 0.6445313 0.4414063
vt 0.6445313 0.4414063
vt 0.6445313 0.4414063
vt 0.6445313 0.4414063
vt 0.6445313 0.4414063
vt 0.6445313 0.4414063
vt 0.6445313 0.4414063
vt 0.6445313 0.4414063
vt 0.6352539 0.4677734
vt 0.6352539 0.4677734
vt 0.6352539 0.4677734
vt 0.6352539 0.4677734
vt 0.6352539 0.4677734
vt 0.6352539 0.4677734
vt 0.6445313 0.4289551
vt 0.6445313 0.4289551
vt 0.6445313 0.4289551
vt 0.6445313 0.4289551
vt 0.6489258 0.4335938
vt 0.6489258 0.4335938
vt 0.6489258 0.4335938
vt 0.6489258 0.4335938
vt 0.6489258 0.4335938
vt 0.6445313 0.4289551
vt 0.6445313 0.4289551
vt 0.6445313 0.4289551
vt 0.6445313 0.4289551
vt 0.6425781 0.4165039
vt 0.6425781 0.4165039
vt 0.6425781 0.4165039
vt 0.6425781 0.4165039
vt 0.6069336 0.4111328
vt 0.609375 0.4118652
vt 0.609375 0.4018555
vt 0.6069336 0.401123
vt 0.6186523 0.401123
vt 0.6176758 0.401123
vt 0.6176758 0.4111328
vt 0.6186523 0.4111328
vt 0.6137695 0.401123
vt 0.6118164 0.4018555
vt 0.6118164 0.4118652
vt 0.6137695 0.4111328
vt 0.6152344 0.401123
vt 0.6137695 0.401123
vt 0.6137695 0.4111328
vt 0.6152344 0.4111328
vt 0.6142578 0.4111328
vt 0.6137695 0.4135742
vt 0.6152344 0.4135742
vt 0.6152344 0.4111328
vt 0.6157227 0.4111328
vt 0.6152344 0.4135742
vt 0.6171875 0.4135742
vt 0.6166992 0.4111328
vt 0.6069336 0.4018555
vt 0.6044922 0.401123
vt 0.6044922 0.4111328
vt 0.6069336 0.4118652
vt 0.6176758 0.401123
vt 0.6171875 0.401123
vt 0.6171875 0.4111328
vt 0.6176758 0.4111328
vt 0.6118164 0.401123
vt 0.609375 0.4018555
vt 0.609375 0.4118652
vt 0.6118164 0.4111328
vt 0.6171875 0.401123
vt 0.6152344 0.401123
vt 0.6152344 0.4111328
vt 0.6171875 0.4111328
vt 0.612793 0.4118652
vt 0.6123047 0.4143066
vt 0.6137695 0.4143066
vt 0.6137695 0.4118652
vt 0.6113281 0.4118652
vt 0.6108398 0.4143066
vt 0.6123047 0.4143066
vt 0.6123047 0.4118652
vt 0.6445313 0.4414063
vt 0.6445313 0.4414063
vt 0.6445313 0.4414063
vt 0.6445313 0.4414063
vt 0.6445313 0.4350586
vt 0.6445313 0.4350586
vt 0.6445313 0.4350586
vt 0.6445313 0.4350586
vt 0.6445313 0.4350586
vt 0.6445313 0.4350586
vt 0.6445313 0.4350586
vt 0.6445313 0.4350586
vt 0.6489258 0.4335938
vt 0.6489258 0.4335938
vt 0.6489258 0.4335938
vt 0.6489258 0.4335938
vt 0.6489258 0.4335938
vt 0.6445313 0.4414063
vt 0.6445313 0.4414063
vt 0.6445313 0.4414063
vt 0.6445313 0.4414063
vt 0.6445313 0.4414063
vt 0.6445313 0.4414063
vt 0.6445313 0.4414063
vt 0.6445313 0.4414063
vt 0.6445313 0.4414063
vt 0.6445313 0.4414063
vt 0.6445313 0.4414063
vt 0.6445313 0.4414063
vt 0.6445313 0.4414063
vt 0.6445313 0.4414063
vt 0.6445313 0.4414063
vt 0.6445313 0.4414063
vt 0.6445313 0.4414063
vt 0.6445313 0.4414063
vt 0.6445313 0.4414063
vt 0.6445313 0.4414063
vn -0.7675781 -0.6337891 -0.09692383
vn -0.7709961 -0.6362305 -0.02163696
vn -0.7651367 -0.6313477 -0.1260986
vn -0.1804199 -0.8681641 0.4626465
vn -0.03533936 -0.7631836 0.6450195
vn -0.02987671 -0.7587891 0.6508789
vn 0.02987671 -0.7587891 0.6508789
vn 0.03533936 -0.7631836 0.6450195
vn 0.1804199 -0.8681641 0.4626465
vn 0.7651367 -0.6313477 -0.1260986
vn 0.7709961 -0.6362305 -0.02163696
vn 0.7675781 -0.6337891 -0.09692383
vn 0.03533936 -0.7631836 0.6450195
vn 0.02987671 -0.7587891 0.6508789
vn -0.02987671 -0.7587891 0.6508789
vn -0.03533936 -0.7631836 0.6450195
vn 0 -0.730957 0.6826172
vn 0 -0.730957 0.6826172
vn 0.9736328 0 -0.2282715
vn 0.9936523 0 -0.1136475
vn 0.9956055 0 -0.09265137
vn 0.9736328 0 -0.2282715
vn 0.9936523 0 -0.1136475
vn 1 0 0
vn 1 0 0
vn 0.9956055 0 -0.09265137
vn 1 0 0
vn -0.9936523 0 -0.1136475
vn -0.9736328 0 -0.2282715
vn -0.9736328 0 -0.2282715
vn -0.9956055 0 -0.09265137
vn 0 1 0
vn 0 1 0
vn 0 1 0
vn 0 1 0
vn -0.9902344 0.04095459 -0.133667
vn -0.9902344 0.04095459 -0.133667
vn -0.9902344 0.04095459 -0.133667
vn -0.9902344 0.04095459 -0.133667
vn 0 0.2929688 -0.9560547
vn 0 0.2929688 -0.9560547
vn 0 0.2929688 -0.9560547
vn 0 0.2929688 -0.9560547
vn 0.9902344 0.04095459 -0.133667
vn 0.9902344 0.04095459 -0.133667
vn 0.9902344 0.04095459 -0.133667
vn 0.9902344 0.04095459 -0.133667
vn 0 -0.2929688 0.9560547
vn 0 -0.2929688 0.9560547
vn 0 -0.2929688 0.9560547
vn 0 -0.2929688 0.9560547
vn 0 -1 0
vn 0 -1 0
vn 0 -1 0
vn 0 -1 0
vn 0 1 0
vn 0 1 0
vn 0 1 0
vn 0 1 0
vn -0.9902344 0.04092407 -0.133667
vn -0.9902344 0.04092407 -0.133667
vn -0.9902344 0.04092407 -0.133667
vn -0.9902344 0.04092407 -0.133667
vn 0 0.2929688 -0.9560547
vn 0 0.2929688 -0.9560547
vn 0 0.2929688 -0.9560547
vn 0 0.2929688 -0.9560547
vn 0.9902344 0.04095459 -0.133667
vn 0.9902344 0.04095459 -0.133667
vn 0.9902344 0.04095459 -0.133667
vn 0.9902344 0.04095459 -0.133667
vn 0 -0.2929688 0.9560547
vn 0 -0.2929688 0.9560547
vn 0 -0.2929688 0.9560547
vn 0 -0.2929688 0.9560547
vn 0 -1 0
vn 0 -1 0
vn 0 -1 0
vn 0 -1 0
vn 0 1 0
vn 0 1 0
vn 0 1 0
vn 0 1 0
vn 0 0 1
vn 0 0 1
vn 0 0 1
vn 0 0 1
vn 0 0 -1
vn 0 0 -1
vn 0 0 -1
vn 0 0 -1
vn 0 0 -1
vn 0 0 -1
vn 0 0 -1
vn 0 0 -1
vn -1 0 0
vn -1 0 0
vn -0.9936523 0 -0.1136475
vn -0.9956055 0 -0.09265137
vn -1 0 0
vn 0 0.730957 -0.6826172
vn 0 0.730957 -0.6826172
vn 0 0.730957 -0.6826172
vn 0 0.730957 -0.6826172
vn -0.08740234 -0.9960938 -0.02047729
vn -0.2032471 -0.9780273 -0.04763794
vn -0.2032471 -0.9780273 -0.04763794
vn -0.1170044 -0.9926758 -0.0274353
vn 0.1170044 -0.9926758 -0.0274353
vn 0.08740234 -0.9960938 -0.02047729
vn 0.2032471 -0.9780273 -0.04763794
vn 0.2032471 -0.9780273 -0.04763794
vn -0.7587891 -0.6264648 -0.1778564
vn -0.7587891 -0.6264648 -0.1778564
vn -0.7675781 -0.6337891 -0.09692383
vn -0.7651367 -0.6313477 -0.1260986
vn 0.7651367 -0.6313477 -0.1260986
vn 0.7675781 -0.6337891 -0.09692383
vn 0.7587891 -0.6264648 -0.1778564
vn 0.7587891 -0.6264648 -0.1778564
g BASE_0
f 3/3/3 2/2/2 1/1/1
f 6/6/6 5/5/5 4/4/4
f 9/9/9 8/8/8 7/7/7
f 12/12/12 11/11/11 10/10/10
f 15/15/15 14/14/14 13/13/13
f 13/13/13 16/16/16 15/15/15
f 13/13/13 17/17/17 16/16/16
f 17/17/17 18/18/18 16/16/16
f 21/21/21 20/20/20 19/19/19
f 22/22/22 21/21/21 19/19/19
f 25/25/25 24/24/24 23/23/23
f 23/23/23 26/26/26 25/25/25
f 26/26/26 27/27/27 25/25/25
f 30/30/30 29/29/29 28/28/28
f 31/31/31 30/30/30 28/28/28
f 34/34/34 33/33/33 32/32/32
f 35/35/35 34/34/34 32/32/32
f 38/38/38 37/37/37 36/36/36
f 39/39/39 38/38/38 36/36/36
f 42/42/42 41/41/41 40/40/40
f 43/43/43 42/42/42 40/40/40
f 46/46/46 45/45/45 44/44/44
f 47/47/47 46/46/46 44/44/44
f 50/50/50 49/49/49 48/48/48
f 51/51/51 50/50/50 48/48/48
f 54/54/54 53/53/53 52/52/52
f 55/55/55 54/54/54 52/52/52
f 58/58/58 57/57/57 56/56/56
f 59/59/59 58/58/58 56/56/56
f 62/62/62 61/61/61 60/60/60
f 63/63/63 62/62/62 60/60/60
f 66/66/66 65/65/65 64/64/64
f 67/67/67 66/66/66 64/64/64
f 70/70/70 69/69/69 68/68/68
f 71/71/71 70/70/70 68/68/68
f 74/74/74 73/73/73 72/72/72
f 75/75/75 74/74/74 72/72/72
f 78/78/78 77/77/77 76/76/76
f 79/79/79 78/78/78 76/76/76
f 82/82/82 81/81/81 80/80/80
f 83/83/83 82/82/82 80/80/80
f 86/86/86 85/85/85 84/84/84
f 87/87/87 86/86/86 84/84/84
f 90/90/90 89/89/89 88/88/88
f 88/88/88 91/91/91 90/90/90
f 88/88/88 92/92/92 91/91/91
f 92/92/92 93/93/93 91/91/91
f 93/93/93 94/94/94 91/91/91
f 94/94/94 95/95/95 91/91/91
f 98/98/98 97/97/97 96/96/96
f 96/96/96 99/99/99 98/98/98
f 96/96/96 100/100/100 99/99/99
f 103/103/103 102/102/102 101/101/101
f 104/104/104 103/103/103 101/101/101
f 107/107/107 106/106/106 105/105/105
f 108/108/108 107/107/107 105/105/105
f 109/109/109 108/108/108 105/105/105
f 110/110/110 109/109/109 105/105/105
f 110/110/110 111/111/111 109/109/109
f 111/111/111 112/112/112 109/109/109
f 115/115/115 114/114/114 113/113/113
f 116/116/116 115/115/115 113/113/113
f 119/119/119 118/118/118 117/117/117
f 120/120/120 119/119/119 117/117/117
