g Bullet1
v -0.003071895 -0.005320678 -0.02483578
v -0.003071896 0.005320681 -0.02483578
v -0.006143792 1.449272E-09 -0.02483578
v 0.003071896 0.005320683 -0.02483578
v 0.006143792 1.986379E-09 -0.02483578
v 0.003071896 -0.005320678 -0.02483578
v -0.003071896 -0.005320679 0.006413199
v -0.003071895 -0.005320678 -0.02483578
v -0.006143792 1.449272E-09 -0.02483578
v -0.006143792 -1.26412E-09 0.006413158
v -0.006143792 -1.26412E-09 0.006413158
v -0.006143792 1.449272E-09 -0.02483578
v -0.003071896 0.005320681 -0.02483578
v -0.003071896 0.005320682 0.006413147
v 0.003071896 0.005320682 0.006413147
v 0.003071896 0.005320683 -0.02483578
v 0.006143792 1.986379E-09 -0.02483578
v 0.006143792 -7.270124E-10 0.006413158
v 0.006143792 -7.270124E-10 0.006413158
v 0.006143792 1.986379E-09 -0.02483578
v 0.003071896 -0.005320678 -0.02483578
v 0.003071896 -0.005320679 0.006413199
v -0.003071896 0.005320682 0.006413147
v -0.003071896 0.005320681 -0.02483578
v 0.003071896 0.005320683 -0.02483578
v 0.003071896 0.005320682 0.006413147
v 0.003071896 -0.005320679 0.006413199
v 0.003071896 -0.005320678 -0.02483578
v -0.003071895 -0.005320678 -0.02483578
v -0.003071896 -0.005320679 0.006413199
v 0.006143792 -7.270124E-10 0.006413158
v -1.688113E-10 -7.823721E-10 0.02483571
v 0.003071896 0.005320682 0.006413147
v 0.003071896 0.005320682 0.006413147
v -1.688113E-10 -7.823721E-10 0.02483571
v -0.003071896 0.005320682 0.006413147
v -0.003071896 0.005320682 0.006413147
v -1.688113E-10 -7.823721E-10 0.02483571
v -0.006143792 -1.26412E-09 0.006413158
v -0.006143792 -1.26412E-09 0.006413158
v -1.688113E-10 -7.823721E-10 0.02483571
v -0.003071896 -0.005320679 0.006413199
v -0.003071896 -0.005320679 0.006413199
v -1.688113E-10 -7.823721E-10 0.02483571
v 0.003071896 -0.005320679 0.006413199
v 0.003071896 -0.005320679 0.006413199
v -1.688113E-10 -7.823721E-10 0.02483571
v 0.006143792 -7.270124E-10 0.006413158
vt 0.7109375 0.6923828
vt 0.6074219 0.5131836
vt 0.6074219 0.6323242
vt 0.7109375 0.4536133
vt 0.8139648 0.5131836
vt 0.8139648 0.6323242
vt 0.0001302958 0.1195068
vt 0.6069336 0.1195068
vt 0.6069336 0.0001306534
vt 0.0001312494 0.0001302958
vt 0.0001311302 0.7163086
vt 0.6069336 0.7163086
vt 0.6069336 0.5966797
vt 0.0001313686 0.5966797
vt 0.0001312494 0.4775391
vt 0.6069336 0.4775391
vt 0.6069336 0.3581543
vt 0.000131011 0.3581543
vt 0.000131011 0.3581543
vt 0.6069336 0.3581543
vt 0.6069336 0.2387695
vt 0.0001302958 0.2387695
vt 0.0001313686 0.5966797
vt 0.6069336 0.5966797
vt 0.6069336 0.4775391
vt 0.0001312494 0.4775391
vt 0.0001302958 0.2387695
vt 0.6069336 0.2387695
vt 0.6069336 0.1195068
vt 0.0001302958 0.1195068
vt 0.8037109 0.0001302958
vt 0.8037109 0.2266846
vt 1 0.1134033
vt 1 0.1134033
vt 0.8037109 0.2266846
vt 1 0.3400879
vt 1 0.3400879
vt 0.8037109 0.2266846
vt 0.8037109 0.4533691
vt 0.8037109 0.4533691
vt 0.8037109 0.2266846
vt 0.6074219 0.3400879
vt 0.6074219 0.3400879
vt 0.8037109 0.2266846
vt 0.6074219 0.1134033
vt 0.6074219 0.1134033
vt 0.8037109 0.2266846
vt 0.8037109 0.0001302958
vn 0 1.788139E-07 -1
vn 0 0 -1
vn -5.960464E-07 0 -1
vn 1.788139E-07 -1.192093E-07 -1
vn 1.192093E-07 1.192093E-07 -1
vn 0 8.940697E-07 -1
vn -0.8662109 -0.5 0
vn -0.8662109 -0.5 0
vn -0.8662109 -0.5 0
vn -0.8662109 -0.5 0
vn -0.8662109 0.5 0
vn -0.8662109 0.5 0
vn -0.8662109 0.5 0
vn -0.8662109 0.5 0
vn 0.8662109 0.5 0
vn 0.8662109 0.5 0
vn 0.8662109 0.5 0
vn 0.8662109 0.5 0
vn 0.8662109 -0.5 0
vn 0.8662109 -0.5 0
vn 0.8662109 -0.5 0
vn 0.8662109 -0.5 0
vn -1.788139E-07 1 0
vn -1.788139E-07 1 0
vn -1.788139E-07 1 0
vn -1.788139E-07 1 0
vn 0 -1 0
vn 0 -1 0
vn 0 -1 0
vn 0 -1 0
vn 0.8320313 0.4804688 0.2775879
vn 0.8320313 0.4804688 0.2775879
vn 0.8320313 0.4804688 0.2775879
vn 0 0.9609375 0.2775879
vn 0 0.9609375 0.2775879
vn 0 0.9609375 0.2775879
vn -0.8320313 0.4804688 0.2775879
vn -0.8320313 0.4804688 0.2775879
vn -0.8320313 0.4804688 0.2775879
vn -0.8320313 -0.4804688 0.2775879
vn -0.8320313 -0.4804688 0.2775879
vn -0.8320313 -0.4804688 0.2775879
vn 0 -0.9609375 0.2775879
vn 0 -0.9609375 0.2775879
vn 0 -0.9609375 0.2775879
vn 0.8320313 -0.4804688 0.2775879
vn 0.8320313 -0.4804688 0.2775879
vn 0.8320313 -0.4804688 0.2775879
g Bullet1_0
f 3/3/3 2/2/2 1/1/1
f 2/2/2 4/4/4 1/1/1
f 4/4/4 5/5/5 1/1/1
f 1/1/1 5/5/5 6/6/6
f 9/9/9 8/8/8 7/7/7
f 10/10/10 9/9/9 7/7/7
f 13/13/13 12/12/12 11/11/11
f 14/14/14 13/13/13 11/11/11
f 17/17/17 16/16/16 15/15/15
f 18/18/18 17/17/17 15/15/15
f 21/21/21 20/20/20 19/19/19
f 22/22/22 21/21/21 19/19/19
f 25/25/25 24/24/24 23/23/23
f 26/26/26 25/25/25 23/23/23
f 29/29/29 28/28/28 27/27/27
f 30/30/30 29/29/29 27/27/27
g Bullet1_1
f 33/33/33 32/32/32 31/31/31
f 36/36/36 35/35/35 34/34/34
f 39/39/39 38/38/38 37/37/37
f 42/42/42 41/41/41 40/40/40
f 45/45/45 44/44/44 43/43/43
f 48/48/48 47/47/47 46/46/46
