g Bullet2
v 0.001285701 -0.003956978 -0.0170875
v -5.738497E-10 -0.004160613 -0.0170875
v -3.61212E-10 -0.004094134 0.01578889
v 0.001265157 -0.003893753 0.01578889
v 0.002445547 -0.003366007 -0.0170875
v 0.00240647 -0.003312224 0.01578889
v 0.003366007 -0.002445547 -0.0170875
v 0.003312223 -0.002406472 0.01578889
v 0.003956978 -0.0012857 -0.0170875
v 0.003893751 -0.001265158 0.01578889
v 0.004160613 -1.089573E-10 -0.0170875
v 0.004094132 -1.61529E-09 0.01578889
v 0.003956979 0.0012857 -0.0170875
v 0.003893751 0.001265155 0.01578889
v 0.003366007 0.002445547 -0.0170875
v 0.003312223 0.002406469 0.01578889
v 0.002445547 0.003366007 -0.0170875
v 0.00240647 0.003312221 0.01578889
v 0.0012857 0.003956979 -0.0170875
v 0.001265156 0.00389375 0.01578889
v -2.097328E-11 0.004160613 -0.0170875
v -3.285705E-13 0.004094131 0.01578889
v -0.0012857 0.003956979 -0.0170875
v -0.001265156 0.00389375 0.01578889
v -0.002445548 0.003366007 -0.0170875
v -0.002406471 0.003312221 0.01578889
v -0.003366007 0.002445546 -0.0170875
v -0.003312223 0.002406468 0.01578889
v -0.003956978 0.001285701 -0.0170875
v -0.003893751 0.001265155 0.01578889
v -0.004160613 6.529421E-11 -0.0170875
v -0.004094132 -1.388404E-09 0.01578889
v -0.003956978 -0.001285701 -0.0170875
v -0.003893751 -0.001265158 0.01578889
v -0.003366007 -0.002445547 -0.0170875
v -0.003312223 -0.002406471 0.01578889
v -0.002445548 -0.003366007 -0.0170875
v -0.002406471 -0.003312224 0.01578889
v -0.0012857 -0.003956979 -0.0170875
v -0.001265156 -0.003893753 0.01578889
v -5.738497E-10 -0.004160613 -0.0170875
v -3.61212E-10 -0.004094134 0.01578889
v 0.003956978 -0.0012857 -0.0170875
v 0.004160613 -1.089573E-10 -0.0170875
v 0.003956979 0.0012857 -0.0170875
v 0.003366007 0.002445547 -0.0170875
v 0.003366007 -0.002445547 -0.0170875
v 0.002445547 -0.003366007 -0.0170875
v 0.002445547 0.003366007 -0.0170875
v 0.0012857 0.003956979 -0.0170875
v 0.001285701 -0.003956978 -0.0170875
v -5.738497E-10 -0.004160613 -0.0170875
v -2.097328E-11 0.004160613 -0.0170875
v -0.0012857 0.003956979 -0.0170875
v -0.0012857 -0.003956979 -0.0170875
v -0.002445548 0.003366007 -0.0170875
v -0.002445548 -0.003366007 -0.0170875
v -0.003366007 0.002445546 -0.0170875
v -0.003366007 -0.002445547 -0.0170875
v -0.003956978 -0.001285701 -0.0170875
v -0.003956978 0.001285701 -0.0170875
v -0.004160613 6.529421E-11 -0.0170875
v -0.001265156 -0.003893753 0.01578889
v -1.217909E-09 -0.003704177 0.01814656
v -3.61212E-10 -0.004094134 0.01578889
v -0.001144654 -0.003522882 0.01814656
v -0.002406471 -0.003312224 0.01578889
v -1.488175E-09 -0.002671406 0.02049844
v -0.002177261 -0.002996742 0.01814656
v -0.003312223 -0.002406471 0.01578889
v -0.0008255104 -0.002540658 0.02049844
v -1.43595E-09 -0.001332525 0.02159041
v -0.0004117737 -0.001267307 0.02159041
v -0.001570213 -0.002161213 0.02049844
v -0.000783239 -0.001078036 0.02159041
v -0.002996743 -0.002177261 0.01814656
v -0.003893751 -0.001265158 0.01578889
v -0.002161213 -0.001570213 0.02049844
v -0.001078035 -0.0007832389 0.02159041
v -0.003522881 -0.001144655 0.01814656
v -0.004094132 -1.388404E-09 0.01578889
v -0.002540657 -0.0008255111 0.02049844
v -0.001267306 -0.0004117741 0.02159041
v -0.003704177 -1.499648E-09 0.01814656
v -0.003893751 0.001265155 0.01578889
v -0.002671405 -1.617413E-09 0.02049844
v -0.001332525 -1.676599E-09 0.02159041
v -0.003522881 0.001144652 0.01814656
v -0.003312223 0.002406468 0.01578889
v -0.002540657 0.0008255079 0.02049844
v -0.001267306 0.0004117708 0.02159041
v -0.002996743 0.002177258 0.01814656
v -0.002406471 0.003312221 0.01578889
v -0.002161213 0.00157021 0.02049844
v -0.001078035 0.0007832355 0.02159041
v -0.002177261 0.002996739 0.01814656
v -0.001265156 0.00389375 0.01578889
v -0.001570213 0.002161209 0.02049844
v -0.000783239 0.001078032 0.02159041
v -0.001144654 0.003522879 0.01814656
v -3.285705E-13 0.004094131 0.01578889
v -0.0008255103 0.002540655 0.02049844
v -0.0004117736 0.001267303 0.02159041
v -8.936664E-10 0.003704175 0.01814656
v 0.001265156 0.00389375 0.01578889
v -1.254634E-09 0.002671402 0.02049844
v -1.319457E-09 0.001332521 0.02159041
v 0.001144652 0.003522879 0.01814656
v 0.00240647 0.003312221 0.01578889
v 0.0008255079 0.002540655 0.02049844
v 0.000411771 0.001267303 0.02159041
v 0.002177259 0.00299674 0.01814656
v 0.003312223 0.002406469 0.01578889
v 0.001570211 0.00216121 0.02049844
v 0.0007832362 0.001078032 0.02159041
v 0.00299674 0.002177259 0.01814656
v 0.003893751 0.001265155 0.01578889
v 0.00216121 0.00157021 0.02049844
v 0.001078033 0.0007832359 0.02159041
v 0.00352288 0.001144652 0.01814656
v 0.004094132 -1.61529E-09 0.01578889
v 0.002540655 0.0008255074 0.02049844
v 0.001267303 0.0004117706 0.02159041
v 0.003704175 -1.705609E-09 0.01814656
v 0.003893751 -0.001265158 0.01578889
v 0.002671403 -1.76604E-09 0.02049844
v 0.001332522 -1.750735E-09 0.02159041
v 0.003522879 -0.001144655 0.01814656
v 0.003312223 -0.002406472 0.01578889
v 0.002540655 -0.000825511 0.02049844
v 0.001267303 -0.0004117741 0.02159041
v 0.00299674 -0.002177261 0.01814656
v 0.00240647 -0.003312224 0.01578889
v 0.00216121 -0.001570213 0.02049844
v 0.001078033 -0.0007832391 0.02159041
v 0.002177259 -0.002996743 0.01814656
v 0.001265157 -0.003893753 0.01578889
v 0.00157021 -0.002161213 0.02049844
v 0.000783236 -0.001078036 0.02159041
v 0.001144653 -0.003522882 0.01814656
v -3.61212E-10 -0.004094134 0.01578889
v -1.217909E-09 -0.003704177 0.01814656
v 0.0008255081 -0.002540658 0.02049844
v 0.000411771 -0.001267307 0.02159041
v -1.488175E-09 -0.002671406 0.02049844
v -1.43595E-09 -0.001332525 0.02159041
v 0.001267303 0.0004117706 0.02159041
v 0.001332522 -1.750735E-09 0.02159041
v 0.001267303 -0.0004117741 0.02159041
v 0.001078033 0.0007832359 0.02159041
v 0.001078033 -0.0007832391 0.02159041
v 0.0007832362 0.001078032 0.02159041
v 0.000783236 -0.001078036 0.02159041
v 0.000411771 0.001267303 0.02159041
v 0.000411771 -0.001267307 0.02159041
v -1.43595E-09 -0.001332525 0.02159041
v -1.319457E-09 0.001332521 0.02159041
v -0.0004117736 0.001267303 0.02159041
v -0.0004117737 -0.001267307 0.02159041
v -0.000783239 0.001078032 0.02159041
v -0.000783239 -0.001078036 0.02159041
v -0.001078035 0.0007832355 0.02159041
v -0.001078035 -0.0007832389 0.02159041
v -0.001267306 0.0004117708 0.02159041
v -0.001267306 -0.0004117741 0.02159041
v -0.001332525 -1.676599E-09 0.02159041
vt 0.9995117 0.03234863
vt 0.9990234 0.0001059175
vt 0.1885986 0.01142883
vt 0.196167 0.04611206
vt 0.9995117 0.06451416
vt 0.2045898 0.0793457
vt 1 0.09655762
vt 0.2125244 0.111084
vt 1 0.12854
vt 0.2194824 0.1414795
vt 1 0.1604004
vt 0.2253418 0.1707764
vt 1 0.1921387
vt 0.2301025 0.1990967
vt 0.9995117 0.223999
vt 0.2336426 0.2266846
vt 0.9990234 0.2556152
vt 0.236084 0.2536621
vt 0.9990234 0.2873535
vt 0.2375488 0.2800293
vt 0.9980469 0.3190918
vt 0.237915 0.3063965
vt 0.9975586 0.3508301
vt 0.2374268 0.3322754
vt 0.996582 0.3823242
vt 0.2358398 0.3586426
vt 0.9956055 0.4140625
vt 0.2331543 0.3850098
vt 0.9946289 0.4458008
vt 0.2294922 0.4116211
vt 0.9936523 0.4775391
vt 0.2244873 0.439209
vt 0.9921875 0.5092773
vt 0.2181396 0.4675293
vt 0.9907227 0.5410156
vt 0.2103271 0.4970703
vt 0.9892578 0.5727539
vt 0.2010498 0.527832
vt 0.987793 0.6049805
vt 0.1904297 0.5605469
vt 0.9863281 0.637207
vt 0.1789551 0.5952148
vt 0.1696777 0.8066406
vt 0.1881104 0.78125
vt 0.1977539 0.7514648
vt 0.1977539 0.7202148
vt 0.1442871 0.8251953
vt 0.114563 0.8349609
vt 0.1881104 0.6904297
vt 0.1696777 0.6650391
vt 0.08325195 0.8349609
vt 0.05349731 0.8251953
vt 0.1442871 0.6469727
vt 0.114563 0.637207
vt 0.02818298 0.8066406
vt 0.08325195 0.637207
vt 0.009780884 0.78125
vt 0.05349731 0.6469727
vt 0.0001059175 0.7514648
vt 0.0001059175 0.7202148
vt 0.02818298 0.6650391
vt 0.009780884 0.6904297
vt 0.1904297 0.5605469
vt 0.1062012 0.5620117
vt 0.1789551 0.5952148
vt 0.1265869 0.5317383
vt 0.2010498 0.527832
vt 0.04589844 0.4987793
vt 0.1427002 0.503418
vt 0.2103271 0.4970703
vt 0.06756592 0.4819336
vt 0.02069092 0.442627
vt 0.03338623 0.4350586
vt 0.08465576 0.4638672
vt 0.04421997 0.4248047
vt 0.1555176 0.4770508
vt 0.2181396 0.4675293
vt 0.09814453 0.4453125
vt 0.05316162 0.4130859
vt 0.1657715 0.451416
vt 0.2244873 0.439209
vt 0.1087646 0.4262695
vt 0.06039429 0.3999023
vt 0.1738281 0.4265137
vt 0.2294922 0.4116211
vt 0.1170654 0.4069824
vt 0.06604004 0.3859863
vt 0.1800537 0.4020996
vt 0.2331543 0.3850098
vt 0.1233521 0.3874512
vt 0.07025146 0.3713379
vt 0.1845703 0.3781738
vt 0.2358398 0.3586426
vt 0.1279297 0.3676758
vt 0.07318115 0.3562012
vt 0.1876221 0.354248
vt 0.2374268 0.3322754
vt 0.1309814 0.3479004
vt 0.07489014 0.3405762
vt 0.1894531 0.3303223
vt 0.237915 0.3063965
vt 0.1324463 0.3276367
vt 0.07550049 0.324707
vt 0.1899414 0.3066406
vt 0.2375488 0.2800293
vt 0.1326904 0.3076172
vt 0.07495117 0.3085938
vt 0.1890869 0.2827148
vt 0.236084 0.2536621
vt 0.1314697 0.2873535
vt 0.07336426 0.2924805
vt 0.1871338 0.2585449
vt 0.2336426 0.2266846
vt 0.1289063 0.2668457
vt 0.07073975 0.276123
vt 0.1837158 0.2341309
vt 0.2301025 0.1990967
vt 0.124939 0.2463379
vt 0.06689453 0.2602539
vt 0.1789551 0.2092285
vt 0.2253418 0.1707764
vt 0.1193848 0.2258301
vt 0.06195068 0.2443848
vt 0.1727295 0.1837158
vt 0.2194824 0.1414795
vt 0.1121216 0.2050781
vt 0.05569458 0.2290039
vt 0.1647949 0.1574707
vt 0.2125244 0.111084
vt 0.1028442 0.1842041
vt 0.04803467 0.2141113
vt 0.1549072 0.130127
vt 0.2045898 0.0793457
vt 0.09124756 0.163208
vt 0.03881836 0.2000732
vt 0.1427002 0.1013184
vt 0.196167 0.04611206
vt 0.07659912 0.1420898
vt 0.02790833 0.1870117
vt 0.1279297 0.07025146
vt 0.1885986 0.01142883
vt 0.1095581 0.03552246
vt 0.05804443 0.1207886
vt 0.01507568 0.1755371
vt 0.03372192 0.09936523
vt 0.0001059175 0.1661377
vt 0.2580566 0.6835938
vt 0.2612305 0.6738281
vt 0.2612305 0.6640625
vt 0.2521973 0.6914063
vt 0.2580566 0.6542969
vt 0.2441406 0.6972656
vt 0.2521973 0.6459961
vt 0.2346191 0.7006836
vt 0.2441406 0.6401367
vt 0.2346191 0.637207
vt 0.2246094 0.7006836
vt 0.2150879 0.6972656
vt 0.2246094 0.637207
vt 0.2069092 0.6914063
vt 0.2150879 0.6401367
vt 0.2010498 0.6835938
vt 0.2069092 0.6459961
vt 0.197998 0.6738281
vt 0.2010498 0.6542969
vt 0.197998 0.6640625
vn 0.309082 -0.9511719 0.00202179
vn 0 -1 0.00202179
vn 0 -1 0.00202179
vn 0.309082 -0.9511719 0.00202179
vn 0.5878906 -0.809082 0.00202179
vn 0.5878906 -0.809082 0.00202179
vn 0.809082 -0.5878906 0.00202179
vn 0.809082 -0.5878906 0.00202179
vn 0.9511719 -0.309082 0.00202179
vn 0.9511719 -0.309082 0.00202179
vn 1 -1.192093E-07 0.00202179
vn 1 -1.192093E-07 0.00202179
vn 0.9511719 0.309082 0.00202179
vn 0.9511719 0.309082 0.00202179
vn 0.809082 0.5878906 0.00202179
vn 0.809082 0.5878906 0.00202179
vn 0.5878906 0.809082 0.00202179
vn 0.5878906 0.809082 0.00202179
vn 0.309082 0.9511719 0.00202179
vn 0.309082 0.9511719 0.00202179
vn 0 1 0.00202179
vn 0 1 0.00202179
vn -0.309082 0.9511719 0.00202179
vn -0.309082 0.9511719 0.00202179
vn -0.5878906 0.809082 0.00202179
vn -0.5878906 0.809082 0.00202179
vn -0.809082 0.5878906 0.00202179
vn -0.809082 0.5878906 0.00202179
vn -0.9511719 0.309082 0.00202179
vn -0.9511719 0.309082 0.00202179
vn -1 0 0.00202179
vn -1 0 0.00202179
vn -0.9511719 -0.309082 0.00202179
vn -0.9511719 -0.309082 0.00202179
vn -0.809082 -0.5878906 0.00202179
vn -0.809082 -0.5878906 0.00202179
vn -0.5878906 -0.809082 0.00202179
vn -0.5878906 -0.809082 0.00202179
vn -0.309082 -0.9511719 0.00202179
vn -0.309082 -0.9511719 0.00202179
vn 0 -1 0.00202179
vn 0 -1 0.00202179
vn 0 -1.788139E-07 -1
vn 0 -1.788139E-07 -1
vn 0 -1.788139E-07 -1
vn 0 -1.788139E-07 -1
vn 0 -1.788139E-07 -1
vn 0 -1.788139E-07 -1
vn 0 -1.788139E-07 -1
vn 0 -1.788139E-07 -1
vn 0 -1.788139E-07 -1
vn 0 -1.788139E-07 -1
vn 0 -1.788139E-07 -1
vn 0 -1.788139E-07 -1
vn 0 -1.788139E-07 -1
vn 0 -1.788139E-07 -1
vn 0 -1.788139E-07 -1
vn 0 -1.788139E-07 -1
vn 0 -1.788139E-07 -1
vn 0 -1.788139E-07 -1
vn 0 -1.788139E-07 -1
vn 0 -1.788139E-07 -1
vn -0.3049316 -0.9384766 0.163208
vn 0 -0.9594727 0.2814941
vn 0 -0.9868164 0.163208
vn -0.2966309 -0.9125977 0.2814941
vn -0.5800781 -0.7983398 0.163208
vn 0 -0.8041992 0.5942383
vn -0.5639648 -0.7763672 0.2814941
vn -0.7983398 -0.5800781 0.163208
vn -0.2485352 -0.7646484 0.5942383
vn 0 -0.6318359 0.7749023
vn -0.1953125 -0.6010742 0.7749023
vn -0.4726563 -0.6503906 0.5942383
vn -0.371582 -0.5112305 0.7749023
vn -0.7763672 -0.5639648 0.2814941
vn -0.9384766 -0.3049316 0.163208
vn -0.6503906 -0.4726563 0.5942383
vn -0.5112305 -0.371582 0.7749023
vn -0.9125977 -0.2966309 0.2814941
vn -0.9868164 0 0.163208
vn -0.7646484 -0.2485352 0.5942383
vn -0.6010742 -0.1953125 0.7749023
vn -0.9594727 -1.192093E-07 0.2814941
vn -0.9384766 0.3049316 0.163208
vn -0.8041992 -1.788139E-07 0.5942383
vn -0.6318359 0 0.7749023
vn -0.9125977 0.2966309 0.2814941
vn -0.7983398 0.5800781 0.163208
vn -0.7646484 0.2485352 0.5942383
vn -0.6010742 0.1953125 0.7749023
vn -0.7763672 0.5639648 0.2814941
vn -0.5800781 0.7983398 0.163208
vn -0.6503906 0.4726563 0.5942383
vn -0.5112305 0.371582 0.7749023
vn -0.5639648 0.7763672 0.2814941
vn -0.3049316 0.9384766 0.163208
vn -0.4726563 0.6503906 0.5942383
vn -0.371582 0.5112305 0.7749023
vn -0.2966309 0.9125977 0.2814941
vn -1.192093E-07 0.9868164 0.163208
vn -0.2485352 0.7646484 0.5942383
vn -0.1953125 0.6010742 0.7749023
vn 0 0.9594727 0.2814941
vn 0.3049316 0.9384766 0.163208
vn 0 0.8041992 0.5942383
vn 0 0.6318359 0.7749023
vn 0.2966309 0.9125977 0.2814941
vn 0.5800781 0.7983398 0.163208
vn 0.2485352 0.7646484 0.5942383
vn 0.1953125 0.6010742 0.7749023
vn 0.5639648 0.7763672 0.2814941
vn 0.7983398 0.5800781 0.163208
vn 0.4726563 0.6503906 0.5942383
vn 0.371582 0.5112305 0.7749023
vn 0.7763672 0.5639648 0.2814941
vn 0.9384766 0.3049316 0.163208
vn 0.6503906 0.4726563 0.5942383
vn 0.5112305 0.371582 0.7749023
vn 0.9125977 0.2966309 0.2814941
vn 0.9868164 0 0.163208
vn 0.7646484 0.2485352 0.5942383
vn 0.6010742 0.1953125 0.7749023
vn 0.9594727 -2.384186E-07 0.2814941
vn 0.9384766 -0.3049316 0.163208
vn 0.8041992 -1.788139E-07 0.5942383
vn 0.6318359 0 0.7749023
vn 0.9125977 -0.2966309 0.2814941
vn 0.7983398 -0.5800781 0.163208
vn 0.7646484 -0.2485352 0.5942383
vn 0.6010742 -0.1953125 0.7749023
vn 0.7763672 -0.5639648 0.2814941
vn 0.5800781 -0.7983398 0.163208
vn 0.6503906 -0.4726563 0.5942383
vn 0.5112305 -0.371582 0.7749023
vn 0.5639648 -0.7763672 0.2814941
vn 0.3049316 -0.9384766 0.163208
vn 0.4726563 -0.6503906 0.5942383
vn 0.371582 -0.5112305 0.7749023
vn 0.2966309 -0.9125977 0.2814941
vn 0 -0.9868164 0.163208
vn 0 -0.9594727 0.2814941
vn 0.2485352 -0.7646484 0.5942383
vn 0.1953125 -0.6010742 0.7749023
vn 0 -0.8041992 0.5942383
vn 0 -0.6318359 0.7749023
vn 0 0 1
vn 0 0 1
vn 0 0 1
vn 0 0 1
vn 0 0 1
vn 0 0 1
vn 0 0 1
vn 0 0 1
vn 0 0 1
vn 0 0 1
vn 0 0 1
vn 0 0 1
vn 0 0 1
vn 0 0 1
vn 0 0 1
vn 0 0 1
vn 0 0 1
vn 0 0 1
vn 0 0 1
vn 0 0 1
g Bullet2_0
f 3/3/3 2/2/2 1/1/1
f 4/4/4 3/3/3 1/1/1
f 4/4/4 1/1/1 5/5/5
f 6/6/6 4/4/4 5/5/5
f 6/6/6 5/5/5 7/7/7
f 8/8/8 6/6/6 7/7/7
f 8/8/8 7/7/7 9/9/9
f 10/10/10 8/8/8 9/9/9
f 10/10/10 9/9/9 11/11/11
f 12/12/12 10/10/10 11/11/11
f 12/12/12 11/11/11 13/13/13
f 14/14/14 12/12/12 13/13/13
f 14/14/14 13/13/13 15/15/15
f 16/16/16 14/14/14 15/15/15
f 16/16/16 15/15/15 17/17/17
f 18/18/18 16/16/16 17/17/17
f 18/18/18 17/17/17 19/19/19
f 20/20/20 18/18/18 19/19/19
f 20/20/20 19/19/19 21/21/21
f 22/22/22 20/20/20 21/21/21
f 22/22/22 21/21/21 23/23/23
f 24/24/24 22/22/22 23/23/23
f 24/24/24 23/23/23 25/25/25
f 26/26/26 24/24/24 25/25/25
f 26/26/26 25/25/25 27/27/27
f 28/28/28 26/26/26 27/27/27
f 28/28/28 27/27/27 29/29/29
f 30/30/30 28/28/28 29/29/29
f 30/30/30 29/29/29 31/31/31
f 32/32/32 30/30/30 31/31/31
f 32/32/32 31/31/31 33/33/33
f 34/34/34 32/32/32 33/33/33
f 34/34/34 33/33/33 35/35/35
f 36/36/36 34/34/34 35/35/35
f 36/36/36 35/35/35 37/37/37
f 38/38/38 36/36/36 37/37/37
f 38/38/38 37/37/37 39/39/39
f 40/40/40 38/38/38 39/39/39
f 40/40/40 39/39/39 41/41/41
f 42/42/42 40/40/40 41/41/41
f 45/45/45 44/44/44 43/43/43
f 43/43/43 46/46/46 45/45/45
f 43/43/43 47/47/47 46/46/46
f 47/47/47 48/48/48 46/46/46
f 48/48/48 49/49/49 46/46/46
f 48/48/48 50/50/50 49/49/49
f 48/48/48 51/51/51 50/50/50
f 51/51/51 52/52/52 50/50/50
f 52/52/52 53/53/53 50/50/50
f 52/52/52 54/54/54 53/53/53
f 52/52/52 55/55/55 54/54/54
f 55/55/55 56/56/56 54/54/54
f 55/55/55 57/57/57 56/56/56
f 57/57/57 58/58/58 56/56/56
f 57/57/57 59/59/59 58/58/58
f 59/59/59 60/60/60 58/58/58
f 60/60/60 61/61/61 58/58/58
f 60/60/60 62/62/62 61/61/61
g Bullet2_1
f 65/65/65 64/64/64 63/63/63
f 64/64/64 66/66/66 63/63/63
f 63/63/63 66/66/66 67/67/67
f 64/64/64 68/68/68 66/66/66
f 66/66/66 69/69/69 67/67/67
f 67/67/67 69/69/69 70/70/70
f 68/68/68 71/71/71 66/66/66
f 66/66/66 71/71/71 69/69/69
f 68/68/68 72/72/72 71/71/71
f 72/72/72 73/73/73 71/71/71
f 71/71/71 73/73/73 74/74/74
f 71/71/71 74/74/74 69/69/69
f 73/73/73 75/75/75 74/74/74
f 69/69/69 76/76/76 70/70/70
f 69/69/69 74/74/74 76/76/76
f 70/70/70 76/76/76 77/77/77
f 74/74/74 75/75/75 78/78/78
f 74/74/74 78/78/78 76/76/76
f 75/75/75 79/79/79 78/78/78
f 76/76/76 80/80/80 77/77/77
f 76/76/76 78/78/78 80/80/80
f 77/77/77 80/80/80 81/81/81
f 78/78/78 79/79/79 82/82/82
f 78/78/78 82/82/82 80/80/80
f 79/79/79 83/83/83 82/82/82
f 80/80/80 84/84/84 81/81/81
f 80/80/80 82/82/82 84/84/84
f 81/81/81 84/84/84 85/85/85
f 82/82/82 83/83/83 86/86/86
f 82/82/82 86/86/86 84/84/84
f 83/83/83 87/87/87 86/86/86
f 84/84/84 88/88/88 85/85/85
f 84/84/84 86/86/86 88/88/88
f 85/85/85 88/88/88 89/89/89
f 86/86/86 87/87/87 90/90/90
f 86/86/86 90/90/90 88/88/88
f 87/87/87 91/91/91 90/90/90
f 88/88/88 92/92/92 89/89/89
f 88/88/88 90/90/90 92/92/92
f 89/89/89 92/92/92 93/93/93
f 90/90/90 91/91/91 94/94/94
f 90/90/90 94/94/94 92/92/92
f 91/91/91 95/95/95 94/94/94
f 92/92/92 96/96/96 93/93/93
f 92/92/92 94/94/94 96/96/96
f 93/93/93 96/96/96 97/97/97
f 94/94/94 95/95/95 98/98/98
f 94/94/94 98/98/98 96/96/96
f 95/95/95 99/99/99 98/98/98
f 96/96/96 100/100/100 97/97/97
f 96/96/96 98/98/98 100/100/100
f 97/97/97 100/100/100 101/101/101
f 98/98/98 99/99/99 102/102/102
f 98/98/98 102/102/102 100/100/100
f 99/99/99 103/103/103 102/102/102
f 100/100/100 104/104/104 101/101/101
f 100/100/100 102/102/102 104/104/104
f 101/101/101 104/104/104 105/105/105
f 102/102/102 103/103/103 106/106/106
f 102/102/102 106/106/106 104/104/104
f 103/103/103 107/107/107 106/106/106
f 104/104/104 108/108/108 105/105/105
f 104/104/104 106/106/106 108/108/108
f 105/105/105 108/108/108 109/109/109
f 106/106/106 107/107/107 110/110/110
f 106/106/106 110/110/110 108/108/108
f 107/107/107 111/111/111 110/110/110
f 108/108/108 112/112/112 109/109/109
f 108/108/108 110/110/110 112/112/112
f 109/109/109 112/112/112 113/113/113
f 110/110/110 111/111/111 114/114/114
f 110/110/110 114/114/114 112/112/112
f 111/111/111 115/115/115 114/114/114
f 112/112/112 116/116/116 113/113/113
f 112/112/112 114/114/114 116/116/116
f 113/113/113 116/116/116 117/117/117
f 114/114/114 115/115/115 118/118/118
f 114/114/114 118/118/118 116/116/116
f 115/115/115 119/119/119 118/118/118
f 116/116/116 120/120/120 117/117/117
f 116/116/116 118/118/118 120/120/120
f 117/117/117 120/120/120 121/121/121
f 118/118/118 119/119/119 122/122/122
f 118/118/118 122/122/122 120/120/120
f 119/119/119 123/123/123 122/122/122
f 120/120/120 124/124/124 121/121/121
f 120/120/120 122/122/122 124/124/124
f 121/121/121 124/124/124 125/125/125
f 122/122/122 123/123/123 126/126/126
f 122/122/122 126/126/126 124/124/124
f 123/123/123 127/127/127 126/126/126
f 124/124/124 128/128/128 125/125/125
f 124/124/124 126/126/126 128/128/128
f 125/125/125 128/128/128 129/129/129
f 126/126/126 127/127/127 130/130/130
f 126/126/126 130/130/130 128/128/128
f 127/127/127 131/131/131 130/130/130
f 128/128/128 132/132/132 129/129/129
f 128/128/128 130/130/130 132/132/132
f 129/129/129 132/132/132 133/133/133
f 130/130/130 131/131/131 134/134/134
f 130/130/130 134/134/134 132/132/132
f 131/131/131 135/135/135 134/134/134
f 132/132/132 136/136/136 133/133/133
f 132/132/132 134/134/134 136/136/136
f 133/133/133 136/136/136 137/137/137
f 134/134/134 135/135/135 138/138/138
f 134/134/134 138/138/138 136/136/136
f 135/135/135 139/139/139 138/138/138
f 136/136/136 140/140/140 137/137/137
f 136/136/136 138/138/138 140/140/140
f 137/137/137 140/140/140 141/141/141
f 140/140/140 142/142/142 141/141/141
f 138/138/138 139/139/139 143/143/143
f 138/138/138 143/143/143 140/140/140
f 140/140/140 143/143/143 142/142/142
f 139/139/139 144/144/144 143/143/143
f 143/143/143 145/145/145 142/142/142
f 143/143/143 144/144/144 145/145/145
f 144/144/144 146/146/146 145/145/145
f 149/149/149 148/148/148 147/147/147
f 147/147/147 150/150/150 149/149/149
f 150/150/150 151/151/151 149/149/149
f 150/150/150 152/152/152 151/151/151
f 152/152/152 153/153/153 151/151/151
f 152/152/152 154/154/154 153/153/153
f 154/154/154 155/155/155 153/153/153
f 154/154/154 156/156/156 155/155/155
f 154/154/154 157/157/157 156/156/156
f 157/157/157 158/158/158 156/156/156
f 158/158/158 159/159/159 156/156/156
f 158/158/158 160/160/160 159/159/159
f 160/160/160 161/161/161 159/159/159
f 160/160/160 162/162/162 161/161/161
f 162/162/162 163/163/163 161/161/161
f 162/162/162 164/164/164 163/163/163
f 164/164/164 165/165/165 163/163/163
f 164/164/164 166/166/166 165/165/165
