g Cube
v -0.05571031 -0.03358565 0.06014372
v -0.06872878 0.001335139 0.0116707
v -0.06840418 0.004115942 0.07363494
v -0.05497868 -0.0402392 0.002351333
v -0.06580954 0.001089978 -0.04456801
v -0.05394325 -0.03428004 -0.04466471
v -0.06840418 0.004115942 0.07363494
v -0.05657197 0.04232734 0.01673941
v -0.05603077 0.04069532 0.06026411
v -0.06872878 0.001335139 0.0116707
v -0.05442267 0.03520587 -0.02288932
v -0.06580954 0.001089978 -0.04456801
v -0.06580954 0.001089978 -0.04456801
v -7.050603E-10 0.04069634 -0.03285543
v -0.05442267 0.03520587 -0.02288932
v -2.311062E-07 0.003761053 -0.04296983
v -0.05394325 -0.03428004 -0.04466471
v 0.06094999 0.03684935 -0.05468895
v 1.997671E-09 -0.03389062 -0.04611341
v 0.07419138 7.26484E-06 -0.06716348
v 0.06084713 -0.03465486 -0.05468896
v 0.06084713 -0.03465486 -0.05468896
v 0.09680898 1.185367E-05 1.645141E-09
v 0.07419138 7.26484E-06 -0.06716348
v 0.0715334 -0.04123874 2.115181E-09
v 0.07483215 0.002760401 0.07363494
v 0.06122702 -0.03421278 0.06014372
v 0.07419138 7.26484E-06 -0.06716348
v 0.07179228 0.04391824 2.350201E-10
v 0.06094999 0.03684935 -0.05468895
v 0.09680898 1.185367E-05 1.645141E-09
v 0.06150215 0.04042479 0.0602641
v 0.07483215 0.002760401 0.07363494
v 0.06122702 -0.03421278 0.06014372
v -1.175101E-09 0.01081664 0.08914891
v 0.07483215 0.002760401 0.07363494
v -1.527631E-09 -0.03705302 0.06701998
v -0.06840418 0.004115942 0.07363494
v -0.05571031 -0.03358565 0.06014372
v 0.07483215 0.002760401 0.07363494
v -1.175101E-10 0.05169186 0.06773857
v 0.06150215 0.04042479 0.0602641
v -1.175101E-09 0.01081664 0.08914891
v -0.05603077 0.04069532 0.06026411
v -0.06840418 0.004115942 0.07363494
v 1.997671E-09 -0.03389062 -0.04611341
v 0.0715334 -0.04123874 2.115181E-09
v 0.06084713 -0.03465486 -0.05468896
v -5.409208E-07 -0.04265158 2.424209E-05
v -0.05394325 -0.03428004 -0.04466471
v 0.06122702 -0.03421278 0.06014372
v -0.05497868 -0.0402392 0.002351333
v -1.527631E-09 -0.03705302 0.06701998
v -0.05571031 -0.03358565 0.06014372
v -7.050603E-10 0.04069634 -0.03285543
v -0.05657197 0.04232734 0.01673941
v -0.05442267 0.03520587 -0.02288932
v -1.175101E-10 0.05496727 0.006565316
v 0.06094999 0.03684935 -0.05468895
v -0.05603077 0.04069532 0.06026411
v 0.07179228 0.04391824 2.350201E-10
v -1.175101E-10 0.05169186 0.06773857
v 0.06150215 0.04042479 0.0602641
vt 0.3444824 0.4191895
vt 0.3496094 0.425293
vt 0.3432617 0.4257813
vt 0.3505859 0.4179688
vt 0.3552246 0.425293
vt 0.3552246 0.4191895
vt 0.3432617 0.4257813
vt 0.3491211 0.432373
vt 0.3444824 0.4321289
vt 0.3496094 0.425293
vt 0.3530273 0.4311523
vt 0.3552246 0.425293
vt 0.3413086 0.425293
vt 0.3481445 0.4321289
vt 0.3425293 0.4311523
vt 0.3481445 0.4257813
vt 0.3425293 0.4191895
vt 0.3544922 0.4316406
vt 0.3481445 0.4191895
vt 0.3557129 0.4250488
vt 0.3544922 0.4189453
vt 0.3564453 0.4189453
vt 0.3508301 0.4250488
vt 0.357666 0.4250488
vt 0.3508301 0.4179688
vt 0.3432617 0.4255371
vt 0.3444824 0.4191895
vt 0.357666 0.4250488
vt 0.3508301 0.4328613
vt 0.3564453 0.4316406
vt 0.3508301 0.4250488
vt 0.3444824 0.4321289
vt 0.3432617 0.4255371
vt 0.3544922 0.4191895
vt 0.3481445 0.427002
vt 0.355957 0.4255371
vt 0.3481445 0.4187012
vt 0.3410645 0.4257813
vt 0.3425293 0.4191895
vt 0.355957 0.4255371
vt 0.3481445 0.434082
vt 0.3544922 0.4321289
vt 0.3481445 0.427002
vt 0.3422852 0.4321289
vt 0.3410645 0.4257813
vt 0.3481445 0.4321289
vt 0.3554688 0.4272461
vt 0.3544922 0.4328613
vt 0.3481445 0.4272461
vt 0.3425293 0.4318848
vt 0.3544922 0.4211426
vt 0.3425293 0.427002
vt 0.3481445 0.4204102
vt 0.3425293 0.4211426
vt 0.3481445 0.4306641
vt 0.3422852 0.4255371
vt 0.3425293 0.4296875
vt 0.3481445 0.4265137
vt 0.3544922 0.4328613
vt 0.3422852 0.4211426
vt 0.3554688 0.4272461
vt 0.3481445 0.4204102
vt 0.3544922 0.4211426
vn -0.9462891 -0.3220215 0.02215576
vn -0.9482422 -0.3168945 -0.009925842
vn -0.9462891 -0.3220215 0.02215576
vn -0.9487305 -0.3151855 -0.02111816
vn -0.9492188 -0.3095703 -0.05349731
vn -0.9492188 -0.3095703 -0.05349731
vn -0.953125 0.302002 0.004535675
vn -0.949707 0.3112793 -0.0302887
vn -0.953125 0.302002 0.004535675
vn -0.9487305 0.3132324 -0.0385437
vn -0.9438477 0.3225098 -0.074646
vn -0.9438477 0.3225098 -0.074646
vn -0.04580688 0.2333984 -0.9711914
vn -0.1951904 0.3305664 -0.9233398
vn -0.09130859 0.4189453 -0.9033203
vn -0.1645508 0.1639404 -0.9726563
vn 0.0001136065 0.04434204 -0.9990234
vn -0.3022461 0.2290039 -0.925293
vn -0.1205444 -0.01890564 -0.9926758
vn -0.2724609 0.07019043 -0.9594727
vn -0.2375488 -0.08105469 -0.9677734
vn 0.84375 -0.4714355 -0.2561035
vn 0.8754883 -0.4831543 -0.004154205
vn 0.84375 -0.4714355 -0.2561035
vn 0.8754883 -0.4833984 -0.009254456
vn 0.8520508 -0.4648438 0.239624
vn 0.8520508 -0.4648438 0.239624
vn 0.855957 0.4460449 -0.2609863
vn 0.8886719 0.4580078 -0.02142334
vn 0.855957 0.4460449 -0.2609863
vn 0.8886719 0.4580078 -0.02636719
vn 0.8706055 0.4440918 0.2122803
vn 0.8706055 0.4440918 0.2122803
vn 0.133667 -0.4018555 0.9057617
vn -0.009674072 -0.404541 0.9145508
vn 0.133667 -0.4018555 0.9057617
vn -0.009170532 -0.404541 0.9145508
vn -0.15271 -0.3989258 0.9042969
vn -0.15271 -0.3989258 0.9042969
vn 0.2087402 0.425293 0.8803711
vn -0.006725311 0.4372559 0.8994141
vn 0.2087402 0.425293 0.8803711
vn -0.005931854 0.4372559 0.8994141
vn -0.2227783 0.4287109 0.8754883
vn -0.2227783 0.4287109 0.8754883
vn -0.01385498 -0.9882813 -0.1529541
vn 0.01641846 -0.9995117 -0.02330017
vn -0.004898071 -0.9887695 -0.1499023
vn -0.01192474 -0.9995117 -0.02861023
vn -0.02375793 -0.9873047 -0.15625
vn 0.03713989 -0.9941406 0.1017456
vn -0.04122925 -0.9990234 -0.0249939
vn -0.009681702 -0.9951172 0.09960938
vn -0.0567627 -0.9936523 0.097229
vn -0.05230713 0.9682617 -0.2438965
vn -0.2054443 0.9746094 -0.09069824
vn -0.2015381 0.9438477 -0.2609863
vn -0.0413208 0.9946289 -0.0970459
vn 0.0604248 0.972168 -0.2272949
vn -0.2041016 0.9780273 0.046875
vn 0.1143188 0.9892578 -0.08880615
vn -0.01576233 0.9980469 0.0592041
vn 0.171875 0.9829102 0.06933594
g Cube_0
f 3/3/3 2/2/2 1/1/1
f 2/2/2 4/4/4 1/1/1
f 2/2/2 5/5/5 4/4/4
f 5/5/5 6/6/6 4/4/4
f 9/9/9 8/8/8 7/7/7
f 8/8/8 10/10/10 7/7/7
f 8/8/8 11/11/11 10/10/10
f 11/11/11 12/12/12 10/10/10
f 15/15/15 14/14/14 13/13/13
f 14/14/14 16/16/16 13/13/13
f 13/13/13 16/16/16 17/17/17
f 14/14/14 18/18/18 16/16/16
f 16/16/16 19/19/19 17/17/17
f 18/18/18 20/20/20 16/16/16
f 16/16/16 20/20/20 19/19/19
f 20/20/20 21/21/21 19/19/19
f 24/24/24 23/23/23 22/22/22
f 23/23/23 25/25/25 22/22/22
f 23/23/23 26/26/26 25/25/25
f 26/26/26 27/27/27 25/25/25
f 30/30/30 29/29/29 28/28/28
f 29/29/29 31/31/31 28/28/28
f 29/29/29 32/32/32 31/31/31
f 32/32/32 33/33/33 31/31/31
f 36/36/36 35/35/35 34/34/34
f 35/35/35 37/37/37 34/34/34
f 35/35/35 38/38/38 37/37/37
f 38/38/38 39/39/39 37/37/37
f 42/42/42 41/41/41 40/40/40
f 41/41/41 43/43/43 40/40/40
f 41/41/41 44/44/44 43/43/43
f 44/44/44 45/45/45 43/43/43
f 48/48/48 47/47/47 46/46/46
f 47/47/47 49/49/49 46/46/46
f 46/46/46 49/49/49 50/50/50
f 47/47/47 51/51/51 49/49/49
f 49/49/49 52/52/52 50/50/50
f 51/51/51 53/53/53 49/49/49
f 49/49/49 53/53/53 52/52/52
f 53/53/53 54/54/54 52/52/52
f 57/57/57 56/56/56 55/55/55
f 56/56/56 58/58/58 55/55/55
f 55/55/55 58/58/58 59/59/59
f 56/56/56 60/60/60 58/58/58
f 58/58/58 61/61/61 59/59/59
f 60/60/60 62/62/62 58/58/58
f 58/58/58 62/62/62 61/61/61
f 62/62/62 63/63/63 61/61/61
