g Cube.027
v -0.1593797 0.1999586 0.07380632
v -0.5711907 0.2237175 0.07380634
v -0.5711907 0.2237175 -0.07380623
v -0.1593797 0.1999586 -0.07380623
v 0.8699147 0.1683214 0.07380632
v -0.1593797 0.1999586 -0.07380623
v 0.8699148 0.1683209 -0.07380626
v -0.1722292 -0.2180915 -0.07380632
v 0.2851808 -0.2321508 -0.07380632
v 0.3137252 -0.1566606 -0.07380629
v -0.1698843 -0.1418002 -0.07380629
v -0.3366817 -0.2115509 -0.07380632
v -0.1617246 0.1236672 -0.07380626
v 0.3431832 -0.06588078 -0.07380629
v -0.3407342 -0.1334767 -0.07380629
v -0.3501192 -0.0129199 -0.07380629
v -0.4367821 -0.08032441 -0.07380629
v 0.5309525 0.04004073 -0.07380629
v 0.535767 -0.06106615 -0.07380629
v -0.5732006 0.1437442 -0.07380626
v -0.5765329 0.01115656 -0.07380629
v 0.8199911 0.09348369 -0.07380626
v 0.7090924 -0.05143666 -0.07380629
v 0.9305642 -0.03699303 -0.07380629
v 0.8699148 0.1683209 -0.07380626
v -0.1593797 0.1999586 -0.07380623
v -0.5711907 0.2237175 -0.07380623
v -0.7469271 0.1541696 -0.07380626
v -0.7429846 0.2440934 -0.07380623
v -0.1722292 -0.2180915 -0.07380632
v 0.2851808 -0.2321508 0.07380625
v 0.2851808 -0.2321508 -0.07380632
v -0.1722292 -0.2180915 0.07380625
v -0.3366817 -0.2115509 0.07380625
v -0.3366817 -0.2115509 -0.07380632
v -0.5711907 0.2237175 0.07380634
v -0.7429848 0.2440937 0.07380634
v -0.7429846 0.2440934 -0.07380623
v -0.5711907 0.2237175 -0.07380623
v -0.1722292 -0.2180915 0.07380625
v -0.3366817 -0.2115509 0.07380625
v -0.3407347 -0.1334767 0.07380627
v -0.1698843 -0.1418004 0.07380627
v 0.2851808 -0.2321508 0.07380625
v 0.3137251 -0.1566606 0.07380626
v -0.1617246 0.1236672 0.07380631
v 0.3431832 -0.06588078 0.07380627
v -0.3501192 -0.01292014 0.07380629
v -0.4367821 -0.08032441 0.07380629
v 0.5309526 0.04004073 0.0738063
v 0.535767 -0.06106591 0.07380627
v -0.5732006 0.1437442 0.07380633
v -0.5765329 0.01115632 0.0738063
v 0.8199912 0.09348369 0.07380631
v 0.7090924 -0.05143666 0.07380627
v 0.9305642 -0.03699303 0.07380627
v -0.1593797 0.1999586 0.07380632
v 0.8699147 0.1683214 0.07380632
v -0.5711907 0.2237175 0.07380634
v -0.7429848 0.2440937 0.07380634
v -0.7469271 0.1541696 0.07380633
v -0.7469271 0.1541696 0.07380633
v -0.7469271 0.1541696 -0.07380626
v -0.7429846 0.2440934 -0.07380623
v -0.7429848 0.2440937 0.07380634
v -0.5732006 0.1437442 0.07380633
v -0.5732006 0.1437442 -0.07380626
v -0.7469271 0.1541696 -0.07380626
v -0.7469271 0.1541696 0.07380633
v -0.5765329 0.01115632 0.0738063
v -0.5765329 0.01115656 -0.07380629
v -0.5732006 0.1437442 -0.07380626
v -0.5732006 0.1437442 0.07380633
v -0.3501192 -0.01292014 0.07380629
v -0.3501192 -0.0129199 -0.07380629
v -0.5765329 0.01115656 -0.07380629
v -0.5765329 0.01115632 0.0738063
v -0.4367821 -0.08032441 0.07380629
v -0.4367821 -0.08032441 -0.07380629
v -0.3501192 -0.0129199 -0.07380629
v -0.3501192 -0.01292014 0.07380629
v -0.3407347 -0.1334767 0.07380627
v -0.3407342 -0.1334767 -0.07380629
v -0.4367821 -0.08032441 -0.07380629
v -0.4367821 -0.08032441 0.07380629
v -0.3366817 -0.2115509 0.07380625
v -0.3366817 -0.2115509 -0.07380632
v -0.3407342 -0.1334767 -0.07380629
v -0.3407347 -0.1334767 0.07380627
v 0.8199911 0.09348369 -0.07380626
v 0.8199912 0.09348369 0.07380631
v 0.8699147 0.1683214 0.07380632
v 0.8699148 0.1683209 -0.07380626
v 0.9305642 -0.03699303 -0.07380629
v 0.9305642 -0.03699303 0.07380627
v 0.8199912 0.09348369 0.07380631
v 0.8199911 0.09348369 -0.07380626
v 0.7090924 -0.05143666 -0.07380629
v 0.7090924 -0.05143666 0.07380627
v 0.9305642 -0.03699303 0.07380627
v 0.9305642 -0.03699303 -0.07380629
v 0.5309525 0.04004073 -0.07380629
v 0.5309526 0.04004073 0.0738063
v 0.7090924 -0.05143666 0.07380627
v 0.7090924 -0.05143666 -0.07380629
v 0.535767 -0.06106615 -0.07380629
v 0.535767 -0.06106591 0.07380627
v 0.5309526 0.04004073 0.0738063
v 0.5309525 0.04004073 -0.07380629
v 0.3431832 -0.06588078 -0.07380629
v 0.3431832 -0.06588078 0.07380627
v 0.535767 -0.06106591 0.07380627
v 0.535767 -0.06106615 -0.07380629
v 0.3137252 -0.1566606 -0.07380629
v 0.3431832 -0.06588078 0.07380627
v 0.3431832 -0.06588078 -0.07380629
v 0.3137251 -0.1566606 0.07380626
v 0.2851808 -0.2321508 -0.07380632
v 0.2851808 -0.2321508 0.07380625
vt 0.3358533 0.4749249
vt 0.3359087 0.4741721
vt 0.3359087 0.4741721
vt 0.3358533 0.4749249
vt 0.3358058 0.4768021
vt 0.3358533 0.4749249
vt 0.3358058 0.4768021
vt 0.1521159 0.3276717
vt 0.1482918 0.4721316
vt 0.1935368 0.4791002
vt 0.1975772 0.3263662
vt 0.1543754 0.2756944
vt 0.3387096 0.3215338
vt 0.2420111 0.4858471
vt 0.2008353 0.2723258
vt 0.2648387 0.2660085
vt 0.2284269 0.2405939
vt 0.2997936 0.5420341
vt 0.246105 0.5463698
vt 0.3465744 0.191382
vt 0.27609 0.1940294
vt 0.3304969 0.6315807
vt 0.2526039 0.6006926
vt 0.2620448 0.6700456
vt 0.375566 0.6453013
vt 0.3841712 0.3202281
vt 0.3942257 0.1898721
vt 0.3555213 0.1289499
vt 0.3968781 0.1313455
vt 0.3361282 0.4749956
vt 0.3361073 0.4758297
vt 0.3361073 0.4758297
vt 0.3361282 0.4749956
vt 0.3361407 0.4746954
vt 0.3361407 0.4746954
vt 0.3359087 0.4741721
vt 0.3352132 0.4734654
vt 0.3352133 0.4734654
vt 0.3359087 0.4741721
vt 0.1521159 0.3276717
vt 0.1543754 0.2756944
vt 0.2008352 0.2723256
vt 0.1975772 0.3263662
vt 0.1482918 0.4721316
vt 0.1935368 0.4791002
vt 0.3387096 0.3215338
vt 0.2420111 0.4858471
vt 0.2648387 0.2660085
vt 0.2284269 0.2405939
vt 0.2997936 0.5420341
vt 0.2461051 0.5463698
vt 0.3465744 0.191382
vt 0.2760899 0.1940294
vt 0.3304968 0.6315807
vt 0.2526039 0.6006927
vt 0.2620449 0.6700455
vt 0.3841712 0.3202281
vt 0.375566 0.6453012
vt 0.3942257 0.1898721
vt 0.3968781 0.1313455
vt 0.3555213 0.1289499
vt 0 0
vt 0 0
vt 0 0
vt 0 0
vt 0 0
vt 0 0
vt 0 0
vt 0 0
vt 0 0
vt 0 0
vt 0 0
vt 0 0
vt 0 0
vt 0 0
vt 0 0
vt 0 0
vt 0 0
vt 0 0
vt 0 0
vt 0 0
vt 0 0
vt 0 0
vt 0 0
vt 0 0
vt 0 0
vt 0 0
vt 0 0
vt 0 0
vt 0 0
vt 0 0
vt 0 0
vt 0 0
vt 0 0
vt 0 0
vt 0 0
vt 0 0
vt 0 0
vt 0 0
vt 0 0
vt 0 0
vt 0 0
vt 0 0
vt 0 0
vt 0 0
vt 0 0
vt 0 0
vt 0 0
vt 0 0
vt 0 0
vt 0 0
vt 0 0
vt 0 0
vt 0 0
vt 0 0
vt 0 0
vt 0 0
vt 0 0
vt 0 0
vn 0.05759794 0.9983399 0
vn 0.05759794 0.9983399 0
vn 0.05759794 0.9983399 0
vn 0.05759794 0.9983399 0
vn 0.0307225 0.9995279 -1.605216E-06
vn 0.0307225 0.9995279 -1.605216E-06
vn 0.0307225 0.9995279 -1.605216E-06
vn 0 3.667682E-07 -1
vn 0 3.175198E-07 -1
vn 0 2.130872E-07 -1
vn 0 2.582345E-07 -1
vn 0 4.163013E-07 -1
vn 0 2.180972E-07 -1
vn 0 1.432341E-07 -1
vn 0 2.460845E-07 -1
vn 0 1.528708E-07 -1
vn 0 1.528708E-07 -1
vn 0 1.432341E-07 -1
vn 0 1.432341E-07 -1
vn 0 2.855936E-07 -1
vn 0 1.528708E-07 -1
vn 0 1.749139E-07 -1
vn 0 1.432341E-07 -1
vn 0 1.432341E-07 -1
vn 0 2.092162E-07 -1
vn 0 2.900657E-07 -1
vn 0 3.50108E-07 -1
vn 0 3.321281E-07 -1
vn 0 3.321281E-07 -1
vn -0.0352316 -0.9993792 0
vn -0.03072225 -0.9995279 0
vn -0.03072225 -0.9995279 0
vn -0.0352316 -0.9993792 0
vn -0.03974023 -0.99921 0
vn -0.03974023 -0.99921 0
vn 0.1177821 0.9930395 -7.003723E-07
vn 0.1177821 0.9930395 -7.003723E-07
vn 0.1177821 0.9930395 -7.003723E-07
vn 0.1177821 0.9930395 -7.003723E-07
vn 0 -3.104904E-07 1
vn 0 -3.127887E-07 1
vn 0 -2.165123E-07 1
vn 0 -2.439004E-07 1
vn 0 -3.082054E-07 1
vn 0 -2.368452E-07 1
vn 0 -1.395491E-07 1
vn 0 -1.891138E-07 1
vn 0 -1.6379E-07 1
vn 0 -1.6379E-07 1
vn 0 -1.891138E-07 1
vn 0 -1.891138E-07 1
vn 0 -1.33425E-07 1
vn 0 -1.6379E-07 1
vn 0 -1.217899E-07 1
vn 0 -1.891138E-07 1
vn 0 -1.891138E-07 1
vn 0 -1.030599E-07 1
vn 0 0 1
vn 0 -1.161837E-07 1
vn 0 0 1
vn 0 0 1
vn -0.9990403 0.04379907 -5.607564E-07
vn -0.9990403 0.04379907 -5.607564E-07
vn -0.9990403 0.04379907 -5.607564E-07
vn -0.9990403 0.04379907 -5.607564E-07
vn -0.05990227 -0.9982042 0
vn -0.05990227 -0.9982042 0
vn -0.05990227 -0.9982042 0
vn -0.05990227 -0.9982042 0
vn -0.9996843 0.02512453 -3.805626E-07
vn -0.9996843 0.02512453 -3.805626E-07
vn -0.9996843 0.02512453 -3.805626E-07
vn -0.9996843 0.02512453 -3.805626E-07
vn -0.1057422 -0.9943936 -1.607164E-06
vn -0.1057422 -0.9943936 -1.607164E-06
vn -0.1057422 -0.9943936 -1.607164E-06
vn -0.1057422 -0.9943936 -1.607164E-06
vn -0.6139402 0.7893526 5.74665E-07
vn -0.6139402 0.7893526 5.74665E-07
vn -0.6139402 0.7893526 5.74665E-07
vn -0.6139402 0.7893526 5.74665E-07
vn -0.4841981 -0.8749583 -6.896979E-07
vn -0.4841981 -0.8749583 -6.896979E-07
vn -0.4841981 -0.8749583 -6.896979E-07
vn -0.4841981 -0.8749583 -6.896979E-07
vn -0.9986554 -0.05183886 -1.452638E-06
vn -0.9986554 -0.05183886 -1.452638E-06
vn -0.9986554 -0.05183886 -1.452638E-06
vn -0.9986554 -0.05183886 -1.452638E-06
vn 0.8318864 -0.554946 1.122127E-06
vn 0.8318864 -0.554946 1.122127E-06
vn 0.8318864 -0.554946 1.122127E-06
vn 0.8318864 -0.554946 1.122127E-06
vn 0.7628968 0.6465202 -5.902412E-07
vn 0.7628968 0.6465202 -5.902412E-07
vn 0.7628968 0.6465202 -5.902412E-07
vn 0.7628968 0.6465202 -5.902412E-07
vn 0.06507838 -0.9978802 0
vn 0.06507838 -0.9978802 0
vn 0.06507838 -0.9978802 0
vn 0.06507838 -0.9978802 0
vn -0.4568052 -0.8895667 0
vn -0.4568052 -0.8895667 0
vn -0.4568052 -0.8895667 0
vn -0.4568052 -0.8895667 0
vn 0.9988682 0.04756355 0
vn 0.9988682 0.04756355 0
vn 0.9988682 0.04756355 0
vn 0.9988682 0.04756355 0
vn 0.02499296 -0.9996877 8.187691E-07
vn 0.02499296 -0.9996877 8.187691E-07
vn 0.02499296 -0.9996877 8.187691E-07
vn 0.02499296 -0.9996877 8.187691E-07
vn 0.9435388 -0.3312623 5.531497E-07
vn 0.9511738 -0.308656 7.932843E-07
vn 0.9511738 -0.308656 7.932843E-07
vn 0.9435388 -0.3312623 5.531496E-07
vn 0.9353665 -0.35368 3.126999E-07
vn 0.9353665 -0.35368 3.126999E-07
g Cube.027_0
f 3/3/3 2/2/2 1/1/1
f 4/4/4 3/3/3 1/1/1
f 6/6/6 1/1/1 5/5/5
f 7/7/7 6/6/6 5/5/5
f 10/10/10 9/9/9 8/8/8
f 11/11/11 10/10/10 8/8/8
f 8/8/8 12/12/12 11/11/11
f 10/10/10 11/11/11 13/13/13
f 14/14/14 10/10/10 13/13/13
f 12/12/12 15/15/15 11/11/11
f 11/11/11 15/15/15 16/16/16
f 13/13/13 11/11/11 16/16/16
f 16/16/16 15/15/15 17/17/17
f 18/18/18 14/14/14 13/13/13
f 18/18/18 19/19/19 14/14/14
f 16/16/16 20/20/20 13/13/13
f 16/16/16 21/21/21 20/20/20
f 18/18/18 13/13/13 22/22/22
f 23/23/23 18/18/18 22/22/22
f 22/22/22 24/24/24 23/23/23
f 25/25/25 22/22/22 13/13/13
f 26/26/26 25/25/25 13/13/13
f 13/13/13 20/20/20 26/26/26
f 20/20/20 27/27/27 26/26/26
f 20/20/20 28/28/28 27/27/27
f 28/28/28 29/29/29 27/27/27
f 32/32/32 31/31/31 30/30/30
f 31/31/31 33/33/33 30/30/30
f 33/33/33 34/34/34 30/30/30
f 34/34/34 35/35/35 30/30/30
f 38/38/38 37/37/37 36/36/36
f 39/39/39 38/38/38 36/36/36
f 42/42/42 41/41/41 40/40/40
f 43/43/43 42/42/42 40/40/40
f 43/43/43 40/40/40 44/44/44
f 45/45/45 43/43/43 44/44/44
f 46/46/46 43/43/43 45/45/45
f 46/46/46 45/45/45 47/47/47
f 48/48/48 42/42/42 43/43/43
f 48/48/48 43/43/43 46/46/46
f 42/42/42 48/48/48 49/49/49
f 46/46/46 47/47/47 50/50/50
f 51/51/51 50/50/50 47/47/47
f 46/46/46 52/52/52 48/48/48
f 52/52/52 53/53/53 48/48/48
f 54/54/54 46/46/46 50/50/50
f 54/54/54 50/50/50 55/55/55
f 55/55/55 56/56/56 54/54/54
f 57/57/57 46/46/46 54/54/54
f 58/58/58 57/57/57 54/54/54
f 57/57/57 59/59/59 46/46/46
f 59/59/59 52/52/52 46/46/46
f 59/59/59 60/60/60 52/52/52
f 60/60/60 61/61/61 52/52/52
f 64/64/64 63/63/63 62/62/62
f 65/65/65 64/64/64 62/62/62
f 68/68/68 67/67/67 66/66/66
f 69/69/69 68/68/68 66/66/66
f 72/72/72 71/71/71 70/70/70
f 73/73/73 72/72/72 70/70/70
f 76/76/76 75/75/75 74/74/74
f 77/77/77 76/76/76 74/74/74
f 80/80/80 79/79/79 78/78/78
f 81/81/81 80/80/80 78/78/78
f 84/84/84 83/83/83 82/82/82
f 85/85/85 84/84/84 82/82/82
f 88/88/88 87/87/87 86/86/86
f 89/89/89 88/88/88 86/86/86
f 92/92/92 91/91/91 90/90/90
f 93/93/93 92/92/92 90/90/90
f 96/96/96 95/95/95 94/94/94
f 97/97/97 96/96/96 94/94/94
f 100/100/100 99/99/99 98/98/98
f 101/101/101 100/100/100 98/98/98
f 104/104/104 103/103/103 102/102/102
f 105/105/105 104/104/104 102/102/102
f 108/108/108 107/107/107 106/106/106
f 109/109/109 108/108/108 106/106/106
f 112/112/112 111/111/111 110/110/110
f 113/113/113 112/112/112 110/110/110
f 116/116/116 115/115/115 114/114/114
f 115/115/115 117/117/117 114/114/114
f 114/114/114 117/117/117 118/118/118
f 117/117/117 119/119/119 118/118/118
