g Cube.008
v 1.639011 1.125432 0.06322794
v 1.561417 0.02731366 8.899921E-09
v 1.534103 0.02731365 0.01131373
v 1.668201 1.12549 0.05155306
v 1.696921 1.561416 0.07086535
v 1.667232 1.561417 0.08268004
v 1.668201 1.997343 0.05155344
v -1.639011 1.125432 0.06322794
v 1.534103 0.02731365 0.01131373
v 1.639011 1.997401 0.06322794
v -1.667232 1.561417 0.08268004
v 1.534103 3.095519 0.01131473
v 1.561417 3.095519 1.008648E-06
v 1.534103 3.122833 1.139618E-06
v 1.563167 3.124583 -0.01481307
v -1.534103 3.095519 0.01131473
v -1.534103 3.122833 1.017548E-06
v -1.639011 1.997401 0.06322794
v -1.561417 3.095519 1.008648E-06
v -1.563167 3.124583 -0.01481307
v -1.668202 1.997343 0.05155344
v -1.696921 1.561417 0.07086535
v -1.668202 1.12549 0.05155325
v -1.534103 0.02731365 0.01131373
v -1.561417 0.02731366 8.899921E-09
v -1.534103 -7.629395E-09 -2.485972E-15
v 1.534103 -3.814697E-09 -1.242986E-15
v -1.534103 -7.629395E-09 -2.485972E-15
v -1.563167 -0.001750236 -0.01481421
v -1.561417 0.02731366 8.899921E-09
v -1.534103 0.02731365 0.01131373
v 1.534103 -3.814697E-09 -1.242986E-15
v 1.534103 0.02731365 0.01131373
v 1.561417 0.02731366 8.899921E-09
v 1.563167 -0.001750239 -0.01481421
vt 0.9794922 0.3583984
vt 0.987793 0.02059937
vt 0.9794922 0.02059937
vt 0.987793 0.3583984
vt 0.9804688 0.5
vt 0.9736328 0.5
vt 0.987793 0.6416016
vt 0.02059937 0.3583984
vt 0.9794922 0.02059937
vt 0.9794922 0.6416016
vt 0.02619934 0.5
vt 0.9794922 0.9794922
vt 0.987793 0.9794922
vt 0.9794922 0.987793
vt 0.9882813 0.9882813
vt 0.02059937 0.9794922
vt 0.02059937 0.987793
vt 0.02059937 0.6416016
vt 0.01205444 0.9794922
vt 0.01151276 0.9882813
vt 0.01205444 0.6416016
vt 0.01930237 0.5
vt 0.01205444 0.3583984
vt 0.02059937 0.02059937
vt 0.01205444 0.02059937
vt 0.02059937 0.01559448
vt 0.9794922 0.01559448
vt 0.02059937 0.01205444
vt 0.01559448 0.01559448
vt 0.01559448 0.02059937
vt 0.02059937 0.01559448
vt 0.9794922 0.003536224
vt 0.9794922 0
vt 0.984375 0
vt 0.984375 0.006122589
vn 0.1916504 -0.06054688 0.9794922
vn 0.3823242 -0.2391357 0.8925781
vn 0.1851807 -0.2247314 0.956543
vn 0.3725586 -0.07226563 0.925293
vn 0.3706055 -2.980232E-07 0.9287109
vn 0.1950684 0 0.980957
vn 0.3725586 0.07226563 0.925293
vn -0.1916504 -0.06054688 0.9794922
vn 0.1851807 -0.2247314 0.956543
vn 0.1916504 0.06054688 0.9794922
vn -0.1950684 0 0.980957
vn 0.1851807 0.2247314 0.956543
vn 0.3823242 0.2391357 0.8925781
vn 0.2061768 0.3881836 0.8979492
vn 0.3793945 0.3793945 0.84375
vn -0.1851807 0.2247314 0.956543
vn -0.2061768 0.3881836 0.8979492
vn -0.1916504 0.06054688 0.9794922
vn -0.3823242 0.2391357 0.8925781
vn -0.3793945 0.3793945 0.84375
vn -0.3725586 0.07226563 0.925293
vn -0.3706055 0 0.9287109
vn -0.3725586 -0.07226563 0.925293
vn -0.1851807 -0.2247314 0.956543
vn -0.3823242 -0.2391357 0.8925781
vn -0.2061768 -0.3881836 0.8979492
vn 0.2061768 -0.3881836 0.8979492
vn -0.2061768 -0.3881836 0.8979492
vn -0.3793945 -0.3793945 0.84375
vn -0.3823242 -0.2391357 0.8925781
vn -0.1851807 -0.2247314 0.956543
vn 0.2061768 -0.3881836 0.8979492
vn 0.1851807 -0.2247314 0.956543
vn 0.3823242 -0.2391357 0.8925781
vn 0.3793945 -0.3793945 0.84375
g Cube.008_0
f 3/3/3 2/2/2 1/1/1
f 2/2/2 4/4/4 1/1/1
f 4/4/4 5/5/5 1/1/1
f 5/5/5 6/6/6 1/1/1
f 5/5/5 7/7/7 6/6/6
f 8/8/8 1/1/1 6/6/6
f 1/1/1 8/8/8 9/9/9
f 7/7/7 10/10/10 6/6/6
f 11/11/11 8/8/8 6/6/6
f 11/11/11 6/6/6 10/10/10
f 10/10/10 7/7/7 12/12/12
f 7/7/7 13/13/13 12/12/12
f 12/12/12 13/13/13 14/14/14
f 13/13/13 15/15/15 14/14/14
f 12/12/12 14/14/14 16/16/16
f 12/12/12 16/16/16 10/10/10
f 14/14/14 17/17/17 16/16/16
f 16/16/16 18/18/18 10/10/10
f 18/18/18 11/11/11 10/10/10
f 16/16/16 17/17/17 19/19/19
f 16/16/16 19/19/19 18/18/18
f 17/17/17 20/20/20 19/19/19
f 19/19/19 21/21/21 18/18/18
f 21/21/21 22/22/22 18/18/18
f 22/22/22 11/11/11 18/18/18
f 22/22/22 23/23/23 11/11/11
f 23/23/23 8/8/8 11/11/11
f 8/8/8 23/23/23 24/24/24
f 23/23/23 25/25/25 24/24/24
f 8/8/8 24/24/24 9/9/9
f 24/24/24 26/26/26 9/9/9
f 26/26/26 27/27/27 9/9/9
f 30/30/30 29/29/29 28/28/28
f 31/31/31 30/30/30 28/28/28
f 34/34/34 33/33/33 32/32/32
f 35/35/35 34/34/34 32/32/32
