g Cube.014
v 0.4774816 0.1663225 -0.07380623
v 0.7384329 0.1543572 -0.07380623
v 0.738433 0.1543572 0.07380634
v 0.4774816 0.1663225 0.07380634
v 0.4774816 0.1663225 0.07380634
v 0.738433 0.1543572 0.07380634
v 0.7072681 0.07933044 0.07380632
v 0.4729852 0.09007549 0.07380634
v -0.2681793 0.2102952 0.07380636
v -0.2954568 0.1353981 0.07380634
v 0.4637056 -0.06728148 0.07380631
v 0.6526508 -0.05215526 0.07380631
v 0.1018482 -0.06867933 0.07380631
v 0.06098832 -0.1518101 0.07380629
v -0.3003004 -0.01381016 0.07380632
v -0.4660513 0.08500266 0.07380634
v -0.4851764 -0.001060009 0.07380632
v -0.3321757 -0.05843532 0.07380632
v -0.630026 -0.1110655 0.07380631
v -0.2621765 -0.2092614 0.07380629
v -0.6358175 -0.1872271 0.07380631
v -0.2954568 0.1353981 -0.07380621
v 0.4774816 0.1663225 -0.07380623
v -0.2681795 0.2102952 -0.07380621
v 0.4729852 0.09007549 -0.07380626
v 0.7384329 0.1543572 -0.07380623
v 0.707268 0.07933044 -0.07380626
v 0.6526508 -0.05215538 -0.07380627
v 0.4637056 -0.06728125 -0.07380627
v 0.1018481 -0.06867933 -0.07380626
v 0.06098832 -0.1518101 -0.07380627
v -0.3003006 -0.01381016 -0.07380626
v -0.4660513 0.08500242 -0.07380623
v -0.4851764 -0.001060247 -0.07380623
v -0.3321756 -0.05843544 -0.07380626
v -0.6300261 -0.1110655 -0.07380626
v -0.6358175 -0.1872271 -0.07380627
v -0.2621765 -0.2092614 -0.07380627
v -0.6358175 -0.1872271 0.07380631
v -0.2621765 -0.2092614 0.07380629
v -0.2621765 -0.2092614 -0.07380627
v -0.6358175 -0.1872271 -0.07380627
v -0.6300261 -0.1110655 -0.07380626
v -0.630026 -0.1110655 0.07380631
v -0.6358175 -0.1872271 0.07380631
v -0.6358175 -0.1872271 -0.07380627
v -0.3321756 -0.05843544 -0.07380626
v -0.3321757 -0.05843532 0.07380632
v -0.630026 -0.1110655 0.07380631
v -0.6300261 -0.1110655 -0.07380626
v -0.3003006 -0.01381016 -0.07380626
v -0.3003004 -0.01381016 0.07380632
v -0.3321757 -0.05843532 0.07380632
v -0.3321756 -0.05843544 -0.07380626
v -0.4851764 -0.001060247 -0.07380623
v -0.4851764 -0.001060009 0.07380632
v -0.3003004 -0.01381016 0.07380632
v -0.3003006 -0.01381016 -0.07380626
v -0.4660513 0.08500242 -0.07380623
v -0.4660513 0.08500266 0.07380634
v -0.4851764 -0.001060009 0.07380632
v -0.4851764 -0.001060247 -0.07380623
v -0.2954568 0.1353981 -0.07380621
v -0.2954568 0.1353981 0.07380634
v -0.4660513 0.08500266 0.07380634
v -0.4660513 0.08500242 -0.07380623
v -0.2681795 0.2102952 -0.07380621
v -0.2681793 0.2102952 0.07380636
v -0.2954568 0.1353981 0.07380634
v -0.2954568 0.1353981 -0.07380621
v 0.4774816 0.1663225 -0.07380623
v 0.4774816 0.1663225 0.07380634
v -0.2681793 0.2102952 0.07380636
v -0.2681795 0.2102952 -0.07380621
v 0.06098832 -0.1518101 0.07380629
v 0.06098832 -0.1518101 -0.07380627
v -0.2621765 -0.2092614 -0.07380627
v -0.2621765 -0.2092614 0.07380629
v 0.1018482 -0.06867933 0.07380631
v 0.1018481 -0.06867933 -0.07380626
v 0.06098832 -0.1518101 -0.07380627
v 0.06098832 -0.1518101 0.07380629
v 0.4637056 -0.06728148 0.07380631
v 0.1018481 -0.06867933 -0.07380626
v 0.1018482 -0.06867933 0.07380631
v 0.4637056 -0.06728125 -0.07380627
v 0.6526508 -0.05215526 0.07380631
v 0.6526508 -0.05215538 -0.07380627
v 0.7072681 0.07933044 0.07380632
v 0.6526508 -0.05215538 -0.07380627
v 0.6526508 -0.05215526 0.07380631
v 0.707268 0.07933044 -0.07380626
v 0.738433 0.1543572 0.07380634
v 0.7384329 0.1543572 -0.07380623
vt 0.3358002 0.4770253
vt 0.3417884 0.4797257
vt 0.3417884 0.4797257
vt 0.3358002 0.4770253
vt 0.3745429 0.6839507
vt 0.3804597 0.7579233
vt 0.3343855 0.7516693
vt 0.3290751 0.6852564
vt 0.379987 0.4782919
vt 0.3346891 0.4733143
vt 0.2453591 0.6881229
vt 0.2622337 0.740855
vt 0.2359366 0.5891013
vt 0.1908471 0.5807711
vt 0.2554028 0.4771153
vt 0.3038568 0.4283404
vt 0.257733 0.4260616
vt 0.23096 0.4699218
vt 0.1958889 0.3901845
vt 0.147708 0.4941857
vt 0.150436 0.3911327
vt 0.3346891 0.4733143
vt 0.3745429 0.6839507
vt 0.379987 0.4782919
vt 0.3290751 0.6852564
vt 0.3804597 0.7579232
vt 0.3343855 0.7516693
vt 0.2622337 0.7408549
vt 0.2453592 0.6881229
vt 0.2359366 0.5891014
vt 0.1908472 0.5807712
vt 0.2554028 0.4771152
vt 0.3038568 0.4283405
vt 0.2577329 0.4260616
vt 0.23096 0.4699218
vt 0.1958889 0.3901845
vt 0.150436 0.3911327
vt 0.147708 0.4941857
vt 0.336119 0.475362
vt 0.3361041 0.4759571
vt 0.3361041 0.4759571
vt 0.336119 0.475362
vt 0 0
vt 0 0
vt 0 0
vt 0 0
vt 0 0
vt 0 0
vt 0 0
vt 0 0
vt 0 0
vt 0 0
vt 0 0
vt 0 0
vt 0 0
vt 0 0
vt 0 0
vt 0 0
vt 0 0
vt 0 0
vt 0 0
vt 0 0
vt 0 0
vt 0 0
vt 0 0
vt 0 0
vt 0 0
vt 0 0
vt 0 0
vt 0 0
vt 0 0
vt 0 0
vt 0 0
vt 0 0
vt 0 0
vt 0 0
vt 0 0
vt 0 0
vt 0 0
vt 0 0
vt 0 0
vt 0 0
vt 0 0
vt 0 0
vt 0 0
vt 0 0
vt 0 0
vt 0 0
vt 0 0
vt 0 0
vt 0 0
vt 0 0
vt 0 0
vt 0 0
vn 0.05233791 0.9986295 0
vn 0.0458044 0.9989504 0
vn 0.0458044 0.9989504 0
vn 0.05233791 0.9986295 0
vn 0 -1.386579E-07 1
vn 0 -1.844792E-07 1
vn 0 -1.602258E-07 1
vn 0 -1.436571E-07 1
vn 0 0 1
vn 0 -1.497803E-07 1
vn 0 -1.508769E-07 1
vn 0 -1.221743E-07 1
vn 0 -1.76038E-07 1
vn 0 -1.808865E-07 1
vn 0 -1.76038E-07 1
vn 0 -1.76038E-07 1
vn 0 -1.76038E-07 1
vn 0 -1.76038E-07 1
vn 0 -2.156956E-07 1
vn 0 -2.215348E-07 1
vn 0 -2.215348E-07 1
vn 0 1.493497E-07 -1
vn 0 2.924076E-07 -1
vn 0 2.276201E-07 -1
vn 0 2.121997E-07 -1
vn 0 3.566601E-07 -1
vn 0 2.772714E-07 -1
vn 0 1.52718E-07 -1
vn 0 1.318188E-07 -1
vn 0 1.134982E-07 -1
vn 0 1.16025E-07 -1
vn 0 1.134982E-07 -1
vn 0 1.134982E-07 -1
vn 0 1.134982E-07 -1
vn 0 1.134982E-07 -1
vn 0 1.341656E-07 -1
vn 0 1.372087E-07 -1
vn 0 1.372087E-07 -1
vn -0.05886956 -0.9982657 0
vn 0.05848439 -0.9982883 0
vn 0.05848439 -0.9982883 0
vn -0.05886956 -0.9982657 0
vn -0.9971213 0.07582316 3.304066E-07
vn -0.9971213 0.07582316 3.304066E-07
vn -0.9971213 0.07582316 3.304066E-07
vn -0.9971213 0.07582316 3.304066E-07
vn -0.1740043 0.984745 -3.754697E-07
vn -0.1740043 0.984745 -3.754697E-07
vn -0.1740043 0.984745 -3.754697E-07
vn -0.1740043 0.984745 -3.754697E-07
vn -0.8137335 0.5812383 2.300957E-07
vn -0.8137335 0.5812383 2.300957E-07
vn -0.8137335 0.5812383 2.300957E-07
vn -0.8137335 0.5812383 2.300957E-07
vn -0.06880192 -0.9976304 8.511503E-07
vn -0.06880192 -0.9976304 8.511503E-07
vn -0.06880192 -0.9976304 8.511503E-07
vn -0.06880192 -0.9976304 8.511503E-07
vn -0.976187 0.2169308 -2.862563E-07
vn -0.976187 0.2169308 -2.862563E-07
vn -0.976187 0.2169308 -2.862563E-07
vn -0.976187 0.2169308 -2.862563E-07
vn -0.2833083 0.9590288 -8.512453E-07
vn -0.2833083 0.9590288 -8.512453E-07
vn -0.2833083 0.9590288 -8.512453E-07
vn -0.2833083 0.9590288 -8.512453E-07
vn -0.9396237 0.3422097 1.583055E-07
vn -0.9396237 0.3422097 1.583055E-07
vn -0.9396237 0.3422097 1.583055E-07
vn -0.9396237 0.3422097 1.583055E-07
vn 0.05233791 0.9986295 0
vn 0.05233791 0.9986295 0
vn 0.0588692 0.9982657 0
vn 0.0588692 0.9982657 0
vn 0.1750329 -0.9845626 0
vn 0.1750329 -0.9845626 0
vn 0.05848439 -0.9982883 0
vn 0.05848439 -0.9982883 0
vn 0.897453 -0.4411101 -1.702813E-07
vn 0.897453 -0.4411101 -1.702813E-07
vn 0.897453 -0.4411101 -1.702813E-07
vn 0.897453 -0.4411101 -1.702813E-07
vn 0.04186185 -0.9991234 -6.044361E-07
vn 0.003863305 -0.9999926 -8.085743E-07
vn 0.003863305 -0.9999926 -8.085743E-07
vn 0.04186185 -0.9991234 -6.04436E-07
vn 0.07979991 -0.9968109 -3.994247E-07
vn 0.07979991 -0.9968109 -3.994247E-07
vn 0.9234968 -0.3836061 -4.659588E-07
vn 0.9234966 -0.3836068 0
vn 0.9234966 -0.3836068 0
vn 0.9234968 -0.3836061 -4.659585E-07
vn 0.9234971 -0.3836055 -9.319172E-07
vn 0.9234971 -0.3836055 -9.319172E-07
g Cube.014_0
f 3/3/3 2/2/2 1/1/1
f 4/4/4 3/3/3 1/1/1
f 7/7/7 6/6/6 5/5/5
f 8/8/8 7/7/7 5/5/5
f 5/5/5 9/9/9 8/8/8
f 9/9/9 10/10/10 8/8/8
f 7/7/7 8/8/8 11/11/11
f 11/11/11 8/8/8 10/10/10
f 12/12/12 7/7/7 11/11/11
f 10/10/10 13/13/13 11/11/11
f 10/10/10 14/14/14 13/13/13
f 10/10/10 15/15/15 14/14/14
f 15/15/15 10/10/10 16/16/16
f 16/16/16 17/17/17 15/15/15
f 15/15/15 18/18/18 14/14/14
f 18/18/18 19/19/19 14/14/14
f 14/14/14 19/19/19 20/20/20
f 19/19/19 21/21/21 20/20/20
f 24/24/24 23/23/23 22/22/22
f 23/23/23 25/25/25 22/22/22
f 23/23/23 26/26/26 25/25/25
f 26/26/26 27/27/27 25/25/25
f 27/27/27 28/28/28 25/25/25
f 28/28/28 29/29/29 25/25/25
f 22/22/22 25/25/25 29/29/29
f 29/29/29 30/30/30 22/22/22
f 30/30/30 31/31/31 22/22/22
f 31/31/31 32/32/32 22/22/22
f 33/33/33 22/22/22 32/32/32
f 32/32/32 34/34/34 33/33/33
f 31/31/31 35/35/35 32/32/32
f 31/31/31 36/36/36 35/35/35
f 36/36/36 31/31/31 37/37/37
f 31/31/31 38/38/38 37/37/37
f 41/41/41 40/40/40 39/39/39
f 42/42/42 41/41/41 39/39/39
f 45/45/45 44/44/44 43/43/43
f 46/46/46 45/45/45 43/43/43
f 49/49/49 48/48/48 47/47/47
f 50/50/50 49/49/49 47/47/47
f 53/53/53 52/52/52 51/51/51
f 54/54/54 53/53/53 51/51/51
f 57/57/57 56/56/56 55/55/55
f 58/58/58 57/57/57 55/55/55
f 61/61/61 60/60/60 59/59/59
f 62/62/62 61/61/61 59/59/59
f 65/65/65 64/64/64 63/63/63
f 66/66/66 65/65/65 63/63/63
f 69/69/69 68/68/68 67/67/67
f 70/70/70 69/69/69 67/67/67
f 73/73/73 72/72/72 71/71/71
f 74/74/74 73/73/73 71/71/71
f 77/77/77 76/76/76 75/75/75
f 78/78/78 77/77/77 75/75/75
f 81/81/81 80/80/80 79/79/79
f 82/82/82 81/81/81 79/79/79
f 85/85/85 84/84/84 83/83/83
f 84/84/84 86/86/86 83/83/83
f 83/83/83 86/86/86 87/87/87
f 86/86/86 88/88/88 87/87/87
f 91/91/91 90/90/90 89/89/89
f 90/90/90 92/92/92 89/89/89
f 89/89/89 92/92/92 93/93/93
f 92/92/92 94/94/94 93/93/93
