g Cube.016
v -0.380959 0.2117124 -0.07380621
v 0.03019106 0.2052424 0.07380635
v -0.380959 0.2117124 0.07380638
v 0.03019106 0.2052424 -0.07380621
v 0.3063394 0.2029216 0.07380635
v 0.3063394 0.2029216 -0.07380621
v 0.4507016 0.2038474 0.07380635
v 0.4507016 0.2038474 -0.07380621
v -0.380959 0.2117124 0.07380638
v -0.5033365 0.2154741 0.07380638
v -0.5033364 0.2154741 -0.07380621
v -0.3938085 -0.2063372 0.07380631
v -1.08807 -0.1849978 0.07380631
v -1.059526 -0.1095076 0.07380632
v -0.3914633 -0.1300359 0.07380632
v 0.01734155 -0.2128074 0.07380629
v 0.019687 -0.1365006 0.07380629
v 0.2934899 -0.2151282 0.07380629
v -0.442687 0.01015997 0.07380633
v -0.6641587 -0.004283905 0.07380633
v -0.8374842 -0.01391292 0.07380633
v -1.030068 -0.01872778 0.07380633
v -0.8422986 0.08719349 0.07380635
v -0.3833042 0.1354108 0.07380636
v -0.55326 0.1406364 0.07380636
v -0.5033365 0.2154741 0.07380638
v -0.380959 0.2117124 0.07380638
v 0.02784568 0.1289353 0.07380633
v 0.03019106 0.2052424 0.07380635
v 0.1899007 0.1301143 0.07380633
v 0.3063394 0.2029216 0.07380635
v 0.2347564 0.1287339 0.07380633
v 0.4507016 0.2038474 0.07380635
v 0.2958357 -0.1388142 0.07380629
v 0.4912521 0.1416473 0.07380634
v 0.4925915 0.1852279 0.07380634
v 0.2561777 0.1280704 0.07380633
v 0.3541016 -0.1406012 0.07380629
v 0.4362397 0.1061802 0.07380633
v 0.4364902 0.1067204 0.07380633
v 0.4963062 0.08778477 0.07380633
v 0.5164506 0.0567832 0.07380632
v 0.483595 -0.1074674 0.07380629
v 0.3781217 -0.1413367 0.07380629
v 0.4529358 -0.1482794 0.07380629
v 0.4798966 -0.2277987 0.07380627
v 0.4530582 -0.1478631 0.07380629
v 0.4934638 -0.171875 0.07380629
v 0.483646 -0.1565292 0.07380629
v 0.01734155 -0.2128074 0.07380629
v 0.2934899 -0.2151282 0.07380629
v 0.2934899 -0.2151282 -0.07380627
v 0.01734155 -0.2128074 -0.07380627
v -0.3938085 -0.2063372 0.07380631
v -0.3938085 -0.2063372 -0.07380627
v -1.08807 -0.1849978 0.07380631
v -1.08807 -0.1849978 -0.07380627
v 0.2934899 -0.2151282 0.07380629
v 0.4798966 -0.2277987 0.07380627
v 0.4798966 -0.2277987 -0.07380627
v 0.2934899 -0.2151282 -0.07380627
v 0.4912521 0.1416473 -0.07380621
v 0.4925915 0.1852279 -0.07380621
v 0.4507016 0.2038474 -0.07380621
v 0.2347564 0.1287339 -0.07380621
v 0.2561777 0.1280704 -0.07380621
v 0.3063394 0.2029216 -0.07380621
v 0.4362397 0.1061802 -0.07380621
v 0.4364902 0.1067204 -0.07380621
v 0.4963062 0.08778477 -0.07380624
v 0.5164506 0.0567832 -0.07380624
v 0.483595 -0.1074674 -0.07380624
v 0.3541016 -0.1406012 -0.07380627
v 0.3781217 -0.1413367 -0.07380627
v 0.4529358 -0.1482794 -0.07380627
v 0.4530582 -0.1478631 -0.07380627
v 0.483646 -0.1565292 -0.07380627
v 0.4934638 -0.171875 -0.07380627
v 0.4798966 -0.2277987 -0.07380627
v 0.2934899 -0.2151282 -0.07380627
v 0.2958357 -0.1388142 -0.07380627
v 0.01734155 -0.2128074 -0.07380627
v 0.1899007 0.1301143 -0.07380621
v 0.02784568 0.1289353 -0.07380621
v 0.03019106 0.2052424 -0.07380621
v 0.019687 -0.1365006 -0.07380627
v -0.3938085 -0.2063372 -0.07380627
v -0.3833042 0.1354108 -0.07380621
v -0.380959 0.2117124 -0.07380621
v -0.3914633 -0.1300359 -0.07380624
v -1.08807 -0.1849978 -0.07380627
v -1.059526 -0.1095076 -0.07380624
v -0.5532601 0.1406364 -0.07380621
v -0.5033364 0.2154741 -0.07380621
v -0.442687 0.01015973 -0.07380624
v -0.6641588 -0.004283905 -0.07380624
v -0.8374842 -0.01391315 -0.07380624
v -0.8422986 0.08719349 -0.07380624
v -1.030068 -0.01872778 -0.07380624
v 0.5164506 0.0567832 -0.07380624
v 0.483595 -0.1074674 -0.07380624
v 0.483595 -0.1074674 0.07380629
v 0.5164506 0.0567832 0.07380632
v 0.4912521 0.1416473 -0.07380621
v 0.2561777 0.1280704 -0.07380621
v 0.2561777 0.1280704 0.07380633
v 0.4912521 0.1416473 0.07380634
v 0.4798966 -0.2277987 -0.07380627
v 0.4798966 -0.2277987 0.07380627
v 0.4934638 -0.171875 0.07380629
v 0.4934638 -0.171875 -0.07380627
v 0.3781217 -0.1413367 0.07380629
v 0.483595 -0.1074674 0.07380629
v 0.483595 -0.1074674 -0.07380624
v 0.3781217 -0.1413367 -0.07380627
v 0.4507016 0.2038474 -0.07380621
v 0.4925915 0.1852279 -0.07380621
v 0.4925915 0.1852279 0.07380634
v 0.4507016 0.2038474 0.07380635
v 0.4912521 0.1416473 -0.07380621
v 0.4912521 0.1416473 0.07380634
v 0.4925915 0.1852279 0.07380634
v 0.4925915 0.1852279 -0.07380621
v 0.5164506 0.0567832 0.07380632
v 0.4963062 0.08778477 0.07380633
v 0.4963062 0.08778477 -0.07380624
v 0.5164506 0.0567832 -0.07380624
v 0.4963062 0.08778477 0.07380633
v 0.4364902 0.1067204 0.07380633
v 0.4364902 0.1067204 -0.07380621
v 0.4963062 0.08778477 -0.07380624
v 0.2561777 0.1280704 -0.07380621
v 0.4364902 0.1067204 -0.07380621
v 0.4364902 0.1067204 0.07380633
v 0.2561777 0.1280704 0.07380633
v 0.4934638 -0.171875 0.07380629
v 0.483646 -0.1565292 0.07380629
v 0.483646 -0.1565292 -0.07380627
v 0.4934638 -0.171875 -0.07380627
v 0.483646 -0.1565292 0.07380629
v 0.4530582 -0.1478631 0.07380629
v 0.4530582 -0.1478631 -0.07380627
v 0.483646 -0.1565292 -0.07380627
v 0.4530582 -0.1478631 0.07380629
v 0.3781217 -0.1413367 0.07380629
v 0.3781217 -0.1413367 -0.07380627
v 0.4530582 -0.1478631 -0.07380627
vt 0.3358002 0.4770253
vt 0.3466072 0.4818988
vt 0.3358002 0.4770253
vt 0.3466072 0.4818988
vt 0.3466145 0.4824015
vt 0.3466145 0.4824015
vt 0.3466256 0.482664
vt 0.3466256 0.482664
vt 0.3358002 0.4770253
vt 0.3358058 0.4768021
vt 0.3358058 0.4768021
vt 0.1424876 0.6913942
vt 0.1482918 0.4721316
vt 0.1935368 0.4791002
vt 0.1879553 0.6900885
vt 0.1531656 0.8248947
vt 0.1986366 0.8235887
vt 0.15453 0.9119427
vt 0.2620449 0.6700455
vt 0.2526039 0.6006927
vt 0.2461051 0.5463698
vt 0.2420111 0.4858471
vt 0.2997936 0.5420341
vt 0.3290751 0.6852564
vt 0.3304968 0.6315807
vt 0.375566 0.6453012
vt 0.3745429 0.6839507
vt 0.3397497 0.8187568
vt 0.3852211 0.817451
vt 0.3420638 0.8697721
vt 0.3865855 0.9044991
vt 0.3416876 0.8839385
vt 0.3885732 0.9499481
vt 0.2000053 0.9106368
vt 0.3519303 0.9643884
vt 0.3778996 0.9636424
vt 0.3415059 0.8907042
vt 0.1995205 0.9290385
vt 0.3302591 0.9480097
vt 0.330583 0.9480742
vt 0.3199002 0.9674234
vt 0.3016364 0.9745995
vt 0.2205427 0.9689407
vt 0.1993215 0.9366243
vt 0.1959303 0.9603766
vt 0.1488376 0.9709997
vt 0.1961793 0.960404
vt 0.1822802 0.9737751
vt 0.1913225 0.9702712
vt 0.3468821 0.4819694
vt 0.3468899 0.4824721
vt 0.3468899 0.4824721
vt 0.3468821 0.4819694
vt 0.3360755 0.4770958
vt 0.3360755 0.4770958
vt 0.3361073 0.4758297
vt 0.3361073 0.4758297
vt 0.3468899 0.4824721
vt 0.3468584 0.4828131
vt 0.3468584 0.4828131
vt 0.3468899 0.4824721
vt 0.3519303 0.9643884
vt 0.3778996 0.9636424
vt 0.3885732 0.9499481
vt 0.3416876 0.8839385
vt 0.3415059 0.8907042
vt 0.3865855 0.9044991
vt 0.3302591 0.9480097
vt 0.330583 0.9480742
vt 0.3199002 0.9674234
vt 0.3016364 0.9745995
vt 0.2205427 0.9689407
vt 0.1995205 0.9290385
vt 0.1993215 0.9366243
vt 0.1959303 0.9603766
vt 0.1961793 0.960404
vt 0.1913225 0.9702712
vt 0.1822802 0.9737751
vt 0.1488376 0.9709997
vt 0.15453 0.9119427
vt 0.2000053 0.9106368
vt 0.1531656 0.8248947
vt 0.3420638 0.8697721
vt 0.3397498 0.8187568
vt 0.3852211 0.817451
vt 0.1986366 0.8235887
vt 0.1424876 0.6913942
vt 0.3290751 0.6852564
vt 0.3745429 0.6839507
vt 0.1879553 0.6900885
vt 0.1482918 0.4721316
vt 0.1935368 0.4791002
vt 0.3304969 0.6315807
vt 0.375566 0.6453013
vt 0.2620448 0.6700456
vt 0.2526039 0.6006926
vt 0.246105 0.5463698
vt 0.2997936 0.5420341
vt 0.2420111 0.4858471
vt 0.3461448 0.4828063
vt 0.3472546 0.4828013
vt 0.3472546 0.4828013
vt 0.3461448 0.4828063
vt 0.3464231 0.4827474
vt 0.3463652 0.4823219
vt 0.3463652 0.4823219
vt 0.3464231 0.4827474
vt 0.3468584 0.4828131
vt 0.3468584 0.4828131
vt 0.3470431 0.4828291
vt 0.3470431 0.4828291
vt 0.3471375 0.4826146
vt 0.3472546 0.4828013
vt 0.3472546 0.4828013
vt 0.3471375 0.4826146
vt 0.3466256 0.482664
vt 0.3465665 0.482743
vt 0.3465665 0.482743
vt 0.3466256 0.482664
vt 0.3464231 0.4827474
vt 0.3464231 0.4827474
vt 0.3465665 0.482743
vt 0.3465665 0.482743
vt 0.3461448 0.4828063
vt 0.3462458 0.4827648
vt 0.3462458 0.4827648
vt 0.3461448 0.4828063
vt 0.3462458 0.4827648
vt 0.3463053 0.4826531
vt 0.3463053 0.4826531
vt 0.3462458 0.4827648
vt 0.3463652 0.4823219
vt 0.3463053 0.4826531
vt 0.3463053 0.4826531
vt 0.3463652 0.4823219
vt 0.3470431 0.4828291
vt 0.3470929 0.4828089
vt 0.3470929 0.4828089
vt 0.3470431 0.4828291
vt 0.3470929 0.4828089
vt 0.34712 0.4827519
vt 0.34712 0.4827519
vt 0.3470929 0.4828089
vt 0.34712 0.4827519
vt 0.3471375 0.4826146
vt 0.3471375 0.4826146
vt 0.34712 0.4827519
vn 0.0157343 0.9998763 0
vn 0.01206911 0.9999272 0
vn 0.0157343 0.9998763 0
vn 0.01206911 0.9999272 0
vn 0.008403753 0.9999647 0
vn 0.008403753 0.9999647 0
vn -0.006412763 0.9999795 0
vn -0.006412763 0.9999795 0
vn 0.03072453 0.9995279 0
vn 0.03072453 0.9995279 0
vn 0.03072453 0.9995279 0
vn 0 0 1
vn 0 -1.476992E-07 1
vn 0 -1.494938E-07 1
vn 0 -1.232968E-07 1
vn 0 0 1
vn 0 -1.019332E-07 1
vn 0 0 1
vn 0 -1.521439E-07 1
vn 0 -1.521439E-07 1
vn 0 -1.521439E-07 1
vn 0 -1.521439E-07 1
vn 0 -1.521439E-07 1
vn 0 -1.772766E-07 1
vn 0 -1.602004E-07 1
vn 0 -1.668559E-07 1
vn 0 -1.848134E-07 1
vn 0 -1.995981E-07 1
vn 0 -2.4402E-07 1
vn 0 -2.00481E-07 1
vn 0 -2.633416E-07 1
vn 0 -1.512676E-07 1
vn 0 -2.587134E-07 1
vn 0 0 1
vn 0 -2.5756E-07 1
vn 0 -2.587134E-07 1
vn 0 1.030052E-06 1
vn 0 0 1
vn 0 1.719531E-07 1
vn 0 -1.414338E-07 1
vn 0 0 1
vn 0 0 1
vn 0 -1.029303E-07 1
vn 0 2.547562E-06 1
vn 0 -1.448597E-06 1
vn 0 0 1
vn 0 -3.742473E-06 1
vn 0 -2.677601E-07 1
vn -1.566027E-07 -1.249709E-06 1
vn -0.01206944 -0.9999272 0
vn -0.008403754 -0.9999647 0
vn -0.008403754 -0.9999647 0
vn -0.01206944 -0.9999272 0
vn -0.01573497 -0.9998763 0
vn -0.01573497 -0.9998763 0
vn -0.03072233 -0.9995279 0
vn -0.03072233 -0.9995279 0
vn -0.06781578 -0.9976979 0
vn -0.06781578 -0.9976979 0
vn -0.06781578 -0.9976979 0
vn -0.06781578 -0.9976979 0
vn 0 0 -1
vn 0 0 -1
vn 0 0 -1
vn 0 0 -1
vn 0 -5.209411E-07 -1
vn 0 0 -1
vn -1.171984E-07 0 -1
vn -2.498922E-07 0 -1
vn -6.187085E-07 -6.219902E-07 -1
vn -1.024362E-07 0 -1
vn 0 2.363493E-07 -1
vn 0 1.788663E-07 -1
vn 0 6.215589E-07 -1
vn 0 0 -1
vn 0 0 -1
vn 0 0 -1
vn 0 0 -1
vn 0 0 -1
vn 0 0 -1
vn 0 1.208109E-07 -1
vn 0 0 -1
vn 0 1.06656E-07 -1
vn 0 0 -1
vn 0 0 -1
vn 0 1.405115E-07 -1
vn 0 2.598262E-07 -1
vn 0 0 -1
vn 0 0 -1
vn 0 1.806631E-07 -1
vn 0 3.491072E-07 -1
vn 0 2.215877E-07 -1
vn 0 0 -1
vn 0 1.160169E-07 -1
vn 0 0 -1
vn 0 0 -1
vn 0 0 -1
vn 0 0 -1
vn 0 0 -1
vn 0.9805744 -0.1961477 0
vn 0.9805744 -0.1961477 0
vn 0.9805744 -0.1961477 0
vn 0.9805744 -0.1961477 0
vn 0.05766004 -0.9983364 0
vn 0.05766004 -0.9983364 0
vn 0.05766004 -0.9983364 0
vn 0.05766004 -0.9983364 0
vn 0.9718105 -0.2357634 0
vn 0.9718105 -0.2357634 0
vn 0.9718105 -0.2357634 0
vn 0.9718105 -0.2357634 0
vn 0.3057404 -0.952115 0
vn 0.3057404 -0.952115 0
vn 0.3057404 -0.952115 0
vn 0.3057404 -0.952115 0
vn 0.4061714 0.913797 0
vn 0.4061714 0.913797 0
vn 0.4061714 0.913797 0
vn 0.4061714 0.913797 0
vn 0.9995281 -0.03072022 0
vn 0.9995281 -0.03072022 0
vn 0.9995281 -0.03072022 0
vn 0.9995281 -0.03072022 0
vn 0.8385261 0.5448615 0
vn 0.8385261 0.5448615 0
vn 0.8385261 0.5448615 0
vn 0.8385261 0.5448615 0
vn 0.301804 0.95337 0
vn 0.301804 0.95337 0
vn 0.301804 0.95337 0
vn 0.301804 0.95337 0
vn 0.1175836 0.993063 0
vn 0.1175836 0.993063 0
vn 0.1175836 0.993063 0
vn 0.1175836 0.993063 0
vn 0.8423583 0.538918 0
vn 0.8423583 0.538918 0
vn 0.8423583 0.538918 0
vn 0.8423583 0.538918 0
vn 0.272588 0.9621308 0
vn 0.272588 0.9621308 0
vn 0.272588 0.9621308 0
vn 0.272588 0.9621308 0
vn 0.08676481 0.9962288 0
vn 0.08676481 0.9962288 0
vn 0.08676481 0.9962288 0
vn 0.08676481 0.9962288 0
g Cube.016_0
f 3/3/3 2/2/2 1/1/1
f 2/2/2 4/4/4 1/1/1
f 2/2/2 5/5/5 4/4/4
f 5/5/5 6/6/6 4/4/4
f 5/5/5 7/7/7 6/6/6
f 7/7/7 8/8/8 6/6/6
f 10/10/10 9/9/9 1/1/1
f 11/11/11 10/10/10 1/1/1
f 14/14/14 13/13/13 12/12/12
f 15/15/15 14/14/14 12/12/12
f 12/12/12 16/16/16 15/15/15
f 16/16/16 17/17/17 15/15/15
f 16/16/16 18/18/18 17/17/17
f 14/14/14 15/15/15 19/19/19
f 19/19/19 20/20/20 14/14/14
f 20/20/20 21/21/21 14/14/14
f 21/21/21 22/22/22 14/14/14
f 21/21/21 20/20/20 23/23/23
f 19/19/19 15/15/15 24/24/24
f 24/24/24 25/25/25 19/19/19
f 26/26/26 25/25/25 24/24/24
f 27/27/27 26/26/26 24/24/24
f 28/28/28 24/24/24 15/15/15
f 24/24/24 28/28/28 27/27/27
f 17/17/17 28/28/28 15/15/15
f 28/28/28 29/29/29 27/27/27
f 28/28/28 30/30/30 29/29/29
f 30/30/30 28/28/28 17/17/17
f 30/30/30 31/31/31 29/29/29
f 31/31/31 30/30/30 32/32/32
f 33/33/33 31/31/31 32/32/32
f 34/34/34 30/30/30 17/17/17
f 32/32/32 30/30/30 34/34/34
f 18/18/18 34/34/34 17/17/17
f 33/33/33 32/32/32 35/35/35
f 35/35/35 36/36/36 33/33/33
f 35/35/35 32/32/32 37/37/37
f 32/32/32 34/34/34 38/38/38
f 38/38/38 34/34/34 18/18/18
f 37/37/37 32/32/32 39/39/39
f 39/39/39 32/32/32 38/38/38
f 40/40/40 37/37/37 39/39/39
f 40/40/40 39/39/39 41/41/41
f 41/41/41 39/39/39 42/42/42
f 43/43/43 42/42/42 39/39/39
f 39/39/39 38/38/38 43/43/43
f 43/43/43 38/38/38 44/44/44
f 45/45/45 38/38/38 18/18/18
f 44/44/44 38/38/38 45/45/45
f 45/45/45 18/18/18 46/46/46
f 47/47/47 44/44/44 45/45/45
f 46/46/46 48/48/48 45/45/45
f 47/47/47 45/45/45 49/49/49
f 49/49/49 45/45/45 48/48/48
f 52/52/52 51/51/51 50/50/50
f 53/53/53 52/52/52 50/50/50
f 53/53/53 50/50/50 54/54/54
f 55/55/55 53/53/53 54/54/54
f 55/55/55 54/54/54 56/56/56
f 57/57/57 55/55/55 56/56/56
f 60/60/60 59/59/59 58/58/58
f 61/61/61 60/60/60 58/58/58
f 64/64/64 63/63/63 62/62/62
f 62/62/62 65/65/65 64/64/64
f 66/66/66 65/65/65 62/62/62
f 65/65/65 67/67/67 64/64/64
f 68/68/68 65/65/65 66/66/66
f 69/69/69 68/68/68 66/66/66
f 70/70/70 68/68/68 69/69/69
f 71/71/71 68/68/68 70/70/70
f 68/68/68 71/71/71 72/72/72
f 72/72/72 73/73/73 68/68/68
f 73/73/73 65/65/65 68/68/68
f 74/74/74 73/73/73 72/72/72
f 75/75/75 73/73/73 74/74/74
f 76/76/76 75/75/75 74/74/74
f 77/77/77 75/75/75 76/76/76
f 78/78/78 75/75/75 77/77/77
f 75/75/75 78/78/78 79/79/79
f 79/79/79 80/80/80 75/75/75
f 80/80/80 73/73/73 75/75/75
f 80/80/80 81/81/81 73/73/73
f 73/73/73 81/81/81 65/65/65
f 81/81/81 80/80/80 82/82/82
f 81/81/81 83/83/83 65/65/65
f 65/65/65 83/83/83 67/67/67
f 67/67/67 83/83/83 84/84/84
f 83/83/83 81/81/81 84/84/84
f 85/85/85 67/67/67 84/84/84
f 86/86/86 81/81/81 82/82/82
f 81/81/81 86/86/86 84/84/84
f 86/86/86 82/82/82 87/87/87
f 85/85/85 84/84/84 88/88/88
f 84/84/84 86/86/86 88/88/88
f 89/89/89 85/85/85 88/88/88
f 90/90/90 86/86/86 87/87/87
f 86/86/86 90/90/90 88/88/88
f 90/90/90 87/87/87 91/91/91
f 92/92/92 90/90/90 91/91/91
f 89/89/89 88/88/88 93/93/93
f 94/94/94 89/89/89 93/93/93
f 95/95/95 93/93/93 88/88/88
f 88/88/88 90/90/90 95/95/95
f 95/95/95 90/90/90 92/92/92
f 92/92/92 96/96/96 95/95/95
f 92/92/92 97/97/97 96/96/96
f 96/96/96 97/97/97 98/98/98
f 92/92/92 99/99/99 97/97/97
f 102/102/102 101/101/101 100/100/100
f 103/103/103 102/102/102 100/100/100
f 106/106/106 105/105/105 104/104/104
f 107/107/107 106/106/106 104/104/104
f 110/110/110 109/109/109 108/108/108
f 111/111/111 110/110/110 108/108/108
f 114/114/114 113/113/113 112/112/112
f 115/115/115 114/114/114 112/112/112
f 118/118/118 117/117/117 116/116/116
f 119/119/119 118/118/118 116/116/116
f 122/122/122 121/121/121 120/120/120
f 123/123/123 122/122/122 120/120/120
f 126/126/126 125/125/125 124/124/124
f 127/127/127 126/126/126 124/124/124
f 130/130/130 129/129/129 128/128/128
f 131/131/131 130/130/130 128/128/128
f 134/134/134 133/133/133 132/132/132
f 135/135/135 134/134/134 132/132/132
f 138/138/138 137/137/137 136/136/136
f 139/139/139 138/138/138 136/136/136
f 142/142/142 141/141/141 140/140/140
f 143/143/143 142/142/142 140/140/140
f 146/146/146 145/145/145 144/144/144
f 147/147/147 146/146/146 144/144/144
