g Cube.039
v 0.5916511 -0.488255 -0.2022616
v 0.6513035 -0.4163218 -0.2022616
v 0.5916511 -0.4163218 -0.2781099
v -0.5916513 -0.488255 -0.2022615
v -0.5916513 -0.4163218 -0.2781098
v -0.6513035 -0.4163218 -0.2022615
v 0.5916512 -0.488255 0.283832
v 0.5916512 -0.4163218 0.3596803
v 0.6513035 -0.4163218 0.283832
v -0.5916513 -0.488255 0.2838321
v -0.6513035 -0.4163218 0.2838321
v -0.5916513 -0.4163218 0.3596804
v -0.5916513 0.4882545 0.2838321
v -0.5916513 0.4163212 0.3596804
v -0.6513035 0.4163212 0.2838321
v 0.5916512 0.4882545 0.283832
v 0.6513035 0.4163212 0.283832
v 0.5916512 0.4163212 0.3596803
v 0.5916511 0.4163212 -0.2781099
v 0.6513035 0.4163212 -0.2022616
v 0.5916511 0.4882545 -0.2022616
v -0.5916513 0.4882545 -0.2022615
v -0.6513035 0.4163212 -0.2022615
v -0.5916513 0.4163212 -0.2781098
v 0.5916512 -0.488255 -0.1223558
v 0.6513035 -0.4163218 -0.1223558
v 0.6513035 -0.4163218 -0.2022616
v 0.5916511 -0.488255 -0.2022616
v 0.5916511 -0.488255 -0.2022616
v 0.5916511 -0.4163218 -0.2781099
v -0.5916513 -0.4163218 -0.2781098
v -0.5916513 -0.488255 -0.2022615
v 0.5916512 -0.488255 -0.1223558
v 0.5916511 -0.488255 -0.2022616
v -0.5916513 -0.488255 -0.2022615
v -0.5916513 -0.488255 -0.1223557
v -0.5916513 -0.488255 -0.2022615
v -0.6513035 -0.4163218 -0.2022615
v -0.6513035 -0.4163218 -0.1223557
v -0.5916513 -0.488255 -0.1223557
v 0.5916512 -0.488255 0.283832
v 0.5916512 -0.488255 -0.1223558
v -0.5916513 -0.488255 -0.1223557
v -0.5916513 -0.488255 0.2838321
v -0.5916513 -0.488255 -0.1223557
v -0.6513035 -0.4163218 -0.1223557
v -0.6513035 -0.4163218 0.2838321
v -0.5916513 -0.488255 0.2838321
v -0.6513035 -0.4163218 -0.1223557
v -0.6513035 -0.4163218 -0.2022615
v -0.6513035 0.4163212 -0.2022615
v -0.6513035 0.4163212 -0.1223557
v -0.6513035 -0.4163218 0.2838321
v -0.6513035 -0.4163218 -0.1223557
v -0.6513035 0.4163212 -0.1223557
v -0.6513035 0.4163212 0.2838321
v -0.5916513 0.4882545 0.2838321
v -0.6513035 0.4163212 0.2838321
v -0.6513035 0.4163212 -0.1223557
v -0.5916513 0.4882545 -0.1223557
v -0.5916513 0.4882545 -0.1223557
v -0.6513035 0.4163212 -0.1223557
v -0.6513035 0.4163212 -0.2022615
v -0.5916513 0.4882545 -0.2022615
v -0.5916513 0.4882545 -0.1223557
v -0.5916513 0.4882545 -0.2022615
v 0.5916511 0.4882545 -0.2022616
v 0.5916512 0.4882545 -0.1223558
v -0.5916513 0.4882545 0.2838321
v -0.5916513 0.4882545 -0.1223557
v 0.5916512 0.4882545 -0.1223558
v 0.5916512 0.4882545 0.283832
v 0.5916512 0.4882545 -0.1223558
v 0.6513035 0.4163212 -0.1223558
v 0.6513035 0.4163212 0.283832
v 0.5916512 0.4882545 0.283832
v 0.5916511 0.4882545 -0.2022616
v 0.6513035 0.4163212 -0.2022616
v 0.6513035 0.4163212 -0.1223558
v 0.5916512 0.4882545 -0.1223558
v 0.6513035 -0.4163218 -0.2022616
v 0.6513035 -0.4163218 -0.1223558
v 0.6513035 0.4163212 -0.1223558
v 0.6513035 0.4163212 -0.2022616
v 0.6513035 -0.4163218 -0.1223558
v 0.6513035 -0.4163218 0.283832
v 0.6513035 0.4163212 0.283832
v 0.6513035 0.4163212 -0.1223558
v 0.5916512 -0.488255 0.283832
v 0.6513035 -0.4163218 0.283832
v 0.6513035 -0.4163218 -0.1223558
v 0.5916512 -0.488255 -0.1223558
v 0.5916512 0.4163212 0.3596803
v 0.6513035 0.4163212 0.283832
v 0.6513035 -0.4163218 0.283832
v 0.5916512 -0.4163218 0.3596803
v -0.5916513 -0.488255 0.2838321
v -0.5916513 -0.4163218 0.3596804
v 0.5916512 -0.4163218 0.3596803
v 0.5916512 -0.488255 0.283832
v 0.5916512 -0.4163218 0.3596803
v -0.5916513 -0.4163218 0.3596804
v -0.5916513 0.4163212 0.3596804
v 0.5916512 0.4163212 0.3596803
v -0.6513035 0.4163212 0.2838321
v -0.5916513 0.4163212 0.3596804
v -0.5916513 -0.4163218 0.3596804
v -0.6513035 -0.4163218 0.2838321
v 0.5916512 0.4882545 0.283832
v 0.5916512 0.4163212 0.3596803
v -0.5916513 0.4163212 0.3596804
v -0.5916513 0.4882545 0.2838321
v 0.5916511 -0.4163218 -0.2781099
v 0.6513035 -0.4163218 -0.2022616
v 0.6513035 0.4163212 -0.2022616
v 0.5916511 0.4163212 -0.2781099
v -0.5916513 0.4882545 -0.2022615
v -0.5916513 0.4163212 -0.2781098
v 0.5916511 0.4163212 -0.2781099
v 0.5916511 0.4882545 -0.2022616
v -0.5916513 -0.4163218 -0.2781098
v 0.5916511 -0.4163218 -0.2781099
v 0.5916511 0.4163212 -0.2781099
v -0.5916513 0.4163212 -0.2781098
v -0.5916513 0.4163212 -0.2781098
v -0.6513035 0.4163212 -0.2022615
v -0.6513035 -0.4163218 -0.2022615
v -0.5916513 -0.4163218 -0.2781098
vt 0.6113693 0.456665
vt 0.6113693 0.4567995
vt 0.5993402 0.4631985
vt 0.6089769 0.4574079
vt 0.5967577 0.4639414
vt 0.6089769 0.4575424
vt 0.626167 0.4291806
vt 0.5894638 0.4293741
vt 0.626167 0.4295676
vt 0.6227922 0.4313177
vt 0.6227922 0.4317047
vt 0.5866362 0.4315113
vt 0.6204911 0.4317047
vt 0.5843352 0.4315113
vt 0.6204911 0.4313177
vt 0.6234528 0.4333451
vt 0.6230658 0.4333451
vt 0.5868297 0.4336188
vt 0.5976247 0.4638741
vt 0.6096817 0.457503
vt 0.6098162 0.457503
vt 0.6156371 0.4503071
vt 0.6156371 0.4499201
vt 0.580484 0.468716
vt 0.6247869 0.3749024
vt 0.6247869 0.3752894
vt 0.6248204 0.3737605
vt 0.6248204 0.3733735
vt 0.6099121 0.4516548
vt 0.597883 0.4581211
vt 0.597883 0.4562342
vt 0.6099121 0.449768
vt 0.6247869 0.3749024
vt 0.6248204 0.3733735
vt 0.6248204 0.3695352
vt 0.6247869 0.3710641
vt 0.617938 0.3755107
vt 0.617938 0.3758976
vt 0.6184812 0.3774266
vt 0.6184812 0.3770396
vt 0.626167 0.4198794
vt 0.6263371 0.4121071
vt 0.6263371 0.4082688
vt 0.626167 0.4160411
vt 0.6200314 0.4142443
vt 0.6200314 0.4146313
vt 0.6227922 0.4224035
vt 0.6227922 0.4220166
vt 0.6184812 0.3774266
vt 0.617938 0.3758976
vt 0.617938 0.3781374
vt 0.6184812 0.3796664
vt 0.6227922 0.4224035
vt 0.6200314 0.4146313
vt 0.6200314 0.4168711
vt 0.6227922 0.4246433
vt 0.6204911 0.4224035
vt 0.6204911 0.4220166
vt 0.6177304 0.4142443
vt 0.6177304 0.4146313
vt 0.6161802 0.3774266
vt 0.6161802 0.3770396
vt 0.6156371 0.3755107
vt 0.6156371 0.3758976
vt 0.6161802 0.3774266
vt 0.6156371 0.3758976
vt 0.6156371 0.379736
vt 0.6161802 0.3812649
vt 0.6204911 0.4224035
vt 0.6177304 0.4146313
vt 0.6177304 0.4184696
vt 0.6204911 0.4262419
vt 0.6221575 0.4148062
vt 0.6217705 0.4148062
vt 0.6230658 0.4240439
vt 0.6234528 0.4240439
vt 0.6203524 0.3757843
vt 0.6199654 0.3757843
vt 0.6202203 0.3776015
vt 0.6206073 0.3776015
vt 0.6263705 0.3644593
vt 0.6263371 0.3659883
vt 0.6263371 0.368228
vt 0.6263705 0.3666991
vt 0.6278873 0.403193
vt 0.6277172 0.4109652
vt 0.6277172 0.413205
vt 0.6278873 0.4054328
vt 0.626167 0.4198794
vt 0.626167 0.4202664
vt 0.6263371 0.4124942
vt 0.6263371 0.4121071
vt 0.5854753 0.4256159
vt 0.6219049 0.4253423
vt 0.6187375 0.4253423
vt 0.5823079 0.4256159
vt 0.6184638 0.4310441
vt 0.5823079 0.4310441
vt 0.5823079 0.4256159
vt 0.6184638 0.4256159
vt 0.5823079 0.4256159
vt 0.5823079 0.4310441
vt 0.5854753 0.4310441
vt 0.5854753 0.4256159
vt 0.6219049 0.4313177
vt 0.5854753 0.4310441
vt 0.5823079 0.4310441
vt 0.6187375 0.4313177
vt 0.6221786 0.4256159
vt 0.5854753 0.4256159
vt 0.5854753 0.4310441
vt 0.6221786 0.4310441
vt 0.5976136 0.4605459
vt 0.6097378 0.4541748
vt 0.6108388 0.4541748
vt 0.5987146 0.4605459
vt 0.6101257 0.451654
vt 0.5979064 0.4581202
vt 0.5979064 0.460007
vt 0.6101257 0.4535408
vt 0.6015246 0.4349171
vt 0.6015246 0.4403453
vt 0.604692 0.4403453
vt 0.604692 0.4349171
vt 0.5995229 0.4581202
vt 0.6116471 0.4515588
vt 0.6105461 0.4515588
vt 0.5984219 0.4581202
vn 0.6584895 -0.5460677 -0.517882
vn 0.6584895 -0.5460677 -0.517882
vn 0.6584895 -0.5460677 -0.517882
vn -0.6584897 -0.5460681 -0.5178813
vn -0.6584897 -0.5460681 -0.5178813
vn -0.6584897 -0.5460681 -0.5178813
vn 0.6584896 -0.5460675 0.517882
vn 0.6584896 -0.5460675 0.517882
vn 0.6584896 -0.5460675 0.517882
vn -0.6584901 -0.5460677 0.5178809
vn -0.6584901 -0.5460677 0.5178809
vn -0.6584901 -0.5460677 0.5178809
vn -0.6584897 0.5460681 0.5178813
vn -0.6584897 0.5460681 0.5178813
vn -0.6584897 0.5460681 0.5178813
vn 0.6584901 0.5460671 0.5178817
vn 0.6584901 0.5460671 0.5178817
vn 0.6584901 0.5460671 0.5178817
vn 0.6584895 0.5460677 -0.517882
vn 0.6584895 0.5460677 -0.517882
vn 0.6584895 0.5460677 -0.517882
vn -0.6584897 0.5460681 -0.5178813
vn -0.6584897 0.5460681 -0.5178813
vn -0.6584897 0.5460681 -0.5178813
vn 0.7697565 -0.6383376 -2.494452E-07
vn 0.7697564 -0.6383376 -2.494452E-07
vn 0.7697564 -0.6383377 -4.988904E-07
vn 0.7697564 -0.6383377 -4.988904E-07
vn 0 -0.7255848 -0.6881327
vn 0 -0.7255848 -0.6881327
vn 0 -0.7255848 -0.6881327
vn 0 -0.7255848 -0.6881327
vn 0 -1 0
vn 0 -1 0
vn 0 -1 0
vn 0 -1 0
vn -0.7697563 -0.6383378 0
vn -0.7697563 -0.6383378 0
vn -0.7697563 -0.6383379 0
vn -0.7697563 -0.6383379 0
vn 0 -1 0
vn 0 -1 0
vn 0 -1 0
vn 0 -1 0
vn -0.7697563 -0.6383379 0
vn -0.7697563 -0.6383379 0
vn -0.7697562 -0.638338 0
vn -0.7697562 -0.638338 0
vn -1 0 0
vn -1 0 0
vn -1 0 0
vn -1 0 0
vn -1 0 0
vn -1 0 0
vn -1 0 0
vn -1 0 0
vn -0.7697562 0.638338 0
vn -0.7697562 0.638338 0
vn -0.7697562 0.638338 0
vn -0.7697562 0.638338 0
vn -0.7697562 0.638338 0
vn -0.7697562 0.638338 0
vn -0.7697562 0.6383381 0
vn -0.7697562 0.6383381 0
vn 0 1 0
vn 0 1 0
vn 0 1 0
vn 0 1 0
vn 0 1 0
vn 0 1 0
vn 0 1 0
vn 0 1 0
vn 0.7697564 0.6383377 -2.494453E-07
vn 0.7697563 0.6383378 -2.494452E-07
vn 0.7697565 0.6383376 0
vn 0.7697565 0.6383376 0
vn 0.7697563 0.638338 -4.988906E-07
vn 0.7697563 0.638338 -4.988906E-07
vn 0.7697563 0.6383378 -2.494452E-07
vn 0.7697564 0.6383377 -2.494453E-07
vn 1 0 0
vn 1 0 0
vn 1 0 0
vn 1 0 0
vn 1 0 0
vn 1 0 0
vn 1 0 0
vn 1 0 0
vn 0.7697565 -0.6383376 0
vn 0.7697565 -0.6383376 0
vn 0.7697564 -0.6383376 -2.494452E-07
vn 0.7697565 -0.6383376 -2.494452E-07
vn 0.7860303 0 0.6181879
vn 0.7860303 0 0.6181879
vn 0.7860303 0 0.6181879
vn 0.7860303 0 0.6181879
vn 1.107601E-07 -0.7255852 0.6881325
vn 1.107601E-07 -0.7255852 0.6881325
vn 1.107601E-07 -0.7255852 0.6881325
vn 1.107601E-07 -0.7255852 0.6881325
vn 1.007429E-07 0 1
vn 1.007429E-07 0 1
vn 1.007429E-07 0 1
vn 1.007429E-07 0 1
vn -0.7860301 0 0.6181881
vn -0.7860301 0 0.6181881
vn -0.7860301 0 0.6181881
vn -0.7860301 0 0.6181881
vn 0 0.7255852 0.6881325
vn 0 0.7255852 0.6881325
vn 0 0.7255852 0.6881325
vn 0 0.7255852 0.6881325
vn 0.7860299 0 -0.6181885
vn 0.7860299 0 -0.6181885
vn 0.7860299 0 -0.6181885
vn 0.7860299 0 -0.6181885
vn 0 0.7255848 -0.6881327
vn 0 0.7255848 -0.6881327
vn 0 0.7255848 -0.6881327
vn 0 0.7255848 -0.6881327
vn -1.007429E-07 0 -1
vn -1.007429E-07 0 -1
vn -1.007429E-07 0 -1
vn -1.007429E-07 0 -1
vn -0.7860301 0 -0.6181881
vn -0.7860301 0 -0.6181881
vn -0.7860301 0 -0.6181881
vn -0.7860301 0 -0.6181881
g Cube.039_0
f 3/3/3 2/2/2 1/1/1
f 6/6/6 5/5/5 4/4/4
f 9/9/9 8/8/8 7/7/7
f 12/12/12 11/11/11 10/10/10
f 15/15/15 14/14/14 13/13/13
f 18/18/18 17/17/17 16/16/16
f 21/21/21 20/20/20 19/19/19
f 24/24/24 23/23/23 22/22/22
f 27/27/27 26/26/26 25/25/25
f 28/28/28 27/27/27 25/25/25
f 31/31/31 30/30/30 29/29/29
f 32/32/32 31/31/31 29/29/29
f 35/35/35 34/34/34 33/33/33
f 36/36/36 35/35/35 33/33/33
f 39/39/39 38/38/38 37/37/37
f 40/40/40 39/39/39 37/37/37
f 43/43/43 42/42/42 41/41/41
f 44/44/44 43/43/43 41/41/41
f 47/47/47 46/46/46 45/45/45
f 48/48/48 47/47/47 45/45/45
f 51/51/51 50/50/50 49/49/49
f 52/52/52 51/51/51 49/49/49
f 55/55/55 54/54/54 53/53/53
f 56/56/56 55/55/55 53/53/53
f 59/59/59 58/58/58 57/57/57
f 60/60/60 59/59/59 57/57/57
f 63/63/63 62/62/62 61/61/61
f 64/64/64 63/63/63 61/61/61
f 67/67/67 66/66/66 65/65/65
f 68/68/68 67/67/67 65/65/65
f 71/71/71 70/70/70 69/69/69
f 72/72/72 71/71/71 69/69/69
f 75/75/75 74/74/74 73/73/73
f 76/76/76 75/75/75 73/73/73
f 79/79/79 78/78/78 77/77/77
f 80/80/80 79/79/79 77/77/77
f 83/83/83 82/82/82 81/81/81
f 84/84/84 83/83/83 81/81/81
f 87/87/87 86/86/86 85/85/85
f 88/88/88 87/87/87 85/85/85
f 91/91/91 90/90/90 89/89/89
f 92/92/92 91/91/91 89/89/89
f 95/95/95 94/94/94 93/93/93
f 96/96/96 95/95/95 93/93/93
f 99/99/99 98/98/98 97/97/97
f 100/100/100 99/99/99 97/97/97
f 103/103/103 102/102/102 101/101/101
f 104/104/104 103/103/103 101/101/101
f 107/107/107 106/106/106 105/105/105
f 108/108/108 107/107/107 105/105/105
f 111/111/111 110/110/110 109/109/109
f 112/112/112 111/111/111 109/109/109
f 115/115/115 114/114/114 113/113/113
f 116/116/116 115/115/115 113/113/113
f 119/119/119 118/118/118 117/117/117
f 120/120/120 119/119/119 117/117/117
f 123/123/123 122/122/122 121/121/121
f 124/124/124 123/123/123 121/121/121
f 127/127/127 126/126/126 125/125/125
f 128/128/128 127/127/127 125/125/125
