g Cube.009
v -0.3900846 -0.02656949 0.07380627
v -0.415417 0.09235441 0.07380629
v -0.3794771 0.1285292 0.0738063
v -0.3794771 0.1285292 -0.07380626
v -0.415417 0.09235441 -0.07380626
v -0.3900846 -0.02656949 -0.07380627
v -0.4176911 0.1919298 0.07380631
v -0.3827887 0.1620215 0.0738063
v -0.4062431 0.1748717 0.07380631
v -0.4062431 0.1748717 -0.07380626
v -0.3827887 0.1620215 -0.07380626
v -0.4176911 0.1919298 -0.07380626
v 0.6320913 0.1405378 0.0738063
v 0.1607983 0.179452 0.07380631
v 0.1607983 0.179452 -0.07380627
v 0.6320913 0.1405378 -0.07380627
v 0.9152861 0.1238375 0.07380629
v 0.9152861 0.1238375 -0.07380627
v -0.3933429 -0.2061287 -0.07380632
v -0.3911996 -0.2135786 -0.07380632
v -0.3793526 -0.219516 -0.07380632
v -0.3722091 -0.1552734 -0.0738063
v -0.3609763 -0.2223496 -0.07380632
v -0.1001276 -0.1391749 -0.07380632
v -0.1318502 -0.1347513 -0.07380632
v 0.1384553 -0.2458472 -0.07380633
v -0.2357771 -0.1129982 -0.0738063
v -0.2366064 -0.1138121 -0.0738063
v -0.3406544 0.1415864 -0.07380626
v -0.3900846 -0.02656949 -0.07380627
v -0.3794771 0.1285292 -0.07380626
v 0.1426545 -0.165915 -0.07380633
v 0.2902324 -0.1769404 -0.07380633
v 0.2925714 -0.2561539 -0.07380633
v 0.1565991 0.09951984 -0.07380627
v 0.1426545 -0.165915 -0.07380633
v 0.2902901 -0.136322 -0.07380632
v 0.2956027 -0.0858531 -0.07380632
v 0.4204471 -0.0858531 -0.07380632
v 0.4496658 -0.02475905 -0.0738063
v 0.4762286 0.03102255 -0.0738063
v 0.6275955 0.06430161 -0.0738063
v 0.622371 -0.02429187 -0.0738063
v 0.6701356 0.01242864 -0.0738063
v 0.7179484 0.02305365 -0.0738063
v 0.8206403 0.05291581 -0.0738063
v 0.9152861 0.1238375 -0.07380627
v 0.6320913 0.1405378 -0.07380627
v 0.1607983 0.179452 -0.07380627
v -0.4087052 0.2568983 -0.07380624
v -0.3827887 0.1620215 -0.07380626
v -0.4198729 0.2071252 -0.07380624
v -0.4176911 0.1919298 -0.07380626
v -0.3631513 0.1451938 -0.07380626
v -0.3885963 0.1605217 -0.07380626
v -0.4062431 0.1748717 -0.07380626
v -0.3883239 0.1317977 -0.07380626
v -0.4036233 0.1203032 -0.07380626
v -0.4135401 0.105866 -0.07380626
v -0.415417 0.09235441 -0.07380626
v 0.1607983 0.179452 0.07380631
v -0.4087052 0.2568983 0.07380632
v -0.4087052 0.2568983 -0.07380624
v 0.1607983 0.179452 -0.07380627
v -0.3793526 -0.219516 0.07380624
v -0.3911996 -0.2135786 0.07380624
v -0.3933429 -0.2061287 0.07380624
v -0.3722091 -0.1552734 0.07380625
v -0.3609763 -0.2223496 0.07380624
v -0.1001276 -0.1391749 0.07380625
v 0.1384553 -0.2458473 0.07380624
v -0.1318502 -0.1347513 0.07380625
v 0.1426545 -0.165915 0.07380625
v 0.2925714 -0.2561541 0.07380623
v -0.3406544 0.1415864 0.0738063
v -0.2357771 -0.1129982 0.07380626
v -0.2366064 -0.1138121 0.07380626
v -0.3900846 -0.02656949 0.07380627
v 0.2902323 -0.1769404 0.07380625
v -0.3794771 0.1285292 0.0738063
v 0.1565991 0.09951984 0.07380629
v 0.2902901 -0.136322 0.07380625
v 0.2956027 -0.0858531 0.07380626
v 0.4204471 -0.0858531 0.07380626
v 0.4496658 -0.02475905 0.07380627
v 0.4762286 0.03102255 0.07380627
v 0.6275955 0.06430161 0.07380629
v 0.622371 -0.02429199 0.07380627
v 0.6701356 0.01242864 0.07380627
v 0.7179485 0.02305365 0.07380627
v 0.8206404 0.05291581 0.07380629
v 0.6320913 0.1405378 0.0738063
v 0.9152861 0.1238375 0.07380629
v 0.1607983 0.179452 0.07380631
v -0.4087052 0.2568983 0.07380632
v -0.3827887 0.1620215 0.0738063
v -0.4198729 0.2071252 0.07380631
v -0.4176911 0.1919298 0.07380631
v -0.3631513 0.1451938 0.0738063
v -0.3885963 0.1605217 0.0738063
v -0.4062431 0.1748717 0.07380631
v -0.3883239 0.1317978 0.0738063
v -0.4036233 0.1203032 0.0738063
v -0.4135401 0.105866 0.0738063
v -0.415417 0.09235441 0.07380629
v -0.3885963 0.1605217 0.0738063
v -0.3631513 0.1451938 0.0738063
v -0.3631513 0.1451938 -0.07380626
v -0.3885963 0.1605217 -0.07380626
v -0.415417 0.09235441 0.07380629
v -0.3900846 -0.02656949 0.07380627
v -0.3900846 -0.02656949 -0.07380627
v -0.415417 0.09235441 -0.07380626
v -0.4198729 0.2071252 0.07380631
v -0.4198729 0.2071252 -0.07380624
v -0.4087052 0.2568983 -0.07380624
v -0.4087052 0.2568983 0.07380632
v 0.1384553 -0.2458472 -0.07380633
v -0.3609763 -0.2223496 -0.07380632
v -0.3609763 -0.2223496 0.07380624
v 0.1384553 -0.2458473 0.07380624
v 0.2925714 -0.2561539 -0.07380633
v 0.2925714 -0.2561541 0.07380623
v -0.1318502 -0.1347513 -0.07380632
v -0.2366064 -0.1138121 -0.0738063
v -0.2366064 -0.1138121 0.07380626
v -0.1318502 -0.1347513 0.07380625
v -0.3722091 -0.1552734 -0.0738063
v -0.1318502 -0.1347513 -0.07380632
v -0.1318502 -0.1347513 0.07380625
v -0.3722091 -0.1552734 0.07380625
v -0.3900846 -0.02656949 0.07380627
v -0.2366064 -0.1138121 0.07380626
v -0.2366064 -0.1138121 -0.0738063
v -0.3900846 -0.02656949 -0.07380627
v -0.4198729 0.2071252 0.07380631
v -0.4176911 0.1919298 0.07380631
v -0.4176911 0.1919298 -0.07380626
v -0.4198729 0.2071252 -0.07380624
v -0.4176911 0.1919298 0.07380631
v -0.4062431 0.1748717 0.07380631
v -0.4062431 0.1748717 -0.07380626
v -0.4176911 0.1919298 -0.07380626
v -0.4062431 0.1748717 0.07380631
v -0.3885963 0.1605217 0.0738063
v -0.3885963 0.1605217 -0.07380626
v -0.4062431 0.1748717 -0.07380626
v -0.415417 0.09235441 -0.07380626
v -0.4135401 0.105866 -0.07380626
v -0.4135401 0.105866 0.0738063
v -0.415417 0.09235441 0.07380629
v -0.4135401 0.105866 -0.07380626
v -0.4036233 0.1203032 -0.07380626
v -0.4036233 0.1203032 0.0738063
v -0.4135401 0.105866 0.0738063
v -0.4036233 0.1203032 -0.07380626
v -0.3883239 0.1317977 -0.07380626
v -0.3883239 0.1317978 0.0738063
v -0.4036233 0.1203032 0.0738063
v -0.3631513 0.1451938 0.0738063
v -0.3883239 0.1317978 0.0738063
v -0.3883239 0.1317977 -0.07380626
v -0.3631513 0.1451938 -0.07380626
v -0.3609763 -0.2223496 -0.07380632
v -0.3793526 -0.219516 -0.07380632
v -0.3793526 -0.219516 0.07380624
v -0.3609763 -0.2223496 0.07380624
v -0.3793526 -0.219516 -0.07380632
v -0.3911996 -0.2135786 -0.07380632
v -0.3911996 -0.2135786 0.07380624
v -0.3793526 -0.219516 0.07380624
v -0.3911996 -0.2135786 -0.07380632
v -0.3933429 -0.2061287 -0.07380632
v -0.3933429 -0.2061287 0.07380624
v -0.3911996 -0.2135786 0.07380624
v -0.3933429 -0.2061287 0.07380624
v -0.3933429 -0.2061287 -0.07380632
v -0.3722091 -0.1552734 -0.0738063
v -0.3722091 -0.1552734 0.07380625
v 0.8206403 0.05291581 -0.0738063
v 0.9152861 0.1238375 0.07380629
v 0.9152861 0.1238375 -0.07380627
v 0.8206404 0.05291581 0.07380629
v 0.7179484 0.02305365 -0.0738063
v 0.7179485 0.02305365 0.07380627
v 0.6701356 0.01242864 -0.0738063
v 0.6701356 0.01242864 0.07380627
v 0.622371 -0.02429187 -0.0738063
v 0.622371 -0.02429199 0.07380627
v 0.4762286 0.03102255 -0.0738063
v 0.4762286 0.03102255 0.07380627
v 0.622371 -0.02429199 0.07380627
v 0.622371 -0.02429187 -0.0738063
v 0.4496658 -0.02475905 -0.0738063
v 0.4762286 0.03102255 0.07380627
v 0.4762286 0.03102255 -0.0738063
v 0.4496658 -0.02475905 0.07380627
v 0.4204471 -0.0858531 -0.07380632
v 0.4204471 -0.0858531 0.07380626
v 0.2956027 -0.0858531 -0.07380632
v 0.2956027 -0.0858531 0.07380626
v 0.4204471 -0.0858531 0.07380626
v 0.4204471 -0.0858531 -0.07380632
v 0.2902901 -0.136322 -0.07380632
v 0.2956027 -0.0858531 0.07380626
v 0.2956027 -0.0858531 -0.07380632
v 0.2902901 -0.136322 0.07380625
v 0.2902324 -0.1769404 -0.07380633
v 0.2902323 -0.1769404 0.07380625
v 0.2925714 -0.2561539 -0.07380633
v 0.2925714 -0.2561541 0.07380623
vt 0.2849178 0.03696889
vt 0.3264287 0.03497639
vt 0.3601089 0.02503246
vt 0.360109 0.02503246
vt 0.3264287 0.03497639
vt 0.2849178 0.03696889
vt 0.3630325 0.01982817
vt 0.3799342 0.02301162
vt 0.3869247 0.01616123
vt 0.3869247 0.01616123
vt 0.3799342 0.02301162
vt 0.3630325 0.01982817
vt 0.3358533 0.4749249
vt 0.3359087 0.4741721
vt 0.3359087 0.4741721
vt 0.3358533 0.4749249
vt 0.3358419 0.475376
vt 0.3358419 0.475376
vt 0.1665971 0.05124289
vt 0.1622261 0.05207774
vt 0.1590244 0.05551943
vt 0.1974268 0.05533805
vt 0.1578494 0.06064597
vt 0.2211805 0.1012655
vt 0.2229301 0.09243131
vt 0.1577444 0.1981947
vt 0.2329808 0.06324756
vt 0.2324738 0.06304768
vt 0.3689519 0.03522989
vt 0.2849178 0.03696889
vt 0.360109 0.02503246
vt 0.2053956 0.1966847
vt 0.2029368 0.2374651
vt 0.1558948 0.2407416
vt 0.3465744 0.191382
vt 0.2053954 0.1966847
vt 0.2244931 0.2360852
vt 0.2513974 0.2358055
vt 0.2542669 0.2699834
vt 0.287359 0.2758833
vt 0.3175708 0.2812385
vt 0.3387096 0.3215338
vt 0.2915763 0.3231477
vt 0.3122062 0.334963
vt 0.3189908 0.347688
vt 0.3372993 0.374777
vt 0.3821036 0.3983353
vt 0.3841712 0.3202281
vt 0.3942257 0.1898721
vt 0.4019182 0.02012697
vt 0.3799342 0.02301162
vt 0.3720087 0.01872507
vt 0.3630325 0.01982817
vt 0.3704724 0.02894911
vt 0.3788811 0.02147099
vt 0.3869247 0.01616123
vt 0.3618072 0.02250126
vt 0.3545466 0.01869416
vt 0.3456852 0.0164589
vt 0.3264287 0.03497639
vt 0.3359087 0.4741721
vt 0.3338918 0.4721224
vt 0.3338918 0.4721224
vt 0.3359087 0.4741721
vt 0.1590244 0.05551943
vt 0.1622261 0.05207774
vt 0.1665971 0.05124289
vt 0.1974268 0.05533805
vt 0.1578494 0.06064597
vt 0.2211805 0.1012655
vt 0.1577444 0.1981947
vt 0.2229301 0.09243131
vt 0.2053954 0.1966847
vt 0.1558948 0.2407416
vt 0.3689519 0.03522989
vt 0.2329808 0.06324756
vt 0.2324738 0.06304768
vt 0.2849178 0.03696889
vt 0.2029368 0.237465
vt 0.3601089 0.02503246
vt 0.3465744 0.191382
vt 0.2244931 0.2360852
vt 0.2513974 0.2358055
vt 0.2542669 0.2699834
vt 0.287359 0.2758832
vt 0.3175708 0.2812385
vt 0.3387096 0.3215338
vt 0.2915762 0.3231477
vt 0.3122061 0.3349629
vt 0.3189907 0.3476881
vt 0.3372992 0.374777
vt 0.3841712 0.3202281
vt 0.3821036 0.3983354
vt 0.3942257 0.1898721
vt 0.4019182 0.02012697
vt 0.3799342 0.02301162
vt 0.3720087 0.01872507
vt 0.3630325 0.01982817
vt 0.3704724 0.02894911
vt 0.3788811 0.02147099
vt 0.3869247 0.01616123
vt 0.3618072 0.02250126
vt 0.3545465 0.01869416
vt 0.3456852 0.0164589
vt 0.3264287 0.03497639
vt 0.3368442 0.471427
vt 0.3367976 0.4714703
vt 0.3367976 0.4714703
vt 0.3368442 0.471427
vt 0.3355339 0.4732777
vt 0.337908 0.47244
vt 0.337908 0.47244
vt 0.3355339 0.4732777
vt 0.3337265 0.4721143
vt 0.3337265 0.4721143
vt 0.3338918 0.4721224
vt 0.3338918 0.4721224
vt 0.3361594 0.4742479
vt 0.3361599 0.4734536
vt 0.3361599 0.4734536
vt 0.3361594 0.4742479
vt 0.3361491 0.4744936
vt 0.3361491 0.4744936
vt 0.3371252 0.4709617
vt 0.3371775 0.470792
vt 0.3371775 0.470792
vt 0.3371252 0.4709617
vt 0.3363788 0.4734229
vt 0.3371252 0.4709617
vt 0.3371252 0.4709617
vt 0.3363788 0.4734229
vt 0.337908 0.47244
vt 0.3371775 0.470792
vt 0.3371775 0.470792
vt 0.337908 0.47244
vt 0.3337265 0.4721143
vt 0.333677 0.4721206
vt 0.333677 0.4721206
vt 0.3337265 0.4721143
vt 0.333677 0.4721206
vt 0.3368884 0.4713964
vt 0.3368884 0.4713964
vt 0.333677 0.4721206
vt 0.3368884 0.4713964
vt 0.3368442 0.471427
vt 0.3368442 0.471427
vt 0.3368884 0.4713964
vt 0.3355339 0.4732777
vt 0.3366607 0.4713981
vt 0.3366607 0.4713981
vt 0.3355339 0.4732777
vt 0.3366607 0.4713981
vt 0.3367093 0.471411
vt 0.3367093 0.471411
vt 0.3366607 0.4713981
vt 0.3367093 0.471411
vt 0.3367497 0.471433
vt 0.3367497 0.471433
vt 0.3367093 0.471411
vt 0.3367976 0.4714703
vt 0.3367497 0.471433
vt 0.3367497 0.471433
vt 0.3367976 0.4714703
vt 0.3361599 0.4734536
vt 0.3361664 0.473424
vt 0.3361664 0.473424
vt 0.3361599 0.4734536
vt 0.3361664 0.473424
vt 0.3361842 0.4734041
vt 0.3361842 0.4734041
vt 0.3361664 0.473424
vt 0.3361842 0.4734041
vt 0.3362082 0.4733993
vt 0.3362082 0.4733993
vt 0.3361842 0.4734041
vt 0.3362082 0.4733993
vt 0.3362082 0.4733993
vt 0.3363788 0.4734229
vt 0.3363788 0.4734229
vt 0 0
vt 0 0
vt 0 0
vt 0 0
vt 0 0
vt 0 0
vt 0 0
vt 0 0
vt 0 0
vt 0 0
vt 0 0
vt 0 0
vt 0 0
vt 0 0
vt 0 0
vt 0 0
vt 0 0
vt 0 0
vt 0 0
vt 0 0
vt 0 0
vt 0 0
vt 0 0
vt 0 0
vt 0 0
vt 0 0
vt 0 0
vt 0 0
vt 0 0
vt 0 0
vt 0 0
vt 0 0
vn 0 -1.73837E-07 1
vn 1.887246E-07 -3.856694E-07 1
vn 0 -3.946826E-07 1
vn 0 0 -1
vn 0 1.286389E-07 -1
vn 0 1.667244E-07 -1
vn 2.694993E-07 0 1
vn 0 0 1
vn 4.768191E-07 8.616228E-07 1
vn 0 0 -1
vn 0 0 -1
vn 8.617131E-07 9.0037E-07 -1
vn 0.08228897 0.9966085 0
vn 0.08228897 0.9966085 0
vn 0.08228897 0.9966085 0
vn 0.08228897 0.9966085 0
vn 0.0588691 0.9982658 0
vn 0.0588691 0.9982658 0
vn 0 1.271582E-07 -1
vn 0 1.271582E-07 -1
vn 0 1.271582E-07 -1
vn 0 1.082606E-07 -1
vn 0 1.271582E-07 -1
vn 0 0 -1
vn 0 -6.604225E-07 -1
vn 0 0 -1
vn 0 0 -1
vn 0 0 -1
vn 0 1.120831E-07 -1
vn 0 1.667244E-07 -1
vn 0 0 -1
vn 0 1.023036E-07 -1
vn 0 0 -1
vn 0 0 -1
vn 0 1.509243E-07 -1
vn 0 1.023036E-07 -1
vn 0 1.47693E-07 -1
vn 0 1.47693E-07 -1
vn 0 1.47693E-07 -1
vn 0 1.47693E-07 -1
vn 0 1.47693E-07 -1
vn 0 1.972877E-07 -1
vn 0 0 -1
vn 0 0 -1
vn 0 0 -1
vn 0 3.363027E-07 -1
vn 0 3.834342E-07 -1
vn 0 3.208248E-07 -1
vn 0 1.380604E-07 -1
vn 0 0 -1
vn 0 0 -1
vn 1.585391E-07 2.168631E-07 -1
vn 8.617131E-07 9.0037E-07 -1
vn 0 1.741992E-07 -1
vn 0 0 -1
vn 0 0 -1
vn 0 -4.472378E-07 -1
vn 0 -8.602125E-07 -1
vn 0 -1.243369E-07 -1
vn 0 1.286389E-07 -1
vn 0.1347488 0.9908798 0
vn 0.1347488 0.9908798 0
vn 0.1347488 0.9908798 0
vn 0.1347488 0.9908798 0
vn 0 0 1
vn 0 0 1
vn 0 0 1
vn 0 0 1
vn 0 0 1
vn 0 -1.321977E-07 1
vn 0 0 1
vn 0 -1.437048E-06 1
vn 0 -1.312441E-07 1
vn 0 0 1
vn 0 -2.492818E-07 1
vn 0 -1.572056E-06 1
vn 0 -2.656267E-06 1
vn 0 -1.73837E-07 1
vn 0 -1.467882E-07 1
vn 0 -3.946826E-07 1
vn 0 -2.012113E-07 1
vn 0 -2.215395E-07 1
vn 0 -2.215395E-07 1
vn 0 -2.215395E-07 1
vn 0 -2.215395E-07 1
vn 0 -2.215395E-07 1
vn 0 -1.31871E-07 1
vn 0 -1.862242E-07 1
vn 0 -1.33946E-07 1
vn 0 -1.33946E-07 1
vn 0 0 1
vn 0 0 1
vn 0 0 1
vn 0 -2.118462E-07 1
vn 0 -2.720063E-07 1
vn 0 0 1
vn 0 -2.185968E-07 1
vn 2.694993E-07 0 1
vn 0 -3.483975E-07 1
vn 0 0 1
vn 4.768191E-07 8.616228E-07 1
vn 0 -2.071346E-07 1
vn 0 0 1
vn 6.931987E-07 -9.558415E-07 1
vn 1.887246E-07 -3.856694E-07 1
vn -0.5160035 -0.8565864 0
vn -0.5160035 -0.8565864 0
vn -0.5160035 -0.8565864 0
vn -0.5160035 -0.8565864 0
vn -0.9780566 -0.2083397 0
vn -0.9780566 -0.2083397 0
vn -0.9780566 -0.2083397 0
vn -0.9780566 -0.2083397 0
vn -0.9757411 0.2189281 0
vn -0.9757411 0.2189281 0
vn -0.9757411 0.2189281 0
vn -0.9757411 0.2189281 0
vn -0.04699679 -0.9988951 -4.038041E-07
vn -0.04699679 -0.9988951 -4.038041E-07
vn -0.04699679 -0.9988951 -4.038041E-07
vn -0.04699679 -0.9988951 -4.038041E-07
vn -0.06672741 -0.9977713 -8.078596E-07
vn -0.06672741 -0.9977713 -8.078596E-07
vn -0.1960082 -0.9806023 0
vn -0.1960082 -0.9806023 0
vn -0.1960082 -0.9806023 0
vn -0.1960082 -0.9806023 0
vn -0.0850716 0.9963749 0
vn -0.0850716 0.9963749 0
vn -0.0850716 0.9963749 0
vn -0.0850716 0.9963749 0
vn -0.4941765 -0.8693616 0
vn -0.4941765 -0.8693616 0
vn -0.4941765 -0.8693616 0
vn -0.4941765 -0.8693616 0
vn -0.9898489 -0.1421238 0
vn -0.9898489 -0.1421238 0
vn -0.9898489 -0.1421238 0
vn -0.9898489 -0.1421238 0
vn -0.8303403 -0.5572566 0
vn -0.8303403 -0.5572566 0
vn -0.8303403 -0.5572566 0
vn -0.8303403 -0.5572566 0
vn -0.6309084 -0.7758573 0
vn -0.6309084 -0.7758573 0
vn -0.6309084 -0.7758573 0
vn -0.6309084 -0.7758573 0
vn -0.9904888 0.1375934 0
vn -0.9904888 0.1375934 0
vn -0.9904888 0.1375934 0
vn -0.9904888 0.1375934 0
vn -0.8242762 0.5661879 0
vn -0.8242762 0.5661879 0
vn -0.8242762 0.5661879 0
vn -0.8242762 0.5661879 0
vn -0.6006688 0.7994979 -2.619598E-07
vn -0.6006688 0.7994979 -2.619598E-07
vn -0.6006688 0.7994979 -2.619598E-07
vn -0.6006688 0.7994979 -2.619598E-07
vn -0.4697878 0.8827794 -3.773484E-07
vn -0.4697878 0.8827794 -3.773484E-07
vn -0.4697878 0.8827794 -3.773484E-07
vn -0.4697878 0.8827794 -3.773484E-07
vn -0.1523983 -0.9883192 0
vn -0.1523983 -0.9883192 0
vn -0.1523983 -0.9883192 0
vn -0.1523983 -0.9883192 0
vn -0.4480547 -0.8940061 0
vn -0.4480547 -0.8940061 0
vn -0.4480547 -0.8940061 0
vn -0.4480547 -0.8940061 0
vn -0.9610204 -0.2764773 0
vn -0.9610204 -0.2764773 0
vn -0.9610204 -0.2764773 0
vn -0.9610204 -0.2764773 0
vn -0.9234371 0.38375 0
vn -0.9234371 0.38375 0
vn -0.9234371 0.38375 0
vn -0.9234371 0.38375 0
vn 0.4466642 -0.8947017 -1.684094E-07
vn 0.599661 -0.8002542 -2.133849E-07
vn 0.599661 -0.8002542 -2.133849E-07
vn 0.4466642 -0.8947017 -1.684094E-07
vn 0.2482067 -0.9687071 0
vn 0.2482067 -0.9687071 0
vn 0.4232599 -0.9060082 -2.145359E-07
vn 0.4232599 -0.9060082 -2.145359E-07
vn 0.6094868 -0.7927962 -4.18882E-07
vn 0.6094868 -0.7927962 -4.18882E-07
vn -0.3539892 -0.9352495 -4.037644E-07
vn -0.3539892 -0.9352495 -4.037644E-07
vn -0.3539892 -0.9352495 -4.037644E-07
vn -0.3539892 -0.9352495 -4.037644E-07
vn 0.9024979 -0.4306943 0
vn 0.9028596 -0.4299355 0
vn 0.9028596 -0.4299355 0
vn 0.9024979 -0.4306943 0
vn 0.9021355 -0.4314529 0
vn 0.9021355 -0.4314529 0
vn 0 -1 0
vn 0 -1 0
vn 0 -1 0
vn 0 -1 0
vn 0.9985878 -0.05312483 2.333061E-07
vn 0.9945053 -0.1046856 0
vn 0.9945053 -0.1046856 0
vn 0.9985878 -0.05312484 2.33306E-07
vn 0.9999013 0.01404858 4.718916E-07
vn 0.9999013 0.01404857 4.718916E-07
vn 0.9995643 0.02951572 4.776822E-07
vn 0.9995643 0.02951572 4.776822E-07
g Cube.009_0
f 3/3/3 2/2/2 1/1/1
f 6/6/6 5/5/5 4/4/4
f 9/9/9 8/8/8 7/7/7
f 12/12/12 11/11/11 10/10/10
f 15/15/15 14/14/14 13/13/13
f 16/16/16 15/15/15 13/13/13
f 16/16/16 13/13/13 17/17/17
f 18/18/18 16/16/16 17/17/17
f 21/21/21 20/20/20 19/19/19
f 21/21/21 19/19/19 22/22/22
f 23/23/23 21/21/21 22/22/22
f 23/23/23 22/22/22 24/24/24
f 25/25/25 24/24/24 22/22/22
f 26/26/26 23/23/23 24/24/24
f 27/27/27 24/24/24 25/25/25
f 28/28/28 27/27/27 25/25/25
f 24/24/24 27/27/27 29/29/29
f 27/27/27 30/30/30 29/29/29
f 30/30/30 27/27/27 28/28/28
f 30/30/30 31/31/31 29/29/29
f 24/24/24 32/32/32 26/26/26
f 32/32/32 24/24/24 29/29/29
f 26/26/26 32/32/32 33/33/33
f 34/34/34 26/26/26 33/33/33
f 29/29/29 35/35/35 32/32/32
f 33/33/33 36/36/36 35/35/35
f 37/37/37 33/33/33 35/35/35
f 38/38/38 37/37/37 35/35/35
f 39/39/39 38/38/38 35/35/35
f 40/40/40 39/39/39 35/35/35
f 41/41/41 40/40/40 35/35/35
f 41/41/41 35/35/35 42/42/42
f 42/42/42 43/43/43 41/41/41
f 44/44/44 43/43/43 42/42/42
f 45/45/45 44/44/44 42/42/42
f 42/42/42 46/46/46 45/45/45
f 47/47/47 46/46/46 42/42/42
f 48/48/48 47/47/47 42/42/42
f 42/42/42 35/35/35 48/48/48
f 35/35/35 49/49/49 48/48/48
f 50/50/50 49/49/49 35/35/35
f 35/35/35 29/29/29 50/50/50
f 29/29/29 51/51/51 50/50/50
f 51/51/51 52/52/52 50/50/50
f 52/52/52 51/51/51 53/53/53
f 51/51/51 29/29/29 54/54/54
f 54/54/54 29/29/29 31/31/31
f 55/55/55 51/51/51 54/54/54
f 56/56/56 51/51/51 55/55/55
f 57/57/57 54/54/54 31/31/31
f 57/57/57 31/31/31 58/58/58
f 58/58/58 31/31/31 59/59/59
f 59/59/59 31/31/31 60/60/60
f 63/63/63 62/62/62 61/61/61
f 64/64/64 63/63/63 61/61/61
f 67/67/67 66/66/66 65/65/65
f 68/68/68 67/67/67 65/65/65
f 68/68/68 65/65/65 69/69/69
f 70/70/70 68/68/68 69/69/69
f 70/70/70 69/69/69 71/71/71
f 68/68/68 70/70/70 72/72/72
f 71/71/71 73/73/73 70/70/70
f 73/73/73 71/71/71 74/74/74
f 75/75/75 70/70/70 73/73/73
f 75/75/75 76/76/76 70/70/70
f 72/72/72 70/70/70 76/76/76
f 77/77/77 72/72/72 76/76/76
f 77/77/77 76/76/76 78/78/78
f 75/75/75 78/78/78 76/76/76
f 79/79/79 73/73/73 74/74/74
f 75/75/75 80/80/80 78/78/78
f 81/81/81 73/73/73 79/79/79
f 73/73/73 81/81/81 75/75/75
f 81/81/81 79/79/79 82/82/82
f 81/81/81 82/82/82 83/83/83
f 81/81/81 83/83/83 84/84/84
f 81/81/81 84/84/84 85/85/85
f 81/81/81 85/85/85 86/86/86
f 87/87/87 81/81/81 86/86/86
f 86/86/86 88/88/88 87/87/87
f 87/87/87 88/88/88 89/89/89
f 87/87/87 89/89/89 90/90/90
f 90/90/90 91/91/91 87/87/87
f 92/92/92 87/87/87 91/91/91
f 93/93/93 92/92/92 91/91/91
f 92/92/92 94/94/94 87/87/87
f 94/94/94 81/81/81 87/87/87
f 81/81/81 94/94/94 95/95/95
f 95/95/95 75/75/75 81/81/81
f 95/95/95 96/96/96 75/75/75
f 95/95/95 97/97/97 96/96/96
f 98/98/98 96/96/96 97/97/97
f 99/99/99 75/75/75 96/96/96
f 80/80/80 75/75/75 99/99/99
f 100/100/100 99/99/99 96/96/96
f 100/100/100 96/96/96 101/101/101
f 102/102/102 80/80/80 99/99/99
f 103/103/103 80/80/80 102/102/102
f 104/104/104 80/80/80 103/103/103
f 105/105/105 80/80/80 104/104/104
f 108/108/108 107/107/107 106/106/106
f 109/109/109 108/108/108 106/106/106
f 112/112/112 111/111/111 110/110/110
f 113/113/113 112/112/112 110/110/110
f 116/116/116 115/115/115 114/114/114
f 117/117/117 116/116/116 114/114/114
f 120/120/120 119/119/119 118/118/118
f 121/121/121 120/120/120 118/118/118
f 121/121/121 118/118/118 122/122/122
f 123/123/123 121/121/121 122/122/122
f 126/126/126 125/125/125 124/124/124
f 127/127/127 126/126/126 124/124/124
f 130/130/130 129/129/129 128/128/128
f 131/131/131 130/130/130 128/128/128
f 134/134/134 133/133/133 132/132/132
f 135/135/135 134/134/134 132/132/132
f 138/138/138 137/137/137 136/136/136
f 139/139/139 138/138/138 136/136/136
f 142/142/142 141/141/141 140/140/140
f 143/143/143 142/142/142 140/140/140
f 146/146/146 145/145/145 144/144/144
f 147/147/147 146/146/146 144/144/144
f 150/150/150 149/149/149 148/148/148
f 151/151/151 150/150/150 148/148/148
f 154/154/154 153/153/153 152/152/152
f 155/155/155 154/154/154 152/152/152
f 158/158/158 157/157/157 156/156/156
f 159/159/159 158/158/158 156/156/156
f 162/162/162 161/161/161 160/160/160
f 163/163/163 162/162/162 160/160/160
f 166/166/166 165/165/165 164/164/164
f 167/167/167 166/166/166 164/164/164
f 170/170/170 169/169/169 168/168/168
f 171/171/171 170/170/170 168/168/168
f 174/174/174 173/173/173 172/172/172
f 175/175/175 174/174/174 172/172/172
f 178/178/178 177/177/177 176/176/176
f 179/179/179 178/178/178 176/176/176
f 182/182/182 181/181/181 180/180/180
f 181/181/181 183/183/183 180/180/180
f 180/180/180 183/183/183 184/184/184
f 183/183/183 185/185/185 184/184/184
f 184/184/184 185/185/185 186/186/186
f 185/185/185 187/187/187 186/186/186
f 186/186/186 187/187/187 188/188/188
f 187/187/187 189/189/189 188/188/188
f 192/192/192 191/191/191 190/190/190
f 193/193/193 192/192/192 190/190/190
f 196/196/196 195/195/195 194/194/194
f 195/195/195 197/197/197 194/194/194
f 194/194/194 197/197/197 198/198/198
f 197/197/197 199/199/199 198/198/198
f 202/202/202 201/201/201 200/200/200
f 203/203/203 202/202/202 200/200/200
f 206/206/206 205/205/205 204/204/204
f 205/205/205 207/207/207 204/204/204
f 204/204/204 207/207/207 208/208/208
f 207/207/207 209/209/209 208/208/208
f 208/208/208 209/209/209 210/210/210
f 209/209/209 211/211/211 210/210/210
