g Cube.024
v -0.01051867 0.2155344 -0.0738063
v 0.4604272 0.1939404 -0.0738063
v 0.4604272 0.1939404 0.07380627
v -0.01051867 0.2155344 0.07380629
v -0.3467537 0.2353628 0.07380629
v -0.3467539 0.2353628 -0.07380629
v -0.5787888 -0.1701566 0.07380622
v -0.4603727 -0.1006312 0.07380623
v -0.2065573 -0.1155971 0.07380623
v -0.03515404 -0.2022157 0.07380622
v -0.03065771 -0.1259688 0.07380623
v 0.3838304 -0.2214272 0.0738062
v -0.1584868 -0.006118536 0.07380625
v 0.2863362 -0.1405002 0.07380623
v -0.01501507 0.1392875 0.07380626
v 0.3158089 -0.06855655 0.07380623
v 0.3476839 -0.0101186 0.07380625
v 0.4470077 -0.03361654 0.07380625
v 0.4559302 0.1176882 0.07380626
v -0.1737871 0.09333181 0.07380626
v -0.2502873 0.0359565 0.07380626
v -0.4306442 0.1638012 0.07380627
v -0.3467537 0.2353628 0.07380629
v -0.01051867 0.2155344 0.07380629
v 0.4604272 0.1939404 0.07380627
v -0.03515404 -0.2022157 0.07380622
v 0.3838304 -0.2214272 0.0738062
v 0.3838304 -0.2214271 -0.07380636
v -0.03515404 -0.2022157 -0.07380636
v -0.5787888 -0.1701566 0.07380622
v -0.5787888 -0.1701565 -0.07380636
v -0.03515404 -0.2022157 -0.07380636
v 0.3838304 -0.2214271 -0.07380636
v 0.2863362 -0.1405002 -0.07380636
v -0.03065771 -0.1259688 -0.07380636
v -0.01501507 0.1392875 -0.0738063
v 0.3158089 -0.06855655 -0.07380633
v 0.3476839 -0.0101186 -0.07380633
v 0.4470077 -0.03361654 -0.07380633
v 0.4559302 0.1176882 -0.0738063
v 0.4604272 0.1939404 -0.0738063
v -0.01051867 0.2155344 -0.0738063
v -0.4306442 0.1638012 -0.0738063
v -0.3467539 0.2353628 -0.07380629
v -0.1737871 0.09333181 -0.07380632
v -0.1584868 -0.006118655 -0.07380632
v -0.2502873 0.0359565 -0.07380632
v -0.2065575 -0.115597 -0.07380633
v -0.5787888 -0.1701565 -0.07380636
v -0.4603726 -0.1006311 -0.07380633
v -0.4306442 0.1638012 0.07380627
v -0.4306442 0.1638012 -0.0738063
v -0.3467539 0.2353628 -0.07380629
v -0.3467537 0.2353628 0.07380629
v -0.1737871 0.09333181 0.07380626
v -0.1737871 0.09333181 -0.07380632
v -0.4306442 0.1638012 -0.0738063
v -0.4306442 0.1638012 0.07380627
v -0.2502873 0.0359565 0.07380626
v -0.2502873 0.0359565 -0.07380632
v -0.1737871 0.09333181 -0.07380632
v -0.1737871 0.09333181 0.07380626
v -0.1584868 -0.006118536 0.07380625
v -0.1584868 -0.006118655 -0.07380632
v -0.2502873 0.0359565 -0.07380632
v -0.2502873 0.0359565 0.07380626
v -0.2065573 -0.1155971 0.07380623
v -0.2065575 -0.115597 -0.07380633
v -0.1584868 -0.006118655 -0.07380632
v -0.1584868 -0.006118536 0.07380625
v -0.4603727 -0.1006312 0.07380623
v -0.4603726 -0.1006311 -0.07380633
v -0.2065575 -0.115597 -0.07380633
v -0.2065573 -0.1155971 0.07380623
v -0.5787888 -0.1701566 0.07380622
v -0.5787888 -0.1701565 -0.07380636
v -0.4603726 -0.1006311 -0.07380633
v -0.4603727 -0.1006312 0.07380623
v 0.4559302 0.1176882 -0.0738063
v 0.4604272 0.1939404 0.07380627
v 0.4604272 0.1939404 -0.0738063
v 0.4559302 0.1176882 0.07380626
v 0.4470077 -0.03361654 -0.07380633
v 0.4470077 -0.03361654 0.07380625
v 0.3476839 -0.0101186 -0.07380633
v 0.3476839 -0.0101186 0.07380625
v 0.4470077 -0.03361654 0.07380625
v 0.4470077 -0.03361654 -0.07380633
v 0.3158089 -0.06855655 -0.07380633
v 0.3476839 -0.0101186 0.07380625
v 0.3476839 -0.0101186 -0.07380633
v 0.3158089 -0.06855655 0.07380623
v 0.2863362 -0.1405002 -0.07380636
v 0.2863362 -0.1405002 0.07380623
v 0.3838304 -0.2214271 -0.07380636
v 0.3838304 -0.2214272 0.0738062
v 0.2863362 -0.1405002 0.07380623
v 0.2863362 -0.1405002 -0.07380636
vt 0.3358002 0.4770253
vt 0.3466072 0.4818988
vt 0.3466072 0.4818988
vt 0.3358002 0.4770253
vt 0.3358137 0.4764898
vt 0.3358138 0.4764898
vt 0.1464567 0.5414557
vt 0.1910906 0.5715701
vt 0.1892387 0.6415741
vt 0.1424876 0.6913942
vt 0.1879553 0.6900885
vt 0.1519874 0.810165
vt 0.2484811 0.6509731
vt 0.1951448 0.7799475
vt 0.3290751 0.6852564
vt 0.2346039 0.7857486
vt 0.2670279 0.7926975
vt 0.2592542 0.8215131
vt 0.3397497 0.8187568
vt 0.3008823 0.6433668
vt 0.2686038 0.624394
vt 0.3321115 0.5706227
vt 0.3769977 0.5912146
vt 0.3745429 0.6839507
vt 0.3852211 0.817451
vt 0.3360755 0.4770958
vt 0.3456897 0.4814317
vt 0.3456897 0.4814317
vt 0.3360755 0.4770958
vt 0.3360972 0.47623
vt 0.3360972 0.47623
vt 0.1424876 0.6913942
vt 0.1519874 0.810165
vt 0.1951449 0.7799475
vt 0.1879553 0.6900885
vt 0.3290751 0.6852564
vt 0.2346039 0.7857487
vt 0.267028 0.7926975
vt 0.2592542 0.8215131
vt 0.3397498 0.8187568
vt 0.3852211 0.817451
vt 0.3745429 0.6839507
vt 0.3321116 0.5706227
vt 0.3769977 0.5912145
vt 0.3008823 0.6433668
vt 0.248481 0.6509731
vt 0.2686038 0.6243939
vt 0.1892387 0.6415741
vt 0.1464567 0.5414557
vt 0.1910906 0.5715701
vt 0 0
vt 0 0
vt 0 0
vt 0 0
vt 0 0
vt 0 0
vt 0 0
vt 0 0
vt 0 0
vt 0 0
vt 0 0
vt 0 0
vt 0 0
vt 0 0
vt 0 0
vt 0 0
vt 0 0
vt 0 0
vt 0 0
vt 0 0
vt 0 0
vt 0 0
vt 0 0
vt 0 0
vt 0 0
vt 0 0
vt 0 0
vt 0 0
vt 0 0
vt 0 0
vt 0 0
vt 0 0
vt 0 0
vt 0 0
vt 0 0
vt 0 0
vt 0 0
vt 0 0
vt 0 0
vt 0 0
vt 0 0
vt 0 0
vt 0 0
vt 0 0
vt 0 0
vt 0 0
vt 0 0
vt 0 0
vn 0.05233797 0.9986295 0
vn 0.04580434 0.9989504 0
vn 0.04580434 0.9989504 0
vn 0.05233797 0.9986295 0
vn 0.05886936 0.9982657 0
vn 0.05886936 0.9982657 0
vn 0 -1.250583E-07 1
vn 0 -1.250583E-07 1
vn 0 -1.353539E-07 1
vn 0 -1.369595E-07 1
vn 0 -1.432018E-07 1
vn 0 -1.489606E-07 1
vn 0 -1.619542E-07 1
vn 0 -1.436517E-07 1
vn 0 -1.574729E-07 1
vn 0 -1.367318E-07 1
vn 0 -1.367318E-07 1
vn 0 -1.367318E-07 1
vn 0 -1.615243E-07 1
vn 0 -1.619542E-07 1
vn 0 -1.619542E-07 1
vn 0 -1.491911E-07 1
vn 0 -1.457073E-07 1
vn 0 -1.658907E-07 1
vn 0 -1.859075E-07 1
vn -0.05233808 -0.9986295 -4.049301E-07
vn -0.04580437 -0.9989504 -4.043494E-07
vn -0.04580437 -0.9989504 -4.043494E-07
vn -0.05233808 -0.9986295 -4.049301E-07
vn -0.05886955 -0.9982657 -4.054933E-07
vn -0.05886955 -0.9982657 -4.054933E-07
vn 0 1.805232E-07 -1
vn 0 0 -1
vn 0 0 -1
vn 0 1.763526E-07 -1
vn 0 1.135153E-07 -1
vn 0 1.880062E-07 -1
vn 0 1.880062E-07 -1
vn 0 1.880062E-07 -1
vn 0 1.058536E-07 -1
vn 0 0 -1
vn 0 0 -1
vn 0 0 -1
vn 0 0 -1
vn 0 1.597048E-07 -1
vn 0 1.597048E-07 -1
vn 0 1.597048E-07 -1
vn 0 3.156126E-07 -1
vn 0 3.759564E-07 -1
vn 0 3.759564E-07 -1
vn -0.6489885 0.7607982 1.144363E-07
vn -0.6489885 0.7607982 1.144363E-07
vn -0.6489885 0.7607982 1.144363E-07
vn -0.6489885 0.7607982 1.144363E-07
vn -0.2645758 -0.9643649 0
vn -0.2645758 -0.9643649 0
vn -0.2645758 -0.9643649 0
vn -0.2645758 -0.9643649 0
vn -0.600001 0.7999992 0
vn -0.600001 0.7999992 0
vn -0.600001 0.7999992 0
vn -0.600001 0.7999992 0
vn -0.4166534 -0.9090654 4.373455E-07
vn -0.4166534 -0.9090654 4.373455E-07
vn -0.4166534 -0.9090654 4.373455E-07
vn -0.4166534 -0.9090654 4.373455E-07
vn -0.9156227 0.4020388 7.387417E-07
vn -0.9156227 0.4020388 7.387417E-07
vn -0.9156227 0.4020388 7.387417E-07
vn -0.9156227 0.4020388 7.387417E-07
vn 0.05886148 0.9982662 8.064711E-07
vn 0.05886148 0.9982662 8.064711E-07
vn 0.05886148 0.9982662 8.064711E-07
vn 0.05886148 0.9982662 8.064711E-07
vn -0.5063102 0.8623515 3.675701E-07
vn -0.5063102 0.8623515 3.675701E-07
vn -0.5063102 0.8623515 3.675701E-07
vn -0.5063102 0.8623515 3.675701E-07
vn 0.9982657 -0.0588704 0
vn 0.9982656 -0.05887215 0
vn 0.9982656 -0.05887215 0
vn 0.9982657 -0.05887039 0
vn 0.9982658 -0.05886864 0
vn 0.9982658 -0.05886864 0
vn -0.2302242 -0.9731376 0
vn -0.2302242 -0.9731376 0
vn -0.2302242 -0.9731376 0
vn -0.2302242 -0.9731376 0
vn 0.903008 -0.4296239 0
vn 0.877897 -0.4788495 0
vn 0.877897 -0.4788495 0
vn 0.903008 -0.4296239 0
vn 0.9253613 -0.3790863 0
vn 0.9253613 -0.3790863 0
vn 0.6387011 0.7694549 3.983559E-07
vn 0.6387011 0.7694549 3.983559E-07
vn 0.6387011 0.7694549 3.983559E-07
vn 0.6387011 0.7694549 3.983559E-07
g Cube.024_0
f 3/3/3 2/2/2 1/1/1
f 4/4/4 3/3/3 1/1/1
f 5/5/5 4/4/4 1/1/1
f 6/6/6 5/5/5 1/1/1
f 9/9/9 8/8/8 7/7/7
f 9/9/9 7/7/7 10/10/10
f 10/10/10 11/11/11 9/9/9
f 10/10/10 12/12/12 11/11/11
f 11/11/11 13/13/13 9/9/9
f 12/12/12 14/14/14 11/11/11
f 15/15/15 11/11/11 14/14/14
f 15/15/15 14/14/14 16/16/16
f 15/15/15 16/16/16 17/17/17
f 15/15/15 17/17/17 18/18/18
f 18/18/18 19/19/19 15/15/15
f 20/20/20 13/13/13 11/11/11
f 20/20/20 11/11/11 15/15/15
f 13/13/13 20/20/20 21/21/21
f 15/15/15 22/22/22 20/20/20
f 23/23/23 22/22/22 15/15/15
f 24/24/24 23/23/23 15/15/15
f 15/15/15 19/19/19 24/24/24
f 19/19/19 25/25/25 24/24/24
f 28/28/28 27/27/27 26/26/26
f 29/29/29 28/28/28 26/26/26
f 29/29/29 26/26/26 30/30/30
f 31/31/31 29/29/29 30/30/30
f 34/34/34 33/33/33 32/32/32
f 35/35/35 34/34/34 32/32/32
f 34/34/34 35/35/35 36/36/36
f 37/37/37 34/34/34 36/36/36
f 38/38/38 37/37/37 36/36/36
f 39/39/39 38/38/38 36/36/36
f 36/36/36 40/40/40 39/39/39
f 41/41/41 40/40/40 36/36/36
f 42/42/42 41/41/41 36/36/36
f 42/42/42 36/36/36 43/43/43
f 44/44/44 42/42/42 43/43/43
f 45/45/45 43/43/43 36/36/36
f 36/36/36 35/35/35 45/45/45
f 35/35/35 46/46/46 45/45/45
f 45/45/45 46/46/46 47/47/47
f 46/46/46 35/35/35 48/48/48
f 48/48/48 35/35/35 32/32/32
f 32/32/32 49/49/49 48/48/48
f 49/49/49 50/50/50 48/48/48
f 53/53/53 52/52/52 51/51/51
f 54/54/54 53/53/53 51/51/51
f 57/57/57 56/56/56 55/55/55
f 58/58/58 57/57/57 55/55/55
f 61/61/61 60/60/60 59/59/59
f 62/62/62 61/61/61 59/59/59
f 65/65/65 64/64/64 63/63/63
f 66/66/66 65/65/65 63/63/63
f 69/69/69 68/68/68 67/67/67
f 70/70/70 69/69/69 67/67/67
f 73/73/73 72/72/72 71/71/71
f 74/74/74 73/73/73 71/71/71
f 77/77/77 76/76/76 75/75/75
f 78/78/78 77/77/77 75/75/75
f 81/81/81 80/80/80 79/79/79
f 80/80/80 82/82/82 79/79/79
f 79/79/79 82/82/82 83/83/83
f 82/82/82 84/84/84 83/83/83
f 87/87/87 86/86/86 85/85/85
f 88/88/88 87/87/87 85/85/85
f 91/91/91 90/90/90 89/89/89
f 90/90/90 92/92/92 89/89/89
f 89/89/89 92/92/92 93/93/93
f 92/92/92 94/94/94 93/93/93
f 97/97/97 96/96/96 95/95/95
f 98/98/98 97/97/97 95/95/95
