g Cube.004
v 0.1523921 -0.2909241 -0.03842021
v 0.1789123 -0.2710634 -0.0372141
v 0.1673066 -0.280506 -0.05907154
v 0.1462572 -0.2823864 -0.01484046
v 0.0660542 -0.2442699 -0.02985485
v 0.06683546 -0.238263 -0.01105923
v -0.01673524 -0.04732324 0.06304074
v -0.02469618 -0.04362028 0.05329979
v -0.08939376 0.0259566 0.08938596
v -0.08836966 0.02272997 0.07918951
v -0.1188848 0.05181402 0.08360394
v -0.1222183 0.05702104 0.09585717
v -0.1284654 0.07414041 0.07142909
v -0.1247142 0.07726428 0.07380079
v -0.08000954 0.02991841 0.08786032
v -0.01673524 -0.04732324 0.06304074
v -0.08939376 0.0259566 0.08938596
v -0.1222183 0.05702104 0.09585717
v -0.002446022 -0.049461 0.06418195
v 0.06683546 -0.238263 -0.01105923
v -0.1165352 0.06021228 0.09439263
v -0.1247142 0.07726428 0.07380079
v -0.05423677 0.02907109 0.06945288
v 0.05559215 -0.2050916 0.004261615
v 0.03675436 -0.08862698 0.03398868
v 0.1312211 -0.2715554 -0.01962813
v 0.1462572 -0.2823864 -0.01484046
v 0.1690502 -0.2639244 -0.04699423
v 0.1789123 -0.2710634 -0.0372141
v 0.07767281 -0.1185101 -0.008643469
v 0.01309606 0.001914412 0.03532529
v -0.0988088 0.05951891 0.07424181
v -0.1132868 0.07687172 0.06696527
v 0.1498166 -0.2399762 -0.07746569
v 0.1034072 -0.09399242 -0.01973294
v 0.07829301 -0.0182164 -0.0007277522
v -0.02906846 0.03460855 0.02988581
v -0.07614689 0.06369298 0.04001602
v 0.1659792 -0.2553875 -0.07579718
v 0.1673066 -0.280506 -0.05907154
v 0.1335864 -0.2398082 -0.09503502
v 0.1219885 -0.1635173 -0.07700239
v 0.1141602 -0.1357463 -0.07366353
v 0.1124888 -0.05757672 -0.05388277
v 0.1223044 -0.1728996 -0.07413013
v 0.1160377 -0.06472731 -0.04144169
v 0.1114727 -0.01229676 -0.07083135
v 0.1137479 -0.071527 -0.02760341
v 0.1116296 -0.01452928 -0.05311137
v 0.1020071 -0.01588032 -0.02873032
v 0.1041062 0.02221454 -0.06944945
v 0.1010187 0.0185705 -0.07701254
v 0.09170675 0.009209018 -0.04971705
v 0.05916493 -0.001585186 -0.01745536
v 0.08311789 0.04320571 -0.06994826
v 0.07986301 0.03463805 -0.07380712
v 0.04958417 0.03948335 -0.06138258
v 0.07628079 0.03797117 -0.06033596
v 0.0509557 0.04965378 -0.05907185
v 0.01189103 0.04887086 -0.03973164
v -0.002231956 0.03137909 -0.0003709681
v 0.05143503 0.01965825 -0.03851929
v 0.04618324 0.0491934 -0.05267493
v 0.009256959 0.05588619 -0.03596313
v -0.0266208 0.06836126 -0.01523394
v 0.03303995 0.04350392 -0.04147324
v 0.0004813634 0.04325733 -0.01617569
v 0.003784578 0.06174265 -0.03055575
v -0.03470466 0.07686622 -0.00858205
v -0.06244791 0.08940592 0.006548267
v -0.007598892 0.06181609 -0.02082832
v -0.04808439 0.06290282 0.01499234
v -0.03934776 0.08035557 -0.004144425
v -0.06342503 0.09122147 0.008603578
v -0.03107987 0.06793429 -0.003383344
v -0.08711025 0.07844716 0.03687941
v -0.04791437 0.08297385 0.002276807
v -0.05870222 0.07732492 0.01428236
v -0.1066525 0.08509129 0.04750443
v -0.1284654 0.07414041 0.07142909
v -0.1178073 0.08443151 0.05288121
v -0.08818948 0.0879005 0.03160216
v -0.09873401 0.0908113 0.03691213
v -0.1054237 0.08999537 0.03946569
v -0.05895044 0.08530113 0.009903884
v -0.06170808 0.09076283 0.008735537
v -0.06828974 0.09257051 0.01315101
v -0.07222858 0.08856151 0.0183317
v -0.0897191 0.09386725 0.0277034
v -0.09619214 0.0933293 0.03076517
v -0.08425932 0.09252267 0.02541243
v -0.07626191 0.09595153 0.01658
v -0.0771442 0.09526203 0.01560914
v -0.07671899 0.09497544 0.01868442
v -0.08442052 0.09841269 0.02215346
v -0.08711526 0.09893039 0.0222018
v -0.08282267 0.09613245 0.0229392
v -0.08837827 0.09871548 0.02520416
v -0.08987382 0.09868415 0.02443831
v -0.08600418 0.09638038 0.02509807
v -0.08875313 0.0971159 0.0258477
v -0.09100196 0.09670242 0.0258121
vt 0.3688965 0.07269287
vt 0.427002 0.03646851
vt 0.4423828 0.02655029
vt 0.3515625 0.07873535
vt 0.3361816 0.1652832
vt 0.3276367 0.1765137
vt 0.3276367 0.3078613
vt 0.3308105 0.3051758
vt 0.3564453 0.4694824
vt 0.359375 0.4672852
vt 0.4169922 0.6196289
vt 0.4157715 0.621582
vt 0.4741211 0.7319336
vt 0.4743652 0.7319336
vt 0.3674316 0.4663086
vt 0.3276367 0.3078613
vt 0.3564453 0.4694824
vt 0.4157715 0.621582
vt 0.3427734 0.3012695
vt 0.3276367 0.1765137
vt 0.4233398 0.6220703
vt 0.4743652 0.7319336
vt 0.3967285 0.4567871
vt 0.3354492 0.1950684
vt 0.3820801 0.2744141
vt 0.3549805 0.1347656
vt 0.3515625 0.07873535
vt 0.4240723 0.1019287
vt 0.427002 0.03646851
vt 0.4418945 0.2512207
vt 0.4309082 0.4460449
vt 0.4440918 0.6201172
vt 0.4794922 0.730957
vt 0.494873 0.1036987
vt 0.5112305 0.2509766
vt 0.467041 0.4399414
vt 0.473877 0.6176758
vt 0.4926758 0.7285156
vt 0.4995117 0.04351807
vt 0.4423828 0.02655029
vt 0.5170898 0.03887939
vt 0.5683594 0.1177368
vt 0.5874023 0.1200562
vt 0.5898438 0.2617188
vt 0.5493164 0.1379395
vt 0.5810547 0.2636719
vt 0.5292969 0.4335938
vt 0.5595703 0.2624512
vt 0.5214844 0.4362793
vt 0.5029297 0.4377441
vt 0.5424805 0.6079102
vt 0.5458984 0.6064453
vt 0.53125 0.6098633
vt 0.5058594 0.6137695
vt 0.5478516 0.7177734
vt 0.5488281 0.7172852
vt 0.5644531 0.8125
vt 0.5419922 0.71875
vt 0.5644531 0.8129883
vt 0.5537109 0.9101563
vt 0.5102539 0.7250977
vt 0.5283203 0.7216797
vt 0.5615234 0.8144531
vt 0.5532227 0.9111328
vt 0.5332031 0.9511719
vt 0.5537109 0.8173828
vt 0.5429688 0.8203125
vt 0.5507813 0.9111328
vt 0.5332031 0.9511719
vt 0.5249023 0.9692383
vt 0.5449219 0.9106445
vt 0.5322266 0.8232422
vt 0.5322266 0.9501953
vt 0.5249023 0.9682617
vt 0.5371094 0.9106445
vt 0.5244141 0.8251953
vt 0.5288086 0.9492188
vt 0.5297852 0.9106445
vt 0.5209961 0.8256836
vt 0.4741211 0.7319336
vt 0.5200195 0.8261719
vt 0.5244141 0.9106445
vt 0.5219727 0.9101563
vt 0.5214844 0.9101563
vt 0.5234375 0.9467773
vt 0.5258789 0.9643555
vt 0.5219727 0.9658203
vt 0.5185547 0.9448242
vt 0.5136719 0.9423828
vt 0.5126953 0.9423828
vt 0.5151367 0.9428711
vt 0.519043 0.9726563
vt 0.5180664 0.9736328
vt 0.5175781 0.9628906
vt 0.5146484 0.9692383
vt 0.5136719 0.9702148
vt 0.5136719 0.9589844
vt 0.5107422 0.9643555
vt 0.5102539 0.9648438
vt 0.5117188 0.9545898
vt 0.5102539 0.956543
vt 0.5092773 0.956543
vn 0.2775879 -0.9208984 0.2731934
vn 0.9155273 -0.009216309 0.4020996
vn 0.6640625 -0.6479492 -0.3728027
vn 0.01867676 -0.4338379 0.9008789
vn -0.6030273 -0.7524414 0.2653809
vn -0.484375 -0.5668945 0.6660156
vn -0.4387207 -0.5170898 0.7348633
vn -0.734375 -0.6323242 0.2470703
vn -0.3410645 -0.5390625 0.7700195
vn -0.6621094 -0.7250977 0.1878662
vn -0.8417969 -0.5200195 0.1445313
vn -0.5341797 -0.001434326 0.8452148
vn -0.8466797 0.4645996 0.2600098
vn -0.3317871 0.8027344 0.4958496
vn 0.3920898 0.2307129 0.890625
vn -0.4387207 -0.5170898 0.7348633
vn -0.3410645 -0.5390625 0.7700195
vn -0.5341797 -0.001434326 0.8452148
vn 0.3405762 0.008392334 0.9399414
vn -0.484375 -0.5668945 0.6660156
vn 0.3178711 0.5341797 0.7832031
vn -0.3317871 0.8027344 0.4958496
vn 0.612793 0.5678711 0.5498047
vn -0.008483887 -0.3295898 0.9443359
vn 0.4946289 0.01358032 0.8691406
vn 0.3205566 0.1134033 0.9404297
vn 0.01867676 -0.4338379 0.9008789
vn 0.6113281 0.6557617 0.4428711
vn 0.9155273 -0.009216309 0.4020996
vn 0.6962891 0.1497803 0.7016602
vn 0.5957031 0.4682617 0.652832
vn 0.5546875 0.6621094 0.5039063
vn 0.4504395 0.7363281 0.5048828
vn 0.5649414 0.2548828 0.784668
vn 0.8344727 0.1228638 0.5375977
vn 0.5551758 0.3642578 0.7480469
vn 0.5288086 0.7333984 0.427002
vn 0.5703125 0.6391602 0.5161133
vn 0.8740234 0.2219238 -0.432373
vn 0.6640625 -0.6479492 -0.3728027
vn 0.6103516 0.163208 -0.7749023
vn 0.9306641 0.1848145 -0.3154297
vn 0.8745117 0.178833 -0.4506836
vn 0.9702148 0.07629395 -0.2307129
vn 0.7675781 0.1268311 0.6279297
vn 0.9916992 0.126709 0.0112915
vn 0.9814453 0.1429443 -0.1289063
vn 0.9018555 0.1107788 0.4177246
vn 0.9487305 0.2565918 0.1835938
vn 0.7089844 0.4213867 0.5654297
vn 0.8291016 0.559082 0.01678467
vn 0.7822266 0.3930664 -0.4829102
vn 0.5253906 0.597168 0.6064453
vn 0.4519043 0.7407227 0.4973145
vn 0.4060059 0.8823242 -0.2384033
vn 0.09777832 0.4692383 -0.8774414
vn -0.3430176 0.3222656 -0.8823242
vn 0.4248047 0.6181641 0.6611328
vn -0.05447388 0.8969727 -0.4384766
vn -0.4228516 0.2810059 -0.8618164
vn 0.5449219 0.6552734 0.5234375
vn 0.4421387 0.6035156 0.6635742
vn 0.3093262 0.890625 0.3337402
vn -0.2658691 0.6074219 -0.7485352
vn -0.3798828 0.3266602 -0.8652344
vn 0.5107422 0.4748535 0.7163086
vn 0.5664063 0.5039063 0.6523438
vn 0.3125 0.949707 -0.0151062
vn -0.2180176 0.5517578 -0.8046875
vn -0.2047119 0.5585938 -0.8037109
vn 0.5859375 0.4248047 0.6899414
vn 0.5878906 0.5014648 0.6347656
vn 0.4841309 0.8676758 0.1138306
vn 0.1385498 0.9243164 -0.3549805
vn 0.5957031 0.4240723 0.6821289
vn 0.559082 0.5332031 0.6347656
vn 0.5947266 0.4763184 0.6474609
vn 0.5751953 0.4291992 0.6962891
vn 0.2973633 0.7978516 0.5244141
vn -0.8466797 0.4645996 0.2600098
vn -0.1347656 0.9418945 0.3081055
vn 0.5234375 0.4995117 0.6904297
vn 0.3078613 0.7519531 0.5830078
vn 0.15625 0.8422852 0.5161133
vn 0.5776367 0.4143066 0.7036133
vn 0.4667969 0.875 0.1281738
vn 0.5322266 0.7006836 0.4748535
vn 0.5668945 0.3928223 0.7241211
vn 0.3527832 0.5581055 0.7509766
vn 0.09881592 0.8789063 0.4663086
vn 0.5249023 0.3952637 0.7539063
vn 0.2905273 0.9555664 -0.05169678
vn -0.0229187 0.8554688 -0.5170898
vn 0.5566406 0.5585938 0.6152344
vn 0.3430176 0.9238281 0.1687012
vn 0.08978271 0.9956055 0.01904297
vn 0.5449219 0.4482422 0.7084961
vn 0.1567383 0.7792969 0.6064453
vn -0.1148071 0.8051758 0.581543
vn 0.4558105 0.3625488 0.8129883
vn 0.1896973 0.4899902 0.8510742
vn 0.07281494 0.6010742 0.7958984
g Cube.004_0
f 3/3/3 2/2/2 1/1/1
f 2/2/2 4/4/4 1/1/1
f 1/1/1 4/4/4 5/5/5
f 4/4/4 6/6/6 5/5/5
f 5/5/5 6/6/6 7/7/7
f 8/8/8 5/5/5 7/7/7
f 8/8/8 7/7/7 9/9/9
f 10/10/10 8/8/8 9/9/9
f 11/11/11 10/10/10 9/9/9
f 12/12/12 11/11/11 9/9/9
f 13/13/13 11/11/11 12/12/12
f 14/14/14 13/13/13 12/12/12
f 17/17/17 16/16/16 15/15/15
f 18/18/18 17/17/17 15/15/15
f 16/16/16 19/19/19 15/15/15
f 16/16/16 20/20/20 19/19/19
f 21/21/21 18/18/18 15/15/15
f 22/22/22 18/18/18 21/21/21
f 15/15/15 19/19/19 23/23/23
f 21/21/21 15/15/15 23/23/23
f 20/20/20 24/24/24 19/19/19
f 19/19/19 24/24/24 25/25/25
f 19/19/19 25/25/25 23/23/23
f 26/26/26 24/24/24 20/20/20
f 24/24/24 26/26/26 25/25/25
f 27/27/27 26/26/26 20/20/20
f 28/28/28 26/26/26 27/27/27
f 29/29/29 28/28/28 27/27/27
f 25/25/25 26/26/26 30/30/30
f 26/26/26 28/28/28 30/30/30
f 23/23/23 25/25/25 31/31/31
f 25/25/25 30/30/30 31/31/31
f 32/32/32 21/21/21 23/23/23
f 32/32/32 23/23/23 31/31/31
f 33/33/33 22/22/22 21/21/21
f 33/33/33 21/21/21 32/32/32
f 34/34/34 28/28/28 29/29/29
f 30/30/30 28/28/28 35/35/35
f 28/28/28 34/34/34 35/35/35
f 31/31/31 30/30/30 36/36/36
f 30/30/30 35/35/35 36/36/36
f 37/37/37 32/32/32 31/31/31
f 37/37/37 31/31/31 36/36/36
f 38/38/38 33/33/33 32/32/32
f 38/38/38 32/32/32 37/37/37
f 39/39/39 34/34/34 29/29/29
f 39/39/39 29/29/29 40/40/40
f 41/41/41 39/39/39 40/40/40
f 42/42/42 39/39/39 41/41/41
f 43/43/43 42/42/42 41/41/41
f 42/42/42 43/43/43 44/44/44
f 45/45/45 34/34/34 39/39/39
f 42/42/42 45/45/45 39/39/39
f 46/46/46 42/42/42 44/44/44
f 45/45/45 42/42/42 46/46/46
f 46/46/46 44/44/44 47/47/47
f 34/34/34 45/45/45 48/48/48
f 48/48/48 45/45/45 46/46/46
f 35/35/35 34/34/34 48/48/48
f 49/49/49 46/46/46 47/47/47
f 48/48/48 46/46/46 49/49/49
f 35/35/35 48/48/48 50/50/50
f 50/50/50 48/48/48 49/49/49
f 36/36/36 35/35/35 50/50/50
f 51/51/51 49/49/49 47/47/47
f 52/52/52 51/51/51 47/47/47
f 53/53/53 50/50/50 49/49/49
f 51/51/51 53/53/53 49/49/49
f 54/54/54 36/36/36 50/50/50
f 53/53/53 54/54/54 50/50/50
f 54/54/54 37/37/37 36/36/36
f 55/55/55 51/51/51 52/52/52
f 56/56/56 55/55/55 52/52/52
f 56/56/56 57/57/57 55/55/55
f 58/58/58 53/53/53 51/51/51
f 55/55/55 58/58/58 51/51/51
f 57/57/57 59/59/59 55/55/55
f 55/55/55 59/59/59 58/58/58
f 57/57/57 60/60/60 59/59/59
f 61/61/61 37/37/37 54/54/54
f 61/61/61 38/38/38 37/37/37
f 62/62/62 54/54/54 53/53/53
f 58/58/58 62/62/62 53/53/53
f 62/62/62 61/61/61 54/54/54
f 59/59/59 63/63/63 58/58/58
f 58/58/58 63/63/63 62/62/62
f 60/60/60 64/64/64 59/59/59
f 59/59/59 64/64/64 63/63/63
f 60/60/60 65/65/65 64/64/64
f 62/62/62 66/66/66 61/61/61
f 63/63/63 66/66/66 62/62/62
f 61/61/61 67/67/67 38/38/38
f 66/66/66 67/67/67 61/61/61
f 64/64/64 68/68/68 63/63/63
f 63/63/63 68/68/68 66/66/66
f 65/65/65 69/69/69 64/64/64
f 64/64/64 69/69/69 68/68/68
f 65/65/65 70/70/70 69/69/69
f 68/68/68 71/71/71 66/66/66
f 66/66/66 71/71/71 67/67/67
f 67/67/67 72/72/72 38/38/38
f 38/38/38 72/72/72 33/33/33
f 69/69/69 73/73/73 68/68/68
f 68/68/68 73/73/73 71/71/71
f 70/70/70 74/74/74 69/69/69
f 69/69/69 74/74/74 73/73/73
f 71/71/71 75/75/75 67/67/67
f 67/67/67 75/75/75 72/72/72
f 72/72/72 76/76/76 33/33/33
f 33/33/33 76/76/76 22/22/22
f 73/73/73 77/77/77 71/71/71
f 71/71/71 77/77/77 75/75/75
f 75/75/75 78/78/78 72/72/72
f 72/72/72 78/78/78 76/76/76
f 76/76/76 79/79/79 22/22/22
f 22/22/22 79/79/79 80/80/80
f 79/79/79 81/81/81 80/80/80
f 76/76/76 82/82/82 79/79/79
f 78/78/78 82/82/82 76/76/76
f 79/79/79 83/83/83 81/81/81
f 82/82/82 83/83/83 79/79/79
f 83/83/83 84/84/84 81/81/81
f 75/75/75 85/85/85 78/78/78
f 77/77/77 85/85/85 75/75/75
f 73/73/73 86/86/86 77/77/77
f 74/74/74 86/86/86 73/73/73
f 86/86/86 87/87/87 77/77/77
f 87/87/87 86/86/86 74/74/74
f 77/77/77 87/87/87 85/85/85
f 78/78/78 88/88/88 82/82/82
f 85/85/85 88/88/88 78/78/78
f 83/83/83 89/89/89 84/84/84
f 89/89/89 90/90/90 84/84/84
f 82/82/82 91/91/91 83/83/83
f 88/88/88 91/91/91 82/82/82
f 91/91/91 89/89/89 83/83/83
f 92/92/92 87/87/87 74/74/74
f 92/92/92 74/74/74 70/70/70
f 93/93/93 92/92/92 70/70/70
f 87/87/87 94/94/94 85/85/85
f 85/85/85 94/94/94 88/88/88
f 94/94/94 87/87/87 92/92/92
f 95/95/95 92/92/92 93/93/93
f 95/95/95 94/94/94 92/92/92
f 96/96/96 95/95/95 93/93/93
f 94/94/94 97/97/97 88/88/88
f 88/88/88 97/97/97 91/91/91
f 97/97/97 94/94/94 95/95/95
f 98/98/98 95/95/95 96/96/96
f 98/98/98 97/97/97 95/95/95
f 99/99/99 98/98/98 96/96/96
f 97/97/97 100/100/100 91/91/91
f 91/91/91 100/100/100 89/89/89
f 100/100/100 97/97/97 98/98/98
f 101/101/101 98/98/98 99/99/99
f 101/101/101 100/100/100 98/98/98
f 100/100/100 101/101/101 89/89/89
f 102/102/102 101/101/101 99/99/99
f 89/89/89 101/101/101 90/90/90
f 101/101/101 102/102/102 90/90/90
