g cube
v -9.155274E-08 3.177373 -1.534102
v 0.02726975 3.150102 1.534104
v -1.907349E-07 3.177372 1.534104
v 0.02726984 3.150103 -1.534102
v 0.03858348 3.122789 1.534104
v 0.01245566 3.151853 -1.563166
v 0.001750092 3.162559 -1.563166
v 0.03858348 3.122789 -1.534102
v 0.1484636 2.021816 -1.584173
v 0.1484636 2.021815 1.584174
v 0.1777037 1.588686 1.602703
v 0.1363752 2.021801 -1.612379
v 0.02726975 3.122789 -1.561415
v 0.1777037 1.588687 -1.602702
v 0.1654074 1.588687 -1.631238
v 0.1484636 1.155557 1.584174
v 0.1484636 1.155558 -1.584173
v 0.1363752 1.155572 -1.612379
v 0.02726975 0.05458413 -1.561417
v 0.03858348 0.05458412 -1.534103
v 0.03858348 0.05458412 -1.534103
v 0.03858348 0.05458312 1.534103
v 0.02726975 0.02726952 1.534103
v 0.02726975 0.02727052 -1.534103
v 0.001750092 0.01481472 -1.563167
v 0.01245556 0.02552016 -1.563167
v 0.001750092 0.02552017 -1.573872
v 0.02726975 0.02727052 -1.534103
v -9.155274E-08 4.998741E-07 -1.534103
v -9.155274E-08 -4.998741E-07 1.534103
v 0.02726975 0.02726952 1.534103
v 0.01245556 0.02551915 1.563167
v 0.001750092 0.0148137 1.563167
v 0.001750092 0.02551914 1.573872
v 0.03858348 0.05458412 -1.534103
v 0.02726975 0.05458413 -1.561417
v 0.01245556 0.02552016 -1.563167
v 0.001750092 3.162559 -1.563166
v 0.001750092 3.151853 -1.573871
v 0.01245566 3.151853 -1.563166
v 0.02726975 3.122789 -1.561415
v -9.155274E-08 3.122789 -1.588685
v 0.1072269 2.021837 -1.640535
v 0.1363752 2.021801 -1.612379
v 0.1654074 1.588687 -1.631238
v 0.135763 1.588687 -1.659725
v 0.1363752 1.155572 -1.612379
v 0.1072269 1.155537 -1.640536
v -9.155274E-08 0.05458413 -1.588686
v 0.02726975 0.05458413 -1.561417
v 0.01245556 0.02552016 -1.563167
v 0.001750092 0.02552017 -1.573872
v 0.02726975 0.02726952 1.534103
v 0.01245556 0.02551915 1.563167
v 0.02726975 0.05458311 1.561417
v 0.03858348 0.05458312 1.534103
v 0.02726975 3.150102 1.534104
v 0.03858348 3.122789 1.534104
v 0.02726975 3.122789 1.561417
v 0.01245566 3.151853 1.563168
v 0.02726984 3.150103 -1.534102
v 0.01245566 3.151853 -1.563166
v 0.02726975 3.122789 -1.561415
v 0.03858348 3.122789 -1.534102
v 0.02726975 0.05458311 1.561417
v 0.01245556 0.02551915 1.563167
v 0.001750092 0.02551914 1.573872
v -9.155274E-08 0.05458311 1.588686
v 0.1072269 1.155536 1.640536
v 0.1363752 1.155571 1.61238
v 0.1654074 1.588686 1.631238
v 0.1357632 1.588686 1.659726
v 0.1363752 2.021801 1.612381
v 0.1072269 2.021836 1.640537
v -9.155274E-08 3.122789 1.588687
v 0.02726975 3.122789 1.561417
v 0.01245566 3.151853 1.563168
v 0.001750092 3.151853 1.573873
v 0.001750092 3.162558 1.563168
v 0.02726975 3.150102 1.534104
v -1.907349E-07 3.177372 1.534104
v 0.1484636 2.021815 1.584174
v 0.02726975 3.122789 1.561417
v 0.03858348 3.122789 1.534104
v 0.1777037 1.588686 1.602703
v 0.1484636 1.155557 1.584174
v 0.03858348 0.05458312 1.534103
v 0.02726975 0.05458311 1.561417
vt 0.9794922 0.996582
vt 0.02059937 0.987793
vt 0.02059937 0.996582
vt 0.9794922 0.987793
vt 0.02059937 0.9794922
vt 0.984375 0.9907227
vt 0.984375 0.9936523
vt 0.9794922 0.9794922
vt 0.9794922 0.640625
vt 0.02059937 0.640625
vt 0.02830505 0.5
vt 0.984375 0.640625
vt 0.984375 0.9794922
vt 0.9755859 0.5
vt 0.9829102 0.5
vt 0.02059937 0.359375
vt 0.9794922 0.359375
vt 0.984375 0.359375
vt 0.984375 0.02059937
vt 0.9794922 0.02059937
vt 0.9794922 0.02059937
vt 0.02059937 0.02059937
vt 0.02059937 0.01559448
vt 0.9794922 0.01559448
vt 0.9882813 0.9882813
vt 0.9916992 0.9882813
vt 0.9882813 0.9916992
vt 0.996582 0.9794922
vt 0.987793 0.9794922
vt 0.987793 0.02059937
vt 0.996582 0.02059937
vt 0.9916992 0.01151276
vt 0.9882813 0.01151276
vt 0.9882813 0.008163452
vt 1 0.9794922
vt 1 0.984375
vt 0.9936523 0.984375
vt 0.9882813 0.9916992
vt 0.9882813 0.9882813
vt 0.9916992 0.9882813
vt 0.996582 0.9794922
vt 0.987793 0.9794922
vt 0.987793 0.640625
vt 0.996582 0.640625
vt 0.9941406 0.5
vt 0.987793 0.5
vt 0.996582 0.359375
vt 0.987793 0.359375
vt 0.987793 0.02059937
vt 0.996582 0.02059937
vt 0.9936523 0.01559448
vt 0.9907227 0.01559448
vt 0.02059937 0.01205444
vt 0.01559448 0.01559448
vt 0.01559448 0.02059937
vt 0.02059937 0.01559448
vt 0.9980469 0.9897461
vt 1 0.984375
vt 0.996582 0.984375
vt 0.9936523 0.9907227
vt 0.9794922 0.987793
vt 0.984375 0.984375
vt 0.984375 0.9794922
vt 0.9794922 0.984375
vt 0.996582 0.02059937
vt 0.9936523 0.01559448
vt 0.9907227 0.01559448
vt 0.987793 0.02059937
vt 0.987793 0.359375
vt 0.996582 0.359375
vt 0.9956055 0.5
vt 0.987793 0.5
vt 0.996582 0.640625
vt 0.987793 0.640625
vt 0.987793 0.9794922
vt 0.996582 0.9794922
vt 0.9916992 0.9882813
vt 0.9882813 0.9882813
vt 0.9882813 0.9916992
vt 0.996582 0.987793
vt 0.987793 0.996582
vt 1 0.640625
vt 0.996582 0.9794922
vt 1 0.9794922
vt 1 0.5
vt 1 0.359375
vt 1 0.02059937
vt 0.996582 0.02059937
vn 0.7006836 0.7006836 -0.1329346
vn 0.8232422 0.5395508 0.1761475
vn 0.7006836 0.7006836 0.1329346
vn 0.8232422 0.5395508 -0.1761475
vn 0.9501953 0.2456055 0.19104
vn 0.7133789 0.4956055 -0.4956055
vn 0.6469727 0.6469727 -0.4035645
vn 0.9501953 0.2456055 -0.19104
vn 0.9760742 0.09014893 -0.1987305
vn 0.9760742 0.09014893 0.1987305
vn 0.9785156 0 0.2050781
vn 0.8217773 0.09332275 -0.5620117
vn 0.8115234 0.2290039 -0.5375977
vn 0.9785156 0 -0.2050781
vn 0.8227539 4.172325E-07 -0.5683594
vn 0.9760742 -0.09014893 0.1987305
vn 0.9760742 -0.09014893 -0.1987305
vn 0.8217773 -0.09332275 -0.5620117
vn 0.8115234 -0.2290039 -0.5375977
vn 0.9501953 -0.2456055 -0.19104
vn 0.9501953 -0.2456055 -0.19104
vn 0.9501953 -0.2456055 0.19104
vn 0.8232422 -0.5395508 0.1761475
vn 0.8232422 -0.5395508 -0.1761475
vn 0.6469727 -0.6469727 -0.4035645
vn 0.7133789 -0.4956055 -0.4956055
vn 0.6469727 -0.4035645 -0.6469727
vn 0.8232422 -0.5395508 -0.1761475
vn 0.7006836 -0.7006836 -0.1329346
vn 0.7006836 -0.7006836 0.1329346
vn 0.8232422 -0.5395508 0.1761475
vn 0.7133789 -0.4956055 0.4956055
vn 0.6469727 -0.6469727 0.4035645
vn 0.6469727 -0.4035645 0.6469727
vn 0.9501953 -0.2456055 -0.19104
vn 0.8115234 -0.2290039 -0.5375977
vn 0.7133789 -0.4956055 -0.4956055
vn 0.6469727 0.6469727 -0.4035645
vn 0.6469727 0.4035645 -0.6469727
vn 0.7133789 0.4956055 -0.4956055
vn 0.8115234 0.2290039 -0.5375977
vn 0.6904297 0.19104 -0.6977539
vn 0.6948242 0.08978271 -0.7138672
vn 0.8217773 0.09332275 -0.5620117
vn 0.8227539 4.172325E-07 -0.5683594
vn 0.6938477 5.960464E-07 -0.7202148
vn 0.8217773 -0.09332275 -0.5620117
vn 0.6948242 -0.08978271 -0.7138672
vn 0.6904297 -0.19104 -0.6977539
vn 0.8115234 -0.2290039 -0.5375977
vn 0.7133789 -0.4956055 -0.4956055
vn 0.6469727 -0.4035645 -0.6469727
vn 0.8232422 -0.5395508 0.1761475
vn 0.7133789 -0.4956055 0.4956055
vn 0.8115234 -0.2290039 0.5375977
vn 0.9501953 -0.2456055 0.19104
vn 0.8232422 0.5395508 0.1761475
vn 0.9501953 0.2456055 0.19104
vn 0.8115234 0.2290039 0.5375977
vn 0.7133789 0.4956055 0.4956055
vn 0.8232422 0.5395508 -0.1761475
vn 0.7133789 0.4956055 -0.4956055
vn 0.8115234 0.2290039 -0.5375977
vn 0.9501953 0.2456055 -0.19104
vn 0.8115234 -0.2290039 0.5375977
vn 0.7133789 -0.4956055 0.4956055
vn 0.6469727 -0.4035645 0.6469727
vn 0.6904297 -0.19104 0.6977539
vn 0.6948242 -0.08978271 0.7138672
vn 0.8217773 -0.09332275 0.5620117
vn 0.8227539 -3.576279E-07 0.5683594
vn 0.6938477 0 0.7202148
vn 0.8217773 0.09332275 0.5620117
vn 0.6948242 0.08978271 0.7138672
vn 0.6904297 0.19104 0.6977539
vn 0.8115234 0.2290039 0.5375977
vn 0.7133789 0.4956055 0.4956055
vn 0.6469727 0.4035645 0.6469727
vn 0.6469727 0.6469727 0.4035645
vn 0.8232422 0.5395508 0.1761475
vn 0.7006836 0.7006836 0.1329346
vn 0.9760742 0.09014893 0.1987305
vn 0.8115234 0.2290039 0.5375977
vn 0.9501953 0.2456055 0.19104
vn 0.9785156 0 0.2050781
vn 0.9760742 -0.09014893 0.1987305
vn 0.9501953 -0.2456055 0.19104
vn 0.8115234 -0.2290039 0.5375977
g cube_0
f 3/3/3 2/2/2 1/1/1
f 2/2/2 4/4/4 1/1/1
f 4/4/4 2/2/2 5/5/5
f 4/4/4 6/6/6 1/1/1
f 6/6/6 7/7/7 1/1/1
f 8/8/8 4/4/4 5/5/5
f 8/8/8 5/5/5 9/9/9
f 5/5/5 10/10/10 9/9/9
f 10/10/10 11/11/11 9/9/9
f 9/9/9 12/12/12 8/8/8
f 12/12/12 13/13/13 8/8/8
f 11/11/11 14/14/14 9/9/9
f 12/12/12 9/9/9 14/14/14
f 15/15/15 12/12/12 14/14/14
f 11/11/11 16/16/16 14/14/14
f 15/15/15 14/14/14 17/17/17
f 16/16/16 17/17/17 14/14/14
f 18/18/18 15/15/15 17/17/17
f 19/19/19 18/18/18 17/17/17
f 20/20/20 19/19/19 17/17/17
f 17/17/17 16/16/16 21/21/21
f 16/16/16 22/22/22 21/21/21
f 22/22/22 23/23/23 21/21/21
f 23/23/23 24/24/24 21/21/21
f 27/27/27 26/26/26 25/25/25
f 25/25/25 26/26/26 28/28/28
f 29/29/29 25/25/25 28/28/28
f 29/29/29 28/28/28 30/30/30
f 28/28/28 31/31/31 30/30/30
f 31/31/31 32/32/32 30/30/30
f 32/32/32 33/33/33 30/30/30
f 32/32/32 34/34/34 33/33/33
f 36/36/36 35/35/35 28/28/28
f 37/37/37 36/36/36 28/28/28
f 40/40/40 39/39/39 38/38/38
f 39/39/39 40/40/40 41/41/41
f 42/42/42 39/39/39 41/41/41
f 43/43/43 42/42/42 41/41/41
f 44/44/44 43/43/43 41/41/41
f 43/43/43 44/44/44 45/45/45
f 46/46/46 43/43/43 45/45/45
f 46/46/46 45/45/45 47/47/47
f 48/48/48 46/46/46 47/47/47
f 49/49/49 48/48/48 47/47/47
f 50/50/50 49/49/49 47/47/47
f 50/50/50 51/51/51 49/49/49
f 51/51/51 52/52/52 49/49/49
f 55/55/55 54/54/54 53/53/53
f 56/56/56 55/55/55 53/53/53
f 59/59/59 58/58/58 57/57/57
f 60/60/60 59/59/59 57/57/57
f 63/63/63 62/62/62 61/61/61
f 64/64/64 63/63/63 61/61/61
f 67/67/67 66/66/66 65/65/65
f 68/68/68 67/67/67 65/65/65
f 68/68/68 65/65/65 69/69/69
f 65/65/65 70/70/70 69/69/69
f 70/70/70 71/71/71 69/69/69
f 71/71/71 72/72/72 69/69/69
f 71/71/71 73/73/73 72/72/72
f 73/73/73 74/74/74 72/72/72
f 74/74/74 73/73/73 75/75/75
f 73/73/73 76/76/76 75/75/75
f 76/76/76 77/77/77 75/75/75
f 77/77/77 78/78/78 75/75/75
f 78/78/78 77/77/77 79/79/79
f 79/79/79 77/77/77 80/80/80
f 81/81/81 79/79/79 80/80/80
f 73/73/73 71/71/71 82/82/82
f 83/83/83 73/73/73 82/82/82
f 84/84/84 83/83/83 82/82/82
f 71/71/71 85/85/85 82/82/82
f 71/71/71 70/70/70 85/85/85
f 70/70/70 86/86/86 85/85/85
f 86/86/86 70/70/70 87/87/87
f 70/70/70 88/88/88 87/87/87
