g Cube.023
v -0.2058971 -0.09148332 0.07484581
v -0.1969485 -0.05090976 0.07484582
v -0.1808882 0.02190882 0.07484583
v -0.535092 0.3249304 -0.07276669
v -0.132259 0.2423968 0.07484587
v -0.535092 0.3249304 0.07484589
v -0.132259 0.2423968 -0.07276672
v 0.1386784 0.1889532 0.07484584
v 0.1386784 0.1889532 -0.07276673
v 0.2807131 0.1631165 0.07484583
v 0.2807131 0.1631165 -0.07276674
v -0.6251727 -0.08350107 0.07484582
v -0.3869891 -0.1323007 -0.07276677
v -0.6251727 -0.08350107 -0.07276676
v -0.3869891 -0.1323007 0.0748458
v -0.2223397 -0.1660345 -0.07276679
v -0.2223397 -0.1660345 0.0748458
v 0.04859769 -0.2194781 -0.0727668
v 0.04859769 -0.2194781 0.07484578
v 0.04859769 -0.2194781 0.07484578
v 0.2294298 -0.2664654 0.07484576
v 0.2294298 -0.2664654 -0.07276682
v 0.04859769 -0.2194781 -0.0727668
v 0.2807131 0.1631165 0.07484583
v 0.3184279 0.1370582 0.07484583
v 0.3090374 0.09448063 0.07484582
v 0.05458975 0.1293126 0.07484584
v 0.07551742 0.1246918 0.07484584
v 0.1386784 0.1889532 0.07484584
v 0.2484063 0.06981987 0.07484583
v 0.2487527 0.07030427 0.07484583
v 0.3040249 0.04061395 0.07484581
v 0.3180767 0.006416917 0.07484581
v 0.2553586 -0.1489027 0.07484578
v 0.1219682 -0.1574712 0.07484579
v 0.1454359 -0.1626441 0.07484579
v 0.01076627 0.1389796 0.07484584
v -0.132259 0.2423968 0.07484587
v 0.2176684 -0.1833277 0.07484578
v 0.2178662 -0.1829413 0.07484578
v 0.2463186 -0.1971245 0.07484578
v 0.2531232 -0.2140235 0.07484578
v 0.2294298 -0.2664654 0.07484576
v 0.04859769 -0.2194781 0.07484578
v 0.06504178 -0.1449198 0.07484579
v -0.2058971 -0.09148332 0.07484581
v -0.2223397 -0.1660345 0.0748458
v -0.1487014 0.1678457 0.07484584
v -0.535092 0.3249304 0.07484589
v -0.3350683 0.2060315 0.07484586
v -0.2518634 0.1565724 0.07484584
v -0.2908252 -0.07408416 0.07484581
v -0.3869891 -0.1323007 0.0748458
v -0.1969485 -0.05090976 0.07484582
v -0.1808882 0.02190882 0.07484583
v -0.2213975 0.08611989 0.07484584
v -0.2804253 0.1108736 0.07484584
v -0.1808882 0.021909 -0.07276676
v -0.1969485 -0.05090976 -0.07276677
v -0.2058971 -0.09148332 -0.07276677
v -0.1878422 -0.009621143 -0.07276677
v 0.3090374 0.09448063 -0.07276676
v 0.3184279 0.1370582 -0.07276675
v 0.2807131 0.1631165 -0.07276674
v 0.05458975 0.1293126 -0.07276674
v 0.07551742 0.1246918 -0.07276674
v 0.1386784 0.1889532 -0.07276673
v 0.2484063 0.06981987 -0.07276675
v 0.2487527 0.07030427 -0.07276675
v 0.3040249 0.04061395 -0.07276677
v 0.3180767 0.006416917 -0.07276677
v 0.2553586 -0.1489027 -0.0727668
v 0.1219682 -0.1574712 -0.07276679
v 0.1454359 -0.1626441 -0.07276679
v 0.2176684 -0.1833277 -0.0727668
v 0.2178662 -0.1829413 -0.0727668
v 0.2463186 -0.1971245 -0.0727668
v 0.2531232 -0.2140235 -0.0727668
v 0.2294298 -0.2664654 -0.07276682
v 0.04859769 -0.2194781 -0.0727668
v 0.06504178 -0.1449198 -0.07276679
v -0.2223397 -0.1660345 -0.07276679
v 0.01076627 0.1389796 -0.07276674
v -0.2058971 -0.09148332 -0.07276677
v -0.3869891 -0.1323007 -0.07276677
v -0.2908252 -0.07408416 -0.07276677
v -0.1969485 -0.05090976 -0.07276677
v -0.1487014 0.1678457 -0.07276674
v -0.132259 0.2423968 -0.07276672
v -0.1808882 0.021909 -0.07276676
v -0.3350686 0.2060316 -0.07276672
v -0.535092 0.3249304 -0.07276669
v -0.2518633 0.1565724 -0.07276673
v -0.2213974 0.08611989 -0.07276675
v -0.2804253 0.1108736 -0.07276674
v 0.3180767 0.006416917 -0.07276677
v 0.2553586 -0.1489027 -0.0727668
v 0.2553586 -0.1489027 0.07484578
v 0.3180767 0.006416917 0.07484581
v 0.3090374 0.09448063 -0.07276676
v 0.07551742 0.1246918 -0.07276674
v 0.07551742 0.1246918 0.07484584
v 0.3090374 0.09448063 0.07484582
v 0.2294298 -0.2664654 -0.07276682
v 0.2294298 -0.2664654 0.07484576
v 0.2531232 -0.2140235 0.07484578
v 0.2531232 -0.2140235 -0.0727668
v 0.1454359 -0.1626441 0.07484579
v 0.2553586 -0.1489027 0.07484578
v 0.2553586 -0.1489027 -0.0727668
v 0.1454359 -0.1626441 -0.07276679
v 0.2807131 0.1631165 -0.07276674
v 0.3184279 0.1370582 -0.07276675
v 0.3184279 0.1370582 0.07484583
v 0.2807131 0.1631165 0.07484583
v 0.3090374 0.09448063 -0.07276676
v 0.3090374 0.09448063 0.07484582
v 0.3184279 0.1370582 0.07484583
v 0.3184279 0.1370582 -0.07276675
v 0.3180767 0.006416917 0.07484581
v 0.3040249 0.04061395 0.07484581
v 0.3040249 0.04061395 -0.07276677
v 0.3180767 0.006416917 -0.07276677
v 0.3040249 0.04061395 0.07484581
v 0.2487527 0.07030427 0.07484583
v 0.2487527 0.07030427 -0.07276675
v 0.3040249 0.04061395 -0.07276677
v 0.07551742 0.1246918 -0.07276674
v 0.2487527 0.07030427 -0.07276675
v 0.2487527 0.07030427 0.07484583
v 0.07551742 0.1246918 0.07484584
v 0.2531232 -0.2140235 0.07484578
v 0.2463186 -0.1971245 0.07484578
v 0.2463186 -0.1971245 -0.0727668
v 0.2531232 -0.2140235 -0.0727668
v 0.2463186 -0.1971245 0.07484578
v 0.2178662 -0.1829413 0.07484578
v 0.2178662 -0.1829413 -0.0727668
v 0.2463186 -0.1971245 -0.0727668
v 0.2178662 -0.1829413 0.07484578
v 0.1454359 -0.1626441 0.07484579
v 0.1454359 -0.1626441 -0.07276679
v 0.2178662 -0.1829413 -0.0727668
vt 0.1986366 0.8235887
vt 0.2207146 0.8228327
vt 0.2603385 0.8214759
vt 0.3358002 0.4770253
vt 0.3466072 0.4818988
vt 0.3358002 0.4770253
vt 0.3466072 0.4818988
vt 0.3466145 0.4824015
vt 0.3466145 0.4824015
vt 0.3466256 0.482664
vt 0.3466256 0.482664
vt 0.3360755 0.4770958
vt 0.3424651 0.4799774
vt 0.3360755 0.4770958
vt 0.3424651 0.4799774
vt 0.3468821 0.4819694
vt 0.3468821 0.4819694
vt 0.3468899 0.4824721
vt 0.3468899 0.4824721
vt 0.3468899 0.4824721
vt 0.3468584 0.4828131
vt 0.3468584 0.4828131
vt 0.3468899 0.4824721
vt 0.3885732 0.9499481
vt 0.3778996 0.9636424
vt 0.3519303 0.9643884
vt 0.3416876 0.8839385
vt 0.3415059 0.8907042
vt 0.3865855 0.9044991
vt 0.3302591 0.9480097
vt 0.330583 0.9480742
vt 0.3199002 0.9674234
vt 0.3016364 0.9745995
vt 0.2205427 0.9689407
vt 0.1995205 0.9290385
vt 0.1993215 0.9366243
vt 0.3420638 0.8697721
vt 0.3852211 0.817451
vt 0.1959303 0.9603766
vt 0.1961793 0.960404
vt 0.1913225 0.9702712
vt 0.1822802 0.9737751
vt 0.1488376 0.9709997
vt 0.15453 0.9119427
vt 0.2000053 0.9106368
vt 0.1986366 0.8235887
vt 0.1531656 0.8248947
vt 0.3397497 0.8187568
vt 0.3745429 0.6839507
vt 0.3348112 0.7569939
vt 0.3203236 0.7874128
vt 0.1963847 0.7954433
vt 0.1488012 0.7703292
vt 0.2207146 0.8228327
vt 0.2603385 0.8214759
vt 0.2880608 0.8031444
vt 0.2930164 0.7824713
vt 0.2603387 0.8214759
vt 0.2207146 0.8228327
vt 0.1986366 0.8235887
vt 0.2431817 0.8220634
vt 0.3519303 0.9643884
vt 0.3778996 0.9636424
vt 0.3885732 0.9499481
vt 0.3416876 0.8839385
vt 0.3415059 0.8907042
vt 0.3865855 0.9044991
vt 0.3302591 0.9480097
vt 0.330583 0.9480742
vt 0.3199002 0.9674234
vt 0.3016364 0.9745995
vt 0.2205427 0.9689407
vt 0.1995205 0.9290385
vt 0.1993215 0.9366243
vt 0.1959303 0.9603766
vt 0.1961793 0.960404
vt 0.1913225 0.9702712
vt 0.1822802 0.9737751
vt 0.1488376 0.9709997
vt 0.15453 0.9119427
vt 0.2000053 0.9106368
vt 0.1531656 0.8248947
vt 0.3420638 0.8697721
vt 0.1986366 0.8235887
vt 0.1488012 0.7703292
vt 0.1963847 0.7954434
vt 0.2207146 0.8228327
vt 0.3397498 0.8187568
vt 0.3852211 0.817451
vt 0.2603387 0.8214759
vt 0.3348112 0.7569938
vt 0.3745429 0.6839507
vt 0.3203236 0.7874128
vt 0.2880608 0.8031443
vt 0.2930164 0.7824712
vt 0.3461448 0.4828063
vt 0.3472546 0.4828013
vt 0.3472546 0.4828013
vt 0.3461448 0.4828063
vt 0.3464231 0.4827474
vt 0.3463652 0.4823219
vt 0.3463652 0.4823219
vt 0.3464231 0.4827474
vt 0.3468584 0.4828131
vt 0.3468584 0.4828131
vt 0.3470431 0.4828291
vt 0.3470431 0.4828291
vt 0.3471375 0.4826146
vt 0.3472546 0.4828013
vt 0.3472546 0.4828013
vt 0.3471375 0.4826146
vt 0.3466256 0.482664
vt 0.3465665 0.482743
vt 0.3465665 0.482743
vt 0.3466256 0.482664
vt 0.3464231 0.4827474
vt 0.3464231 0.4827474
vt 0.3465665 0.482743
vt 0.3465665 0.482743
vt 0.3461448 0.4828063
vt 0.3462458 0.4827648
vt 0.3462458 0.4827648
vt 0.3461448 0.4828063
vt 0.3462458 0.4827648
vt 0.3463053 0.4826531
vt 0.3463053 0.4826531
vt 0.3462458 0.4827648
vt 0.3463652 0.4823219
vt 0.3463053 0.4826531
vt 0.3463053 0.4826531
vt 0.3463652 0.4823219
vt 0.3470431 0.4828291
vt 0.3470929 0.4828089
vt 0.3470929 0.4828089
vt 0.3470431 0.4828291
vt 0.3470929 0.4828089
vt 0.34712 0.4827519
vt 0.34712 0.4827519
vt 0.3470929 0.4828089
vt 0.34712 0.4827519
vt 0.3471375 0.4826146
vt 0.3471375 0.4826146
vt 0.34712 0.4827519
vn 0 -2.486719E-07 1
vn 0 -2.483413E-07 1
vn 0 -1.412266E-07 1
vn 0.2007134 0.97965 0
vn 0.1971208 0.9803792 0
vn 0.2007134 0.97965 0
vn 0.1971208 0.9803792 0
vn 0.1935255 0.9810953 0
vn 0.1935255 0.9810953 0
vn 0.1789673 0.9838549 0
vn 0.1789673 0.9838549 0
vn -0.2007132 -0.97965 0
vn -0.2007133 -0.97965 0
vn -0.2007132 -0.97965 0
vn -0.2007133 -0.97965 0
vn -0.1971205 -0.9803792 0
vn -0.1971205 -0.9803792 0
vn -0.193525 -0.9810953 0
vn -0.193525 -0.9810953 0
vn -0.2514883 -0.9678603 -1.919245E-07
vn -0.2514883 -0.9678603 -1.919245E-07
vn -0.2514883 -0.9678603 -1.919245E-07
vn -0.2514883 -0.9678603 -1.919245E-07
vn 0 0 1
vn 0 0 1
vn 0 0 1
vn 0 0 1
vn 0 -7.725403E-07 1
vn 0 0 1
vn 0 -3.444608E-06 1
vn 0 -7.997467E-06 1
vn 3.410675E-07 5.730679E-07 1
vn 0 0 1
vn 0 -2.095365E-07 1
vn 0 -1.97046E-07 1
vn -2.395187E-07 -2.547193E-06 1
vn 0 -1.72994E-07 1
vn 0 -2.554559E-07 1
vn -1.21019E-07 -6.377193E-06 1
vn -2.304001E-07 -1.312967E-05 1
vn 0 1.071682E-06 1
vn 0 1.413458E-07 1
vn 0 -1.269271E-07 1
vn 0 -1.517156E-07 1
vn 0 -1.72121E-07 1
vn 0 -2.486719E-07 1
vn 0 -1.600063E-07 1
vn 0 -1.894508E-07 1
vn 0 -2.840048E-07 1
vn 0 -2.636855E-07 1
vn 0 0 1
vn 0 -2.020934E-07 1
vn 0 -1.436718E-07 1
vn 0 -2.483413E-07 1
vn 0 -1.412266E-07 1
vn 0 0 1
vn 0 0 1
vn 0 1.582482E-07 -1
vn 0 0 -1
vn 0 1.157637E-07 -1
vn 0 1.790627E-07 -1
vn 0 2.497647E-07 -1
vn 0 2.299683E-07 -1
vn 0 2.299683E-07 -1
vn 0 3.102883E-07 -1
vn 0 4.404346E-06 -1
vn 0 2.295383E-07 -1
vn 0 1.341683E-06 -1
vn 0 1.749492E-06 -1
vn -1.957422E-07 6.219854E-07 -1
vn 0 2.582964E-07 -1
vn 0 1.690996E-07 -1
vn 0 1.535178E-07 -1
vn 2.39519E-07 0 -1
vn 1.210191E-07 0 -1
vn 2.304003E-07 0 -1
vn 0 0 -1
vn 0 1.200948E-07 -1
vn 0 1.50726E-07 -1
vn 0 1.581727E-07 -1
vn 0 1.671347E-07 -1
vn 0 2.090675E-07 -1
vn 0 2.029254E-07 -1
vn 0 1.157637E-07 -1
vn 0 2.514256E-07 -1
vn 0 1.918758E-07 -1
vn 0 0 -1
vn 0 1.633083E-07 -1
vn 0 2.003302E-07 -1
vn 0 1.582482E-07 -1
vn 0 1.620029E-07 -1
vn 0 1.724315E-07 -1
vn 0 0 -1
vn 0 0 -1
vn 0 0 -1
vn 0.9272564 -0.3744268 0
vn 0.9272564 -0.3744268 0
vn 0.9272564 -0.3744268 0
vn 0.9272564 -0.3744268 0
vn -0.1283036 -0.991735 0
vn -0.1283036 -0.991735 0
vn -0.1283036 -0.991735 0
vn -0.1283036 -0.991735 0
vn 0.9113061 -0.4117294 -1.096384E-07
vn 0.9113061 -0.4117294 -1.096384E-07
vn 0.9113061 -0.4117294 -1.096384E-07
vn 0.9113061 -0.4117294 -1.096384E-07
vn 0.1240448 -0.9922766 0
vn 0.1240448 -0.9922766 0
vn 0.1240448 -0.9922766 0
vn 0.1240448 -0.9922766 0
vn 0.5684438 0.8227221 0
vn 0.5684438 0.8227221 0
vn 0.5684438 0.8227221 0
vn 0.5684438 0.8227221 0
vn 0.9765316 -0.2153738 0
vn 0.9765316 -0.2153738 0
vn 0.9765316 -0.2153738 0
vn 0.9765316 -0.2153738 0
vn 0.9249572 0.3800712 0
vn 0.9249572 0.3800712 0
vn 0.9249572 0.3800712 0
vn 0.9249572 0.3800712 0
vn 0.4732143 0.8809474 0
vn 0.4732143 0.8809474 0
vn 0.4732143 0.8809474 0
vn 0.4732143 0.8809474 0
vn 0.2995365 0.9540849 0
vn 0.2995365 0.9540849 0
vn 0.2995365 0.9540849 0
vn 0.2995365 0.9540849 0
vn 0.9276228 0.3735182 0
vn 0.9276228 0.3735182 0
vn 0.9276228 0.3735182 0
vn 0.9276228 0.3735182 0
vn 0.4461313 0.8949676 0
vn 0.4461313 0.8949676 0
vn 0.4461313 0.8949676 0
vn 0.4461313 0.8949676 0
vn 0.2698357 0.9629064 0
vn 0.2698357 0.9629064 0
vn 0.2698357 0.9629064 0
vn 0.2698357 0.9629064 0
g Cube.023_0
f 3/3/3 2/2/2 1/1/1
f 6/6/6 5/5/5 4/4/4
f 5/5/5 7/7/7 4/4/4
f 5/5/5 8/8/8 7/7/7
f 8/8/8 9/9/9 7/7/7
f 8/8/8 10/10/10 9/9/9
f 10/10/10 11/11/11 9/9/9
f 14/14/14 13/13/13 12/12/12
f 13/13/13 15/15/15 12/12/12
f 13/13/13 16/16/16 15/15/15
f 16/16/16 17/17/17 15/15/15
f 16/16/16 18/18/18 17/17/17
f 18/18/18 19/19/19 17/17/17
f 22/22/22 21/21/21 20/20/20
f 23/23/23 22/22/22 20/20/20
f 26/26/26 25/25/25 24/24/24
f 24/24/24 27/27/27 26/26/26
f 26/26/26 27/27/27 28/28/28
f 24/24/24 29/29/29 27/27/27
f 28/28/28 27/27/27 30/30/30
f 31/31/31 28/28/28 30/30/30
f 31/31/31 30/30/30 32/32/32
f 32/32/32 30/30/30 33/33/33
f 34/34/34 33/33/33 30/30/30
f 30/30/30 35/35/35 34/34/34
f 30/30/30 27/27/27 35/35/35
f 34/34/34 35/35/35 36/36/36
f 29/29/29 37/37/37 27/27/27
f 37/37/37 29/29/29 38/38/38
f 36/36/36 35/35/35 39/39/39
f 40/40/40 36/36/36 39/39/39
f 40/40/40 39/39/39 41/41/41
f 41/41/41 39/39/39 42/42/42
f 43/43/43 42/42/42 39/39/39
f 39/39/39 44/44/44 43/43/43
f 39/39/39 35/35/35 44/44/44
f 27/27/27 45/45/45 35/35/35
f 35/35/35 45/45/45 44/44/44
f 27/27/27 37/37/37 45/45/45
f 44/44/44 45/45/45 46/46/46
f 46/46/46 45/45/45 37/37/37
f 47/47/47 44/44/44 46/46/46
f 48/48/48 37/37/37 38/38/38
f 37/37/37 48/48/48 46/46/46
f 48/48/48 38/38/38 49/49/49
f 50/50/50 48/48/48 49/49/49
f 48/48/48 50/50/50 51/51/51
f 47/47/47 46/46/46 52/52/52
f 53/53/53 47/47/47 52/52/52
f 52/52/52 46/46/46 54/54/54
f 48/48/48 55/55/55 46/46/46
f 51/51/51 55/55/55 48/48/48
f 51/51/51 56/56/56 55/55/55
f 56/56/56 51/51/51 57/57/57
f 60/60/60 59/59/59 58/58/58
f 59/59/59 61/61/61 58/58/58
f 64/64/64 63/63/63 62/62/62
f 62/62/62 65/65/65 64/64/64
f 66/66/66 65/65/65 62/62/62
f 65/65/65 67/67/67 64/64/64
f 68/68/68 65/65/65 66/66/66
f 69/69/69 68/68/68 66/66/66
f 70/70/70 68/68/68 69/69/69
f 71/71/71 68/68/68 70/70/70
f 68/68/68 71/71/71 72/72/72
f 72/72/72 73/73/73 68/68/68
f 73/73/73 65/65/65 68/68/68
f 74/74/74 73/73/73 72/72/72
f 75/75/75 73/73/73 74/74/74
f 76/76/76 75/75/75 74/74/74
f 77/77/77 75/75/75 76/76/76
f 78/78/78 75/75/75 77/77/77
f 75/75/75 78/78/78 79/79/79
f 79/79/79 80/80/80 75/75/75
f 80/80/80 73/73/73 75/75/75
f 80/80/80 81/81/81 73/73/73
f 73/73/73 81/81/81 65/65/65
f 81/81/81 80/80/80 82/82/82
f 81/81/81 83/83/83 65/65/65
f 65/65/65 83/83/83 67/67/67
f 84/84/84 81/81/81 82/82/82
f 83/83/83 81/81/81 84/84/84
f 84/84/84 82/82/82 85/85/85
f 86/86/86 84/84/84 85/85/85
f 87/87/87 84/84/84 86/86/86
f 67/67/67 83/83/83 88/88/88
f 84/84/84 88/88/88 83/83/83
f 89/89/89 67/67/67 88/88/88
f 84/84/84 90/90/90 88/88/88
f 89/89/89 88/88/88 91/91/91
f 92/92/92 89/89/89 91/91/91
f 93/93/93 91/91/91 88/88/88
f 88/88/88 90/90/90 93/93/93
f 90/90/90 94/94/94 93/93/93
f 93/93/93 94/94/94 95/95/95
f 98/98/98 97/97/97 96/96/96
f 99/99/99 98/98/98 96/96/96
f 102/102/102 101/101/101 100/100/100
f 103/103/103 102/102/102 100/100/100
f 106/106/106 105/105/105 104/104/104
f 107/107/107 106/106/106 104/104/104
f 110/110/110 109/109/109 108/108/108
f 111/111/111 110/110/110 108/108/108
f 114/114/114 113/113/113 112/112/112
f 115/115/115 114/114/114 112/112/112
f 118/118/118 117/117/117 116/116/116
f 119/119/119 118/118/118 116/116/116
f 122/122/122 121/121/121 120/120/120
f 123/123/123 122/122/122 120/120/120
f 126/126/126 125/125/125 124/124/124
f 127/127/127 126/126/126 124/124/124
f 130/130/130 129/129/129 128/128/128
f 131/131/131 130/130/130 128/128/128
f 134/134/134 133/133/133 132/132/132
f 135/135/135 134/134/134 132/132/132
f 138/138/138 137/137/137 136/136/136
f 139/139/139 138/138/138 136/136/136
f 142/142/142 141/141/141 140/140/140
f 143/143/143 142/142/142 140/140/140
