g Cube.002
v 0.3923011 -0.03798151 0.08509624
v 0.3923504 -0.01219654 0.08509625
v 0.4085248 -0.02489674 0.04641632
v 0.2188988 -0.4299927 -0.07338092
v 0.2132256 -0.4424584 -0.07338093
v 0.2060776 -0.4368458 -0.04689435
v 0.2060776 -0.4368458 -0.04689435
v 0.1704543 -0.408875 0.08509603
v 0.2188988 -0.4299927 -0.07338092
v 0.1704543 -0.408875 0.08509603
v 0.2481883 -0.3657122 -0.07338089
v 0.2188988 -0.4299927 -0.07338092
v 0.1704543 -0.408875 0.08509603
v 0.1853653 -0.3998748 0.08509603
v 0.2481883 -0.3657122 -0.07338089
v -0.2471652 0.02322638 0.08509637
v -0.3446295 0.09975278 0.08509644
v -0.3447517 0.1657525 0.08509647
v 0.2454879 -0.363592 0.08509605
v 0.1853653 -0.3998748 0.08509603
v -0.2800819 0.01816583 0.08509637
v 0.1704543 -0.408875 0.08509603
v -0.3581332 0.00616622 0.08509634
v 0.3162745 -0.1447222 0.08509617
v -0.2307815 0.2057066 0.08509647
v -0.3452184 0.2216748 0.08509652
v -0.0951132 0.2663635 0.08509652
v -0.2414282 0.2429655 0.08509651
v 0.3921322 -0.1162233 0.08509617
v -0.09452333 0.294714 0.08509654
v 0.3923011 -0.03798151 0.08509624
v -0.09298006 0.3688792 0.08509658
v 0.3923504 -0.01219654 0.08509625
v -0.2307814 0.2057067 -0.07338046
v -0.3452186 0.2216749 -0.07338043
v -0.3447514 0.1657525 -0.07338046
v 0.2943507 -0.1344248 -0.07338074
v -0.09511323 0.2663635 -0.07338043
v -0.2414283 0.2429658 -0.07338043
v 0.3745542 -0.1720952 -0.07338078
v 0.4178095 -0.1363852 -0.07338075
v 0.3903892 -0.0366745 -0.07338069
v -0.0945233 0.2947141 -0.07338041
v 0.3812786 -0.003502965 -0.07338067
v -0.09298004 0.3688793 -0.07338037
v 0.2517028 -0.2438102 -0.07338081
v 0.2481883 -0.3657122 -0.07338089
v 0.3013601 -0.2915102 -0.07338084
v -0.2471653 0.02322662 -0.07338057
v -0.3446296 0.0997529 -0.0733805
v -0.2800818 0.01816583 -0.07338057
v 0.2188988 -0.4299927 -0.07338092
v -0.3581331 0.00616622 -0.07338056
v 0.2132256 -0.4424584 -0.07338093
v 0.2132256 -0.4424584 -0.07338093
v -0.3581331 0.00616622 -0.07338056
v -0.3581331 0.006165981 0.04500727
v 0.2060776 -0.4368458 -0.04689435
v 0.2060776 -0.4368458 -0.04689435
v -0.3581331 0.006165981 0.04500727
v -0.3581332 0.00616622 0.08509634
v 0.1704543 -0.408875 0.08509603
v -0.09298012 0.3688793 -0.0352708
v 0.4085248 -0.02489674 0.04641632
v 0.3923504 -0.01219654 0.08509625
v -0.09298006 0.3688792 0.08509658
v -0.09298004 0.3688793 -0.07338037
v 0.3812786 -0.003502965 -0.07338067
v 0.4085248 -0.02489674 0.04641632
v -0.09298012 0.3688793 -0.0352708
v 0.3812786 -0.003502965 -0.07338067
v 0.3903892 -0.0366745 -0.07338069
v 0.4085248 -0.02489674 0.04641632
v 0.3923011 -0.03798151 0.08509624
v 0.4178095 -0.1363852 -0.07338075
v 0.3745542 -0.1720952 -0.07338078
v 0.2943507 -0.1344248 -0.07338074
v 0.3903892 -0.0366745 -0.07338069
v 0.3921322 -0.1162233 0.08509617
v 0.3923011 -0.03798151 0.08509624
v 0.3903892 -0.0366745 -0.07338069
v 0.2943507 -0.1344248 -0.07338074
v 0.3162745 -0.1447222 0.08509617
v 0.2517028 -0.2438102 -0.07338081
v 0.3013601 -0.2915102 -0.07338084
v 0.1853653 -0.3998748 0.08509603
v 0.2454879 -0.363592 0.08509605
v 0.2481883 -0.3657122 -0.07338089
v 0.3013601 -0.2915102 -0.07338084
v 0.3162745 -0.1447222 0.08509617
v -0.09298012 0.3688793 -0.0352708
v -0.09511323 0.2663635 -0.07338043
v -0.0945233 0.2947141 -0.07338041
v -0.09298004 0.3688793 -0.07338037
v -0.09298006 0.3688792 0.08509658
v -0.2414283 0.2429658 -0.07338043
v -0.09511323 0.2663635 -0.07338043
v -0.09298012 0.3688793 -0.0352708
v -0.09452333 0.294714 0.08509654
v -0.2307814 0.2057067 -0.07338046
v -0.2414283 0.2429658 -0.07338043
v -0.09298006 0.3688792 0.08509658
v -0.0951132 0.2663635 0.08509652
v -0.3452186 0.2216749 -0.07338043
v -0.2307814 0.2057067 -0.07338046
v -0.09452333 0.294714 0.08509654
v -0.2414282 0.2429655 0.08509651
v -0.3447514 0.1657525 -0.07338046
v -0.3452186 0.2216749 -0.07338043
v -0.0951132 0.2663635 0.08509652
v -0.2307815 0.2057066 0.08509647
v -0.3446296 0.0997529 -0.0733805
v -0.3447514 0.1657525 -0.07338046
v -0.2414282 0.2429655 0.08509651
v -0.3452184 0.2216748 0.08509652
v -0.2471653 0.02322662 -0.07338057
v -0.3446296 0.0997529 -0.0733805
v -0.2307815 0.2057066 0.08509647
v -0.3447517 0.1657525 0.08509647
v -0.2471653 0.02322662 -0.07338057
v -0.3452184 0.2216748 0.08509652
v -0.2800818 0.01816583 -0.07338057
v -0.3446295 0.09975278 0.08509644
v -0.3581331 0.00616622 -0.07338056
v -0.2471652 0.02322638 0.08509637
v -0.3581331 0.006165981 0.04500727
v -0.3581331 0.00616622 -0.07338056
v -0.3446295 0.09975278 0.08509644
v -0.2800819 0.01816583 0.08509637
v -0.3581332 0.00616622 0.08509634
v -0.3581331 0.006165981 0.04500727
v -0.2471652 0.02322638 0.08509637
vt 0.7946364 0.5941236
vt 0.8019261 0.5891293
vt 0.7755359 0.4765126
vt 0.6575475 0.6321131
vt 0.6528068 0.6332767
vt 0.7757093 0.4767448
vt 0.7757093 0.4767448
vt 0.7757106 0.4766679
vt 0.6575475 0.6321131
vt 0.7757106 0.4766679
vt 0.682001 0.6261207
vt 0.6575475 0.6321131
vt 0.7757106 0.4766679
vt 0.6588292 0.6188416
vt 0.682001 0.6261207
vt 0.6851358 0.4409398
vt 0.6857526 0.4045042
vt 0.7023737 0.391613
vt 0.682018 0.6251112
vt 0.6588292 0.6188416
vt 0.6766193 0.4346336
vt 0.6530777 0.6172871
vt 0.656425 0.4196807
vt 0.7507838 0.5980798
vt 0.7342964 0.4089894
vt 0.7163875 0.3806099
vt 0.7755996 0.4271215
vt 0.7416521 0.3993765
vt 0.7725119 0.609274
vt 0.7837301 0.4217489
vt 0.7946364 0.5941236
vt 0.8049996 0.4076939
vt 0.8019261 0.5891293
vt 0.7342965 0.4089894
vt 0.7163875 0.3806099
vt 0.7023737 0.391613
vt 0.7491782 0.5912321
vt 0.7755996 0.4271215
vt 0.741652 0.3993763
vt 0.7550519 0.6162831
vt 0.7723492 0.6188733
vt 0.7945936 0.5934466
vt 0.78373 0.4217489
vt 0.8019962 0.5849902
vt 0.8049996 0.4076939
vt 0.7134172 0.6031364
vt 0.682001 0.6261207
vt 0.7109062 0.6233977
vt 0.6851358 0.4409398
vt 0.6857526 0.4045041
vt 0.6766193 0.4346337
vt 0.6575475 0.6321131
vt 0.656425 0.4196807
vt 0.6528068 0.6332767
vt 0.7757092 0.4767603
vt 0.7757289 0.4755269
vt 0.7757289 0.4755269
vt 0.7757093 0.4767448
vt 0.7757093 0.4767448
vt 0.7757289 0.4755269
vt 0.7757289 0.4755269
vt 0.7757106 0.4766679
vt 0.7755533 0.47543
vt 0.7755359 0.4765126
vt 0.7755365 0.4764777
vt 0.7755533 0.47543
vt 0.7755535 0.47543
vt 0.7755368 0.4764538
vt 0.7755359 0.4765126
vt 0.7755533 0.47543
vt 0.7755368 0.4764538
vt 0.7945936 0.5934466
vt 0.7755359 0.4765126
vt 0.7946364 0.5941236
vt 0.7723492 0.6188733
vt 0.7550519 0.6162831
vt 0.7491782 0.5912321
vt 0.7945936 0.5934466
vt 0.7725119 0.609274
vt 0.7946364 0.5941236
vt 0.7945936 0.5934466
vt 0.7491782 0.5912321
vt 0.7507838 0.5980798
vt 0.7134172 0.6031364
vt 0.7109062 0.6233977
vt 0.6588292 0.6188416
vt 0.682018 0.6251112
vt 0.682001 0.6261207
vt 0.7109062 0.6233977
vt 0.7507838 0.5980798
vt 0 0
vt 0 0
vt 0 0
vt 0 0
vt 0 0
vt 0 0
vt 0 0
vt 0 0
vt 0 0
vt 0 0
vt 0 0
vt 0 0
vt 0 0
vt 0 0
vt 0 0
vt 0 0
vt 0 0
vt 0 0
vt 0 0
vt 0 0
vt 0 0
vt 0 0
vt 0 0
vt 0 0
vt 0 0
vt 0 0
vt 0 0
vt 0 0
vt 0 0
vt 0 0
vt 0 0
vt 0 0
vt 0 0
vt 0 0
vt 0 0
vt 0 0
vt 0 0
vt 0 0
vt 0 0
vt 0 0
vt 0 0
vt 0 0
vn 0.893629 -0.4450935 0.05761028
vn 0.893629 -0.4450935 0.05761028
vn 0.893629 -0.4450935 0.05761028
vn 0.893629 -0.4450935 0.05761028
vn 0.893629 -0.4450935 0.05761028
vn 0.893629 -0.4450935 0.05761028
vn 0.893629 -0.4450935 0.05761028
vn 0.893629 -0.4450935 0.05761028
vn 0.893629 -0.4450935 0.05761028
vn 0.893629 -0.4450935 0.05761028
vn 0.893629 -0.4450935 0.05761028
vn 0.893629 -0.4450935 0.05761028
vn 0.893629 -0.4450935 0.05761028
vn 0.893629 -0.4450935 0.05761028
vn 0.893629 -0.4450935 0.05761028
vn 1.495865E-07 -6.275161E-07 1
vn 1.586132E-07 -6.524561E-07 1
vn 1.413623E-07 -7.057027E-07 1
vn 1.480387E-07 -6.232398E-07 1
vn 0 -8.140942E-07 1
vn 0 -9.838668E-07 1
vn -1.124822E-07 -1.136686E-06 1
vn -1.124822E-07 -1.136686E-06 1
vn 1.430079E-07 -7.006237E-07 1
vn 1.317051E-07 -7.35511E-07 1
vn 1.317051E-07 -7.35511E-07 1
vn 1.376063E-07 -6.220223E-07 1
vn 1.317051E-07 -7.35511E-07 1
vn 1.37374E-07 -6.264901E-07 1
vn 1.846736E-07 -7.23295E-07 1
vn 1.622958E-07 -6.029263E-07 1
vn 2.035488E-07 -8.248236E-07 1
vn 2.035488E-07 -8.248236E-07 1
vn -1.284604E-07 6.788347E-07 -1
vn -1.284604E-07 6.788347E-07 -1
vn -1.266765E-07 6.671682E-07 -1
vn -1.267568E-07 6.676938E-07 -1
vn -1.721275E-07 5.112839E-07 -1
vn -1.284604E-07 6.788347E-07 -1
vn -1.284604E-07 6.788347E-07 -1
vn -1.57011E-07 5.692856E-07 -1
vn -2.057009E-07 4.391153E-07 -1
vn -1.808169E-07 6.511177E-07 -1
vn -1.637475E-07 7.965428E-07 -1
vn -1.637475E-07 7.965428E-07 -1
vn -1.234898E-07 6.463281E-07 -1
vn -1.27453E-07 6.881112E-07 -1
vn -1.234898E-07 6.463281E-07 -1
vn -1.265973E-07 6.790897E-07 -1
vn -1.234898E-07 6.463281E-07 -1
vn -1.635611E-07 5.274084E-07 -1
vn -1.580162E-07 5.605755E-07 -1
vn -1.763967E-07 4.506306E-07 -1
vn -1.763967E-07 4.506306E-07 -1
vn -0.6175661 -0.786519 -1.138725E-06
vn -0.6175661 -0.786519 -1.138725E-06
vn -0.617566 -0.7865191 -6.973372E-07
vn -0.617566 -0.786519 -8.494869E-07
vn -0.617566 -0.786519 -8.494869E-07
vn -0.617566 -0.7865191 -6.973372E-07
vn -0.617566 -0.7865191 -3.221862E-07
vn -0.617566 -0.7865191 -3.221862E-07
vn 0.6175658 0.7865192 8.889219E-07
vn 0.6175658 0.7865193 7.190387E-07
vn 0.6175659 0.7865192 -9.256095E-07
vn 0.6175659 0.7865192 -9.256095E-07
vn 0.6175657 0.7865193 2.431164E-06
vn 0.6175657 0.7865193 2.431164E-06
vn 0.6175658 0.7865193 7.190387E-07
vn 0.6175658 0.7865192 8.889219E-07
vn 0.893629 -0.4450935 0.05761028
vn 0.893629 -0.4450935 0.05761028
vn 0.893629 -0.4450935 0.05761028
vn 0.893629 -0.4450935 0.05761028
vn 0.893629 -0.4450935 0.05761028
vn 0.893629 -0.4450935 0.05761028
vn 0.893629 -0.4450935 0.05761028
vn 0.893629 -0.4450935 0.05761028
vn 0.893629 -0.4450935 0.05761028
vn 0.893629 -0.4450935 0.05761028
vn 0.893629 -0.4450935 0.05761028
vn 0.893629 -0.4450935 0.05761028
vn 0.893629 -0.4450935 0.05761028
vn 0.893629 -0.4450935 0.05761028
vn 0.893629 -0.4450935 0.05761028
vn 0.893629 -0.4450935 0.05761028
vn 0.893629 -0.4450935 0.05761028
vn 0.893629 -0.4450935 0.05761028
vn 0.893629 -0.4450935 0.05761028
vn 0.893629 -0.4450935 0.05761028
vn -0.9997836 0.0208039 -2.264148E-06
vn -0.9997836 0.0208039 -2.264148E-06
vn -0.9997836 0.0208039 -2.264148E-06
vn -0.9997836 0.0208039 -2.264148E-06
vn -0.4998649 0.7302666 -0.4656669
vn -0.4998649 0.7302666 -0.4656669
vn -0.4998649 0.7302666 -0.4656669
vn -0.4998649 0.7302666 -0.4656669
vn -0.7224144 -0.05902319 0.6889366
vn -0.7224144 -0.05902319 0.6889366
vn -0.7224144 -0.05902319 0.6889366
vn -0.7224144 -0.05902319 0.6889366
vn -0.1028226 0.9551865 -0.2775721
vn -0.1028226 0.9551865 -0.2775721
vn -0.1028226 0.9551865 -0.2775721
vn -0.1028226 0.9551865 -0.2775721
vn -0.4689483 0.862263 0.1912853
vn -0.4689483 0.862263 0.1912853
vn -0.4689483 0.862263 0.1912853
vn -0.4689483 0.862263 0.1912853
vn -0.7989593 -0.08332141 0.595585
vn -0.7989593 -0.08332141 0.595585
vn -0.7989593 -0.08332141 0.595585
vn -0.7989593 -0.08332141 0.595585
vn -0.9421142 0.2640464 -0.2066405
vn -0.9421142 0.2640464 -0.2066405
vn -0.9421142 0.2640464 -0.2066405
vn -0.9421142 0.2640464 -0.2066405
vn -0.6289046 0.4108877 -0.6600381
vn -0.6349113 0.3378438 -0.6948016
vn -0.6349113 0.3378438 -0.6948016
vn -0.6230751 0.4550031 -0.6361994
vn -0.5925933 0.5920599 -0.546167
vn -0.5925933 0.5920599 -0.546167
vn -0.8053425 -0.1314176 0.5780595
vn -0.8053425 -0.1314176 0.5780595
vn -0.8053425 -0.1314176 0.5780595
vn -0.8053425 -0.1314176 0.5780595
vn -0.1519542 0.9883875 -7.317575E-06
vn -0.1519542 0.9883875 -7.317575E-06
vn -0.1519542 0.9883875 -7.317575E-06
vn -0.1519542 0.9883875 -7.317575E-06
g Cube.002_0
f 3/3/3 2/2/2 1/1/1
f 6/6/6 5/5/5 4/4/4
f 9/9/9 8/8/8 7/7/7
f 12/12/12 11/11/11 10/10/10
f 15/15/15 14/14/14 13/13/13
f 18/18/18 17/17/17 16/16/16
f 18/18/18 16/16/16 19/19/19
f 19/19/19 16/16/16 20/20/20
f 16/16/16 21/21/21 20/20/20
f 20/20/20 21/21/21 22/22/22
f 21/21/21 23/23/23 22/22/22
f 19/19/19 24/24/24 18/18/18
f 25/25/25 18/18/18 24/24/24
f 25/25/25 26/26/26 18/18/18
f 27/27/27 25/25/25 24/24/24
f 25/25/25 27/27/27 28/28/28
f 24/24/24 29/29/29 27/27/27
f 30/30/30 27/27/27 29/29/29
f 31/31/31 30/30/30 29/29/29
f 32/32/32 30/30/30 31/31/31
f 33/33/33 32/32/32 31/31/31
f 36/36/36 35/35/35 34/34/34
f 37/37/37 36/36/36 34/34/34
f 37/37/37 34/34/34 38/38/38
f 38/38/38 34/34/34 39/39/39
f 40/40/40 37/37/37 38/38/38
f 38/38/38 41/41/41 40/40/40
f 42/42/42 41/41/41 38/38/38
f 43/43/43 42/42/42 38/38/38
f 44/44/44 42/42/42 43/43/43
f 45/45/45 44/44/44 43/43/43
f 36/36/36 37/37/37 46/46/46
f 46/46/46 47/47/47 36/36/36
f 46/46/46 48/48/48 47/47/47
f 47/47/47 49/49/49 36/36/36
f 49/49/49 50/50/50 36/36/36
f 49/49/49 47/47/47 51/51/51
f 47/47/47 52/52/52 51/51/51
f 51/51/51 52/52/52 53/53/53
f 52/52/52 54/54/54 53/53/53
f 57/57/57 56/56/56 55/55/55
f 58/58/58 57/57/57 55/55/55
f 61/61/61 60/60/60 59/59/59
f 62/62/62 61/61/61 59/59/59
f 65/65/65 64/64/64 63/63/63
f 66/66/66 65/65/65 63/63/63
f 69/69/69 68/68/68 67/67/67
f 70/70/70 69/69/69 67/67/67
f 73/73/73 72/72/72 71/71/71
f 72/72/72 73/73/73 74/74/74
f 77/77/77 76/76/76 75/75/75
f 75/75/75 78/78/78 77/77/77
f 81/81/81 80/80/80 79/79/79
f 81/81/81 79/79/79 82/82/82
f 82/82/82 79/79/79 83/83/83
f 84/84/84 82/82/82 83/83/83
f 85/85/85 84/84/84 83/83/83
f 88/88/88 87/87/87 86/86/86
f 88/88/88 89/89/89 87/87/87
f 89/89/89 90/90/90 87/87/87
f 93/93/93 92/92/92 91/91/91
f 94/94/94 93/93/93 91/91/91
f 97/97/97 96/96/96 95/95/95
f 98/98/98 97/97/97 95/95/95
f 101/101/101 100/100/100 99/99/99
f 102/102/102 101/101/101 99/99/99
f 105/105/105 104/104/104 103/103/103
f 106/106/106 105/105/105 103/103/103
f 109/109/109 108/108/108 107/107/107
f 110/110/110 109/109/109 107/107/107
f 113/113/113 112/112/112 111/111/111
f 114/114/114 113/113/113 111/111/111
f 117/117/117 116/116/116 115/115/115
f 118/118/118 117/117/117 115/115/115
f 121/121/121 120/120/120 119/119/119
f 120/120/120 122/122/122 119/119/119
f 119/119/119 122/122/122 123/123/123
f 122/122/122 124/124/124 123/123/123
f 127/127/127 126/126/126 125/125/125
f 128/128/128 127/127/127 125/125/125
f 131/131/131 130/130/130 129/129/129
f 132/132/132 131/131/131 129/129/129
