g Cube.012
v -1.534103 0.03858412 -1.588686
v -1.563167 0.03683387 -1.573872
v -1.563167 0.02612838 -1.563167
v -1.534103 0.01131421 -1.561417
v -1.561417 0.01131419 -1.534103
v 1.534103 0.0113142 -1.561417
v 1.534103 0.03858412 -1.588686
v 1.563167 0.03683387 -1.573872
v 1.563167 0.02612838 -1.563167
v 1.561417 0.0113142 -1.534103
v -1.534103 4.998741E-07 -1.534103
v -1.561417 0.01131321 1.534103
v 1.534103 4.998741E-07 -1.534103
v 1.534103 -4.998741E-07 1.534103
v 1.561417 0.01131319 1.534103
v -1.534103 -4.998741E-07 1.534103
v 1.534103 0.0113132 1.561417
v 1.563167 0.02612736 1.563167
v -1.534103 0.01131318 1.561417
v -1.563167 0.02612736 1.563167
v -1.563167 0.03683285 1.573872
v -1.534103 0.03858308 1.588686
v 1.534103 0.03858308 1.588686
v 1.563167 0.03683285 1.573872
vt 0.02059937 0.996582
vt 0.01151276 0.9916992
vt 0.01151276 0.9882813
vt 0.02059937 0.987793
vt 0.01205444 0.9794922
vt 0.9794922 0.987793
vt 0.9794922 0.996582
vt 0.9882813 0.9916992
vt 0.9882813 0.9882813
vt 0.987793 0.9794922
vt 0.02059937 0.9794922
vt 0.01205444 0.02059937
vt 0.9794922 0.9794922
vt 0.9794922 0.02059937
vt 0.987793 0.02059937
vt 0.02059937 0.02059937
vt 0.9794922 0.01205444
vt 0.9882813 0.01151276
vt 0.02059937 0.01205444
vt 0.01151276 0.01151276
vt 0.01151276 0.008163452
vt 0.02059937 0.003536224
vt 0.9794922 0.003536224
vt 0.9882813 0.008163452
vn -0.1329346 -0.7006836 -0.7006836
vn -0.3029785 -0.6738281 -0.6738281
vn -0.3381348 -0.7519531 -0.565918
vn -0.1761475 -0.8232422 -0.5395508
vn -0.3881836 -0.8979492 -0.2061768
vn 0.1761475 -0.8232422 -0.5395508
vn 0.1329346 -0.7006836 -0.7006836
vn 0.3029785 -0.6738281 -0.6738281
vn 0.3381348 -0.7519531 -0.565918
vn 0.3881836 -0.8979492 -0.2061768
vn -0.1934814 -0.9619141 -0.1934814
vn -0.3881836 -0.8979492 0.2061768
vn 0.1934814 -0.9619141 -0.1934814
vn 0.1934814 -0.9619141 0.1934814
vn 0.3881836 -0.8979492 0.2061768
vn -0.1934814 -0.9619141 0.1934814
vn 0.1761475 -0.8232422 0.5395508
vn 0.3381348 -0.7519531 0.565918
vn -0.1761475 -0.8232422 0.5395508
vn -0.3381348 -0.7519531 0.565918
vn -0.3029785 -0.6738281 0.6738281
vn -0.1329346 -0.7006836 0.7006836
vn 0.1329346 -0.7006836 0.7006836
vn 0.3029785 -0.6738281 0.6738281
g Cube.012_0
f 3/3/3 2/2/2 1/1/1
f 4/4/4 3/3/3 1/1/1
f 5/5/5 3/3/3 4/4/4
f 4/4/4 1/1/1 6/6/6
f 1/1/1 7/7/7 6/6/6
f 7/7/7 8/8/8 6/6/6
f 8/8/8 9/9/9 6/6/6
f 6/6/6 9/9/9 10/10/10
f 11/11/11 5/5/5 4/4/4
f 12/12/12 5/5/5 11/11/11
f 4/4/4 6/6/6 13/13/13
f 13/13/13 6/6/6 10/10/10
f 11/11/11 4/4/4 13/13/13
f 13/13/13 10/10/10 14/14/14
f 13/13/13 14/14/14 11/11/11
f 10/10/10 15/15/15 14/14/14
f 16/16/16 12/12/12 11/11/11
f 14/14/14 16/16/16 11/11/11
f 14/14/14 15/15/15 17/17/17
f 14/14/14 17/17/17 16/16/16
f 15/15/15 18/18/18 17/17/17
f 16/16/16 19/19/19 12/12/12
f 17/17/17 19/19/19 16/16/16
f 19/19/19 20/20/20 12/12/12
f 21/21/21 20/20/20 19/19/19
f 22/22/22 21/21/21 19/19/19
f 23/23/23 22/22/22 19/19/19
f 17/17/17 23/23/23 19/19/19
f 17/17/17 18/18/18 23/23/23
f 18/18/18 24/24/24 23/23/23
