g Cube.012
v -0.1824338 0.1334853 -0.07380632
v -0.2183738 0.0973103 -0.07380633
v -0.1930413 -0.02161336 -0.07380634
v -0.2206478 0.1968858 0.07380625
v -0.1857453 0.1669776 0.07380625
v -0.2091998 0.1798277 0.07380625
v -0.2091998 0.1798277 -0.07380632
v -0.1857453 0.1669776 -0.07380632
v -0.2206478 0.1968856 -0.07380632
v -0.1930413 -0.02161336 0.07380621
v -0.2183738 0.09731054 0.07380623
v -0.1824338 0.1334853 0.07380624
v -0.1962996 -0.2011726 -0.07380638
v -0.1941563 -0.2086226 -0.07380638
v -0.1823092 -0.2145599 -0.07380638
v -0.1751658 -0.1503174 -0.07380638
v -0.163933 -0.2173936 -0.07380638
v 0.09691583 -0.1342189 -0.07380639
v 0.06519306 -0.1297953 -0.07380639
v 0.3354986 -0.2408911 -0.07380641
v -0.03873372 -0.1080422 -0.07380638
v -0.03956306 -0.108856 -0.07380638
v -0.1930413 -0.02161336 -0.07380634
v -0.1436111 0.1465425 -0.07380632
v -0.1824338 0.1334853 -0.07380632
v 0.07474864 0.1280696 -0.07380634
v 0.3396978 -0.1609591 -0.07380639
v 0.4648149 -0.1703066 -0.07380639
v 0.6992508 -0.2652174 -0.07380641
v 0.4616664 -0.1124082 -0.07380639
v 0.397916 -0.04228282 -0.07380638
v 0.3467122 -0.02744102 -0.07380638
v 0.1779777 0.02146769 -0.07380634
v 0.2034776 0.05971766 -0.07380634
v -0.2116619 0.2618544 -0.0738063
v 0.08585298 0.2213955 -0.07380633
v -0.1857453 0.1669776 -0.07380632
v -0.2228294 0.2120812 -0.07380632
v -0.2206478 0.1968856 -0.07380632
v -0.166108 0.1501498 -0.07380632
v -0.191553 0.1654778 -0.07380632
v -0.2091998 0.1798277 -0.07380632
v -0.1912806 0.1367538 -0.07380632
v -0.2065799 0.1252592 -0.07380633
v -0.2164968 0.110822 -0.07380633
v -0.2183738 0.0973103 -0.07380633
v -0.1823092 -0.2145599 0.07380618
v -0.1941563 -0.2086226 0.07380618
v -0.1962996 -0.2011726 0.07380618
v -0.1751658 -0.1503174 0.0738062
v -0.163933 -0.2173936 0.07380618
v 0.09691583 -0.1342189 0.07380618
v 0.3354986 -0.2408911 0.07380617
v 0.3396978 -0.160959 0.07380618
v 0.6992508 -0.2652174 0.07380617
v 0.4648149 -0.1703064 0.07380618
v 0.4616664 -0.1124079 0.0738062
v 0.397916 -0.04228258 0.0738062
v 0.3467122 -0.02744102 0.0738062
v 0.1779777 0.02146769 0.07380621
v 0.06519306 -0.1297953 0.0738062
v 0.07474864 0.1280696 0.07380623
v 0.2034779 0.05971789 0.07380623
v -0.03873372 -0.1080422 0.0738062
v -0.03956306 -0.108856 0.0738062
v -0.1930413 -0.02161336 0.07380621
v -0.1436111 0.1465425 0.07380624
v -0.1824338 0.1334853 0.07380624
v -0.2116619 0.2618544 0.07380626
v 0.08585298 0.2213955 0.07380625
v -0.1857453 0.1669776 0.07380625
v -0.2228294 0.2120812 0.07380625
v -0.2206478 0.1968858 0.07380625
v -0.166108 0.1501498 0.07380624
v -0.191553 0.1654778 0.07380625
v -0.2091998 0.1798277 0.07380625
v -0.1912806 0.1367538 0.07380624
v -0.2065799 0.1252592 0.07380624
v -0.2164968 0.110822 0.07380624
v -0.2183738 0.09731054 0.07380623
v -0.191553 0.1654778 0.07380625
v -0.166108 0.1501498 0.07380624
v -0.166108 0.1501498 -0.07380632
v -0.191553 0.1654778 -0.07380632
v -0.2183738 0.09731054 0.07380623
v -0.1930413 -0.02161336 0.07380621
v -0.1930413 -0.02161336 -0.07380634
v -0.2183738 0.0973103 -0.07380633
v -0.2228294 0.2120812 0.07380625
v -0.2228294 0.2120812 -0.07380632
v -0.2116619 0.2618544 -0.0738063
v -0.2116619 0.2618544 0.07380626
v 0.3354986 -0.2408911 -0.07380641
v -0.163933 -0.2173936 -0.07380638
v -0.163933 -0.2173936 0.07380618
v 0.3354986 -0.2408911 0.07380617
v 0.6992508 -0.2652174 -0.07380641
v 0.6992508 -0.2652174 0.07380617
v 0.06519306 -0.1297953 -0.07380639
v -0.03956306 -0.108856 -0.07380638
v -0.03956306 -0.108856 0.0738062
v 0.06519306 -0.1297953 0.0738062
v -0.1751658 -0.1503174 -0.07380638
v 0.06519306 -0.1297953 -0.07380639
v 0.06519306 -0.1297953 0.0738062
v -0.1751658 -0.1503174 0.0738062
v -0.1930413 -0.02161336 0.07380621
v -0.03956306 -0.108856 0.0738062
v -0.03956306 -0.108856 -0.07380638
v -0.1930413 -0.02161336 -0.07380634
v -0.2228294 0.2120812 0.07380625
v -0.2206478 0.1968858 0.07380625
v -0.2206478 0.1968856 -0.07380632
v -0.2228294 0.2120812 -0.07380632
v -0.2206478 0.1968858 0.07380625
v -0.2091998 0.1798277 0.07380625
v -0.2091998 0.1798277 -0.07380632
v -0.2206478 0.1968856 -0.07380632
v -0.2091998 0.1798277 0.07380625
v -0.191553 0.1654778 0.07380625
v -0.191553 0.1654778 -0.07380632
v -0.2091998 0.1798277 -0.07380632
v -0.2183738 0.0973103 -0.07380633
v -0.2164968 0.110822 -0.07380633
v -0.2164968 0.110822 0.07380624
v -0.2183738 0.09731054 0.07380623
v -0.2164968 0.110822 -0.07380633
v -0.2065799 0.1252592 -0.07380633
v -0.2065799 0.1252592 0.07380624
v -0.2164968 0.110822 0.07380624
v -0.2065799 0.1252592 -0.07380633
v -0.1912806 0.1367538 -0.07380632
v -0.1912806 0.1367538 0.07380624
v -0.2065799 0.1252592 0.07380624
v -0.166108 0.1501498 0.07380624
v -0.1912806 0.1367538 0.07380624
v -0.1912806 0.1367538 -0.07380632
v -0.166108 0.1501498 -0.07380632
v -0.163933 -0.2173936 -0.07380638
v -0.1823092 -0.2145599 -0.07380638
v -0.1823092 -0.2145599 0.07380618
v -0.163933 -0.2173936 0.07380618
v -0.1823092 -0.2145599 -0.07380638
v -0.1941563 -0.2086226 -0.07380638
v -0.1941563 -0.2086226 0.07380618
v -0.1823092 -0.2145599 0.07380618
v -0.1941563 -0.2086226 -0.07380638
v -0.1962996 -0.2011726 -0.07380638
v -0.1962996 -0.2011726 0.07380618
v -0.1941563 -0.2086226 0.07380618
v -0.1962996 -0.2011726 0.07380618
v -0.1962996 -0.2011726 -0.07380638
v -0.1751658 -0.1503174 -0.07380638
v -0.1751658 -0.1503174 0.0738062
v 0.08585298 0.2213955 0.07380625
v -0.2116619 0.2618544 0.07380626
v -0.2116619 0.2618544 -0.0738063
v 0.08585298 0.2213955 -0.07380633
v 0.07474864 0.1280696 -0.07380634
v 0.07474864 0.1280696 0.07380623
v 0.08585298 0.2213955 0.07380625
v 0.08585298 0.2213955 -0.07380633
v 0.2034776 0.05971766 -0.07380634
v 0.2034779 0.05971789 0.07380623
v 0.07474864 0.1280696 0.07380623
v 0.07474864 0.1280696 -0.07380634
v 0.1779777 0.02146769 -0.07380634
v 0.1779777 0.02146769 0.07380621
v 0.2034779 0.05971789 0.07380623
v 0.2034776 0.05971766 -0.07380634
v 0.3467122 -0.02744102 -0.07380638
v 0.1779777 0.02146769 0.07380621
v 0.1779777 0.02146769 -0.07380634
v 0.3467122 -0.02744102 0.0738062
v 0.397916 -0.04228282 -0.07380638
v 0.397916 -0.04228258 0.0738062
v 0.4616664 -0.1124082 -0.07380639
v 0.4616664 -0.1124079 0.0738062
v 0.397916 -0.04228258 0.0738062
v 0.397916 -0.04228282 -0.07380638
v 0.4648149 -0.1703066 -0.07380639
v 0.4648149 -0.1703064 0.07380618
v 0.4616664 -0.1124079 0.0738062
v 0.4616664 -0.1124082 -0.07380639
v 0.6992508 -0.2652174 -0.07380641
v 0.6992508 -0.2652174 0.07380617
v 0.4648149 -0.1703064 0.07380618
v 0.4648149 -0.1703066 -0.07380639
vt 0.360109 0.02503246
vt 0.3264287 0.03497639
vt 0.2849178 0.03696889
vt 0.3630325 0.01982817
vt 0.3799342 0.02301162
vt 0.3869247 0.01616123
vt 0.3869247 0.01616123
vt 0.3799342 0.02301162
vt 0.3630325 0.01982817
vt 0.2849178 0.03696889
vt 0.3264287 0.03497639
vt 0.3601089 0.02503246
vt 0.1665971 0.05124289
vt 0.1622261 0.05207774
vt 0.1590244 0.05551943
vt 0.1974268 0.05533805
vt 0.1578494 0.06064597
vt 0.2211805 0.1012655
vt 0.2229301 0.09243131
vt 0.1577444 0.1981947
vt 0.2329808 0.06324756
vt 0.2324738 0.06304768
vt 0.2849178 0.03696889
vt 0.3689519 0.03522989
vt 0.360109 0.02503246
vt 0.3591253 0.1038012
vt 0.2053956 0.1966847
vt 0.2033112 0.2312584
vt 0.153379 0.2986158
vt 0.2339635 0.2284071
vt 0.2697116 0.208545
vt 0.2764108 0.1940173
vt 0.3025286 0.1368639
vt 0.3228024 0.1449016
vt 0.4019182 0.02012697
vt 0.3978996 0.1088037
vt 0.3799342 0.02301162
vt 0.3720087 0.01872507
vt 0.3630325 0.01982817
vt 0.3704724 0.02894911
vt 0.3788811 0.02147099
vt 0.3869247 0.01616123
vt 0.3618072 0.02250126
vt 0.3545466 0.01869416
vt 0.3456852 0.0164589
vt 0.3264287 0.03497639
vt 0.1590244 0.05551943
vt 0.1622261 0.05207774
vt 0.1665971 0.05124289
vt 0.1974268 0.05533805
vt 0.1578494 0.06064597
vt 0.2211805 0.1012655
vt 0.1577444 0.1981947
vt 0.2053954 0.1966847
vt 0.153379 0.2986158
vt 0.203311 0.2312584
vt 0.2339635 0.2284071
vt 0.2697116 0.2085451
vt 0.2764107 0.1940174
vt 0.3025286 0.1368639
vt 0.2229301 0.09243131
vt 0.3591252 0.1038012
vt 0.3228025 0.1449016
vt 0.2329808 0.06324756
vt 0.2324738 0.06304768
vt 0.2849178 0.03696889
vt 0.3689519 0.03522989
vt 0.3601089 0.02503246
vt 0.4019182 0.02012697
vt 0.3978996 0.1088037
vt 0.3799342 0.02301162
vt 0.3720087 0.01872507
vt 0.3630325 0.01982817
vt 0.3704724 0.02894911
vt 0.3788811 0.02147099
vt 0.3869247 0.01616123
vt 0.3618072 0.02250126
vt 0.3545465 0.01869416
vt 0.3456852 0.0164589
vt 0.3264287 0.03497639
vt 0.3368442 0.471427
vt 0.3367976 0.4714703
vt 0.3367976 0.4714703
vt 0.3368442 0.471427
vt 0.3355339 0.4732777
vt 0.337908 0.47244
vt 0.337908 0.47244
vt 0.3355339 0.4732777
vt 0.3337265 0.4721143
vt 0.3337265 0.4721143
vt 0.3338918 0.4721224
vt 0.3338918 0.4721224
vt 0.3361594 0.4742479
vt 0.3361599 0.4734536
vt 0.3361599 0.4734536
vt 0.3361594 0.4742479
vt 0.3361352 0.4748278
vt 0.3361352 0.4748278
vt 0.3371252 0.4709617
vt 0.3371775 0.470792
vt 0.3371775 0.470792
vt 0.3371252 0.4709617
vt 0.3363788 0.4734229
vt 0.3371252 0.4709617
vt 0.3371252 0.4709617
vt 0.3363788 0.4734229
vt 0.337908 0.47244
vt 0.3371775 0.470792
vt 0.3371775 0.470792
vt 0.337908 0.47244
vt 0.3337265 0.4721143
vt 0.333677 0.4721206
vt 0.333677 0.4721206
vt 0.3337265 0.4721143
vt 0.333677 0.4721206
vt 0.3368884 0.4713964
vt 0.3368884 0.4713964
vt 0.333677 0.4721206
vt 0.3368884 0.4713964
vt 0.3368442 0.471427
vt 0.3368442 0.471427
vt 0.3368884 0.4713964
vt 0.3355339 0.4732777
vt 0.3366607 0.4713981
vt 0.3366607 0.4713981
vt 0.3355339 0.4732777
vt 0.3366607 0.4713981
vt 0.3367093 0.471411
vt 0.3367093 0.471411
vt 0.3366607 0.4713981
vt 0.3367093 0.471411
vt 0.3367497 0.471433
vt 0.3367497 0.471433
vt 0.3367093 0.471411
vt 0.3367976 0.4714703
vt 0.3367497 0.471433
vt 0.3367497 0.471433
vt 0.3367976 0.4714703
vt 0.3361599 0.4734536
vt 0.3361664 0.473424
vt 0.3361664 0.473424
vt 0.3361599 0.4734536
vt 0.3361664 0.473424
vt 0.3361842 0.4734041
vt 0.3361842 0.4734041
vt 0.3361664 0.473424
vt 0.3361842 0.4734041
vt 0.3362082 0.4733993
vt 0.3362082 0.4733993
vt 0.3361842 0.4734041
vt 0.3362082 0.4733993
vt 0.3362082 0.4733993
vt 0.3363788 0.4734229
vt 0.3363788 0.4734229
vt 0.3349454 0.4731932
vt 0.3338918 0.4721224
vt 0.3338918 0.4721224
vt 0.3349454 0.4731932
vt 0 0
vt 0 0
vt 0 0
vt 0 0
vt 0 0
vt 0 0
vt 0 0
vt 0 0
vt 0 0
vt 0 0
vt 0 0
vt 0 0
vt 0 0
vt 0 0
vt 0 0
vt 0 0
vt 0 0
vt 0 0
vt 0 0
vt 0 0
vt 0 0
vt 0 0
vt 0 0
vt 0 0
vt 0 0
vt 0 0
vt 0 0
vt 0 0
vt 0 0
vt 0 0
vn 0 1.999951E-07 -1
vn 0 1.662319E-07 -1
vn 0 1.894346E-07 -1
vn 0 0 1
vn 0 -1.765754E-07 1
vn 0 7.939698E-07 1
vn 0 0 -1
vn 0 0 -1
vn 0 -9.003443E-07 -1
vn 0 -1.788467E-07 1
vn 1.047666E-07 -1.406577E-07 1
vn 0 -3.655784E-07 1
vn 0 0 -1
vn 0 0 -1
vn 0 0 -1
vn 0 0 -1
vn 0 0 -1
vn 0 2.173498E-07 -1
vn 0 3.270401E-06 -1
vn 0 1.932202E-07 -1
vn 0 1.00165E-07 -1
vn 0 -4.257505E-06 -1
vn 0 1.894346E-07 -1
vn 0 1.80734E-07 -1
vn 0 1.999951E-07 -1
vn 0 1.851976E-07 -1
vn 0 1.665165E-07 -1
vn 0 2.238378E-07 -1
vn 0 3.01065E-07 -1
vn 0 0 -1
vn 0 0 -1
vn 0 1.546293E-07 -1
vn 0 2.160424E-07 -1
vn 0 2.160424E-07 -1
vn 0 1.325757E-07 -1
vn 0 1.325757E-07 -1
vn 0 0 -1
vn 0 0 -1
vn 0 -9.003443E-07 -1
vn 0 1.742012E-07 -1
vn 0 0 -1
vn 0 0 -1
vn 2.304366E-07 1.035672E-07 -1
vn 7.513033E-07 -7.741381E-07 -1
vn 5.28161E-07 -1.243362E-07 -1
vn 0 1.662319E-07 -1
vn 0 0 1
vn 0 0 1
vn 0 0 1
vn 0 0 1
vn 0 0 1
vn 0 -1.181874E-07 1
vn 0 -1.086128E-07 1
vn 0 -1.448436E-07 1
vn 0 -1.7974E-07 1
vn 0 -1.815064E-07 1
vn 0 -1.849749E-07 1
vn 0 -1.849749E-07 1
vn 0 -1.837314E-07 1
vn 0 -1.828051E-07 1
vn 5.454118E-07 -7.18537E-07 1
vn 0 -1.835432E-07 1
vn 0 -1.828051E-07 1
vn 3.221033E-07 -3.094634E-07 1
vn 3.280226E-07 3.393619E-07 1
vn 0 -1.788467E-07 1
vn 0 -2.175696E-07 1
vn 0 -3.655784E-07 1
vn 0 -1.848024E-07 1
vn 0 -1.848024E-07 1
vn 0 -1.765754E-07 1
vn 0 -1.485154E-07 1
vn 0 0 1
vn 0 -3.484026E-07 1
vn 0 -7.793595E-07 1
vn 0 7.939698E-07 1
vn 0 -2.071345E-07 1
vn 0 0 1
vn 3.466046E-07 0 1
vn 1.047666E-07 -1.406577E-07 1
vn -0.5160035 -0.8565864 0
vn -0.5160035 -0.8565864 0
vn -0.5160035 -0.8565864 0
vn -0.5160035 -0.8565864 0
vn -0.9780566 -0.2083399 1.037772E-07
vn -0.9780566 -0.2083399 1.037772E-07
vn -0.9780566 -0.2083399 1.037772E-07
vn -0.9780566 -0.2083399 1.037772E-07
vn -0.9757415 0.2189254 0
vn -0.9757415 0.2189254 0
vn -0.9757415 0.2189254 0
vn -0.9757415 0.2189254 0
vn -0.04699637 -0.9988951 0
vn -0.04699637 -0.9988951 0
vn -0.04699637 -0.9988951 0
vn -0.04699637 -0.9988951 0
vn -0.06672709 -0.9977713 0
vn -0.06672709 -0.9977713 0
vn -0.1960092 -0.980602 0
vn -0.1960092 -0.980602 0
vn -0.1960092 -0.980602 0
vn -0.1960092 -0.980602 0
vn -0.08507165 0.9963749 0
vn -0.08507165 0.9963749 0
vn -0.08507165 0.9963749 0
vn -0.08507165 0.9963749 0
vn -0.4941765 -0.8693616 0
vn -0.4941765 -0.8693616 0
vn -0.4941765 -0.8693616 0
vn -0.4941765 -0.8693616 0
vn -0.9898502 -0.142115 1.085673E-07
vn -0.9898502 -0.142115 1.085673E-07
vn -0.9898502 -0.142115 1.085673E-07
vn -0.9898502 -0.142115 1.085673E-07
vn -0.8303386 -0.5572592 4.606751E-07
vn -0.8303386 -0.5572592 4.606751E-07
vn -0.8303386 -0.5572592 4.606751E-07
vn -0.8303386 -0.5572592 4.606751E-07
vn -0.6309084 -0.7758573 0
vn -0.6309084 -0.7758573 0
vn -0.6309084 -0.7758573 0
vn -0.6309084 -0.7758573 0
vn -0.9904888 0.1375934 -2.312553E-07
vn -0.9904888 0.1375934 -2.312553E-07
vn -0.9904888 0.1375934 -2.312553E-07
vn -0.9904888 0.1375934 -2.312553E-07
vn -0.824273 0.5661926 0
vn -0.824273 0.5661926 0
vn -0.824273 0.5661926 0
vn -0.824273 0.5661926 0
vn -0.6006734 0.7994945 0
vn -0.6006734 0.7994945 0
vn -0.6006734 0.7994945 0
vn -0.6006734 0.7994945 0
vn -0.4697864 0.8827801 0
vn -0.4697864 0.8827801 0
vn -0.4697864 0.8827801 0
vn -0.4697864 0.8827801 0
vn -0.1524058 -0.988318 0
vn -0.1524058 -0.988318 0
vn -0.1524058 -0.988318 0
vn -0.1524058 -0.988318 0
vn -0.4480443 -0.8940114 0
vn -0.4480443 -0.8940114 0
vn -0.4480443 -0.8940114 0
vn -0.4480443 -0.8940114 0
vn -0.9610215 -0.2764734 0
vn -0.9610215 -0.2764734 0
vn -0.9610215 -0.2764734 0
vn -0.9610215 -0.2764734 0
vn -0.9234367 0.3837508 0
vn -0.9234367 0.3837508 0
vn -0.9234367 0.3837508 0
vn -0.9234367 0.3837508 0
vn 0.1347494 0.9908797 0
vn 0.1347494 0.9908797 0
vn 0.1347494 0.9908797 0
vn 0.1347494 0.9908797 0
vn 0.9929956 -0.1181513 0
vn 0.9929956 -0.1181513 0
vn 0.9929956 -0.1181513 0
vn 0.9929956 -0.1181513 0
vn 0.4689654 0.8832166 -1.082199E-06
vn 0.4689654 0.8832166 -1.082199E-06
vn 0.4689654 0.8832166 -1.082199E-06
vn 0.4689654 0.8832166 -1.082199E-06
vn 0.8320503 -0.5547003 -2.744884E-07
vn 0.8320503 -0.5547003 -2.744884E-07
vn 0.8320503 -0.5547003 -2.744884E-07
vn 0.8320503 -0.5547003 -2.744884E-07
vn 0.2783963 0.9604663 -4.142138E-07
vn 0.2783968 0.9604662 0
vn 0.2783968 0.9604662 0
vn 0.2783962 0.9604663 -4.142137E-07
vn 0.2783957 0.9604665 -8.284274E-07
vn 0.2783957 0.9604665 -8.284274E-07
vn 0.7399397 0.6726732 -1.065168E-06
vn 0.7399397 0.6726732 -1.065168E-06
vn 0.7399397 0.6726732 -1.065168E-06
vn 0.7399397 0.6726732 -1.065168E-06
vn 0.9985248 0.05429837 0
vn 0.9985248 0.05429837 0
vn 0.9985248 0.05429837 0
vn 0.9985248 0.05429837 0
vn 0.3752614 0.926919 -4.989127E-07
vn 0.3752614 0.926919 -4.989127E-07
vn 0.3752614 0.926919 -4.989127E-07
vn 0.3752614 0.926919 -4.989127E-07
g Cube.012_0
f 3/3/3 2/2/2 1/1/1
f 6/6/6 5/5/5 4/4/4
f 9/9/9 8/8/8 7/7/7
f 12/12/12 11/11/11 10/10/10
f 15/15/15 14/14/14 13/13/13
f 15/15/15 13/13/13 16/16/16
f 17/17/17 15/15/15 16/16/16
f 17/17/17 16/16/16 18/18/18
f 19/19/19 18/18/18 16/16/16
f 20/20/20 17/17/17 18/18/18
f 21/21/21 18/18/18 19/19/19
f 22/22/22 21/21/21 19/19/19
f 23/23/23 21/21/21 22/22/22
f 21/21/21 23/23/23 24/24/24
f 23/23/23 25/25/25 24/24/24
f 18/18/18 21/21/21 26/26/26
f 21/21/21 24/24/24 26/26/26
f 18/18/18 27/27/27 20/20/20
f 20/20/20 27/27/27 28/28/28
f 29/29/29 20/20/20 28/28/28
f 30/30/30 28/28/28 27/27/27
f 27/27/27 31/31/31 30/30/30
f 27/27/27 32/32/32 31/31/31
f 33/33/33 32/32/32 27/27/27
f 27/27/27 18/18/18 33/33/33
f 33/33/33 18/18/18 26/26/26
f 26/26/26 34/34/34 33/33/33
f 26/26/26 24/24/24 35/35/35
f 35/35/35 36/36/36 26/26/26
f 24/24/24 37/37/37 35/35/35
f 37/37/37 38/38/38 35/35/35
f 38/38/38 37/37/37 39/39/39
f 37/37/37 24/24/24 40/40/40
f 40/40/40 24/24/24 25/25/25
f 41/41/41 37/37/37 40/40/40
f 42/42/42 37/37/37 41/41/41
f 43/43/43 40/40/40 25/25/25
f 43/43/43 25/25/25 44/44/44
f 44/44/44 25/25/25 45/45/45
f 45/45/45 25/25/25 46/46/46
f 49/49/49 48/48/48 47/47/47
f 50/50/50 49/49/49 47/47/47
f 50/50/50 47/47/47 51/51/51
f 52/52/52 50/50/50 51/51/51
f 52/52/52 51/51/51 53/53/53
f 53/53/53 54/54/54 52/52/52
f 54/54/54 53/53/53 55/55/55
f 56/56/56 54/54/54 55/55/55
f 54/54/54 56/56/56 57/57/57
f 57/57/57 58/58/58 54/54/54
f 58/58/58 59/59/59 54/54/54
f 54/54/54 59/59/59 60/60/60
f 60/60/60 52/52/52 54/54/54
f 50/50/50 52/52/52 61/61/61
f 62/62/62 52/52/52 60/60/60
f 60/60/60 63/63/63 62/62/62
f 61/61/61 52/52/52 64/64/64
f 62/62/62 64/64/64 52/52/52
f 65/65/65 61/61/61 64/64/64
f 65/65/65 64/64/64 66/66/66
f 67/67/67 66/66/66 64/64/64
f 62/62/62 67/67/67 64/64/64
f 67/67/67 68/68/68 66/66/66
f 69/69/69 67/67/67 62/62/62
f 62/62/62 70/70/70 69/69/69
f 69/69/69 71/71/71 67/67/67
f 69/69/69 72/72/72 71/71/71
f 73/73/73 71/71/71 72/72/72
f 74/74/74 67/67/67 71/71/71
f 68/68/68 67/67/67 74/74/74
f 75/75/75 74/74/74 71/71/71
f 75/75/75 71/71/71 76/76/76
f 77/77/77 68/68/68 74/74/74
f 78/78/78 68/68/68 77/77/77
f 79/79/79 68/68/68 78/78/78
f 80/80/80 68/68/68 79/79/79
f 83/83/83 82/82/82 81/81/81
f 84/84/84 83/83/83 81/81/81
f 87/87/87 86/86/86 85/85/85
f 88/88/88 87/87/87 85/85/85
f 91/91/91 90/90/90 89/89/89
f 92/92/92 91/91/91 89/89/89
f 95/95/95 94/94/94 93/93/93
f 96/96/96 95/95/95 93/93/93
f 96/96/96 93/93/93 97/97/97
f 98/98/98 96/96/96 97/97/97
f 101/101/101 100/100/100 99/99/99
f 102/102/102 101/101/101 99/99/99
f 105/105/105 104/104/104 103/103/103
f 106/106/106 105/105/105 103/103/103
f 109/109/109 108/108/108 107/107/107
f 110/110/110 109/109/109 107/107/107
f 113/113/113 112/112/112 111/111/111
f 114/114/114 113/113/113 111/111/111
f 117/117/117 116/116/116 115/115/115
f 118/118/118 117/117/117 115/115/115
f 121/121/121 120/120/120 119/119/119
f 122/122/122 121/121/121 119/119/119
f 125/125/125 124/124/124 123/123/123
f 126/126/126 125/125/125 123/123/123
f 129/129/129 128/128/128 127/127/127
f 130/130/130 129/129/129 127/127/127
f 133/133/133 132/132/132 131/131/131
f 134/134/134 133/133/133 131/131/131
f 137/137/137 136/136/136 135/135/135
f 138/138/138 137/137/137 135/135/135
f 141/141/141 140/140/140 139/139/139
f 142/142/142 141/141/141 139/139/139
f 145/145/145 144/144/144 143/143/143
f 146/146/146 145/145/145 143/143/143
f 149/149/149 148/148/148 147/147/147
f 150/150/150 149/149/149 147/147/147
f 153/153/153 152/152/152 151/151/151
f 154/154/154 153/153/153 151/151/151
f 157/157/157 156/156/156 155/155/155
f 158/158/158 157/157/157 155/155/155
f 161/161/161 160/160/160 159/159/159
f 162/162/162 161/161/161 159/159/159
f 165/165/165 164/164/164 163/163/163
f 166/166/166 165/165/165 163/163/163
f 169/169/169 168/168/168 167/167/167
f 170/170/170 169/169/169 167/167/167
f 173/173/173 172/172/172 171/171/171
f 172/172/172 174/174/174 171/171/171
f 171/171/171 174/174/174 175/175/175
f 174/174/174 176/176/176 175/175/175
f 179/179/179 178/178/178 177/177/177
f 180/180/180 179/179/179 177/177/177
f 183/183/183 182/182/182 181/181/181
f 184/184/184 183/183/183 181/181/181
f 187/187/187 186/186/186 185/185/185
f 188/188/188 187/187/187 185/185/185
