g Cube.022
v -0.427142 0.1935083 -0.07380626
v -0.01613665 0.2061931 0.07380633
v -0.427142 0.1935083 0.07380633
v -0.01613665 0.2061931 -0.07380626
v 0.2598202 0.2167356 0.07380633
v 0.2598202 0.2167356 -0.07380626
v 0.4039826 0.2243836 0.07380633
v 0.4039826 0.2243836 -0.07380625
v -0.427142 0.1935083 0.07380633
v -0.7014722 0.1891566 0.07380633
v -0.7014719 0.1891566 -0.07380626
v -0.4205083 -0.2246864 0.07380626
v -0.5568833 -0.2268496 0.07380626
v -0.5477899 -0.1503593 0.07380627
v -0.421719 -0.1483584 0.07380627
v -0.009503007 -0.2120016 0.07380626
v -0.01071382 -0.1356683 0.07380627
v 0.266454 -0.201459 0.07380626
v -0.4259313 0.1171803 0.07380632
v -0.01492584 0.1298598 0.07380632
v 0.2652429 -0.1251185 0.07380627
v 0.1468983 0.1385846 0.07380632
v 0.1917698 0.1392948 0.07380632
v 0.323529 -0.1241902 0.07380627
v 0.4226135 -0.127257 0.07380627
v 0.4532484 -0.2054344 0.07380626
v 0.4641963 -0.1489395 0.07380627
v 0.4536745 -0.1340677 0.07380627
v 0.4227165 -0.1268355 0.07380627
v 0.3475572 -0.123806 0.07380627
v 0.4513389 -0.08506145 0.07380627
v 0.3940848 0.126149 0.07380632
v 0.4765095 0.08054104 0.07380631
v 0.454943 0.1105708 0.07380631
v 0.3943102 0.1267003 0.07380632
v 0.2131987 0.1396296 0.07380632
v 0.447386 0.1641398 0.07380632
v 0.4466945 0.2077351 0.07380633
v 0.4039826 0.2243836 0.07380633
v 0.2598202 0.2167356 0.07380633
v -0.01613665 0.2061931 0.07380633
v -0.427142 0.1935083 0.07380633
v -0.7014722 0.1891566 0.07380633
v -0.9107508 0.1094942 0.07380631
v -0.5640125 0.02678603 0.0738063
v -0.7734844 0.04773333 0.0738063
v -0.5593574 -0.07329498 0.07380627
v -0.6873682 -0.1035521 0.07380627
v -0.6524561 -0.01743582 0.07380629
v -0.009503007 -0.2120016 0.07380626
v 0.266454 -0.201459 0.07380626
v 0.266454 -0.201459 -0.07380632
v -0.009503007 -0.2120015 -0.07380632
v -0.4205083 -0.2246864 0.07380626
v -0.4205083 -0.2246863 -0.07380633
v -0.5568833 -0.2268496 0.07380626
v -0.5568833 -0.2268496 -0.07380633
v 0.266454 -0.201459 0.07380626
v 0.4532484 -0.2054344 0.07380626
v 0.4532484 -0.2054344 -0.07380632
v 0.266454 -0.201459 -0.07380632
v 0.4765095 0.08054104 -0.07380627
v 0.4513389 -0.08506142 -0.0738063
v 0.4513389 -0.08506145 0.07380627
v 0.4765095 0.08054104 0.07380631
v 0.447386 0.1641398 -0.07380626
v 0.2131987 0.1396296 -0.07380626
v 0.2131987 0.1396296 0.07380632
v 0.447386 0.1641398 0.07380632
v 0.4532484 -0.2054344 -0.07380632
v 0.4532484 -0.2054344 0.07380626
v 0.4641963 -0.1489395 0.07380627
v 0.4641963 -0.1489395 -0.07380632
v 0.3475572 -0.123806 0.07380627
v 0.4513389 -0.08506145 0.07380627
v 0.4513389 -0.08506142 -0.0738063
v 0.3475572 -0.123806 -0.07380631
v 0.4039826 0.2243836 -0.07380625
v 0.4466945 0.2077351 -0.07380626
v 0.4466945 0.2077351 0.07380633
v 0.4039826 0.2243836 0.07380633
v 0.447386 0.1641398 -0.07380626
v 0.447386 0.1641398 0.07380632
v 0.4466945 0.2077351 0.07380633
v 0.4466945 0.2077351 -0.07380626
v 0.4765095 0.08054104 0.07380631
v 0.454943 0.1105708 0.07380631
v 0.454943 0.1105708 -0.07380627
v 0.4765095 0.08054104 -0.07380627
v 0.454943 0.1105708 0.07380631
v 0.3943102 0.1267003 0.07380632
v 0.3943102 0.1267003 -0.07380627
v 0.454943 0.1105708 -0.07380627
v 0.2131987 0.1396296 -0.07380626
v 0.3943102 0.1267003 -0.07380627
v 0.3943102 0.1267003 0.07380632
v 0.2131987 0.1396296 0.07380632
v 0.4641963 -0.1489395 0.07380627
v 0.4536745 -0.1340677 0.07380627
v 0.4536745 -0.1340676 -0.07380632
v 0.4641963 -0.1489395 -0.07380632
v 0.4536745 -0.1340677 0.07380627
v 0.4227165 -0.1268355 0.07380627
v 0.4227165 -0.1268354 -0.07380631
v 0.4536745 -0.1340676 -0.07380632
v 0.4227165 -0.1268355 0.07380627
v 0.3475572 -0.123806 0.07380627
v 0.3475572 -0.123806 -0.07380631
v 0.4227165 -0.1268354 -0.07380631
v -0.9107508 0.1094942 -0.07380627
v -0.427142 0.1935083 -0.07380626
v -0.7014719 0.1891566 -0.07380626
v -0.4259313 0.1171803 -0.07380627
v -0.01613665 0.2061931 -0.07380626
v -0.5640125 0.02678609 -0.07380629
v -0.7734843 0.0477334 -0.07380627
v -0.01492584 0.1298598 -0.07380626
v 0.2598202 0.2167356 -0.07380626
v -0.5477899 -0.1503593 -0.07380632
v -0.5593573 -0.07329493 -0.0738063
v -0.6524561 -0.0174358 -0.07380629
v -0.6873682 -0.103552 -0.0738063
v -0.421719 -0.1483583 -0.07380632
v -0.5568833 -0.2268496 -0.07380633
v -0.4205083 -0.2246863 -0.07380633
v -0.01071382 -0.1356682 -0.07380632
v -0.009503007 -0.2120015 -0.07380632
v 0.2652429 -0.1251184 -0.07380631
v 0.266454 -0.201459 -0.07380632
v 0.1468983 0.1385846 -0.07380626
v 0.1917698 0.1392948 -0.07380626
v 0.4039826 0.2243836 -0.07380625
v 0.4466945 0.2077351 -0.07380626
v 0.447386 0.1641398 -0.07380626
v 0.2131987 0.1396296 -0.07380626
v 0.323529 -0.1241902 -0.07380631
v 0.3940848 0.126149 -0.07380627
v 0.3943102 0.1267003 -0.07380627
v 0.454943 0.1105708 -0.07380627
v 0.4765095 0.08054104 -0.07380627
v 0.4513389 -0.08506142 -0.0738063
v 0.3475572 -0.123806 -0.07380631
v 0.4226135 -0.127257 -0.07380631
v 0.4532484 -0.2054344 -0.07380632
v 0.4227165 -0.1268354 -0.07380631
v 0.4641963 -0.1489395 -0.07380632
v 0.4536745 -0.1340676 -0.07380632
v -0.5477899 -0.1503593 -0.07380632
v -0.5477899 -0.1503593 0.07380627
v -0.5568833 -0.2268496 0.07380626
v -0.5568833 -0.2268496 -0.07380633
v -0.6873682 -0.103552 -0.0738063
v -0.6873682 -0.1035521 0.07380627
v -0.5477899 -0.1503593 0.07380627
v -0.5477899 -0.1503593 -0.07380632
v -0.5593573 -0.07329493 -0.0738063
v -0.5593574 -0.07329498 0.07380627
v -0.6873682 -0.1035521 0.07380627
v -0.6873682 -0.103552 -0.0738063
v -0.6524561 -0.0174358 -0.07380629
v -0.6524561 -0.01743582 0.07380629
v -0.5593574 -0.07329498 0.07380627
v -0.5593573 -0.07329493 -0.0738063
v -0.5640125 0.02678609 -0.07380629
v -0.5640125 0.02678603 0.0738063
v -0.6524561 -0.01743582 0.07380629
v -0.6524561 -0.0174358 -0.07380629
v -0.7734843 0.0477334 -0.07380627
v -0.5640125 0.02678603 0.0738063
v -0.5640125 0.02678609 -0.07380629
v -0.7734844 0.04773333 0.0738063
v -0.9107508 0.1094942 -0.07380627
v -0.9107508 0.1094942 0.07380631
v -0.7014719 0.1891566 -0.07380626
v -0.7014722 0.1891566 0.07380633
v -0.9107508 0.1094942 0.07380631
v -0.9107508 0.1094942 -0.07380627
vt 0.3358002 0.4770253
vt 0.3466072 0.4818988
vt 0.3358002 0.4770253
vt 0.3466072 0.4818988
vt 0.3466145 0.4824015
vt 0.3466145 0.4824015
vt 0.3466256 0.482664
vt 0.3466256 0.482664
vt 0.3358002 0.4770253
vt 0.3358128 0.4765251
vt 0.3358128 0.4765251
vt 0.1424876 0.6913942
vt 0.1436274 0.648339
vt 0.1890082 0.6502865
vt 0.1879553 0.6900885
vt 0.1531656 0.8248947
vt 0.1986366 0.8235887
vt 0.15453 0.9119427
vt 0.3290751 0.6852564
vt 0.3397497 0.8187568
vt 0.2000053 0.9106368
vt 0.3420638 0.8697721
vt 0.3416876 0.8839385
vt 0.1995205 0.9290385
vt 0.1959303 0.9603766
vt 0.1488376 0.9709997
vt 0.1822802 0.9737751
vt 0.1913225 0.9702712
vt 0.1961793 0.960404
vt 0.1993215 0.9366243
vt 0.2205427 0.9689407
vt 0.3302591 0.9480097
vt 0.3016364 0.9745995
vt 0.3199002 0.9674234
vt 0.330583 0.9480742
vt 0.3415059 0.8907042
vt 0.3519303 0.9643884
vt 0.3778996 0.9636424
vt 0.3885732 0.9499481
vt 0.3865855 0.9044991
vt 0.3852211 0.817451
vt 0.3745429 0.6839507
vt 0.3768356 0.5973414
vt 0.3331295 0.5321931
vt 0.2833769 0.6428256
vt 0.2980193 0.5763728
vt 0.2301375 0.6456159
vt 0.2162139 0.6055736
vt 0.2613714 0.6154675
vt 0.3468821 0.4819694
vt 0.3468899 0.4824721
vt 0.3468899 0.4824721
vt 0.3468821 0.4819694
vt 0.3360755 0.4770958
vt 0.3360755 0.4770958
vt 0.3360817 0.4768472
vt 0.3360817 0.4768472
vt 0.3468899 0.4824721
vt 0.3468584 0.4828131
vt 0.3468584 0.4828131
vt 0.3468899 0.4824721
vt 0.3461448 0.4828063
vt 0.3472546 0.4828013
vt 0.3472546 0.4828013
vt 0.3461448 0.4828063
vt 0.3464231 0.4827474
vt 0.3463652 0.4823219
vt 0.3463652 0.4823219
vt 0.3464231 0.4827474
vt 0.3468584 0.4828131
vt 0.3468584 0.4828131
vt 0.3470431 0.4828291
vt 0.3470431 0.4828291
vt 0.3471375 0.4826146
vt 0.3472546 0.4828013
vt 0.3472546 0.4828013
vt 0.3471375 0.4826146
vt 0.3466256 0.482664
vt 0.3465665 0.482743
vt 0.3465665 0.482743
vt 0.3466256 0.482664
vt 0.3464231 0.4827474
vt 0.3464231 0.4827474
vt 0.3465665 0.482743
vt 0.3465665 0.482743
vt 0.3461448 0.4828063
vt 0.3462458 0.4827648
vt 0.3462458 0.4827648
vt 0.3461448 0.4828063
vt 0.3462458 0.4827648
vt 0.3463053 0.4826531
vt 0.3463053 0.4826531
vt 0.3462458 0.4827648
vt 0.3463652 0.4823219
vt 0.3463053 0.4826531
vt 0.3463053 0.4826531
vt 0.3463652 0.4823219
vt 0.3470431 0.4828291
vt 0.3470929 0.4828089
vt 0.3470929 0.4828089
vt 0.3470431 0.4828291
vt 0.3470929 0.4828089
vt 0.34712 0.4827519
vt 0.34712 0.4827519
vt 0.3470929 0.4828089
vt 0.34712 0.4827519
vt 0.3471375 0.4826146
vt 0.3471375 0.4826146
vt 0.34712 0.4827519
vt 0.3331295 0.5321931
vt 0.3745429 0.6839507
vt 0.3768356 0.5973415
vt 0.3290751 0.6852564
vt 0.3852211 0.817451
vt 0.2833768 0.6428255
vt 0.2980194 0.5763729
vt 0.3397498 0.8187568
vt 0.3865855 0.9044991
vt 0.1890082 0.6502864
vt 0.2301375 0.645616
vt 0.2613714 0.6154675
vt 0.2162139 0.6055736
vt 0.1879553 0.6900885
vt 0.1436274 0.648339
vt 0.1424876 0.6913942
vt 0.1986366 0.8235887
vt 0.1531656 0.8248947
vt 0.2000053 0.9106368
vt 0.15453 0.9119427
vt 0.3420638 0.8697721
vt 0.3416876 0.8839385
vt 0.3885732 0.9499481
vt 0.3778996 0.9636424
vt 0.3519303 0.9643884
vt 0.3415059 0.8907042
vt 0.1995205 0.9290385
vt 0.3302591 0.9480097
vt 0.330583 0.9480742
vt 0.3199002 0.9674234
vt 0.3016364 0.9745995
vt 0.2205427 0.9689407
vt 0.1993215 0.9366243
vt 0.1959303 0.9603766
vt 0.1488376 0.9709997
vt 0.1961793 0.960404
vt 0.1822802 0.9737751
vt 0.1913225 0.9702712
vt 0 0
vt 0 0
vt 0 0
vt 0 0
vt 0 0
vt 0 0
vt 0 0
vt 0 0
vt 0 0
vt 0 0
vt 0 0
vt 0 0
vt 0 0
vt 0 0
vt 0 0
vt 0 0
vt 0 0
vt 0 0
vt 0 0
vt 0 0
vt 0 0
vt 0 0
vt 0 0
vt 0 0
vt 0 0
vt 0 0
vt 0 0
vt 0 0
vt 0 0
vt 0 0
vn -0.03084822 0.9995241 0
vn -0.03451223 0.9994042 0
vn -0.03084822 0.9995241 0
vn -0.03451223 0.9994042 0
vn -0.03817579 0.9992711 0
vn -0.03817579 0.9992711 0
vn -0.05297646 0.9985958 0
vn -0.05297646 0.9985958 0
vn -0.01586072 0.9998742 0
vn -0.1886521 0.982044 -2.37611E-07
vn -0.1886517 0.9820441 -2.376105E-07
vn 0 0 1
vn 0 0 1
vn 0 -1.598987E-07 1
vn 0 -1.404273E-07 1
vn 0 0 1
vn 0 -1.299373E-07 1
vn 0 0 1
vn 0 -1.861683E-07 1
vn 0 -1.654558E-07 1
vn 0 -1.378382E-07 1
vn 0 -1.560867E-07 1
vn 0 0 1
vn 0 0 1
vn 0 5.673594E-06 1
vn 0 0 1
vn 0 0 1
vn 0 0 1
vn 0 1.144679E-05 1
vn 0 3.396296E-06 1
vn 0 -1.874801E-07 1
vn 0 -1.096758E-06 1
vn 0 0 1
vn 1.498505E-07 5.889284E-07 1
vn 0 -3.657899E-06 1
vn 0 5.712634E-06 1
vn 0 -2.203905E-07 1
vn 0 -2.58714E-07 1
vn 0 -2.58714E-07 1
vn 0 -2.326707E-07 1
vn 0 -1.646548E-07 1
vn 0 -1.888491E-07 1
vn 0 -1.6069E-07 1
vn 0 -1.809921E-07 1
vn 0 -1.970922E-07 1
vn 0 -1.970922E-07 1
vn 0 -1.970922E-07 1
vn 0 -1.970922E-07 1
vn 0 -1.970922E-07 1
vn 0.0345122 -0.9994042 -2.014928E-07
vn 0.03817573 -0.9992711 -2.005125E-07
vn 0.03817573 -0.9992711 -2.005125E-07
vn 0.0345122 -0.9994042 -2.014928E-07
vn 0.03084822 -0.9995241 -2.024705E-07
vn 0.03084822 -0.9995241 -2.024705E-07
vn 0.01586077 -0.9998742 -1.465794E-07
vn 0.01586077 -0.9998742 -1.465794E-07
vn -0.02127713 -0.9997737 -1.520259E-07
vn -0.02127713 -0.9997737 -1.520259E-07
vn -0.02127713 -0.9997737 -1.520259E-07
vn -0.02127713 -0.9997737 -1.520259E-07
vn 0.9886452 -0.1502687 2.426767E-07
vn 0.9886452 -0.1502687 2.426767E-07
vn 0.9886452 -0.1502687 2.426767E-07
vn 0.9886452 -0.1502687 2.426767E-07
vn 0.104092 -0.9945678 0
vn 0.104092 -0.9945678 0
vn 0.104092 -0.9945678 0
vn 0.104092 -0.9945678 0
vn 0.9817362 -0.1902472 0
vn 0.9817362 -0.1902472 0
vn 0.9817362 -0.1902472 0
vn 0.9817362 -0.1902472 0
vn 0.3497497 -0.9368432 -1.391293E-07
vn 0.3497497 -0.9368432 -1.391293E-07
vn 0.3497497 -0.9368432 -1.391293E-07
vn 0.3497497 -0.9368432 -1.391293E-07
vn 0.3631732 0.9317217 0
vn 0.3631732 0.9317217 0
vn 0.3631732 0.9317217 0
vn 0.3631732 0.9317217 0
vn 0.9998742 0.01586058 0
vn 0.9998742 0.01586058 0
vn 0.9998742 0.01586058 0
vn 0.9998742 0.01586058 0
vn 0.8122377 0.5833266 0
vn 0.8122377 0.5833266 0
vn 0.8122377 0.5833266 0
vn 0.8122377 0.5833266 0
vn 0.2570795 0.9663903 0
vn 0.2570795 0.9663903 0
vn 0.2570795 0.9663903 0
vn 0.2570795 0.9663903 0
vn 0.07120745 0.9974616 0
vn 0.07120745 0.9974616 0
vn 0.07120745 0.9974616 0
vn 0.07120745 0.9974616 0
vn 0.816346 0.5775631 0
vn 0.816346 0.5775631 0
vn 0.816346 0.5775631 0
vn 0.816346 0.5775631 0
vn 0.2274885 0.9737808 1.4617E-07
vn 0.2274885 0.9737808 1.4617E-07
vn 0.2274885 0.9737808 1.4617E-07
vn 0.2274885 0.9737808 1.4617E-07
vn 0.04027358 0.9991887 0
vn 0.04027358 0.9991887 0
vn 0.04027358 0.9991887 0
vn 0.04027358 0.9991887 0
vn 0 2.01483E-07 -1
vn 0 1.591055E-07 -1
vn 0 1.76508E-07 -1
vn 0 1.776319E-07 -1
vn 0 1.276612E-07 -1
vn 0 2.212889E-07 -1
vn 0 2.212889E-07 -1
vn 0 1.547096E-07 -1
vn 0 0 -1
vn 0 2.227457E-07 -1
vn 0 2.212889E-07 -1
vn 0 2.212889E-07 -1
vn 0 2.212889E-07 -1
vn 0 2.040452E-07 -1
vn 0 2.251399E-07 -1
vn 0 2.120792E-07 -1
vn 0 1.820851E-07 -1
vn 0 1.838525E-07 -1
vn 0 1.522108E-07 -1
vn 0 1.475925E-07 -1
vn 0 1.311066E-07 -1
vn 0 1.259113E-07 -1
vn 0 0 -1
vn 0 0 -1
vn 0 0 -1
vn 0 2.320589E-06 -1
vn 0 2.197064E-07 -1
vn 0 1.300267E-06 -1
vn 0 1.749135E-06 -1
vn 0 0 -1
vn 0 1.108135E-07 -1
vn 0 1.626105E-07 -1
vn 0 3.893592E-06 -1
vn 0 1.889297E-06 -1
vn 0 1.269273E-07 -1
vn -1.219151E-07 3.00957E-06 -1
vn 0 1.011327E-07 -1
vn -2.835956E-07 0 -1
vn -0.9930074 0.1180518 0
vn -0.9930074 0.1180518 0
vn -0.9930074 0.1180518 0
vn -0.9930074 0.1180518 0
vn -0.3179465 -0.9481087 -2.571393E-07
vn -0.3179465 -0.9481087 -2.571393E-07
vn -0.3179465 -0.9481087 -2.571393E-07
vn -0.3179465 -0.9481087 -2.571393E-07
vn -0.2300252 0.9731846 2.877906E-07
vn -0.2300252 0.9731846 2.877906E-07
vn -0.2300252 0.9731846 2.877906E-07
vn -0.2300252 0.9731846 2.877906E-07
vn -0.5144947 -0.8574935 -4.648934E-07
vn -0.5144947 -0.8574935 -4.648934E-07
vn -0.5144947 -0.8574935 -4.648934E-07
vn -0.5144947 -0.8574935 -4.648934E-07
vn -0.447214 0.894427 2.552202E-07
vn -0.447214 0.894427 2.552202E-07
vn -0.447214 0.894427 2.552202E-07
vn -0.447214 0.894427 2.552202E-07
vn -0.2582729 -0.966072 -3.976195E-07
vn -0.09950428 -0.9950371 -4.495537E-07
vn -0.09950428 -0.9950371 -4.495537E-07
vn -0.258273 -0.966072 -3.976195E-07
vn -0.4103145 -0.9119441 -3.353287E-07
vn -0.4103145 -0.9119441 -3.353287E-07
vn -0.1886517 0.9820441 -2.376105E-07
vn -0.1886521 0.982044 -2.37611E-07
vn -0.3557506 0.934581 -4.508049E-07
vn -0.3557506 0.934581 -4.508049E-07
g Cube.022_0
f 3/3/3 2/2/2 1/1/1
f 2/2/2 4/4/4 1/1/1
f 2/2/2 5/5/5 4/4/4
f 5/5/5 6/6/6 4/4/4
f 5/5/5 7/7/7 6/6/6
f 7/7/7 8/8/8 6/6/6
f 10/10/10 9/9/9 1/1/1
f 11/11/11 10/10/10 1/1/1
f 14/14/14 13/13/13 12/12/12
f 15/15/15 14/14/14 12/12/12
f 12/12/12 16/16/16 15/15/15
f 16/16/16 17/17/17 15/15/15
f 16/16/16 18/18/18 17/17/17
f 14/14/14 15/15/15 19/19/19
f 17/17/17 20/20/20 15/15/15
f 20/20/20 19/19/19 15/15/15
f 18/18/18 21/21/21 17/17/17
f 22/22/22 20/20/20 17/17/17
f 21/21/21 22/22/22 17/17/17
f 23/23/23 22/22/22 21/21/21
f 23/23/23 21/21/21 24/24/24
f 24/24/24 21/21/21 18/18/18
f 25/25/25 24/24/24 18/18/18
f 25/25/25 18/18/18 26/26/26
f 26/26/26 27/27/27 25/25/25
f 28/28/28 25/25/25 27/27/27
f 29/29/29 25/25/25 28/28/28
f 29/29/29 30/30/30 25/25/25
f 30/30/30 24/24/24 25/25/25
f 31/31/31 24/24/24 30/30/30
f 32/32/32 24/24/24 31/31/31
f 32/32/32 23/23/23 24/24/24
f 31/31/31 33/33/33 32/32/32
f 34/34/34 32/32/32 33/33/33
f 35/35/35 32/32/32 34/34/34
f 35/35/35 36/36/36 32/32/32
f 36/36/36 23/23/23 32/32/32
f 37/37/37 23/23/23 36/36/36
f 23/23/23 37/37/37 38/38/38
f 38/38/38 39/39/39 23/23/23
f 39/39/39 40/40/40 23/23/23
f 40/40/40 22/22/22 23/23/23
f 22/22/22 40/40/40 41/41/41
f 20/20/20 22/22/22 41/41/41
f 20/20/20 41/41/41 42/42/42
f 19/19/19 20/20/20 42/42/42
f 42/42/42 43/43/43 19/19/19
f 43/43/43 44/44/44 19/19/19
f 19/19/19 44/44/44 45/45/45
f 44/44/44 46/46/46 45/45/45
f 19/19/19 45/45/45 14/14/14
f 45/45/45 47/47/47 14/14/14
f 14/14/14 47/47/47 48/48/48
f 47/47/47 45/45/45 49/49/49
f 52/52/52 51/51/51 50/50/50
f 53/53/53 52/52/52 50/50/50
f 53/53/53 50/50/50 54/54/54
f 55/55/55 53/53/53 54/54/54
f 55/55/55 54/54/54 56/56/56
f 57/57/57 55/55/55 56/56/56
f 60/60/60 59/59/59 58/58/58
f 61/61/61 60/60/60 58/58/58
f 64/64/64 63/63/63 62/62/62
f 65/65/65 64/64/64 62/62/62
f 68/68/68 67/67/67 66/66/66
f 69/69/69 68/68/68 66/66/66
f 72/72/72 71/71/71 70/70/70
f 73/73/73 72/72/72 70/70/70
f 76/76/76 75/75/75 74/74/74
f 77/77/77 76/76/76 74/74/74
f 80/80/80 79/79/79 78/78/78
f 81/81/81 80/80/80 78/78/78
f 84/84/84 83/83/83 82/82/82
f 85/85/85 84/84/84 82/82/82
f 88/88/88 87/87/87 86/86/86
f 89/89/89 88/88/88 86/86/86
f 92/92/92 91/91/91 90/90/90
f 93/93/93 92/92/92 90/90/90
f 96/96/96 95/95/95 94/94/94
f 97/97/97 96/96/96 94/94/94
f 100/100/100 99/99/99 98/98/98
f 101/101/101 100/100/100 98/98/98
f 104/104/104 103/103/103 102/102/102
f 105/105/105 104/104/104 102/102/102
f 108/108/108 107/107/107 106/106/106
f 109/109/109 108/108/108 106/106/106
f 112/112/112 111/111/111 110/110/110
f 111/111/111 113/113/113 110/110/110
f 111/111/111 114/114/114 113/113/113
f 115/115/115 110/110/110 113/113/113
f 115/115/115 116/116/116 110/110/110
f 114/114/114 117/117/117 113/113/113
f 114/114/114 118/118/118 117/117/117
f 119/119/119 115/115/115 113/113/113
f 119/119/119 120/120/120 115/115/115
f 115/115/115 120/120/120 121/121/121
f 120/120/120 119/119/119 122/122/122
f 113/113/113 123/123/123 119/119/119
f 119/119/119 123/123/123 124/124/124
f 123/123/123 125/125/125 124/124/124
f 126/126/126 123/123/123 113/113/113
f 123/123/123 126/126/126 125/125/125
f 117/117/117 126/126/126 113/113/113
f 126/126/126 127/127/127 125/125/125
f 126/126/126 128/128/128 127/127/127
f 128/128/128 126/126/126 117/117/117
f 128/128/128 129/129/129 127/127/127
f 118/118/118 130/130/130 117/117/117
f 130/130/130 128/128/128 117/117/117
f 131/131/131 130/130/130 118/118/118
f 128/128/128 130/130/130 131/131/131
f 131/131/131 118/118/118 132/132/132
f 131/131/131 132/132/132 133/133/133
f 133/133/133 134/134/134 131/131/131
f 135/135/135 131/131/131 134/134/134
f 129/129/129 128/128/128 136/136/136
f 136/136/136 128/128/128 131/131/131
f 137/137/137 131/131/131 135/135/135
f 136/136/136 131/131/131 137/137/137
f 138/138/138 137/137/137 135/135/135
f 139/139/139 137/137/137 138/138/138
f 140/140/140 137/137/137 139/139/139
f 137/137/137 140/140/140 141/141/141
f 141/141/141 136/136/136 137/137/137
f 142/142/142 136/136/136 141/141/141
f 129/129/129 136/136/136 143/143/143
f 143/143/143 136/136/136 142/142/142
f 144/144/144 129/129/129 143/143/143
f 145/145/145 143/143/143 142/142/142
f 143/143/143 146/146/146 144/144/144
f 147/147/147 143/143/143 145/145/145
f 146/146/146 143/143/143 147/147/147
f 150/150/150 149/149/149 148/148/148
f 151/151/151 150/150/150 148/148/148
f 154/154/154 153/153/153 152/152/152
f 155/155/155 154/154/154 152/152/152
f 158/158/158 157/157/157 156/156/156
f 159/159/159 158/158/158 156/156/156
f 162/162/162 161/161/161 160/160/160
f 163/163/163 162/162/162 160/160/160
f 166/166/166 165/165/165 164/164/164
f 167/167/167 166/166/166 164/164/164
f 170/170/170 169/169/169 168/168/168
f 169/169/169 171/171/171 168/168/168
f 168/168/168 171/171/171 172/172/172
f 171/171/171 173/173/173 172/172/172
f 176/176/176 175/175/175 174/174/174
f 177/177/177 176/176/176 174/174/174
