g Cube.004
v -0.6913603 -0.06991482 -0.0723591
v -0.6913603 -0.06991482 0.07525347
v 0.4338144 -0.3180754 0.0752534
v 0.4338144 -0.3180754 -0.07235918
v 0.5238952 0.09035605 -0.07235911
v 0.5238952 0.09035605 0.07525347
v -0.4695835 0.3094705 0.07525354
v -0.4695836 0.3094707 -0.07235905
v -0.6177187 0.2639807 -0.07235905
v -0.4695836 0.3094707 -0.07235905
v -0.6012796 0.3385166 -0.07235903
v -0.5340195 0.2455199 -0.07235906
v -0.6220289 0.2444382 -0.07235906
v -0.6749213 0.004620969 -0.07235909
v -0.6485774 0.2441118 -0.07235906
v 0.5238952 0.09035605 -0.07235911
v -0.6818995 0.1727074 -0.07235906
v 0.5074539 0.01580995 -0.07235912
v 0.7239187 -0.02854282 -0.07235914
v 0.4502558 -0.2435294 -0.07235917
v -0.7168084 0.09812921 -0.07235908
v -0.7771057 0.1473191 -0.07235906
v -0.832752 0.04241437 -0.07235908
v -0.8104278 0.08860874 -0.07235907
v -0.6913603 -0.06991482 -0.0723591
v 0.4338144 -0.3180754 -0.07235918
v 0.7681621 -0.3086585 -0.07235918
v 0.671998 -0.3668751 -0.07235919
v 0.7785619 -0.1237007 -0.07235915
v 0.8071238 -0.07800198 -0.07235915
v 0.8375899 -0.1484545 -0.07235917
v 0.8620386 -0.2854841 -0.07235919
v 0.871145 -0.2441955 -0.07235918
v 0.878099 -0.2126654 -0.07235917
v 0.7239188 -0.02854282 0.07525344
v 0.8071238 -0.07800198 0.07525343
v 0.7785619 -0.1237008 0.07525343
v 0.7681619 -0.3086585 0.0752534
v 0.8375897 -0.1484545 0.07525343
v 0.8620386 -0.2854841 0.0752534
v 0.878099 -0.2126656 0.07525341
v 0.4502558 -0.2435294 0.07525341
v 0.671998 -0.3668751 0.07525338
v 0.4338144 -0.3180754 0.0752534
v -0.6749213 0.004620969 0.0752535
v -0.6913603 -0.06991482 0.07525347
v -0.832752 0.04241437 0.0752535
v 0.5074539 0.01580995 0.07525346
v 0.5238952 0.09035605 0.07525347
v -0.4695835 0.3094705 0.07525354
v -0.5340196 0.2455199 0.07525353
v -0.6012796 0.3385166 0.07525354
v -0.6177187 0.2639807 0.07525354
v -0.6220288 0.2444384 0.07525354
v -0.6485774 0.244112 0.07525354
v -0.6818995 0.1727074 0.07525352
v -0.7168084 0.09812921 0.07525351
v -0.8104278 0.08860874 0.07525351
v -0.7771057 0.1473192 0.07525352
v 0.7239187 -0.02854282 -0.07235914
v 0.5238952 0.09035605 0.07525347
v 0.5238952 0.09035605 -0.07235911
v 0.7239188 -0.02854282 0.07525344
v 0.8071238 -0.07800198 -0.07235915
v 0.8071238 -0.07800198 0.07525343
v 0.7785619 -0.1237007 -0.07235915
v 0.7785619 -0.1237008 0.07525343
v 0.8071238 -0.07800198 0.07525343
v 0.8071238 -0.07800198 -0.07235915
v 0.8375899 -0.1484545 -0.07235917
v 0.8375897 -0.1484545 0.07525343
v 0.7785619 -0.1237008 0.07525343
v 0.7785619 -0.1237007 -0.07235915
v 0.878099 -0.2126654 -0.07235917
v 0.878099 -0.2126656 0.07525341
v 0.8375897 -0.1484545 0.07525343
v 0.8375899 -0.1484545 -0.07235917
v 0.871145 -0.2441955 -0.07235918
v 0.8620386 -0.2854841 0.0752534
v 0.878099 -0.2126656 0.07525341
v 0.878099 -0.2126654 -0.07235917
v 0.8620386 -0.2854841 -0.07235919
v 0.8620386 -0.2854841 0.0752534
v 0.871145 -0.2441955 -0.07235918
v 0.7681619 -0.3086585 0.0752534
v 0.7681621 -0.3086585 -0.07235918
v 0.671998 -0.3668751 0.07525338
v 0.671998 -0.3668751 -0.07235919
v 0.4338144 -0.3180754 0.0752534
v 0.4338144 -0.3180754 -0.07235918
v -0.832752 0.04241437 -0.07235908
v -0.832752 0.04241437 0.0752535
v -0.6913603 -0.06991482 0.07525347
v -0.6913603 -0.06991482 -0.0723591
v -0.8104278 0.08860874 -0.07235907
v -0.8104278 0.08860874 0.07525351
v -0.832752 0.04241437 0.0752535
v -0.832752 0.04241437 -0.07235908
v -0.7168084 0.09812921 -0.07235908
v -0.7168084 0.09812921 0.07525351
v -0.8104278 0.08860874 0.07525351
v -0.8104278 0.08860874 -0.07235907
v -0.7771057 0.1473191 -0.07235906
v -0.7771057 0.1473192 0.07525352
v -0.7168084 0.09812921 0.07525351
v -0.7168084 0.09812921 -0.07235908
v -0.6818995 0.1727074 -0.07235906
v -0.6818995 0.1727074 0.07525352
v -0.7771057 0.1473192 0.07525352
v -0.7771057 0.1473191 -0.07235906
v -0.6485774 0.2441118 -0.07235906
v -0.6485774 0.244112 0.07525354
v -0.6818995 0.1727074 0.07525352
v -0.6818995 0.1727074 -0.07235906
v -0.6220289 0.2444382 -0.07235906
v -0.6220288 0.2444384 0.07525354
v -0.6485774 0.244112 0.07525354
v -0.6485774 0.2441118 -0.07235906
v -0.6177187 0.2639807 -0.07235905
v -0.6220288 0.2444384 0.07525354
v -0.6220289 0.2444382 -0.07235906
v -0.6177187 0.2639807 0.07525354
v -0.6012796 0.3385166 -0.07235903
v -0.6012796 0.3385166 0.07525354
v -0.4695836 0.3094707 -0.07235905
v -0.4695835 0.3094705 0.07525354
v -0.6012796 0.3385166 0.07525354
v -0.6012796 0.3385166 -0.07235903
vt 0.3361282 0.4749956
vt 0.3361282 0.4749956
vt 0.3360755 0.4770958
vt 0.3360755 0.4770958
vt 0.3358002 0.4770253
vt 0.3358002 0.4770253
vt 0.3358471 0.4751708
vt 0.3358471 0.4751707
vt 0.3387096 0.3215338
vt 0.3830442 0.3628
vt 0.3841712 0.3202281
vt 0.3379929 0.3485904
vt 0.3280754 0.3218979
vt 0.1975772 0.3263662
vt 0.3251136 0.3138465
vt 0.3745429 0.6839507
vt 0.2844102 0.3098288
vt 0.3290751 0.6852564
vt 0.3348112 0.7569938
vt 0.1879553 0.6900885
vt 0.2418867 0.3056003
vt 0.261172 0.2830321
vt 0.2006684 0.2750933
vt 0.2270817 0.2779259
vt 0.1521159 0.3276717
vt 0.1424876 0.6913942
vt 0.1963847 0.7954434
vt 0.1488012 0.7703292
vt 0.2930164 0.7824712
vt 0.3203236 0.7874128
vt 0.2880608 0.8031443
vt 0.2207146 0.8228327
vt 0.2431817 0.8220634
vt 0.2603387 0.8214759
vt 0.3348112 0.7569939
vt 0.3203236 0.7874128
vt 0.2930164 0.7824713
vt 0.1963847 0.7954433
vt 0.2880608 0.8031444
vt 0.2207146 0.8228327
vt 0.2603385 0.8214759
vt 0.1879553 0.6900885
vt 0.1488012 0.7703292
vt 0.1424876 0.6913942
vt 0.1975772 0.3263662
vt 0.1521159 0.3276717
vt 0.2006683 0.2750933
vt 0.3290751 0.6852564
vt 0.3745429 0.6839507
vt 0.3830442 0.3628001
vt 0.3379929 0.3485903
vt 0.3841712 0.3202281
vt 0.3387096 0.3215338
vt 0.3280754 0.3218979
vt 0.3251135 0.3138464
vt 0.2844103 0.3098288
vt 0.2418867 0.3056003
vt 0.2270817 0.2779259
vt 0.261172 0.2830322
vt 0 0
vt 0 0
vt 0 0
vt 0 0
vt 0 0
vt 0 0
vt 0 0
vt 0 0
vt 0 0
vt 0 0
vt 0 0
vt 0 0
vt 0 0
vt 0 0
vt 0 0
vt 0 0
vt 0 0
vt 0 0
vt 0 0
vt 0 0
vt 0 0
vt 0 0
vt 0 0
vt 0 0
vt 0 0
vt 0 0
vt 0 0
vt 0 0
vt 0 0
vt 0 0
vt 0 0
vt 0 0
vt 0 0
vt 0 0
vt 0 0
vt 0 0
vt 0 0
vt 0 0
vt 0 0
vt 0 0
vt 0 0
vt 0 0
vt 0 0
vt 0 0
vt 0 0
vt 0 0
vt 0 0
vt 0 0
vt 0 0
vt 0 0
vt 0 0
vt 0 0
vt 0 0
vt 0 0
vt 0 0
vt 0 0
vt 0 0
vt 0 0
vt 0 0
vt 0 0
vt 0 0
vt 0 0
vt 0 0
vt 0 0
vt 0 0
vt 0 0
vt 0 0
vt 0 0
vt 0 0
vn -0.4297481 -0.9029489 0
vn -0.4297481 -0.9029489 0
vn -0.2153768 -0.9765311 0
vn -0.2153768 -0.9765311 0
vn 0.2153767 0.9765311 3.286852E-07
vn 0.2153767 0.9765311 3.286852E-07
vn 0.2153768 0.9765311 3.046922E-07
vn 0.2153768 0.9765311 3.046922E-07
vn 0 1.10637E-07 -1
vn 0 1.542084E-07 -1
vn 0 2.212728E-07 -1
vn 0 1.629087E-07 -1
vn 0 1.246463E-07 -1
vn 0 1.488973E-07 -1
vn 0 2.199705E-07 -1
vn 0 1.663774E-07 -1
vn 0 2.199705E-07 -1
vn 0 1.567415E-07 -1
vn 0 1.463113E-07 -1
vn 0 1.882377E-07 -1
vn 0 2.199705E-07 -1
vn 0 2.199705E-07 -1
vn 0 1.664108E-07 -1
vn 0 2.199705E-07 -1
vn 0 1.353962E-07 -1
vn 0 2.34026E-07 -1
vn 0 1.588928E-07 -1
vn 0 2.364392E-07 -1
vn 0 1.374343E-07 -1
vn 0 1.374343E-07 -1
vn 0 1.374343E-07 -1
vn 0 1.374343E-07 -1
vn 0 1.374343E-07 -1
vn 0 1.374343E-07 -1
vn 0 -1.667149E-07 1
vn 0 -1.767013E-07 1
vn 0 -1.767013E-07 1
vn 0 -1.803315E-07 1
vn 0 -1.767013E-07 1
vn 0 -1.767013E-07 1
vn 0 -1.767013E-07 1
vn 0 -1.8145E-07 1
vn 0 -1.934503E-07 1
vn 0 -1.767251E-07 1
vn 0 -2.247002E-07 1
vn 0 -2.810697E-07 1
vn 0 -1.764187E-07 1
vn 0 -1.227211E-07 1
vn 0 0 1
vn 0 0 1
vn 0 -1.914044E-07 1
vn 0 -2.212728E-07 1
vn 0 -3.821197E-07 1
vn 0 -2.672322E-07 1
vn 0 0 1
vn 0 0 1
vn 0 0 1
vn 0 0 1
vn 0 0 1
vn 0.5109674 0.8596001 -2.388183E-07
vn 0.5109673 0.8596002 -2.169112E-07
vn 0.5109673 0.8596002 -2.169112E-07
vn 0.5109674 0.8596001 -2.388183E-07
vn 0.5109674 0.8596 -2.607253E-07
vn 0.5109674 0.8596 -2.607253E-07
vn 0.8479968 -0.5300013 0
vn 0.8479968 -0.5300013 0
vn 0.8479968 -0.5300013 0
vn 0.8479968 -0.5300013 0
vn 0.3867284 0.9221936 3.942774E-07
vn 0.3867284 0.9221936 3.942774E-07
vn 0.3867284 0.9221936 3.942774E-07
vn 0.3867284 0.9221936 3.942774E-07
vn 0.8457568 0.5335684 9.972273E-07
vn 0.8457568 0.5335684 9.972273E-07
vn 0.8457568 0.5335684 9.972273E-07
vn 0.8457568 0.5335684 9.972273E-07
vn 0.9765311 -0.2153765 0
vn 0.9765311 -0.2153765 0
vn 0.9765311 -0.2153765 0
vn 0.9765311 -0.2153765 0
vn 0.4835801 -0.8753002 1.728427E-07
vn 0.5305827 -0.8476332 0
vn 0.5305827 -0.8476332 0
vn 0.4384154 -0.8987725 3.336914E-07
vn 0.2897395 -0.9571055 3.488667E-07
vn 0.1442672 -0.9895387 1.545271E-07
vn -0.0165988 -0.9998622 0
vn -0.1219438 -0.992537 0
vn -0.2007133 -0.97965 0
vn -0.6220436 -0.7829825 0
vn -0.6220436 -0.7829825 0
vn -0.4297481 -0.9029489 0
vn -0.4297481 -0.9029489 0
vn -0.9003724 0.43512 0
vn -0.9003724 0.43512 0
vn -0.9003724 0.43512 0
vn -0.9003724 0.43512 0
vn -0.1011716 0.994869 0
vn -0.1011716 0.994869 0
vn -0.1011716 0.994869 0
vn -0.1011716 0.994869 0
vn -0.6321269 -0.7748649 0
vn -0.6321269 -0.7748649 0
vn -0.6321269 -0.7748649 0
vn -0.6321269 -0.7748649 0
vn -0.2576617 0.9662352 -1.280632E-07
vn -0.2576617 0.9662352 -1.280632E-07
vn -0.2576617 0.9662352 -1.280632E-07
vn -0.2576617 0.9662352 -1.280632E-07
vn -0.9061834 0.4228849 -3.20278E-07
vn -0.9061834 0.4228849 -3.20278E-07
vn -0.9061834 0.4228849 -3.20278E-07
vn -0.9061834 0.4228849 -3.20278E-07
vn -0.01229311 0.9999244 -1.615146E-06
vn -0.01229311 0.9999244 -1.615146E-06
vn -0.01229311 0.9999244 -1.615146E-06
vn -0.01229311 0.9999244 -1.615146E-06
vn -0.976531 0.215377 0
vn -0.9765308 0.2153775 0
vn -0.9765308 0.2153775 0
vn -0.976531 0.215377 0
vn -0.9765311 0.2153766 0
vn -0.9765311 0.2153766 0
vn 0.2153768 0.9765311 3.046922E-07
vn 0.2153768 0.9765311 3.046922E-07
vn 0.2153768 0.9765311 2.806992E-07
vn 0.2153768 0.9765311 2.806992E-07
g Cube.004_0
f 3/3/3 2/2/2 1/1/1
f 4/4/4 3/3/3 1/1/1
f 7/7/7 6/6/6 5/5/5
f 8/8/8 7/7/7 5/5/5
f 11/11/11 10/10/10 9/9/9
f 10/10/10 12/12/12 9/9/9
f 12/12/12 13/13/13 9/9/9
f 14/14/14 13/13/13 12/12/12
f 15/15/15 13/13/13 14/14/14
f 10/10/10 16/16/16 12/12/12
f 14/14/14 17/17/17 15/15/15
f 16/16/16 18/18/18 12/12/12
f 16/16/16 19/19/19 18/18/18
f 12/12/12 18/18/18 20/20/20
f 20/20/20 14/14/14 12/12/12
f 20/20/20 18/18/18 19/19/19
f 14/14/14 21/21/21 17/17/17
f 17/17/17 21/21/21 22/22/22
f 14/14/14 23/23/23 21/21/21
f 23/23/23 24/24/24 21/21/21
f 25/25/25 23/23/23 14/14/14
f 14/14/14 20/20/20 25/25/25
f 20/20/20 26/26/26 25/25/25
f 20/20/20 27/27/27 26/26/26
f 27/27/27 20/20/20 19/19/19
f 27/27/27 28/28/28 26/26/26
f 29/29/29 27/27/27 19/19/19
f 19/19/19 30/30/30 29/29/29
f 27/27/27 29/29/29 31/31/31
f 32/32/32 27/27/27 31/31/31
f 33/33/33 32/32/32 31/31/31
f 31/31/31 34/34/34 33/33/33
f 37/37/37 36/36/36 35/35/35
f 35/35/35 38/38/38 37/37/37
f 39/39/39 37/37/37 38/38/38
f 39/39/39 38/38/38 40/40/40
f 40/40/40 41/41/41 39/39/39
f 35/35/35 42/42/42 38/38/38
f 43/43/43 38/38/38 42/42/42
f 44/44/44 43/43/43 42/42/42
f 42/42/42 45/45/45 44/44/44
f 45/45/45 46/46/46 44/44/44
f 45/45/45 47/47/47 46/46/46
f 35/35/35 48/48/48 42/42/42
f 49/49/49 48/48/48 35/35/35
f 49/49/49 50/50/50 48/48/48
f 42/42/42 48/48/48 51/51/51
f 50/50/50 51/51/51 48/48/48
f 51/51/51 45/45/45 42/42/42
f 50/50/50 52/52/52 51/51/51
f 52/52/52 53/53/53 51/51/51
f 51/51/51 53/53/53 54/54/54
f 51/51/51 54/54/54 45/45/45
f 45/45/45 54/54/54 55/55/55
f 55/55/55 56/56/56 45/45/45
f 57/57/57 47/47/47 45/45/45
f 56/56/56 57/57/57 45/45/45
f 57/57/57 58/58/58 47/47/47
f 57/57/57 56/56/56 59/59/59
f 62/62/62 61/61/61 60/60/60
f 61/61/61 63/63/63 60/60/60
f 60/60/60 63/63/63 64/64/64
f 63/63/63 65/65/65 64/64/64
f 68/68/68 67/67/67 66/66/66
f 69/69/69 68/68/68 66/66/66
f 72/72/72 71/71/71 70/70/70
f 73/73/73 72/72/72 70/70/70
f 76/76/76 75/75/75 74/74/74
f 77/77/77 76/76/76 74/74/74
f 80/80/80 79/79/79 78/78/78
f 81/81/81 80/80/80 78/78/78
f 84/84/84 83/83/83 82/82/82
f 83/83/83 85/85/85 82/82/82
f 82/82/82 85/85/85 86/86/86
f 85/85/85 87/87/87 86/86/86
f 86/86/86 87/87/87 88/88/88
f 87/87/87 89/89/89 88/88/88
f 89/89/89 90/90/90 88/88/88
f 93/93/93 92/92/92 91/91/91
f 94/94/94 93/93/93 91/91/91
f 97/97/97 96/96/96 95/95/95
f 98/98/98 97/97/97 95/95/95
f 101/101/101 100/100/100 99/99/99
f 102/102/102 101/101/101 99/99/99
f 105/105/105 104/104/104 103/103/103
f 106/106/106 105/105/105 103/103/103
f 109/109/109 108/108/108 107/107/107
f 110/110/110 109/109/109 107/107/107
f 113/113/113 112/112/112 111/111/111
f 114/114/114 113/113/113 111/111/111
f 117/117/117 116/116/116 115/115/115
f 118/118/118 117/117/117 115/115/115
f 121/121/121 120/120/120 119/119/119
f 120/120/120 122/122/122 119/119/119
f 119/119/119 122/122/122 123/123/123
f 122/122/122 124/124/124 123/123/123
f 127/127/127 126/126/126 125/125/125
f 128/128/128 127/127/127 125/125/125
