g Cube.060
v 0.591651 -0.488256 -0.2022616
v 0.6513032 -0.4163227 -0.2022616
v 0.591651 -0.4163227 -0.2781099
v -0.5916512 -0.488256 -0.2022615
v -0.5916512 -0.4163227 -0.2781098
v -0.6513035 -0.4163227 -0.2022615
v 0.591651 -0.488256 0.283832
v 0.591651 -0.4163227 0.3596803
v 0.6513032 -0.4163227 0.283832
v -0.5916512 -0.488256 0.2838321
v -0.6513035 -0.4163227 0.2838321
v -0.5916512 -0.4163227 0.3596804
v -0.5916512 0.4882541 0.2838321
v -0.5916512 0.4163208 0.3596804
v -0.6513035 0.4163208 0.2838321
v 0.591651 0.4882541 0.283832
v 0.6513032 0.4163208 0.283832
v 0.591651 0.4163208 0.3596803
v 0.591651 0.4163208 -0.2781099
v 0.6513032 0.4163208 -0.2022616
v 0.591651 0.4882541 -0.2022616
v -0.5916512 0.4882541 -0.2022615
v -0.6513035 0.4163208 -0.2022615
v -0.5916512 0.4163208 -0.2781098
v 0.591651 -0.488256 -0.1223558
v 0.6513032 -0.4163227 -0.1223558
v 0.6513032 -0.4163227 -0.2022616
v 0.591651 -0.488256 -0.2022616
v 0.591651 -0.488256 -0.2022616
v 0.591651 -0.4163227 -0.2781099
v -0.5916512 -0.4163227 -0.2781098
v -0.5916512 -0.488256 -0.2022615
v 0.591651 -0.488256 -0.1223558
v 0.591651 -0.488256 -0.2022616
v -0.5916512 -0.488256 -0.2022615
v -0.5916512 -0.488256 -0.1223557
v -0.5916512 -0.488256 -0.2022615
v -0.6513035 -0.4163227 -0.2022615
v -0.6513035 -0.4163227 -0.1223557
v -0.5916512 -0.488256 -0.1223557
v 0.591651 -0.488256 0.283832
v 0.591651 -0.488256 -0.1223558
v -0.5916512 -0.488256 -0.1223557
v -0.5916512 -0.488256 0.2838321
v -0.5916512 -0.488256 -0.1223557
v -0.6513035 -0.4163227 -0.1223557
v -0.6513035 -0.4163227 0.2838321
v -0.5916512 -0.488256 0.2838321
v -0.6513035 -0.4163227 -0.1223557
v -0.6513035 -0.4163227 -0.2022615
v -0.6513035 0.4163208 -0.2022615
v -0.6513035 0.4163208 -0.1223557
v -0.6513035 -0.4163227 0.2838321
v -0.6513035 -0.4163227 -0.1223557
v -0.6513035 0.4163208 -0.1223557
v -0.6513035 0.4163208 0.2838321
v -0.5916512 0.4882541 0.2838321
v -0.6513035 0.4163208 0.2838321
v -0.6513035 0.4163208 -0.1223557
v -0.5916512 0.4882541 -0.1223557
v -0.5916512 0.4882541 -0.1223557
v -0.6513035 0.4163208 -0.1223557
v -0.6513035 0.4163208 -0.2022615
v -0.5916512 0.4882541 -0.2022615
v -0.5916512 0.4882541 -0.1223557
v -0.5916512 0.4882541 -0.2022615
v 0.591651 0.4882541 -0.2022616
v 0.591651 0.4882541 -0.1223558
v -0.5916512 0.4882541 0.2838321
v -0.5916512 0.4882541 -0.1223557
v 0.591651 0.4882541 -0.1223558
v 0.591651 0.4882541 0.283832
v 0.591651 0.4882541 -0.1223558
v 0.6513032 0.4163208 -0.1223558
v 0.6513032 0.4163208 0.283832
v 0.591651 0.4882541 0.283832
v 0.591651 0.4882541 -0.2022616
v 0.6513032 0.4163208 -0.2022616
v 0.6513032 0.4163208 -0.1223558
v 0.591651 0.4882541 -0.1223558
v 0.6513032 -0.4163227 -0.2022616
v 0.6513032 -0.4163227 -0.1223558
v 0.6513032 0.4163208 -0.1223558
v 0.6513032 0.4163208 -0.2022616
v 0.6513032 -0.4163227 -0.1223558
v 0.6513032 -0.4163227 0.283832
v 0.6513032 0.4163208 0.283832
v 0.6513032 0.4163208 -0.1223558
v 0.591651 -0.488256 0.283832
v 0.6513032 -0.4163227 0.283832
v 0.6513032 -0.4163227 -0.1223558
v 0.591651 -0.488256 -0.1223558
v 0.591651 0.4163208 0.3596803
v 0.6513032 0.4163208 0.283832
v 0.6513032 -0.4163227 0.283832
v 0.591651 -0.4163227 0.3596803
v -0.5916512 -0.488256 0.2838321
v -0.5916512 -0.4163227 0.3596804
v 0.591651 -0.4163227 0.3596803
v 0.591651 -0.488256 0.283832
v 0.591651 -0.4163227 0.3596803
v -0.5916512 -0.4163227 0.3596804
v -0.5916512 0.4163208 0.3596804
v 0.591651 0.4163208 0.3596803
v -0.6513035 0.4163208 0.2838321
v -0.5916512 0.4163208 0.3596804
v -0.5916512 -0.4163227 0.3596804
v -0.6513035 -0.4163227 0.2838321
v 0.591651 0.4882541 0.283832
v 0.591651 0.4163208 0.3596803
v -0.5916512 0.4163208 0.3596804
v -0.5916512 0.4882541 0.2838321
v 0.591651 -0.4163227 -0.2781099
v 0.6513032 -0.4163227 -0.2022616
v 0.6513032 0.4163208 -0.2022616
v 0.591651 0.4163208 -0.2781099
v -0.5916512 0.4882541 -0.2022615
v -0.5916512 0.4163208 -0.2781098
v 0.591651 0.4163208 -0.2781099
v 0.591651 0.4882541 -0.2022616
v -0.5916512 -0.4163227 -0.2781098
v 0.591651 -0.4163227 -0.2781099
v 0.591651 0.4163208 -0.2781099
v -0.5916512 0.4163208 -0.2781098
v -0.5916512 0.4163208 -0.2781098
v -0.6513035 0.4163208 -0.2022615
v -0.6513035 -0.4163227 -0.2022615
v -0.5916512 -0.4163227 -0.2781098
vt 0.4541427 0.4556884
vt 0.4541427 0.455823
vt 0.4421136 0.4622219
vt 0.4517504 0.4564313
vt 0.4395311 0.4629648
vt 0.4517504 0.4565658
vt 0.4689405 0.428204
vt 0.4322372 0.4283975
vt 0.4689405 0.428591
vt 0.4655657 0.4303412
vt 0.4655657 0.4307282
vt 0.4294097 0.4305347
vt 0.4632646 0.4307282
vt 0.4271086 0.4305347
vt 0.4632646 0.4303412
vt 0.4662263 0.4323685
vt 0.4658393 0.4323685
vt 0.4296032 0.4326422
vt 0.4403982 0.4628975
vt 0.4524551 0.4565265
vt 0.4525896 0.4565265
vt 0.4584105 0.4493305
vt 0.4584105 0.4489436
vt 0.4232575 0.4677394
vt 0.4675604 0.3739259
vt 0.4675604 0.3743129
vt 0.4675938 0.3727839
vt 0.4675938 0.3723969
vt 0.4526855 0.4506783
vt 0.4406565 0.4571445
vt 0.4406565 0.4552576
vt 0.4526855 0.4487914
vt 0.4675604 0.3739259
vt 0.4675938 0.3723969
vt 0.4675938 0.3685586
vt 0.4675604 0.3700876
vt 0.4607115 0.3745341
vt 0.4607115 0.3749211
vt 0.4612547 0.37645
vt 0.4612547 0.376063
vt 0.4689405 0.4189028
vt 0.4691105 0.4111306
vt 0.4691105 0.4072923
vt 0.4689405 0.4150645
vt 0.4628049 0.4132678
vt 0.4628049 0.4136547
vt 0.4655657 0.421427
vt 0.4655657 0.42104
vt 0.4612547 0.37645
vt 0.4607115 0.3749211
vt 0.4607115 0.3771608
vt 0.4612547 0.3786898
vt 0.4655657 0.421427
vt 0.4628049 0.4136547
vt 0.4628049 0.4158945
vt 0.4655657 0.4236667
vt 0.4632646 0.421427
vt 0.4632646 0.42104
vt 0.4605038 0.4132678
vt 0.4605038 0.4136547
vt 0.4589536 0.37645
vt 0.4589536 0.376063
vt 0.4584105 0.3745341
vt 0.4584105 0.3749211
vt 0.4589536 0.37645
vt 0.4584105 0.3749211
vt 0.4584105 0.3787594
vt 0.4589536 0.3802884
vt 0.4632646 0.421427
vt 0.4605038 0.4136547
vt 0.4605038 0.4174931
vt 0.4632646 0.4252653
vt 0.464931 0.4138297
vt 0.4645439 0.4138297
vt 0.4658393 0.4230674
vt 0.4662263 0.4230674
vt 0.4631259 0.3748077
vt 0.4627389 0.3748077
vt 0.4629937 0.376625
vt 0.4633808 0.376625
vt 0.469144 0.3634827
vt 0.4691105 0.3650117
vt 0.4691105 0.3672515
vt 0.469144 0.3657225
vt 0.4706607 0.4022164
vt 0.4704907 0.4099886
vt 0.4704907 0.4122284
vt 0.4706607 0.4044562
vt 0.4689405 0.4189028
vt 0.4689405 0.4192898
vt 0.4691105 0.4115176
vt 0.4691105 0.4111306
vt 0.4282488 0.4246393
vt 0.4646784 0.4243657
vt 0.4615109 0.4243657
vt 0.4250813 0.4246393
vt 0.4612373 0.4300675
vt 0.4250813 0.4300675
vt 0.4250813 0.4246393
vt 0.4612373 0.4246393
vt 0.4250813 0.4246393
vt 0.4250813 0.4300675
vt 0.4282488 0.4300675
vt 0.4282488 0.4246393
vt 0.4646784 0.4303412
vt 0.4282488 0.4300675
vt 0.4250813 0.4300675
vt 0.4615109 0.4303412
vt 0.464952 0.4246393
vt 0.4282488 0.4246393
vt 0.4282488 0.4300675
vt 0.464952 0.4300675
vt 0.4403871 0.4595693
vt 0.4525113 0.4531982
vt 0.4536123 0.4531982
vt 0.4414881 0.4595693
vt 0.4528991 0.4506774
vt 0.4406798 0.4571436
vt 0.4406798 0.4590305
vt 0.4528991 0.4525642
vt 0.4442981 0.4339405
vt 0.4442981 0.4393687
vt 0.4474655 0.4393687
vt 0.4474655 0.4339405
vt 0.4422964 0.4571436
vt 0.4544205 0.4505823
vt 0.4533195 0.4505823
vt 0.4411954 0.4571436
vn 0.6584897 -0.5460681 -0.5178813
vn 0.6584897 -0.5460681 -0.5178813
vn 0.6584897 -0.5460681 -0.5178813
vn -0.6584894 -0.5460678 -0.5178819
vn -0.6584894 -0.5460678 -0.5178819
vn -0.6584894 -0.5460678 -0.5178819
vn 0.6584898 -0.5460677 0.5178813
vn 0.6584898 -0.5460677 0.5178813
vn 0.6584898 -0.5460677 0.5178813
vn -0.6584894 -0.5460678 0.5178819
vn -0.6584894 -0.5460678 0.5178819
vn -0.6584894 -0.5460678 0.5178819
vn -0.6584894 0.5460678 0.5178819
vn -0.6584894 0.5460678 0.5178819
vn -0.6584894 0.5460678 0.5178819
vn 0.6584898 0.5460677 0.5178813
vn 0.6584898 0.5460677 0.5178813
vn 0.6584898 0.5460677 0.5178813
vn 0.6584897 0.5460681 -0.5178813
vn 0.6584897 0.5460681 -0.5178813
vn 0.6584897 0.5460681 -0.5178813
vn -0.6584894 0.5460678 -0.5178819
vn -0.6584894 0.5460678 -0.5178819
vn -0.6584894 0.5460678 -0.5178819
vn 0.7697561 -0.6383381 0
vn 0.7697561 -0.6383381 0
vn 0.7697561 -0.638338 0
vn 0.7697561 -0.638338 0
vn 0 -0.7255849 -0.6881327
vn 0 -0.7255849 -0.6881327
vn 0 -0.7255849 -0.6881327
vn 0 -0.7255849 -0.6881327
vn 0 -1 0
vn 0 -1 0
vn 0 -1 0
vn 0 -1 0
vn -0.7697562 -0.6383381 0
vn -0.7697562 -0.6383381 0
vn -0.7697562 -0.638338 0
vn -0.7697562 -0.638338 0
vn 0 -1 0
vn 0 -1 0
vn 0 -1 0
vn 0 -1 0
vn -0.7697562 -0.638338 0
vn -0.7697562 -0.638338 0
vn -0.7697562 -0.638338 0
vn -0.7697562 -0.638338 0
vn -1 0 0
vn -1 0 0
vn -1 0 0
vn -1 0 0
vn -1 0 0
vn -1 0 0
vn -1 0 0
vn -1 0 0
vn -0.7697562 0.638338 0
vn -0.7697562 0.638338 0
vn -0.7697562 0.638338 0
vn -0.7697562 0.638338 0
vn -0.7697562 0.638338 0
vn -0.7697562 0.638338 0
vn -0.7697562 0.6383381 0
vn -0.7697562 0.6383381 0
vn 0 1 0
vn 0 1 0
vn 0 1 0
vn 0 1 0
vn 0 1 0
vn 0 1 0
vn 0 1 0
vn 0 1 0
vn 0.7697561 0.6383381 0
vn 0.7697561 0.6383381 0
vn 0.7697562 0.638338 0
vn 0.7697562 0.638338 0
vn 0.7697561 0.638338 0
vn 0.7697561 0.638338 0
vn 0.7697561 0.6383381 0
vn 0.7697561 0.6383381 0
vn 1 0 0
vn 1 0 0
vn 1 0 0
vn 1 0 0
vn 1 0 0
vn 1 0 0
vn 1 0 0
vn 1 0 0
vn 0.7697562 -0.638338 0
vn 0.7697562 -0.638338 0
vn 0.7697561 -0.6383381 0
vn 0.7697561 -0.6383381 0
vn 0.7860302 0 0.6181881
vn 0.7860302 0 0.6181881
vn 0.7860302 0 0.6181881
vn 0.7860302 0 0.6181881
vn 0 -0.7255849 0.6881325
vn 0 -0.7255849 0.6881325
vn 0 -0.7255849 0.6881325
vn 0 -0.7255849 0.6881325
vn 1.007429E-07 0 1
vn 1.007429E-07 0 1
vn 1.007429E-07 0 1
vn 1.007429E-07 0 1
vn -0.78603 0 0.6181883
vn -0.78603 0 0.6181883
vn -0.78603 0 0.6181883
vn -0.78603 0 0.6181883
vn 0 0.7255849 0.6881325
vn 0 0.7255849 0.6881325
vn 0 0.7255849 0.6881325
vn 0 0.7255849 0.6881325
vn 0.7860301 0 -0.6181882
vn 0.7860301 0 -0.6181882
vn 0.7860301 0 -0.6181882
vn 0.7860301 0 -0.6181882
vn 0 0.7255849 -0.6881327
vn 0 0.7255849 -0.6881327
vn 0 0.7255849 -0.6881327
vn 0 0.7255849 -0.6881327
vn -1.007429E-07 0 -1
vn -1.007429E-07 0 -1
vn -1.007429E-07 0 -1
vn -1.007429E-07 0 -1
vn -0.78603 0 -0.6181883
vn -0.78603 0 -0.6181883
vn -0.78603 0 -0.6181883
vn -0.78603 0 -0.6181883
g Cube.060_0
f 3/3/3 2/2/2 1/1/1
f 6/6/6 5/5/5 4/4/4
f 9/9/9 8/8/8 7/7/7
f 12/12/12 11/11/11 10/10/10
f 15/15/15 14/14/14 13/13/13
f 18/18/18 17/17/17 16/16/16
f 21/21/21 20/20/20 19/19/19
f 24/24/24 23/23/23 22/22/22
f 27/27/27 26/26/26 25/25/25
f 28/28/28 27/27/27 25/25/25
f 31/31/31 30/30/30 29/29/29
f 32/32/32 31/31/31 29/29/29
f 35/35/35 34/34/34 33/33/33
f 36/36/36 35/35/35 33/33/33
f 39/39/39 38/38/38 37/37/37
f 40/40/40 39/39/39 37/37/37
f 43/43/43 42/42/42 41/41/41
f 44/44/44 43/43/43 41/41/41
f 47/47/47 46/46/46 45/45/45
f 48/48/48 47/47/47 45/45/45
f 51/51/51 50/50/50 49/49/49
f 52/52/52 51/51/51 49/49/49
f 55/55/55 54/54/54 53/53/53
f 56/56/56 55/55/55 53/53/53
f 59/59/59 58/58/58 57/57/57
f 60/60/60 59/59/59 57/57/57
f 63/63/63 62/62/62 61/61/61
f 64/64/64 63/63/63 61/61/61
f 67/67/67 66/66/66 65/65/65
f 68/68/68 67/67/67 65/65/65
f 71/71/71 70/70/70 69/69/69
f 72/72/72 71/71/71 69/69/69
f 75/75/75 74/74/74 73/73/73
f 76/76/76 75/75/75 73/73/73
f 79/79/79 78/78/78 77/77/77
f 80/80/80 79/79/79 77/77/77
f 83/83/83 82/82/82 81/81/81
f 84/84/84 83/83/83 81/81/81
f 87/87/87 86/86/86 85/85/85
f 88/88/88 87/87/87 85/85/85
f 91/91/91 90/90/90 89/89/89
f 92/92/92 91/91/91 89/89/89
f 95/95/95 94/94/94 93/93/93
f 96/96/96 95/95/95 93/93/93
f 99/99/99 98/98/98 97/97/97
f 100/100/100 99/99/99 97/97/97
f 103/103/103 102/102/102 101/101/101
f 104/104/104 103/103/103 101/101/101
f 107/107/107 106/106/106 105/105/105
f 108/108/108 107/107/107 105/105/105
f 111/111/111 110/110/110 109/109/109
f 112/112/112 111/111/111 109/109/109
f 115/115/115 114/114/114 113/113/113
f 116/116/116 115/115/115 113/113/113
f 119/119/119 118/118/118 117/117/117
f 120/120/120 119/119/119 117/117/117
f 123/123/123 122/122/122 121/121/121
f 124/124/124 123/123/123 121/121/121
f 127/127/127 126/126/126 125/125/125
f 128/128/128 127/127/127 125/125/125
