g Cube.018
v -0.3652847 -0.07138515 0.07380625
v -0.3230312 -0.0738169 0.07380625
v -0.3467047 -0.07767367 0.07380625
v -0.3467047 -0.07767367 -0.07380634
v -0.3230311 -0.0738169 -0.07380634
v -0.3652847 -0.07138515 -0.07380634
v 0.3531763 0.4980079 0.07380641
v 0.02030975 0.2543838 0.07380634
v 0.02030975 0.2543838 -0.07380625
v 0.3531763 0.4980079 -0.07380617
v 0.6017087 0.6903848 0.07380647
v 0.3531763 0.4980079 -0.07380617
v 0.6017087 0.690385 -0.0738061
v -0.1094704 -0.3080519 -0.07380636
v -0.09013759 -0.3588236 -0.07380636
v -0.08388691 -0.3632253 -0.07380636
v -0.07228971 -0.3608581 -0.07380636
v -0.05845338 -0.3523562 -0.07380636
v 0.05757916 -0.1381916 -0.07380632
v 0.03399891 -0.1532231 -0.07380632
v 0.2334122 -0.01776183 -0.07380627
v 0.2827328 -0.0807476 -0.07380629
v 0.4418755 0.1376963 -0.07380623
v 0.4319127 0.03258801 -0.07380625
v 0.3824353 0.1986369 -0.07380622
v 0.0696305 0.191398 -0.07380625
v -0.04798192 -0.1969673 -0.07380634
v -0.04799312 -0.1980644 -0.07380634
v -0.2049606 -0.2209112 -0.07380635
v -0.2822286 -0.06488156 -0.07380632
v -0.2989465 -0.1455004 -0.07380634
v 0.3998964 0.4376503 -0.07380617
v 0.4799514 0.3342268 -0.07380619
v 0.5348542 0.469604 -0.07380615
v 0.6333212 0.6183296 -0.07380612
v 0.6017087 0.690385 -0.0738061
v 0.3531763 0.4980079 -0.07380617
v 0.02030975 0.2543838 -0.07380625
v -0.4017361 -0.01696134 -0.07380634
v -0.2990566 -0.09727001 -0.07380634
v -0.3065218 -0.1341771 -0.07380634
v -0.3094542 -0.1174936 -0.07380634
v -0.3069578 -0.09992038 -0.07380634
v -0.2992576 -0.0751853 -0.07380634
v -0.3230311 -0.0738169 -0.07380634
v -0.3766052 -0.06113827 -0.07380634
v -0.3652847 -0.07138515 -0.07380634
v -0.3258437 -0.07831836 -0.07380634
v -0.3467047 -0.07767367 -0.07380634
v 0.02030975 0.2543838 0.07380634
v -0.4017361 -0.01696134 0.07380626
v -0.4017361 -0.01696134 -0.07380634
v 0.02030975 0.2543838 -0.07380625
v -0.08388691 -0.3632253 0.07380621
v -0.09013759 -0.3588236 0.07380621
v -0.1094704 -0.3080519 0.07380623
v -0.07228971 -0.3608581 0.07380621
v -0.05845338 -0.3523562 0.07380621
v 0.05757916 -0.1381916 0.07380627
v 0.03399879 -0.153223 0.07380627
v 0.2334122 -0.01776183 0.07380631
v 0.2827328 -0.0807476 0.0738063
v 0.4319126 0.03258789 0.07380634
v 0.4418755 0.1376963 0.07380636
v 0.3824353 0.1986369 0.07380637
v 0.0696305 0.1913981 0.07380633
v -0.04798192 -0.1969672 0.07380626
v -0.04799312 -0.1980643 0.07380626
v -0.2049606 -0.2209112 0.07380623
v -0.2822287 -0.06488156 0.07380626
v -0.2989465 -0.1455004 0.07380625
v 0.3998964 0.4376503 0.07380641
v 0.4799514 0.3342268 0.07380639
v -0.2990566 -0.09727001 0.07380626
v -0.3065219 -0.134177 0.07380625
v -0.3094542 -0.1174936 0.07380625
v -0.3069578 -0.09992038 0.07380626
v -0.2992576 -0.0751853 0.07380626
v 0.02030975 0.2543838 0.07380634
v -0.4017361 -0.01696134 0.07380626
v 0.3531763 0.4980079 0.07380641
v 0.6333209 0.6183294 0.07380646
v 0.5348544 0.469604 0.07380643
v 0.6017087 0.6903848 0.07380647
v -0.3230312 -0.0738169 0.07380625
v -0.3258437 -0.07831836 0.07380625
v -0.3467047 -0.07767367 0.07380625
v -0.3766052 -0.06113827 0.07380625
v -0.3652847 -0.07138515 0.07380625
v -0.3258437 -0.07831836 0.07380625
v -0.2992576 -0.0751853 0.07380626
v -0.2992576 -0.0751853 -0.07380634
v -0.3258437 -0.07831836 -0.07380634
v -0.2989465 -0.1455004 0.07380625
v -0.2049606 -0.2209112 0.07380623
v -0.2049606 -0.2209112 -0.07380635
v -0.2989465 -0.1455004 -0.07380634
v -0.3766052 -0.06113827 0.07380625
v -0.3766052 -0.06113827 -0.07380634
v -0.4017361 -0.01696134 -0.07380634
v -0.4017361 -0.01696134 0.07380626
v 0.2827328 -0.0807476 -0.07380629
v -0.05845338 -0.3523562 -0.07380636
v -0.05845338 -0.3523562 0.07380621
v 0.2827328 -0.0807476 0.0738063
v 0.4319127 0.03258801 -0.07380625
v 0.2827328 -0.0807476 -0.07380629
v 0.4319126 0.03258789 0.07380634
v 0.03399891 -0.1532231 -0.07380632
v -0.04799312 -0.1980644 -0.07380634
v -0.04799312 -0.1980643 0.07380626
v 0.03399879 -0.153223 0.07380627
v -0.1094704 -0.3080519 -0.07380636
v 0.03399891 -0.1532231 -0.07380632
v 0.03399879 -0.153223 0.07380627
v -0.1094704 -0.3080519 0.07380623
v -0.2049606 -0.2209112 0.07380623
v -0.04799312 -0.1980643 0.07380626
v -0.04799312 -0.1980644 -0.07380634
v -0.2049606 -0.2209112 -0.07380635
v -0.3766052 -0.06113827 0.07380625
v -0.3652847 -0.07138515 0.07380625
v -0.3652847 -0.07138515 -0.07380634
v -0.3766052 -0.06113827 -0.07380634
v -0.3652847 -0.07138515 0.07380625
v -0.3467047 -0.07767367 0.07380625
v -0.3467047 -0.07767367 -0.07380634
v -0.3652847 -0.07138515 -0.07380634
v -0.3467047 -0.07767367 0.07380625
v -0.3258437 -0.07831836 0.07380625
v -0.3258437 -0.07831836 -0.07380634
v -0.3467047 -0.07767367 -0.07380634
v -0.2989465 -0.1455004 -0.07380634
v -0.3065218 -0.1341771 -0.07380634
v -0.3065219 -0.134177 0.07380625
v -0.2989465 -0.1455004 0.07380625
v -0.3065218 -0.1341771 -0.07380634
v -0.3094542 -0.1174936 -0.07380634
v -0.3094542 -0.1174936 0.07380625
v -0.3065219 -0.134177 0.07380625
v -0.3094542 -0.1174936 -0.07380634
v -0.3069578 -0.09992038 -0.07380634
v -0.3069578 -0.09992038 0.07380626
v -0.3094542 -0.1174936 0.07380625
v -0.2992576 -0.0751853 0.07380626
v -0.3069578 -0.09992038 0.07380626
v -0.3069578 -0.09992038 -0.07380634
v -0.2992576 -0.0751853 -0.07380634
v -0.05845338 -0.3523562 -0.07380636
v -0.07228971 -0.3608581 -0.07380636
v -0.07228971 -0.3608581 0.07380621
v -0.05845338 -0.3523562 0.07380621
v -0.07228971 -0.3608581 -0.07380636
v -0.08388691 -0.3632253 -0.07380636
v -0.08388691 -0.3632253 0.07380621
v -0.07228971 -0.3608581 0.07380621
v -0.08388691 -0.3632253 -0.07380636
v -0.09013759 -0.3588236 -0.07380636
v -0.09013759 -0.3588236 0.07380621
v -0.08388691 -0.3632253 0.07380621
v -0.09013759 -0.3588236 0.07380621
v -0.09013759 -0.3588236 -0.07380636
v -0.1094704 -0.3080519 -0.07380636
v -0.1094704 -0.3080519 0.07380623
v 0.4418755 0.1376963 0.07380636
v 0.4319127 0.03258801 -0.07380625
v 0.4319126 0.03258789 0.07380634
v 0.4418755 0.1376963 -0.07380623
v 0.3824353 0.1986369 0.07380637
v 0.3824353 0.1986369 -0.07380622
v 0.4799514 0.3342268 0.07380639
v 0.4799514 0.3342268 -0.07380619
v 0.5348544 0.469604 0.07380643
v 0.5348542 0.469604 -0.07380615
v 0.6333209 0.6183294 0.07380646
v 0.6333212 0.6183296 -0.07380612
v 0.6017087 0.6903848 0.07380647
v 0.6017087 0.690385 -0.0738061
vt 0.3630325 0.01982817
vt 0.3799342 0.02301162
vt 0.3869247 0.01616123
vt 0.3869247 0.01616123
vt 0.3799342 0.02301162
vt 0.3630325 0.01982817
vt 0.3358533 0.4749249
vt 0.3359087 0.4741721
vt 0.3359087 0.4741721
vt 0.3358533 0.4749249
vt 0.3358388 0.4754978
vt 0.3358533 0.4749249
vt 0.3358389 0.4754978
vt 0.1974268 0.05533805
vt 0.1665971 0.05124289
vt 0.1622261 0.05207774
vt 0.1590244 0.05551943
vt 0.1578494 0.06064597
vt 0.2211805 0.1012655
vt 0.2229301 0.09243131
vt 0.2053956 0.1966847
vt 0.1577444 0.1981947
vt 0.2004425 0.2788408
vt 0.1551723 0.2573619
vt 0.2454763 0.2742395
vt 0.3465744 0.191382
vt 0.2329808 0.06324756
vt 0.2324738 0.06304768
vt 0.2849178 0.03696889
vt 0.3689519 0.03522989
vt 0.3264287 0.03497639
vt 0.3387096 0.3215338
vt 0.2692113 0.3239134
vt 0.3071847 0.3624403
vt 0.3362414 0.4147144
vt 0.3815449 0.4194402
vt 0.3841712 0.3202281
vt 0.3942257 0.1898721
vt 0.4019182 0.02012697
vt 0.360109 0.02503246
vt 0.3456852 0.0164589
vt 0.3545466 0.01869416
vt 0.3618072 0.02250126
vt 0.3704724 0.02894911
vt 0.3799342 0.02301162
vt 0.3720087 0.01872507
vt 0.3630325 0.01982817
vt 0.3788811 0.02147099
vt 0.3869247 0.01616123
vt 0.3359087 0.4741721
vt 0.3338918 0.4721224
vt 0.3338918 0.4721224
vt 0.3359087 0.4741721
vt 0.1622261 0.05207774
vt 0.1665971 0.05124289
vt 0.1974268 0.05533805
vt 0.1590244 0.05551943
vt 0.1578494 0.06064597
vt 0.2211805 0.1012655
vt 0.2229301 0.09243131
vt 0.2053954 0.1966847
vt 0.1577444 0.1981947
vt 0.1551723 0.2573619
vt 0.2004424 0.2788408
vt 0.2454764 0.2742395
vt 0.3465744 0.191382
vt 0.2329808 0.06324756
vt 0.2324738 0.06304768
vt 0.2849178 0.03696889
vt 0.3689519 0.03522989
vt 0.3264287 0.03497639
vt 0.3387096 0.3215338
vt 0.2692112 0.3239134
vt 0.3601089 0.02503246
vt 0.3456852 0.0164589
vt 0.3545465 0.01869416
vt 0.3618072 0.02250126
vt 0.3704724 0.02894911
vt 0.3942257 0.1898721
vt 0.4019182 0.02012697
vt 0.3841712 0.3202281
vt 0.3362414 0.4147143
vt 0.3071848 0.3624404
vt 0.3815449 0.4194402
vt 0.3799342 0.02301162
vt 0.3788811 0.02147099
vt 0.3869247 0.01616123
vt 0.3720087 0.01872507
vt 0.3630325 0.01982817
vt 0.3368442 0.471427
vt 0.3367976 0.4714703
vt 0.3367976 0.4714703
vt 0.3368442 0.471427
vt 0.3355339 0.4732777
vt 0.337908 0.47244
vt 0.337908 0.47244
vt 0.3355339 0.4732777
vt 0.3337265 0.4721143
vt 0.3337265 0.4721143
vt 0.3338918 0.4721224
vt 0.3338918 0.4721224
vt 0.3361594 0.4742479
vt 0.3361599 0.4734536
vt 0.3361599 0.4734536
vt 0.3361594 0.4742479
vt 0.3361451 0.4745896
vt 0.3361594 0.4742479
vt 0.3361451 0.4745895
vt 0.3371252 0.4709617
vt 0.3371775 0.470792
vt 0.3371775 0.470792
vt 0.3371252 0.4709617
vt 0.3363788 0.4734229
vt 0.3371252 0.4709617
vt 0.3371252 0.4709617
vt 0.3363788 0.4734229
vt 0.337908 0.47244
vt 0.3371775 0.470792
vt 0.3371775 0.470792
vt 0.337908 0.47244
vt 0.3337265 0.4721143
vt 0.333677 0.4721206
vt 0.333677 0.4721206
vt 0.3337265 0.4721143
vt 0.333677 0.4721206
vt 0.3368884 0.4713964
vt 0.3368884 0.4713964
vt 0.333677 0.4721206
vt 0.3368884 0.4713964
vt 0.3368442 0.471427
vt 0.3368442 0.471427
vt 0.3368884 0.4713964
vt 0.3355339 0.4732777
vt 0.3366607 0.4713981
vt 0.3366607 0.4713981
vt 0.3355339 0.4732777
vt 0.3366607 0.4713981
vt 0.3367093 0.471411
vt 0.3367093 0.471411
vt 0.3366607 0.4713981
vt 0.3367093 0.471411
vt 0.3367497 0.471433
vt 0.3367497 0.471433
vt 0.3367093 0.471411
vt 0.3367976 0.4714703
vt 0.3367497 0.471433
vt 0.3367497 0.471433
vt 0.3367976 0.4714703
vt 0.3361599 0.4734536
vt 0.3361664 0.473424
vt 0.3361664 0.473424
vt 0.3361599 0.4734536
vt 0.3361664 0.473424
vt 0.3361842 0.4734041
vt 0.3361842 0.4734041
vt 0.3361664 0.473424
vt 0.3361842 0.4734041
vt 0.3362082 0.4733993
vt 0.3362082 0.4733993
vt 0.3361842 0.4734041
vt 0.3362082 0.4733993
vt 0.3362082 0.4733993
vt 0.3363788 0.4734229
vt 0.3363788 0.4734229
vt 0 0
vt 0 0
vt 0 0
vt 0 0
vt 0 0
vt 0 0
vt 0 0
vt 0 0
vt 0 0
vt 0 0
vt 0 0
vt 0 0
vt 0 0
vt 0 0
vn 0 1.038924E-07 1
vn -1.417669E-07 2.404544E-07 1
vn 0 1.025516E-06 1
vn -1.214924E-07 0 -1
vn 1.83256E-07 9.502066E-07 -1
vn -1.825947E-07 0 -1
vn -0.5906097 0.8069574 0
vn -0.5906097 0.8069574 0
vn -0.5906097 0.8069574 0
vn -0.5906097 0.8069574 0
vn 0.2034969 0.7992225 0.5655372
vn -0.6121033 0.7907778 3.211947E-07
vn 0.2034969 0.7992231 -0.5655364
vn 0 1.482958E-07 -1
vn 0 1.458697E-07 -1
vn 0 1.458697E-07 -1
vn 0 1.458697E-07 -1
vn 0 1.458697E-07 -1
vn 0 1.960072E-07 -1
vn 4.2299E-07 1.508713E-07 -1
vn 0 2.019324E-07 -1
vn 1.022348E-07 1.849907E-07 -1
vn 0.7371802 0.2601172 -0.623622
vn 0.6807932 -0.3788452 -0.6268947
vn 0.8072718 0.06043182 -0.5870778
vn 1.104636E-07 1.705036E-07 -1
vn 4.662737E-07 1.062576E-07 -1
vn 5.315667E-07 0 -1
vn 0 2.390282E-07 -1
vn 1.658414E-07 2.645533E-07 -1
vn 1.052101E-07 1.900954E-07 -1
vn 1.138058E-07 1.739087E-07 -1
vn 0.6408353 -0.3537519 -0.6813148
vn 0.6442062 -0.3395265 -0.6853613
vn 0.7867361 -0.06757902 -0.6135792
vn 0.2034969 0.7992231 -0.5655364
vn 1.264199E-07 2.042499E-07 -1
vn 1.465651E-07 1.169303E-07 -1
vn 1.501819E-07 0 -1
vn 2.343774E-07 0 -1
vn 1.112419E-07 0 -1
vn -5.708779E-07 3.371043E-07 -1
vn 1.886648E-07 -6.011776E-07 -1
vn 4.625558E-07 1.299598E-06 -1
vn 1.83256E-07 9.502066E-07 -1
vn 0 0 -1
vn -1.825947E-07 0 -1
vn 1.030762E-07 7.344958E-07 -1
vn -1.214924E-07 0 -1
vn -0.5407999 0.8411514 0
vn -0.5407999 0.8411514 0
vn -0.5407999 0.8411514 0
vn -0.5407999 0.8411514 0
vn 0 -3.1909E-07 1
vn 0 -3.1909E-07 1
vn 0 -2.961748E-07 1
vn 0 -3.1909E-07 1
vn 0 -3.1909E-07 1
vn 0 -2.013091E-07 1
vn 0 -6.379972E-07 1
vn 0 -2.239524E-07 1
vn 0 -2.648199E-07 1
vn 0.6807929 -0.3788457 0.6268948
vn 0.7371801 0.2601171 0.6236222
vn 0.8072717 0.06043142 0.5870779
vn 0 -1.954009E-07 1
vn 0 -3.207455E-06 1
vn 0 -7.378551E-06 1
vn 0 -1.820366E-07 1
vn 0 -1.418777E-07 1
vn -1.151822E-07 -2.145213E-07 1
vn -1.04435E-07 -1.732103E-07 1
vn 0.6408352 -0.3537521 0.6813147
vn 0 0 1
vn -2.731295E-07 -4.60841E-07 1
vn -4.53317E-07 -3.371137E-07 1
vn 1.019741E-07 6.01176E-07 1
vn -1.539257E-07 3.24898E-07 1
vn 0 -2.140921E-07 1
vn 0 -2.516394E-07 1
vn -1.252857E-07 -1.867276E-07 1
vn 0.7867345 -0.06757996 0.6135809
vn 0.6442059 -0.3395267 0.6853616
vn 0.2034969 0.7992225 0.5655372
vn -1.417669E-07 2.404544E-07 1
vn 0 6.099116E-07 1
vn 0 1.025516E-06 1
vn 0 -2.067883E-07 1
vn 0 1.038924E-07 1
vn 0.1170361 -0.9931277 0
vn 0.1170361 -0.9931277 0
vn 0.1170361 -0.9931277 0
vn 0.1170361 -0.9931277 0
vn -0.6258179 -0.7799692 0
vn -0.6258179 -0.7799692 0
vn -0.6258179 -0.7799692 0
vn -0.6258179 -0.7799692 0
vn -0.869199 -0.4944623 0
vn -0.869199 -0.4944623 0
vn -0.869199 -0.4944623 0
vn -0.869199 -0.4944623 0
vn 0.6228192 -0.7823659 0
vn 0.6228192 -0.7823659 0
vn 0.6228192 -0.7823659 0
vn 0.6228192 -0.7823659 0
vn 0.6807932 -0.3788452 -0.6268947
vn 0.6049442 -0.7962679 -2.694113E-07
vn 0.6807929 -0.3788457 0.6268948
vn 0.4798282 -0.8773624 9.020937E-07
vn 0.4798282 -0.8773624 9.020937E-07
vn 0.4798282 -0.8773624 9.020937E-07
vn 0.4798282 -0.8773624 9.020937E-07
vn -0.7335027 0.6796866 -5.63483E-07
vn -0.7335027 0.6796866 -5.63483E-07
vn -0.7335027 0.6796866 -5.63483E-07
vn -0.7335027 0.6796866 -5.63483E-07
vn 0.1440334 -0.9895728 4.020055E-07
vn 0.1440334 -0.9895728 4.020055E-07
vn 0.1440334 -0.9895728 4.020055E-07
vn 0.1440334 -0.9895728 4.020055E-07
vn -0.6710769 -0.7413878 0
vn -0.6710769 -0.7413878 0
vn -0.6710769 -0.7413878 0
vn -0.6710769 -0.7413878 0
vn -0.3205929 -0.9472171 0
vn -0.3205929 -0.9472171 0
vn -0.3205929 -0.9472171 0
vn -0.3205929 -0.9472171 0
vn -0.030889 -0.9995228 0
vn -0.030889 -0.9995228 0
vn -0.030889 -0.9995228 0
vn -0.030889 -0.9995228 0
vn -0.8311545 -0.5560415 -1.228187E-07
vn -0.8311545 -0.5560415 -1.228187E-07
vn -0.8311545 -0.5560415 -1.228187E-07
vn -0.8311545 -0.5560415 -1.228187E-07
vn -0.9849022 -0.1731119 -1.862323E-07
vn -0.9849022 -0.1731119 -1.862323E-07
vn -0.9849022 -0.1731119 -1.862323E-07
vn -0.9849022 -0.1731119 -1.862323E-07
vn -0.9900603 0.1406429 0
vn -0.9900603 0.1406429 0
vn -0.9900603 0.1406429 0
vn -0.9900603 0.1406429 0
vn -0.9548038 0.297237 0
vn -0.9548038 0.297237 0
vn -0.9548038 0.297237 0
vn -0.9548038 0.297237 0
vn 0.5235295 -0.8520075 0
vn 0.5235295 -0.8520075 0
vn 0.5235295 -0.8520075 0
vn 0.5235295 -0.8520075 0
vn 0.1999942 -0.9797971 0
vn 0.1999942 -0.9797971 0
vn 0.1999942 -0.9797971 0
vn 0.1999942 -0.9797971 0
vn -0.5757669 -0.817614 0
vn -0.5757669 -0.817614 0
vn -0.5757669 -0.817614 0
vn -0.5757669 -0.817614 0
vn -0.9345418 -0.3558533 0
vn -0.9345418 -0.3558533 0
vn -0.9345418 -0.3558533 0
vn -0.9345418 -0.3558533 0
vn 0.7371801 0.2601171 0.6236222
vn 0.6807932 -0.3788452 -0.6268947
vn 0.6807929 -0.3788457 0.6268948
vn 0.7371802 0.2601172 -0.623622
vn 0.8072717 0.06043142 0.5870779
vn 0.8072718 0.06043182 -0.5870778
vn 0.6408352 -0.3537521 0.6813147
vn 0.6408353 -0.3537519 -0.6813148
vn 0.6442059 -0.3395267 0.6853616
vn 0.6442062 -0.3395265 -0.6853613
vn 0.7867345 -0.06757996 0.6135809
vn 0.7867361 -0.06757902 -0.6135792
vn 0.2034969 0.7992225 0.5655372
vn 0.2034969 0.7992231 -0.5655364
g Cube.018_0
f 3/3/3 2/2/2 1/1/1
f 6/6/6 5/5/5 4/4/4
f 9/9/9 8/8/8 7/7/7
f 10/10/10 9/9/9 7/7/7
f 12/12/12 7/7/7 11/11/11
f 13/13/13 12/12/12 11/11/11
f 16/16/16 15/15/15 14/14/14
f 17/17/17 16/16/16 14/14/14
f 18/18/18 17/17/17 14/14/14
f 18/18/18 14/14/14 19/19/19
f 20/20/20 19/19/19 14/14/14
f 18/18/18 19/19/19 21/21/21
f 21/21/21 22/22/22 18/18/18
f 22/22/22 21/21/21 23/23/23
f 24/24/24 22/22/22 23/23/23
f 25/25/25 23/23/23 21/21/21
f 25/25/25 21/21/21 26/26/26
f 26/26/26 21/21/21 19/19/19
f 27/27/27 19/19/19 20/20/20
f 28/28/28 27/27/27 20/20/20
f 29/29/29 27/27/27 28/28/28
f 19/19/19 27/27/27 30/30/30
f 27/27/27 29/29/29 30/30/30
f 19/19/19 30/30/30 26/26/26
f 29/29/29 31/31/31 30/30/30
f 25/25/25 26/26/26 32/32/32
f 32/32/32 33/33/33 25/25/25
f 34/34/34 33/33/33 32/32/32
f 35/35/35 34/34/34 32/32/32
f 36/36/36 35/35/35 32/32/32
f 37/37/37 36/36/36 32/32/32
f 32/32/32 26/26/26 37/37/37
f 26/26/26 38/38/38 37/37/37
f 38/38/38 26/26/26 30/30/30
f 30/30/30 39/39/39 38/38/38
f 31/31/31 40/40/40 30/30/30
f 41/41/41 40/40/40 31/31/31
f 42/42/42 40/40/40 41/41/41
f 43/43/43 40/40/40 42/42/42
f 43/43/43 44/44/44 40/40/40
f 44/44/44 30/30/30 40/40/40
f 30/30/30 45/45/45 39/39/39
f 45/45/45 30/30/30 44/44/44
f 45/45/45 46/46/46 39/39/39
f 46/46/46 45/45/45 47/47/47
f 48/48/48 45/45/45 44/44/44
f 49/49/49 45/45/45 48/48/48
f 52/52/52 51/51/51 50/50/50
f 53/53/53 52/52/52 50/50/50
f 56/56/56 55/55/55 54/54/54
f 56/56/56 54/54/54 57/57/57
f 56/56/56 57/57/57 58/58/58
f 59/59/59 56/56/56 58/58/58
f 56/56/56 59/59/59 60/60/60
f 61/61/61 59/59/59 58/58/58
f 58/58/58 62/62/62 61/61/61
f 61/61/61 62/62/62 63/63/63
f 64/64/64 61/61/61 63/63/63
f 64/64/64 65/65/65 61/61/61
f 66/66/66 61/61/61 65/65/65
f 59/59/59 61/61/61 66/66/66
f 60/60/60 59/59/59 67/67/67
f 68/68/68 60/60/60 67/67/67
f 68/68/68 67/67/67 69/69/69
f 70/70/70 67/67/67 59/59/59
f 70/70/70 69/69/69 67/67/67
f 66/66/66 70/70/70 59/59/59
f 70/70/70 71/71/71 69/69/69
f 72/72/72 66/66/66 65/65/65
f 65/65/65 73/73/73 72/72/72
f 70/70/70 74/74/74 71/71/71
f 71/71/71 74/74/74 75/75/75
f 75/75/75 74/74/74 76/76/76
f 76/76/76 74/74/74 77/77/77
f 77/77/77 74/74/74 78/78/78
f 74/74/74 70/70/70 78/78/78
f 70/70/70 66/66/66 79/79/79
f 79/79/79 66/66/66 72/72/72
f 79/79/79 80/80/80 70/70/70
f 81/81/81 79/79/79 72/72/72
f 82/82/82 72/72/72 73/73/73
f 81/81/81 72/72/72 82/82/82
f 83/83/83 82/82/82 73/73/73
f 84/84/84 81/81/81 82/82/82
f 78/78/78 70/70/70 85/85/85
f 80/80/80 85/85/85 70/70/70
f 86/86/86 78/78/78 85/85/85
f 86/86/86 85/85/85 87/87/87
f 80/80/80 88/88/88 85/85/85
f 89/89/89 85/85/85 88/88/88
f 92/92/92 91/91/91 90/90/90
f 93/93/93 92/92/92 90/90/90
f 96/96/96 95/95/95 94/94/94
f 97/97/97 96/96/96 94/94/94
f 100/100/100 99/99/99 98/98/98
f 101/101/101 100/100/100 98/98/98
f 104/104/104 103/103/103 102/102/102
f 105/105/105 104/104/104 102/102/102
f 105/105/105 107/107/107 106/106/106
f 108/108/108 105/105/105 106/106/106
f 111/111/111 110/110/110 109/109/109
f 112/112/112 111/111/111 109/109/109
f 115/115/115 114/114/114 113/113/113
f 116/116/116 115/115/115 113/113/113
f 119/119/119 118/118/118 117/117/117
f 120/120/120 119/119/119 117/117/117
f 123/123/123 122/122/122 121/121/121
f 124/124/124 123/123/123 121/121/121
f 127/127/127 126/126/126 125/125/125
f 128/128/128 127/127/127 125/125/125
f 131/131/131 130/130/130 129/129/129
f 132/132/132 131/131/131 129/129/129
f 135/135/135 134/134/134 133/133/133
f 136/136/136 135/135/135 133/133/133
f 139/139/139 138/138/138 137/137/137
f 140/140/140 139/139/139 137/137/137
f 143/143/143 142/142/142 141/141/141
f 144/144/144 143/143/143 141/141/141
f 147/147/147 146/146/146 145/145/145
f 148/148/148 147/147/147 145/145/145
f 151/151/151 150/150/150 149/149/149
f 152/152/152 151/151/151 149/149/149
f 155/155/155 154/154/154 153/153/153
f 156/156/156 155/155/155 153/153/153
f 159/159/159 158/158/158 157/157/157
f 160/160/160 159/159/159 157/157/157
f 163/163/163 162/162/162 161/161/161
f 164/164/164 163/163/163 161/161/161
f 167/167/167 166/166/166 165/165/165
f 166/166/166 168/168/168 165/165/165
f 165/165/165 168/168/168 169/169/169
f 168/168/168 170/170/170 169/169/169
f 169/169/169 170/170/170 171/171/171
f 170/170/170 172/172/172 171/171/171
f 171/171/171 172/172/172 173/173/173
f 172/172/172 174/174/174 173/173/173
f 173/173/173 174/174/174 175/175/175
f 174/174/174 176/176/176 175/175/175
f 175/175/175 176/176/176 177/177/177
f 176/176/176 178/178/178 177/177/177
