g Cube.011
v -0.4735906 0.3162006 -0.07919863
v -0.4517644 0.2955862 -0.07919864
v -0.4517644 0.295586 0.07927828
v -0.4735906 0.3162004 0.07927828
v -0.4735906 0.3162004 0.07927828
v -0.4517644 0.295586 0.07927828
v -0.672368 0.4250251 0.07927839
v -0.7051346 0.360305 0.07927835
v -0.7201664 0.3915995 0.07927838
v -0.7176104 0.3724841 0.07927838
v -0.7231122 0.3839387 0.07927838
v -0.3329875 0.07620895 0.07927813
v -0.2803261 0.1440559 0.07927816
v 0.06134236 -0.1342764 0.07927792
v 0.01073611 -0.1987277 0.07927787
v 0.2568555 -0.3919776 0.07927772
v 0.3349069 -0.3799781 0.07927774
v 0.2374356 0.0899924 0.07927807
v 0.2703592 -0.298391 0.0792778
v 0.3678235 -0.3749174 0.07927772
v 0.2702371 -0.2323914 0.07927784
v 0.2697703 -0.1764691 0.07927787
v 0.3735606 -0.1551784 0.07927787
v 0.3842072 -0.1924372 0.07927786
v 0.5198755 -0.1317804 0.07927787
v 0.5204654 -0.1034299 0.0792779
v 0.2880419 0.1544434 0.07927808
v 0.5220087 -0.02926457 0.07927793
v -0.672368 0.4250253 -0.07919854
v -0.4517644 0.2955862 -0.07919864
v -0.4735906 0.3162006 -0.07919863
v -0.7051346 0.360305 -0.07919858
v -0.7201664 0.3915998 -0.07919855
v -0.7176104 0.3724843 -0.07919857
v -0.7231122 0.3839387 -0.07919856
v -0.3329875 0.07620907 -0.07919881
v -0.2803261 0.1440561 -0.07919878
v 0.06134236 -0.1342763 -0.079199
v 0.01073611 -0.1987276 -0.07919905
v 0.2568556 -0.3919776 -0.0791992
v 0.334907 -0.3799778 -0.0791992
v 0.3678235 -0.3749172 -0.0791992
v 0.270359 -0.298391 -0.07919913
v 0.2702373 -0.2323914 -0.0791991
v 0.2374356 0.08999252 -0.07919888
v 0.2697701 -0.176469 -0.07919906
v 0.3735604 -0.1551781 -0.07919906
v 0.3842072 -0.1924372 -0.07919909
v 0.5198755 -0.1317803 -0.07919906
v 0.5204655 -0.1034297 -0.07919905
v 0.5220087 -0.02926433 -0.079199
v 0.2880419 0.1544435 -0.07919885
v -0.672368 0.4250251 0.07927839
v -0.672368 0.4250253 -0.07919854
v -0.4735906 0.3162006 -0.07919863
v -0.4735906 0.3162004 0.07927828
v -0.7051346 0.360305 0.07927835
v -0.7051346 0.360305 -0.07919858
v -0.7176104 0.3724843 -0.07919857
v -0.7176104 0.3724841 0.07927838
v -0.7176104 0.3724841 0.07927838
v -0.7176104 0.3724843 -0.07919857
v -0.7231122 0.3839387 -0.07919856
v -0.7231122 0.3839387 0.07927838
v -0.7231122 0.3839387 0.07927838
v -0.7231122 0.3839387 -0.07919856
v -0.7201664 0.3915998 -0.07919855
v -0.7201664 0.3915995 0.07927838
v -0.672368 0.4250251 0.07927839
v -0.7201664 0.3915995 0.07927838
v -0.7201664 0.3915998 -0.07919855
v -0.672368 0.4250253 -0.07919854
v 0.2880419 0.1544435 -0.07919885
v 0.5220087 -0.02926457 0.07927793
v 0.2880419 0.1544434 0.07927808
v 0.5220085 -0.02926433 -0.04108944
v 0.5220087 -0.02926433 -0.079199
v -0.3329875 0.07620895 0.07927813
v -0.7051346 0.360305 -0.07919858
v -0.7051346 0.360305 0.07927835
v -0.3329875 0.07620907 -0.07919881
v 0.01073611 -0.1987276 -0.07919905
v 0.01073611 -0.1987277 0.07927787
v 0.2568556 -0.3919776 -0.0791992
v 0.2568557 -0.3919778 0.03918864
v 0.2568555 -0.3919776 0.07927772
v 0.5198755 -0.1317803 -0.07919906
v 0.5220087 -0.02926457 0.07927793
v 0.5220087 -0.02926433 -0.079199
v 0.5204655 -0.1034297 -0.07919905
v 0.3735604 -0.1551781 -0.07919906
v 0.5204654 -0.1034299 0.0792779
v 0.5220087 -0.02926457 0.07927793
v 0.5198755 -0.1317803 -0.07919906
v 0.3842072 -0.1924372 -0.07919909
v 0.5198755 -0.1317804 0.07927787
v 0.5204654 -0.1034299 0.0792779
v 0.3735604 -0.1551781 -0.07919906
v 0.2697701 -0.176469 -0.07919906
v 0.3735606 -0.1551784 0.07927787
v 0.5198755 -0.1317804 0.07927787
v 0.3842072 -0.1924372 -0.07919909
v 0.2702373 -0.2323914 -0.0791991
v 0.3842072 -0.1924372 0.07927786
v 0.3735606 -0.1551784 0.07927787
v 0.2697701 -0.176469 -0.07919906
v 0.270359 -0.298391 -0.07919913
v 0.2697703 -0.1764691 0.07927787
v 0.3842072 -0.1924372 0.07927786
v 0.2702373 -0.2323914 -0.0791991
v 0.3678235 -0.3749172 -0.0791992
v 0.2702371 -0.2323914 0.07927784
v 0.2697703 -0.1764691 0.07927787
v 0.270359 -0.298391 -0.07919913
v 0.334907 -0.3799778 -0.0791992
v 0.2703592 -0.298391 0.0792778
v 0.2702371 -0.2323914 0.07927784
v 0.3678235 -0.3749172 -0.0791992
v 0.2568556 -0.3919776 -0.0791992
v 0.3678235 -0.3749174 0.07927772
v 0.2703592 -0.298391 0.0792778
v 0.334907 -0.3799778 -0.0791992
v 0.2568557 -0.3919778 0.03918864
v 0.3678235 -0.3749174 0.07927772
v 0.2568556 -0.3919776 -0.0791992
v 0.3349069 -0.3799781 0.07927774
v 0.2568555 -0.3919776 0.07927772
v 0.2374356 0.0899924 0.07927807
v 0.2374356 0.08999252 -0.07919888
v 0.2880419 0.1544435 -0.07919885
v 0.2880419 0.1544434 0.07927808
v -0.2803261 0.1440559 0.07927816
v -0.2803261 0.1440561 -0.07919878
v 0.2374356 0.08999252 -0.07919888
v 0.2374356 0.0899924 0.07927807
v -0.4517644 0.295586 0.07927828
v -0.4517644 0.2955862 -0.07919864
v -0.2803261 0.1440561 -0.07919878
v -0.2803261 0.1440559 0.07927816
vt 0.7763754 0.4709617
vt 0 0
vt 0.7021797 0.1012655
vt 0.7763754 0.4709617
vt 0.7032993 0.09243131
vt 0.7021797 0.1012655
vt 0.6869791 0.05533805
vt 0.6616526 0.06064597
vt 0.6672505 0.05124289
vt 0.6624045 0.05551943
vt 0.6644534 0.05207774
vt 0.6615854 0.1981947
vt 0.6920784 0.1966847
vt 0.6870753 0.3263662
vt 0.6579836 0.3276717
vt 0.656425 0.4196807
vt 0.6766193 0.4346336
vt 0.7773893 0.3215338
vt 0.6857526 0.4045042
vt 0.6851358 0.4409398
vt 0.7023737 0.391613
vt 0.7163875 0.3806099
vt 0.7416521 0.3993765
vt 0.7342964 0.4089894
vt 0.7755996 0.4271215
vt 0.7837301 0.4217489
vt 0.8064812 0.3202281
vt 0.8049996 0.4076939
vt 0.6869791 0.05533805
vt 0.7021797 0.1012655
vt 0.7032993 0.09243131
vt 0.6616526 0.06064597
vt 0.6672505 0.05124289
vt 0.6624045 0.05551943
vt 0.6644534 0.05207774
vt 0.6615854 0.1981947
vt 0.6920785 0.1966847
vt 0.6870753 0.3263662
vt 0.6579836 0.3276717
vt 0.656425 0.4196807
vt 0.6766193 0.4346337
vt 0.6851358 0.4409398
vt 0.6857526 0.4045041
vt 0.7023737 0.391613
vt 0.7773893 0.3215338
vt 0.7163875 0.3806099
vt 0.741652 0.3993763
vt 0.7342965 0.4089894
vt 0.7755996 0.4271215
vt 0.78373 0.4217489
vt 0.8049996 0.4076939
vt 0.8064812 0.3202281
vt 0.7758977 0.4734229
vt 0.7758977 0.4734229
vt 0.7763754 0.4709617
vt 0.7763754 0.4709617
vt 0.7757577 0.4734536
vt 0.7757577 0.4734536
vt 0.7757619 0.473424
vt 0.7757619 0.473424
vt 0.7757619 0.473424
vt 0.7757619 0.473424
vt 0.7757732 0.4734041
vt 0.7757732 0.4734041
vt 0.7757732 0.4734041
vt 0.7757732 0.4734041
vt 0.7757886 0.4733993
vt 0.7757886 0.4733993
vt 0.7758977 0.4734229
vt 0.7757886 0.4733993
vt 0.7757886 0.4733993
vt 0.7758977 0.4734229
vt 0.7755616 0.4749249
vt 0.7755533 0.47543
vt 0.7755616 0.4749249
vt 0.7755533 0.47543
vt 0.7755535 0.47543
vt 0.7757574 0.4742479
vt 0.7757577 0.4734536
vt 0.7757577 0.4734536
vt 0.7757574 0.4742479
vt 0.7757374 0.4749956
vt 0.7757374 0.4749956
vt 0.7757289 0.4755269
vt 0.7757289 0.4755269
vt 0.7757289 0.4755269
vt 0 0
vt 0 0
vt 0 0
vt 0 0
vt 0 0
vt 0 0
vt 0 0
vt 0 0
vt 0 0
vt 0 0
vt 0 0
vt 0 0
vt 0 0
vt 0 0
vt 0 0
vt 0 0
vt 0 0
vt 0 0
vt 0 0
vt 0 0
vt 0 0
vt 0 0
vt 0 0
vt 0 0
vt 0 0
vt 0 0
vt 0 0
vt 0 0
vt 0 0
vt 0 0
vt 0 0
vt 0 0
vt 0 0
vt 0 0
vt 0 0
vt 0 0
vt 0 0
vt 0 0
vt 0 0
vt 0 0
vt 0 0
vt 0 0
vt 0 0
vt 0 0
vt 0 0
vt 0 0
vt 0 0
vt 0 0
vt 0 0
vt 0 0
vt 0 0
vt 0 0
vt 0 0
vn 0.6866357 0.7270017 1.046904E-06
vn 0.6745411 0.7382373 9.859011E-07
vn 0.6745411 0.7382373 9.859011E-07
vn 0.6866357 0.7270017 1.046904E-06
vn 1.248375E-06 2.162798E-06 1
vn 1.569867E-07 -5.208505E-07 1
vn 1.212054E-07 -6.609049E-07 1
vn 4.286896E-07 -6.094389E-07 1
vn 5.198436E-07 -4.581845E-07 1
vn 2.43762E-06 1.245321E-07 1
vn 0 0 1
vn 1.910188E-07 -6.452981E-07 1
vn 2.019428E-07 -6.50696E-07 1
vn 0 -7.286797E-07 1
vn 0 -7.488077E-07 1
vn 0 -7.744499E-07 1
vn 1.076279E-07 -7.83167E-07 1
vn 1.647346E-07 -6.059568E-07 1
vn 1.284349E-07 -7.921061E-07 1
vn 1.542775E-07 -7.865822E-07 1
vn 0 -7.490669E-07 1
vn 1.016349E-07 -6.375887E-07 1
vn 1.016349E-07 -6.375887E-07 1
vn 1.016349E-07 -6.375887E-07 1
vn 0 -7.84629E-07 1
vn 0 -7.680899E-07 1
vn 2.903428E-07 -4.486762E-07 1
vn 2.903428E-07 -4.486762E-07 1
vn -1.133229E-07 7.191572E-07 -1
vn 0 6.925923E-07 -1
vn -1.2857E-07 5.406978E-07 -1
vn 0 5.830233E-07 -1
vn 0 7.244975E-07 -1
vn 2.091535E-07 -2.00606E-07 -1
vn 3.723882E-07 1.533931E-06 -1
vn -1.347708E-07 7.059309E-07 -1
vn -1.494652E-07 7.013969E-07 -1
vn -1.090819E-07 6.386262E-07 -1
vn 0 6.196439E-07 -1
vn 0 6.195592E-07 -1
vn 0 8.808685E-07 -1
vn 0 9.832434E-07 -1
vn 0 9.448476E-07 -1
vn -1.763853E-07 7.442046E-07 -1
vn -1.485008E-07 6.306358E-07 -1
vn -1.363721E-07 6.24023E-07 -1
vn -1.363721E-07 6.24023E-07 -1
vn -1.363721E-07 6.24023E-07 -1
vn -1.789528E-07 5.824118E-07 -1
vn -2.012002E-07 5.742089E-07 -1
vn -1.672817E-07 6.366871E-07 -1
vn -1.672817E-07 6.366871E-07 -1
vn 0.4802141 0.8771513 1.346641E-06
vn 0.480214 0.8771514 1.45221E-06
vn 0.4802141 0.8771513 1.28605E-06
vn 0.4802142 0.8771513 1.18048E-06
vn -0.69855 -0.7155612 -1.071265E-06
vn -0.6985575 -0.7155539 0
vn -0.6985569 -0.7155546 0
vn -0.6985496 -0.7155618 -1.151598E-06
vn -0.9014098 -0.4329668 0
vn -0.9014077 -0.4329714 0
vn -0.9014078 -0.4329711 0
vn -0.90141 -0.4329666 0
vn -0.9333698 0.358916 8.826868E-07
vn -0.9333732 0.3589072 0
vn -0.9333732 0.3589075 0
vn -0.9333697 0.3589163 9.127567E-07
vn -0.5730793 0.8195 1.265735E-06
vn -0.573079 0.8195001 1.282139E-06
vn -0.5730797 0.8194996 1.225475E-06
vn -0.5730799 0.8194995 1.209071E-06
vn 0.6175657 0.7865193 7.180964E-07
vn 0.6175658 0.7865192 6.654524E-07
vn 0.6175658 0.7865193 6.654524E-07
vn 0.5242347 0.8515739 1.170602E-06
vn 0.6175656 0.7865194 1.314442E-06
vn -0.6246366 -0.7809156 -5.886775E-07
vn -0.6067933 -0.7948596 -1.669151E-07
vn -0.6067933 -0.7948596 0
vn -0.6246366 -0.7809156 -6.040841E-07
vn -0.6211074 -0.7837256 -5.394575E-07
vn -0.6211074 -0.7837256 -5.343693E-07
vn -0.6175655 -0.7865194 -5.294388E-07
vn -0.6175655 -0.7865194 -5.590639E-07
vn -0.6175655 -0.7865194 -5.939197E-07
vn 0.9997836 -0.02080329 7.296769E-07
vn 0.9997836 -0.02080329 7.296769E-07
vn 0.9997836 -0.02080329 7.296769E-07
vn 0.9997836 -0.02080329 7.296769E-07
vn 0.5448736 -0.8257637 0.145695
vn 0.5448736 -0.8257637 0.145695
vn 0.5448736 -0.8257637 0.145695
vn 0.5448736 -0.8257637 0.145695
vn 0.7220259 0.1106765 -0.6829563
vn 0.7220259 0.1106765 -0.6829563
vn 0.7220259 0.1106765 -0.6829563
vn 0.7220259 0.1106765 -0.6829563
vn 0.02771512 -0.9726678 0.230541
vn 0.02771512 -0.9726678 0.230541
vn 0.02771512 -0.9726678 0.230541
vn 0.02771512 -0.9726678 0.230541
vn 0.8115208 0.09679108 -0.5762514
vn 0.8115208 0.09679108 -0.5762514
vn 0.8115208 0.09679108 -0.5762514
vn 0.8115208 0.09679108 -0.5762514
vn 0.3813729 -0.8713857 0.3086125
vn 0.3813729 -0.8713857 0.3086125
vn 0.3813729 -0.8713857 0.3086125
vn 0.3813729 -0.8713857 0.3086125
vn 0.7806198 0.5771837 -0.2397744
vn 0.7806198 0.5771837 -0.2397744
vn 0.7806198 0.5771837 -0.2397744
vn 0.7806198 0.5771837 -0.2397744
vn 0.7226315 -0.3334959 0.6054621
vn 0.7226315 -0.3334959 0.6054621
vn 0.7226315 -0.3334959 0.6054621
vn 0.7226315 -0.3334959 0.6054621
vn 0.9559913 0.2096401 -0.2052594
vn 0.9559913 0.2096401 -0.2052594
vn 0.9559913 0.2096401 -0.2052594
vn 0.9559913 0.2096401 -0.2052594
vn 0.1519561 -0.9883872 5.962077E-07
vn 0.1519571 -0.9883872 -9.869277E-07
vn 0.1519571 -0.9883872 -9.869277E-07
vn 0.1519567 -0.9883872 -3.114854E-07
vn 0.1519544 -0.9883875 3.530221E-06
vn -0.7865183 0.6175669 4.302933E-07
vn -0.7865183 0.6175669 4.302933E-07
vn -0.7865183 0.6175669 4.302933E-07
vn -0.7865183 0.6175669 4.302933E-07
vn 0.1038532 0.9945926 7.478857E-07
vn 0.1038532 0.9945926 7.478857E-07
vn 0.1038532 0.9945926 7.478857E-07
vn 0.1038532 0.9945926 7.478857E-07
vn 0.6745411 0.7382373 9.859011E-07
vn 0.6745411 0.7382373 9.859011E-07
vn 0.6622627 0.7492718 9.246301E-07
vn 0.6622627 0.7492718 9.246301E-07
g Cube.011_0
f 3/3/3 2/2/2 1/1/1
f 4/4/4 3/3/3 1/1/1
f 7/7/7 6/6/6 5/5/5
f 7/7/7 8/8/8 6/6/6
f 9/9/9 8/8/8 7/7/7
f 9/9/9 10/10/10 8/8/8
f 11/11/11 10/10/10 9/9/9
f 12/12/12 6/6/6 8/8/8
f 13/13/13 6/6/6 12/12/12
f 13/13/13 12/12/12 14/14/14
f 12/12/12 15/15/15 14/14/14
f 14/14/14 15/15/15 16/16/16
f 17/17/17 14/14/14 16/16/16
f 13/13/13 14/14/14 18/18/18
f 19/19/19 14/14/14 17/17/17
f 20/20/20 19/19/19 17/17/17
f 21/21/21 14/14/14 19/19/19
f 14/14/14 21/21/21 22/22/22
f 22/22/22 18/18/18 14/14/14
f 18/18/18 22/22/22 23/23/23
f 24/24/24 23/23/23 22/22/22
f 23/23/23 25/25/25 18/18/18
f 26/26/26 18/18/18 25/25/25
f 27/27/27 18/18/18 26/26/26
f 28/28/28 27/27/27 26/26/26
f 31/31/31 30/30/30 29/29/29
f 32/32/32 29/29/29 30/30/30
f 29/29/29 32/32/32 33/33/33
f 34/34/34 33/33/33 32/32/32
f 35/35/35 33/33/33 34/34/34
f 32/32/32 30/30/30 36/36/36
f 37/37/37 36/36/36 30/30/30
f 36/36/36 37/37/37 38/38/38
f 39/39/39 36/36/36 38/38/38
f 40/40/40 39/39/39 38/38/38
f 41/41/41 40/40/40 38/38/38
f 42/42/42 41/41/41 38/38/38
f 43/43/43 42/42/42 38/38/38
f 43/43/43 38/38/38 44/44/44
f 45/45/45 38/38/38 37/37/37
f 46/46/46 44/44/44 38/38/38
f 38/38/38 45/45/45 46/46/46
f 47/47/47 46/46/46 45/45/45
f 47/47/47 48/48/48 46/46/46
f 45/45/45 49/49/49 47/47/47
f 50/50/50 49/49/49 45/45/45
f 51/51/51 50/50/50 45/45/45
f 52/52/52 51/51/51 45/45/45
f 55/55/55 54/54/54 53/53/53
f 56/56/56 55/55/55 53/53/53
f 59/59/59 58/58/58 57/57/57
f 60/60/60 59/59/59 57/57/57
f 63/63/63 62/62/62 61/61/61
f 64/64/64 63/63/63 61/61/61
f 67/67/67 66/66/66 65/65/65
f 68/68/68 67/67/67 65/65/65
f 71/71/71 70/70/70 69/69/69
f 72/72/72 71/71/71 69/69/69
f 75/75/75 74/74/74 73/73/73
f 74/74/74 76/76/76 73/73/73
f 76/76/76 77/77/77 73/73/73
f 77/77/77 76/76/76 74/74/74
f 80/80/80 79/79/79 78/78/78
f 79/79/79 81/81/81 78/78/78
f 78/78/78 81/81/81 82/82/82
f 83/83/83 78/78/78 82/82/82
f 83/83/83 82/82/82 84/84/84
f 85/85/85 83/83/83 84/84/84
f 86/86/86 83/83/83 85/85/85
f 89/89/89 88/88/88 87/87/87
f 90/90/90 89/89/89 87/87/87
f 93/93/93 92/92/92 91/91/91
f 94/94/94 93/93/93 91/91/91
f 97/97/97 96/96/96 95/95/95
f 98/98/98 97/97/97 95/95/95
f 101/101/101 100/100/100 99/99/99
f 102/102/102 101/101/101 99/99/99
f 105/105/105 104/104/104 103/103/103
f 106/106/106 105/105/105 103/103/103
f 109/109/109 108/108/108 107/107/107
f 110/110/110 109/109/109 107/107/107
f 113/113/113 112/112/112 111/111/111
f 114/114/114 113/113/113 111/111/111
f 117/117/117 116/116/116 115/115/115
f 118/118/118 117/117/117 115/115/115
f 121/121/121 120/120/120 119/119/119
f 122/122/122 121/121/121 119/119/119
f 125/125/125 124/124/124 123/123/123
f 124/124/124 126/126/126 123/123/123
f 126/126/126 127/127/127 123/123/123
f 130/130/130 129/129/129 128/128/128
f 131/131/131 130/130/130 128/128/128
f 134/134/134 133/133/133 132/132/132
f 135/135/135 134/134/134 132/132/132
f 138/138/138 137/137/137 136/136/136
f 139/139/139 138/138/138 136/136/136
