g Cube.008
v -0.3273656 -0.1812447 -0.07380632
v 0.4477552 -0.2269548 -0.07380634
v 0.5661715 -0.1574295 -0.07380632
v -0.3228698 -0.1050084 -0.0738063
v -0.6422501 -0.1601865 -0.0738063
v -0.6445891 -0.08097303 -0.0738063
v -0.5143744 0.01011431 -0.07380629
v -0.6392189 0.01011431 -0.07380629
v -0.6445314 -0.04035461 -0.07380629
v -0.4851557 0.07120836 -0.07380627
v -0.458593 0.1269899 -0.07380627
v -0.3124505 0.07167554 -0.07380627
v -0.2646858 0.1083961 -0.07380627
v -0.2168731 0.1190211 -0.07380627
v -0.1141812 0.1488832 -0.07380627
v 0.5958998 0.1070028 -0.07380629
v 0.6797901 0.1785644 -0.07380627
v -0.01953551 0.2198049 -0.07380624
v 0.7762567 -0.02084184 -0.0738063
v 0.8527569 0.03653347 -0.0738063
v 0.8199865 -0.1723953 -0.07380632
v 0.8680573 -0.06291699 -0.0738063
v -0.3273656 -0.1812447 -0.07380632
v 0.4477552 -0.2269549 0.07380623
v 0.4477552 -0.2269548 -0.07380634
v -0.3273656 -0.1812449 0.07380626
v -0.6422501 -0.1601866 0.07380626
v -0.6422501 -0.1601865 -0.0738063
v -0.3273656 -0.1812449 0.07380626
v -0.6422501 -0.1601866 0.07380626
v -0.6445892 -0.08097303 0.07380627
v -0.3228698 -0.1050084 0.07380627
v 0.4477552 -0.2269549 0.07380623
v 0.5661713 -0.1574296 0.07380624
v -0.5143744 0.01011431 0.07380629
v -0.6392189 0.01011431 0.07380629
v -0.6445314 -0.04035461 0.07380627
v -0.4851557 0.07120836 0.0738063
v -0.458593 0.1269899 0.07380631
v -0.3124505 0.07167542 0.0738063
v -0.2646858 0.1083961 0.07380631
v -0.216873 0.1190211 0.07380631
v -0.1141812 0.1488832 0.07380632
v 0.5958998 0.1070028 0.07380629
v -0.01953542 0.2198049 0.07380632
v 0.6797903 0.1785644 0.0738063
v 0.7762567 -0.02084184 0.07380627
v 0.8527569 0.03653347 0.07380627
v 0.8199867 -0.1723955 0.07380624
v 0.8680573 -0.06291687 0.07380626
v 0.6797903 0.1785644 0.0738063
v -0.01953542 0.2198049 0.07380632
v -0.01953551 0.2198049 -0.07380624
v 0.6797901 0.1785644 -0.07380627
v -0.1141812 0.1488832 0.07380632
v -0.01953551 0.2198049 -0.07380624
v -0.01953542 0.2198049 0.07380632
v -0.1141812 0.1488832 -0.07380627
v -0.216873 0.1190211 0.07380631
v -0.2168731 0.1190211 -0.07380627
v -0.2646858 0.1083961 0.07380631
v -0.2646858 0.1083961 -0.07380627
v -0.3124505 0.07167542 0.0738063
v -0.3124505 0.07167554 -0.07380627
v -0.458593 0.1269899 0.07380631
v -0.458593 0.1269899 -0.07380627
v -0.3124505 0.07167554 -0.07380627
v -0.3124505 0.07167542 0.0738063
v -0.4851557 0.07120836 0.0738063
v -0.458593 0.1269899 -0.07380627
v -0.458593 0.1269899 0.07380631
v -0.4851557 0.07120836 -0.07380627
v -0.5143744 0.01011431 0.07380629
v -0.5143744 0.01011431 -0.07380629
v -0.6392189 0.01011431 0.07380629
v -0.6392189 0.01011431 -0.07380629
v -0.5143744 0.01011431 -0.07380629
v -0.5143744 0.01011431 0.07380629
v -0.6445314 -0.04035461 0.07380627
v -0.6392189 0.01011431 -0.07380629
v -0.6392189 0.01011431 0.07380629
v -0.6445314 -0.04035461 -0.07380629
v -0.6445892 -0.08097303 0.07380627
v -0.6445891 -0.08097303 -0.0738063
v -0.6422501 -0.1601866 0.07380626
v -0.6422501 -0.1601865 -0.0738063
v 0.5958998 0.1070028 -0.07380629
v 0.5958998 0.1070028 0.07380629
v 0.6797903 0.1785644 0.0738063
v 0.6797901 0.1785644 -0.07380627
v 0.8527569 0.03653347 -0.0738063
v 0.8527569 0.03653347 0.07380627
v 0.5958998 0.1070028 0.07380629
v 0.5958998 0.1070028 -0.07380629
v 0.7762567 -0.02084184 -0.0738063
v 0.7762567 -0.02084184 0.07380627
v 0.8527569 0.03653347 0.07380627
v 0.8527569 0.03653347 -0.0738063
v 0.8680573 -0.06291699 -0.0738063
v 0.8680573 -0.06291687 0.07380626
v 0.7762567 -0.02084184 0.07380627
v 0.7762567 -0.02084184 -0.0738063
v 0.8199865 -0.1723953 -0.07380632
v 0.8199867 -0.1723955 0.07380624
v 0.8680573 -0.06291687 0.07380626
v 0.8680573 -0.06291699 -0.0738063
v 0.5661715 -0.1574295 -0.07380632
v 0.5661713 -0.1574296 0.07380624
v 0.8199867 -0.1723955 0.07380624
v 0.8199865 -0.1723953 -0.07380632
v 0.4477552 -0.2269548 -0.07380634
v 0.4477552 -0.2269549 0.07380623
v 0.5661713 -0.1574296 0.07380624
v 0.5661715 -0.1574295 -0.07380632
vt 0.1521159 0.3276717
vt 0.1464567 0.5414557
vt 0.1910906 0.5715701
vt 0.1975772 0.3263662
vt 0.1558948 0.2407416
vt 0.202937 0.2374651
vt 0.2542669 0.2699834
vt 0.2513974 0.2358055
vt 0.2244931 0.2360852
vt 0.287359 0.2758833
vt 0.3175708 0.2812385
vt 0.2915762 0.3231477
vt 0.3122062 0.334963
vt 0.3189908 0.347688
vt 0.3372993 0.374777
vt 0.3321116 0.5706227
vt 0.3769977 0.5912145
vt 0.3821036 0.3983353
vt 0.2686038 0.6243939
vt 0.3008823 0.6433668
vt 0.1892387 0.6415741
vt 0.248481 0.6509731
vt 0.3361282 0.4749956
vt 0.3360972 0.47623
vt 0.3360972 0.47623
vt 0.3361282 0.4749956
vt 0.3361491 0.4744936
vt 0.3361491 0.4744936
vt 0.1521159 0.3276717
vt 0.1558948 0.2407416
vt 0.2029368 0.237465
vt 0.1975772 0.3263662
vt 0.1464567 0.5414557
vt 0.1910906 0.5715701
vt 0.2542669 0.2699834
vt 0.2513974 0.2358055
vt 0.2244931 0.2360852
vt 0.287359 0.2758832
vt 0.3175708 0.2812385
vt 0.2915762 0.3231477
vt 0.3122061 0.3349629
vt 0.3189907 0.3476881
vt 0.3372992 0.374777
vt 0.3321115 0.5706227
vt 0.3821036 0.3983354
vt 0.3769977 0.5912146
vt 0.2686038 0.624394
vt 0.3008823 0.6433668
vt 0.1892387 0.6415741
vt 0.2484811 0.6509731
vt 0.3358137 0.4764898
vt 0.3358419 0.475376
vt 0.3358419 0.475376
vt 0.3358138 0.4764898
vt 0 0
vt 0 0
vt 0 0
vt 0 0
vt 0 0
vt 0 0
vt 0 0
vt 0 0
vt 0 0
vt 0 0
vt 0 0
vt 0 0
vt 0 0
vt 0 0
vt 0 0
vt 0 0
vt 0 0
vt 0 0
vt 0 0
vt 0 0
vt 0 0
vt 0 0
vt 0 0
vt 0 0
vt 0 0
vt 0 0
vt 0 0
vt 0 0
vt 0 0
vt 0 0
vt 0 0
vt 0 0
vt 0 0
vt 0 0
vt 0 0
vt 0 0
vt 0 0
vt 0 0
vt 0 0
vt 0 0
vt 0 0
vt 0 0
vt 0 0
vt 0 0
vt 0 0
vt 0 0
vt 0 0
vt 0 0
vt 0 0
vt 0 0
vt 0 0
vt 0 0
vt 0 0
vt 0 0
vt 0 0
vt 0 0
vt 0 0
vt 0 0
vt 0 0
vt 0 0
vn 0 2.516205E-07 -1
vn 0 3.657514E-07 -1
vn 0 1.651033E-07 -1
vn 0 2.04334E-07 -1
vn 0 1.369146E-07 -1
vn 0 1.637762E-07 -1
vn 0 1.877417E-07 -1
vn 0 1.877417E-07 -1
vn 0 1.877417E-07 -1
vn 0 1.877417E-07 -1
vn 0 1.877417E-07 -1
vn 0 1.546051E-07 -1
vn 0 1.27434E-07 -1
vn 0 1.27434E-07 -1
vn 0 1.659523E-07 -1
vn 0 2.134365E-07 -1
vn 0 3.195719E-07 -1
vn 0 3.195719E-07 -1
vn 0 1.27434E-07 -1
vn 0 1.27434E-07 -1
vn 0 1.27434E-07 -1
vn 0 1.27434E-07 -1
vn -0.06279858 -0.9980262 -8.051568E-07
vn -0.05886929 -0.9982657 -8.064622E-07
vn -0.05886929 -0.9982657 -8.064622E-07
vn -0.06279858 -0.9980262 -8.051568E-07
vn -0.06672689 -0.9977713 -8.038391E-07
vn -0.06672689 -0.9977713 -8.038391E-07
vn 0 0 1
vn 0 0 1
vn 0 0 1
vn 0 -1.2344E-07 1
vn 0 -1.037819E-07 1
vn 0 -1.880703E-07 1
vn 0 -1.501934E-07 1
vn 0 -1.501934E-07 1
vn 0 -1.501934E-07 1
vn 0 -1.501934E-07 1
vn 0 -1.501934E-07 1
vn 0 -1.796999E-07 1
vn 0 -2.038944E-07 1
vn 0 -2.038944E-07 1
vn 0 -1.959176E-07 1
vn 0 -1.860841E-07 1
vn 0 -1.641045E-07 1
vn 0 -1.641045E-07 1
vn 0 -2.038944E-07 1
vn 0 -2.038944E-07 1
vn 0 -2.038944E-07 1
vn 0 -2.038944E-07 1
vn 0.05886944 0.9982657 0
vn 0.05886944 0.9982657 0
vn 0.05886944 0.9982657 0
vn 0.05886944 0.9982657 0
vn -0.4466642 0.8947017 2.226322E-07
vn -0.5996611 0.8002542 3.200774E-07
vn -0.5996611 0.8002542 3.200774E-07
vn -0.4466642 0.8947017 2.226321E-07
vn -0.2482066 0.9687071 0
vn -0.2482066 0.9687071 0
vn -0.4232599 0.9060084 2.47523E-07
vn -0.4232599 0.9060084 2.47523E-07
vn -0.6094868 0.7927962 4.18882E-07
vn -0.6094868 0.7927962 4.18882E-07
vn 0.3539892 0.9352495 4.037644E-07
vn 0.3539892 0.9352495 4.037644E-07
vn 0.3539892 0.9352495 4.037644E-07
vn 0.3539892 0.9352495 4.037644E-07
vn -0.9024978 0.4306944 0
vn -0.9028596 0.4299355 0
vn -0.9028596 0.4299355 0
vn -0.9024978 0.4306943 0
vn -0.9021355 0.4314529 0
vn -0.9021355 0.4314529 0
vn 0 1 0
vn 0 1 0
vn 0 1 0
vn 0 1 0
vn -0.9985878 0.05312486 -1.555373E-07
vn -0.9945053 0.1046856 0
vn -0.9945053 0.1046856 0
vn -0.9985878 0.05312485 -1.555374E-07
vn -0.9999013 -0.01404858 -1.553479E-07
vn -0.9999013 -0.01404858 -1.553479E-07
vn -0.9995643 -0.02951573 0
vn -0.9995643 -0.02951573 0
vn 0.6489885 -0.7607981 -2.288727E-07
vn 0.6489885 -0.7607981 -2.288727E-07
vn 0.6489885 -0.7607981 -2.288727E-07
vn 0.6489885 -0.7607981 -2.288727E-07
vn 0.2645758 0.9643649 0
vn 0.2645758 0.9643649 0
vn 0.2645758 0.9643649 0
vn 0.2645758 0.9643649 0
vn 0.6000007 -0.7999995 -2.639147E-07
vn 0.6000007 -0.7999995 -2.639147E-07
vn 0.6000007 -0.7999995 -2.639147E-07
vn 0.6000007 -0.7999995 -2.639147E-07
vn 0.4166535 0.9090654 -7.497351E-07
vn 0.4166535 0.9090654 -7.497351E-07
vn 0.4166535 0.9090654 -7.497351E-07
vn 0.4166535 0.9090654 -7.497351E-07
vn 0.9156227 -0.4020388 -8.442763E-07
vn 0.9156227 -0.4020388 -8.442763E-07
vn 0.9156227 -0.4020388 -8.442763E-07
vn 0.9156227 -0.4020388 -8.442763E-07
vn -0.05886149 -0.9982662 -8.188785E-07
vn -0.05886149 -0.9982662 -8.188785E-07
vn -0.05886149 -0.9982662 -8.188785E-07
vn -0.05886149 -0.9982662 -8.188785E-07
vn 0.5063099 -0.8623516 -5.51355E-07
vn 0.5063099 -0.8623516 -5.51355E-07
vn 0.5063099 -0.8623516 -5.51355E-07
vn 0.5063099 -0.8623516 -5.51355E-07
g Cube.008_0
f 3/3/3 2/2/2 1/1/1
f 4/4/4 3/3/3 1/1/1
f 1/1/1 5/5/5 4/4/4
f 5/5/5 6/6/6 4/4/4
f 4/4/4 6/6/6 7/7/7
f 6/6/6 8/8/8 7/7/7
f 6/6/6 9/9/9 8/8/8
f 4/4/4 7/7/7 10/10/10
f 4/4/4 10/10/10 11/11/11
f 11/11/11 12/12/12 4/4/4
f 4/4/4 12/12/12 13/13/13
f 4/4/4 13/13/13 14/14/14
f 4/4/4 14/14/14 15/15/15
f 3/3/3 4/4/4 15/15/15
f 3/3/3 15/15/15 16/16/16
f 17/17/17 16/16/16 15/15/15
f 18/18/18 17/17/17 15/15/15
f 3/3/3 16/16/16 19/19/19
f 20/20/20 19/19/19 16/16/16
f 21/21/21 3/3/3 19/19/19
f 19/19/19 22/22/22 21/21/21
f 25/25/25 24/24/24 23/23/23
f 24/24/24 26/26/26 23/23/23
f 26/26/26 27/27/27 23/23/23
f 27/27/27 28/28/28 23/23/23
f 31/31/31 30/30/30 29/29/29
f 32/32/32 31/31/31 29/29/29
f 32/32/32 29/29/29 33/33/33
f 34/34/34 32/32/32 33/33/33
f 35/35/35 31/31/31 32/32/32
f 35/35/35 36/36/36 31/31/31
f 36/36/36 37/37/37 31/31/31
f 38/38/38 35/35/35 32/32/32
f 39/39/39 38/38/38 32/32/32
f 32/32/32 40/40/40 39/39/39
f 41/41/41 40/40/40 32/32/32
f 42/42/42 41/41/41 32/32/32
f 43/43/43 42/42/42 32/32/32
f 43/43/43 32/32/32 34/34/34
f 44/44/44 43/43/43 34/34/34
f 45/45/45 43/43/43 44/44/44
f 46/46/46 45/45/45 44/44/44
f 47/47/47 44/44/44 34/34/34
f 47/47/47 48/48/48 44/44/44
f 47/47/47 34/34/34 49/49/49
f 49/49/49 50/50/50 47/47/47
f 53/53/53 52/52/52 51/51/51
f 54/54/54 53/53/53 51/51/51
f 57/57/57 56/56/56 55/55/55
f 56/56/56 58/58/58 55/55/55
f 55/55/55 58/58/58 59/59/59
f 58/58/58 60/60/60 59/59/59
f 59/59/59 60/60/60 61/61/61
f 60/60/60 62/62/62 61/61/61
f 61/61/61 62/62/62 63/63/63
f 62/62/62 64/64/64 63/63/63
f 67/67/67 66/66/66 65/65/65
f 68/68/68 67/67/67 65/65/65
f 71/71/71 70/70/70 69/69/69
f 70/70/70 72/72/72 69/69/69
f 69/69/69 72/72/72 73/73/73
f 72/72/72 74/74/74 73/73/73
f 77/77/77 76/76/76 75/75/75
f 78/78/78 77/77/77 75/75/75
f 81/81/81 80/80/80 79/79/79
f 80/80/80 82/82/82 79/79/79
f 79/79/79 82/82/82 83/83/83
f 82/82/82 84/84/84 83/83/83
f 83/83/83 84/84/84 85/85/85
f 84/84/84 86/86/86 85/85/85
f 89/89/89 88/88/88 87/87/87
f 90/90/90 89/89/89 87/87/87
f 93/93/93 92/92/92 91/91/91
f 94/94/94 93/93/93 91/91/91
f 97/97/97 96/96/96 95/95/95
f 98/98/98 97/97/97 95/95/95
f 101/101/101 100/100/100 99/99/99
f 102/102/102 101/101/101 99/99/99
f 105/105/105 104/104/104 103/103/103
f 106/106/106 105/105/105 103/103/103
f 109/109/109 108/108/108 107/107/107
f 110/110/110 109/109/109 107/107/107
f 113/113/113 112/112/112 111/111/111
f 114/114/114 113/113/113 111/111/111
