g Cube.010
v -0.2658025 0.2279141 -0.0738063
v 0.05055523 0.2154363 0.07380626
v -0.2658025 0.2279141 0.07380627
v 0.05055523 0.2154363 -0.0738063
v 0.2159885 0.2110533 0.07380626
v 0.2159885 0.2110533 -0.0738063
v -0.2904381 -0.189836 0.0738062
v 0.02591991 -0.2023138 0.0738062
v 0.02591991 -0.2023136 -0.07380636
v -0.2904381 -0.1898359 -0.07380636
v -0.3423992 -0.1874535 0.0738062
v -0.3423992 -0.1874534 -0.07380636
v 0.02591991 -0.2023138 0.0738062
v 0.2392056 -0.221845 0.0738062
v 0.2392056 -0.2218449 -0.07380638
v 0.02591991 -0.2023136 -0.07380636
v 0.2159885 0.2110533 0.07380626
v 0.263545 0.1908853 0.07380626
v 0.2609768 0.1473364 0.07380626
v -0.03322423 0.1438508 0.07380626
v -0.008695602 0.1423992 0.07380626
v 0.05055523 0.2154363 0.07380626
v 0.197102 0.1138777 0.07380625
v 0.197402 0.114409 0.07380625
v 0.2654907 0.0932653 0.07380625
v 0.2878375 0.06151009 0.07380625
v 0.2462966 -0.1015999 0.07380622
v 0.09713638 -0.1299852 0.0738062
v 0.1246412 -0.1316042 0.0738062
v 0.2101992 -0.1413013 0.0738062
v 0.2103493 -0.1408893 0.0738062
v 0.2451915 -0.150684 0.0738062
v 0.2560769 -0.1663971 0.0738062
v 0.2392056 -0.221845 0.0738062
v 0.02591991 -0.2023138 0.0738062
v 0.03041697 -0.1260544 0.0738062
v -0.08458781 0.1468813 0.07380626
v -0.2859413 -0.1135839 0.07380623
v -0.2904381 -0.189836 0.0738062
v -0.1527635 0.01057363 0.07380625
v -0.1821012 0.1493915 0.07380626
v -0.2658025 0.2279141 0.07380627
v -0.2702994 0.1516619 0.07380626
v -0.279222 0.000357151 0.07380625
v -0.3785458 0.02385509 0.07380625
v -0.4398934 -0.1065265 0.07380623
v -0.3423992 -0.1874535 0.0738062
v -0.4104207 -0.03458285 0.07380623
v 0.2609768 0.1473364 -0.0738063
v 0.263545 0.1908853 -0.0738063
v 0.2159885 0.2110533 -0.0738063
v -0.03322423 0.1438508 -0.07380632
v -0.008695602 0.1423992 -0.07380632
v 0.05055523 0.2154363 -0.0738063
v 0.197102 0.1138777 -0.07380632
v 0.197402 0.114409 -0.07380632
v 0.2654907 0.0932653 -0.07380632
v 0.2878375 0.06151009 -0.07380632
v 0.2462966 -0.1015998 -0.07380636
v 0.09713638 -0.1299851 -0.07380636
v 0.1246412 -0.1316041 -0.07380636
v 0.2101992 -0.1413012 -0.07380636
v 0.2103493 -0.1408892 -0.07380636
v 0.2451915 -0.1506839 -0.07380636
v 0.2560769 -0.166397 -0.07380636
v 0.2392056 -0.2218449 -0.07380638
v 0.02591991 -0.2023136 -0.07380636
v 0.03041697 -0.1260543 -0.07380636
v -0.2904381 -0.1898359 -0.07380636
v -0.08458781 0.1468813 -0.0738063
v -0.2859413 -0.1135838 -0.07380636
v -0.3423992 -0.1874534 -0.07380636
v -0.4398934 -0.1065265 -0.07380636
v -0.1821011 0.1493915 -0.0738063
v -0.2658025 0.2279141 -0.0738063
v -0.2702994 0.1516619 -0.0738063
v -0.1527635 0.01057363 -0.07380633
v -0.279222 0.000357151 -0.07380633
v -0.3785458 0.02385509 -0.07380633
v -0.4104207 -0.03458285 -0.07380633
v 0.2878375 0.06151009 -0.07380632
v 0.2462966 -0.1015998 -0.07380636
v 0.2462966 -0.1015999 0.07380622
v 0.2878375 0.06151009 0.07380625
v 0.2609768 0.1473364 -0.0738063
v -0.008695602 0.1423992 -0.07380632
v -0.008695602 0.1423992 0.07380626
v 0.2609768 0.1473364 0.07380626
v 0.2392056 -0.2218449 -0.07380638
v 0.2392056 -0.221845 0.0738062
v 0.2560769 -0.1663971 0.0738062
v 0.2560769 -0.166397 -0.07380636
v 0.1246412 -0.1316042 0.0738062
v 0.2462966 -0.1015999 0.07380622
v 0.2462966 -0.1015998 -0.07380636
v 0.1246412 -0.1316041 -0.07380636
v 0.2159885 0.2110533 -0.0738063
v 0.263545 0.1908853 -0.0738063
v 0.263545 0.1908853 0.07380626
v 0.2159885 0.2110533 0.07380626
v 0.2609768 0.1473364 -0.0738063
v 0.2609768 0.1473364 0.07380626
v 0.263545 0.1908853 0.07380626
v 0.263545 0.1908853 -0.0738063
v 0.2878375 0.06151009 0.07380625
v 0.2654907 0.0932653 0.07380625
v 0.2654907 0.0932653 -0.07380632
v 0.2878375 0.06151009 -0.07380632
v 0.2654907 0.0932653 0.07380625
v 0.197402 0.114409 0.07380625
v 0.197402 0.114409 -0.07380632
v 0.2654907 0.0932653 -0.07380632
v -0.008695602 0.1423992 -0.07380632
v 0.197402 0.114409 -0.07380632
v 0.197402 0.114409 0.07380625
v -0.008695602 0.1423992 0.07380626
v 0.2560769 -0.1663971 0.0738062
v 0.2451915 -0.150684 0.0738062
v 0.2451915 -0.1506839 -0.07380636
v 0.2560769 -0.166397 -0.07380636
v 0.2451915 -0.150684 0.0738062
v 0.2103493 -0.1408893 0.0738062
v 0.2103493 -0.1408892 -0.07380636
v 0.2451915 -0.1506839 -0.07380636
v 0.2103493 -0.1408893 0.0738062
v 0.1246412 -0.1316042 0.0738062
v 0.1246412 -0.1316041 -0.07380636
v 0.2103493 -0.1408892 -0.07380636
v -0.2702994 0.1516619 0.07380626
v -0.2658025 0.2279141 -0.0738063
v -0.2658025 0.2279141 0.07380627
v -0.2702994 0.1516619 -0.0738063
v -0.279222 0.000357151 0.07380625
v -0.279222 0.000357151 -0.07380633
v -0.3785458 0.02385509 0.07380625
v -0.3785458 0.02385509 -0.07380633
v -0.279222 0.000357151 -0.07380633
v -0.279222 0.000357151 0.07380625
v -0.4104207 -0.03458285 0.07380623
v -0.3785458 0.02385509 -0.07380633
v -0.3785458 0.02385509 0.07380625
v -0.4104207 -0.03458285 -0.07380633
v -0.4398934 -0.1065265 0.07380623
v -0.4398934 -0.1065265 -0.07380636
v -0.3423992 -0.1874535 0.0738062
v -0.3423992 -0.1874534 -0.07380636
v -0.4398934 -0.1065265 -0.07380636
v -0.4398934 -0.1065265 0.07380623
vt 0.3466072 0.4818988
vt 0.3466145 0.4824015
vt 0.3466072 0.4818988
vt 0.3466145 0.4824015
vt 0.3466256 0.482664
vt 0.3466256 0.482664
vt 0.3468821 0.4819694
vt 0.3468899 0.4824721
vt 0.3468899 0.4824721
vt 0.3468821 0.4819694
vt 0.3456897 0.4814317
vt 0.3456897 0.4814317
vt 0.3468899 0.4824721
vt 0.3468584 0.4828131
vt 0.3468584 0.4828131
vt 0.3468899 0.4824721
vt 0.3885732 0.9499481
vt 0.3778996 0.9636424
vt 0.3519303 0.9643884
vt 0.3416876 0.8839385
vt 0.3415059 0.8907042
vt 0.3865855 0.9044991
vt 0.3302591 0.9480097
vt 0.330583 0.9480742
vt 0.3199002 0.9674234
vt 0.3016364 0.9745995
vt 0.2205427 0.9689407
vt 0.1995205 0.9290385
vt 0.1993215 0.9366243
vt 0.1959303 0.9603766
vt 0.1961793 0.960404
vt 0.1913225 0.9702712
vt 0.1822802 0.9737751
vt 0.1488376 0.9709997
vt 0.15453 0.9119427
vt 0.2000053 0.9106368
vt 0.3420638 0.8697721
vt 0.1986366 0.8235887
vt 0.1531656 0.8248947
vt 0.2679106 0.8557874
vt 0.3408487 0.842985
vt 0.3852211 0.817451
vt 0.3397497 0.8187568
vt 0.2592542 0.8215131
vt 0.2670279 0.7926975
vt 0.1951448 0.7799475
vt 0.1519874 0.810165
vt 0.2346039 0.7857486
vt 0.3519303 0.9643884
vt 0.3778996 0.9636424
vt 0.3885732 0.9499481
vt 0.3416876 0.8839385
vt 0.3415059 0.8907042
vt 0.3865855 0.9044991
vt 0.3302591 0.9480097
vt 0.330583 0.9480742
vt 0.3199002 0.9674234
vt 0.3016364 0.9745995
vt 0.2205427 0.9689407
vt 0.1995205 0.9290385
vt 0.1993215 0.9366243
vt 0.1959303 0.9603766
vt 0.1961793 0.960404
vt 0.1913225 0.9702712
vt 0.1822802 0.9737751
vt 0.1488376 0.9709997
vt 0.15453 0.9119427
vt 0.2000053 0.9106368
vt 0.1531656 0.8248947
vt 0.3420638 0.8697721
vt 0.1986366 0.8235887
vt 0.1519874 0.810165
vt 0.1951449 0.7799475
vt 0.3408488 0.842985
vt 0.3852211 0.817451
vt 0.3397498 0.8187568
vt 0.2679106 0.8557873
vt 0.2592542 0.8215131
vt 0.267028 0.7926975
vt 0.2346039 0.7857487
vt 0.3461448 0.4828063
vt 0.3472546 0.4828013
vt 0.3472546 0.4828013
vt 0.3461448 0.4828063
vt 0.3464231 0.4827474
vt 0.3463652 0.4823219
vt 0.3463652 0.4823219
vt 0.3464231 0.4827474
vt 0.3468584 0.4828131
vt 0.3468584 0.4828131
vt 0.3470431 0.4828291
vt 0.3470431 0.4828291
vt 0.3471375 0.4826146
vt 0.3472546 0.4828013
vt 0.3472546 0.4828013
vt 0.3471375 0.4826146
vt 0.3466256 0.482664
vt 0.3465665 0.482743
vt 0.3465665 0.482743
vt 0.3466256 0.482664
vt 0.3464231 0.4827474
vt 0.3464231 0.4827474
vt 0.3465665 0.482743
vt 0.3465665 0.482743
vt 0.3461448 0.4828063
vt 0.3462458 0.4827648
vt 0.3462458 0.4827648
vt 0.3461448 0.4828063
vt 0.3462458 0.4827648
vt 0.3463053 0.4826531
vt 0.3463053 0.4826531
vt 0.3462458 0.4827648
vt 0.3463652 0.4823219
vt 0.3463053 0.4826531
vt 0.3463053 0.4826531
vt 0.3463652 0.4823219
vt 0.3470431 0.4828291
vt 0.3470929 0.4828089
vt 0.3470929 0.4828089
vt 0.3470431 0.4828291
vt 0.3470929 0.4828089
vt 0.34712 0.4827519
vt 0.34712 0.4827519
vt 0.3470929 0.4828089
vt 0.34712 0.4827519
vt 0.3471375 0.4826146
vt 0.3471375 0.4826146
vt 0.34712 0.4827519
vt 0 0
vt 0 0
vt 0 0
vt 0 0
vt 0 0
vt 0 0
vt 0 0
vt 0 0
vt 0 0
vt 0 0
vt 0 0
vt 0 0
vt 0 0
vt 0 0
vt 0 0
vt 0 0
vt 0 0
vt 0 0
vt 0 0
vt 0 0
vn 0.03941127 0.9992231 0
vn 0.03294898 0.9994571 0
vn 0.03941127 0.9992231 0
vn 0.03294898 0.9994571 0
vn 0.02648531 0.9996492 0
vn 0.02648531 0.9996492 0
vn -0.04260771 -0.9990919 -8.054545E-07
vn -0.0394112 -0.9992231 -8.059372E-07
vn -0.0394112 -0.9992231 -8.059372E-07
vn -0.04260771 -0.9990919 -8.054545E-07
vn -0.04580378 -0.9989505 -8.049635E-07
vn -0.04580378 -0.9989505 -8.049635E-07
vn -0.09119169 -0.9958333 -8.062131E-07
vn -0.09119169 -0.9958333 -8.062131E-07
vn -0.09119169 -0.9958333 -8.062131E-07
vn -0.09119169 -0.9958333 -8.062131E-07
vn 0 -2.004685E-07 1
vn 0 -2.004685E-07 1
vn 0 -1.996817E-07 1
vn 0 -2.150256E-07 1
vn 0 -1.122342E-06 1
vn 0 -1.876278E-07 1
vn 0 -1.71622E-06 1
vn 0 -3.565948E-06 1
vn 0 5.275233E-07 1
vn 0 0 1
vn 0 -1.832024E-07 1
vn 0 -1.501561E-07 1
vn 0 1.471764E-06 1
vn 0 2.967375E-07 1
vn 0 1.169505E-07 1
vn 0 1.024811E-06 1
vn 0 0 1
vn 0 -1.65968E-07 1
vn 0 -1.61838E-07 1
vn 0 -1.769989E-07 1
vn 0 -1.642453E-07 1
vn 0 -2.230263E-07 1
vn 0 -2.62931E-07 1
vn 0 -1.590996E-07 1
vn 0 -1.55052E-07 1
vn 0 -2.066411E-07 1
vn 0 -1.962735E-07 1
vn 0 -1.658571E-07 1
vn 0 -1.716655E-07 1
vn 0 -2.387392E-07 1
vn 0 -3.660235E-07 1
vn 0 -1.716655E-07 1
vn 0 1.141045E-07 -1
vn 0 1.002342E-07 -1
vn 0 1.002342E-07 -1
vn 0 1.739058E-07 -1
vn 0 1.816538E-06 -1
vn 0 0 -1
vn 0 0 -1
vn 0 0 -1
vn 0 5.424614E-07 -1
vn 0 2.425995E-07 -1
vn 0 1.790076E-07 -1
vn 0 1.447333E-07 -1
vn 0 2.181159E-07 -1
vn 0 0 -1
vn 0 0 -1
vn 0 -1.034997E-06 -1
vn 0 -1.38854E-07 -1
vn 0 0 -1
vn 0 0 -1
vn 0 1.320658E-07 -1
vn 0 0 -1
vn 0 1.192089E-07 -1
vn 0 1.390986E-07 -1
vn 0 0 -1
vn 0 1.675507E-07 -1
vn 0 1.224022E-07 -1
vn 0 0 -1
vn 0 1.218454E-07 -1
vn 0 2.458816E-07 -1
vn 0 2.415045E-07 -1
vn 0 2.324638E-07 -1
vn 0 2.324638E-07 -1
vn 0.969066 -0.2468018 -1.677059E-07
vn 0.969066 -0.2468018 -1.677059E-07
vn 0.969066 -0.2468018 -1.677059E-07
vn 0.969066 -0.2468018 -1.677059E-07
vn 0.018305 -0.9998324 0
vn 0.018305 -0.9998324 0
vn 0.018305 -0.9998324 0
vn 0.018305 -0.9998324 0
vn 0.9566937 -0.2910964 -2.17718E-07
vn 0.9566937 -0.2910964 -2.17718E-07
vn 0.9566937 -0.2910964 -2.17718E-07
vn 0.9566937 -0.2910964 -2.17718E-07
vn 0.2394578 -0.9709067 -7.817744E-07
vn 0.2394578 -0.9709067 -7.817744E-07
vn 0.2394578 -0.9709067 -7.817744E-07
vn 0.2394578 -0.9709067 -7.817744E-07
vn 0.390426 0.9206343 0
vn 0.390426 0.9206343 0
vn 0.390426 0.9206343 0
vn 0.390426 0.9206343 0
vn 0.9982656 -0.05887146 0
vn 0.9982656 -0.05887146 0
vn 0.9982656 -0.05887146 0
vn 0.9982656 -0.05887146 0
vn 0.8178006 0.5755017 0
vn 0.8178006 0.5755017 0
vn 0.8178006 0.5755017 0
vn 0.8178006 0.5755017 0
vn 0.2965615 0.9550138 0
vn 0.2965615 0.9550138 0
vn 0.2965615 0.9550138 0
vn 0.2965615 0.9550138 0
vn 0.134575 0.9909033 0
vn 0.134575 0.9909033 0
vn 0.134575 0.9909033 0
vn 0.134575 0.9909033 0
vn 0.8220163 0.569464 5.332133E-07
vn 0.8220163 0.569464 5.332133E-07
vn 0.8220163 0.569464 5.332133E-07
vn 0.8220163 0.569464 5.332133E-07
vn 0.2706268 0.9626843 7.975801E-07
vn 0.2706268 0.9626843 7.975801E-07
vn 0.2706268 0.9626843 7.975801E-07
vn 0.2706268 0.9626843 7.975801E-07
vn 0.1077038 0.994183 7.992464E-07
vn 0.1077038 0.994183 7.992464E-07
vn 0.1077038 0.994183 7.992464E-07
vn 0.1077038 0.994183 7.992464E-07
vn -0.9982657 0.0588704 0
vn -0.9982656 0.05887216 0
vn -0.9982656 0.05887216 0
vn -0.9982657 0.0588704 0
vn -0.9982658 0.05886864 0
vn -0.9982658 0.05886864 0
vn 0.2302242 0.9731376 0
vn 0.2302242 0.9731376 0
vn 0.2302242 0.9731376 0
vn 0.2302242 0.9731376 0
vn -0.903008 0.4296239 0
vn -0.877897 0.4788495 0
vn -0.877897 0.4788495 0
vn -0.903008 0.4296239 0
vn -0.9253613 0.3790863 0
vn -0.9253613 0.3790863 0
vn -0.6387012 -0.7694549 -3.983559E-07
vn -0.6387012 -0.7694549 -3.983559E-07
vn -0.6387012 -0.7694549 -3.983559E-07
vn -0.6387012 -0.7694549 -3.983559E-07
g Cube.010_0
f 3/3/3 2/2/2 1/1/1
f 2/2/2 4/4/4 1/1/1
f 2/2/2 5/5/5 4/4/4
f 5/5/5 6/6/6 4/4/4
f 9/9/9 8/8/8 7/7/7
f 10/10/10 9/9/9 7/7/7
f 10/10/10 7/7/7 11/11/11
f 12/12/12 10/10/10 11/11/11
f 15/15/15 14/14/14 13/13/13
f 16/16/16 15/15/15 13/13/13
f 19/19/19 18/18/18 17/17/17
f 17/17/17 20/20/20 19/19/19
f 19/19/19 20/20/20 21/21/21
f 17/17/17 22/22/22 20/20/20
f 21/21/21 20/20/20 23/23/23
f 24/24/24 21/21/21 23/23/23
f 24/24/24 23/23/23 25/25/25
f 25/25/25 23/23/23 26/26/26
f 27/27/27 26/26/26 23/23/23
f 23/23/23 28/28/28 27/27/27
f 23/23/23 20/20/20 28/28/28
f 27/27/27 28/28/28 29/29/29
f 29/29/29 28/28/28 30/30/30
f 31/31/31 29/29/29 30/30/30
f 31/31/31 30/30/30 32/32/32
f 32/32/32 30/30/30 33/33/33
f 34/34/34 33/33/33 30/30/30
f 30/30/30 35/35/35 34/34/34
f 30/30/30 28/28/28 35/35/35
f 20/20/20 36/36/36 28/28/28
f 28/28/28 36/36/36 35/35/35
f 20/20/20 37/37/37 36/36/36
f 22/22/22 37/37/37 20/20/20
f 35/35/35 36/36/36 38/38/38
f 39/39/39 35/35/35 38/38/38
f 36/36/36 37/37/37 40/40/40
f 40/40/40 38/38/38 36/36/36
f 37/37/37 22/22/22 41/41/41
f 40/40/40 37/37/37 41/41/41
f 22/22/22 42/42/42 41/41/41
f 43/43/43 41/41/41 42/42/42
f 41/41/41 43/43/43 44/44/44
f 40/40/40 41/41/41 44/44/44
f 40/40/40 44/44/44 38/38/38
f 38/38/38 44/44/44 45/45/45
f 39/39/39 38/38/38 46/46/46
f 45/45/45 46/46/46 38/38/38
f 47/47/47 39/39/39 46/46/46
f 45/45/45 48/48/48 46/46/46
f 51/51/51 50/50/50 49/49/49
f 49/49/49 52/52/52 51/51/51
f 53/53/53 52/52/52 49/49/49
f 52/52/52 54/54/54 51/51/51
f 55/55/55 52/52/52 53/53/53
f 56/56/56 55/55/55 53/53/53
f 57/57/57 55/55/55 56/56/56
f 58/58/58 55/55/55 57/57/57
f 55/55/55 58/58/58 59/59/59
f 59/59/59 60/60/60 55/55/55
f 60/60/60 52/52/52 55/55/55
f 61/61/61 60/60/60 59/59/59
f 62/62/62 60/60/60 61/61/61
f 63/63/63 62/62/62 61/61/61
f 64/64/64 62/62/62 63/63/63
f 65/65/65 62/62/62 64/64/64
f 62/62/62 65/65/65 66/66/66
f 66/66/66 67/67/67 62/62/62
f 67/67/67 60/60/60 62/62/62
f 67/67/67 68/68/68 60/60/60
f 60/60/60 68/68/68 52/52/52
f 68/68/68 67/67/67 69/69/69
f 68/68/68 70/70/70 52/52/52
f 52/52/52 70/70/70 54/54/54
f 71/71/71 68/68/68 69/69/69
f 71/71/71 69/69/69 72/72/72
f 73/73/73 71/71/71 72/72/72
f 54/54/54 70/70/70 74/74/74
f 75/75/75 54/54/54 74/74/74
f 75/75/75 74/74/74 76/76/76
f 77/77/77 70/70/70 68/68/68
f 70/70/70 77/77/77 74/74/74
f 74/74/74 77/77/77 76/76/76
f 68/68/68 71/71/71 77/77/77
f 77/77/77 78/78/78 76/76/76
f 71/71/71 78/78/78 77/77/77
f 79/79/79 78/78/78 71/71/71
f 71/71/71 73/73/73 79/79/79
f 73/73/73 80/80/80 79/79/79
f 83/83/83 82/82/82 81/81/81
f 84/84/84 83/83/83 81/81/81
f 87/87/87 86/86/86 85/85/85
f 88/88/88 87/87/87 85/85/85
f 91/91/91 90/90/90 89/89/89
f 92/92/92 91/91/91 89/89/89
f 95/95/95 94/94/94 93/93/93
f 96/96/96 95/95/95 93/93/93
f 99/99/99 98/98/98 97/97/97
f 100/100/100 99/99/99 97/97/97
f 103/103/103 102/102/102 101/101/101
f 104/104/104 103/103/103 101/101/101
f 107/107/107 106/106/106 105/105/105
f 108/108/108 107/107/107 105/105/105
f 111/111/111 110/110/110 109/109/109
f 112/112/112 111/111/111 109/109/109
f 115/115/115 114/114/114 113/113/113
f 116/116/116 115/115/115 113/113/113
f 119/119/119 118/118/118 117/117/117
f 120/120/120 119/119/119 117/117/117
f 123/123/123 122/122/122 121/121/121
f 124/124/124 123/123/123 121/121/121
f 127/127/127 126/126/126 125/125/125
f 128/128/128 127/127/127 125/125/125
f 131/131/131 130/130/130 129/129/129
f 130/130/130 132/132/132 129/129/129
f 129/129/129 132/132/132 133/133/133
f 132/132/132 134/134/134 133/133/133
f 137/137/137 136/136/136 135/135/135
f 138/138/138 137/137/137 135/135/135
f 141/141/141 140/140/140 139/139/139
f 140/140/140 142/142/142 139/139/139
f 139/139/139 142/142/142 143/143/143
f 142/142/142 144/144/144 143/143/143
f 147/147/147 146/146/146 145/145/145
f 148/148/148 147/147/147 145/145/145
