g Cylinder.009
v 0 0.004582256 -2
v 0.5176381 0.4891606 -1.931852
v 0 0.4891606 -2
v 0.5176381 0.004582256 -1.931852
v 1 0.4891606 -1.732051
v 1 0.004582256 -1.732051
v 1.414214 0.4891606 -1.414214
v 1.414214 0.004582256 -1.414214
v 1.732051 0.4891606 -1
v 1.732051 0.004582256 -1
v 1.931852 0.4891606 -0.5176382
v 1.931852 0.004582256 -0.5176382
v 2 0.4891606 8.742277E-08
v 2 0.004582256 8.742277E-08
v 1.931852 0.4891606 0.5176381
v 1.931852 0.004582256 0.5176381
v 1.732051 0.4891606 1
v 1.732051 0.004582256 1
v 1.414214 0.4891606 1.414214
v 1.414214 0.004582256 1.414214
v 1 0.4891606 1.732051
v 1 0.004582256 1.732051
v 0.5176383 0.4891606 1.931852
v 0.5176383 0.004582256 1.931852
v -1.748456E-07 0.4891606 2
v -1.748456E-07 0.004582256 2
v -0.5176381 0.4891606 1.931852
v -0.5176381 0.004582256 1.931852
v -1 0.4891606 1.732051
v -1 0.004582256 1.732051
v -1.414213 0.4891606 1.414214
v -1.414213 0.004582256 1.414214
v -1.732051 0.4891606 0.9999998
v -1.732051 0.004582256 0.9999998
v -1.931852 0.4891606 0.517638
v -1.931852 0.004582256 0.517638
v -2 0.4891606 -2.384976E-08
v -2 0.004582256 -2.384976E-08
v -1.931852 0.4891606 -0.5176381
v -1.931852 0.004582256 -0.5176381
v -1.732051 0.4891606 -0.9999998
v -1.732051 0.004582256 -0.9999998
v -1.414214 0.4891606 -1.414213
v -1.414214 0.004582256 -1.414213
v -1 0.4891606 -1.732051
v -1 0.004582256 -1.732051
v -0.5176377 0.4891606 -1.931852
v -0.5176377 0.004582256 -1.931852
v 0 0.4891606 -2
v 0 0.004582256 -2
v -0.5176377 0.4891606 -1.931852
v 0 0.4891606 -2
v 0.5176381 0.4891606 -1.931852
v -1 0.4891606 -1.732051
v 1 0.4891606 -1.732051
v 1.414214 0.4891606 -1.414214
v -1.414214 0.4891606 -1.414213
v 1.732051 0.4891606 -1
v -1.732051 0.4891606 -0.9999998
v 1.931852 0.4891606 -0.5176382
v -1.931852 0.4891606 -0.5176381
v 2 0.4891606 8.742277E-08
v -2 0.4891606 -2.384976E-08
v -1.931852 0.4891606 0.517638
v 1.931852 0.4891606 0.5176381
v -1.732051 0.4891606 0.9999998
v 1.732051 0.4891606 1
v -1.414213 0.4891606 1.414214
v 1.414214 0.4891606 1.414214
v 1 0.4891606 1.732051
v -1 0.4891606 1.732051
v -0.5176381 0.4891606 1.931852
v 0.5176383 0.4891606 1.931852
v -1.748456E-07 0.4891606 2
v 0.5176381 0.004582256 -1.931852
v 0 0.004582256 -2
v -0.5176377 0.004582256 -1.931852
v -1 0.004582256 -1.732051
v 1 0.004582256 -1.732051
v 1.414214 0.004582256 -1.414214
v -1.414214 0.004582256 -1.414213
v 1.732051 0.004582256 -1
v -1.732051 0.004582256 -0.9999998
v 1.931852 0.004582256 -0.5176382
v -1.931852 0.004582256 -0.5176381
v 2 0.004582256 8.742277E-08
v -2 0.004582256 -2.384976E-08
v -1.931852 0.004582256 0.517638
v 1.931852 0.004582256 0.5176381
v -1.732051 0.004582256 0.9999998
v 1.732051 0.004582256 1
v -1.414213 0.004582256 1.414214
v 1.414214 0.004582256 1.414214
v 1 0.004582256 1.732051
v -1 0.004582256 1.732051
v 0.5176383 0.004582256 1.931852
v -0.5176381 0.004582256 1.931852
v -1.748456E-07 0.004582256 2
vt 0.4135742 0.3823242
vt 0.4135742 0.3828125
vt 0.4135742 0.3828125
vt 0.4135742 0.3823242
vt 0.4133301 0.3828125
vt 0.4133301 0.3823242
vt 0.4133301 0.3828125
vt 0.4133301 0.3823242
vt 0.4133301 0.3828125
vt 0.4133301 0.3823242
vt 0.4133301 0.3828125
vt 0.4133301 0.3823242
vt 0.4133301 0.3828125
vt 0.4133301 0.3823242
vt 0.4133301 0.3828125
vt 0.4133301 0.3823242
vt 0.4130859 0.3828125
vt 0.4130859 0.3823242
vt 0.4130859 0.3828125
vt 0.4130859 0.3823242
vt 0.4130859 0.3828125
vt 0.4130859 0.3823242
vt 0.4130859 0.3828125
vt 0.4130859 0.3823242
vt 0.4130859 0.3828125
vt 0.4130859 0.3823242
vt 0.4130859 0.3828125
vt 0.4130859 0.3823242
vt 0.4128418 0.3828125
vt 0.4128418 0.3823242
vt 0.4128418 0.3828125
vt 0.4128418 0.3823242
vt 0.4128418 0.3828125
vt 0.4128418 0.3823242
vt 0.4128418 0.3828125
vt 0.4128418 0.3823242
vt 0.4128418 0.3828125
vt 0.4128418 0.3823242
vt 0.4128418 0.3828125
vt 0.4128418 0.3823242
vt 0.4125977 0.3828125
vt 0.4125977 0.3823242
vt 0.4125977 0.3828125
vt 0.4125977 0.3823242
vt 0.4125977 0.3828125
vt 0.4125977 0.3823242
vt 0.4125977 0.3828125
vt 0.4125977 0.3823242
vt 0.4125977 0.3828125
vt 0.4125977 0.3823242
vt 0.4125977 0.3823242
vt 0.4128418 0.3823242
vt 0.4128418 0.3823242
vt 0.4125977 0.3823242
vt 0.4128418 0.3823242
vt 0.4128418 0.3823242
vt 0.4125977 0.3823242
vt 0.4130859 0.3823242
vt 0.4125977 0.3823242
vt 0.4130859 0.3820801
vt 0.4125977 0.3820801
vt 0.4130859 0.3820801
vt 0.4125977 0.3820801
vt 0.4125977 0.3820801
vt 0.4130859 0.3820801
vt 0.4125977 0.3820801
vt 0.4130859 0.3820801
vt 0.4125977 0.3818359
vt 0.4128418 0.3818359
vt 0.4128418 0.3818359
vt 0.4125977 0.3818359
vt 0.4125977 0.3818359
vt 0.4128418 0.3818359
vt 0.4128418 0.3818359
vt 0.4143066 0.3774414
vt 0.4140625 0.3774414
vt 0.4140625 0.3774414
vt 0.4140625 0.3774414
vt 0.4143066 0.3774414
vt 0.4143066 0.3774414
vt 0.4140625 0.3774414
vt 0.4143066 0.3774414
vt 0.4140625 0.3774414
vt 0.4143066 0.3771973
vt 0.4140625 0.3771973
vt 0.4143066 0.3771973
vt 0.4140625 0.3771973
vt 0.4140625 0.3771973
vt 0.4143066 0.3771973
vt 0.4140625 0.3771973
vt 0.4143066 0.3771973
vt 0.4140625 0.3769531
vt 0.4143066 0.3769531
vt 0.4143066 0.3769531
vt 0.4140625 0.3769531
vt 0.4143066 0.3769531
vt 0.4140625 0.3769531
vt 0.4140625 0.3769531
vn 1.788139E-07 0 -1
vn 0.2587891 0 -0.9658203
vn 1.788139E-07 0 -1
vn 0.2587891 0 -0.9658203
vn 0.5 0 -0.8662109
vn 0.5 0 -0.8662109
vn 0.7070313 0 -0.7070313
vn 0.7070313 0 -0.7070313
vn 0.8662109 0 -0.5
vn 0.8662109 0 -0.5
vn 0.9658203 0 -0.2587891
vn 0.9658203 0 -0.2587891
vn 1 0 0
vn 1 0 0
vn 0.9658203 0 0.2587891
vn 0.9658203 0 0.2587891
vn 0.8662109 0 0.5
vn 0.8662109 0 0.5
vn 0.7070313 0 0.7070313
vn 0.7070313 0 0.7070313
vn 0.5 0 0.8662109
vn 0.5 0 0.8662109
vn 0.2587891 0 0.9658203
vn 0.2587891 0 0.9658203
vn 0 0 1
vn 0 0 1
vn -0.2587891 0 0.9658203
vn -0.2587891 0 0.9658203
vn -0.5 0 0.8662109
vn -0.5 0 0.8662109
vn -0.7070313 0 0.7070313
vn -0.7070313 0 0.7070313
vn -0.8662109 0 0.5
vn -0.8662109 0 0.5
vn -0.9658203 0 0.2587891
vn -0.9658203 0 0.2587891
vn -1 0 -1.788139E-07
vn -1 0 -1.788139E-07
vn -0.9658203 0 -0.2587891
vn -0.9658203 0 -0.2587891
vn -0.8662109 0 -0.5
vn -0.8662109 0 -0.5
vn -0.7070313 0 -0.7070313
vn -0.7070313 0 -0.7070313
vn -0.5 0 -0.8662109
vn -0.5 0 -0.8662109
vn -0.2587891 0 -0.9658203
vn -0.2587891 0 -0.9658203
vn 1.788139E-07 0 -1
vn 1.788139E-07 0 -1
vn 0 1 0
vn 0 1 0
vn 0 1 0
vn 0 1 0
vn 0 1 0
vn 0 1 0
vn 0 1 0
vn 0 1 0
vn 0 1 0
vn 0 1 0
vn 0 1 0
vn 0 1 0
vn 0 1 0
vn 0 1 0
vn 0 1 0
vn 0 1 0
vn 0 1 0
vn 0 1 0
vn 0 1 0
vn 0 1 0
vn 0 1 0
vn 0 1 0
vn 0 1 0
vn 0 1 0
vn 0 -1 0
vn 0 -1 0
vn 0 -1 0
vn 0 -1 0
vn 0 -1 0
vn 0 -1 0
vn 0 -1 0
vn 0 -1 0
vn 0 -1 0
vn 0 -1 0
vn 0 -1 0
vn 0 -1 0
vn 0 -1 0
vn 0 -1 0
vn 0 -1 0
vn 0 -1 0
vn 0 -1 0
vn 0 -1 0
vn 0 -1 0
vn 0 -1 0
vn 0 -1 0
vn 0 -1 0
vn 0 -1 0
vn 0 -1 0
g Cylinder.009_0
f 3/3/3 2/2/2 1/1/1
f 2/2/2 4/4/4 1/1/1
f 2/2/2 5/5/5 4/4/4
f 5/5/5 6/6/6 4/4/4
f 5/5/5 7/7/7 6/6/6
f 7/7/7 8/8/8 6/6/6
f 7/7/7 9/9/9 8/8/8
f 9/9/9 10/10/10 8/8/8
f 9/9/9 11/11/11 10/10/10
f 11/11/11 12/12/12 10/10/10
f 11/11/11 13/13/13 12/12/12
f 13/13/13 14/14/14 12/12/12
f 13/13/13 15/15/15 14/14/14
f 15/15/15 16/16/16 14/14/14
f 15/15/15 17/17/17 16/16/16
f 17/17/17 18/18/18 16/16/16
f 17/17/17 19/19/19 18/18/18
f 19/19/19 20/20/20 18/18/18
f 19/19/19 21/21/21 20/20/20
f 21/21/21 22/22/22 20/20/20
f 21/21/21 23/23/23 22/22/22
f 23/23/23 24/24/24 22/22/22
f 23/23/23 25/25/25 24/24/24
f 25/25/25 26/26/26 24/24/24
f 25/25/25 27/27/27 26/26/26
f 27/27/27 28/28/28 26/26/26
f 27/27/27 29/29/29 28/28/28
f 29/29/29 30/30/30 28/28/28
f 29/29/29 31/31/31 30/30/30
f 31/31/31 32/32/32 30/30/30
f 31/31/31 33/33/33 32/32/32
f 33/33/33 34/34/34 32/32/32
f 33/33/33 35/35/35 34/34/34
f 35/35/35 36/36/36 34/34/34
f 35/35/35 37/37/37 36/36/36
f 37/37/37 38/38/38 36/36/36
f 37/37/37 39/39/39 38/38/38
f 39/39/39 40/40/40 38/38/38
f 39/39/39 41/41/41 40/40/40
f 41/41/41 42/42/42 40/40/40
f 41/41/41 43/43/43 42/42/42
f 43/43/43 44/44/44 42/42/42
f 43/43/43 45/45/45 44/44/44
f 45/45/45 46/46/46 44/44/44
f 45/45/45 47/47/47 46/46/46
f 47/47/47 48/48/48 46/46/46
f 47/47/47 49/49/49 48/48/48
f 49/49/49 50/50/50 48/48/48
f 53/53/53 52/52/52 51/51/51
f 51/51/51 54/54/54 53/53/53
f 54/54/54 55/55/55 53/53/53
f 54/54/54 56/56/56 55/55/55
f 54/54/54 57/57/57 56/56/56
f 57/57/57 58/58/58 56/56/56
f 57/57/57 59/59/59 58/58/58
f 59/59/59 60/60/60 58/58/58
f 59/59/59 61/61/61 60/60/60
f 61/61/61 62/62/62 60/60/60
f 61/61/61 63/63/63 62/62/62
f 63/63/63 64/64/64 62/62/62
f 64/64/64 65/65/65 62/62/62
f 64/64/64 66/66/66 65/65/65
f 66/66/66 67/67/67 65/65/65
f 66/66/66 68/68/68 67/67/67
f 68/68/68 69/69/69 67/67/67
f 68/68/68 70/70/70 69/69/69
f 68/68/68 71/71/71 70/70/70
f 71/71/71 72/72/72 70/70/70
f 72/72/72 73/73/73 70/70/70
f 72/72/72 74/74/74 73/73/73
f 77/77/77 76/76/76 75/75/75
f 75/75/75 78/78/78 77/77/77
f 75/75/75 79/79/79 78/78/78
f 79/79/79 80/80/80 78/78/78
f 80/80/80 81/81/81 78/78/78
f 80/80/80 82/82/82 81/81/81
f 82/82/82 83/83/83 81/81/81
f 82/82/82 84/84/84 83/83/83
f 84/84/84 85/85/85 83/83/83
f 84/84/84 86/86/86 85/85/85
f 86/86/86 87/87/87 85/85/85
f 86/86/86 88/88/88 87/87/87
f 86/86/86 89/89/89 88/88/88
f 89/89/89 90/90/90 88/88/88
f 89/89/89 91/91/91 90/90/90
f 91/91/91 92/92/92 90/90/90
f 91/91/91 93/93/93 92/92/92
f 93/93/93 94/94/94 92/92/92
f 94/94/94 95/95/95 92/92/92
f 94/94/94 96/96/96 95/95/95
f 96/96/96 97/97/97 95/95/95
f 96/96/96 98/98/98 97/97/97
