g Cylinder.003
v -0.5176377 0.4845786 -1.931851
v 1.738469E-08 0.4845786 -1.999999
v 0.5176381 0.4845786 -1.931851
v -1 0.4845786 -1.732049
v 1 0.4845786 -1.73205
v 1.414214 0.4845785 -1.414212
v -1.414214 0.4845785 -1.414212
v 1.732051 0.4845785 -0.999999
v -1.732051 0.4845785 -0.9999988
v 1.931852 0.4845784 -0.5176372
v -1.931852 0.4845784 -0.5176371
v 2 0.4845783 1.120045E-06
v -2 0.4845783 1.008772E-06
v -1.931852 0.4845782 0.517639
v 1.931852 0.4845782 0.5176391
v -1.732051 0.4845782 1.000001
v 1.732051 0.4845782 1.000001
v -1.414213 0.484578 1.414215
v 1.414214 0.484578 1.414215
v 1 0.484578 1.732052
v -1 0.484578 1.732052
v -0.5176381 0.484578 1.931853
v 0.5176383 0.484578 1.931853
v -1.574608E-07 0.484578 2.000001
v 0.5176381 3.147384E-07 -1.931851
v 1.738469E-08 3.258412E-07 -1.999999
v -0.5176377 3.147384E-07 -1.931851
v 1 2.821867E-07 -1.73205
v -1 2.821867E-07 -1.73205
v 1.414214 2.304045E-07 -1.414213
v -1.414214 2.304045E-07 -1.414212
v 1.732051 1.629205E-07 -0.999999
v -1.732051 1.629205E-07 -0.9999989
v 1.931852 8.433381E-08 -0.5176373
v -1.931852 8.433379E-08 -0.5176371
v 2 -1.696162E-13 1.041097E-06
v -2 -1.514877E-13 9.298246E-07
v -1.931852 -8.433408E-08 0.5176389
v 1.931852 -8.43341E-08 0.517639
v -1.732051 -1.629208E-07 1.000001
v 1.732051 -1.629209E-07 1.000001
v -1.414213 -2.304048E-07 1.414215
v 1.414214 -2.304048E-07 1.414214
v 1 -2.82187E-07 1.732051
v -1 -2.82187E-07 1.732051
v 0.5176383 -3.147387E-07 1.931853
v -0.5176381 -3.147387E-07 1.931853
v -1.574608E-07 -3.258415E-07 2.000001
v -1 2.821867E-07 -1.73205
v -0.5176377 3.147384E-07 -1.931851
v -0.5176377 0.4845786 -1.931851
v -1 0.4845786 -1.732049
v 1.738469E-08 0.4845786 -1.999999
v -1.414214 2.304045E-07 -1.414212
v 1.738469E-08 3.258412E-07 -1.999999
v -1.414214 0.4845785 -1.414212
v 0.5176381 0.4845786 -1.931851
v -1.732051 1.629205E-07 -0.9999989
v 0.5176381 3.147384E-07 -1.931851
v -1.732051 0.4845785 -0.9999988
v 1 0.4845786 -1.73205
v -1.931852 8.433379E-08 -0.5176371
v 1 2.821867E-07 -1.73205
v -1.931852 0.4845784 -0.5176371
v 1.414214 0.4845785 -1.414212
v -2 -1.514877E-13 9.298246E-07
v 1.414214 2.304045E-07 -1.414213
v -2 0.4845783 1.008772E-06
v 1.732051 0.4845785 -0.999999
v -1.931852 -8.433408E-08 0.5176389
v 1.732051 1.629205E-07 -0.999999
v -1.931852 0.4845782 0.517639
v 1.931852 0.4845784 -0.5176372
v -1.732051 -1.629208E-07 1.000001
v 1.931852 8.433381E-08 -0.5176373
v -1.732051 0.4845782 1.000001
v 2 0.4845783 1.120045E-06
v -1.414213 -2.304048E-07 1.414215
v 2 -1.696162E-13 1.041097E-06
v -1.414213 0.484578 1.414215
v 1.931852 0.4845782 0.5176391
v -1 -2.82187E-07 1.732051
v 1.931852 -8.43341E-08 0.517639
v -1 0.484578 1.732052
v 1.732051 0.4845782 1.000001
v -0.5176381 -3.147387E-07 1.931853
v 1.732051 -1.629209E-07 1.000001
v -0.5176381 0.484578 1.931853
v 1.414214 0.484578 1.414215
v -1.574608E-07 -3.258415E-07 2.000001
v 1.414214 -2.304048E-07 1.414214
v -1.574608E-07 0.484578 2.000001
v 1 0.484578 1.732052
v 0.5176383 -3.147387E-07 1.931853
v 1 -2.82187E-07 1.732051
v 0.5176383 0.484578 1.931853
vt 0.5073242 0.9858398
vt 0.5073242 0.9858398
vt 0.5073242 0.9858398
vt 0.5073242 0.9858398
vt 0.5073242 0.9858398
vt 0.5073242 0.9858398
vt 0.5073242 0.9858398
vt 0.5073242 0.9858398
vt 0.5073242 0.9858398
vt 0.5073242 0.9858398
vt 0.5073242 0.9858398
vt 0.5073242 0.9858398
vt 0.5073242 0.9858398
vt 0.5073242 0.9858398
vt 0.5073242 0.9858398
vt 0.5073242 0.9858398
vt 0.5073242 0.9858398
vt 0.5073242 0.9858398
vt 0.5073242 0.9858398
vt 0.5073242 0.9858398
vt 0.5073242 0.9858398
vt 0.5073242 0.9858398
vt 0.5073242 0.9858398
vt 0.5073242 0.9858398
vt 0.5078125 0.984375
vt 0.5078125 0.984375
vt 0.5078125 0.984375
vt 0.5078125 0.984375
vt 0.5078125 0.984375
vt 0.5078125 0.984375
vt 0.5078125 0.984375
vt 0.5078125 0.984375
vt 0.5078125 0.984375
vt 0.5078125 0.984375
vt 0.5078125 0.984375
vt 0.5078125 0.984375
vt 0.5078125 0.984375
vt 0.5078125 0.984375
vt 0.5078125 0.984375
vt 0.5078125 0.984375
vt 0.5078125 0.984375
vt 0.5078125 0.984375
vt 0.5078125 0.984375
vt 0.5078125 0.984375
vt 0.5078125 0.984375
vt 0.5078125 0.9838867
vt 0.5078125 0.9838867
vt 0.5078125 0.9838867
vt 0.5073242 0.9858398
vt 0.5073242 0.9858398
vt 0.5073242 0.9858398
vt 0.5073242 0.9858398
vt 0.5078125 0.9858398
vt 0.5073242 0.9858398
vt 0.5078125 0.9858398
vt 0.5073242 0.9858398
vt 0.5078125 0.9858398
vt 0.5073242 0.9858398
vt 0.5078125 0.9858398
vt 0.5073242 0.9858398
vt 0.5078125 0.9858398
vt 0.5073242 0.9858398
vt 0.5078125 0.9858398
vt 0.5073242 0.9858398
vt 0.5078125 0.9858398
vt 0.5073242 0.9858398
vt 0.5078125 0.9858398
vt 0.5073242 0.9858398
vt 0.5078125 0.9858398
vt 0.5073242 0.9858398
vt 0.5078125 0.9858398
vt 0.5073242 0.9858398
vt 0.5078125 0.9858398
vt 0.5073242 0.9858398
vt 0.5078125 0.9858398
vt 0.5073242 0.9858398
vt 0.5078125 0.9858398
vt 0.5073242 0.9858398
vt 0.5078125 0.9858398
vt 0.5073242 0.9858398
vt 0.5078125 0.9858398
vt 0.5073242 0.9858398
vt 0.5078125 0.9858398
vt 0.5073242 0.9858398
vt 0.5078125 0.9858398
vt 0.5073242 0.9858398
vt 0.5078125 0.9858398
vt 0.5073242 0.9858398
vt 0.5078125 0.9858398
vt 0.5073242 0.9858398
vt 0.5078125 0.9858398
vt 0.5073242 0.9858398
vt 0.5073242 0.9858398
vt 0.5073242 0.9858398
vt 0.5073242 0.9858398
vt 0.5073242 0.9858398
vn 0 1 1.788139E-07
vn 0 1 1.788139E-07
vn 0 1 1.788139E-07
vn 0 1 1.788139E-07
vn 0 1 1.788139E-07
vn 0 1 1.788139E-07
vn 0 1 1.788139E-07
vn 0 1 1.788139E-07
vn 0 1 1.788139E-07
vn 0 1 1.788139E-07
vn 0 1 1.788139E-07
vn 0 1 1.788139E-07
vn 0 1 1.788139E-07
vn 0 1 1.788139E-07
vn 0 1 1.788139E-07
vn 0 1 1.788139E-07
vn 0 1 1.788139E-07
vn 0 1 1.788139E-07
vn 0 1 1.788139E-07
vn 0 1 1.788139E-07
vn 0 1 1.788139E-07
vn 0 1 1.788139E-07
vn 0 1 1.788139E-07
vn 0 1 1.788139E-07
vn 0 -1 -1.788139E-07
vn 0 -1 -1.788139E-07
vn 0 -1 -1.788139E-07
vn 0 -1 -1.788139E-07
vn 0 -1 -1.788139E-07
vn 0 -1 -1.788139E-07
vn 0 -1 -1.788139E-07
vn 0 -1 -1.788139E-07
vn 0 -1 -1.788139E-07
vn 0 -1 -1.788139E-07
vn 0 -1 -1.788139E-07
vn 0 -1 -1.788139E-07
vn 0 -1 -1.788139E-07
vn 0 -1 -1.788139E-07
vn 0 -1 -1.788139E-07
vn 0 -1 -1.788139E-07
vn 0 -1 -1.788139E-07
vn 0 -1 -1.788139E-07
vn 0 -1 -1.788139E-07
vn 0 -1 -1.788139E-07
vn 0 -1 -1.788139E-07
vn 0 -1 -1.788139E-07
vn 0 -1 -1.788139E-07
vn 0 -1 -1.788139E-07
vn -0.5 2.384186E-07 -0.8662109
vn -0.2587891 3.576279E-07 -0.9658203
vn -0.2587891 3.576279E-07 -0.9658203
vn -0.5 2.384186E-07 -0.8662109
vn 0 4.768372E-07 -1
vn -0.7070313 1.192093E-07 -0.7070313
vn 0 4.768372E-07 -1
vn -0.7070313 1.192093E-07 -0.7070313
vn 0.2587891 2.384186E-07 -0.9658203
vn -0.8662109 0 -0.5
vn 0.2587891 2.384186E-07 -0.9658203
vn -0.8662109 0 -0.5
vn 0.5 0 -0.8662109
vn -0.9658203 0 -0.2587891
vn 0.5 0 -0.8662109
vn -0.9658203 0 -0.2587891
vn 0.7070313 1.192093E-07 -0.7070313
vn -1 0 -1.192093E-07
vn 0.7070313 1.192093E-07 -0.7070313
vn -1 0 -1.192093E-07
vn 0.8662109 1.192093E-07 -0.5
vn -0.9658203 0 0.2587891
vn 0.8662109 1.192093E-07 -0.5
vn -0.9658203 0 0.2587891
vn 0.9658203 0 -0.2587891
vn -0.8662109 -1.192093E-07 0.5
vn 0.9658203 0 -0.2587891
vn -0.8662109 -1.192093E-07 0.5
vn 1 0 0
vn -0.7070313 -2.384186E-07 0.7070313
vn 1 0 0
vn -0.7070313 -2.384186E-07 0.7070313
vn 0.9658203 0 0.2587891
vn -0.5 -2.384186E-07 0.8662109
vn 0.9658203 0 0.2587891
vn -0.5 -2.384186E-07 0.8662109
vn 0.8662109 -1.192093E-07 0.5
vn -0.2587891 -3.576279E-07 0.9658203
vn 0.8662109 -1.192093E-07 0.5
vn -0.2587891 -3.576279E-07 0.9658203
vn 0.7070313 -1.788139E-07 0.7070313
vn 0 -2.384186E-07 1
vn 0.7070313 -1.788139E-07 0.7070313
vn 0 -2.384186E-07 1
vn 0.5 -2.384186E-07 0.8662109
vn 0.2587891 -1.192093E-07 0.9658203
vn 0.5 -2.384186E-07 0.8662109
vn 0.2587891 -1.192093E-07 0.9658203
g Cylinder.003_0
f 3/3/3 2/2/2 1/1/1
f 1/1/1 4/4/4 3/3/3
f 4/4/4 5/5/5 3/3/3
f 4/4/4 6/6/6 5/5/5
f 4/4/4 7/7/7 6/6/6
f 7/7/7 8/8/8 6/6/6
f 7/7/7 9/9/9 8/8/8
f 9/9/9 10/10/10 8/8/8
f 9/9/9 11/11/11 10/10/10
f 11/11/11 12/12/12 10/10/10
f 11/11/11 13/13/13 12/12/12
f 13/13/13 14/14/14 12/12/12
f 14/14/14 15/15/15 12/12/12
f 14/14/14 16/16/16 15/15/15
f 16/16/16 17/17/17 15/15/15
f 16/16/16 18/18/18 17/17/17
f 18/18/18 19/19/19 17/17/17
f 18/18/18 20/20/20 19/19/19
f 18/18/18 21/21/21 20/20/20
f 21/21/21 22/22/22 20/20/20
f 22/22/22 23/23/23 20/20/20
f 22/22/22 24/24/24 23/23/23
f 27/27/27 26/26/26 25/25/25
f 25/25/25 28/28/28 27/27/27
f 28/28/28 29/29/29 27/27/27
f 28/28/28 30/30/30 29/29/29
f 30/30/30 31/31/31 29/29/29
f 30/30/30 32/32/32 31/31/31
f 32/32/32 33/33/33 31/31/31
f 32/32/32 34/34/34 33/33/33
f 34/34/34 35/35/35 33/33/33
f 34/34/34 36/36/36 35/35/35
f 36/36/36 37/37/37 35/35/35
f 36/36/36 38/38/38 37/37/37
f 36/36/36 39/39/39 38/38/38
f 39/39/39 40/40/40 38/38/38
f 39/39/39 41/41/41 40/40/40
f 41/41/41 42/42/42 40/40/40
f 41/41/41 43/43/43 42/42/42
f 43/43/43 44/44/44 42/42/42
f 44/44/44 45/45/45 42/42/42
f 44/44/44 46/46/46 45/45/45
f 46/46/46 47/47/47 45/45/45
f 46/46/46 48/48/48 47/47/47
f 51/51/51 50/50/50 49/49/49
f 52/52/52 51/51/51 49/49/49
f 51/51/51 53/53/53 50/50/50
f 52/52/52 49/49/49 54/54/54
f 53/53/53 55/55/55 50/50/50
f 56/56/56 52/52/52 54/54/54
f 53/53/53 57/57/57 55/55/55
f 56/56/56 54/54/54 58/58/58
f 57/57/57 59/59/59 55/55/55
f 60/60/60 56/56/56 58/58/58
f 57/57/57 61/61/61 59/59/59
f 60/60/60 58/58/58 62/62/62
f 61/61/61 63/63/63 59/59/59
f 64/64/64 60/60/60 62/62/62
f 61/61/61 65/65/65 63/63/63
f 64/64/64 62/62/62 66/66/66
f 65/65/65 67/67/67 63/63/63
f 68/68/68 64/64/64 66/66/66
f 65/65/65 69/69/69 67/67/67
f 68/68/68 66/66/66 70/70/70
f 69/69/69 71/71/71 67/67/67
f 72/72/72 68/68/68 70/70/70
f 69/69/69 73/73/73 71/71/71
f 72/72/72 70/70/70 74/74/74
f 73/73/73 75/75/75 71/71/71
f 76/76/76 72/72/72 74/74/74
f 73/73/73 77/77/77 75/75/75
f 76/76/76 74/74/74 78/78/78
f 77/77/77 79/79/79 75/75/75
f 80/80/80 76/76/76 78/78/78
f 77/77/77 81/81/81 79/79/79
f 80/80/80 78/78/78 82/82/82
f 81/81/81 83/83/83 79/79/79
f 84/84/84 80/80/80 82/82/82
f 81/81/81 85/85/85 83/83/83
f 84/84/84 82/82/82 86/86/86
f 85/85/85 87/87/87 83/83/83
f 88/88/88 84/84/84 86/86/86
f 85/85/85 89/89/89 87/87/87
f 88/88/88 86/86/86 90/90/90
f 89/89/89 91/91/91 87/87/87
f 92/92/92 88/88/88 90/90/90
f 89/89/89 93/93/93 91/91/91
f 92/92/92 90/90/90 94/94/94
f 93/93/93 95/95/95 91/91/91
f 96/96/96 92/92/92 94/94/94
f 96/96/96 94/94/94 95/95/95
f 93/93/93 96/96/96 95/95/95
