g debris_3_sm
v 0.01387016 0.01387016 0.05006594
v 0.01149526 0.02504958 0.03648047
v 0.02888467 0.005697211 0.04414202
v 0.03429653 0.02766709 0.03326801
v 0.03778333 0.007529989 0.03478856
v 0.04295675 -0.007171056 0.03811744
v 0.020717 -0.009257802 0.04734782
v 0.01387016 0.01387016 0.05006594
v 0.01638916 0.03267661 0.03294456
v 0.03360532 0.02826203 0.02920605
v 0.0403735 0.03951952 0.03407532
v 0.05214144 -0.006045348 0.0202421
v 0.0488857 0.008654436 0.03262274
v 0.03789151 0.01732607 0.01497084
v 0.03248602 0.03192971 0.02362677
v 0.05615027 -0.003877054 0.008815408
v 0.03184396 -0.02447545 0.0207162
v 0.02695873 -0.03131833 0.03458042
v 0.04386176 -0.02599391 4.663587E-05
v 0.05523794 0.002889198 -0.0005640715
v 0.03992878 0.0191468 0.001775596
v 0.04611062 -0.02040421 -0.006433722
v 0.02952321 0.0311659 0.01729166
v 0.02705351 0.03282112 -0.001083462
v 0.02180669 0.03248779 0.02867859
v 0.02758938 -0.0540322 0.007307771
v 0.02124108 -0.04103736 -0.01483564
v 0.0207868 -0.05257728 0.01825664
v 0.04433941 -0.01395263 -0.03191729
v 0.03886967 0.004395305 -0.02275235
v 0.03147028 -0.03638574 -0.0345724
v 0.03230872 0.01618736 -0.009584395
v 0.009195541 -0.06082359 -0.000330478
v 0.003656637 -0.03443 0.01943827
v 0.004615902 -0.05050666 -0.01359932
v 0.008628234 -0.03996849 -0.02641116
v 0.01239623 -0.02206978 -0.04018743
v 0.02554276 -0.003807807 -0.04618907
v 0.02768542 0.01748128 -0.03817395
v 0.01040834 0.03388996 -0.01397072
v 0.01575331 0.04321574 -0.001422629
v 0.01155391 0.03747876 0.01818413
v 0.005585686 0.0507681 0.03752326
v -0.003355741 0.04148208 0.05249547
v -0.005510654 0.02408197 0.05820183
v 0.01387016 0.01387016 0.05006594
v -0.0146536 0.03923488 0.04330347
v -0.00970774 0.04753076 0.04701776
v -0.008904546 0.05895012 0.02235094
v -0.001713446 0.05629412 0.00745182
v 0.0002752307 0.03958058 -0.01998736
v -0.03672458 0.02917871 0.02660348
v -0.0497798 0.01683391 0.02964551
v -0.05390422 0.02402194 0.01295866
v -0.03031777 0.03752561 0.02352266
v -0.02845493 0.03675105 0.008565974
v -0.04132611 0.01606241 -0.001924862
v -0.0484077 0.00236154 -0.0005816567
v -0.04231506 0.000913341 -0.01867407
v -0.04045005 0.02770331 -0.01266267
v -0.02442336 -0.001664281 -0.03216832
v -0.01555165 0.0477851 -0.006993714
v -0.01680958 0.02898629 -0.02409412
v -0.009781843 0.005397778 -0.03834993
v 0.006630464 0.02299192 -0.04723897
v 0.008593551 0.005268844 -0.05780288
v -0.01202066 -0.01202066 -0.04993406
v 0.004059771 -0.01593428 -0.04994593
v -0.01202066 -0.01202066 -0.04993406
v -0.01082886 -0.03337735 -0.04336066
v -0.01780892 -0.0289096 -0.03917532
v -0.01202066 -0.01202066 -0.04993406
v -0.01401442 -0.04561752 -0.03244492
v -0.02887418 -0.03500869 -0.03925275
v -0.01247457 -0.04200823 -0.02185489
v -0.03394568 -0.03727997 -0.03010672
v -0.009767804 -0.03477228 -0.002450736
v -0.03675269 -0.04844705 -0.02647755
v -0.0345544 -0.03629167 -0.03619776
v -0.03739238 -0.03650242 -0.04510321
v -0.02788797 -0.01295731 -0.04121337
v -0.01202066 -0.01202066 -0.04993406
v -0.0172404 -0.02632768 0.01004154
v -0.03406377 -0.03633284 -0.01033731
v -0.05013974 -0.04186121 -0.02194826
v -0.04122094 -0.03339404 -0.0406074
v -0.03524539 -0.01767774 -0.03581075
v 0.008168243 -0.01488721 0.04056849
v -0.002837154 0.002878845 0.05246379
v 0.01387016 0.01387016 0.05006594
v -0.006399519 -0.0003161824 0.03190722
v -0.02815699 -0.02339442 0.01043151
v -0.03429787 -0.01552913 -0.0119129
v -0.03972122 -0.01884161 -0.02068348
v -0.02792453 -0.001514029 0.01190462
v -0.02200888 0.01658617 0.04526645
v -0.05487297 0.005180425 0.004746895
v -0.04501512 -0.01916807 -0.02507637
v -0.005510654 0.02408197 0.05820183
v 0.01387016 0.01387016 0.05006594
v -0.0146536 0.03923488 0.04330347
v -0.0497798 0.01683391 0.02964551
v -0.05390422 0.02402194 0.01295866
v -0.0484077 0.00236154 -0.0005816567
v -0.04231506 0.000913341 -0.01867407
v -0.02442336 -0.001664281 -0.03216832
v -0.009781843 0.005397778 -0.03834993
v -0.01202066 -0.01202066 -0.04993406
vt 0.6 1
vt 0.7 0.8825278
vt 0.5 0.8825278
vt 0.6 0.7980613
vt 0.5 0.7650557
vt 0.4 0.7980613
vt 0.3 0.8825278
vt 0.4 1
vt 0.7 0.7650557
vt 0.5656233 0.6728792
vt 0.6343766 0.6728792
vt 0.4343767 0.6728792
vt 0.5 0.6475836
vt 0.5344325 0.5498848
vt 0.6 0.5543551
vt 0.4655675 0.5498848
vt 0.3656234 0.6728792
vt 0.3 0.7650557
vt 0.4 0.5543551
vt 0.5 0.4456449
vt 0.5655675 0.4501152
vt 0.4344325 0.4501152
vt 0.6655675 0.5498848
vt 0.6344325 0.4501152
vt 0.7 0.6475836
vt 0.3344325 0.5498848
vt 0.3655676 0.4501152
vt 0.3 0.6475836
vt 0.4656234 0.3271208
vt 0.5343767 0.3271208
vt 0.4000001 0.3524164
vt 0.6 0.3524164
vt 0.2655675 0.5498848
vt 0.2343767 0.6728792
vt 0.3 0.4456449
vt 0.3343767 0.3271208
vt 0.4000001 0.2349443
vt 0.5000001 0.2019387
vt 0.6 0.2349443
vt 0.6656233 0.3271208
vt 0.7 0.4456449
vt 0.7344325 0.5498848
vt 0.7656233 0.6728792
vt 0.8 0.7980613
vt 0.9 0.8825278
vt 0.8 1
vt 0.9 0.7650557
vt 0.8343767 0.6728792
vt 0.8 0.5543551
vt 0.7655675 0.4501152
vt 0.7343767 0.3271208
vt 0.9 0.6475836
vt 0.9656233 0.6728792
vt 0.9344325 0.5498848
vt 0.8655676 0.5498848
vt 0.8344325 0.4501152
vt 0.9 0.4456449
vt 0.9655675 0.4501152
vt 0.9343767 0.3271208
vt 0.8656234 0.3271208
vt 0.9 0.2019387
vt 0.8 0.3524164
vt 0.8 0.2349443
vt 0.8 0.1174722
vt 0.7 0.2019387
vt 0.6 0.1174722
vt 0.7 0
vt 0.4000001 0.1174722
vt 0.5000001 0
vt 0.3 0.2019387
vt 0.2 0.1174722
vt 0.3 0
vt 0.2656233 0.3271208
vt 0.2 0.2349443
vt 0.2344325 0.4501152
vt 0.2 0.3524164
vt 0.2 0.5543551
vt 0.1655675 0.4501152
vt 0.1343767 0.3271208
vt 0.09999999 0.2019387
vt 2.980232E-08 0.1174722
vt 0.1 0
vt 0.1656234 0.6728792
vt 0.1344325 0.5498847
vt 0.09999999 0.4456449
vt 0.06562331 0.3271208
vt 2.980232E-08 0.2349443
vt 0.2 0.7980613
vt 0.1000001 0.8825278
vt 0.2 1
vt 0.1000001 0.7650557
vt 0.1000001 0.6475836
vt 0.06556755 0.5498848
vt 0.03443253 0.4501152
vt 0.03437674 0.6728792
vt 2.980232E-08 0.7980613
vt 2.980232E-08 0.5543551
vt 2.980232E-08 0.3524164
vt -0.1 0.8825278
vt 1.490116E-08 1
vt -0.1 0.7650557
vt -0.03437668 0.6728792
vt -0.06556749 0.5498848
vt -0.03443253 0.4501152
vt -0.06562328 0.3271208
vt -0.1 0.2019387
vt -0.2 0.1174722
vt -0.1 0
vn 0.4705171 0.3387593 0.8147735
vn 0.5154956 0.3531872 0.7807196
vn 0.4661782 0.2274992 0.8549398
vn 0.7662731 0.05699227 0.6399824
vn 0.579729 0.1951086 0.7911049
vn 0.7527618 -0.1529292 0.6402829
vn 0.1541718 -0.323276 0.9336614
vn 0.4705171 0.3387593 0.8147735
vn 0.4465238 0.3058824 0.8408642
vn 0.9896617 0.05094513 -0.1340687
vn 0.7213544 0.6026776 0.3412147
vn 0.8436254 -0.370666 0.3884622
vn 0.7335709 0.1402915 0.6649753
vn 0.8631693 0.502596 0.0483324
vn 0.9719478 -0.02645892 -0.2337036
vn 0.9967393 -0.03709184 0.07165728
vn 0.8005295 -0.524826 0.289327
vn 0.3732588 -0.6614531 0.6505057
vn 0.8061402 -0.5917144 -0.003458567
vn 0.932997 0.3298798 -0.1438611
vn 0.7441205 0.6395895 -0.1928983
vn 0.8510427 -0.5008745 -0.1576419
vn -0.08920987 0.9938387 0.06577438
vn 0.654877 0.6545498 -0.3777573
vn 0.1476753 0.9810086 -0.1257541
vn 0.6725031 -0.7395864 0.02741404
vn 0.4715877 -0.8137082 -0.3398294
vn 0.1427108 -0.7220156 0.6769986
vn 0.803955 -0.07472278 -0.5899769
vn 0.7505426 0.506539 -0.4243865
vn 0.4293948 -0.6745058 -0.6005514
vn 0.6071963 0.6858347 -0.4011776
vn -0.1637057 -0.9845352 -0.06237743
vn -0.5273842 -0.5942005 0.6072823
vn 0.158549 -0.821525 -0.547685
vn 0.2397683 -0.7771481 -0.5818521
vn 0.2893671 -0.5207328 -0.8031836
vn 0.5954286 -0.1213247 -0.7941946
vn 0.6890939 0.5574786 -0.4629979
vn 0.5963274 0.6496595 -0.4715252
vn 0.583341 0.7790493 -0.2297725
vn 0.5785769 0.811998 0.07686495
vn 0.5864106 0.7466477 0.3140699
vn 0.1371191 0.4004295 0.9060102
vn -0.04494521 0.1409446 0.9889967
vn 0.4705171 0.3387593 0.8147735
vn -0.6209409 0.1610873 0.7671266
vn -0.3776068 0.6196792 0.6880485
vn -0.117526 0.9929513 0.0153336
vn 0.1902815 0.9736849 -0.1254223
vn 0.1633021 0.8033735 -0.5726461
vn -0.6082589 0.6699983 0.425586
vn -0.7427053 -0.1148678 0.6596926
vn -0.7974729 0.5798531 -0.1667553
vn -0.6900179 0.7163655 0.1034202
vn -0.7317392 0.6798456 -0.04865904
vn -0.8650791 0.4143721 -0.2827258
vn -0.6501102 0.4282554 -0.6276576
vn -0.7955651 0.2875692 -0.533273
vn -0.8138029 0.4821622 -0.3244138
vn -0.5340686 0.4665688 -0.7050421
vn -0.381041 0.853192 -0.35619
vn -0.4172326 0.5352982 -0.7344201
vn -0.5867974 0.3987442 -0.7047496
vn -0.07652165 0.6710077 -0.7374911
vn 0.0122301 0.1682059 -0.9856759
vn -0.3871887 -0.04012134 -0.9211271
vn 0.1731485 -0.4696262 -0.8657197
vn -0.3871887 -0.04012134 -0.9211271
vn -0.039924 -0.3769652 -0.9253666
vn -0.1712638 0.02121685 -0.9849968
vn -0.3871887 -0.04012134 -0.9211271
vn -0.1146036 -0.9417152 -0.3162886
vn 0.09363506 -0.8649521 -0.4930418
vn -0.3149651 -0.9179703 0.2410964
vn 0.4383392 -0.7488562 -0.4970645
vn -0.4508911 -0.7768167 0.4396055
vn -0.09069189 -0.9573615 -0.2742881
vn 0.06209519 -0.963091 -0.2619162
vn -0.3301786 -0.5852397 -0.740592
vn -0.5200336 0.3408954 -0.78317
vn -0.3871887 -0.04012134 -0.9211271
vn -0.3137857 -0.7322469 0.6044444
vn -0.4829002 -0.518383 0.7057524
vn -0.8952913 -0.4213628 0.1445923
vn -0.8052117 -0.1989296 -0.5586243
vn -0.6638964 0.4295593 -0.6121441
vn -0.4260489 -0.5771222 0.6967155
vn -0.3283282 -0.5139107 0.7925252
vn 0.4705171 0.3387593 0.8147735
vn -0.6359887 -0.5764387 0.5130661
vn -0.6510981 -0.4258733 0.628254
vn -0.7588178 -0.3585971 0.5436945
vn -0.8143337 -0.294667 0.5000319
vn -0.5894094 -0.5476052 0.5939068
vn -0.5834668 -0.3060574 0.7522602
vn -0.9204513 -0.3324319 -0.2055687
vn -0.9525482 -0.3043532 -0.004599338
vn -0.04494521 0.1409446 0.9889967
vn 0.4705171 0.3387593 0.8147735
vn -0.6209409 0.1610873 0.7671266
vn -0.7427053 -0.1148678 0.6596926
vn -0.7974729 0.5798531 -0.1667553
vn -0.6501102 0.4282554 -0.6276576
vn -0.7955651 0.2875692 -0.533273
vn -0.5340686 0.4665688 -0.7050421
vn -0.5867974 0.3987442 -0.7047496
vn -0.3871887 -0.04012134 -0.9211271
g debris_3_sm_0
f 3/3/3 2/2/2 1/1/1
f 4/4/4 2/2/2 3/3/3
f 5/5/5 4/4/4 3/3/3
f 6/6/6 5/5/5 3/3/3
f 6/6/6 3/3/3 7/7/7
f 7/7/7 3/3/3 8/8/8
f 4/4/4 9/9/9 2/2/2
f 10/10/10 4/4/4 5/5/5
f 11/11/11 9/9/9 4/4/4
f 10/10/10 11/11/11 4/4/4
f 12/12/12 5/5/5 6/6/6
f 13/13/13 10/10/10 5/5/5
f 12/12/12 13/13/13 5/5/5
f 10/10/10 13/13/13 14/14/14
f 11/11/11 10/10/10 15/15/15
f 10/10/10 14/14/14 15/15/15
f 13/13/13 12/12/12 16/16/16
f 16/16/16 14/14/14 13/13/13
f 17/17/17 12/12/12 6/6/6
f 18/18/18 6/6/6 7/7/7
f 17/17/17 6/6/6 18/18/18
f 12/12/12 19/19/19 16/16/16
f 12/12/12 17/17/17 19/19/19
f 20/20/20 14/14/14 16/16/16
f 15/15/15 14/14/14 21/21/21
f 20/20/20 21/21/21 14/14/14
f 16/16/16 19/19/19 22/22/22
f 22/22/22 20/20/20 16/16/16
f 11/11/11 15/15/15 23/23/23
f 15/15/15 21/21/21 24/24/24
f 23/23/23 15/15/15 24/24/24
f 25/25/25 11/11/11 23/23/23
f 11/11/11 25/25/25 9/9/9
f 17/17/17 26/26/26 19/19/19
f 19/19/19 27/27/27 22/22/22
f 19/19/19 26/26/26 27/27/27
f 17/17/17 28/28/28 26/26/26
f 28/28/28 17/17/17 18/18/18
f 29/29/29 20/20/20 22/22/22
f 30/30/30 21/21/21 20/20/20
f 29/29/29 30/30/30 20/20/20
f 22/22/22 27/27/27 31/31/31
f 31/31/31 29/29/29 22/22/22
f 30/30/30 32/32/32 21/21/21
f 24/24/24 21/21/21 32/32/32
f 33/33/33 26/26/26 28/28/28
f 34/34/34 28/28/28 18/18/18
f 28/28/28 34/34/34 33/33/33
f 35/35/35 27/27/27 26/26/26
f 35/35/35 26/26/26 33/33/33
f 36/36/36 31/31/31 27/27/27
f 36/36/36 27/27/27 35/35/35
f 29/29/29 31/31/31 37/37/37
f 31/31/31 36/36/36 37/37/37
f 30/30/30 29/29/29 38/38/38
f 29/29/29 37/37/37 38/38/38
f 32/32/32 30/30/30 39/39/39
f 30/30/30 38/38/38 39/39/39
f 32/32/32 40/40/40 24/24/24
f 40/40/40 32/32/32 39/39/39
f 40/40/40 41/41/41 24/24/24
f 24/24/24 41/41/41 23/23/23
f 41/41/41 42/42/42 23/23/23
f 23/23/23 42/42/42 25/25/25
f 43/43/43 25/25/25 42/42/42
f 25/25/25 43/43/43 9/9/9
f 43/43/43 44/44/44 9/9/9
f 9/9/9 44/44/44 2/2/2
f 44/44/44 45/45/45 2/2/2
f 2/2/2 45/45/45 46/46/46
f 44/44/44 47/47/47 45/45/45
f 43/43/43 48/48/48 44/44/44
f 48/48/48 47/47/47 44/44/44
f 43/43/43 42/42/42 49/49/49
f 48/48/48 43/43/43 49/49/49
f 41/41/41 50/50/50 42/42/42
f 49/49/49 42/42/42 50/50/50
f 40/40/40 51/51/51 41/41/41
f 51/51/51 50/50/50 41/41/41
f 48/48/48 52/52/52 47/47/47
f 52/52/52 53/53/53 47/47/47
f 53/53/53 52/52/52 54/54/54
f 52/52/52 48/48/48 55/55/55
f 48/48/48 49/49/49 55/55/55
f 55/55/55 54/54/54 52/52/52
f 49/49/49 50/50/50 56/56/56
f 55/55/55 49/49/49 56/56/56
f 57/57/57 54/54/54 55/55/55
f 56/56/56 57/57/57 55/55/55
f 57/57/57 58/58/58 54/54/54
f 59/59/59 58/58/58 57/57/57
f 60/60/60 59/59/59 57/57/57
f 60/60/60 57/57/57 56/56/56
f 59/59/59 60/60/60 61/61/61
f 56/56/56 50/50/50 62/62/62
f 62/62/62 60/60/60 56/56/56
f 51/51/51 62/62/62 50/50/50
f 60/60/60 63/63/63 61/61/61
f 60/60/60 62/62/62 63/63/63
f 62/62/62 51/51/51 63/63/63
f 61/61/61 63/63/63 64/64/64
f 51/51/51 65/65/65 63/63/63
f 63/63/63 65/65/65 64/64/64
f 51/51/51 40/40/40 65/65/65
f 40/40/40 39/39/39 65/65/65
f 65/65/65 66/66/66 64/64/64
f 65/65/65 39/39/39 66/66/66
f 64/64/64 66/66/66 67/67/67
f 39/39/39 38/38/38 66/66/66
f 38/38/38 68/68/68 66/66/66
f 66/66/66 68/68/68 69/69/69
f 38/38/38 37/37/37 68/68/68
f 37/37/37 70/70/70 68/68/68
f 36/36/36 70/70/70 37/37/37
f 70/70/70 71/71/71 68/68/68
f 68/68/68 71/71/71 72/72/72
f 36/36/36 73/73/73 70/70/70
f 73/73/73 36/36/36 35/35/35
f 70/70/70 74/74/74 71/71/71
f 73/73/73 74/74/74 70/70/70
f 73/73/73 35/35/35 75/75/75
f 75/75/75 35/35/35 33/33/33
f 73/73/73 76/76/76 74/74/74
f 76/76/76 73/73/73 75/75/75
f 33/33/33 77/77/77 75/75/75
f 34/34/34 77/77/77 33/33/33
f 75/75/75 78/78/78 76/76/76
f 77/77/77 78/78/78 75/75/75
f 76/76/76 79/79/79 74/74/74
f 79/79/79 76/76/76 78/78/78
f 74/74/74 80/80/80 71/71/71
f 79/79/79 80/80/80 74/74/74
f 80/80/80 81/81/81 71/71/71
f 71/71/71 81/81/81 82/82/82
f 34/34/34 83/83/83 77/77/77
f 77/77/77 84/84/84 78/78/78
f 83/83/83 84/84/84 77/77/77
f 79/79/79 78/78/78 85/85/85
f 85/85/85 78/78/78 84/84/84
f 79/79/79 86/86/86 80/80/80
f 86/86/86 79/79/79 85/85/85
f 80/80/80 87/87/87 81/81/81
f 86/86/86 87/87/87 80/80/80
f 83/83/83 34/34/34 88/88/88
f 34/34/34 18/18/18 88/88/88
f 88/88/88 18/18/18 7/7/7
f 88/88/88 7/7/7 89/89/89
f 89/89/89 7/7/7 90/90/90
f 83/83/83 88/88/88 91/91/91
f 91/91/91 88/88/88 89/89/89
f 83/83/83 92/92/92 84/84/84
f 92/92/92 83/83/83 91/91/91
f 85/85/85 84/84/84 93/93/93
f 93/93/93 84/84/84 92/92/92
f 86/86/86 85/85/85 94/94/94
f 94/94/94 85/85/85 93/93/93
f 95/95/95 92/92/92 91/91/91
f 92/92/92 95/95/95 93/93/93
f 96/96/96 91/91/91 89/89/89
f 95/95/95 91/91/91 96/96/96
f 95/95/95 97/97/97 93/93/93
f 93/93/93 97/97/97 94/94/94
f 98/98/98 86/86/86 94/94/94
f 86/86/86 98/98/98 87/87/87
f 96/96/96 89/89/89 99/99/99
f 99/99/99 89/89/89 100/100/100
f 101/101/101 96/96/96 99/99/99
f 102/102/102 96/96/96 101/101/101
f 102/102/102 95/95/95 96/96/96
f 95/95/95 102/102/102 97/97/97
f 102/102/102 103/103/103 97/97/97
f 97/97/97 103/103/103 104/104/104
f 97/97/97 104/104/104 94/94/94
f 94/94/94 104/104/104 98/98/98
f 105/105/105 98/98/98 104/104/104
f 98/98/98 105/105/105 87/87/87
f 105/105/105 106/106/106 87/87/87
f 87/87/87 106/106/106 81/81/81
f 106/106/106 107/107/107 81/81/81
f 81/81/81 107/107/107 108/108/108
