g Desert Eagle_Part03
v -0.000679906 -0.002590278 0.001512251
v -0.000679906 0.002590282 0.001504915
v -0.0006799069 0 0.002896008
v 0.01294708 -0.002590284 0.001512253
v 0.01294708 -5.587935E-09 -0.002896011
v 0.01294708 -0.002590284 -0.001512254
v 0.01294708 -5.587935E-09 0.002896009
v 0.01294709 0.002590278 0.001504917
v 0.01294709 0.002590278 -0.001504918
v 0.01294709 0.002590278 -0.001504918
v -0.000679906 0.002590282 0.001504915
v -0.000679906 0.002590282 -0.00150492
v 0.01294709 0.002590278 0.001504917
v 0.01294708 -5.587935E-09 -0.002896011
v -0.000679906 0.002590282 -0.00150492
v -0.0006799153 0 -0.002896013
v 0.01294709 0.002590278 -0.001504918
v 0.01294708 -0.002590284 -0.001512254
v -0.0006799153 0 -0.002896013
v -0.000679906 -0.002590278 -0.001512256
v 0.01294708 -5.587935E-09 -0.002896011
v 0.01294708 -0.002590284 0.001512253
v -0.000679906 -0.002590278 -0.001512256
v -0.000679906 -0.002590278 0.001512251
v 0.01294708 -0.002590284 -0.001512254
v 0.01294708 -5.587935E-09 0.002896009
v -0.000679906 -0.002590278 0.001512251
v -0.0006799069 0 0.002896008
v 0.01294708 -0.002590284 0.001512253
v 0.01294709 0.002590278 0.001504917
v -0.0006799069 0 0.002896008
v -0.000679906 0.002590282 0.001504915
v 0.01294708 -5.587935E-09 0.002896009
v -0.000679906 0.002590282 0.001504915
v -0.0006799153 0 -0.002896013
v -0.000679906 0.002590282 -0.00150492
v -0.000679906 -0.002590278 0.001512251
v -0.000679906 -0.002590278 -0.001512256
vt 0.7879657 0.9664203
vt 0.7879657 0.9742049
vt 0.7879657 0.9703126
vt 0.7879657 0.9664203
vt 0.775097 0.9703126
vt 0.775097 0.9664203
vt 0.7879657 0.9703126
vt 0.7879657 0.9742049
vt 0.775097 0.9742049
vt 0.775097 0.9742049
vt 0.7879657 0.9742049
vt 0.775097 0.9742049
vt 0.7879657 0.9742049
vt 0.775097 0.9703126
vt 0.775097 0.9742049
vt 0.775097 0.9703126
vt 0.775097 0.9742049
vt 0.775097 0.9664203
vt 0.775097 0.9703126
vt 0.775097 0.9664203
vt 0.775097 0.9703126
vt 0.7879657 0.9664203
vt 0.775097 0.9664203
vt 0.7879657 0.9664203
vt 0.775097 0.9664203
vt 0.7879657 0.9703126
vt 0.7879657 0.9664203
vt 0.7879657 0.9703126
vt 0.7879657 0.9664203
vt 0.7879657 0.9742049
vt 0.7879657 0.9703126
vt 0.7879657 0.9742049
vt 0.7879657 0.9703126
vt 0.7879657 0.9742049
vt 0.775097 0.9703126
vt 0.775097 0.9742049
vt 0.7879657 0.9664203
vt 0.775097 0.9664203
vn -1 0 0
vn -1 0 0
vn -1 0 0
vn 1 0 0
vn 1 0 0
vn 1 0 0
vn 1 0 0
vn 1 0 0
vn 1 0 0
vn 0 1 0
vn 0 1 0
vn 0 1 0
vn 0 1 0
vn 0 0.4731307 -0.8809922
vn 0 0.4731307 -0.8809922
vn 0 0.4731307 -0.8809923
vn 0 0.4731305 -0.8809924
vn 0 -0.4711912 -0.8820311
vn 0 -0.4711912 -0.8820311
vn 0 -0.4711913 -0.8820311
vn 0 -0.4711913 -0.882031
vn 0 -1 0
vn 0 -1 0
vn 0 -1 0
vn 0 -1 0
vn 0 -0.4711913 0.8820311
vn 0 -0.4711913 0.8820311
vn 0 -0.4711913 0.882031
vn 0 -0.4711912 0.8820311
vn 0 0.4731307 0.8809922
vn 0 0.4731307 0.8809922
vn 0 0.4731307 0.8809922
vn 0 0.4731303 0.8809924
vn -1 0 0
vn -1 0 0
vn -1 0 0
vn -1 0 0
vn -1 0 0
g Desert Eagle_Part03_0
f 3/3/3 2/2/2 1/1/1
f 6/6/6 5/5/5 4/4/4
f 7/7/7 4/4/4 5/5/5
f 7/7/7 5/5/5 8/8/8
f 9/9/9 8/8/8 5/5/5
f 12/12/12 11/11/11 10/10/10
f 13/13/13 10/10/10 11/11/11
f 16/16/16 15/15/15 14/14/14
f 17/17/17 14/14/14 15/15/15
f 20/20/20 19/19/19 18/18/18
f 21/21/21 18/18/18 19/19/19
f 24/24/24 23/23/23 22/22/22
f 25/25/25 22/22/22 23/23/23
f 28/28/28 27/27/27 26/26/26
f 29/29/29 26/26/26 27/27/27
f 32/32/32 31/31/31 30/30/30
f 33/33/33 30/30/30 31/31/31
f 36/36/36 35/35/35 34/34/34
f 34/34/34 35/35/35 37/37/37
f 35/35/35 38/38/38 37/37/37
