g door
v -0.3730543 1.230286 0.03428802
v -0.4092398 1.278569 0.03428803
v -0.4092398 1.581761 0.0342881
v -0.2856948 1.210287 0.03428801
v 2.110446E-10 1.581761 0.0342881
v -1 1.621753 0.035412
v 2.110448E-10 1.210287 0.03428801
v -0.9281034 1.581761 0.03428811
v 0.2856948 1.210287 0.03428801
v 0.3730543 1.230286 0.03428802
v 0.4092398 1.278569 0.03428803
v 0.4092398 1.581761 0.0342881
v -0.9281034 1.216587 0.03428802
v 0.9281034 1.581761 0.03428811
v -1 1.213163 0.03541189
v -0.9281034 0.07459142 0.03428771
v -1 0.001051046 0.03541157
v -0.4092398 0.07459142 0.03428771
v -0.4233057 0.001051046 0.03541157
v -2.084814E-10 0.001051046 0.03541157
v 2.060804E-16 0.07459142 0.03428771
v 0.4233057 0.001051046 0.03541157
v 0.4092398 0.07459142 0.03428771
v 0.9281034 0.07459142 0.03428771
v 1 0.001051046 0.03541157
v 0.9281034 1.216587 0.03428802
v 1 1.213163 0.03541189
v 1 1.621754 0.035412
v 0.9831762 1.895766 0.03541207
v 0.9352665 1.951097 0.03541208
v 1 1.830498 0.03541205
v 0.8635644 1.988068 0.0354121
v 0.7789863 2.001051 0.0354121
v -0.7789863 2.001051 0.0354121
v -0.8635644 1.988068 0.0354121
v -0.9352665 1.951097 0.03541208
v -0.9831762 1.895766 0.03541207
v -1 1.830498 0.03541205
v -0.4092398 1.581761 -0.03110969
v -0.4092398 1.278569 -0.03110976
v -0.3730543 1.230286 -0.03110978
v -0.2856948 1.210287 -0.03110979
v 2.110446E-10 1.581761 -0.03110969
v 2.110448E-10 1.210287 -0.03110979
v -1 1.621753 -0.03223357
v -0.9281034 1.581761 -0.03110969
v 0.2856948 1.210287 -0.03110979
v 0.3730543 1.230286 -0.03110978
v -0.9281034 1.216587 -0.03110979
v 0.4092398 1.581761 -0.03110969
v 0.4092398 1.278569 -0.03110976
v 0.9281034 1.581761 -0.03110969
v -1 1.213163 -0.03223367
v -0.9281034 0.07459143 -0.03111009
v -1 0.001051055 -0.032234
v -0.4092398 0.07459143 -0.03111009
v -0.4233057 0.001051055 -0.032234
v -2.084818E-10 0.001051055 -0.032234
v 1.894933E-16 0.07459143 -0.03111009
v 0.4233057 0.001051055 -0.032234
v 0.4092398 0.07459143 -0.03111009
v 0.9281034 0.07459143 -0.03111009
v 1 0.001051055 -0.032234
v 0.9281034 1.216587 -0.03110979
v 1 1.213163 -0.03223367
v 1 1.621754 -0.03223357
v 1 1.830498 -0.03223351
v 0.9831762 1.895766 -0.03223349
v 0.9352665 1.951097 -0.03223348
v 0.8635644 1.988068 -0.03223347
v 0.7789863 2.001051 -0.03223347
v -0.7789863 2.001051 -0.03223347
v -0.8635644 1.988068 -0.03223347
v -0.9352665 1.951097 -0.03223348
v -0.9831762 1.895766 -0.03223349
v -1 1.830498 -0.03223351
v -1 1.213163 0.03541189
v -1 0.001051046 0.03541157
v -1 0.001051055 -0.032234
v -1 1.213163 -0.03223367
v -1 1.621753 0.035412
v -1 1.621753 -0.03223357
v -1 1.830498 0.03541205
v -1 1.830498 -0.03223351
v -0.9831762 1.895766 0.03541207
v -0.9831762 1.895766 -0.03223349
v -0.9352665 1.951097 0.03541208
v -0.9352665 1.951097 -0.03223348
v -0.8635644 1.988068 0.0354121
v -0.8635644 1.988068 -0.03223347
v -0.7789863 2.001051 0.0354121
v -0.7789863 2.001051 -0.03223347
v 0.7789863 2.001051 0.0354121
v 0.7789863 2.001051 -0.03223347
v 0.8635644 1.988068 0.0354121
v 0.8635644 1.988068 -0.03223347
v 0.9352665 1.951097 0.03541208
v 0.9352665 1.951097 -0.03223348
v 0.9831762 1.895766 0.03541207
v 0.9831762 1.895766 -0.03223349
v 1 1.830498 0.03541205
v 1 1.830498 -0.03223351
v 1 1.621754 0.035412
v 1 1.621754 -0.03223357
v 1 1.213163 0.03541189
v 1 1.213163 -0.03223367
v 1 0.001051046 0.03541157
v 1 0.001051055 -0.032234
v 0.4233057 0.001051046 0.03541157
v 1 0.001051046 0.03541157
v 1 0.001051055 -0.032234
v 0.4233057 0.001051055 -0.032234
v -2.084814E-10 0.001051046 0.03541157
v -2.084818E-10 0.001051055 -0.032234
v -0.4233057 0.001051046 0.03541157
v -0.4233057 0.001051055 -0.032234
v -1 0.001051046 0.03541157
v -1 0.001051055 -0.032234
v -0.4092398 1.216587 0.03428801
v -0.4092398 1.216587 0.03428801
v -0.4092398 1.216587 0.03428801
v -0.2856948 1.210287 0.03428801
v -0.3730543 1.230286 0.03428802
v 0.4092398 1.216587 0.03428801
v 0.4092398 1.216587 0.03428801
v 0.4092398 1.216587 0.03428801
v -0.2856948 1.210287 -0.03110979
v -0.3730543 1.230286 -0.03110978
v -0.4092398 1.216587 -0.03110979
v 0.4092398 1.216587 -0.03110979
v -0.4092398 1.216587 -0.03110979
v 0.4092398 1.216587 -0.03110979
v 0.4092398 1.216587 -0.03110979
v -0.4092398 1.216587 -0.03110979
vt 0.3618164 0.6875
vt 0.3483887 0.7133789
vt 0.3483887 0.8251953
vt 0.3942871 0.6767578
vt 0.5 0.8251953
vt 0 0.8413086
vt 0.5 0.6767578
vt 0.02000427 0.8251953
vt 0.605957 0.6767578
vt 0.6381836 0.6875
vt 0.6513672 0.7133789
vt 0.6513672 0.8251953
vt 0.02000427 0.6767578
vt 0.9799805 0.8251953
vt 0 0.6870117
vt 0.02000427 0.01602173
vt 0 0
vt 0.3483887 0.01602173
vt 0.3483887 0
vt 0.5 0
vt 0.5 0.01602173
vt 0.6513672 0
vt 0.6513672 0.01602173
vt 0.9799805 0.01602173
vt 1 0
vt 0.9799805 0.6767578
vt 1 0.6870117
vt 1 0.8413086
vt 0.9916992 0.9453125
vt 0.9677734 0.9741211
vt 1 0.9116211
vt 0.9316406 0.9931641
vt 0.8896484 1
vt 0.1105347 1
vt 0.0682373 0.9931641
vt 0.03237915 0.9741211
vt 0.008415222 0.9453125
vt 0 0.9116211
vt 0.3483887 0.8251953
vt 0.3483887 0.7133789
vt 0.3618164 0.6875
vt 0.3942871 0.6767578
vt 0.5 0.8251953
vt 0.5 0.6767578
vt 0 0.8413086
vt 0.02000427 0.8251953
vt 0.605957 0.6767578
vt 0.6381836 0.6875
vt 0.02000427 0.6767578
vt 0.6513672 0.8251953
vt 0.6513672 0.7133789
vt 0.9799805 0.8251953
vt 0 0.6870117
vt 0.02000427 0.01602173
vt 0 0
vt 0.3483887 0.01602173
vt 0.3483887 0
vt 0.5 0
vt 0.5 0.01602173
vt 0.6513672 0
vt 0.6513672 0.01602173
vt 0.9799805 0.01602173
vt 1 0
vt 0.9799805 0.6767578
vt 1 0.6870117
vt 1 0.8413086
vt 1 0.9116211
vt 0.9916992 0.9453125
vt 0.9677734 0.9741211
vt 0.9316406 0.9931641
vt 0.8896484 1
vt 0.1105347 1
vt 0.0682373 0.9931641
vt 0.03237915 0.9741211
vt 0.008415222 0.9453125
vt 0 0.9116211
vt 0 0.6870117
vt 0 0
vt 0 0
vt 0 0.6870117
vt 0 0.8413086
vt 0 0.8413086
vt 0 0.9116211
vt 0 0.9116211
vt 0.008415222 0.9453125
vt 0.008415222 0.9453125
vt 0.03237915 0.9741211
vt 0.03237915 0.9741211
vt 0.0682373 0.9931641
vt 0.0682373 0.9931641
vt 0.1105347 1
vt 0.1105347 1
vt 0.8896484 1
vt 0.8896484 1
vt 0.9316406 0.9931641
vt 0.9316406 0.9931641
vt 0.9677734 0.9741211
vt 0.9677734 0.9741211
vt 0.9916992 0.9453125
vt 0.9916992 0.9453125
vt 1 0.9116211
vt 1 0.9116211
vt 1 0.8413086
vt 1 0.8413086
vt 1 0.6870117
vt 1 0.6870117
vt 1 0
vt 1 0
vt 0.6513672 0
vt 1 0
vt 1 0
vt 0.6513672 0
vt 0.5 0
vt 0.5 0
vt 0.3483887 0
vt 0.3483887 0
vt 0 0
vt 0 0
vt 0.3483887 0.6767578
vt 0.3349609 0.6875
vt 0.3618164 0.6660156
vt 0.3942871 0.6767578
vt 0.3618164 0.6875
vt 0.6381836 0.6660156
vt 0.6513672 0.6767578
vt 0.6650391 0.6875
vt 0.3942871 0.6767578
vt 0.3618164 0.6875
vt 0.3483887 0.6767578
vt 0.6381836 0.6660156
vt 0.3618164 0.6660156
vt 0.6513672 0.6767578
vt 0.6650391 0.6875
vt 0.3349609 0.6875
vn 0 0 1
vn 0 -2.980232E-07 1
vn 0 -0.01404572 1
vn 0 -2.384186E-07 1
vn 0 -0.01404572 1
vn 0.005290985 -0.00453949 1
vn 0 -2.384186E-07 1
vn 0.005172729 -0.01177979 1
vn 0 -2.384186E-07 1
vn 0 0 1
vn 0 -2.980232E-07 1
vn 0 -0.01404572 1
vn 0.0078125 -2.384186E-07 1
vn -0.005172729 -0.01177979 1
vn 0.015625 -2.384186E-07 1
vn 0.005889893 0.005702972 1
vn 0.007701874 0.007751465 1
vn 0 0.007640839 1
vn 0 0.01528168 1
vn 0 0.01528168 1
vn 0 0.007640839 1
vn 0 0.01528168 1
vn 0 0.007640839 1
vn -0.005889893 0.005702972 1
vn -0.007701874 0.007751465 1
vn -0.0078125 -2.384186E-07 1
vn -0.015625 -2.384186E-07 1
vn -0.005290985 -0.00453949 1
vn 0 -2.384186E-07 1
vn 0 -2.384186E-07 1
vn 0 -2.384186E-07 1
vn 0 -2.384186E-07 1
vn 0 -2.384186E-07 1
vn 0 -2.384186E-07 1
vn 0 -2.384186E-07 1
vn 0 -2.384186E-07 1
vn 0 -2.384186E-07 1
vn 0 -2.384186E-07 1
vn 0 -0.01404572 -1
vn 0 2.384186E-07 -1
vn 0 2.384186E-07 -1
vn 0 2.384186E-07 -1
vn 0 -0.01404572 -1
vn 0 2.384186E-07 -1
vn 0.005290985 -0.00453949 -1
vn 0.005172729 -0.01177979 -1
vn 0 2.384186E-07 -1
vn 0 2.384186E-07 -1
vn 0.0078125 2.384186E-07 -1
vn 0 -0.01404572 -1
vn 0 2.384186E-07 -1
vn -0.005172729 -0.01177979 -1
vn 0.015625 2.384186E-07 -1
vn 0.005889893 0.005702972 -1
vn 0.007701874 0.007751465 -1
vn 0 0.007640839 -1
vn 0 0.01528168 -1
vn 0 0.01528168 -1
vn 0 0.007640839 -1
vn 0 0.01528168 -1
vn 0 0.007640839 -1
vn -0.005889893 0.005702972 -1
vn -0.007701874 0.007751465 -1
vn -0.0078125 2.384186E-07 -1
vn -0.015625 2.384186E-07 -1
vn -0.005290985 -0.00453949 -1
vn 0 2.384186E-07 -1
vn 0 2.384186E-07 -1
vn 0 2.384186E-07 -1
vn 0 2.384186E-07 -1
vn 0 2.384186E-07 -1
vn 0 2.384186E-07 -1
vn 0 2.384186E-07 -1
vn 0 2.384186E-07 -1
vn 0 2.384186E-07 -1
vn 0 2.384186E-07 -1
vn -1 0 0
vn -1 0 1.192093E-07
vn -1 0 1.192093E-07
vn -1 0 0
vn -1 0 0
vn -1 0 0
vn -0.9921875 0.1258545 0
vn -0.9921875 0.1258545 0
vn -0.8857422 0.4643555 0
vn -0.8857422 0.4643555 0
vn -0.6181641 0.7861328 0
vn -0.6181641 0.7861328 0
vn -0.309082 0.9511719 0
vn -0.309082 0.9511719 0
vn -0.0760498 0.9970703 0
vn -0.0760498 0.9970703 0
vn 0.0760498 0.9970703 0
vn 0.0760498 0.9970703 0
vn 0.309082 0.9511719 0
vn 0.309082 0.9511719 0
vn 0.6181641 0.7861328 0
vn 0.6181641 0.7861328 0
vn 0.8857422 0.4643555 0
vn 0.8857422 0.4643555 0
vn 0.9921875 0.1258545 0
vn 0.9921875 0.1258545 0
vn 1 0 0
vn 1 0 0
vn 1 0 0
vn 1 0 0
vn 1 0 0
vn 1 0 0
vn 0 -1 -1.192093E-07
vn 0 -1 -1.192093E-07
vn 0 -1 -1.192093E-07
vn 0 -1 -1.192093E-07
vn 0 -1 -1.192093E-07
vn 0 -1 -1.192093E-07
vn 0 -1 -1.192093E-07
vn 0 -1 -1.192093E-07
vn 0 -1 -1.192093E-07
vn 0 -1 -1.192093E-07
vn 0 -2.384186E-07 1
vn 0 -2.384186E-07 1
vn 0 -2.384186E-07 1
vn 0 -2.384186E-07 1
vn 0 0 1
vn 0 -2.384186E-07 1
vn 0 -2.384186E-07 1
vn 0 -2.384186E-07 1
vn 0 2.384186E-07 -1
vn 0 2.384186E-07 -1
vn 0 2.980232E-07 -1
vn 0 2.980232E-07 -1
vn 0 2.980232E-07 -1
vn 0 2.980232E-07 -1
vn 0 2.980232E-07 -1
vn 0 2.980232E-07 -1
g door_0
f 3/3/3 2/2/2 1/1/1
f 3/3/3 1/1/1 4/4/4
f 5/5/5 3/3/3 4/4/4
f 6/6/6 3/3/3 5/5/5
f 4/4/4 7/7/7 5/5/5
f 6/6/6 8/8/8 3/3/3
f 5/5/5 7/7/7 9/9/9
f 5/5/5 9/9/9 10/10/10
f 5/5/5 10/10/10 11/11/11
f 11/11/11 12/12/12 5/5/5
f 6/6/6 5/5/5 12/12/12
f 8/8/8 6/6/6 13/13/13
f 6/6/6 12/12/12 14/14/14
f 6/6/6 15/15/15 13/13/13
f 13/13/13 15/15/15 16/16/16
f 15/15/15 17/17/17 16/16/16
f 16/16/16 17/17/17 18/18/18
f 17/17/17 19/19/19 18/18/18
f 19/19/19 20/20/20 18/18/18
f 20/20/20 21/21/21 18/18/18
f 20/20/20 22/22/22 21/21/21
f 22/22/22 23/23/23 21/21/21
f 23/23/23 22/22/22 24/24/24
f 22/22/22 25/25/25 24/24/24
f 24/24/24 25/25/25 26/26/26
f 25/25/25 27/27/27 26/26/26
f 26/26/26 27/27/27 14/14/14
f 27/27/27 28/28/28 14/14/14
f 14/14/14 28/28/28 6/6/6
f 29/29/29 6/6/6 28/28/28
f 29/29/29 30/30/30 6/6/6
f 28/28/28 31/31/31 29/29/29
f 30/30/30 32/32/32 6/6/6
f 32/32/32 33/33/33 6/6/6
f 33/33/33 34/34/34 6/6/6
f 34/34/34 35/35/35 6/6/6
f 35/35/35 36/36/36 6/6/6
f 36/36/36 37/37/37 6/6/6
f 37/37/37 38/38/38 6/6/6
f 41/41/41 40/40/40 39/39/39
f 42/42/42 41/41/41 39/39/39
f 42/42/42 39/39/39 43/43/43
f 43/43/43 44/44/44 42/42/42
f 43/43/43 39/39/39 45/45/45
f 39/39/39 46/46/46 45/45/45
f 47/47/47 44/44/44 43/43/43
f 48/48/48 47/47/47 43/43/43
f 45/45/45 46/46/46 49/49/49
f 48/48/48 43/43/43 50/50/50
f 50/50/50 43/43/43 45/45/45
f 50/50/50 51/51/51 48/48/48
f 52/52/52 50/50/50 45/45/45
f 53/53/53 45/45/45 49/49/49
f 53/53/53 49/49/49 54/54/54
f 55/55/55 53/53/53 54/54/54
f 55/55/55 54/54/54 56/56/56
f 57/57/57 55/55/55 56/56/56
f 58/58/58 57/57/57 56/56/56
f 59/59/59 58/58/58 56/56/56
f 60/60/60 58/58/58 59/59/59
f 61/61/61 60/60/60 59/59/59
f 60/60/60 61/61/61 62/62/62
f 63/63/63 60/60/60 62/62/62
f 63/63/63 62/62/62 64/64/64
f 65/65/65 63/63/63 64/64/64
f 65/65/65 64/64/64 52/52/52
f 66/66/66 65/65/65 52/52/52
f 45/45/45 66/66/66 52/52/52
f 67/67/67 66/66/66 45/45/45
f 45/45/45 68/68/68 67/67/67
f 45/45/45 69/69/69 68/68/68
f 45/45/45 70/70/70 69/69/69
f 45/45/45 71/71/71 70/70/70
f 45/45/45 72/72/72 71/71/71
f 45/45/45 73/73/73 72/72/72
f 45/45/45 74/74/74 73/73/73
f 45/45/45 75/75/75 74/74/74
f 45/45/45 76/76/76 75/75/75
f 79/79/79 78/78/78 77/77/77
f 80/80/80 79/79/79 77/77/77
f 80/80/80 77/77/77 81/81/81
f 82/82/82 80/80/80 81/81/81
f 82/82/82 81/81/81 83/83/83
f 84/84/84 82/82/82 83/83/83
f 84/84/84 83/83/83 85/85/85
f 86/86/86 84/84/84 85/85/85
f 86/86/86 85/85/85 87/87/87
f 88/88/88 86/86/86 87/87/87
f 88/88/88 87/87/87 89/89/89
f 90/90/90 88/88/88 89/89/89
f 90/90/90 89/89/89 91/91/91
f 92/92/92 90/90/90 91/91/91
f 92/92/92 91/91/91 93/93/93
f 94/94/94 92/92/92 93/93/93
f 94/94/94 93/93/93 95/95/95
f 96/96/96 94/94/94 95/95/95
f 96/96/96 95/95/95 97/97/97
f 98/98/98 96/96/96 97/97/97
f 98/98/98 97/97/97 99/99/99
f 100/100/100 98/98/98 99/99/99
f 100/100/100 99/99/99 101/101/101
f 102/102/102 100/100/100 101/101/101
f 102/102/102 101/101/101 103/103/103
f 104/104/104 102/102/102 103/103/103
f 104/104/104 103/103/103 105/105/105
f 106/106/106 104/104/104 105/105/105
f 106/106/106 105/105/105 107/107/107
f 108/108/108 106/106/106 107/107/107
f 111/111/111 110/110/110 109/109/109
f 112/112/112 111/111/111 109/109/109
f 112/112/112 109/109/109 113/113/113
f 114/114/114 112/112/112 113/113/113
f 114/114/114 113/113/113 115/115/115
f 116/116/116 114/114/114 115/115/115
f 116/116/116 115/115/115 117/117/117
f 118/118/118 116/116/116 117/117/117
g door_1
f 119/119/119 1/1/1 2/2/2
f 2/2/2 3/3/3 8/8/8
f 8/8/8 120/120/120 2/2/2
f 8/8/8 13/13/13 120/120/120
f 13/13/13 16/16/16 120/120/120
f 16/16/16 18/18/18 120/120/120
f 122/122/122 121/121/121 18/18/18
f 123/123/123 121/121/121 122/122/122
f 122/122/122 18/18/18 21/21/21
f 21/21/21 7/7/7 122/122/122
f 9/9/9 7/7/7 21/21/21
f 9/9/9 21/21/21 23/23/23
f 23/23/23 124/124/124 9/9/9
f 23/23/23 24/24/24 124/124/124
f 24/24/24 26/26/26 124/124/124
f 125/125/125 10/10/10 9/9/9
f 26/26/26 14/14/14 12/12/12
f 12/12/12 126/126/126 26/26/26
f 10/10/10 126/126/126 11/11/11
f 12/12/12 11/11/11 126/126/126
f 129/129/129 128/128/128 127/127/127
f 127/127/127 44/44/44 59/59/59
f 59/59/59 44/44/44 47/47/47
f 59/59/59 47/47/47 130/130/130
f 48/48/48 130/130/130 47/47/47
f 130/130/130 61/61/61 59/59/59
f 59/59/59 56/56/56 127/127/127
f 56/56/56 131/131/131 127/127/127
f 131/131/131 56/56/56 49/49/49
f 56/56/56 54/54/54 49/49/49
f 132/132/132 48/48/48 51/51/51
f 64/64/64 62/62/62 61/61/61
f 133/133/133 64/64/64 61/61/61
f 133/133/133 51/51/51 50/50/50
f 52/52/52 64/64/64 133/133/133
f 133/133/133 50/50/50 52/52/52
f 49/49/49 46/46/46 39/39/39
f 49/49/49 39/39/39 40/40/40
f 40/40/40 134/134/134 49/49/49
f 41/41/41 134/134/134 40/40/40
