g door
v 0.9831762 1.895766 0.03541237
v 1 1.830498 0.03541235
v 1 1.621754 0.03541226
v -1 1.621753 0.03541226
v 0.9352665 1.951097 0.0354124
v 0.8635644 1.988068 0.03541242
v 0.7789863 2.001051 0.03541242
v -0.7789863 2.001051 0.03541242
v -0.8635644 1.988068 0.03541242
v -0.9352665 1.951097 0.0354124
v -0.9831762 1.895766 0.03541237
v -1 1.830498 0.03541235
v 0.9281034 1.581761 0.03428837
v 1 1.213163 0.03541209
v 0.9281034 1.216587 0.03428821
v 1 0.00105104 0.03541157
v 0.9281034 0.07459141 0.03428772
v 0.4092398 1.581761 0.03428836
v 0.4233057 0.00105104 0.03541157
v 0.4092398 0.07459141 0.03428772
v 2.060804E-16 0.07459141 0.03428772
v -2.084814E-10 0.00105104 0.03541157
v 2.110446E-10 1.581761 0.03428836
v -0.4092398 0.07459141 0.03428772
v -0.4233057 0.00105104 0.03541157
v -1 0.00105104 0.03541157
v -0.9281034 0.07459141 0.03428772
v -1 1.213163 0.03541209
v -0.9281034 1.216587 0.03428821
v -0.4092398 1.581761 0.03428836
v -0.9281034 1.581761 0.03428837
v -0.9831762 1.895766 -0.03223318
v -1 1.830498 -0.03223322
v -1 1.621753 -0.0322333
v -0.9352665 1.951097 -0.03223316
v -0.8635644 1.988068 -0.03223315
v -0.7789863 2.001051 -0.03223314
v 0.7789863 2.001051 -0.03223314
v 0.8635644 1.988068 -0.03223315
v 0.9352665 1.951097 -0.03223316
v 0.9831762 1.895766 -0.03223318
v 1 1.830498 -0.03223322
v 1 1.621754 -0.0322333
v 0.9281034 1.581761 -0.03110943
v 1 1.213163 -0.03223347
v 0.9281034 1.216587 -0.03110959
v 1 0.00105106 -0.032234
v 0.9281034 0.07459144 -0.03111008
v 0.4092398 1.581761 -0.03110943
v 0.4233057 0.00105106 -0.032234
v 0.4092398 0.07459144 -0.03111008
v 1.894933E-16 0.07459144 -0.03111008
v -2.084818E-10 0.00105106 -0.032234
v 2.110446E-10 1.581761 -0.03110943
v -0.4092398 0.07459144 -0.03111008
v -0.4233057 0.00105106 -0.032234
v -1 0.00105106 -0.032234
v -0.9281034 0.07459144 -0.03111008
v -1 1.213163 -0.03223347
v -0.9281034 1.216587 -0.03110959
v -0.4092398 1.581761 -0.03110943
v -0.9281034 1.581761 -0.03110943
v -1 1.213163 0.03541209
v -1 0.00105104 0.03541157
v -1 0.00105106 -0.032234
v -1 1.213163 -0.03223347
v -1 1.621753 0.03541226
v -1 1.621753 -0.0322333
v -1 1.830498 0.03541235
v -1 1.830498 -0.03223322
v -0.9831762 1.895766 0.03541237
v -0.9831762 1.895766 -0.03223318
v -0.9352665 1.951097 0.0354124
v -0.9352665 1.951097 -0.03223316
v -0.8635644 1.988068 0.03541242
v -0.8635644 1.988068 -0.03223315
v -0.7789863 2.001051 0.03541242
v -0.7789863 2.001051 -0.03223314
v 0.7789863 2.001051 0.03541242
v 0.7789863 2.001051 -0.03223314
v 0.8635644 1.988068 0.03541242
v 0.8635644 1.988068 -0.03223315
v 0.9352665 1.951097 0.0354124
v 0.9352665 1.951097 -0.03223316
v 0.9831762 1.895766 0.03541237
v 0.9831762 1.895766 -0.03223318
v 1 1.830498 0.03541235
v 1 1.830498 -0.03223322
v 1 1.621754 0.03541226
v 1 1.621754 -0.0322333
v 1 1.213163 0.03541209
v 1 1.213163 -0.03223347
v 1 0.00105104 0.03541157
v 1 0.00105106 -0.032234
v 0.4233057 0.00105104 0.03541157
v 1 0.00105104 0.03541157
v 1 0.00105106 -0.032234
v 0.4233057 0.00105106 -0.032234
v -2.084814E-10 0.00105104 0.03541157
v -2.084818E-10 0.00105106 -0.032234
v -0.4233057 0.00105104 0.03541157
v -0.4233057 0.00105106 -0.032234
v -1 0.00105104 0.03541157
v -1 0.00105106 -0.032234
v -0.2856948 1.210287 -0.03110959
v -0.3730543 1.230286 -0.03110958
v -0.4092398 1.216587 -0.03110959
v -0.4092398 1.216587 -0.03110959
v 2.110448E-10 1.210287 -0.03110959
v 0.2856948 1.210287 -0.03110959
v 0.4092398 1.216587 -0.03110959
v 0.3730543 1.230286 -0.03110958
v -0.2856948 1.210287 -0.03110959
v -0.3730543 1.230286 -0.03110958
v -0.4092398 1.278569 -0.03110955
v -0.4092398 1.216587 -0.03110959
v 0.4092398 1.278569 -0.03110955
v 0.4092398 1.216587 -0.03110959
v 0.4092398 1.216587 -0.03110959
v 0.4092398 1.216587 0.03428821
v 0.4092398 1.278569 0.03428824
v 0.3730543 1.230286 0.03428822
v 0.2856948 1.210287 0.03428821
v 0.4092398 1.216587 0.03428821
v 2.110448E-10 1.210287 0.03428821
v -0.2856948 1.210287 0.03428821
v -0.3730543 1.230286 0.03428822
v -0.4092398 1.278569 0.03428824
v -0.4092398 1.216587 0.03428821
v -0.4092398 1.216587 0.03428821
v -0.2856948 1.210287 0.03428821
v -0.4092398 1.216587 0.03428821
v -0.3730543 1.230286 0.03428822
v 0.4092398 1.216587 0.03428821
vt 0.9916992 0.9453125
vt 1 0.9116211
vt 1 0.8413086
vt 0 0.8413086
vt 0.9677734 0.9741211
vt 0.9316406 0.9931641
vt 0.8896484 1
vt 0.1105347 1
vt 0.0682373 0.9931641
vt 0.03237915 0.9741211
vt 0.008415222 0.9453125
vt 0 0.9116211
vt 0.9799805 0.8251953
vt 1 0.6870117
vt 0.9799805 0.6767578
vt 1 0
vt 0.9799805 0.01602173
vt 0.6513672 0.8251953
vt 0.6513672 0
vt 0.6513672 0.01602173
vt 0.5 0.01602173
vt 0.5 0
vt 0.5 0.8251953
vt 0.3483887 0.01602173
vt 0.3483887 0
vt 0 0
vt 0.02000427 0.01602173
vt 0 0.6870117
vt 0.02000427 0.6767578
vt 0.3483887 0.8251953
vt 0.02000427 0.8251953
vt 0.008415222 0.9453125
vt 0 0.9116211
vt 0 0.8413086
vt 0.03237915 0.9741211
vt 0.0682373 0.9931641
vt 0.1105347 1
vt 0.8896484 1
vt 0.9316406 0.9931641
vt 0.9677734 0.9741211
vt 0.9916992 0.9453125
vt 1 0.9116211
vt 1 0.8413086
vt 0.9799805 0.8251953
vt 1 0.6870117
vt 0.9799805 0.6767578
vt 1 0
vt 0.9799805 0.01602173
vt 0.6513672 0.8251953
vt 0.6513672 0
vt 0.6513672 0.01602173
vt 0.5 0.01602173
vt 0.5 0
vt 0.5 0.8251953
vt 0.3483887 0.01602173
vt 0.3483887 0
vt 0 0
vt 0.02000427 0.01602173
vt 0 0.6870117
vt 0.02000427 0.6767578
vt 0.3483887 0.8251953
vt 0.02000427 0.8251953
vt 0 0.6870117
vt 0 0
vt 0 0
vt 0 0.6870117
vt 0 0.8413086
vt 0 0.8413086
vt 0 0.9116211
vt 0 0.9116211
vt 0.008415222 0.9453125
vt 0.008415222 0.9453125
vt 0.03237915 0.9741211
vt 0.03237915 0.9741211
vt 0.0682373 0.9931641
vt 0.0682373 0.9931641
vt 0.1105347 1
vt 0.1105347 1
vt 0.8896484 1
vt 0.8896484 1
vt 0.9316406 0.9931641
vt 0.9316406 0.9931641
vt 0.9677734 0.9741211
vt 0.9677734 0.9741211
vt 0.9916992 0.9453125
vt 0.9916992 0.9453125
vt 1 0.9116211
vt 1 0.9116211
vt 1 0.8413086
vt 1 0.8413086
vt 1 0.6870117
vt 1 0.6870117
vt 1 0
vt 1 0
vt 0.6513672 0
vt 1 0
vt 1 0
vt 0.6513672 0
vt 0.5 0
vt 0.5 0
vt 0.3483887 0
vt 0.3483887 0
vt 0 0
vt 0 0
vt 0.3942871 0.6767578
vt 0.3618164 0.6875
vt 0.3483887 0.6767578
vt 0.3618164 0.6660156
vt 0.5 0.6767578
vt 0.605957 0.6767578
vt 0.6381836 0.6660156
vt 0.6381836 0.6875
vt 0.3942871 0.6767578
vt 0.3618164 0.6875
vt 0.3483887 0.7133789
vt 0.3349609 0.6875
vt 0.6513672 0.7133789
vt 0.6513672 0.6767578
vt 0.6650391 0.6875
vt 0.6650391 0.6875
vt 0.6513672 0.7133789
vt 0.6381836 0.6875
vt 0.605957 0.6767578
vt 0.6513672 0.6767578
vt 0.5 0.6767578
vt 0.3942871 0.6767578
vt 0.3618164 0.6875
vt 0.3483887 0.7133789
vt 0.3483887 0.6767578
vt 0.3349609 0.6875
vt 0.3942871 0.6767578
vt 0.3618164 0.6660156
vt 0.3618164 0.6875
vt 0.6381836 0.6660156
vn 0 -4.172325E-07 1
vn 0 -4.172325E-07 1
vn -0.005290985 -0.00453949 1
vn 0.005290985 -0.00453949 1
vn 0 -4.172325E-07 1
vn 0 -4.172325E-07 1
vn 0 -4.172325E-07 1
vn 0 -4.172325E-07 1
vn 0 -4.172325E-07 1
vn 0 -4.172325E-07 1
vn 0 -4.172325E-07 1
vn 0 -4.172325E-07 1
vn -0.005172729 -0.01177979 1
vn -0.015625 -4.172325E-07 1
vn -0.0078125 -4.172325E-07 1
vn -0.007701874 0.007751465 1
vn -0.005889893 0.005702972 1
vn 0 -0.01404572 1
vn 0 0.01528168 1
vn 0 0.007640839 1
vn 0 0.007640839 1
vn 0 0.01528168 1
vn 0 -0.01404572 1
vn 0 0.007640839 1
vn 0 0.01528168 1
vn 0.007701874 0.007751465 1
vn 0.005889893 0.005702972 1
vn 0.015625 -4.172325E-07 1
vn 0.0078125 -4.172325E-07 1
vn 0 -0.01404572 1
vn 0.005172729 -0.01177979 1
vn 0 4.172325E-07 -1
vn 0 4.172325E-07 -1
vn 0.005290985 -0.00453949 -1
vn 0 4.172325E-07 -1
vn 0 4.172325E-07 -1
vn 0 4.172325E-07 -1
vn 0 4.172325E-07 -1
vn 0 4.172325E-07 -1
vn 0 4.172325E-07 -1
vn 0 4.172325E-07 -1
vn 0 4.172325E-07 -1
vn -0.005290985 -0.00453949 -1
vn -0.005172729 -0.01177979 -1
vn -0.015625 4.172325E-07 -1
vn -0.0078125 4.172325E-07 -1
vn -0.007701874 0.007751465 -1
vn -0.005889893 0.005702972 -1
vn 0 -0.01404572 -1
vn 0 0.01528168 -1
vn 0 0.007640839 -1
vn 0 0.007640839 -1
vn 0 0.01528168 -1
vn 0 -0.01404572 -1
vn 0 0.007640839 -1
vn 0 0.01528168 -1
vn 0.007701874 0.007751465 -1
vn 0.005889893 0.005702972 -1
vn 0.015625 4.172325E-07 -1
vn 0.0078125 4.172325E-07 -1
vn 0 -0.01404572 -1
vn 0.005172729 -0.01177979 -1
vn -1 0 1.192093E-07
vn -1 0 2.384186E-07
vn -1 0 2.384186E-07
vn -1 0 1.192093E-07
vn -1 0 0
vn -1 0 0
vn -0.9921875 0.1258545 0
vn -0.9921875 0.1258545 0
vn -0.8857422 0.4643555 0
vn -0.8857422 0.4643555 0
vn -0.6181641 0.7861328 0
vn -0.6181641 0.7861328 0
vn -0.309082 0.9511719 0
vn -0.309082 0.9511719 0
vn -0.07611084 0.9970703 0
vn -0.07611084 0.9970703 0
vn 0.07611084 0.9970703 0
vn 0.07611084 0.9970703 0
vn 0.309082 0.9511719 0
vn 0.309082 0.9511719 0
vn 0.6181641 0.7861328 0
vn 0.6181641 0.7861328 0
vn 0.8857422 0.4643555 0
vn 0.8857422 0.4643555 0
vn 0.9921875 0.1258545 0
vn 0.9921875 0.1258545 0
vn 1 0 0
vn 1 0 0
vn 1 0 0
vn 1 0 0
vn 1 0 0
vn 1 0 0
vn 0 -1 -2.980232E-07
vn 0 -1 -2.980232E-07
vn 0 -1 -2.980232E-07
vn 0 -1 -2.980232E-07
vn 0 -1 -2.980232E-07
vn 0 -1 -2.980232E-07
vn 0 -1 -2.980232E-07
vn 0 -1 -2.980232E-07
vn 0 -1 -2.980232E-07
vn 0 -1 -2.980232E-07
vn 0 4.172325E-07 -1
vn 0 4.172325E-07 -1
vn 0 4.768372E-07 -1
vn 0 4.768372E-07 -1
vn 0 4.172325E-07 -1
vn 0 4.172325E-07 -1
vn 0 4.768372E-07 -1
vn 0 4.172325E-07 -1
vn 0 4.172325E-07 -1
vn 0 4.172325E-07 -1
vn 0 4.768372E-07 -1
vn 0 4.768372E-07 -1
vn 0 4.768372E-07 -1
vn 0 4.768372E-07 -1
vn 0 4.768372E-07 -1
vn 0 -4.172325E-07 1
vn 0 -4.172325E-07 1
vn 0 -4.172325E-07 1
vn 0 -4.172325E-07 1
vn 0 -4.172325E-07 1
vn 0 -4.172325E-07 1
vn 0 -4.172325E-07 1
vn 0 -4.172325E-07 1
vn 0 -4.172325E-07 1
vn 0 -4.172325E-07 1
vn 0 -4.172325E-07 1
vn 0 -4.172325E-07 1
vn 0 -4.172325E-07 1
vn 0 -4.172325E-07 1
vn 0 -4.172325E-07 1
g door_0
f 3/3/3 2/2/2 1/1/1
f 1/1/1 4/4/4 3/3/3
f 1/1/1 5/5/5 4/4/4
f 5/5/5 6/6/6 4/4/4
f 6/6/6 7/7/7 4/4/4
f 7/7/7 8/8/8 4/4/4
f 8/8/8 9/9/9 4/4/4
f 9/9/9 10/10/10 4/4/4
f 10/10/10 11/11/11 4/4/4
f 11/11/11 12/12/12 4/4/4
f 13/13/13 3/3/3 4/4/4
f 14/14/14 3/3/3 13/13/13
f 15/15/15 14/14/14 13/13/13
f 16/16/16 14/14/14 15/15/15
f 17/17/17 16/16/16 15/15/15
f 4/4/4 18/18/18 13/13/13
f 19/19/19 16/16/16 17/17/17
f 20/20/20 19/19/19 17/17/17
f 19/19/19 20/20/20 21/21/21
f 22/22/22 19/19/19 21/21/21
f 4/4/4 23/23/23 18/18/18
f 22/22/22 21/21/21 24/24/24
f 25/25/25 22/22/22 24/24/24
f 26/26/26 25/25/25 24/24/24
f 27/27/27 26/26/26 24/24/24
f 28/28/28 26/26/26 27/27/27
f 29/29/29 28/28/28 27/27/27
f 4/4/4 28/28/28 29/29/29
f 4/4/4 30/30/30 23/23/23
f 31/31/31 4/4/4 29/29/29
f 4/4/4 31/31/31 30/30/30
f 34/34/34 33/33/33 32/32/32
f 34/34/34 32/32/32 35/35/35
f 34/34/34 35/35/35 36/36/36
f 34/34/34 36/36/36 37/37/37
f 34/34/34 37/37/37 38/38/38
f 34/34/34 38/38/38 39/39/39
f 34/34/34 39/39/39 40/40/40
f 34/34/34 40/40/40 41/41/41
f 34/34/34 41/41/41 42/42/42
f 42/42/42 43/43/43 34/34/34
f 34/34/34 43/43/43 44/44/44
f 43/43/43 45/45/45 44/44/44
f 45/45/45 46/46/46 44/44/44
f 45/45/45 47/47/47 46/46/46
f 47/47/47 48/48/48 46/46/46
f 44/44/44 49/49/49 34/34/34
f 47/47/47 50/50/50 48/48/48
f 50/50/50 51/51/51 48/48/48
f 51/51/51 50/50/50 52/52/52
f 50/50/50 53/53/53 52/52/52
f 49/49/49 54/54/54 34/34/34
f 52/52/52 53/53/53 55/55/55
f 53/53/53 56/56/56 55/55/55
f 56/56/56 57/57/57 55/55/55
f 57/57/57 58/58/58 55/55/55
f 57/57/57 59/59/59 58/58/58
f 59/59/59 60/60/60 58/58/58
f 59/59/59 34/34/34 60/60/60
f 54/54/54 61/61/61 34/34/34
f 34/34/34 62/62/62 60/60/60
f 61/61/61 62/62/62 34/34/34
f 65/65/65 64/64/64 63/63/63
f 66/66/66 65/65/65 63/63/63
f 66/66/66 63/63/63 67/67/67
f 68/68/68 66/66/66 67/67/67
f 68/68/68 67/67/67 69/69/69
f 70/70/70 68/68/68 69/69/69
f 70/70/70 69/69/69 71/71/71
f 72/72/72 70/70/70 71/71/71
f 72/72/72 71/71/71 73/73/73
f 74/74/74 72/72/72 73/73/73
f 74/74/74 73/73/73 75/75/75
f 76/76/76 74/74/74 75/75/75
f 76/76/76 75/75/75 77/77/77
f 78/78/78 76/76/76 77/77/77
f 78/78/78 77/77/77 79/79/79
f 80/80/80 78/78/78 79/79/79
f 80/80/80 79/79/79 81/81/81
f 82/82/82 80/80/80 81/81/81
f 82/82/82 81/81/81 83/83/83
f 84/84/84 82/82/82 83/83/83
f 84/84/84 83/83/83 85/85/85
f 86/86/86 84/84/84 85/85/85
f 86/86/86 85/85/85 87/87/87
f 88/88/88 86/86/86 87/87/87
f 88/88/88 87/87/87 89/89/89
f 90/90/90 88/88/88 89/89/89
f 90/90/90 89/89/89 91/91/91
f 92/92/92 90/90/90 91/91/91
f 92/92/92 91/91/91 93/93/93
f 94/94/94 92/92/92 93/93/93
f 97/97/97 96/96/96 95/95/95
f 98/98/98 97/97/97 95/95/95
f 98/98/98 95/95/95 99/99/99
f 100/100/100 98/98/98 99/99/99
f 100/100/100 99/99/99 101/101/101
f 102/102/102 100/100/100 101/101/101
f 102/102/102 101/101/101 103/103/103
f 104/104/104 102/102/102 103/103/103
g door_1
f 107/107/107 106/106/106 105/105/105
f 55/55/55 108/108/108 105/105/105
f 108/108/108 55/55/55 60/60/60
f 55/55/55 58/58/58 60/60/60
f 52/52/52 55/55/55 105/105/105
f 105/105/105 109/109/109 52/52/52
f 52/52/52 109/109/109 110/110/110
f 52/52/52 110/110/110 111/111/111
f 111/111/111 51/51/51 52/52/52
f 112/112/112 111/111/111 110/110/110
f 110/110/110 109/109/109 54/54/54
f 112/112/112 110/110/110 54/54/54
f 54/54/54 109/109/109 113/113/113
f 113/113/113 61/61/61 54/54/54
f 60/60/60 62/62/62 61/61/61
f 113/113/113 114/114/114 61/61/61
f 112/112/112 54/54/54 49/49/49
f 60/60/60 61/61/61 115/115/115
f 114/114/114 115/115/115 61/61/61
f 115/115/115 116/116/116 60/60/60
f 114/114/114 116/116/116 115/115/115
f 49/49/49 117/117/117 112/112/112
f 118/118/118 112/112/112 117/117/117
f 119/119/119 117/117/117 49/49/49
f 119/119/119 49/49/49 44/44/44
f 44/44/44 46/46/46 119/119/119
f 119/119/119 46/46/46 51/51/51
f 46/46/46 48/48/48 51/51/51
f 15/15/15 13/13/13 18/18/18
f 18/18/18 120/120/120 15/15/15
f 18/18/18 121/121/121 120/120/120
f 122/122/122 120/120/120 121/121/121
f 121/121/121 18/18/18 23/23/23
f 23/23/23 122/122/122 121/121/121
f 23/23/23 123/123/123 122/122/122
f 124/124/124 122/122/122 123/123/123
f 23/23/23 125/125/125 123/123/123
f 126/126/126 125/125/125 23/23/23
f 23/23/23 30/30/30 126/126/126
f 30/30/30 127/127/127 126/126/126
f 30/30/30 128/128/128 127/127/127
f 129/129/129 127/127/127 128/128/128
f 128/128/128 30/30/30 31/31/31
f 31/31/31 130/130/130 128/128/128
f 31/31/31 29/29/29 130/130/130
f 29/29/29 27/27/27 130/130/130
f 27/27/27 24/24/24 130/130/130
f 123/123/123 125/125/125 21/21/21
f 21/21/21 125/125/125 131/131/131
f 131/131/131 24/24/24 21/21/21
f 131/131/131 132/132/132 24/24/24
f 133/133/133 132/132/132 131/131/131
f 123/123/123 21/21/21 20/20/20
f 20/20/20 134/134/134 123/123/123
f 20/20/20 17/17/17 134/134/134
f 17/17/17 15/15/15 134/134/134
