g flag
v -9.705286E-08 3.071967 -0.1079253
v -0.04130183 0.007326007 -0.09971164
v 1.664483E-07 0.007326007 -0.1079271
v -0.0413021 3.071967 -0.0997099
v -0.07631581 0.007326007 -0.07631603
v -0.0763161 3.071967 -0.07631429
v -0.09971138 0.007325888 -0.04130223
v -0.09971163 3.071967 -0.04130048
v -0.1079272 0.007326007 -1.80697E-07
v -0.1079274 3.071967 1.568568E-06
v -0.09971139 0.007325888 0.04130187
v -0.09971163 3.071967 0.04130362
v -0.07631584 0.007325888 0.07631571
v -0.0763161 3.071967 0.07631744
v -0.04130185 0.007325888 0.09971128
v -0.04130212 3.071967 0.09971301
v 1.200193E-07 0.007325888 0.1079268
v -1.434421E-07 3.071967 0.1079285
v 0.04130165 0.007325888 0.09971125
v 0.04130137 3.071967 0.09971299
v 0.07631575 0.007325888 0.07631573
v 0.07631547 3.071967 0.07631747
v 0.09971126 0.007325888 0.04130168
v 0.09971101 3.071967 0.04130342
v 0.1079268 0.007326007 -1.417184E-07
v 0.1079266 3.071967 1.608172E-06
v 0.09971129 0.007325888 -0.041302
v 0.09971102 3.071967 -0.04130025
v 0.07631575 0.007326007 -0.07631602
v 0.07631548 3.071967 -0.07631429
v 0.04130167 0.007326007 -0.09971156
v 0.04130141 3.071967 -0.09970982
v 1.664483E-07 0.007326007 -0.1079271
v -9.705286E-08 3.071967 -0.1079253
v 0.04130167 0.007326007 -0.09971156
v 1.664483E-07 0.007326007 -0.1079271
v -0.04130183 0.007326007 -0.09971164
v -0.07631581 0.007326007 -0.07631603
v 0.07631575 0.007326007 -0.07631602
v -0.09971138 0.007325888 -0.04130223
v 0.09971129 0.007325888 -0.041302
v -0.1079272 0.007326007 -1.80697E-07
v 0.1079268 0.007326007 -1.417184E-07
v -0.09971139 0.007325888 0.04130187
v 0.09971126 0.007325888 0.04130168
v 0.07631575 0.007325888 0.07631573
v -0.07631584 0.007325888 0.07631571
v -0.04130185 0.007325888 0.09971128
v 0.04130165 0.007325888 0.09971125
v 1.200193E-07 0.007325888 0.1079268
v -0.0413021 3.071967 -0.0997099
v -9.705286E-08 3.071967 -0.1079253
v 0.04130141 3.071967 -0.09970982
v -0.0763161 3.071967 -0.07631429
v 0.07631548 3.071967 -0.07631429
v -0.09971163 3.071967 -0.04130048
v 0.09971102 3.071967 -0.04130025
v -0.1079274 3.071967 1.568568E-06
v 0.1079266 3.071967 1.608172E-06
v -0.09971163 3.071967 0.04130362
v 0.09971101 3.071967 0.04130342
v 0.07631547 3.071967 0.07631747
v -0.0763161 3.071967 0.07631744
v -0.04130212 3.071967 0.09971301
v 0.04130137 3.071967 0.09971299
v -1.434421E-07 3.071967 0.1079285
v 1.463403 1.759894 -0.04857079
v -0.01509225 2.30177 -0.06225964
v -0.003846884 1.740348 -0.05101452
v 0.9825895 2.358246 -0.06972469
v 0.9825895 2.391382 -0.06972472
v -0.01509225 2.447858 -0.06225958
v -0.003847003 3.00928 -0.05101399
v 1.463402 2.989734 -0.0485703
v 1.463402 1.759894 0.05927559
v -0.003846884 1.740348 0.06171895
v -0.01509231 2.30177 0.07296453
v 0.9825895 2.358246 0.08042989
v 0.9825895 2.391382 0.08042987
v -0.01509231 2.447858 0.0729646
v -0.003847003 3.00928 0.06171948
v 1.463402 2.989734 0.05927607
v 1.463402 2.989734 -0.0485703
v 1.463402 2.989734 0.05927607
v -0.003847003 3.00928 0.06171948
v -0.003847003 3.00928 -0.05101399
v 1.463403 1.759894 -0.04857079
v 1.463402 1.759894 0.05927559
v 0.9825895 2.358246 0.08042989
v 0.9825895 2.358246 -0.06972469
v 0.9825895 2.391382 -0.06972472
v 0.9825895 2.391382 0.08042987
v 1.463402 2.989734 0.05927607
v 1.463402 2.989734 -0.0485703
v 0.9825895 2.358246 -0.06972469
v 0.9825895 2.358246 0.08042989
v 0.9825895 2.391382 0.08042987
v 0.9825895 2.391382 -0.06972472
v -0.003846884 1.740348 -0.05101452
v -0.003846884 1.740348 0.06171895
v 1.463402 1.759894 0.05927559
v 1.463403 1.759894 -0.04857079
v -0.01509225 2.30177 -0.06225964
v -0.003846884 1.740348 0.06171895
v -0.003846884 1.740348 -0.05101452
v -0.01509231 2.30177 0.07296453
v -0.01509225 2.447858 -0.06225958
v -0.01509231 2.447858 0.0729646
v -0.003847003 3.00928 -0.05101399
v -0.003847003 3.00928 0.06171948
vt 1 0.5
vt 0.9375 1
vt 1 1
vt 0.9375 0.5
vt 0.875 1
vt 0.875 0.5
vt 0.8125 1
vt 0.8125 0.5
vt 0.75 1
vt 0.75 0.5
vt 0.6875 1
vt 0.6875 0.5
vt 0.625 1
vt 0.625 0.5
vt 0.5625 1
vt 0.5625 0.5
vt 0.5 1
vt 0.5 0.5
vt 0.4375 1
vt 0.4375 0.5
vt 0.375 1
vt 0.375 0.5
vt 0.3125 1
vt 0.3125 0.5
vt 0.25 1
vt 0.25 0.5
vt 0.1875 1
vt 0.1875 0.5
vt 0.125 1
vt 0.125 0.5
vt 0.0625 1
vt 0.0625 0.5
vt 0 1
vt 0 0.5
vt 0.1582031 0.4716797
vt 0.25 0.4899902
vt 0.3417969 0.4716797
vt 0.4196777 0.4196777
vt 0.08032227 0.4196777
vt 0.4716797 0.3417969
vt 0.02827454 0.3417969
vt 0.4899902 0.25
vt 0.01000214 0.25
vt 0.4716797 0.1582031
vt 0.02827454 0.1582031
vt 0.08032227 0.08032227
vt 0.4196777 0.08032227
vt 0.3417969 0.02827454
vt 0.1582031 0.02827454
vt 0.25 0.01000214
vt 0.8417969 0.4716797
vt 0.75 0.4899902
vt 0.6582031 0.4716797
vt 0.9199219 0.4196777
vt 0.5800781 0.4196777
vt 0.9716797 0.3417969
vt 0.5283203 0.3417969
vt 0.9902344 0.25
vt 0.5097656 0.25
vt 0.9716797 0.1582031
vt 0.5283203 0.1582031
vt 0.5800781 0.08032227
vt 0.9199219 0.08032227
vt 0.8417969 0.02827454
vt 0.6582031 0.02827454
vt 0.75 0.01000214
vt 1 0.01540375
vt 0 0.4423828
vt 0.007606506 0
vt 0.6748047 0.4870605
vt 0.6748047 0.5131836
vt 0 0.5576172
vt 0.007606506 1
vt 1 0.984375
vt 1 0.01540375
vt 0.007606506 0
vt 0 0.4423828
vt 0.6748047 0.4870605
vt 0.6748047 0.5131836
vt 0 0.5576172
vt 0.007606506 1
vt 1 0.984375
vt 1 0.984375
vt 1 0.984375
vt 0.007606506 1
vt 0.007606506 1
vt 1 0.01540375
vt 1 0.01540375
vt 0.6748047 0.4870605
vt 0.6748047 0.4870605
vt 0.6748047 0.5131836
vt 0.6748047 0.5131836
vt 1 0.984375
vt 1 0.984375
vt 0.6748047 0.4870605
vt 0.6748047 0.4870605
vt 0.6748047 0.5131836
vt 0.6748047 0.5131836
vt 0.007606506 0
vt 0.007606506 0
vt 1 0.01540375
vt 1 0.01540375
vt 0 0.4423828
vt 0.007606506 0
vt 0.007606506 0
vt 0 0.4423828
vt 0 0.5576172
vt 0 0.5576172
vt 0.007606506 1
vt 0.007606506 1
vn 2.086163E-06 5.960464E-07 -1
vn -0.3825684 4.768372E-07 -0.9238281
vn 2.145767E-06 5.960464E-07 -1
vn -0.3825684 4.768372E-07 -0.9238281
vn -0.7070313 3.576279E-07 -0.7070313
vn -0.7070313 3.576279E-07 -0.7070313
vn -0.9238281 0 -0.3825684
vn -0.9238281 0 -0.3825684
vn -1 0 0
vn -1 0 0
vn -0.9238281 -2.980232E-07 0.3825684
vn -0.9238281 -2.980232E-07 0.3825684
vn -0.7070313 -4.768372E-07 0.7070313
vn -0.7070313 -4.768372E-07 0.7070313
vn -0.3825684 -5.364418E-07 0.9238281
vn -0.3825684 -5.364418E-07 0.9238281
vn 1.370907E-06 -5.960464E-07 1
vn 1.370907E-06 -5.960464E-07 1
vn 0.3825684 -4.768372E-07 0.9238281
vn 0.3825684 -4.768372E-07 0.9238281
vn 0.7070313 -3.576279E-07 0.7070313
vn 0.7070313 -3.576279E-07 0.7070313
vn 0.9238281 0 0.3825684
vn 0.9238281 0 0.3825684
vn 1 0 2.384186E-07
vn 1 0 3.576279E-07
vn 0.9238281 2.980232E-07 -0.3825684
vn 0.9238281 2.980232E-07 -0.3825684
vn 0.7070313 4.768372E-07 -0.7070313
vn 0.7070313 4.768372E-07 -0.7070313
vn 0.3825684 5.364418E-07 -0.9238281
vn 0.3825684 5.364418E-07 -0.9238281
vn 2.145767E-06 5.960464E-07 -1
vn 2.086163E-06 5.960464E-07 -1
vn 0 -1 -5.960464E-07
vn 0 -1 -5.960464E-07
vn 0 -1 -5.960464E-07
vn 0 -1 -5.960464E-07
vn 0 -1 -5.960464E-07
vn 0 -1 -5.960464E-07
vn 0 -1 -5.960464E-07
vn 0 -1 -5.960464E-07
vn 0 -1 -5.960464E-07
vn 0 -1 -5.960464E-07
vn 0 -1 -5.960464E-07
vn 0 -1 -5.960464E-07
vn 0 -1 -5.960464E-07
vn 0 -1 -5.960464E-07
vn 0 -1 -5.960464E-07
vn 0 -1 -5.960464E-07
vn 2.920628E-06 1 0
vn 2.920628E-06 1 0
vn 2.920628E-06 1 0
vn 2.920628E-06 1 0
vn 2.920628E-06 1 0
vn 2.920628E-06 1 0
vn 2.920628E-06 1 0
vn 2.920628E-06 1 0
vn 2.920628E-06 1 0
vn 2.920628E-06 1 0
vn 2.920628E-06 1 0
vn 2.920628E-06 1 0
vn 2.920628E-06 1 0
vn 2.920628E-06 1 0
vn 2.920628E-06 1 0
vn 2.920628E-06 1 0
vn -0.001159668 -0.02841187 -0.9995117
vn -0.004226685 -0.01463318 -1
vn -0.001159668 -0.02841187 -0.9995117
vn -0.003854752 -0.01631165 -1
vn -0.003854752 0.01631165 -1
vn -0.004226685 0.01463318 -1
vn -0.001159668 0.02841187 -0.9995117
vn -0.001159668 0.02841187 -0.9995117
vn -0.001159668 -0.02841187 0.9995117
vn -0.001159668 -0.02841187 0.9995117
vn -0.004226685 -0.01463318 1
vn -0.003854752 -0.01631165 1
vn -0.003854752 0.01631165 1
vn -0.004226685 0.01463318 1
vn -0.001159668 0.02841187 0.9995117
vn -0.001159668 0.02841187 0.9995117
vn 0.01332092 1 0
vn 0.01332092 1 0
vn 0.01332092 1 0
vn 0.01332092 1 0
vn 0.7792969 0.6264648 2.980232E-06
vn 0.7792969 0.6264648 2.980232E-06
vn 0.7792969 0.6264648 2.980232E-06
vn 0.7792969 0.6264648 2.980232E-06
vn 0.7792969 -0.6264648 -5.960464E-07
vn 0.7792969 -0.6264648 -5.960464E-07
vn 0.7792969 -0.6264648 -5.960464E-07
vn 0.7792969 -0.6264648 -5.960464E-07
vn 1 8.940697E-07 0
vn 1 8.940697E-07 0
vn 1 8.940697E-07 0
vn 1 8.940697E-07 0
vn 0.01332092 -1 -1.072884E-06
vn 0.01332092 -1 -1.072884E-06
vn 0.01332092 -1 -1.072884E-06
vn 0.01332092 -1 -1.072884E-06
vn -1 -0.00994873 -3.576279E-07
vn -1 -0.02001953 -2.384186E-07
vn -1 -0.02001953 -2.384186E-07
vn -1 -0.00994873 -3.576279E-07
vn -1 0.00994873 -3.576279E-07
vn -1 0.00994873 -3.576279E-07
vn -1 0.02001953 -2.384186E-07
vn -1 0.02001953 -2.384186E-07
g flag_0
f 3/3/3 2/2/2 1/1/1
f 2/2/2 4/4/4 1/1/1
f 2/2/2 5/5/5 4/4/4
f 5/5/5 6/6/6 4/4/4
f 5/5/5 7/7/7 6/6/6
f 7/7/7 8/8/8 6/6/6
f 7/7/7 9/9/9 8/8/8
f 9/9/9 10/10/10 8/8/8
f 9/9/9 11/11/11 10/10/10
f 11/11/11 12/12/12 10/10/10
f 11/11/11 13/13/13 12/12/12
f 13/13/13 14/14/14 12/12/12
f 13/13/13 15/15/15 14/14/14
f 15/15/15 16/16/16 14/14/14
f 15/15/15 17/17/17 16/16/16
f 17/17/17 18/18/18 16/16/16
f 17/17/17 19/19/19 18/18/18
f 19/19/19 20/20/20 18/18/18
f 19/19/19 21/21/21 20/20/20
f 21/21/21 22/22/22 20/20/20
f 21/21/21 23/23/23 22/22/22
f 23/23/23 24/24/24 22/22/22
f 23/23/23 25/25/25 24/24/24
f 25/25/25 26/26/26 24/24/24
f 25/25/25 27/27/27 26/26/26
f 27/27/27 28/28/28 26/26/26
f 27/27/27 29/29/29 28/28/28
f 29/29/29 30/30/30 28/28/28
f 29/29/29 31/31/31 30/30/30
f 31/31/31 32/32/32 30/30/30
f 31/31/31 33/33/33 32/32/32
f 33/33/33 34/34/34 32/32/32
f 37/37/37 36/36/36 35/35/35
f 35/35/35 38/38/38 37/37/37
f 35/35/35 39/39/39 38/38/38
f 39/39/39 40/40/40 38/38/38
f 39/39/39 41/41/41 40/40/40
f 41/41/41 42/42/42 40/40/40
f 41/41/41 43/43/43 42/42/42
f 43/43/43 44/44/44 42/42/42
f 43/43/43 45/45/45 44/44/44
f 45/45/45 46/46/46 44/44/44
f 46/46/46 47/47/47 44/44/44
f 46/46/46 48/48/48 47/47/47
f 46/46/46 49/49/49 48/48/48
f 49/49/49 50/50/50 48/48/48
f 53/53/53 52/52/52 51/51/51
f 51/51/51 54/54/54 53/53/53
f 54/54/54 55/55/55 53/53/53
f 54/54/54 56/56/56 55/55/55
f 56/56/56 57/57/57 55/55/55
f 56/56/56 58/58/58 57/57/57
f 58/58/58 59/59/59 57/57/57
f 58/58/58 60/60/60 59/59/59
f 60/60/60 61/61/61 59/59/59
f 60/60/60 62/62/62 61/61/61
f 60/60/60 63/63/63 62/62/62
f 63/63/63 64/64/64 62/62/62
f 64/64/64 65/65/65 62/62/62
f 64/64/64 66/66/66 65/65/65
g flag_1
f 69/69/69 68/68/68 67/67/67
f 68/68/68 70/70/70 67/67/67
f 70/70/70 68/68/68 71/71/71
f 68/68/68 72/72/72 71/71/71
f 72/72/72 73/73/73 71/71/71
f 73/73/73 74/74/74 71/71/71
f 77/77/77 76/76/76 75/75/75
f 78/78/78 77/77/77 75/75/75
f 77/77/77 78/78/78 79/79/79
f 80/80/80 77/77/77 79/79/79
f 81/81/81 80/80/80 79/79/79
f 82/82/82 81/81/81 79/79/79
f 85/85/85 84/84/84 83/83/83
f 86/86/86 85/85/85 83/83/83
f 89/89/89 88/88/88 87/87/87
f 90/90/90 89/89/89 87/87/87
f 93/93/93 92/92/92 91/91/91
f 94/94/94 93/93/93 91/91/91
f 97/97/97 96/96/96 95/95/95
f 98/98/98 97/97/97 95/95/95
f 101/101/101 100/100/100 99/99/99
f 102/102/102 101/101/101 99/99/99
f 105/105/105 104/104/104 103/103/103
f 104/104/104 106/106/106 103/103/103
f 103/103/103 106/106/106 107/107/107
f 106/106/106 108/108/108 107/107/107
f 107/107/107 108/108/108 109/109/109
f 108/108/108 110/110/110 109/109/109
