g Hexagonia.006
v -0.1067372 0.01011435 -0.0297428
v -0.1015723 -0.000580363 -0.02360166
v -0.09695853 0.009609178 -0.03884682
v -0.04275994 0.07829658 0.03519085
v -0.03298062 0.07779172 0.02608598
v -0.03759408 0.06760146 0.04133114
v -0.09222226 0.08891245 -0.02433427
v -0.08470785 0.09692106 -0.01670736
v -0.1020016 0.08941732 -0.01522949
v -0.04824631 -0.00214199 0.02794741
v -0.05802463 -0.001637548 0.03705153
v -0.04073089 0.005866196 0.03557432
v -0.1077733 0.04626539 0.04270618
v -0.1152877 0.03825678 0.03507928
v -0.1129382 0.05696011 0.03656505
v -0.02451928 0.0419667 -0.0348092
v -0.02968414 0.05266141 -0.04094958
v -0.03203369 0.03395808 -0.04243535
v 0.03573462 0.01148412 -0.02974281
v 0.04090016 0.0007896945 -0.02360167
v 0.04551363 0.01097996 -0.03884683
v 0.09971252 0.07966664 0.03519084
v 0.1094912 0.07916146 0.02608597
v 0.1048781 0.06897222 0.04133113
v 0.05024963 0.09028222 -0.02433427
v 0.05776404 0.09829084 -0.01670737
v 0.040471 0.09078741 -0.0152295
v 0.09422627 -0.0007718801 0.02794741
v 0.08444764 -0.0002667084 0.03705152
v 0.10174 0.007236436 0.03557431
v 0.03469851 0.04763529 0.04270617
v 0.02718479 0.03962698 0.03507927
v 0.02953434 0.05833031 0.03656504
v 0.1179526 0.0433366 -0.0348092
v 0.1127877 0.05403132 -0.04094959
v 0.1104382 0.03532799 -0.04243536
v -0.1015723 -0.000580363 -0.02360166
v -0.03759408 0.06760146 0.04133114
v -0.03298062 0.07779172 0.02608598
v -0.09695853 0.009609178 -0.03884682
v -0.1067372 0.01011435 -0.0297428
v -0.04275994 0.07829658 0.03519085
v -0.03759408 0.06760146 0.04133114
v -0.1015723 -0.000580363 -0.02360166
v -0.09695853 0.009609178 -0.03884682
v -0.03298062 0.07779172 0.02608598
v -0.04275994 0.07829658 0.03519085
v -0.1067372 0.01011435 -0.0297428
v -0.08470785 0.09692106 -0.01670736
v -0.04073089 0.005866196 0.03557432
v -0.05802463 -0.001637548 0.03705153
v -0.1020016 0.08941732 -0.01522949
v -0.09222226 0.08891245 -0.02433427
v -0.04824631 -0.00214199 0.02794741
v -0.04073089 0.005866196 0.03557432
v -0.08470785 0.09692106 -0.01670736
v -0.1020016 0.08941732 -0.01522949
v -0.05802463 -0.001637548 0.03705153
v -0.04824631 -0.00214199 0.02794741
v -0.09222226 0.08891245 -0.02433427
v -0.1152877 0.03825678 0.03507928
v -0.03203369 0.03395808 -0.04243535
v -0.02968414 0.05266141 -0.04094958
v -0.1129382 0.05696011 0.03656505
v -0.1077733 0.04626539 0.04270618
v -0.02451928 0.0419667 -0.0348092
v -0.03203369 0.03395808 -0.04243535
v -0.1152877 0.03825678 0.03507928
v -0.1129382 0.05696011 0.03656505
v -0.02968414 0.05266141 -0.04094958
v -0.02451928 0.0419667 -0.0348092
v -0.1077733 0.04626539 0.04270618
v 0.04090016 0.0007896945 -0.02360167
v 0.1048781 0.06897222 0.04133113
v 0.1094912 0.07916146 0.02608597
v 0.04551363 0.01097996 -0.03884683
v 0.03573462 0.01148412 -0.02974281
v 0.09971252 0.07966664 0.03519084
v 0.1048781 0.06897222 0.04133113
v 0.04090016 0.0007896945 -0.02360167
v 0.04551363 0.01097996 -0.03884683
v 0.1094912 0.07916146 0.02608597
v 0.09971252 0.07966664 0.03519084
v 0.03573462 0.01148412 -0.02974281
v 0.05776404 0.09829084 -0.01670737
v 0.10174 0.007236436 0.03557431
v 0.08444764 -0.0002667084 0.03705152
v 0.040471 0.09078741 -0.0152295
v 0.05024963 0.09028222 -0.02433427
v 0.09422627 -0.0007718801 0.02794741
v 0.10174 0.007236436 0.03557431
v 0.05776404 0.09829084 -0.01670737
v 0.040471 0.09078741 -0.0152295
v 0.08444764 -0.0002667084 0.03705152
v 0.09422627 -0.0007718801 0.02794741
v 0.05024963 0.09028222 -0.02433427
v 0.02718479 0.03962698 0.03507927
v 0.1104382 0.03532799 -0.04243536
v 0.1127877 0.05403132 -0.04094959
v 0.02953434 0.05833031 0.03656504
v 0.03469851 0.04763529 0.04270617
v 0.1179526 0.0433366 -0.0348092
v 0.1104382 0.03532799 -0.04243536
v 0.02718479 0.03962698 0.03507927
v 0.02953434 0.05833031 0.03656504
v 0.1127877 0.05403132 -0.04094959
v 0.1179526 0.0433366 -0.0348092
v 0.03469851 0.04763529 0.04270617
vt 0.6069336 0.7963867
vt 0.6040039 0.7949219
vt 0.605957 0.7983398
vt 0.07751465 0.980957
vt 0.07855225 0.9829102
vt 0.08026123 0.9794922
vt 0.9785156 0.5478516
vt 0.9799805 0.550293
vt 0.9804688 0.5458984
vt 0.9804688 0.4970703
vt 0.9785156 0.4951172
vt 0.9785156 0.4992676
vt 0.03204346 0.7441406
vt 0.03089905 0.7460938
vt 0.03521729 0.7456055
vt 0.9047852 0.09588623
vt 0.9023438 0.09729004
vt 0.9057617 0.09765625
vt 0.5644531 0.7963867
vt 0.5615234 0.7949219
vt 0.5634766 0.7983398
vt 0.3530273 0.980957
vt 0.3540039 0.9829102
vt 0.355957 0.9794922
vt 0.9785156 0.5415039
vt 0.9799805 0.5439453
vt 0.9804688 0.5395508
vt 0.9804688 0.5224609
vt 0.9785156 0.5205078
vt 0.9785156 0.5244141
vt 0.01792908 0.7441406
vt 0.01675415 0.7460938
vt 0.02108765 0.7456055
vt 0.5410156 0.796875
vt 0.5380859 0.7983398
vt 0.5419922 0.7983398
vt 0.05621338 0.09362793
vt 0.04220581 0.1121826
vt 0.04550171 0.1139526
vt 0.05950928 0.09539795
vt 0.6069336 0.7963867
vt 0.6162109 0.7802734
vt 0.6132813 0.7788086
vt 0.6040039 0.7949219
vt 0.4838867 0.4250488
vt 0.4975586 0.4433594
vt 0.4995117 0.4414063
vt 0.4858398 0.4233398
vt 0.3999023 0.8598633
vt 0.3989258 0.8813477
vt 0.4030762 0.8813477
vt 0.4038086 0.8598633
vt 0.8979492 0.1084595
vt 0.8847656 0.08349609
vt 0.8828125 0.08459473
vt 0.8959961 0.1094971
vt 0.3793945 0.4643555
vt 0.3671875 0.4875488
vt 0.3693848 0.4885254
vt 0.3813477 0.465332
vt 0.03089905 0.7460938
vt 0.02101135 0.7670898
vt 0.02532959 0.7666016
vt 0.03521729 0.7456055
vt 0.7895508 0.7314453
vt 0.7734375 0.7475586
vt 0.7758789 0.7495117
vt 0.7915039 0.7329102
vt 0.8935547 0.07940674
vt 0.9023438 0.09729004
vt 0.9047852 0.09588623
vt 0.8964844 0.07794189
vt 0.5332031 0.08349609
vt 0.519043 0.1020508
vt 0.5224609 0.1038208
vt 0.5366211 0.08526611
vt 0.5644531 0.7963867
vt 0.5737305 0.7802734
vt 0.5708008 0.7788086
vt 0.5615234 0.7949219
vt 0.05633545 0.7460938
vt 0.07012939 0.7641602
vt 0.07208252 0.762207
vt 0.05825806 0.7441406
vt 0.3151855 0.5888672
vt 0.314209 0.6103516
vt 0.3183594 0.6103516
vt 0.3190918 0.5888672
vt 0.480957 0.4382324
vt 0.4680176 0.4133301
vt 0.4660645 0.4143066
vt 0.4790039 0.439209
vt 0.09307861 0.06213379
vt 0.08105469 0.08538818
vt 0.08319092 0.08642578
vt 0.09521484 0.06311035
vt 0.01675415 0.7460938
vt 0.006874084 0.7670898
vt 0.01119995 0.7666016
vt 0.02108765 0.7456055
vt 0.3618164 0.4748535
vt 0.3459473 0.4912109
vt 0.3481445 0.4929199
vt 0.3640137 0.4763184
vt 0.5297852 0.7802734
vt 0.5380859 0.7983398
vt 0.5410156 0.796875
vt 0.5327148 0.7788086
vn -0.5620117 -0.5991211 -0.5703125
vn -0.5620117 -0.5991211 -0.5703125
vn -0.5620117 -0.5991211 -0.5703125
vn 0.5620117 0.5991211 0.5703125
vn 0.5620117 0.5991211 0.5703125
vn 0.5620117 0.5991211 0.5703125
vn -0.3862305 0.7998047 -0.4592285
vn -0.3862305 0.7998047 -0.4592285
vn -0.3862305 0.7998047 -0.4592285
vn 0.3862305 -0.7998047 0.4592285
vn 0.3862305 -0.7998047 0.4592285
vn 0.3862305 -0.7998047 0.4592285
vn -0.7314453 0.03778076 0.6811523
vn -0.7314453 0.03778076 0.6811523
vn -0.7314453 0.03778076 0.6811523
vn 0.7314453 -0.03778076 -0.6811523
vn 0.7314453 -0.03778076 -0.6811523
vn 0.7314453 -0.03778076 -0.6811523
vn -0.5620117 -0.5991211 -0.5703125
vn -0.5620117 -0.5991211 -0.5703125
vn -0.5620117 -0.5991211 -0.5703125
vn 0.5620117 0.5991211 0.5703125
vn 0.5620117 0.5991211 0.5703125
vn 0.5620117 0.5991211 0.5703125
vn -0.3862305 0.7998047 -0.4592285
vn -0.3862305 0.7998047 -0.4592285
vn -0.3862305 0.7998047 -0.4592285
vn 0.3862305 -0.7998047 0.4592285
vn 0.3862305 -0.7998047 0.4592285
vn 0.3862305 -0.7998047 0.4592285
vn -0.7314453 0.03778076 0.6806641
vn -0.7314453 0.03778076 0.6806641
vn -0.7314453 0.03778076 0.6806641
vn 0.7314453 -0.03778076 -0.6811523
vn 0.7314453 -0.03778076 -0.6811523
vn 0.7314453 -0.03778076 -0.6811523
vn 0.7905273 -0.5922852 -0.1567383
vn 0.7905273 -0.5922852 -0.1567383
vn 0.7905273 -0.5922852 -0.1567383
vn 0.7905273 -0.5922852 -0.1567383
vn -0.7314453 0.03775024 0.6811523
vn -0.7314453 0.03775024 0.6811523
vn -0.7314453 0.03775024 0.6811523
vn -0.7314453 0.03775024 0.6811523
vn -0.3862305 0.7998047 -0.4592285
vn -0.3862305 0.7998047 -0.4592285
vn -0.3862305 0.7998047 -0.4592285
vn -0.3862305 0.7998047 -0.4592285
vn -0.119751 0.4501953 0.8847656
vn -0.119751 0.4501953 0.8847656
vn -0.119751 0.4501953 0.8847656
vn -0.119751 0.4501953 0.8847656
vn 0.7314453 -0.03778076 -0.6811523
vn 0.7314453 -0.03778076 -0.6811523
vn 0.7314453 -0.03778076 -0.6811523
vn 0.7314453 -0.03778076 -0.6811523
vn -0.5620117 -0.5991211 -0.5703125
vn -0.5620117 -0.5991211 -0.5703125
vn -0.5620117 -0.5991211 -0.5703125
vn -0.5620117 -0.5991211 -0.5703125
vn -0.6704102 0.1420898 -0.7280273
vn -0.6704102 0.1420898 -0.7280273
vn -0.6704102 0.1420898 -0.7280273
vn -0.6704102 0.1420898 -0.7280273
vn 0.3862305 -0.7998047 0.4592285
vn 0.3862305 -0.7998047 0.4592285
vn 0.3862305 -0.7998047 0.4592285
vn 0.3862305 -0.7998047 0.4592285
vn 0.5620117 0.5991211 0.5703125
vn 0.5620117 0.5991211 0.5703125
vn 0.5620117 0.5991211 0.5703125
vn 0.5620117 0.5991211 0.5703125
vn 0.7905273 -0.5922852 -0.1567383
vn 0.7905273 -0.5922852 -0.1567383
vn 0.7905273 -0.5922852 -0.1567383
vn 0.7905273 -0.5922852 -0.1567383
vn -0.7314453 0.03775024 0.6811523
vn -0.7314453 0.03775024 0.6811523
vn -0.7314453 0.03775024 0.6811523
vn -0.7314453 0.03775024 0.6811523
vn -0.3862305 0.7998047 -0.4592285
vn -0.3862305 0.7998047 -0.4592285
vn -0.3862305 0.7998047 -0.4592285
vn -0.3862305 0.7998047 -0.4592285
vn -0.119751 0.4501953 0.8847656
vn -0.119751 0.4501953 0.8847656
vn -0.119751 0.4501953 0.8847656
vn -0.119751 0.4501953 0.8847656
vn 0.7314453 -0.03775024 -0.6811523
vn 0.7314453 -0.03775024 -0.6811523
vn 0.7314453 -0.03775024 -0.6811523
vn 0.7314453 -0.03775024 -0.6811523
vn -0.5620117 -0.5991211 -0.5703125
vn -0.5620117 -0.5991211 -0.5703125
vn -0.5620117 -0.5991211 -0.5703125
vn -0.5620117 -0.5991211 -0.5703125
vn -0.6704102 0.1420898 -0.7280273
vn -0.6704102 0.1420898 -0.7280273
vn -0.6704102 0.1420898 -0.7280273
vn -0.6704102 0.1420898 -0.7280273
vn 0.3862305 -0.7998047 0.4592285
vn 0.3862305 -0.7998047 0.4592285
vn 0.3862305 -0.7998047 0.4592285
vn 0.3862305 -0.7998047 0.4592285
vn 0.5620117 0.5991211 0.5703125
vn 0.5620117 0.5991211 0.5703125
vn 0.5620117 0.5991211 0.5703125
vn 0.5620117 0.5991211 0.5703125
g Hexagonia.006_0
f 3/3/3 2/2/2 1/1/1
f 6/6/6 5/5/5 4/4/4
f 9/9/9 8/8/8 7/7/7
f 12/12/12 11/11/11 10/10/10
f 15/15/15 14/14/14 13/13/13
f 18/18/18 17/17/17 16/16/16
f 21/21/21 20/20/20 19/19/19
f 24/24/24 23/23/23 22/22/22
f 27/27/27 26/26/26 25/25/25
f 30/30/30 29/29/29 28/28/28
f 33/33/33 32/32/32 31/31/31
f 36/36/36 35/35/35 34/34/34
f 39/39/39 38/38/38 37/37/37
f 40/40/40 39/39/39 37/37/37
f 43/43/43 42/42/42 41/41/41
f 44/44/44 43/43/43 41/41/41
f 47/47/47 46/46/46 45/45/45
f 48/48/48 47/47/47 45/45/45
f 51/51/51 50/50/50 49/49/49
f 52/52/52 51/51/51 49/49/49
f 55/55/55 54/54/54 53/53/53
f 56/56/56 55/55/55 53/53/53
f 59/59/59 58/58/58 57/57/57
f 60/60/60 59/59/59 57/57/57
f 63/63/63 62/62/62 61/61/61
f 64/64/64 63/63/63 61/61/61
f 67/67/67 66/66/66 65/65/65
f 68/68/68 67/67/67 65/65/65
f 71/71/71 70/70/70 69/69/69
f 72/72/72 71/71/71 69/69/69
f 75/75/75 74/74/74 73/73/73
f 76/76/76 75/75/75 73/73/73
f 79/79/79 78/78/78 77/77/77
f 80/80/80 79/79/79 77/77/77
f 83/83/83 82/82/82 81/81/81
f 84/84/84 83/83/83 81/81/81
f 87/87/87 86/86/86 85/85/85
f 88/88/88 87/87/87 85/85/85
f 91/91/91 90/90/90 89/89/89
f 92/92/92 91/91/91 89/89/89
f 95/95/95 94/94/94 93/93/93
f 96/96/96 95/95/95 93/93/93
f 99/99/99 98/98/98 97/97/97
f 100/100/100 99/99/99 97/97/97
f 103/103/103 102/102/102 101/101/101
f 104/104/104 103/103/103 101/101/101
f 107/107/107 106/106/106 105/105/105
f 108/108/108 107/107/107 105/105/105
