g Ice_cell.006
v 1.085275 0.5701946 0.4066988
v 1.090812 0.5696291 0.2006659
v 1.100227 0.5684725 -0.1604378
v -0.2889243 0.5604906 0.2708246
v 0.4103211 0.5395684 0.8891504
v -0.5446433 0.3176458 0.4013198
v 1.077793 0.5707234 0.6329368
v 1.085275 0.5701946 0.4066988
v 0.4057063 -0.4183335 0.7115913
v 0.685064 0.5512927 0.7844588
v 1.077793 0.5707234 0.6329368
v 0.4057063 -0.4183335 0.7115913
v -0.5047431 -0.1921067 0.8856196
v 0.4057063 -0.4183335 0.7115913
v 0.1389592 -0.8208762 0.4831552
v 0.1389592 -0.8208762 0.4831552
v -0.4959615 -0.3042745 0.8184682
v -0.5047431 -0.1921067 0.8856196
v 0.1875854 -0.7862033 -0.3849712
v 0.121462 -0.8839275 -0.3927358
v 0.1389592 -0.8208762 0.4831552
v 0.4057063 -0.4183335 0.7115913
v 0.4057063 -0.4183335 0.7115913
v 0.4193732 -0.4440229 -0.3706047
v 0.1875854 -0.7862033 -0.3849712
v 0.4489438 -0.4003602 -0.3689576
v 1.085275 0.5701946 0.4066988
v 0.4652664 -0.376336 -0.3699026
v 0.9157033 0.286128 -0.4080622
v 1.03355 0.4606481 -0.3891907
v 1.082361 0.5353096 -0.3242937
v 1.100227 0.5684725 -0.1604378
v -0.5243561 0.4738235 0.1960629
v -0.4556685 0.5400726 0.159567
v -0.2889243 0.5604906 0.2708246
v -0.5446433 0.3176458 0.4013198
v 0.4103211 0.5395684 0.8891504
v -0.5150701 -0.06012952 0.9640814
v -0.5446433 0.3176458 0.4013198
v -0.1843628 0.08545104 1.035481
v 0.121462 -0.8839275 -0.3927358
v -0.231326 -0.8494205 -0.3994988
v -0.2804363 -0.8439673 -0.3916569
v 0.1389592 -0.8208762 0.4831552
v -0.4543357 -0.8249478 -0.3678168
v -0.4640273 -0.819952 -0.3132769
v 0.1389592 -0.8208762 0.4831552
v -0.4640273 -0.819952 -0.3132769
v -0.4940421 -0.8039439 -0.143061
v -0.4879698 -0.7517212 0.5516781
v 0.4344606 0.5388209 0.8796193
v 0.685064 0.5512927 0.7844588
v 0.4057063 -0.4183335 0.7115913
v 0.4103211 0.5395684 0.8891504
v -0.1843628 0.08545104 1.035481
v -0.1843628 0.08545104 1.035481
v 0.4057063 -0.4183335 0.7115913
v -0.5047431 -0.1921067 0.8856196
v -0.5150701 -0.06012952 0.9640814
v 0.1389592 -0.8208762 0.4831552
v -0.4821408 -0.7016174 0.5813023
v -0.4959615 -0.3042745 0.8184682
v -0.4879698 -0.7517212 0.5516781
v -0.2889243 0.5604906 0.2708246
v -0.4556685 0.5400726 0.159567
v -0.4556665 0.5400758 -0.1818613
v -0.2889217 0.5604946 -0.1763134
v -0.4440873 0.5223568 -0.335948
v -0.2885233 0.5288771 -0.3413486
v 0.4304743 0.5021728 -0.3229038
v 0.4307755 0.5339051 -0.1590407
v 1.082361 0.5353096 -0.3242937
v 1.100227 0.5684725 -0.1604378
v 1.090812 0.5696291 0.2006659
v 0.4344606 0.5388209 0.8796193
v 0.4103211 0.5395684 0.8891504
v 1.085275 0.5701946 0.4066988
v 1.077793 0.5707234 0.6329368
v 0.685064 0.5512927 0.7844588
v -0.4407047 -0.7065203 -0.3612745
v -0.4543357 -0.8249478 -0.3678168
v -0.2804363 -0.8439673 -0.3916569
v -0.231326 -0.8494205 -0.3994988
v -0.2185732 -0.7377596 -0.3922139
v -0.2297533 -0.335693 -0.3887942
v 0.121462 -0.8839275 -0.3927358
v 0.1875854 -0.7862033 -0.3849712
v 0.4193732 -0.4440229 -0.3706047
v -0.4538054 -0.3082259 -0.3608597
v 0.4489438 -0.4003602 -0.3689576
v -0.2734378 0.2984451 -0.4270415
v -0.501147 0.3158569 -0.3962286
v -0.5015317 0.4586175 -0.394803
v 0.440071 0.2664585 -0.4062418
v 0.4652664 -0.376336 -0.3699026
v 0.9157033 0.286128 -0.4080622
v -0.2851994 0.4583675 -0.4070474
v -0.4440873 0.5223568 -0.335948
v -0.2885233 0.5288771 -0.3413486
v 0.4322848 0.4308732 -0.3877046
v 1.03355 0.4606481 -0.3891907
v 0.4304743 0.5021728 -0.3229038
v 1.082361 0.5353096 -0.3242937
v -0.4640273 -0.819952 -0.3132769
v -0.4543357 -0.8249478 -0.3678168
v -0.4407047 -0.7065203 -0.3612745
v -0.4940421 -0.8039439 -0.143061
v -0.482142 -0.7016191 -0.1377947
v -0.4879698 -0.7517212 0.5516781
v -0.4821408 -0.7016174 0.5813023
v -0.4538054 -0.3082259 -0.3608597
v -0.4959615 -0.3042745 0.8184682
v -0.4959574 -0.3042637 -0.1381261
v -0.501147 0.3158569 -0.3962286
v -0.5446519 0.3176349 -0.172007
v -0.5047431 -0.1921067 0.8856196
v -0.5150701 -0.06012952 0.9640814
v -0.5446433 0.3176458 0.4013198
v -0.5243561 0.4738235 0.1960629
v -0.5015317 0.4586175 -0.394803
v -0.5243582 0.4738142 -0.1806609
v -0.4556685 0.5400726 0.159567
v -0.4556665 0.5400758 -0.1818613
v -0.4440873 0.5223568 -0.335948
vt 0.192627 0
vt 0.1385498 0.1385498
vt 0.625 0.1386719
vt 0.6591797 0.496582
vt 0.6308594 0
vt 0.6943359 0.2827148
vt 0.03140259 0
vt 1 0.8071289
vt 1 0
vt 1 0.2075195
vt 0.03140259 0.03140259
vt 1 1
vt 0.178833 0.178833
vt 1 1
vt 1 0
vt 1 0
vt 0.3745117 0.1864014
vt 0.178833 0.178833
vt 0.9799805 0.8129883
vt 1 0.7880859
vt 1 0
vt 0 0
vt 0 0
vt 1 0.7324219
vt 0.9799805 0.8129883
vt 0.9760742 0.706543
vt 0.192627 0
vt 0.9609375 0.6928711
vt 0.5332031 0.3039551
vt 0.4504395 0.2015381
vt 0.4741211 0.1578369
vt 0.625 0.1386719
vt 0.6547852 0.08825684
vt 0.6308594 0.5922852
vt 0.6591797 0.496582
vt 0.6943359 0.2827148
vt 0.6308594 0
vt 0.6376953 0.6376953
vt 0.6943359 0.2827148
vt 0 0
vt 0.7880859 0.7880859
vt 0.7939453 0.3637695
vt 0.7866211 0.2966309
vt 0 0
vt 0.7646484 0.06225586
vt 0.7158203 0
vt 0 0
vt 0.7158203 0.7158203
vt 0.7519531 0.5771484
vt 0.7460938 0
vt 0.355957 0.02009583
vt 0.2075195 0.2075195
vt 1 1
vt 0.3691406 0
vt 1 0
vt 0 0
vt 1 1
vt 1 0.178833
vt 0.6376953 0
vt 1 0
vt 0.2233887 0.1174927
vt 0.3745117 0.1864014
vt 0.2536621 0
vt 0.07702637 0.753418
vt 0.01957703 0.7919922
vt 0.01957703 0.9116211
vt 0.07702637 0.909668
vt 0.02357483 0.9658203
vt 0.07720947 0.9672852
vt 0.3249512 0.9609375
vt 0.3251953 0.9038086
vt 0.5498047 0.9614258
vt 0.5556641 0.9042969
vt 0.5527344 0.777832
vt 0.326416 0.5400391
vt 0.3181152 0.5366211
vt 0.5507813 0.7055664
vt 0.5478516 0.6264648
vt 0.4128418 0.5737305
vt 0.03723145 0.5341797
vt 0.03268433 0.4936523
vt 0.09075928 0.4870605
vt 0.1071777 0.4851074
vt 0.1114502 0.5234375
vt 0.1077271 0.6611328
vt 0.2249756 0.4733887
vt 0.2470703 0.5068359
vt 0.3244629 0.6240234
vt 0.03286743 0.6704102
vt 0.3344727 0.6386719
vt 0.09307861 0.8779297
vt 0.01704407 0.8837891
vt 0.01690674 0.9326172
vt 0.331543 0.8671875
vt 0.3398438 0.6469727
vt 0.4902344 0.8740234
vt 0.08917236 0.9326172
vt 0.03610229 0.9545898
vt 0.08807373 0.9570313
vt 0.3288574 0.9233398
vt 0.5297852 0.9335938
vt 0.3283691 0.9477539
vt 0.5458984 0.9589844
vt 0.04202271 0.5024414
vt 0.02305603 0.5004883
vt 0.02532959 0.5429688
vt 0.1011963 0.5083008
vt 0.1030273 0.5449219
vt 0.3425293 0.5268555
vt 0.3530273 0.5449219
vt 0.02546692 0.6855469
vt 0.4353027 0.6870117
vt 0.1029053 0.6870117
vt 0.01317596 0.9091797
vt 0.09112549 0.909668
vt 0.4587402 0.7270508
vt 0.486084 0.7744141
vt 0.2902832 0.909668
vt 0.2189941 0.9658203
vt 0.01367188 0.9604492
vt 0.08807373 0.9658203
vt 0.2062988 0.9897461
vt 0.08770752 0.9897461
vt 0.03411865 0.9833984
vn 0.8271484 -0.5615234 0.0236969
vn 0.8271484 -0.5615234 0.0236969
vn 0.8271484 -0.5615234 0.0236969
vn -0.4355469 0.7368164 0.5170898
vn -0.4355469 0.7368164 0.5170898
vn -0.4355469 0.7368164 0.5170898
vn 0.8276367 -0.5600586 0.02868652
vn 0.8276367 -0.5600586 0.02868652
vn 0.8276367 -0.5600586 0.02868652
vn 0.3620605 -0.1730957 0.9160156
vn 0.3620605 -0.1730957 0.9160156
vn 0.3620605 -0.1730957 0.9160156
vn 0.03720093 -0.5112305 0.8583984
vn 0.03720093 -0.5112305 0.8583984
vn 0.03720093 -0.5112305 0.8583984
vn 0.03720093 -0.5112305 0.8583984
vn 0.03720093 -0.5112305 0.8583984
vn 0.03720093 -0.5112305 0.8583984
vn 0.8271484 -0.5615234 0.0236969
vn 0.8271484 -0.5615234 0.0236969
vn 0.8271484 -0.5615234 0.0236969
vn 0.8271484 -0.5615234 0.0236969
vn 0.8271484 -0.5615234 0.0236969
vn 0.8271484 -0.5615234 0.0236969
vn 0.8271484 -0.5615234 0.0236969
vn 0.8271484 -0.5615234 0.0236969
vn 0.8271484 -0.5615234 0.0236969
vn 0.8271484 -0.5615234 0.0236969
vn 0.8271484 -0.5615234 0.0236969
vn 0.8271484 -0.5615234 0.0236969
vn 0.8271484 -0.5615234 0.0236969
vn 0.8271484 -0.5615234 0.0236969
vn -0.4355469 0.7368164 0.5170898
vn -0.4355469 0.7368164 0.5170898
vn -0.4355469 0.7368164 0.5170898
vn -0.4355469 0.7368164 0.5170898
vn -0.4355469 0.7368164 0.5170898
vn -0.4355469 0.7368164 0.5170898
vn -0.4355469 0.7368164 0.5170898
vn -0.4355469 0.7368164 0.5170898
vn -0.09844971 -0.9921875 0.07342529
vn -0.09844971 -0.9921875 0.07342529
vn -0.09844971 -0.9921875 0.07342529
vn -0.09844971 -0.9921875 0.07342529
vn -0.09844971 -0.9921875 0.07342529
vn -0.09844971 -0.9921875 0.07342529
vn -0.1011963 -0.9921875 0.07543945
vn -0.1011963 -0.9921875 0.07543945
vn -0.1011963 -0.9921875 0.07543945
vn -0.1011963 -0.9921875 0.07543945
vn 0.3571777 -0.171875 0.9179688
vn 0.3571777 -0.171875 0.9179688
vn 0.3571777 -0.171875 0.9179688
vn 0.3571777 -0.171875 0.9179688
vn 0.3571777 -0.171875 0.9179688
vn 0.03808594 -0.5083008 0.8603516
vn 0.03808594 -0.5083008 0.8603516
vn 0.03808594 -0.5083008 0.8603516
vn 0.03808594 -0.5083008 0.8603516
vn 0.03720093 -0.5112305 0.8583984
vn 0.03720093 -0.5112305 0.8583984
vn 0.03720093 -0.5112305 0.8583984
vn 0.03720093 -0.5112305 0.8583984
vn -0.01220703 1 -0.002319336
vn -0.4138184 0.9101563 0
vn -0.4204102 0.9042969 -0.07507324
vn -0.03231812 0.9956055 -0.0869751
vn -0.3188477 0.8657227 -0.3859863
vn -0.01150513 0.8789063 -0.4768066
vn 0.0003051758 0.8710938 -0.4907227
vn -0.006591797 0.9951172 -0.0970459
vn -0.04693604 0.9033203 -0.4262695
vn -0.05126953 0.9941406 -0.09558105
vn -0.05145264 0.9985352 -0.004455566
vn 0.001647949 1 -0.003753662
vn 0.03479004 0.9995117 -0.003326416
vn -0.05145264 0.9985352 -0.004455566
vn -0.05145264 0.9985352 -0.004455566
vn -0.05145264 0.9985352 -0.004455566
vn -0.6767578 0.04956055 -0.734375
vn -0.6591797 0.1177979 -0.7426758
vn -0.130249 0.07067871 -0.9887695
vn -0.05291748 0.06665039 -0.996582
vn -0.0489502 0.03820801 -0.9980469
vn -0.05267334 -0.02679443 -0.9980469
vn 0.02520752 0.06219482 -0.9975586
vn 0.0262146 0.03216553 -0.9990234
vn 0.02676392 0.01608276 -0.9995117
vn -0.6879883 -0.05957031 -0.7231445
vn 0.02572632 -0.03204346 -0.9990234
vn -0.04354858 0.015625 -0.9990234
vn -0.6875 -0.004516602 -0.7260742
vn -0.6240234 0.40625 -0.6674805
vn 0.01196289 0.02740479 -0.9995117
vn 0.01974487 -0.05682373 -0.9980469
vn -0.006225586 0.06225586 -0.9980469
vn -0.01751709 0.4101563 -0.9121094
vn -0.3188477 0.8657227 -0.3859863
vn -0.01150513 0.8789063 -0.4768066
vn 0.009216309 0.4091797 -0.9125977
vn -0.02804565 0.5180664 -0.8549805
vn 0.0003051758 0.8710938 -0.4907227
vn -0.04693604 0.9033203 -0.4262695
vn -0.9750977 0.1228027 -0.1835938
vn -0.6591797 0.1177979 -0.7426758
vn -0.6767578 0.04956055 -0.734375
vn -0.987793 0.1199951 -0.09954834
vn -0.9951172 0.04251099 -0.09130859
vn -0.9931641 0.1155396 0
vn -1 0.01489258 0
vn -0.6879883 -0.05957031 -0.7231445
vn -0.9980469 -0.06384277 0
vn -0.9941406 -0.05838013 -0.09143066
vn -0.6875 -0.004516602 -0.7260742
vn -0.996582 0.007537842 -0.08496094
vn -0.9970703 -0.07806396 0
vn -0.9970703 -0.07806396 0
vn -0.9995117 -0.03588867 0
vn -0.940918 0.3383789 0
vn -0.6240234 0.40625 -0.6674805
vn -0.8964844 0.4370117 -0.07489014
vn -0.4138184 0.9101563 0
vn -0.4204102 0.9042969 -0.07507324
vn -0.3188477 0.8657227 -0.3859863
g Ice_cell.006_0
f 3/3/3 2/2/2 1/1/1
f 6/6/6 5/5/5 4/4/4
f 9/9/9 8/8/8 7/7/7
f 12/12/12 11/11/11 10/10/10
f 15/15/15 14/14/14 13/13/13
f 18/18/18 17/17/17 16/16/16
f 21/21/21 20/20/20 19/19/19
f 19/19/19 22/22/22 21/21/21
f 25/25/25 24/24/24 23/23/23
f 24/24/24 26/26/26 23/23/23
f 26/26/26 27/27/27 23/23/23
f 26/26/26 28/28/28 27/27/27
f 28/28/28 29/29/29 27/27/27
f 29/29/29 30/30/30 27/27/27
f 30/30/30 31/31/31 27/27/27
f 31/31/31 32/32/32 27/27/27
f 35/35/35 34/34/34 33/33/33
f 33/33/33 36/36/36 35/35/35
f 39/39/39 38/38/38 37/37/37
f 38/38/38 40/40/40 37/37/37
f 43/43/43 42/42/42 41/41/41
f 41/41/41 44/44/44 43/43/43
f 44/44/44 45/45/45 43/43/43
f 44/44/44 46/46/46 45/45/45
f 49/49/49 48/48/48 47/47/47
f 50/50/50 49/49/49 47/47/47
f 53/53/53 52/52/52 51/51/51
f 51/51/51 54/54/54 53/53/53
f 54/54/54 55/55/55 53/53/53
f 58/58/58 57/57/57 56/56/56
f 59/59/59 58/58/58 56/56/56
f 62/62/62 61/61/61 60/60/60
f 60/60/60 61/61/61 63/63/63
f 66/66/66 65/65/65 64/64/64
f 67/67/67 66/66/66 64/64/64
f 68/68/68 66/66/66 67/67/67
f 69/69/69 68/68/68 67/67/67
f 70/70/70 69/69/69 67/67/67
f 71/71/71 70/70/70 67/67/67
f 71/71/71 67/67/67 64/64/64
f 70/70/70 71/71/71 72/72/72
f 71/71/71 73/73/73 72/72/72
f 74/74/74 73/73/73 71/71/71
f 64/64/64 75/75/75 71/71/71
f 71/71/71 75/75/75 74/74/74
f 64/64/64 76/76/76 75/75/75
f 75/75/75 77/77/77 74/74/74
f 75/75/75 78/78/78 77/77/77
f 75/75/75 79/79/79 78/78/78
f 82/82/82 81/81/81 80/80/80
f 83/83/83 82/82/82 80/80/80
f 80/80/80 84/84/84 83/83/83
f 84/84/84 80/80/80 85/85/85
f 86/86/86 83/83/83 84/84/84
f 87/87/87 86/86/86 84/84/84
f 87/87/87 84/84/84 85/85/85
f 88/88/88 87/87/87 85/85/85
f 80/80/80 89/89/89 85/85/85
f 85/85/85 90/90/90 88/88/88
f 85/85/85 89/89/89 91/91/91
f 89/89/89 92/92/92 91/91/91
f 92/92/92 93/93/93 91/91/91
f 90/90/90 85/85/85 94/94/94
f 85/85/85 91/91/91 94/94/94
f 94/94/94 95/95/95 90/90/90
f 96/96/96 95/95/95 94/94/94
f 93/93/93 97/97/97 91/91/91
f 94/94/94 91/91/91 97/97/97
f 93/93/93 98/98/98 97/97/97
f 98/98/98 99/99/99 97/97/97
f 96/96/96 94/94/94 100/100/100
f 100/100/100 94/94/94 97/97/97
f 97/97/97 99/99/99 100/100/100
f 101/101/101 96/96/96 100/100/100
f 99/99/99 102/102/102 100/100/100
f 101/101/101 100/100/100 102/102/102
f 103/103/103 101/101/101 102/102/102
f 106/106/106 105/105/105 104/104/104
f 104/104/104 107/107/107 106/106/106
f 107/107/107 108/108/108 106/106/106
f 108/108/108 107/107/107 109/109/109
f 110/110/110 108/108/108 109/109/109
f 106/106/106 108/108/108 111/111/111
f 108/108/108 110/110/110 112/112/112
f 108/108/108 113/113/113 111/111/111
f 113/113/113 108/108/108 112/112/112
f 111/111/111 113/113/113 114/114/114
f 113/113/113 115/115/115 114/114/114
f 113/113/113 112/112/112 116/116/116
f 116/116/116 115/115/115 113/113/113
f 116/116/116 117/117/117 115/115/115
f 117/117/117 118/118/118 115/115/115
f 115/115/115 118/118/118 119/119/119
f 120/120/120 114/114/114 115/115/115
f 121/121/121 115/115/115 119/119/119
f 121/121/121 120/120/120 115/115/115
f 121/121/121 119/119/119 122/122/122
f 123/123/123 121/121/121 122/122/122
f 121/121/121 123/123/123 120/120/120
f 123/123/123 124/124/124 120/120/120
