g Ice_cell.013
v 0.1847406 -0.5380098 -0.281412
v 0.2130893 -0.3620096 -0.6326828
v -0.4272895 -0.6423268 0.3258705
v 0.2045216 -0.7653922 0.1345915
v 0.1688449 -0.8665181 0.3494233
v -0.06640296 -0.7868327 0.3567145
v -0.5009848 -0.507593 0.3202172
v -0.5009942 -0.5861565 0.3197345
v -0.06930967 -0.02030005 -0.8227761
v -0.5108443 -0.03990975 0.349415
v -0.5147887 0.09542107 0.3607617
v -0.0824355 -0.1758703 -0.7834854
v -0.06930967 -0.02030005 -0.8227761
v -0.5009942 -0.5861565 0.3197345
v -0.500609 -0.6127139 0.3196056
v 0.2130893 -0.3620096 -0.6326828
v 0.2331206 -0.2377721 -0.8797548
v -0.0824355 -0.1758703 -0.7834854
v -0.500609 -0.6127139 0.3196056
v -0.4272895 -0.6423268 0.3258705
v 0.2331206 -0.2377721 -0.8797548
v 0.2419581 -0.1829433 -0.8950717
v -0.06930967 -0.02030005 -0.8227761
v -0.0824355 -0.1758703 -0.7834854
v -0.06930967 -0.02030005 -0.8227761
v 0.2419581 -0.1829433 -0.8950717
v 0.2664137 -0.03121857 -0.9366326
v 0.2634539 0.2061039 -0.9873717
v 0.1859714 0.2199773 -0.9610705
v -0.06930967 -0.02030005 -0.8227761
v 0.2634539 0.2061039 -0.9873717
v 0.2629067 0.2499817 -0.9950911
v 0.1859714 0.2199773 -0.9610705
v 0.2629067 0.2499817 -0.9950911
v 0.2610163 0.40062 -0.6264765
v -0.1299195 0.607085 0.4184383
v -0.1092929 0.6195467 0.4200497
v -0.1092929 0.6195467 0.4200497
v 0.2610163 0.40062 -0.6264765
v 0.2569006 0.728654 0.1787709
v 0.2241517 0.776045 0.3396418
v 0.2100476 0.7933946 0.4014651
v 0.1666396 0.7714721 0.4081561
v 0.003347196 0.6863301 0.4268085
v -0.01679085 0.6750709 0.427259
v -0.3566148 0.3106207 0.3930174
v -0.4877445 0.1323324 0.3662868
v 0.1859714 0.2199773 -0.9610705
v -0.1299195 0.607085 0.4184383
v -0.06930967 -0.02030005 -0.8227761
v 0.1859714 0.2199773 -0.9610705
v -0.4877445 0.1323324 0.3662868
v -0.5147887 0.09542107 0.3607617
v -0.5108443 -0.03990975 0.349415
v -0.5147887 0.09542107 0.3607617
v -0.4877445 0.1323324 0.3662868
v -0.3566148 0.3106207 0.3930174
v -0.1299195 0.607085 0.4184383
v -0.1092929 0.6195467 0.4200497
v -0.01679085 0.6750709 0.427259
v -0.008144662 -0.03307229 0.3934517
v 0.003347196 0.6863301 0.4268085
v 0.1666396 0.7714721 0.4081561
v -0.5009848 -0.507593 0.3202172
v 0.2115133 0.7753044 0.4025709
v 0.2100476 0.7933946 0.4014651
v 0.2215901 -0.03064381 0.3823715
v 0.1400489 -0.535147 0.349884
v -0.08924849 -0.5243829 0.3563153
v 0.1688449 -0.8665181 0.3494233
v -0.06640296 -0.7868327 0.3567145
v -0.4272895 -0.6423268 0.3258705
v -0.500609 -0.6127139 0.3196056
v -0.5009942 -0.5861565 0.3197345
v 0.2569006 0.728654 0.1787709
v 0.2610163 0.40062 -0.6264765
v 0.2629067 0.2499817 -0.9950911
v 0.2634539 0.2061039 -0.9873717
v 0.2663936 -0.03114449 0.1653282
v 0.2664137 -0.03121857 -0.9366326
v 0.2419581 -0.1829433 -0.8950717
v 0.2331206 -0.2377721 -0.8797548
v 0.2130893 -0.3620096 -0.6326828
v 0.1847454 -0.5380034 0.1356788
v 0.1847406 -0.5380098 -0.281412
v 0.2045216 -0.7653922 0.1345915
v 0.1400489 -0.535147 0.349884
v 0.1688449 -0.8665181 0.3494233
v 0.2215901 -0.03064381 0.3823715
v 0.2115133 0.7753044 0.4025709
v 0.2241517 0.776045 0.3396418
v 0.2100476 0.7933946 0.4014651
vt 0.7729492 0.2021484
vt 0.8012695 0
vt 0.1719971 0
vt 0.7919922 0.4938965
vt 0.7563477 0.5996094
vt 0.5258789 0.3737793
vt 0.9057617 0.7163086
vt 1 0.8100586
vt 1 0
vt 0.3295898 0.1604004
vt 0.1612549 0
vt 1 0
vt 0 0
vt 0.8100586 0.8100586
vt 1 0.8041992
vt 1 0.1987305
vt 0.6337891 0
vt 0 0
vt 0.8041992 0.8041992
vt 1 0.828125
vt 0.6337891 0.6337891
vt 1 0.6425781
vt 1 0
vt 0 0
vt 0 0
vt 0.6425781 0.6425781
vt 0.6928711 0.4106445
vt 0.6865234 0
vt 1 0
vt 0 0
vt 0.6865234 0.6865234
vt 1 0.3354492
vt 0 0
vt 0.3354492 0.3354492
vt 1 0.7358398
vt 0.890625 0
vt 1 0.1018677
vt 0.1018677 0.1018677
vt 0.7358398 0.7358398
vt 0.7285156 0.2481689
vt 0.6723633 0.1507568
vt 0.6479492 0.1132813
vt 0.5737305 0.1091919
vt 0.2944336 0.09783936
vt 0.2600098 0.09753418
vt 0.6645508 0.5385742
vt 1 0.8569336
vt 1 0
vt 0.1095581 0
vt 1 0
vt 0 0
vt 0.8569336 0.8569336
vt 1 0.8388672
vt 0.7402344 0.6308594
vt 0.7392578 0.6772461
vt 0.7480469 0.6899414
vt 0.7919922 0.7509766
vt 0.8676758 0.8520508
vt 0.8745117 0.8564453
vt 0.9052734 0.8754883
vt 0.9082031 0.6333008
vt 0.9121094 0.8793945
vt 0.9667969 0.9082031
vt 0.7436523 0.4707031
vt 0.9814453 0.909668
vt 0.980957 0.9160156
vt 0.9848633 0.6337891
vt 0.9580078 0.4614258
vt 0.8813477 0.4650879
vt 0.9672852 0.3479004
vt 0.8886719 0.3752441
vt 0.7680664 0.4245605
vt 0.7436523 0.4348145
vt 0.7436523 0.4438477
vt 0.9194336 0.9194336
vt 0.6396484 0.8022461
vt 0.5112305 0.7480469
vt 0.5141602 0.7324219
vt 0.9145508 0.6474609
vt 0.5317383 0.6474609
vt 0.5463867 0.5927734
vt 0.5517578 0.5732422
vt 0.637207 0.5288086
vt 0.9042969 0.4658203
vt 0.7592773 0.4658203
vt 0.9042969 0.3842773
vt 0.9790039 0.4667969
vt 0.9790039 0.3481445
vt 0.9902344 0.6474609
vt 0.9970703 0.9360352
vt 0.9755859 0.9365234
vt 0.9970703 0.9428711
vn -0.2993164 -0.8432617 -0.4465332
vn -0.2993164 -0.8432617 -0.4465332
vn -0.2993164 -0.8432617 -0.4465332
vn -0.2993164 -0.8432617 -0.4465332
vn -0.2993164 -0.8432617 -0.4465332
vn -0.2993164 -0.8432617 -0.4465332
vn -0.9360352 0.002275467 -0.3525391
vn -0.9360352 0.002275467 -0.3525391
vn -0.9360352 0.002275467 -0.3525391
vn -0.9360352 0.002275467 -0.3525391
vn -0.9360352 0.002275467 -0.3525391
vn -0.9335938 -0.01179504 -0.3586426
vn -0.9335938 -0.01179504 -0.3586426
vn -0.9335938 -0.01179504 -0.3586426
vn -0.9335938 -0.01179504 -0.3586426
vn -0.3017578 -0.8417969 -0.4477539
vn -0.3017578 -0.8417969 -0.4477539
vn -0.3017578 -0.8417969 -0.4477539
vn -0.3017578 -0.8417969 -0.4477539
vn -0.3017578 -0.8417969 -0.4477539
vn -0.3222656 -0.2061768 -0.9238281
vn -0.3222656 -0.2061768 -0.9238281
vn -0.3222656 -0.2061768 -0.9238281
vn -0.3222656 -0.2061768 -0.9238281
vn -0.3205566 -0.2019043 -0.925293
vn -0.3205566 -0.2019043 -0.925293
vn -0.3205566 -0.2019043 -0.925293
vn -0.3205566 -0.2019043 -0.925293
vn -0.3435059 -0.1668701 -0.9243164
vn -0.3435059 -0.1668701 -0.9243164
vn -0.3435059 -0.1668701 -0.9243164
vn -0.3435059 -0.1668701 -0.9243164
vn -0.4675293 0.8173828 -0.3364258
vn -0.4675293 0.8173828 -0.3364258
vn -0.4675293 0.8173828 -0.3364258
vn -0.4675293 0.8173828 -0.3364258
vn -0.4675293 0.8173828 -0.3364258
vn -0.465332 0.8188477 -0.3359375
vn -0.465332 0.8188477 -0.3359375
vn -0.465332 0.8188477 -0.3359375
vn -0.465332 0.8188477 -0.3359375
vn -0.465332 0.8188477 -0.3359375
vn -0.465332 0.8188477 -0.3359375
vn -0.465332 0.8188477 -0.3359375
vn -0.465332 0.8188477 -0.3359375
vn -0.7348633 0.590332 -0.3339844
vn -0.7348633 0.590332 -0.3339844
vn -0.7348633 0.590332 -0.3339844
vn -0.7348633 0.590332 -0.3339844
vn -0.7358398 0.5888672 -0.3344727
vn -0.7358398 0.5888672 -0.3344727
vn -0.7358398 0.5888672 -0.3344727
vn -0.7358398 0.5888672 -0.3344727
vn -0.07623291 -0.06335449 0.9951172
vn -0.0647583 -0.06439209 0.9956055
vn -0.0647583 -0.06439209 0.9956055
vn -0.0647583 -0.06439209 0.9956055
vn -0.0647583 -0.06439209 0.9956055
vn -0.0647583 -0.06439209 0.9956055
vn 0.03582764 -0.04522705 0.9985352
vn -0.003845215 -0.05990601 0.9980469
vn 0.08636475 -0.03540039 0.9956055
vn 0.09014893 -0.02261353 0.9956055
vn -0.08770752 -0.03503418 0.9956055
vn 0.6699219 0.04202271 0.7412109
vn 0.7080078 0.1000977 0.6992188
vn 0.6674805 -0.08398438 0.7397461
vn 0.6186523 -0.05160522 0.7836914
vn -0.03207397 -0.03546143 0.9990234
vn 0.6396484 0.05517578 0.7666016
vn -0.01205444 -0.0005493164 1
vn -0.08758545 -0.006103516 0.9960938
vn -0.08758545 -0.006103516 0.9960938
vn -0.08758545 -0.006103516 0.9960938
vn 0.9921875 0.009735107 0.1235352
vn 1 0.01248169 0
vn 1 0.01248169 0
vn 1 0.01248169 0
vn 0.9916992 -0.07702637 0.1019287
vn 0.9980469 -0.06030273 0
vn 0.9873047 -0.1590576 0
vn 0.9873047 -0.1590576 0
vn 0.9873047 -0.1590576 0
vn 0.9941406 -0.03930664 0.1013794
vn 0.9926758 -0.1207275 0
vn 0.987793 0.08551025 0.1317139
vn 0.6186523 -0.05160522 0.7836914
vn 0.6396484 0.05517578 0.7666016
vn 0.6674805 -0.08398438 0.7397461
vn 0.6699219 0.04202271 0.7412109
vn 0.9799805 0.01538086 0.1994629
vn 0.7080078 0.1000977 0.6992188
g Ice_cell.013_0
f 3/3/3 2/2/2 1/1/1
f 1/1/1 4/4/4 3/3/3
f 4/4/4 5/5/5 3/3/3
f 5/5/5 6/6/6 3/3/3
f 9/9/9 8/8/8 7/7/7
f 7/7/7 10/10/10 9/9/9
f 10/10/10 11/11/11 9/9/9
f 14/14/14 13/13/13 12/12/12
f 15/15/15 14/14/14 12/12/12
f 18/18/18 17/17/17 16/16/16
f 16/16/16 19/19/19 18/18/18
f 16/16/16 20/20/20 19/19/19
f 23/23/23 22/22/22 21/21/21
f 24/24/24 23/23/23 21/21/21
f 27/27/27 26/26/26 25/25/25
f 28/28/28 27/27/27 25/25/25
f 31/31/31 30/30/30 29/29/29
f 32/32/32 31/31/31 29/29/29
f 35/35/35 34/34/34 33/33/33
f 33/33/33 36/36/36 35/35/35
f 36/36/36 37/37/37 35/35/35
f 40/40/40 39/39/39 38/38/38
f 38/38/38 41/41/41 40/40/40
f 38/38/38 42/42/42 41/41/41
f 38/38/38 43/43/43 42/42/42
f 38/38/38 44/44/44 43/43/43
f 38/38/38 45/45/45 44/44/44
f 48/48/48 47/47/47 46/46/46
f 49/49/49 48/48/48 46/46/46
f 52/52/52 51/51/51 50/50/50
f 53/53/53 52/52/52 50/50/50
f 56/56/56 55/55/55 54/54/54
f 57/57/57 56/56/56 54/54/54
f 58/58/58 57/57/57 54/54/54
f 59/59/59 58/58/58 54/54/54
f 60/60/60 59/59/59 54/54/54
f 54/54/54 61/61/61 60/60/60
f 62/62/62 60/60/60 61/61/61
f 63/63/63 62/62/62 61/61/61
f 61/61/61 54/54/54 64/64/64
f 65/65/65 63/63/63 61/61/61
f 66/66/66 63/63/63 65/65/65
f 61/61/61 67/67/67 65/65/65
f 68/68/68 67/67/67 61/61/61
f 69/69/69 68/68/68 61/61/61
f 69/69/69 61/61/61 64/64/64
f 68/68/68 69/69/69 70/70/70
f 69/69/69 71/71/71 70/70/70
f 72/72/72 71/71/71 69/69/69
f 69/69/69 64/64/64 72/72/72
f 64/64/64 73/73/73 72/72/72
f 64/64/64 74/74/74 73/73/73
f 77/77/77 76/76/76 75/75/75
f 78/78/78 77/77/77 75/75/75
f 78/78/78 75/75/75 79/79/79
f 79/79/79 80/80/80 78/78/78
f 81/81/81 80/80/80 79/79/79
f 82/82/82 81/81/81 79/79/79
f 83/83/83 82/82/82 79/79/79
f 83/83/83 79/79/79 84/84/84
f 84/84/84 85/85/85 83/83/83
f 86/86/86 85/85/85 84/84/84
f 84/84/84 87/87/87 86/86/86
f 87/87/87 88/88/88 86/86/86
f 87/87/87 84/84/84 89/89/89
f 84/84/84 79/79/79 89/89/89
f 89/89/89 79/79/79 75/75/75
f 75/75/75 90/90/90 89/89/89
f 75/75/75 91/91/91 90/90/90
f 90/90/90 91/91/91 92/92/92
