g Ice_cell.009
v 0.04062241 -0.6949571 0.68587
v -0.4168231 -0.9073095 -0.6666312
v -0.5666475 -0.6601052 -0.7531365
v -0.5666475 -0.6601052 -0.7531365
v -0.03336297 -0.5361804 0.684256
v 0.04062241 -0.6949571 0.68587
v 0.9961275 -0.1302028 -0.6281517
v -0.3216141 1.148889 -0.5434653
v 0.3872406 0.5599695 -0.9993736
v 0.3872406 0.5599695 -0.9993736
v -0.3216141 1.148889 -0.5434653
v -0.2061011 1.064084 -0.6713044
v -0.538642 0.9821823 -0.6743779
v -0.3216141 1.148889 -0.5434653
v -0.5443544 1.055159 -0.5877797
v 0.6473035 -0.6959637 -0.928318
v 0.9961275 -0.1302028 -0.6281517
v 0.1234868 0.1591468 -1.225
v 0.1234868 0.1591468 -1.225
v 0.9961275 -0.1302028 -0.6281517
v 0.3872406 0.5599695 -0.9993736
v -0.4168231 -0.9073095 -0.6666312
v 0.5166458 -0.940739 -0.7984047
v 0.6473035 -0.6959637 -0.928318
v -0.5666475 -0.6601052 -0.7531365
v -0.5611385 -0.2342916 -0.2610851
v -0.03336297 -0.5361804 0.684256
v -0.107612 -0.379187 0.6798517
v -0.5177369 0.1387342 0.2633731
v -0.3216141 1.148889 -0.5434653
v 0.1506228 0.3859525 0.6667361
v 0.1334654 0.3752231 0.6674401
v -0.09521881 0.2286454 0.680971
v -0.2018337 0.1574057 0.690653
v -0.3216141 1.148889 -0.5434653
v 0.6888768 -0.1303813 0.6158846
v 0.4244485 0.1276419 0.6231996
v 0.3774942 0.1722662 0.6293269
v 0.1506228 0.3859525 0.6667361
v 0.6888768 -0.1303813 0.6158846
v -0.3216141 1.148889 -0.5434653
v 0.8918338 -0.3291925 0.6102544
v 0.9520575 -0.389886 0.615558
v 0.9961275 -0.1302028 -0.6281517
v -0.538642 0.9821823 -0.6743779
v -0.5339702 0.9224736 -0.7436046
v -0.2061011 1.064084 -0.6713044
v -0.3216141 1.148889 -0.5434653
v -0.1605482 -0.2665642 0.6766539
v -0.107612 -0.379187 0.6798517
v -0.5177369 0.1387342 0.2633731
v -0.2675886 -0.01736696 0.6938991
v -0.3158317 0.0875368 0.6934872
v -0.5067963 0.2327425 0.3935808
v -0.4168231 -0.9073095 -0.6666312
v 0.6473035 -0.6959637 -0.928318
v -0.5206789 0.1134477 -1.104462
v -0.5666475 -0.6601052 -0.7531365
v -0.5611323 -0.2343122 -0.9434827
v 0.5166458 -0.940739 -0.7984047
v 0.7702807 -0.7089419 0.6472128
v 0.8283434 -0.6078799 0.6389627
v 0.8730607 -0.5297577 0.6305704
v 0.5166458 -0.940739 -0.7984047
v 0.8730607 -0.5297577 0.6305704
v 0.8968269 -0.4879901 0.6260852
v 0.6473035 -0.6959637 -0.928318
v 0.6473035 -0.6959637 -0.928318
v 0.8968269 -0.4879901 0.6260852
v 0.9520575 -0.389886 0.615558
v 0.9961275 -0.1302028 -0.6281517
v -0.5072379 0.2289822 -1.157662
v 0.1234868 0.1591468 -1.225
v -0.5011001 0.2817396 -1.126781
v -0.5022052 0.3135263 -1.107976
v 0.3872406 0.5599695 -0.9993736
v -0.5236701 0.7908387 -0.823463
v -0.5149207 0.6790825 -0.8902361
v -0.5022052 0.3135263 -1.107976
v 0.3872406 0.5599695 -0.9993736
v -0.5236701 0.7908387 -0.823463
v 0.3872406 0.5599695 -0.9993736
v -0.2061011 1.064084 -0.6713044
v -0.5339702 0.9224736 -0.7436046
v 0.1697144 -0.6985455 0.6740565
v 0.5166458 -0.940739 -0.7984047
v -0.4168231 -0.9073095 -0.6666312
v 0.04062241 -0.6949571 0.68587
v 0.1169495 -0.6968854 0.6800828
v 0.1697144 -0.6985455 0.6740565
v 0.4071492 -0.7053406 0.6468824
v 0.7702807 -0.7089419 0.6472128
v 0.5166458 -0.940739 -0.7984047
v 0.1234868 0.1591468 -1.225
v -0.5072379 0.2289822 -1.157662
v -0.5206789 0.1134477 -1.104462
v 0.6473035 -0.6959637 -0.928318
v 0.1169495 -0.6968854 0.6800828
v 0.04062241 -0.6949571 0.68587
v -0.03336297 -0.5361804 0.684256
v -0.1605482 -0.2665642 0.6766539
v -0.107612 -0.379187 0.6798517
v 0.1697144 -0.6985455 0.6740565
v 0.4016537 -0.3085691 0.6144696
v 0.4071492 -0.7053406 0.6468824
v 0.7702807 -0.7089419 0.6472128
v 0.8283434 -0.6078799 0.6389627
v 0.8730607 -0.5297577 0.6305704
v 0.8918338 -0.3291925 0.6102544
v 0.8968269 -0.4879901 0.6260852
v 0.9520575 -0.389886 0.615558
v 0.4244485 0.1276419 0.6231996
v 0.6888768 -0.1303813 0.6158846
v 0.3774942 0.1722662 0.6293269
v -0.09521881 0.2286454 0.680971
v 0.1506228 0.3859525 0.6667361
v 0.1334654 0.3752231 0.6674401
v -0.2018337 0.1574057 0.690653
v -0.2675886 -0.01736696 0.6938991
v -0.2514158 0.1240719 0.6953071
v -0.3158317 0.0875368 0.6934872
v -0.5149288 0.6790608 -0.1304978
v -0.5443544 1.055159 -0.5877797
v -0.3216141 1.148889 -0.5434653
v -0.2018337 0.1574057 0.690653
v -0.5010937 0.2817481 0.3405693
v -0.5067963 0.2327425 0.3935808
v -0.3158317 0.0875368 0.6934872
v -0.2514158 0.1240719 0.6953071
v -0.5611385 -0.2342916 -0.2610851
v -0.5666475 -0.6601052 -0.7531365
v -0.5611323 -0.2343122 -0.9434827
v -0.5206789 0.1134477 -1.104462
v -0.5177369 0.1387342 0.2633731
v -0.5072379 0.2289822 -1.157662
v -0.5067963 0.2327425 0.3935808
v -0.5011001 0.2817396 -1.126781
v -0.5010937 0.2817481 0.3405693
v -0.5022052 0.3135263 -1.107976
v -0.5149288 0.6790608 -0.1304978
v -0.5149207 0.6790825 -0.8902361
v -0.5443544 1.055159 -0.5877797
v -0.5236701 0.7908387 -0.823463
v -0.5339702 0.9224736 -0.7436046
v -0.538642 0.9821823 -0.6743779
vt 1 0.8598633
vt 1 0
vt 0.5068359 0
vt 0.5068359 0
vt 0.9208984 0.09857178
vt 1 0.8598633
vt 0 0
vt 1 1
vt 1 0
vt 0 0
vt 1 1
vt 1 0
vt 0.458252 0.458252
vt 1 1
vt 1 0.4440918
vt 0 0
vt 1 1
vt 1 0
vt 0 0
vt 1 1
vt 1 0
vt 0 0
vt 1 1
vt 1 0
vt 0.5068359 0
vt 0.4658203 0.2746582
vt 0.9208984 0.09857178
vt 1 0.2661133
vt 1 0.7563477
vt 1 1
vt 1 0.1652832
vt 0.9589844 0.1647949
vt 0.407959 0.1550293
vt 0.1480713 0.1480713
vt 1 1
vt 1 0.2001953
vt 0.6118164 0.1951904
vt 0.5371094 0.19104
vt 0.1652832 0.1652832
vt 0.2001953 0.2001953
vt 1 1
vt 0.1953125 0.04595947
vt 0.1893311 0
vt 1 0
vt 1 0.458252
vt 0.6352539 0
vt 0 0
vt 1 1
vt 0.4384766 0.2697754
vt 0.2661133 0.2661133
vt 0.7563477 0.7563477
vt 0.8378906 0.2491455
vt 1 0.2495117
vt 1 0.6030273
vt 1 0
vt 0 0
vt 0.1468506 0
vt 1 0.4929199
vt 0.6879883 0.5712891
vt 1 0
vt 0.1519775 0
vt 0.6289063 0.4719238
vt 1 0.8383789
vt 0 0
vt 0.8383789 0.8383789
vt 1 0.847168
vt 1 0
vt 0 0
vt 0.847168 0.847168
vt 1 0.8105469
vt 1 0
vt 0.7460938 0
vt 0 0
vt 0.9018555 0.1242676
vt 1 0.197876
vt 1 1
vt 1 0.1789551
vt 0.8139648 0.1867676
vt 0.197876 0.197876
vt 1 1
vt 0.1789551 0.1789551
vt 1 1
vt 1 0
vt 0.3647461 0
vt 1 0.8637695
vt 1 0
vt 0 0
vt 0.8598633 0.8598633
vt 0.9428711 0.8632813
vt 0.8637695 0.8637695
vt 0.8481445 0.5180664
vt 0.8481445 0
vt 0 0
vt 1 0
vt 0.2536621 0
vt 0.1468506 0.1468506
vt 1 1
vt 0.2296143 0.2006836
vt 0.2042236 0.201416
vt 0.1794434 0.2558594
vt 0.137207 0.3481445
vt 0.1547852 0.3095703
vt 0.2473145 0.2001953
vt 0.3249512 0.3337402
vt 0.3269043 0.197998
vt 0.447998 0.1966553
vt 0.4675293 0.2312012
vt 0.4824219 0.2580566
vt 0.4887695 0.3266602
vt 0.4904785 0.2722168
vt 0.5087891 0.3059082
vt 0.3325195 0.4831543
vt 0.4208984 0.3947754
vt 0.3168945 0.498291
vt 0.1589355 0.5175781
vt 0.2410889 0.5712891
vt 0.2354736 0.5678711
vt 0.1233521 0.4931641
vt 0.1013794 0.4333496
vt 0.1068115 0.4819336
vt 0.08526611 0.4692383
vt 0.4904785 0.4165039
vt 0.4440918 0.4440918
vt 1 1
vt 1 0.1480713
vt 0.4208984 0.05047607
vt 0.3972168 0
vt 0.7504883 0
vt 0.890625 0.08093262
vt 0.6557617 0.3598633
vt 0.4846191 0.2073975
vt 0.4187012 0.3598633
vt 0.3625488 0.4846191
vt 0.8378906 0.4936523
vt 0.3442383 0.5258789
vt 0.8833008 0.5273438
vt 0.3549805 0.5449219
vt 0.8647461 0.5449219
vt 0.3613281 0.5561523
vt 0.7011719 0.6870117
vt 0.4370117 0.6870117
vt 0.5419922 0.8217773
vt 0.4602051 0.7270508
vt 0.4880371 0.7744141
vt 0.512207 0.7958984
vn -0.8505859 -0.3928223 0.3496094
vn -0.8505859 -0.3928223 0.3496094
vn -0.8505859 -0.3928223 0.3496094
vn -0.8505859 -0.3928223 0.3496094
vn -0.8505859 -0.3928223 0.3496094
vn -0.8505859 -0.3928223 0.3496094
vn 0.6918945 0.7016602 0.1695557
vn 0.6918945 0.7016602 0.1695557
vn 0.6918945 0.7016602 0.1695557
vn 0.6865234 0.7114258 0.1483154
vn 0.6865234 0.7114258 0.1483154
vn 0.6865234 0.7114258 0.1483154
vn -0.1861572 0.7451172 -0.6401367
vn -0.1861572 0.7451172 -0.6401367
vn -0.1861572 0.7451172 -0.6401367
vn 0.5795898 0.07336426 -0.8115234
vn 0.5795898 0.07336426 -0.8115234
vn 0.5795898 0.07336426 -0.8115234
vn 0.5795898 0.07513428 -0.8115234
vn 0.5795898 0.07513428 -0.8115234
vn 0.5795898 0.07513428 -0.8115234
vn -0.1420898 -0.4038086 -0.9038086
vn -0.1420898 -0.4038086 -0.9038086
vn -0.1420898 -0.4038086 -0.9038086
vn -0.8505859 -0.3928223 0.3496094
vn -0.8505859 -0.3928223 0.3496094
vn -0.8505859 -0.3928223 0.3496094
vn -0.8505859 -0.3928223 0.3496094
vn -0.8505859 -0.3928223 0.3496094
vn -0.4082031 0.6918945 0.5957031
vn -0.4082031 0.6918945 0.5957031
vn -0.4082031 0.6918945 0.5957031
vn -0.4082031 0.6918945 0.5957031
vn -0.4082031 0.6918945 0.5957031
vn 0.6904297 0.7026367 0.1734619
vn 0.6904297 0.7026367 0.1734619
vn 0.6904297 0.7026367 0.1734619
vn 0.6904297 0.7026367 0.1734619
vn 0.6904297 0.7026367 0.1734619
vn 0.6918945 0.7016602 0.1710205
vn 0.6918945 0.7016602 0.1710205
vn 0.6918945 0.7016602 0.1710205
vn 0.6918945 0.7016602 0.1710205
vn 0.6918945 0.7016602 0.1710205
vn -0.1761475 0.7392578 -0.6499023
vn -0.1761475 0.7392578 -0.6499023
vn -0.1761475 0.7392578 -0.6499023
vn -0.1761475 0.7392578 -0.6499023
vn -0.8505859 -0.3898926 0.3527832
vn -0.8505859 -0.3898926 0.3527832
vn -0.8505859 -0.3898926 0.3527832
vn -0.8505859 -0.3898926 0.3527832
vn -0.8505859 -0.3898926 0.3527832
vn -0.8505859 -0.3898926 0.3527832
vn -0.142334 -0.4023438 -0.9042969
vn -0.142334 -0.4023438 -0.9042969
vn -0.142334 -0.4023438 -0.9042969
vn -0.142334 -0.4023438 -0.9042969
vn -0.142334 -0.4023438 -0.9042969
vn 0.8623047 -0.5014648 -0.07092285
vn 0.8623047 -0.5014648 -0.07092285
vn 0.8623047 -0.5014648 -0.07092285
vn 0.8623047 -0.5014648 -0.07092285
vn 0.8637695 -0.4990234 -0.07183838
vn 0.8637695 -0.4990234 -0.07183838
vn 0.8637695 -0.4990234 -0.07183838
vn 0.8637695 -0.4990234 -0.07183838
vn 0.8657227 -0.4951172 -0.07269287
vn 0.8657227 -0.4951172 -0.07269287
vn 0.8657227 -0.4951172 -0.07269287
vn 0.8657227 -0.4951172 -0.07269287
vn -0.03564453 0.5078125 -0.8608398
vn -0.03564453 0.5078125 -0.8608398
vn -0.03564453 0.5078125 -0.8608398
vn -0.03564453 0.5078125 -0.8608398
vn -0.03564453 0.5078125 -0.8608398
vn -0.03652954 0.5102539 -0.8588867
vn -0.03652954 0.5102539 -0.8588867
vn -0.03652954 0.5102539 -0.8588867
vn -0.03652954 0.5102539 -0.8588867
vn -0.03436279 0.5166016 -0.8554688
vn -0.03436279 0.5166016 -0.8554688
vn -0.03436279 0.5166016 -0.8554688
vn -0.03436279 0.5166016 -0.8554688
vn -0.01285553 -0.9873047 0.1593018
vn -0.01285553 -0.9873047 0.1593018
vn -0.01285553 -0.9873047 0.1593018
vn -0.01285553 -0.9873047 0.1593018
vn -0.01285553 -0.9873047 0.1593018
vn -0.009933472 -0.9873047 0.1600342
vn -0.009933472 -0.9873047 0.1600342
vn -0.009933472 -0.9873047 0.1600342
vn -0.009933472 -0.9873047 0.1600342
vn -0.1409912 -0.4003906 -0.9052734
vn -0.1409912 -0.4003906 -0.9052734
vn -0.1409912 -0.4003906 -0.9052734
vn -0.1409912 -0.4003906 -0.9052734
vn 0.1144409 0.08129883 0.9902344
vn 0.1144409 0.08129883 0.9902344
vn 0.1144409 0.08129883 0.9902344
vn 0.1096191 0.01202393 0.9941406
vn 0.1144409 0.08129883 0.9902344
vn 0.1144409 0.08129883 0.9902344
vn 0.05987549 0.03210449 0.9975586
vn 0.05905151 0.08551025 0.9946289
vn 0.005493164 0.08935547 0.9960938
vn 0.005493164 0.08935547 0.9960938
vn 0.005493164 0.08935547 0.9960938
vn 0.00604248 0.06365967 0.9980469
vn 0.005493164 0.08935547 0.9960938
vn 0.005493164 0.08935547 0.9960938
vn 0.08007813 -0.0229187 0.996582
vn 0.007720947 -0.02038574 1
vn 0.1055298 -0.03240967 0.9936523
vn 0.1054077 -0.03320313 0.9936523
vn 0.09991455 -0.06628418 0.9926758
vn 0.09991455 -0.06628418 0.9926758
vn 0.1069336 -0.02383423 0.9941406
vn 0.08447266 -0.02099609 0.9960938
vn 0.06866455 -0.01898193 0.9975586
vn -0.0241394 -0.007171631 0.9995117
vn -0.4091797 0.6914063 0.5952148
vn -0.4091797 0.6914063 0.5952148
vn -0.4091797 0.6914063 0.5952148
vn -0.4091797 0.6914063 0.5952148
vn -0.4091797 0.6914063 0.5952148
vn -0.4091797 0.6914063 0.5952148
vn -0.4091797 0.6914063 0.5952148
vn -0.4091797 0.6914063 0.5952148
vn -0.9956055 0.09301758 0
vn -1 0.01293945 0
vn -0.9970703 0.07818604 0
vn -0.9931641 0.1155396 0
vn -0.9931641 0.1155396 0
vn -0.9931641 0.1155396 0
vn -0.9931641 0.1155396 0
vn -0.9980469 0.065979 0
vn -0.996582 0.08166504 0
vn -0.9995117 -0.03475952 0
vn -0.9990234 -0.04431152 0
vn -0.9990234 -0.04901123 0
vn -0.9970703 -0.07800293 0
vn -0.9970703 -0.07800293 0
vn -0.9970703 -0.07800293 0
vn -0.9970703 -0.07800293 0
g Ice_cell.009_0
f 3/3/3 2/2/2 1/1/1
f 6/6/6 5/5/5 4/4/4
f 9/9/9 8/8/8 7/7/7
f 12/12/12 11/11/11 10/10/10
f 15/15/15 14/14/14 13/13/13
f 18/18/18 17/17/17 16/16/16
f 21/21/21 20/20/20 19/19/19
f 24/24/24 23/23/23 22/22/22
f 27/27/27 26/26/26 25/25/25
f 27/27/27 28/28/28 26/26/26
f 28/28/28 29/29/29 26/26/26
f 32/32/32 31/31/31 30/30/30
f 30/30/30 33/33/33 32/32/32
f 30/30/30 34/34/34 33/33/33
f 37/37/37 36/36/36 35/35/35
f 35/35/35 38/38/38 37/37/37
f 35/35/35 39/39/39 38/38/38
f 42/42/42 41/41/41 40/40/40
f 41/41/41 42/42/42 43/43/43
f 43/43/43 44/44/44 41/41/41
f 47/47/47 46/46/46 45/45/45
f 48/48/48 47/47/47 45/45/45
f 51/51/51 50/50/50 49/49/49
f 49/49/49 52/52/52 51/51/51
f 52/52/52 53/53/53 51/51/51
f 53/53/53 54/54/54 51/51/51
f 57/57/57 56/56/56 55/55/55
f 55/55/55 58/58/58 57/57/57
f 58/58/58 59/59/59 57/57/57
f 62/62/62 61/61/61 60/60/60
f 63/63/63 62/62/62 60/60/60
f 66/66/66 65/65/65 64/64/64
f 67/67/67 66/66/66 64/64/64
f 70/70/70 69/69/69 68/68/68
f 71/71/71 70/70/70 68/68/68
f 74/74/74 73/73/73 72/72/72
f 73/73/73 74/74/74 75/75/75
f 75/75/75 76/76/76 73/73/73
f 79/79/79 78/78/78 77/77/77
f 80/80/80 79/79/79 77/77/77
f 83/83/83 82/82/82 81/81/81
f 84/84/84 83/83/83 81/81/81
f 87/87/87 86/86/86 85/85/85
f 85/85/85 88/88/88 87/87/87
f 85/85/85 89/89/89 88/88/88
f 92/92/92 91/91/91 90/90/90
f 93/93/93 92/92/92 90/90/90
f 96/96/96 95/95/95 94/94/94
f 97/97/97 96/96/96 94/94/94
f 100/100/100 99/99/99 98/98/98
f 101/101/101 100/100/100 98/98/98
f 101/101/101 102/102/102 100/100/100
f 101/101/101 98/98/98 103/103/103
f 104/104/104 101/101/101 103/103/103
f 103/103/103 105/105/105 104/104/104
f 104/104/104 105/105/105 106/106/106
f 104/104/104 106/106/106 107/107/107
f 104/104/104 107/107/107 108/108/108
f 109/109/109 104/104/104 108/108/108
f 109/109/109 108/108/108 110/110/110
f 110/110/110 111/111/111 109/109/109
f 104/104/104 109/109/109 112/112/112
f 109/109/109 113/113/113 112/112/112
f 104/104/104 112/112/112 114/114/114
f 114/114/114 101/101/101 104/104/104
f 114/114/114 115/115/115 101/101/101
f 115/115/115 114/114/114 116/116/116
f 117/117/117 115/115/115 116/116/116
f 115/115/115 118/118/118 101/101/101
f 118/118/118 119/119/119 101/101/101
f 118/118/118 120/120/120 119/119/119
f 120/120/120 121/121/121 119/119/119
f 124/124/124 123/123/123 122/122/122
f 122/122/122 125/125/125 124/124/124
f 122/122/122 126/126/126 125/125/125
f 126/126/126 127/127/127 125/125/125
f 127/127/127 128/128/128 125/125/125
f 128/128/128 129/129/129 125/125/125
f 132/132/132 131/131/131 130/130/130
f 133/133/133 132/132/132 130/130/130
f 130/130/130 134/134/134 133/133/133
f 134/134/134 135/135/135 133/133/133
f 134/134/134 136/136/136 135/135/135
f 136/136/136 137/137/137 135/135/135
f 136/136/136 138/138/138 137/137/137
f 139/139/139 137/137/137 138/138/138
f 138/138/138 140/140/140 139/139/139
f 140/140/140 141/141/141 139/139/139
f 141/141/141 140/140/140 142/142/142
f 142/142/142 143/143/143 141/141/141
f 142/142/142 144/144/144 143/143/143
f 142/142/142 145/145/145 144/144/144
