g Ice_cell.001
v 0.5631934 -0.1226202 -1.014926
v -0.2785465 0.1330457 -1.14254
v 0.7746442 -0.5242125 -0.7937968
v 0.7746442 -0.5242125 -0.7937968
v -0.2785465 0.1330457 -1.14254
v 0.5236484 -0.7593962 -0.6562945
v 0.5631934 -0.1226202 -1.014926
v 0.2609036 0.2633542 0.1886777
v 0.3103893 0.2688645 -0.5922507
v -0.04154407 -0.5322224 0.5283709
v -0.2785465 0.1330457 -1.14254
v -0.4908296 0.2107158 -0.6661214
v -0.740409 0.1937392 0.3063165
v -0.7514823 0.1611834 0.4705476
v -0.1441049 -0.4341407 0.5279776
v -0.6976579 0.09197898 0.5382623
v -0.5347007 -0.06962512 0.5608314
v -0.3817092 0.2162782 -1.081712
v -0.4409293 0.2141505 -0.8595131
v -0.4908296 0.2107158 -0.6661214
v -0.2785465 0.1330457 -1.14254
v -0.1470291 0.2288898 -0.9236537
v -0.3817092 0.2162782 -1.081712
v -0.2785465 0.1330457 -1.14254
v -0.1299472 0.2305642 -0.9110387
v -0.1299472 0.2305642 -0.9110387
v -0.2785465 0.1330457 -1.14254
v 0.5631934 -0.1226202 -1.014926
v 0.3103893 0.2688645 -0.5922507
v -0.05936948 0.2369553 -0.8595734
v -0.2785465 0.1330457 -1.14254
v -0.04154407 -0.5322224 0.5283709
v 0.07603517 -0.6444127 0.5288436
v 0.5236484 -0.7593962 -0.6562945
v 0.2336985 -0.4303042 0.5609609
v 0.4335385 -0.1692924 0.5833543
v 0.5236484 -0.7593962 -0.6562945
v 0.07603517 -0.6444127 0.5288436
v 0.2609036 0.2633542 0.1886777
v 0.5631934 -0.1226202 -1.014926
v 0.4345398 -0.09070384 0.5872021
v 0.3865027 -0.006351247 0.5889295
v 0.325242 0.1042977 0.5658068
v 0.2936596 0.1609993 0.5567032
v 0.2590595 0.2304079 0.4867093
v 0.252236 0.2624967 0.3213831
v 0.4596461 -0.1350628 0.5862861
v 0.4345398 -0.09070384 0.5872021
v 0.5631934 -0.1226202 -1.014926
v 0.7746442 -0.5242125 -0.7937968
v 0.4335385 -0.1692924 0.5833543
v 0.4596461 -0.1350628 0.5862861
v 0.7746442 -0.5242125 -0.7937968
v 0.5236484 -0.7593962 -0.6562945
v 0.4345398 -0.09070384 0.5872021
v 0.4596461 -0.1350628 0.5862861
v 0.4335385 -0.1692924 0.5833543
v 0.3865027 -0.006351247 0.5889295
v 0.2336985 -0.4303042 0.5609609
v -0.1482835 -0.05355882 0.5604848
v 0.07603517 -0.6444127 0.5288436
v 0.325242 0.1042977 0.5658068
v -0.04154407 -0.5322224 0.5283709
v -0.1441049 -0.4341407 0.5279776
v -0.5347007 -0.06962512 0.5608314
v 0.2936596 0.1609993 0.5567032
v -0.1515953 0.1189871 0.5378503
v -0.6976579 0.09197898 0.5382623
v -0.1513917 0.1916793 0.4700623
v 0.2590595 0.2304079 0.4867093
v -0.7514823 0.1611834 0.4705476
v 0.252236 0.2624967 0.3213831
v 0.2590595 0.2304079 0.4867093
v -0.1513917 0.1916793 0.4700623
v -0.1505773 0.2241589 0.3058071
v 0.2609036 0.2633542 0.1886777
v 0.3103893 0.2688645 -0.5922507
v -0.05936948 0.2369553 -0.8595734
v -0.740409 0.1937392 0.3063165
v -0.7514823 0.1611834 0.4705476
v -0.4908296 0.2107158 -0.6661214
v -0.4409293 0.2141505 -0.8595131
v -0.1468291 0.2291564 -0.8599473
v -0.3817092 0.2162782 -1.081712
v -0.1470291 0.2288898 -0.9236537
v -0.1299472 0.2305642 -0.9110387
vt 0 0
vt 1 1
vt 1 0
vt 0 0
vt 1 1
vt 1 0
vt 1 0
vt 0.3198242 0
vt 1 0.6899414
vt 0.1194458 0.1194458
vt 1 1
vt 1 0.7490234
vt 0.8349609 0.2366943
vt 0.7792969 0.1501465
vt 0.2116699 0.1196899
vt 0.7041016 0.114502
vt 0.5488281 0.1025391
vt 1 0.7319336
vt 0.8662109 0.7382813
vt 0.7490234 0.7490234
vt 1 1
vt 0.9829102 0.6923828
vt 0.7319336 0.7319336
vt 1 1
vt 1 0.6875
vt 0.6875 0.6875
vt 1 1
vt 1 0
vt 0.3103027 0
vt 0.6264648 0.5771484
vt 1 1
vt 1 0.1194458
vt 0.8398438 0
vt 0 0
vt 0.8623047 0.4680176
vt 0.8779297 0
vt 0 0
vt 0.8398438 0.8398438
vt 0.3198242 0.3198242
vt 1 1
vt 1 0.09503174
vt 0.8417969 0.09399414
vt 0.6328125 0.1069946
vt 0.5258789 0.1120605
vt 0.3928223 0.1514893
vt 0.326416 0.244873
vt 0.1091919 0
vt 0.09503174 0.09503174
vt 1 1
vt 1 0
vt 0.1219482 0
vt 0.1091919 0.1091919
vt 1 1
vt 1 0
vt 0.8574219 0.8686523
vt 0.8657227 0.8535156
vt 0.8574219 0.8417969
vt 0.8413086 0.8974609
vt 0.7905273 0.7524414
vt 0.6625977 0.8813477
vt 0.737793 0.6791992
vt 0.8208008 0.9350586
vt 0.6987305 0.7172852
vt 0.6640625 0.7509766
vt 0.5336914 0.8754883
vt 0.8105469 0.9545898
vt 0.6616211 0.9404297
vt 0.479248 0.9311523
vt 0.6616211 0.9648438
vt 0.7988281 0.9785156
vt 0.4611816 0.9545898
vt 0.8081055 0.08300781
vt 0.8105469 0.02511597
vt 0.6689453 0.03094482
vt 0.6694336 0.08843994
vt 0.8110352 0.1293945
vt 0.828125 0.402832
vt 0.7006836 0.4963379
vt 0.4660645 0.08825684
vt 0.4621582 0.03077698
vt 0.5522461 0.4287109
vt 0.5693359 0.4963379
vt 0.6708984 0.4963379
vt 0.5898438 0.5742188
vt 0.6704102 0.5185547
vt 0.6762695 0.5141602
vn -0.01623535 -0.4887695 -0.8720703
vn -0.01623535 -0.4887695 -0.8720703
vn -0.01623535 -0.4887695 -0.8720703
vn -0.01763916 -0.4904785 -0.8710938
vn -0.01763916 -0.4904785 -0.8710938
vn -0.01763916 -0.4904785 -0.8710938
vn 0.8662109 0.4963379 0.05838013
vn 0.8662109 0.4963379 0.05838013
vn 0.8662109 0.4963379 0.05838013
vn -0.6787109 -0.7104492 -0.1865234
vn -0.6787109 -0.7104492 -0.1865234
vn -0.6787109 -0.7104492 -0.1865234
vn -0.6787109 -0.7104492 -0.1865234
vn -0.6787109 -0.7104492 -0.1865234
vn -0.6787109 -0.7104492 -0.1865234
vn -0.6787109 -0.7104492 -0.1865234
vn -0.6787109 -0.7104492 -0.1865234
vn -0.6816406 -0.7070313 -0.1884766
vn -0.6816406 -0.7070313 -0.1884766
vn -0.6816406 -0.7070313 -0.1884766
vn -0.6816406 -0.7070313 -0.1884766
vn 0.3173828 0.7836914 -0.5336914
vn 0.3173828 0.7836914 -0.5336914
vn 0.3173828 0.7836914 -0.5336914
vn 0.3173828 0.7836914 -0.5336914
vn 0.3188477 0.7827148 -0.5341797
vn 0.3188477 0.7827148 -0.5341797
vn 0.3188477 0.7827148 -0.5341797
vn 0.3188477 0.7827148 -0.5341797
vn 0.3188477 0.7827148 -0.5341797
vn -0.6777344 -0.7109375 -0.1870117
vn -0.6777344 -0.7109375 -0.1870117
vn -0.6777344 -0.7109375 -0.1870117
vn -0.6777344 -0.7109375 -0.1870117
vn 0.734375 -0.5908203 0.3347168
vn 0.734375 -0.5908203 0.3347168
vn 0.734375 -0.5908203 0.3347168
vn 0.734375 -0.5908203 0.3347168
vn 0.8681641 0.4931641 0.05987549
vn 0.8681641 0.4931641 0.05987549
vn 0.8681641 0.4931641 0.05987549
vn 0.8681641 0.4931641 0.05987549
vn 0.8681641 0.4931641 0.05987549
vn 0.8681641 0.4931641 0.05987549
vn 0.8681641 0.4931641 0.05987549
vn 0.8681641 0.4931641 0.05987549
vn 0.8691406 0.4907227 0.06002808
vn 0.8691406 0.4907227 0.06002808
vn 0.8691406 0.4907227 0.06002808
vn 0.8691406 0.4907227 0.06002808
vn 0.7353516 -0.5893555 0.3339844
vn 0.7353516 -0.5893555 0.3339844
vn 0.7353516 -0.5893555 0.3339844
vn 0.7353516 -0.5893555 0.3339844
vn -0.06561279 -0.06530762 0.9956055
vn -0.06561279 -0.06530762 0.9956055
vn -0.06561279 -0.06530762 0.9956055
vn -0.06347656 0.01095581 0.9980469
vn -0.06561279 -0.06530762 0.9956055
vn -0.0317688 0.02984619 0.9990234
vn -0.06561279 -0.06530762 0.9956055
vn -0.05883789 0.1433105 0.987793
vn -0.06561279 -0.06530762 0.9956055
vn -0.04769897 -0.07037354 0.996582
vn -0.0027771 0.07647705 0.9970703
vn -0.0760498 0.3691406 0.9262695
vn -0.050354 0.4284668 0.9023438
vn -0.02648926 0.5449219 0.8383789
vn -0.07354736 0.8730469 0.4821777
vn -0.1017456 0.8530273 0.512207
vn -0.04522705 0.8964844 0.4406738
vn -0.09613037 0.9902344 0.0993042
vn -0.1017456 0.8530273 0.512207
vn -0.07354736 0.8730469 0.4821777
vn -0.0736084 0.9926758 0.09747314
vn -0.09112549 0.9956055 0.002746582
vn -0.09112549 0.9956055 0.002746582
vn -0.09088135 0.9960938 0.001739502
vn -0.05081177 0.9926758 0.1091309
vn -0.04522705 0.8964844 0.4406738
vn -0.05133057 0.9985352 0.004180908
vn -0.05117798 0.9985352 0.0007629395
vn -0.07092285 0.9975586 0.0001525879
vn -0.05093384 0.9985352 -0.003997803
vn -0.06274414 0.9980469 -0.003479004
vn -0.08996582 0.9960938 -0.002258301
g Ice_cell.001_0
f 3/3/3 2/2/2 1/1/1
f 6/6/6 5/5/5 4/4/4
f 9/9/9 8/8/8 7/7/7
f 12/12/12 11/11/11 10/10/10
f 10/10/10 13/13/13 12/12/12
f 10/10/10 14/14/14 13/13/13
f 10/10/10 15/15/15 14/14/14
f 16/16/16 14/14/14 15/15/15
f 15/15/15 17/17/17 16/16/16
f 20/20/20 19/19/19 18/18/18
f 21/21/21 20/20/20 18/18/18
f 24/24/24 23/23/23 22/22/22
f 25/25/25 24/24/24 22/22/22
f 28/28/28 27/27/27 26/26/26
f 26/26/26 29/29/29 28/28/28
f 26/26/26 30/30/30 29/29/29
f 33/33/33 32/32/32 31/31/31
f 34/34/34 33/33/33 31/31/31
f 37/37/37 36/36/36 35/35/35
f 38/38/38 37/37/37 35/35/35
f 41/41/41 40/40/40 39/39/39
f 39/39/39 42/42/42 41/41/41
f 39/39/39 43/43/43 42/42/42
f 39/39/39 44/44/44 43/43/43
f 39/39/39 45/45/45 44/44/44
f 39/39/39 46/46/46 45/45/45
f 49/49/49 48/48/48 47/47/47
f 50/50/50 49/49/49 47/47/47
f 53/53/53 52/52/52 51/51/51
f 54/54/54 53/53/53 51/51/51
f 57/57/57 56/56/56 55/55/55
f 55/55/55 58/58/58 57/57/57
f 58/58/58 59/59/59 57/57/57
f 58/58/58 60/60/60 59/59/59
f 60/60/60 61/61/61 59/59/59
f 60/60/60 58/58/58 62/62/62
f 60/60/60 63/63/63 61/61/61
f 60/60/60 64/64/64 63/63/63
f 60/60/60 65/65/65 64/64/64
f 62/62/62 66/66/66 60/60/60
f 65/65/65 60/60/60 67/67/67
f 66/66/66 67/67/67 60/60/60
f 68/68/68 65/65/65 67/67/67
f 67/67/67 66/66/66 69/69/69
f 67/67/67 69/69/69 68/68/68
f 66/66/66 70/70/70 69/69/69
f 69/69/69 71/71/71 68/68/68
f 74/74/74 73/73/73 72/72/72
f 75/75/75 74/74/74 72/72/72
f 75/75/75 72/72/72 76/76/76
f 75/75/75 76/76/76 77/77/77
f 75/75/75 77/77/77 78/78/78
f 75/75/75 79/79/79 74/74/74
f 79/79/79 80/80/80 74/74/74
f 81/81/81 79/79/79 75/75/75
f 82/82/82 81/81/81 75/75/75
f 75/75/75 83/83/83 82/82/82
f 78/78/78 83/83/83 75/75/75
f 82/82/82 83/83/83 84/84/84
f 83/83/83 85/85/85 84/84/84
f 83/83/83 78/78/78 85/85/85
f 78/78/78 86/86/86 85/85/85
