g Ice_cell.012
v -0.1954081 -0.2458829 -1.09331
v -0.1989338 -0.5181333 -0.9970537
v -0.05253195 -0.4826926 -1.01169
v -0.1106856 0.5074229 0.3441285
v -0.1405919 0.6133986 0.1312504
v -0.1362013 0.6511306 0.05626662
v 0.04955988 0.5095245 0.3485724
v -0.1469415 0.558844 -0.0741224
v 0.2582702 0.04815254 0.3355637
v 0.2055932 0.1589682 0.3324861
v 0.1024406 0.3959538 0.3490341
v 0.04955988 0.5095245 0.3485724
v -0.1362013 0.6511306 0.05626662
v -0.1926906 -0.03585007 -0.8520275
v 0.3766567 -0.2031265 0.3407736
v 0.3293489 -0.1017711 0.3397495
v 0.2582702 0.04815254 0.3355637
v -0.1897577 0.1908498 -0.5906595
v -0.1469415 0.558844 -0.0741224
v -0.1954081 -0.2458829 -1.09331
v -0.05253195 -0.4826926 -1.01169
v 0.4073064 -0.2689936 0.3414464
v 0.3766567 -0.2031265 0.3407736
v -0.1926906 -0.03585007 -0.8520275
v 0.4073064 -0.2689936 0.3414464
v -0.05253195 -0.4826926 -1.01169
v -0.1989338 -0.5181333 -0.9970537
v -0.1986532 -0.4963208 -0.6999282
v 0.3652461 -0.2792119 0.3451547
v 0.3652461 -0.2792119 0.3451547
v -0.1986532 -0.4963208 -0.6999282
v -0.1978249 -0.4319171 0.1424787
v -0.1542531 -0.4047622 0.3594195
v 0.07208415 -0.3487116 0.3709227
v 0.008781473 -0.3642132 0.3699993
v 0.3766567 -0.2031265 0.3407736
v 0.4073064 -0.2689936 0.3414464
v 0.3652461 -0.2792119 0.3451547
v 0.3293489 -0.1017711 0.3397495
v 0.07208415 -0.3487116 0.3709227
v 0.2582702 0.04815254 0.3355637
v 0.2055932 0.1589682 0.3324861
v 0.07644596 0.1686174 0.3467709
v 0.1024406 0.3959538 0.3490341
v 0.04955988 0.5095245 0.3485724
v -0.1474968 0.1878574 0.3400292
v -0.1106856 0.5074229 0.3441285
v 0.008781473 -0.3642132 0.3699993
v -0.1542531 -0.4047622 0.3594195
v -0.1469415 0.558844 -0.0741224
v -0.1362013 0.6511306 0.05626662
v -0.1405919 0.6133986 0.1312504
v -0.1897628 0.1908669 0.1247456
v -0.1897577 0.1908498 -0.5906595
v -0.1106856 0.5074229 0.3441285
v -0.1926906 -0.03585007 -0.8520275
v -0.1474968 0.1878574 0.3400292
v -0.1542531 -0.4047622 0.3594195
v -0.1978249 -0.4319171 0.1424787
v -0.1954081 -0.2458829 -1.09331
v -0.1986532 -0.4963208 -0.6999282
v -0.1989338 -0.5181333 -0.9970537
vt 0.4802246 0.4802246
vt 0.4909668 0
vt 0 0
vt 0.7055664 0.2590332
vt 0.902832 0.512207
vt 1 0.6015625
vt 1 0.2529297
vt 1 0.7573242
vt 1 0.2695313
vt 0.8325195 0.2729492
vt 0.4296875 0.2526855
vt 0.2529297 0.2529297
vt 0.6015625 0.6015625
vt 0.8110352 0
vt 0.1269531 0
vt 0.18396 0.1088867
vt 0.2695313 0.2695313
vt 0.8081055 0.2834473
vt 0.7573242 0.7573242
vt 1 0.4802246
vt 1 0
vt 0.1401367 0
vt 0.1269531 0.1269531
vt 0.8110352 0.8110352
vt 0.8598633 0
vt 0 0
vt 0.4909668 0.4909668
vt 1 0.8173828
vt 1 0.1405029
vt 0.1405029 0.1405029
vt 0.8173828 0.8173828
vt 0.8178711 0.2714844
vt 0.7661133 0.1309814
vt 0.4934082 0.1236572
vt 0.5698242 0.1242065
vt 0.1923828 0.2242432
vt 0.2026367 0.2016602
vt 0.1885986 0.1982422
vt 0.1765137 0.2590332
vt 0.09082031 0.1745605
vt 0.1529541 0.3103027
vt 0.135376 0.3483887
vt 0.09228516 0.3515625
vt 0.1009521 0.4294434
vt 0.08325195 0.4682617
vt 0.01745605 0.3581543
vt 0.02973938 0.4675293
vt 0.06970215 0.1691895
vt 0.01519012 0.1553955
vt 0.840332 0.4916992
vt 0.8857422 0.5249023
vt 0.9121094 0.5112305
vt 0.909668 0.3598633
vt 0.6611328 0.3598633
vt 0.9858398 0.4733887
vt 0.5703125 0.2788086
vt 0.984375 0.3588867
vt 0.9912109 0.1466064
vt 0.9160156 0.1369629
vt 0.4863281 0.2034912
vt 0.6230469 0.1138306
vt 0.5200195 0.1060181
vn -0.01361084 -0.333252 -0.9428711
vn -0.01361084 -0.333252 -0.9428711
vn -0.01361084 -0.333252 -0.9428711
vn -0.02415466 0.8935547 0.4482422
vn -0.02415466 0.8935547 0.4482422
vn -0.02415466 0.8935547 0.4482422
vn -0.02415466 0.8935547 0.4482422
vn 0.8500977 0.3942871 -0.3491211
vn 0.8500977 0.3942871 -0.3491211
vn 0.8500977 0.3942871 -0.3491211
vn 0.8500977 0.3942871 -0.3491211
vn 0.8500977 0.3942871 -0.3491211
vn 0.8500977 0.3942871 -0.3491211
vn 0.8500977 0.3933105 -0.3505859
vn 0.8500977 0.3933105 -0.3505859
vn 0.8500977 0.3933105 -0.3505859
vn 0.8500977 0.3933105 -0.3505859
vn 0.8500977 0.3933105 -0.3505859
vn 0.8500977 0.3933105 -0.3505859
vn 0.8505859 0.3920898 -0.3508301
vn 0.8505859 0.3920898 -0.3508301
vn 0.8505859 0.3920898 -0.3508301
vn 0.8505859 0.3920898 -0.3508301
vn 0.8505859 0.3920898 -0.3508301
vn 0.241333 -0.9677734 0.07080078
vn 0.241333 -0.9677734 0.07080078
vn 0.241333 -0.9677734 0.07080078
vn 0.241333 -0.9677734 0.07080078
vn 0.241333 -0.9677734 0.07080078
vn 0.2362061 -0.96875 0.07385254
vn 0.2362061 -0.96875 0.07385254
vn 0.2362061 -0.96875 0.07385254
vn 0.2362061 -0.96875 0.07385254
vn 0.2362061 -0.96875 0.07385254
vn 0.2362061 -0.96875 0.07385254
vn 0.08227539 0.05111694 0.9951172
vn 0.08227539 0.05111694 0.9951172
vn 0.08227539 0.05111694 0.9951172
vn 0.08227539 0.05111694 0.9951172
vn 0.009155273 0.04574585 0.9990234
vn 0.08227539 0.05111694 0.9951172
vn 0.09124756 0.02603149 0.9956055
vn 0.0272522 0.01568604 0.9995117
vn -0.005737305 -0.01071167 1
vn -0.02890015 -0.008331299 0.9995117
vn -0.6635742 0.05184937 0.746582
vn -0.6904297 0.07122803 0.7202148
vn -0.04418945 0.04165649 0.9980469
vn -0.7172852 0.03594971 0.6958008
vn -0.9931641 0.1156006 0
vn -0.9931641 0.1156006 0
vn -0.9912109 0.1141357 0.06988525
vn -0.9931641 0.0645752 0.09545898
vn -0.9995117 0.03390503 0
vn -0.6904297 0.07122803 0.7202148
vn -1 0.01293945 0
vn -0.6635742 0.05184937 0.746582
vn -0.7172852 0.03594971 0.6958008
vn -0.9956055 0.01535034 0.09277344
vn -1 0.01293945 0
vn -1 0.01293945 0
vn -1 0.01293945 0
g Ice_cell.012_0
f 3/3/3 2/2/2 1/1/1
f 6/6/6 5/5/5 4/4/4
f 7/7/7 6/6/6 4/4/4
f 10/10/10 9/9/9 8/8/8
f 8/8/8 11/11/11 10/10/10
f 8/8/8 12/12/12 11/11/11
f 8/8/8 13/13/13 12/12/12
f 16/16/16 15/15/15 14/14/14
f 14/14/14 17/17/17 16/16/16
f 14/14/14 18/18/18 17/17/17
f 18/18/18 19/19/19 17/17/17
f 22/22/22 21/21/21 20/20/20
f 20/20/20 23/23/23 22/22/22
f 20/20/20 24/24/24 23/23/23
f 27/27/27 26/26/26 25/25/25
f 25/25/25 28/28/28 27/27/27
f 25/25/25 29/29/29 28/28/28
f 32/32/32 31/31/31 30/30/30
f 30/30/30 33/33/33 32/32/32
f 30/30/30 34/34/34 33/33/33
f 34/34/34 35/35/35 33/33/33
f 38/38/38 37/37/37 36/36/36
f 36/36/36 39/39/39 38/38/38
f 39/39/39 40/40/40 38/38/38
f 39/39/39 41/41/41 40/40/40
f 41/41/41 42/42/42 40/40/40
f 42/42/42 43/43/43 40/40/40
f 43/43/43 42/42/42 44/44/44
f 43/43/43 44/44/44 45/45/45
f 40/40/40 43/43/43 46/46/46
f 45/45/45 46/46/46 43/43/43
f 45/45/45 47/47/47 46/46/46
f 46/46/46 48/48/48 40/40/40
f 46/46/46 49/49/49 48/48/48
f 52/52/52 51/51/51 50/50/50
f 53/53/53 52/52/52 50/50/50
f 50/50/50 54/54/54 53/53/53
f 55/55/55 52/52/52 53/53/53
f 53/53/53 54/54/54 56/56/56
f 57/57/57 55/55/55 53/53/53
f 57/57/57 53/53/53 58/58/58
f 53/53/53 59/59/59 58/58/58
f 53/53/53 56/56/56 60/60/60
f 59/59/59 53/53/53 60/60/60
f 61/61/61 59/59/59 60/60/60
f 60/60/60 62/62/62 61/61/61
