g Ice_cell.005
v -0.06656843 -0.1741583 -1.070609
v 0.2155981 -0.2023237 -1.103233
v 0.2133068 -0.01875539 -0.9044945
v 0.2133068 -0.01875539 -0.9044945
v -0.3208289 0.218069 -0.6438081
v -0.06656843 -0.1741583 -1.070609
v 0.1785181 0.156676 -0.7143139
v 0.107614 0.2238233 -0.641027
v -0.06009574 0.2423184 -0.6196476
v 0.2133068 -0.01875539 -0.9044945
v 0.1785181 0.156676 -0.7143139
v -0.3208289 0.218069 -0.6438081
v 0.1445368 -0.5729784 -0.8505138
v 0.2171631 -0.3292283 -0.359214
v 0.2198491 -0.5432656 -0.8831866
v 0.2187827 -0.4577104 -0.938504
v 0.1445368 -0.5729784 -0.8505138
v 0.2198491 -0.5432656 -0.8831866
v -0.1729914 -0.1833281 0.533164
v 0.1445368 -0.5729784 -0.8505138
v -0.3287239 0.2168924 -0.5256922
v -0.3287239 0.2168924 -0.5256922
v -0.2451824 -0.05718608 0.5357297
v -0.1729914 -0.1833281 0.533164
v 0.2171631 -0.3292283 -0.359214
v 0.1445368 -0.5729784 -0.8505138
v -0.1729914 -0.1833281 0.533164
v 0.2138134 -0.06224285 0.2933002
v 0.1850372 -0.02035846 0.4346455
v 0.166569 0.002477691 0.5155436
v 0.1094509 -0.02637032 0.5243481
v -0.04128776 -0.1049818 0.5415662
v -0.05988184 -0.1153827 0.5419819
v -0.3208289 0.218069 -0.6438081
v -0.3287239 0.2168924 -0.5256922
v 0.1445368 -0.5729784 -0.8505138
v -0.06656843 -0.1741583 -1.070609
v -0.06656843 -0.1741583 -1.070609
v 0.1445368 -0.5729784 -0.8505138
v 0.2187827 -0.4577104 -0.938504
v 0.2155981 -0.2023237 -1.103233
v -0.05988184 -0.1153827 0.5419819
v -0.1729914 -0.1833281 0.533164
v -0.2451824 -0.05718608 0.5357297
v -0.06079113 -0.04090919 0.5455373
v -0.06278186 0.1361719 0.5150921
v -0.04128776 -0.1049818 0.5415662
v -0.307384 0.05463025 0.512343
v 0.1094509 -0.02637032 0.5243481
v -0.3384589 0.1101603 0.5034196
v -0.06158711 0.2089583 0.4460483
v -0.3732533 0.1795506 0.4334078
v 0.09545175 0.2048795 0.444133
v 0.1555006 0.1390862 0.5071933
v 0.166569 0.002477691 0.5155436
v 0.1074603 0.2238168 0.290442
v 0.1783887 0.1566611 0.2937771
v 0.107614 0.2238233 -0.641027
v 0.1785181 0.156676 -0.7143139
v -0.3287239 0.2168924 -0.5256922
v -0.3208289 0.218069 -0.6438081
v -0.06009574 0.2423184 -0.6196476
v -0.06027382 0.242081 0.2804375
v -0.3802189 0.2116303 0.2680658
v -0.3732533 0.1795506 0.4334078
v -0.06158711 0.2089583 0.4460483
v 0.09545175 0.2048795 0.444133
v 0.1074603 0.2238168 0.290442
v 0.107614 0.2238233 -0.641027
v -0.3287239 0.2168924 -0.5256922
v -0.307384 0.05463025 0.512343
v -0.2451824 -0.05718608 0.5357297
v -0.3384589 0.1101603 0.5034196
v -0.3732533 0.1795506 0.4334078
v -0.3802189 0.2116303 0.2680658
v 0.166569 0.002477691 0.5155436
v 0.1555006 0.1390862 0.5071933
v 0.1783887 0.1566611 0.2937771
v 0.2132695 -0.01870407 0.2940705
v 0.1850372 -0.02035846 0.4346455
v 0.1785181 0.156676 -0.7143139
v 0.2133068 -0.01875539 -0.9044945
v 0.2138134 -0.06224285 0.2933002
v 0.2155981 -0.2023237 -1.103233
v 0.2171631 -0.3292283 -0.359214
v 0.2187827 -0.4577104 -0.938504
v 0.2198491 -0.5432656 -0.8831866
vt 0 0
vt 0.3583984 0
vt 0.6630859 0.3000488
vt 0.6630859 0.3000488
vt 0.6914063 0
vt 0 0
vt 0.5830078 0.5698242
vt 0.7011719 0.5356445
vt 0.7338867 0.3427734
vt 0.6630859 0.3000488
vt 0.5830078 0.5698242
vt 0.6914063 0
vt 0 0
vt 0.3164063 0.3164063
vt 0.3310547 0
vt 0.675293 0.675293
vt 1 1
vt 1 0.6689453
vt 1 0.890625
vt 1 0
vt 0.1824951 0
vt 0.1824951 0
vt 0.8549805 0.002857208
vt 1 0.890625
vt 0.3164063 0
vt 0 0
vt 0.890625 0.890625
vt 0.7363281 0.170166
vt 0.8271484 0.2548828
vt 0.8793945 0.3068848
vt 0.8847656 0.4064941
vt 0.8959961 0.6679688
vt 0.8959961 0.699707
vt 0.6914063 0.6914063
vt 1 0.8173828
vt 1 0
vt 0 0
vt 0 0
vt 1 1
vt 1 0.675293
vt 0.6416016 0
vt 0.9052734 0.8774414
vt 0.8676758 0.8544922
vt 0.8432617 0.8974609
vt 0.9052734 0.902832
vt 0.9042969 0.9638672
vt 0.9116211 0.8813477
vt 0.8227539 0.9360352
vt 0.9619141 0.9082031
vt 0.8125 0.9545898
vt 0.9047852 0.9887695
vt 0.8007813 0.9785156
vt 0.9570313 0.9873047
vt 0.9775391 0.9648438
vt 0.980957 0.9179688
vt 0.9614258 0.9936523
vt 0.9848633 0.9707031
vt 0.9614258 0.9936523
vt 0.9848633 0.9707031
vt 0.8276367 0.3605957
vt 0.8305664 0.4020996
vt 0.9204102 0.3935547
vt 0.9204102 0.07855225
vt 0.8100586 0.08288574
vt 0.8125 0.02503967
vt 0.9199219 0.02061462
vt 0.9741211 0.02128601
vt 0.9780273 0.07507324
vt 0.9780273 0.401123
vt 0.1824951 0
vt 0.8349609 0.1940918
vt 0.8549805 0.002857208
vt 0.8271484 0.2912598
vt 0.7666016 0.3620605
vt 0.6235352 0.2797852
vt 0.996582 0.9448242
vt 0.9936523 0.9936523
vt 0.9194336 1
vt 0.9199219 0.9370117
vt 0.96875 0.9365234
vt 0.5693359 1
vt 0.503418 0.9370117
vt 0.9194336 0.9213867
vt 0.434082 0.871582
vt 0.6928711 0.8261719
vt 0.4914551 0.7797852
vt 0.5107422 0.7495117
vn -0.005355835 0.7348633 -0.6782227
vn -0.005355835 0.7348633 -0.6782227
vn -0.005355835 0.7348633 -0.6782227
vn -0.005355835 0.7348633 -0.6782227
vn -0.005355835 0.7348633 -0.6782227
vn -0.005355835 0.7348633 -0.6782227
vn -0.005355835 0.7348633 -0.6782227
vn -0.005355835 0.7348633 -0.6782227
vn -0.005355835 0.7348633 -0.6782227
vn -0.005355835 0.7348633 -0.6782227
vn -0.005355835 0.7348633 -0.6782227
vn -0.005355835 0.7348633 -0.6782227
vn 0.4682617 -0.8173828 0.3361816
vn 0.4682617 -0.8173828 0.3361816
vn 0.4682617 -0.8173828 0.3361816
vn -0.147583 -0.5380859 -0.8295898
vn -0.147583 -0.5380859 -0.8295898
vn -0.147583 -0.5380859 -0.8295898
vn -0.8666992 -0.494873 -0.05957031
vn -0.8666992 -0.494873 -0.05957031
vn -0.8666992 -0.494873 -0.05957031
vn -0.8666992 -0.494873 -0.05957031
vn -0.8666992 -0.494873 -0.05957031
vn -0.8666992 -0.494873 -0.05957031
vn 0.465332 -0.8183594 0.3371582
vn 0.465332 -0.8183594 0.3371582
vn 0.465332 -0.8183594 0.3371582
vn 0.465332 -0.8183594 0.3371582
vn 0.465332 -0.8183594 0.3371582
vn 0.465332 -0.8183594 0.3371582
vn 0.465332 -0.8183594 0.3371582
vn 0.465332 -0.8183594 0.3371582
vn 0.465332 -0.8183594 0.3371582
vn -0.8671875 -0.4938965 -0.06286621
vn -0.8671875 -0.4938965 -0.06286621
vn -0.8671875 -0.4938965 -0.06286621
vn -0.8671875 -0.4938965 -0.06286621
vn -0.1496582 -0.5371094 -0.8300781
vn -0.1496582 -0.5371094 -0.8300781
vn -0.1496582 -0.5371094 -0.8300781
vn -0.1496582 -0.5371094 -0.8300781
vn 0.007324219 -0.04077148 0.9990234
vn -0.04879761 -0.04821777 0.9975586
vn -0.05914307 0.08496094 0.9946289
vn 0.0196228 0.05310059 0.9985352
vn -0.0171814 0.4404297 0.8974609
vn 0.1170044 -0.02590942 0.9926758
vn -0.0645752 0.1605225 0.9848633
vn 0.0791626 0.1039429 0.9912109
vn -0.08673096 0.5058594 0.8583984
vn -0.02844238 0.8803711 0.4729004
vn -0.102417 0.8891602 0.4458008
vn 0.300293 0.8706055 0.3901367
vn 0.5942383 0.4511719 0.6660156
vn 0.6401367 0.1689453 0.7495117
vn 0.4077148 0.909668 0.07910156
vn 0.8754883 0.4768066 0.07727051
vn 0.4831543 0.8754883 0.0001220703
vn 0.934082 0.3569336 6.103516E-05
vn -0.09436035 0.9956055 0.0005187988
vn -0.09436035 0.9956055 0.0005187988
vn 0.008361816 1 0.0003356934
vn -0.004852295 0.9960938 0.08929443
vn -0.09771729 0.9907227 0.09661865
vn -0.102417 0.8891602 0.4458008
vn -0.02844238 0.8803711 0.4729004
vn 0.300293 0.8706055 0.3901367
vn 0.4077148 0.909668 0.07910156
vn 0.4831543 0.8754883 0.0001220703
vn -0.8666992 -0.494873 -0.05957031
vn -0.8666992 -0.494873 -0.05957031
vn -0.8666992 -0.494873 -0.05957031
vn -0.8666992 -0.494873 -0.05957031
vn -0.8666992 -0.494873 -0.05957031
vn -0.8666992 -0.494873 -0.05957031
vn 0.6401367 0.1689453 0.7495117
vn 0.5942383 0.4511719 0.6660156
vn 0.8754883 0.4768066 0.07727051
vn 0.9916992 0.09088135 0.08935547
vn 0.9780273 0.1328125 0.1608887
vn 0.934082 0.3569336 6.103516E-05
vn 0.9985352 0.05630493 3.051758E-05
vn 0.9970703 0.01104736 0.07739258
vn 1 0.01245117 0
vn 1 0.01245117 0
vn 1 0.01245117 0
vn 1 0.01245117 0
g Ice_cell.005_0
f 3/3/3 2/2/2 1/1/1
f 6/6/6 5/5/5 4/4/4
f 5/5/5 8/8/8 7/7/7
f 5/5/5 9/9/9 8/8/8
f 12/12/12 11/11/11 10/10/10
f 15/15/15 14/14/14 13/13/13
f 18/18/18 17/17/17 16/16/16
f 21/21/21 20/20/20 19/19/19
f 24/24/24 23/23/23 22/22/22
f 27/27/27 26/26/26 25/25/25
f 25/25/25 28/28/28 27/27/27
f 28/28/28 29/29/29 27/27/27
f 29/29/29 30/30/30 27/27/27
f 30/30/30 31/31/31 27/27/27
f 31/31/31 32/32/32 27/27/27
f 32/32/32 33/33/33 27/27/27
f 36/36/36 35/35/35 34/34/34
f 37/37/37 36/36/36 34/34/34
f 40/40/40 39/39/39 38/38/38
f 41/41/41 40/40/40 38/38/38
f 44/44/44 43/43/43 42/42/42
f 45/45/45 44/44/44 42/42/42
f 44/44/44 45/45/45 46/46/46
f 42/42/42 47/47/47 45/45/45
f 46/46/46 48/48/48 44/44/44
f 47/47/47 49/49/49 45/45/45
f 46/46/46 45/45/45 49/49/49
f 46/46/46 50/50/50 48/48/48
f 46/46/46 51/51/51 50/50/50
f 51/51/51 52/52/52 50/50/50
f 53/53/53 51/51/51 46/46/46
f 54/54/54 46/46/46 49/49/49
f 54/54/54 53/53/53 46/46/46
f 49/49/49 55/55/55 54/54/54
f 56/56/56 53/53/53 54/54/54
f 57/57/57 56/56/56 54/54/54
f 56/56/56 57/57/57 58/58/58
f 57/57/57 59/59/59 58/58/58
f 62/62/62 61/61/61 60/60/60
f 60/60/60 63/63/63 62/62/62
f 60/60/60 64/64/64 63/63/63
f 63/63/63 64/64/64 65/65/65
f 66/66/66 63/63/63 65/65/65
f 66/66/66 67/67/67 63/63/63
f 67/67/67 68/68/68 63/63/63
f 63/63/63 68/68/68 62/62/62
f 68/68/68 69/69/69 62/62/62
f 72/72/72 71/71/71 70/70/70
f 71/71/71 73/73/73 70/70/70
f 73/73/73 74/74/74 70/70/70
f 74/74/74 75/75/75 70/70/70
f 78/78/78 77/77/77 76/76/76
f 79/79/79 78/78/78 76/76/76
f 76/76/76 80/80/80 79/79/79
f 81/81/81 78/78/78 79/79/79
f 82/82/82 81/81/81 79/79/79
f 79/79/79 80/80/80 83/83/83
f 82/82/82 79/79/79 83/83/83
f 84/84/84 82/82/82 83/83/83
f 84/84/84 83/83/83 85/85/85
f 86/86/86 84/84/84 85/85/85
f 85/85/85 87/87/87 86/86/86
