g Ice_cell.007
v -0.1087594 0.1993306 0.01282462
v -0.1594651 0.1822523 -0.04719669
v -0.1092503 0.1869889 -0.04881844
v -0.1092503 0.1869889 -0.04881844
v 0.04235101 0.1796711 -0.03778535
v 0.06019199 0.2018595 0.1107822
v -0.06005515 0.2072293 0.06743494
v -0.01777844 0.2103251 0.1134935
v 0.06017808 0.2018586 0.1933538
v 0.1691248 -0.3198117 0.1226243
v 0.1302179 -0.7935611 -0.08817431
v 0.00276842 -0.4774039 -0.1106172
v -0.1064833 -0.2167913 -0.1335759
v 0.1656414 -0.04072514 0.2187323
v -0.1459032 -0.1048415 -0.1354522
v -0.1595002 -0.06754446 -0.1365706
v -0.1953489 0.106149 -0.112568
v 0.1310077 0.1347329 0.2446578
v -0.1594651 0.1822523 -0.04719669
v 0.06017808 0.2018586 0.1933538
v -0.1087594 0.1993306 0.01282462
v -0.06005515 0.2072293 0.06743494
v -0.01777844 0.2103251 0.1134935
v -0.1595002 -0.06754446 -0.1365706
v -0.1459032 -0.1048415 -0.1354522
v -0.1064833 -0.2167913 -0.1335759
v -0.1083483 -0.06302663 -0.1385622
v -0.1083483 -0.06302663 -0.1385622
v 0.00276842 -0.4774039 -0.1106172
v 0.1204757 -0.04340753 -0.1078751
v 0.1302179 -0.7935611 -0.08817431
v 0.1027058 0.1085466 -0.09781113
v -0.110436 0.1141547 -0.1154943
v -0.1595002 -0.06754446 -0.1365706
v -0.1953489 0.106149 -0.112568
v -0.1594651 0.1822523 -0.04719669
v -0.1092503 0.1869889 -0.04881844
v 0.04235101 0.1796711 -0.03778535
v 0.1310244 0.1347371 0.1106392
v 0.06019199 0.2018595 0.1107822
v 0.1310077 0.1347329 0.2446578
v 0.06017808 0.2018586 0.1933538
v 0.06019199 0.2018595 0.1107822
v 0.1310244 0.1347371 0.1106392
v 0.1656414 -0.04072514 0.2187323
v 0.1310077 0.1347329 0.2446578
v 0.1310244 0.1347371 0.1106392
v 0.1656416 -0.04072425 0.1159608
v 0.1691248 -0.3198117 0.1226243
v 0.1027058 0.1085466 -0.09781113
v 0.1302179 -0.7935611 -0.08817431
v 0.1204757 -0.04340753 -0.1078751
vt 0.9199219 0.9482422
vt 0.9023438 0.9692383
vt 0.9199219 0.9702148
vt 0.9199219 0.9702148
vt 0.972168 0.9663086
vt 0.9780273 0.9140625
vt 0.9365234 0.9291992
vt 0.9511719 0.9130859
vt 0.9780273 0.8852539
vt 0.3342285 0.2858887
vt 0.6455078 0.4821777
vt 0.6782227 0.3510742
vt 0.7119141 0.2431641
vt 0.1922607 0.1704102
vt 0.7143555 0.1966553
vt 0.7163086 0.1812744
vt 0.6806641 0.1092529
vt 0.1538086 0.09765625
vt 0.5839844 0.07769775
vt 0.2293701 0.06976318
vt 0.4956055 0.07067871
vt 0.4150391 0.06744385
vt 0.347168 0.06622314
vt 0.8881836 0.9013672
vt 0.8925781 0.8886719
vt 0.9057617 0.8505859
vt 0.9052734 0.902832
vt 0.9052734 0.902832
vt 0.9423828 0.7612305
vt 0.9814453 0.909668
vt 0.9848633 0.652832
vt 0.9755859 0.9619141
vt 0.9042969 0.9638672
vt 0.887207 0.9057617
vt 0.8759766 0.9609375
vt 0.8881836 0.9868164
vt 0.9047852 0.9887695
vt 0.9555664 0.9858398
vt 0.9848633 0.9707031
vt 0.9614258 0.9936523
vt 0.9848633 0.9707031
vt 0.9614258 0.9936523
vt 0.9614258 0.9936523
vt 0.9848633 0.9707031
vt 0.1227417 0.9370117
vt 0.1317139 1
vt 0.08520508 1
vt 0.08703613 0.9370117
vt 0.08935547 0.8374023
vt 0.01273346 0.9907227
vt 0.01608276 0.6674805
vt 0.009231567 0.9360352
vn 0.04241943 0.9824219 -0.1816406
vn -0.09539795 0.8017578 -0.5898438
vn -0.005859375 0.8730469 -0.487793
vn -0.005859375 0.8730469 -0.487793
vn 0.3205566 0.8535156 -0.4106445
vn 0.4152832 0.9047852 -0.09503174
vn 0.08166504 0.980957 -0.1773682
vn 0.08898926 0.9873047 -0.130249
vn 0.5517578 0.8339844 9.155273E-05
vn -0.7075195 -0.2380371 0.6655273
vn -0.7075195 -0.2380371 0.6655273
vn -0.7075195 -0.2380371 0.6655273
vn -0.7075195 -0.2380371 0.6655273
vn -0.7075195 -0.2380371 0.6655273
vn -0.7075195 -0.2380371 0.6655273
vn -0.7075195 -0.2380371 0.6655273
vn -0.7075195 -0.2380371 0.6655273
vn -0.7075195 -0.2380371 0.6655273
vn -0.7075195 -0.2380371 0.6655273
vn -0.7075195 -0.2380371 0.6655273
vn -0.7075195 -0.2380371 0.6655273
vn -0.7075195 -0.2380371 0.6655273
vn -0.7075195 -0.2380371 0.6655273
vn -0.04580688 0.05667114 -0.9975586
vn -0.04324341 -0.03540039 -0.9985352
vn 0.1079712 -0.02865601 -0.9936523
vn 0.03515625 0.04309082 -0.9985352
vn 0.03515625 0.04309082 -0.9985352
vn 0.1257324 -0.02783203 -0.9916992
vn 0.6796875 0.07580566 -0.7294922
vn 0.730957 -0.01031494 -0.6826172
vn 0.6030273 0.4294434 -0.6723633
vn 0.012146 0.4228516 -0.90625
vn -0.04580688 0.05667114 -0.9975586
vn -0.06890869 0.3896484 -0.918457
vn -0.09539795 0.8017578 -0.5898438
vn -0.005859375 0.8730469 -0.487793
vn 0.3205566 0.8535156 -0.4106445
vn 0.8730469 0.4782715 -0.09436035
vn 0.4152832 0.9047852 -0.09503174
vn 0.8959961 0.4443359 9.155273E-05
vn 0.5517578 0.8339844 9.155273E-05
vn 0.4152832 0.9047852 -0.09503174
vn 0.8730469 0.4782715 -0.09436035
vn 0.9931641 0.118103 3.051758E-05
vn 0.8959961 0.4443359 9.155273E-05
vn 0.8730469 0.4782715 -0.09436035
vn 0.9912109 0.09368896 -0.09350586
vn 0.984375 0.008117676 -0.1751709
vn 0.6030273 0.4294434 -0.6723633
vn 0.730957 -0.01031494 -0.6826172
vn 0.6796875 0.07580566 -0.7294922
g Ice_cell.007_0
f 3/3/3 2/2/2 1/1/1
f 5/5/5 4/4/4 1/1/1
f 1/1/1 6/6/6 5/5/5
f 1/1/1 7/7/7 6/6/6
f 7/7/7 8/8/8 6/6/6
f 6/6/6 8/8/8 9/9/9
f 12/12/12 11/11/11 10/10/10
f 10/10/10 13/13/13 12/12/12
f 10/10/10 14/14/14 13/13/13
f 14/14/14 15/15/15 13/13/13
f 14/14/14 16/16/16 15/15/15
f 14/14/14 17/17/17 16/16/16
f 14/14/14 18/18/18 17/17/17
f 18/18/18 19/19/19 17/17/17
f 18/18/18 20/20/20 19/19/19
f 20/20/20 21/21/21 19/19/19
f 20/20/20 22/22/22 21/21/21
f 20/20/20 23/23/23 22/22/22
f 26/26/26 25/25/25 24/24/24
f 27/27/27 26/26/26 24/24/24
f 29/29/29 26/26/26 28/28/28
f 29/29/29 28/28/28 30/30/30
f 30/30/30 31/31/31 29/29/29
f 32/32/32 30/30/30 28/28/28
f 33/33/33 32/32/32 28/28/28
f 33/33/33 28/28/28 34/34/34
f 35/35/35 33/33/33 34/34/34
f 33/33/33 35/35/35 36/36/36
f 37/37/37 33/33/33 36/36/36
f 32/32/32 33/33/33 37/37/37
f 38/38/38 32/32/32 37/37/37
f 32/32/32 38/38/38 39/39/39
f 38/38/38 40/40/40 39/39/39
f 43/43/43 42/42/42 41/41/41
f 44/44/44 43/43/43 41/41/41
f 47/47/47 46/46/46 45/45/45
f 48/48/48 47/47/47 45/45/45
f 48/48/48 45/45/45 49/49/49
f 50/50/50 47/47/47 48/48/48
f 48/48/48 49/49/49 51/51/51
f 52/52/52 50/50/50 48/48/48
f 52/52/52 48/48/48 51/51/51
