g Ice_cell.008
v -0.2145871 0.1146885 -1.005276
v -0.1923741 -0.1692226 -0.6618513
v 0.004994161 0.2074098 -0.9624842
v 0.1228254 0.5954555 0.06137938
v 0.02220444 0.5991807 -0.3947456
v -0.04328768 0.5911619 -0.7043777
v 0.1228254 0.5954555 0.06137938
v 0.02714496 0.5990368 -0.3723227
v 0.02220444 0.5991807 -0.3947456
v -0.1445404 0.5787618 -0.7040164
v -0.2132193 0.5125483 -0.742035
v -0.2145871 0.1146885 -1.005276
v -0.2132193 0.5125483 -0.742035
v -0.233504 0.3563503 -0.8437098
v -0.2145871 0.1146885 -1.005276
v 0.004994161 0.2074098 -0.9624842
v -0.04328768 0.5911619 -0.7043777
v -0.1445404 0.5787618 -0.7040164
v -0.18101 -0.7489436 0.05382632
v -0.151051 -0.8543857 0.2666922
v 0.00755053 -0.851483 0.2710793
v -0.1767448 -0.7122892 -0.0192282
v 0.3077014 -0.6598189 0.2550027
v -0.1737398 -0.5841277 -0.1669122
v -0.1709986 -0.6629087 -0.07295239
v -0.1767448 -0.7122892 -0.0192282
v 0.00755053 -0.851483 0.2710793
v 0.2226148 -0.7145492 0.2600244
v 0.0798461 -0.8103803 0.2731226
v 0.4759898 -0.5511388 0.245488
v 0.004994161 0.2074098 -0.9624842
v -0.1923741 -0.1692226 -0.6618513
v -0.1848339 -0.2655965 -0.5446591
v -0.1737398 -0.5841277 -0.1669122
v 0.4557961 -0.5639009 0.2463057
v 0.3077014 -0.6598189 0.2550027
v 0.004994161 0.2074098 -0.9624842
v 0.4759898 -0.5511388 0.245488
v 0.4204702 -0.3293613 0.2683378
v 0.3167422 0.07282725 0.2960907
v 0.2526592 0.3274507 0.3209272
v -0.04328768 0.5911619 -0.7043777
v 0.2384806 0.3748032 0.3151917
v 0.202171 0.4904216 0.2934454
v 0.202171 0.4904216 0.2934454
v 0.1941252 0.507458 0.2778965
v -0.04328768 0.5911619 -0.7043777
v 0.1676661 0.5621992 0.2251575
v 0.1228254 0.5954555 0.06137938
v 0.02220444 0.5991807 -0.3947456
v 0.02714496 0.5990368 -0.3723227
v 0.1228254 0.5954555 0.06137938
v 0.02220272 0.5991784 0.065621
v 0.02264797 0.5675925 0.2316445
v 0.1676661 0.5621992 0.2251575
v -0.1271613 0.5579599 0.2246097
v -0.1445456 0.5787565 0.07626964
v -0.1445404 0.5787618 -0.7040164
v -0.04328768 0.5911619 -0.7043777
v 0.4204702 -0.3293613 0.2683378
v 0.4759898 -0.5511388 0.245488
v 0.4557961 -0.5639009 0.2463057
v 0.3077014 -0.6598189 0.2550027
v 0.08134945 -0.2970703 0.3018502
v 0.3167422 0.07282725 0.2960907
v 0.2226148 -0.7145492 0.2600244
v 0.2526592 0.3274507 0.3209272
v 0.09257727 -0.6990399 0.274231
v 0.0798461 -0.8103803 0.2731226
v -0.1295587 -0.6678063 0.2690856
v 0.00755053 -0.851483 0.2710793
v -0.151051 -0.8543857 0.2666922
v -0.1426943 -0.2695912 0.2921528
v -0.1900272 0.3545266 0.307096
v 0.03765779 0.3370914 0.3342744
v 0.2384806 0.3748032 0.3151917
v 0.202171 0.4904216 0.2934454
v -0.1848655 0.4892001 0.2892047
v 0.0259157 0.4971978 0.3019877
v 0.1941252 0.507458 0.2778965
v 0.02264797 0.5675925 0.2316445
v -0.1271613 0.5579599 0.2246097
v 0.1676661 0.5621992 0.2251575
v -0.1295587 -0.6678063 0.2690856
v -0.151051 -0.8543857 0.2666922
v -0.18101 -0.7489436 0.05382632
v -0.1709979 -0.6629079 0.05515082
v -0.1767448 -0.7122892 -0.0192282
v -0.1709986 -0.6629087 -0.07295239
v -0.1737398 -0.5841277 -0.1669122
v -0.184842 -0.2656185 0.07598166
v -0.1426943 -0.2695912 0.2921528
v -0.2335241 0.3563242 0.0844249
v -0.1900272 0.3545266 0.307096
v -0.1848339 -0.2655965 -0.5446591
v -0.1923741 -0.1692226 -0.6618513
v -0.2145871 0.1146885 -1.005276
v -0.1848655 0.4892001 0.2892047
v -0.233504 0.3563503 -0.8437098
v -0.2132266 0.5125575 0.08101813
v -0.1271613 0.5579599 0.2246097
v -0.2132193 0.5125483 -0.742035
v -0.1445456 0.5787565 0.07626964
v -0.1445404 0.5787618 -0.7040164
vt 0.4445801 0
vt 1 0.4973145
vt 1 0
vt 0.5844727 0.1610107
vt 0.9736328 0.1478271
vt 0.6025391 0
vt 0.5844727 0.1610107
vt 0.1588135 0.1588135
vt 0.9736328 0.1478271
vt 0.3522949 0.2469482
vt 0.9750977 0.4128418
vt 1 0.5551758
vt 0.9750977 0.4128418
vt 0.6279297 0.527832
vt 1 0.5551758
vt 1 0
vt 0.3977051 0
vt 0.3522949 0.2469482
vt 0.9052734 0.3935547
vt 0.7080078 0.4492188
vt 1 0.7460938
vt 1 0.4016113
vt 0.7280273 0
vt 0.2269287 0
vt 0.3381348 0.2446289
vt 0.4016113 0.4016113
vt 0.7460938 0.7460938
vt 0.7338867 0.2126465
vt 0.7485352 0.5820313
vt 0.8349609 0
vt 0 0
vt 0.4973145 0.4973145
vt 0.6132813 0.5576172
vt 1 0.7729492
vt 0.8544922 0.03244019
vt 1 0.2719727
vt 0 0
vt 0.8349609 0.8349609
vt 0.7880859 0.7597656
vt 0.8149414 0.4992676
vt 0.8393555 0.3344727
vt 0.6025391 0
vt 0.8334961 0.3037109
vt 0.8120117 0.2288818
vt 0.8120117 0.2288818
vt 0.796875 0.2178955
vt 0.6025391 0
vt 0.7451172 0.182373
vt 0.5844727 0.1610107
vt 0.07702637 0.2386475
vt 0.07873535 0.230835
vt 0.1117554 0.07897949
vt 0.07702637 0.07751465
vt 0.07720947 0.01940918
vt 0.1271973 0.02168274
vt 0.02557373 0.02186584
vt 0.01957703 0.0737915
vt 0.01957703 0.3469238
vt 0.05447388 0.3469238
vt 0.2209473 0.6499023
vt 0.239502 0.5742188
vt 0.2327881 0.5698242
vt 0.1833496 0.5366211
vt 0.107666 0.6611328
vt 0.1865234 0.7875977
vt 0.1549072 0.5180664
vt 0.164917 0.8745117
vt 0.1114502 0.5234375
vt 0.1071777 0.4853516
vt 0.03723145 0.5341797
vt 0.08300781 0.4711914
vt 0.03005981 0.4702148
vt 0.03283691 0.6704102
vt 0.01702881 0.8837891
vt 0.09307861 0.8779297
vt 0.1601563 0.890625
vt 0.1480713 0.9306641
vt 0.01875305 0.9301758
vt 0.08917236 0.9326172
vt 0.1453857 0.9360352
vt 0.08807373 0.9570313
vt 0.0380249 0.9536133
vt 0.1364746 0.9550781
vt 0.9868164 0.5429688
vt 0.9858398 0.4763184
vt 0.9121094 0.5141602
vt 0.9125977 0.5449219
vt 0.8867188 0.5273438
vt 0.8676758 0.5449219
vt 0.8354492 0.5732422
vt 0.9194336 0.6870117
vt 0.9946289 0.6855469
vt 0.9228516 0.909668
vt 1 0.9091797
vt 0.7041016 0.6870117
vt 0.6630859 0.7216797
vt 0.5439453 0.8232422
vt 0.9936523 0.9575195
vt 0.6000977 0.909668
vt 0.9213867 0.9658203
vt 0.9711914 0.9819336
vt 0.6352539 0.9658203
vt 0.9199219 0.9897461
vt 0.6484375 0.9897461
vn 0.407959 -0.6904297 -0.597168
vn 0.407959 -0.6904297 -0.597168
vn 0.407959 -0.6904297 -0.597168
vn 0.9438477 0.2575684 -0.2062988
vn 0.9438477 0.2575684 -0.2062988
vn 0.9438477 0.2575684 -0.2062988
vn 0.9438477 0.2575684 -0.2062988
vn 0.9438477 0.2575684 -0.2062988
vn 0.9438477 0.2575684 -0.2062988
vn -0.07037354 0.5507813 -0.8320313
vn -0.07037354 0.5507813 -0.8320313
vn -0.07037354 0.5507813 -0.8320313
vn -0.07037354 0.5507813 -0.8320313
vn -0.07037354 0.5507813 -0.8320313
vn -0.07037354 0.5507813 -0.8320313
vn -0.07037354 0.5507813 -0.8320313
vn -0.07037354 0.5507813 -0.8320313
vn -0.07037354 0.5507813 -0.8320313
vn 0.0287323 -0.894043 -0.4470215
vn 0.0287323 -0.894043 -0.4470215
vn 0.0287323 -0.894043 -0.4470215
vn 0.0287323 -0.894043 -0.4470215
vn 0.4106445 -0.6928711 -0.5927734
vn 0.4106445 -0.6928711 -0.5927734
vn 0.4106445 -0.6928711 -0.5927734
vn 0.4106445 -0.6928711 -0.5927734
vn 0.4106445 -0.6928711 -0.5927734
vn 0.4106445 -0.6928711 -0.5927734
vn 0.4106445 -0.6928711 -0.5927734
vn 0.4123535 -0.6904297 -0.5942383
vn 0.4123535 -0.6904297 -0.5942383
vn 0.4123535 -0.6904297 -0.5942383
vn 0.4123535 -0.6904297 -0.5942383
vn 0.4123535 -0.6904297 -0.5942383
vn 0.4123535 -0.6904297 -0.5942383
vn 0.4123535 -0.6904297 -0.5942383
vn 0.9438477 0.2575684 -0.2062988
vn 0.9438477 0.2575684 -0.2062988
vn 0.9438477 0.2575684 -0.2062988
vn 0.9438477 0.2575684 -0.2062988
vn 0.9438477 0.2575684 -0.2062988
vn 0.9438477 0.2575684 -0.2062988
vn 0.9438477 0.2575684 -0.2062988
vn 0.9438477 0.2575684 -0.2062988
vn 0.9438477 0.2575684 -0.2062988
vn 0.9438477 0.2575684 -0.2062988
vn 0.9438477 0.2575684 -0.2062988
vn 0.9438477 0.2575684 -0.2062988
vn 0.9438477 0.2575684 -0.2062988
vn -0.1107788 0.9936523 0
vn 0.03656006 0.9995117 6.103516E-05
vn 0.04125977 0.9936523 0.1057129
vn -0.0333252 0.9956055 0.08868408
vn -0.01657104 0.8847656 0.4658203
vn 0.05496216 0.8564453 0.5136719
vn -0.3237305 0.8618164 0.390625
vn -0.4226074 0.9018555 0.08984375
vn -0.4619141 0.8867188 0
vn -0.121582 0.9926758 0
vn 0.09393311 -0.06234741 0.9936523
vn 0.09735107 -0.07006836 0.9926758
vn 0.09735107 -0.07006836 0.9926758
vn 0.09735107 -0.07006836 0.9926758
vn 0.0166626 -0.05737305 0.9980469
vn 0.08856201 -0.05020142 0.9946289
vn 0.0993042 -0.05929565 0.9931641
vn 0.07653809 0.046875 0.9960938
vn 0.03735352 -0.04122925 0.9985352
vn 0.01171875 -0.01211548 1
vn -0.6357422 -0.004577637 0.7719727
vn -0.02548218 -0.008178711 0.9995117
vn -0.5708008 0.05657959 0.8188477
vn -0.6518555 -0.07208252 0.7548828
vn -0.6694336 0.04669189 0.7412109
vn -0.006835938 0.06549072 0.9980469
vn 0.05709839 0.1915283 0.9799805
vn 0.06005859 0.4111328 0.909668
vn -0.6147461 0.4375 0.65625
vn -0.01242065 0.4660645 0.8847656
vn 0.05828857 0.7045898 0.7070313
vn -0.01657104 0.8847656 0.4658203
vn -0.3237305 0.8618164 0.390625
vn 0.05496216 0.8564453 0.5136719
vn -0.6357422 -0.004577637 0.7719727
vn -0.5708008 0.05657959 0.8188477
vn -0.9858398 0.1125488 0.12323
vn -0.9946289 0.03671265 0.09539795
vn -0.9931641 0.1156006 0
vn -1 0.0003662109 0
vn -0.9995117 -0.03482056 0
vn -0.9936523 -0.05938721 0.09667969
vn -0.6518555 -0.07208252 0.7548828
vn -0.9956055 0.01766968 0.09100342
vn -0.6694336 0.04669189 0.7412109
vn -0.9975586 -0.06842041 0
vn -0.9970703 -0.07800293 0
vn -0.9970703 -0.07800293 0
vn -0.6147461 0.4375 0.65625
vn -1 -0.01269531 0
vn -0.8891602 0.4487305 0.09118652
vn -0.3237305 0.8618164 0.390625
vn -0.9335938 0.3583984 0
vn -0.4226074 0.9018555 0.08984375
vn -0.4619141 0.8867188 0
g Ice_cell.008_0
f 3/3/3 2/2/2 1/1/1
f 6/6/6 5/5/5 4/4/4
f 9/9/9 8/8/8 7/7/7
f 12/12/12 11/11/11 10/10/10
f 15/15/15 14/14/14 13/13/13
f 17/17/17 16/16/16 15/15/15
f 15/15/15 18/18/18 17/17/17
f 21/21/21 20/20/20 19/19/19
f 22/22/22 21/21/21 19/19/19
f 25/25/25 24/24/24 23/23/23
f 23/23/23 26/26/26 25/25/25
f 23/23/23 27/27/27 26/26/26
f 23/23/23 28/28/28 27/27/27
f 28/28/28 29/29/29 27/27/27
f 32/32/32 31/31/31 30/30/30
f 30/30/30 33/33/33 32/32/32
f 30/30/30 34/34/34 33/33/33
f 30/30/30 35/35/35 34/34/34
f 35/35/35 36/36/36 34/34/34
f 39/39/39 38/38/38 37/37/37
f 37/37/37 40/40/40 39/39/39
f 37/37/37 41/41/41 40/40/40
f 37/37/37 42/42/42 41/41/41
f 42/42/42 43/43/43 41/41/41
f 42/42/42 44/44/44 43/43/43
f 47/47/47 46/46/46 45/45/45
f 47/47/47 48/48/48 46/46/46
f 47/47/47 49/49/49 48/48/48
f 52/52/52 51/51/51 50/50/50
f 53/53/53 52/52/52 50/50/50
f 53/53/53 54/54/54 52/52/52
f 54/54/54 55/55/55 52/52/52
f 56/56/56 54/54/54 53/53/53
f 57/57/57 56/56/56 53/53/53
f 57/57/57 53/53/53 50/50/50
f 58/58/58 57/57/57 50/50/50
f 50/50/50 59/59/59 58/58/58
f 62/62/62 61/61/61 60/60/60
f 60/60/60 63/63/63 62/62/62
f 60/60/60 64/64/64 63/63/63
f 64/64/64 60/60/60 65/65/65
f 64/64/64 66/66/66 63/63/63
f 65/65/65 67/67/67 64/64/64
f 64/64/64 68/68/68 66/66/66
f 69/69/69 66/66/66 68/68/68
f 69/69/69 68/68/68 70/70/70
f 70/70/70 71/71/71 69/69/69
f 70/70/70 72/72/72 71/71/71
f 73/73/73 70/70/70 68/68/68
f 64/64/64 73/73/73 68/68/68
f 74/74/74 73/73/73 64/64/64
f 67/67/67 75/75/75 64/64/64
f 75/75/75 74/74/74 64/64/64
f 75/75/75 67/67/67 76/76/76
f 76/76/76 77/77/77 75/75/75
f 78/78/78 74/74/74 75/75/75
f 77/77/77 79/79/79 75/75/75
f 79/79/79 78/78/78 75/75/75
f 79/79/79 77/77/77 80/80/80
f 78/78/78 79/79/79 81/81/81
f 81/81/81 79/79/79 80/80/80
f 82/82/82 78/78/78 81/81/81
f 80/80/80 83/83/83 81/81/81
f 86/86/86 85/85/85 84/84/84
f 87/87/87 86/86/86 84/84/84
f 88/88/88 86/86/86 87/87/87
f 89/89/89 88/88/88 87/87/87
f 90/90/90 89/89/89 87/87/87
f 91/91/91 87/87/87 84/84/84
f 87/87/87 91/91/91 90/90/90
f 92/92/92 91/91/91 84/84/84
f 93/93/93 91/91/91 92/92/92
f 94/94/94 93/93/93 92/92/92
f 91/91/91 95/95/95 90/90/90
f 95/95/95 91/91/91 93/93/93
f 93/93/93 96/96/96 95/95/95
f 93/93/93 97/97/97 96/96/96
f 94/94/94 98/98/98 93/93/93
f 93/93/93 99/99/99 97/97/97
f 98/98/98 100/100/100 93/93/93
f 93/93/93 100/100/100 99/99/99
f 98/98/98 101/101/101 100/100/100
f 100/100/100 102/102/102 99/99/99
f 101/101/101 103/103/103 100/100/100
f 100/100/100 103/103/103 102/102/102
f 103/103/103 104/104/104 102/102/102
