g Ice_cell.015
v -0.2322321 -0.3698568 0.0687857
v -0.238065 -0.2953407 0.1554435
v -0.01553361 -0.2026912 0.1997724
v -0.001175523 0.1879978 -0.6887243
v -0.1679197 0.1675797 -0.8000088
v -0.2366073 0.1013309 -0.7633517
v -0.2568943 -0.05484679 -0.5576658
v 0.6318718 0.16876 -0.1282204
v -0.2305815 -0.3909724 -0.0560655
v 0.5291815 0.1725572 0.03994748
v 0.6030871 0.1701538 -0.01297
v -0.01553361 -0.2026912 0.1997724
v -0.001181111 0.1879895 0.418631
v -0.064252 0.1802657 0.4580644
v -0.01553361 -0.2026912 0.1997724
v 0.6030871 0.1701538 -0.01297
v 0.6901966 0.1673185 -0.0758518
v 0.0988094 -0.2835563 0.07133129
v 0.6901966 0.1673185 -0.0758518
v 0.6318718 0.16876 -0.1282204
v -0.2305815 -0.3909724 -0.0560655
v 0.0988094 -0.2835563 0.07133129
v -0.2277083 -0.4276749 -0.0001171231
v -0.2277083 -0.4276749 -0.0001171231
v -0.2322321 -0.3698568 0.0687857
v -0.01553361 -0.2026912 0.1997724
v 0.0988094 -0.2835563 0.07133129
v -0.2183914 0.1189119 0.4303634
v -0.01553361 -0.2026912 0.1997724
v -0.238065 -0.2953407 0.1554435
v -0.2366062 0.1013553 0.420079
v -0.2568907 -0.05484237 0.31743
v -0.1679273 0.167569 0.4583952
v -0.064252 0.1802657 0.4580644
v -0.01553361 -0.2026912 0.1997724
v -0.2183914 0.1189119 0.4303634
v -0.1679273 0.167569 0.4583952
v -0.1679197 0.1675797 -0.8000088
v -0.001175523 0.1879978 -0.6887243
v -0.001179725 0.1879914 0.04473379
v 0.6318718 0.16876 -0.1282204
v 0.6901966 0.1673185 -0.0758518
v 0.6030871 0.1701538 -0.01297
v 0.5291815 0.1725572 0.03994748
v -0.001181111 0.1879895 0.418631
v -0.064252 0.1802657 0.4580644
v -0.2322321 -0.3698568 0.0687857
v -0.2277083 -0.4276749 -0.0001171231
v -0.2305815 -0.3909724 -0.0560655
v -0.2568943 -0.05484679 -0.5576658
v -0.238065 -0.2953407 0.1554435
v -0.2568907 -0.05484237 0.31743
v -0.2366062 0.1013553 0.420079
v -0.2366073 0.1013309 -0.7633517
v -0.1679273 0.167569 0.4583952
v -0.1679197 0.1675797 -0.8000088
v -0.2183914 0.1189119 0.4303634
vt 0.5444336 0.5444336
vt 0.5576172 0
vt 0 0
vt 0.715332 0.456543
vt 0.8300781 0.5498047
vt 0.8774414 0.5268555
vt 0.8916016 0.375
vt 0.2790527 0
vt 0.8740234 0
vt 0.9311523 0.5229492
vt 1 0.5878906
vt 1 0
vt 0.4401855 0.05654907
vt 0.395752 0
vt 0 0
vt 0.5878906 0.5878906
vt 1 0.6303711
vt 1 0
vt 0.6303711 0.6303711
vt 1 0.7207031
vt 1 0.1260986
vt 0 0
vt 0.637207 0
vt 0.637207 0.637207
vt 1 0.5444336
vt 1 0
vt 0 0
vt 0.5073242 0
vt 0 0
vt 0.5576172 0.5576172
vt 0.5532227 0.05813599
vt 0.6044922 0.2939453
vt 0.5844727 0.329834
vt 0.6044922 0
vt 0 0
vt 0.5073242 0.5073242
vt 0.01957703 0.348877
vt 0.01957703 0.7890625
vt 0.07702637 0.7504883
vt 0.07702637 0.4936523
vt 0.295166 0.5541992
vt 0.3154297 0.5356445
vt 0.2854004 0.5136719
vt 0.2597656 0.4953613
vt 0.07702637 0.362793
vt 0.05529785 0.348877
vt 0.5112305 0.796875
vt 0.4873047 0.7763672
vt 0.4677734 0.7895508
vt 0.293457 0.909668
vt 0.5415039 0.8237305
vt 0.5976563 0.909668
vt 0.6333008 0.9658203
vt 0.2220459 0.9658203
vt 0.6464844 0.9897461
vt 0.2092285 0.9897461
vt 0.6367188 0.972168
vn 0.1789551 -0.7402344 0.6484375
vn 0.1789551 -0.7402344 0.6484375
vn 0.1789551 -0.7402344 0.6484375
vn 0.4353027 -0.7373047 -0.5166016
vn 0.4353027 -0.7373047 -0.5166016
vn 0.4353027 -0.7373047 -0.5166016
vn 0.4353027 -0.7373047 -0.5166016
vn 0.4353027 -0.7373047 -0.5166016
vn 0.4353027 -0.7373047 -0.5166016
vn 0.5151367 -0.4331055 0.7392578
vn 0.5151367 -0.4331055 0.7392578
vn 0.5151367 -0.4331055 0.7392578
vn 0.5151367 -0.4331055 0.7392578
vn 0.5151367 -0.4331055 0.7392578
vn 0.5166016 -0.4377441 0.7358398
vn 0.5166016 -0.4377441 0.7358398
vn 0.5166016 -0.4377441 0.7358398
vn 0.5166016 -0.4377441 0.7358398
vn 0.4384766 -0.7412109 -0.5087891
vn 0.4384766 -0.7412109 -0.5087891
vn 0.4384766 -0.7412109 -0.5087891
vn 0.4384766 -0.7412109 -0.5087891
vn 0.4384766 -0.7412109 -0.5087891
vn 0.1895752 -0.7460938 0.6381836
vn 0.1895752 -0.7460938 0.6381836
vn 0.1895752 -0.7460938 0.6381836
vn 0.1895752 -0.7460938 0.6381836
vn 0.06530762 -0.5537109 0.8300781
vn 0.06530762 -0.5537109 0.8300781
vn 0.06530762 -0.5537109 0.8300781
vn 0.06530762 -0.5537109 0.8300781
vn 0.06530762 -0.5537109 0.8300781
vn 0.07019043 -0.5517578 0.8310547
vn 0.07019043 -0.5517578 0.8310547
vn 0.07019043 -0.5517578 0.8310547
vn 0.07019043 -0.5517578 0.8310547
vn -0.3884277 0.9213867 0
vn -0.4599609 0.8881836 0
vn -0.07897949 0.9970703 -0.000213623
vn -0.04608154 0.9990234 -0.000213623
vn 0.03012085 0.9995117 -0.0008544922
vn 0.03012085 0.9995117 -0.0008544922
vn 0.03012085 0.9995117 -0.0008544922
vn 0.02990723 0.9995117 -0.0007019043
vn -0.07519531 0.9970703 0
vn -0.121521 0.9926758 0
vn -0.9970703 -0.07806396 0
vn -0.9970703 -0.07806396 0
vn -0.9970703 -0.07806396 0
vn -0.9960938 0.08935547 0
vn -0.9970703 -0.07806396 0
vn -0.9980469 0.06433105 0
vn -0.8364258 0.5483398 0
vn -0.8032227 0.5957031 0
vn -0.3884277 0.9213867 0
vn -0.4599609 0.8881836 0
vn -0.6943359 0.7197266 0
g Ice_cell.015_0
f 3/3/3 2/2/2 1/1/1
f 6/6/6 5/5/5 4/4/4
f 4/4/4 7/7/7 6/6/6
f 4/4/4 8/8/8 7/7/7
f 8/8/8 9/9/9 7/7/7
f 12/12/12 11/11/11 10/10/10
f 10/10/10 13/13/13 12/12/12
f 13/13/13 14/14/14 12/12/12
f 17/17/17 16/16/16 15/15/15
f 18/18/18 17/17/17 15/15/15
f 21/21/21 20/20/20 19/19/19
f 19/19/19 22/22/22 21/21/21
f 22/22/22 23/23/23 21/21/21
f 26/26/26 25/25/25 24/24/24
f 27/27/27 26/26/26 24/24/24
f 30/30/30 29/29/29 28/28/28
f 28/28/28 31/31/31 30/30/30
f 31/31/31 32/32/32 30/30/30
f 35/35/35 34/34/34 33/33/33
f 36/36/36 35/35/35 33/33/33
f 39/39/39 38/38/38 37/37/37
f 37/37/37 40/40/40 39/39/39
f 41/41/41 39/39/39 40/40/40
f 40/40/40 42/42/42 41/41/41
f 40/40/40 43/43/43 42/42/42
f 40/40/40 44/44/44 43/43/43
f 40/40/40 45/45/45 44/44/44
f 37/37/37 45/45/45 40/40/40
f 37/37/37 46/46/46 45/45/45
f 49/49/49 48/48/48 47/47/47
f 47/47/47 50/50/50 49/49/49
f 47/47/47 51/51/51 50/50/50
f 51/51/51 52/52/52 50/50/50
f 50/50/50 52/52/52 53/53/53
f 54/54/54 50/50/50 53/53/53
f 54/54/54 53/53/53 55/55/55
f 55/55/55 56/56/56 54/54/54
f 53/53/53 57/57/57 55/55/55
