g Ice_cell.011
v -1.001664 0.0505448 -1.028065
v -1.129539 -0.1928533 -0.8964222
v -1.116927 -0.3549382 -0.9289589
v -0.6944016 0.360459 0.5189353
v -0.7988737 0.1765738 0.5386795
v -0.651228 0.6206334 -0.724483
v -0.628804 -0.5322871 -1.468849
v -1.001664 0.0505448 -1.028065
v -0.8937696 -0.1486588 -1.174517
v -0.8937696 -0.1486588 -1.174517
v -1.001664 0.0505448 -1.028065
v -1.116927 -0.3549382 -0.9289589
v -1.129539 -0.1928533 -0.8964222
v -0.8761289 0.03933249 0.550813
v -0.8361931 -0.2610621 0.5753561
v -0.8937696 -0.1486588 -1.174517
v -1.031574 -0.5322871 -1.024553
v -0.628804 -0.5322871 -1.468849
v -0.651228 0.6206334 -0.724483
v -0.7988737 0.1765738 0.5386795
v -0.8192237 0.1403214 0.5425688
v 0.7174346 -0.4876953 -1.680761
v 0.7570839 -0.2654005 -1.544597
v 0.726725 0.3711019 -1.129232
v 0.6882776 0.8129075 -0.837845
v 0.691527 -0.4927514 -1.67943
v -0.651228 0.6206334 -0.724483
v 0.7204356 1.012444 -0.7150127
v -0.6944016 0.360459 0.5189353
v -0.651228 0.6206334 -0.724483
v -0.5958055 0.4154993 0.5121629
v -0.2787504 0.588264 0.5126033
v -0.2054016 0.6267631 0.5204245
v -0.0003501736 0.7338482 0.5414644
v -0.2054016 0.6267631 0.5204245
v -0.651228 0.6206334 -0.724483
v 0.4171788 1.168293 -0.5603707
v 0.4171788 1.168293 -0.5603707
v -0.651228 0.6206334 -0.724483
v 0.7204356 1.012444 -0.7150127
v 0.7354323 1.1055 -0.6575263
v -1.116927 -0.3549382 -0.9289589
v -1.100057 -0.5322871 -0.9487823
v -1.031574 -0.5322871 -1.024553
v -0.8937696 -0.1486588 -1.174517
v -0.82232 -0.3899643 0.5691141
v -0.9502408 -0.5322871 -0.1762404
v -1.100057 -0.5322871 -0.9487823
v -1.116927 -0.3549382 -0.9289589
v -1.116927 -0.3549382 -0.9289589
v -0.8361931 -0.2610621 0.5753561
v -0.82232 -0.3899643 0.5691141
v -1.129539 -0.1928533 -0.8964222
v 0.7354323 1.1055 -0.6575263
v 0.6882862 0.8129189 -0.07238811
v 0.7020422 0.65482 0.2171852
v 0.4171788 1.168293 -0.5603707
v -0.0003501736 0.7338482 0.5414644
v 0.4171788 1.168293 -0.5603707
v 0.7020422 0.65482 0.2171852
v 0.7086749 0.578551 0.3567328
v 0.6729904 0.4775082 0.5715883
v 0.4377052 0.5576351 0.578899
v -0.82232 -0.3899643 0.5691141
v -0.8110426 -0.4877355 0.5652427
v -0.8475879 -0.5322871 0.3498494
v -0.9502408 -0.5322871 -0.1762404
v 0.163036 -0.5322871 0.3707771
v -0.2379957 -0.5002102 0.506165
v -0.4231599 -0.4877083 0.5661929
v -0.2596821 -0.4476312 0.5681779
v 0.7376552 -0.3747048 0.3948099
v 0.7175639 -0.4876953 0.2787208
v 0.4890044 -0.5322871 0.2885573
v 0.163036 -0.5322871 0.3707771
v -0.2596821 -0.4476312 0.5681779
v 0.7389651 -0.323416 0.4494751
v 0.7312471 -0.2653204 0.5137163
v -0.2393848 -0.4426256 0.5684255
v 0.7085697 -0.1880292 0.6023138
v 0.3370505 -0.2642716 0.6142718
v 0.683225 -0.1928872 0.6034974
v 0.4482474 -0.233971 0.6187144
v 0.4812769 -0.2239122 0.6211689
v 0.6882776 0.8129075 -0.837845
v 0.7354323 1.1055 -0.6575263
v 0.7204356 1.012444 -0.7150127
v 0.6882862 0.8129189 -0.07238811
v 0.7020422 0.65482 0.2171852
v 0.7086749 0.578551 0.3567328
v 0.726725 0.3711019 -1.129232
v 0.7267189 0.3710799 0.3557408
v 0.6820536 0.3732139 0.5714433
v 0.6729904 0.4775082 0.5715883
v 0.7085697 -0.1880292 0.6023138
v 0.7312471 -0.2653204 0.5137163
v 0.7570828 -0.2654019 0.3876571
v 0.7570839 -0.2654005 -1.544597
v 0.7376552 -0.3747048 0.3948099
v 0.7389651 -0.323416 0.4494751
v 0.7175639 -0.4876953 0.2787208
v 0.7174346 -0.4876953 -1.680761
v -0.8361931 -0.2610621 0.5753561
v -0.8761289 0.03933249 0.550813
v -0.8192237 0.1403214 0.5425688
v -0.7988737 0.1765738 0.5386795
v -0.6944016 0.360459 0.5189353
v -0.5958055 0.4154993 0.5121629
v -0.2744746 0.40198 0.5093997
v -0.2787504 0.588264 0.5126033
v -0.2054016 0.6267631 0.5204245
v -0.0003501736 0.7338482 0.5414644
v 0.4377052 0.5576351 0.578899
v 0.4530149 0.3817581 0.5791666
v 0.6729904 0.4775082 0.5715883
v 0.6820536 0.3732139 0.5714433
v 0.4812769 -0.2239122 0.6211689
v 0.683225 -0.1928872 0.6034974
v 0.7085697 -0.1880292 0.6023138
v 0.4482474 -0.233971 0.6187144
v 0.3370505 -0.2642716 0.6142718
v -0.2449355 -0.2625256 0.5755346
v -0.2393848 -0.4426256 0.5684255
v -0.2596821 -0.4476312 0.5681779
v -0.4231599 -0.4877083 0.5661929
v -0.8110426 -0.4877355 0.5652427
v -0.82232 -0.3899643 0.5691141
v 0.7175639 -0.4876953 0.2787208
v 0.7174346 -0.4876953 -1.680761
v 0.691527 -0.4927514 -1.67943
v 0.4890044 -0.5322871 -1.668655
v 0.4890044 -0.5322871 0.2885573
v -0.628804 -0.5322871 -1.468849
v -1.031574 -0.5322871 -1.024553
v -1.100057 -0.5322871 -0.9487823
v -0.9502408 -0.5322871 -0.1762404
v -0.8475879 -0.5322871 0.3498494
v -0.2379957 -0.5322871 0.351145
v 0.163036 -0.5322871 0.3707771
v -0.8110426 -0.4877355 0.5652427
v -0.2379957 -0.5002102 0.506165
v -0.4231599 -0.4877083 0.5661929
v -0.8761289 0.03933249 0.550813
v -1.129539 -0.1928533 -0.8964222
v -1.001664 0.0505448 -1.028065
v -0.8192237 0.1403214 0.5425688
v -0.651228 0.6206334 -0.724483
v 0.4890044 -0.5322871 -1.668655
v 0.691527 -0.4927514 -1.67943
v -0.651228 0.6206334 -0.724483
v -0.628804 -0.5322871 -1.468849
v -1.001664 0.0505448 -1.028065
vt 0 0
vt 1 1
vt 1 0
vt 1 0.1903076
vt 0.177124 0.177124
vt 1 1
vt 0.2800293 0
vt 1 1
vt 1 0
vt 0 0
vt 1 1
vt 1 0
vt 1 1
vt 1 0.1520996
vt 0.3337402 0.135376
vt 1 0
vt 0.2819824 0
vt 1 0.7202148
vt 0 0
vt 0.177124 0
vt 0.1700439 0.03991699
vt 0.9848633 0.1290283
vt 0.8388672 0.1037598
vt 0.4899902 0.1228638
vt 0.2558594 0.1470947
vt 1 0.1456299
vt 1 1
vt 0.1265869 0.1265869
vt 0.1903076 0.1903076
vt 1 1
vt 0.357666 0.194458
vt 0.8828125 0.1936035
vt 1 0.1884766
vt 0.1956787 0
vt 0.1884766 0.1884766
vt 1 1
vt 1 0
vt 0 0
vt 1 1
vt 1 0.1265869
vt 0.6337891 0
vt 1 1
vt 1 0.4594727
vt 0.7177734 0
vt 0 0
vt 0.8637695 0
vt 0.4443359 0
vt 0.4594727 0.4594727
vt 1 1
vt 1 1
vt 0.3337402 0.135376
vt 0.8637695 0
vt 1 1
vt 0.6337891 0.6337891
vt 0.5400391 0.1654053
vt 0.5673828 0
vt 0 0
vt 1 0.8041992
vt 1 0
vt 0.4326172 0
vt 0.3742676 0.0435791
vt 0.3293457 0.1556396
vt 0.5571289 0.3886719
vt 1 0.1361084
vt 0.6420898 0.06616211
vt 0.6293945 0.1848145
vt 1 0.5556641
vt 1 0.4438477
vt 0.8598633 0.5385742
vt 0.7895508 0.5756836
vt 1 0.6938477
vt 0.4760742 0.1072998
vt 0.3291016 0.1191406
vt 0.3410645 0.253418
vt 0.4438477 0.4438477
vt 0.6938477 0.6938477
vt 0.5449219 0.1065063
vt 0.6264648 0.111084
vt 0.6938477 0.6816406
vt 0.7382813 0.1243896
vt 0.7529297 0.3427734
vt 0.7397461 0.1392822
vt 0.7587891 0.2773438
vt 0.7617188 0.2580566
vt 0.4890137 0.4658203
vt 0.5517578 0.5708008
vt 0.5317383 0.5371094
vt 0.7548828 0.4658203
vt 0.8554688 0.4091797
vt 0.9042969 0.3818359
vt 0.3876953 0.3076172
vt 0.9038086 0.3076172
vt 0.9785156 0.3083496
vt 0.9785156 0.3457031
vt 0.9892578 0.1073608
vt 0.9584961 0.07965088
vt 0.9150391 0.07958984
vt 0.2432861 0.07958984
vt 0.9174805 0.04046631
vt 0.9360352 0.05895996
vt 0.8769531 0
vt 0.1959229 0
vt 0.4633789 0.09283447
vt 0.4501953 0.1955566
vt 0.4692383 0.2301025
vt 0.4758301 0.2425537
vt 0.5107422 0.3054199
vt 0.5439453 0.3242188
vt 0.6508789 0.3198242
vt 0.6499023 0.3835449
vt 0.6743164 0.3967285
vt 0.7426758 0.4333496
vt 0.8891602 0.3730469
vt 0.894043 0.3127441
vt 0.9677734 0.345459
vt 0.9707031 0.3098145
vt 0.9033203 0.1055298
vt 0.9711914 0.1161499
vt 0.9794922 0.1177979
vt 0.8925781 0.1021118
vt 0.8554688 0.09173584
vt 0.6611328 0.09228516
vt 0.6625977 0.03068542
vt 0.65625 0.02897644
vt 0.6015625 0.01525879
vt 0.4719238 0.01524353
vt 0.4680176 0.04870605
vt 1 0.1168823
vt 1 0.8027344
vt 0.9912109 0.8022461
vt 0.9213867 0.7983398
vt 0.9213867 0.1134644
vt 0.5380859 0.7290039
vt 0.3972168 0.5732422
vt 0.3735352 0.5463867
vt 0.425293 0.276123
vt 0.4604492 0.09197998
vt 0.6708984 0.09155273
vt 0.809082 0.08465576
vt 0.4731445 0.01661682
vt 0.6708984 0.03729248
vt 0.6069336 0.01628113
vt 0.1520996 0.1520996
vt 1 1
vt 1 0
vt 0.1700439 0.03991699
vt 0 0
vt 0.230835 0.204834
vt 0.1456299 0.1456299
vt 1 1
vt 1 0.2038574
vt 1 0
vn -0.7739258 0.06616211 -0.6293945
vn -0.7739258 0.06616211 -0.6293945
vn -0.7739258 0.06616211 -0.6293945
vn -0.8637695 0.4985352 0.07434082
vn -0.8637695 0.4985352 0.07434082
vn -0.8637695 0.4985352 0.07434082
vn -0.1798096 0.5175781 -0.8364258
vn -0.1798096 0.5175781 -0.8364258
vn -0.1798096 0.5175781 -0.8364258
vn -0.7631836 0.05969238 -0.6435547
vn -0.7631836 0.05969238 -0.6435547
vn -0.7631836 0.05969238 -0.6435547
vn -0.9750977 -0.1140137 0.1890869
vn -0.9750977 -0.1140137 0.1890869
vn -0.9750977 -0.1140137 0.1890869
vn -0.7407227 0.003585815 -0.6713867
vn -0.7407227 0.003585815 -0.6713867
vn -0.7407227 0.003585815 -0.6713867
vn -0.8662109 0.4941406 0.0723877
vn -0.8662109 0.4941406 0.0723877
vn -0.8662109 0.4941406 0.0723877
vn -0.1472168 0.5356445 -0.831543
vn -0.1472168 0.5356445 -0.831543
vn -0.1472168 0.5356445 -0.831543
vn -0.1472168 0.5356445 -0.831543
vn -0.1472168 0.5356445 -0.831543
vn -0.1472168 0.5356445 -0.831543
vn -0.1472168 0.5356445 -0.831543
vn -0.472168 0.8662109 0.1647949
vn -0.472168 0.8662109 0.1647949
vn -0.472168 0.8662109 0.1647949
vn -0.472168 0.8662109 0.1647949
vn -0.472168 0.8662109 0.1647949
vn -0.4697266 0.8671875 0.1639404
vn -0.4697266 0.8671875 0.1639404
vn -0.4697266 0.8671875 0.1639404
vn -0.4697266 0.8671875 0.1639404
vn -0.147583 0.5371094 -0.8305664
vn -0.147583 0.5371094 -0.8305664
vn -0.147583 0.5371094 -0.8305664
vn -0.147583 0.5371094 -0.8305664
vn -0.7416992 0.004379272 -0.6704102
vn -0.7416992 0.004379272 -0.6704102
vn -0.7416992 0.004379272 -0.6704102
vn -0.7416992 0.004379272 -0.6704102
vn -0.9750977 -0.1140137 0.1890869
vn -0.9750977 -0.1140137 0.1890869
vn -0.9750977 -0.1140137 0.1890869
vn -0.9750977 -0.1140137 0.1890869
vn -0.9750977 -0.1140137 0.1890869
vn -0.9750977 -0.1140137 0.1890869
vn -0.9750977 -0.1140137 0.1890869
vn -0.9750977 -0.1140137 0.1890869
vn 0.3022461 0.8427734 0.4455566
vn 0.3022461 0.8427734 0.4455566
vn 0.3022461 0.8427734 0.4455566
vn 0.3022461 0.8427734 0.4455566
vn 0.3007813 0.8427734 0.4462891
vn 0.3007813 0.8427734 0.4462891
vn 0.3007813 0.8427734 0.4462891
vn 0.3007813 0.8427734 0.4462891
vn 0.3007813 0.8427734 0.4462891
vn 0.3007813 0.8427734 0.4462891
vn -0.9746094 -0.1199341 0.1901855
vn -0.9746094 -0.1199341 0.1901855
vn -0.9746094 -0.1199341 0.1901855
vn -0.9746094 -0.1199341 0.1901855
vn 0.1688232 -0.7216797 0.6708984
vn 0.1688232 -0.7216797 0.6708984
vn 0.1688232 -0.7216797 0.6708984
vn 0.1688232 -0.7216797 0.6708984
vn 0.1695557 -0.7207031 0.6723633
vn 0.1695557 -0.7207031 0.6723633
vn 0.1695557 -0.7207031 0.6723633
vn 0.1695557 -0.7207031 0.6723633
vn 0.1695557 -0.7207031 0.6723633
vn 0.1695557 -0.7207031 0.6723633
vn 0.1695557 -0.7207031 0.6723633
vn 0.1695557 -0.7207031 0.6723633
vn 0.1695557 -0.7207031 0.6723633
vn 0.1695557 -0.7207031 0.6723633
vn 0.1695557 -0.7207031 0.6723633
vn 0.1695557 -0.7207031 0.6723633
vn 0.1695557 -0.7207031 0.6723633
vn 1 0.007415771 0
vn 0.9873047 -0.1590576 0
vn 0.9873047 -0.1590576 0
vn 0.9985352 0.04977417 0
vn 0.9960938 0.08666992 0
vn 0.9936523 0.08618164 0.07263184
vn 0.9980469 0.05993652 0
vn 0.9926758 0.06903076 0.0993042
vn 0.6567383 0.06762695 0.7509766
vn 0.6425781 0.05566406 0.7641602
vn 0.7231445 0.07531738 0.6865234
vn 0.980957 0.01470947 0.1942139
vn 0.9946289 -0.04980469 0.09259033
vn 0.9946289 -0.1046143 0
vn 0.9858398 -0.1618652 0.04736328
vn 0.9775391 -0.1258545 0.168457
vn 0.796875 -0.6040039 0
vn 0.6147461 -0.7885742 0
vn 0.003601074 0.03076172 0.9995117
vn 0.008209229 0.09320068 0.9956055
vn 0.008209229 0.09320068 0.9956055
vn 0.008209229 0.09320068 0.9956055
vn 0.008209229 0.09320068 0.9956055
vn 0.008148193 0.07421875 0.9970703
vn -0.03912354 0.0357666 0.9985352
vn -0.05822754 -0.01586914 0.9980469
vn -0.09381104 -0.01525879 0.9956055
vn -0.09381104 -0.01525879 0.9956055
vn -0.04797363 -0.008544922 0.9990234
vn -0.02087402 0.03369141 0.9990234
vn 0.6425781 0.05566406 0.7641602
vn 0.6567383 0.06762695 0.7509766
vn -0.01986694 0.07324219 0.9970703
vn 0.05429077 0.06396484 0.996582
vn 0.7231445 0.07531738 0.6865234
vn -0.07952881 0.08044434 0.9936523
vn -0.07830811 0.06884766 0.9946289
vn -0.03533936 0.02249146 0.9990234
vn -0.02908325 -0.04190063 0.9985352
vn -0.001800537 -0.04223633 0.9990234
vn -0.001403809 -0.6391602 0.769043
vn -0.001403809 -0.6567383 0.7539063
vn -0.001800537 -0.04223633 0.9990234
vn 0.796875 -0.6040039 0
vn 0.6147461 -0.7885742 0
vn 0.1915283 -0.9814453 0
vn 0.1035156 -0.9946289 0
vn 0.08789063 -0.9960938 0
vn 0 -1 0
vn 0 -1 0
vn 0 -1 0
vn 0 -1 0
vn -0.0001831055 -0.9960938 0.09020996
vn -0.002532959 -0.9946289 0.1018677
vn -0.001159668 -0.9995117 0.02398682
vn -0.001403809 -0.6567383 0.7539063
vn -0.004180908 -0.9794922 0.2026367
vn -0.001403809 -0.6391602 0.769043
vn -0.8662109 0.4941406 0.0723877
vn -0.8662109 0.4941406 0.0723877
vn -0.8662109 0.4941406 0.0723877
vn -0.8662109 0.4941406 0.0723877
vn -0.8662109 0.4941406 0.0723877
vn -0.1486816 0.5341797 -0.8320313
vn -0.1486816 0.5341797 -0.8320313
vn -0.1486816 0.5341797 -0.8320313
vn -0.1486816 0.5341797 -0.8320313
vn -0.1486816 0.5341797 -0.8320313
g Ice_cell.011_0
f 3/3/3 2/2/2 1/1/1
f 6/6/6 5/5/5 4/4/4
f 9/9/9 8/8/8 7/7/7
f 12/12/12 11/11/11 10/10/10
f 15/15/15 14/14/14 13/13/13
f 18/18/18 17/17/17 16/16/16
f 21/21/21 20/20/20 19/19/19
f 24/24/24 23/23/23 22/22/22
f 22/22/22 25/25/25 24/24/24
f 22/22/22 26/26/26 25/25/25
f 26/26/26 27/27/27 25/25/25
f 28/28/28 25/25/25 27/27/27
f 31/31/31 30/30/30 29/29/29
f 30/30/30 31/31/31 32/32/32
f 32/32/32 33/33/33 30/30/30
f 36/36/36 35/35/35 34/34/34
f 37/37/37 36/36/36 34/34/34
f 40/40/40 39/39/39 38/38/38
f 41/41/41 40/40/40 38/38/38
f 44/44/44 43/43/43 42/42/42
f 45/45/45 44/44/44 42/42/42
f 48/48/48 47/47/47 46/46/46
f 46/46/46 49/49/49 48/48/48
f 52/52/52 51/51/51 50/50/50
f 51/51/51 53/53/53 50/50/50
f 56/56/56 55/55/55 54/54/54
f 57/57/57 56/56/56 54/54/54
f 60/60/60 59/59/59 58/58/58
f 58/58/58 61/61/61 60/60/60
f 58/58/58 62/62/62 61/61/61
f 58/58/58 63/63/63 62/62/62
f 66/66/66 65/65/65 64/64/64
f 67/67/67 66/66/66 64/64/64
f 70/70/70 69/69/69 68/68/68
f 71/71/71 70/70/70 68/68/68
f 74/74/74 73/73/73 72/72/72
f 72/72/72 75/75/75 74/74/74
f 72/72/72 76/76/76 75/75/75
f 72/72/72 77/77/77 76/76/76
f 77/77/77 78/78/78 76/76/76
f 78/78/78 79/79/79 76/76/76
f 78/78/78 80/80/80 79/79/79
f 80/80/80 81/81/81 79/79/79
f 80/80/80 82/82/82 81/81/81
f 82/82/82 83/83/83 81/81/81
f 82/82/82 84/84/84 83/83/83
f 87/87/87 86/86/86 85/85/85
f 86/86/86 88/88/88 85/85/85
f 85/85/85 88/88/88 89/89/89
f 85/85/85 89/89/89 90/90/90
f 91/91/91 85/85/85 90/90/90
f 90/90/90 92/92/92 91/91/91
f 92/92/92 90/90/90 93/93/93
f 90/90/90 94/94/94 93/93/93
f 92/92/92 93/93/93 95/95/95
f 92/92/92 95/95/95 96/96/96
f 92/92/92 97/97/97 91/91/91
f 96/96/96 97/97/97 92/92/92
f 97/97/97 98/98/98 91/91/91
f 97/97/97 96/96/96 99/99/99
f 98/98/98 97/97/97 99/99/99
f 96/96/96 100/100/100 99/99/99
f 98/98/98 99/99/99 101/101/101
f 101/101/101 102/102/102 98/98/98
f 105/105/105 104/104/104 103/103/103
f 106/106/106 105/105/105 103/103/103
f 107/107/107 106/106/106 103/103/103
f 108/108/108 107/107/107 103/103/103
f 109/109/109 108/108/108 103/103/103
f 109/109/109 110/110/110 108/108/108
f 111/111/111 110/110/110 109/109/109
f 112/112/112 111/111/111 109/109/109
f 113/113/113 112/112/112 109/109/109
f 109/109/109 114/114/114 113/113/113
f 115/115/115 113/113/113 114/114/114
f 116/116/116 115/115/115 114/114/114
f 116/116/116 114/114/114 117/117/117
f 116/116/116 117/117/117 118/118/118
f 118/118/118 119/119/119 116/116/116
f 120/120/120 117/117/117 114/114/114
f 114/114/114 109/109/109 120/120/120
f 109/109/109 121/121/121 120/120/120
f 109/109/109 122/122/122 121/121/121
f 103/103/103 122/122/122 109/109/109
f 123/123/123 121/121/121 122/122/122
f 124/124/124 123/123/123 122/122/122
f 122/122/122 103/103/103 124/124/124
f 103/103/103 125/125/125 124/124/124
f 103/103/103 126/126/126 125/125/125
f 103/103/103 127/127/127 126/126/126
f 130/130/130 129/129/129 128/128/128
f 128/128/128 131/131/131 130/130/130
f 128/128/128 132/132/132 131/131/131
f 133/133/133 131/131/131 132/132/132
f 132/132/132 134/134/134 133/133/133
f 132/132/132 135/135/135 134/134/134
f 132/132/132 136/136/136 135/135/135
f 132/132/132 137/137/137 136/136/136
f 132/132/132 138/138/138 137/137/137
f 132/132/132 139/139/139 138/138/138
f 140/140/140 137/137/137 138/138/138
f 138/138/138 139/139/139 141/141/141
f 138/138/138 141/141/141 140/140/140
f 141/141/141 142/142/142 140/140/140
f 145/145/145 144/144/144 143/143/143
f 143/143/143 146/146/146 145/145/145
f 146/146/146 147/147/147 145/145/145
f 150/150/150 149/149/149 148/148/148
f 148/148/148 151/151/151 150/150/150
f 151/151/151 152/152/152 150/150/150
