g IceShard1
v -0.113096 -0.2381783 0.05325355
v 0.2651875 -0.1353875 0.05087393
v -0.02565178 -0.008842896 -0.6047961
v -0.113096 -0.2381783 0.05325355
v -0.007419157 -0.01606294 0.7408002
v 0.2651875 -0.1353875 0.05087393
v 0.2651875 -0.1353875 0.05087393
v 0.1272085 0.2792718 0.2511516
v -0.02565178 -0.008842896 -0.6047961
v 0.1272085 0.2792718 0.2511516
v 0.2651875 -0.1353875 0.05087393
v -0.007419157 -0.01606294 0.7408002
v -0.02565178 -0.008842896 -0.6047961
v 0.1272085 0.2792718 0.2511516
v -0.2456491 0.1299187 -0.05408537
v -0.2456491 0.1299187 -0.05408537
v 0.1272085 0.2792718 0.2511516
v -0.007419157 -0.01606294 0.7408002
v -0.113096 -0.2381783 0.05325355
v -0.2456491 0.1299187 -0.05408537
v -0.007419157 -0.01606294 0.7408002
v -0.113096 -0.2381783 0.05325355
v -0.02565178 -0.008842896 -0.6047961
v -0.2456491 0.1299187 -0.05408537
vt 0.01864114 0.9632897
vt 0.3398142 0.778846
vt 0.0178394 0.5900415
vt 0.6617891 0.9676507
vt 0.6609874 0.5944023
vt 0.3398142 0.778846
vt 0.3398142 0.778846
vt 0.3390126 0.4055976
vt 0.0178394 0.5900415
vt 0.3390126 0.4055976
vt 0.3398142 0.778846
vt 0.6609874 0.5944023
vt 0.3382109 0.03234929
vt 0.3390126 0.4055976
vt 0.6601857 0.2211539
vt 0.6601857 0.2211539
vt 0.3390126 0.4055976
vt 0.6609874 0.5944023
vt 0.9821607 0.4099585
vt 0.6601857 0.2211539
vt 0.6609874 0.5944023
vt 0.9821607 0.4099585
vt 0.9813588 0.03671023
vt 0.6601857 0.2211539
vn 0.2589963 -0.9041005 -0.3398872
vn 0.1925658 -0.9079942 -0.3721086
vn 0.2450308 -0.9479179 -0.2034982
vn 0.3075632 -0.9141638 0.2640255
vn 0.3110339 -0.9449595 0.1015356
vn 0.1554153 -0.9479176 0.2780258
vn 0.81094 0.5169929 -0.2740338
vn 0.8800862 0.3046832 -0.3641655
vn 0.883395 0.4173495 -0.2131494
vn 0.8938553 0.05191419 0.4453398
vn 0.8861389 0.1715707 0.4304896
vn 0.9546488 0.2252116 0.1947447
vn -0.1308302 0.9692689 -0.2083298
vn -0.1706767 0.8907979 -0.4211277
vn -0.06086769 0.919581 -0.388157
vn -0.4700568 0.7906765 0.392272
vn -0.6681691 0.7039416 0.2408656
vn -0.5990986 0.7875593 0.1443304
vn -0.9267452 -0.2486271 0.2816518
vn -0.8885534 -0.3074985 0.3404665
vn -0.9464678 -0.3157156 0.06725003
vn -0.8998773 -0.3418398 -0.2708627
vn -0.9097149 -0.3786689 -0.1703782
vn -0.8278909 -0.5039795 -0.2461735
g IceShard1_0
f 3/3/3 2/2/2 1/1/1
f 6/6/6 5/5/5 4/4/4
f 9/9/9 8/8/8 7/7/7
f 12/12/12 11/11/11 10/10/10
f 15/15/15 14/14/14 13/13/13
f 18/18/18 17/17/17 16/16/16
f 21/21/21 20/20/20 19/19/19
f 24/24/24 23/23/23 22/22/22
