g lantern_cell.003
v -0.1608671 -0.2288752 -0.01119067
v -0.1643755 -0.237982 0.01545812
v -0.1423145 -0.237982 0.03326001
v -0.05896438 -0.237982 0.2548223
v -0.1512938 -0.237982 0.1427768
v -0.1521569 0.0036676 0.1362209
v 0.1047466 -0.0632569 -0.3213568
v 0.2674553 -0.03869081 -0.2636699
v 0.2737674 0.1028248 -0.4287979
v 0.2737674 0.1028248 -0.4287979
v 0.2771618 0.1159077 -0.4322613
v 0.2452888 0.1204675 -0.4169618
v 0.2452888 0.1204675 -0.4169618
v -0.1049818 -0.1329622 -0.2074598
v 0.2737674 0.1028248 -0.4287979
v 0.03835646 0.1204675 -0.3136123
v 0.009783443 0.1180607 -0.2990115
v -0.01935656 0.1123514 -0.2836773
v -0.0585597 0.09464051 -0.26168
v -0.07847185 0.07504652 -0.2490621
v -0.09863273 -0.04379889 -0.2227879
v 0.2452888 0.1204675 -0.4169618
v 0.03835646 0.1204675 -0.3136123
v -0.1049818 -0.1329622 -0.2074598
v 0.1251266 -0.237982 0.2554609
v 0.1736375 -0.237982 0.2971634
v 0.3438802 -0.1709237 0.2233974
v 0.1628657 -0.237982 0.3028048
v 0.3438802 -0.1709237 0.2233974
v 0.1736375 -0.237982 0.2971634
v -0.1117881 0.1123514 0.1824083
v -0.1338799 0.1020717 0.1559359
v -0.1238648 0.1123514 0.1532524
v -0.1049818 -0.1329622 -0.2074598
v -0.1065951 -0.1546958 -0.2035651
v 0.1047466 -0.0632569 -0.3213568
v 0.2737674 0.1028248 -0.4287979
v -0.007175274 -0.237982 0.1449162
v 0.1047466 -0.0632569 -0.3213568
v -0.1065951 -0.1546958 -0.2035651
v -0.149027 -0.1976927 -0.1011254
v -0.1608671 -0.2288752 -0.01119067
v -0.1423145 -0.237982 0.03326001
v 0.07423091 0.118079 0.4072773
v -0.02538316 -0.237982 0.2954422
v -0.05896438 -0.237982 0.2548223
v -0.1521569 0.0036676 0.1362209
v -0.1524287 0.07504652 0.1341565
v -0.1427666 0.09464051 0.1453673
v -0.1338799 0.1020717 0.1559359
v -0.1117881 0.1123514 0.1824083
v -0.06944725 0.1204675 0.2334263
v 0.05792781 0.1204675 0.387499
v 0.03518861 -0.237982 0.3684096
v -0.02538316 -0.237982 0.2954422
v 0.07423091 0.118079 0.4072773
v 0.08182833 0.1169788 0.4164548
v 0.09069144 0.1204675 0.4126394
v 0.4134715 0.1204675 0.2479788
v 0.07553028 -0.237982 0.34783
v 0.08182833 0.1169788 0.4164548
v 0.03518861 -0.237982 0.3684096
v 0.3227382 0.1204675 -0.2545944
v 0.281266 0.1204675 -0.4216982
v 0.2771618 0.1159077 -0.4322613
v 0.2737674 0.1028248 -0.4287979
v 0.2674553 -0.03869081 -0.2636699
v 0.1047466 -0.0632569 -0.3213568
v -0.007175274 -0.237982 0.1449162
v 0.3438802 -0.1709237 0.2233974
v 0.1251266 -0.237982 0.2554609
v 0.4134715 0.1204675 0.2479788
v 0.4432589 0.1204675 0.2326221
v 0.3438802 -0.1709237 0.2233974
v 0.07553028 -0.237982 0.34783
v 0.1628657 -0.237982 0.3028048
v -0.1521569 0.0036676 0.1362209
v -0.1512938 -0.237982 0.1427768
v -0.1662156 -0.237982 0.02943457
v -0.1662156 0.07504652 0.02943457
v -0.1524287 0.07504652 0.1341565
v -0.1427666 0.09464051 0.1453673
v -0.1580294 0.09464051 0.02943457
v -0.1401657 0.1123514 0.02943457
v -0.1238648 0.1123514 0.1532524
v -0.1338799 0.1020717 0.1559359
v -0.1662156 0.07504652 0.02943457
v -0.1643755 -0.237982 0.01545812
v -0.1608671 -0.2288752 -0.01119067
v -0.149027 -0.1976927 -0.1011254
v -0.149027 0.07504652 -0.1011254
v -0.1065951 -0.1546958 -0.2035651
v -0.1049818 -0.1329622 -0.2074598
v -0.1580294 0.09464051 0.02943457
v -0.09863273 -0.04379889 -0.2227879
v -0.1411198 0.09464051 -0.0990067
v -0.1401657 0.1123514 0.02943457
v -0.1238648 0.1123514 -0.09438322
v -0.09863273 0.07504652 -0.2227879
v -0.1411198 0.09464051 -0.0990067
v -0.09154333 0.09464051 -0.2186949
v -0.1238648 0.1123514 -0.09438322
v -0.07607292 0.1123514 -0.209763
v -0.07847185 0.07504652 -0.2490621
v -0.09863273 0.07504652 -0.2227879
v -0.09154333 0.09464051 -0.2186949
v -0.0585597 0.09464051 -0.26168
v -0.01935656 0.1123514 -0.2836773
v -0.07607292 0.1123514 -0.209763
v -0.1423145 -0.237982 0.03326001
v -0.1643755 -0.237982 0.01545812
v -0.1662156 -0.237982 0.02943457
v -0.1512938 -0.237982 0.1427768
v -0.007175274 -0.237982 0.1449162
v -0.05896438 -0.237982 0.2548223
v 0.1251266 -0.237982 0.2554609
v -0.02538316 -0.237982 0.2954422
v 0.1736375 -0.237982 0.2971634
v 0.03518861 -0.237982 0.3684096
v 0.1628657 -0.237982 0.3028048
v 0.07553028 -0.237982 0.34783
v 0.2771618 0.1159077 -0.4322613
v 0.281266 0.1204675 -0.4216982
v 0.2452888 0.1204675 -0.4169618
v 0.3227382 0.1204675 -0.2545944
v 0.03835646 0.1204675 -0.3136123
v 0.01392759 0.1204675 -0.2948673
v 0.009783443 0.1180607 -0.2990115
v -0.01935656 0.1123514 -0.2836773
v -0.05895759 0.1204675 -0.1998814
v -0.07607292 0.1123514 -0.209763
v 0.4432589 0.1204675 0.2326221
v -0.1047751 0.1204675 -0.08926819
v -0.07607292 0.1123514 -0.209763
v -0.1238648 0.1123514 -0.09438322
v -0.1204026 0.1204675 0.02943457
v -0.1238648 0.1123514 -0.09438322
v -0.1401657 0.1123514 0.02943457
v -0.1047751 0.1204675 0.1481373
v -0.1401657 0.1123514 0.02943457
v -0.1238648 0.1123514 0.1532524
v -0.06944725 0.1204675 0.2334263
v -0.1238648 0.1123514 0.1532524
v -0.1117881 0.1123514 0.1824083
v 0.4134715 0.1204675 0.2479788
v 0.05792781 0.1204675 0.387499
v 0.09069144 0.1204675 0.4126394
v 0.08182833 0.1169788 0.4164548
v 0.07423091 0.118079 0.4072773
v 0.05792781 0.1204675 0.387499
v 0.09069144 0.1204675 0.4126394
v 0.2674553 -0.03869081 -0.2636699
v 0.3438802 -0.1709237 0.2233974
v 0.4432589 0.1204675 0.2326221
v 0.2737674 0.1028248 -0.4287979
v 0.3227382 0.1204675 -0.2545944
vt 0.6884766 0.6884766
vt 0.7084961 0.5400391
vt 0.5834961 0.5834961
vt 0.1100464 0
vt 0.6333008 0.550293
vt 0.6367188 0
vt 1 0
vt 0 0
vt 1 1
vt 0 0
vt 0.8076172 0
vt 0.8051758 0.06512451
vt 0.8051758 0.06512451
vt 0.7739258 0
vt 0 0
vt 0.4802246 0.4404297
vt 0.5385742 0.4816895
vt 0.5981445 0.5151367
vt 0.6782227 0.5332031
vt 0.71875 0.5136719
vt 0.7602539 0.2286377
vt 0.8051758 0.06512451
vt 0.4802246 0.4404297
vt 0.7739258 0
vt 0.5708008 0.5708008
vt 0.5751953 0
vt 0 0
vt 1 0.5742188
vt 1 0
vt 0.4248047 0
vt 0.3027344 1
vt 0.2922363 0.9858398
vt 0.2927246 1
vt 0.7739258 0.7739258
vt 1 0.6591797
vt 1 0
vt 0 0
vt 0.7758789 0
vt 0 0
vt 0.6591797 0.6591797
vt 0.875 0.7236328
vt 1 0.6884766
vt 1 0.5834961
vt 0.8862305 0
vt 0.1100464 0
vt 0.1100464 0.1100464
vt 0.6367188 0.6367188
vt 0.7924805 0.703125
vt 0.8349609 0.6894531
vt 0.8515625 0.6669922
vt 0.8740234 0.6040039
vt 0.8916016 0.4729004
vt 0.8916016 0.05560303
vt 1 0.1085815
vt 0.1100464 0.1100464
vt 0.8862305 0.8862305
vt 1 0.8837891
vt 0.8911133 0.8686523
vt 0.8916016 0
vt 0.1086426 0
vt 0.8837891 0.8837891
vt 0.1085815 0.1085815
vt 0.7373047 0
vt 0.9829102 0.2421875
vt 1 0.1922607
vt 1 0
vt 0 0
vt 1 1
vt 1 0.2241211
vt 0 0
vt 0.5708008 0
vt 1 0.1081543
vt 0.8549805 0
vt 0 0
vt 1 0.8916016
vt 0.5742188 0.5742188
vt 0.2841797 0.8369141
vt 0.2861328 0.5
vt 0.25 0.5
vt 0.25 0.9365234
vt 0.2834473 0.9365234
vt 0.2873535 0.9750977
vt 0.2502441 0.9750977
vt 0.2509766 1
vt 0.2905273 1
vt 0.2910156 0.9858398
vt 0.25 0.9365234
vt 0.2454834 0.5
vt 0.2370605 0.5126953
vt 0.208374 0.5561523
vt 0.208374 0.9365234
vt 0.1732178 0.6162109
vt 0.171875 0.6464844
vt 0.2496338 0.9750977
vt 0.166626 0.7709961
vt 0.2086182 0.9750977
vt 0.2489014 1
vt 0.2093506 1
vt 0.166626 0.9365234
vt 0.2080078 0.9750977
vt 0.1669922 0.9750977
vt 0.2072754 1
vt 0.1677246 1
vt 0.1561279 0.9365234
vt 0.166626 0.9365234
vt 0.1663818 0.9750977
vt 0.1491699 0.9750977
vt 0.1361084 1
vt 0.1656494 1
vt 0.5214844 0.2481689
vt 0.5107422 0.2565918
vt 0.5097656 0.25
vt 0.5170898 0.1960449
vt 0.5854492 0.1950684
vt 0.5610352 0.1428223
vt 0.6484375 0.1424561
vt 0.5771484 0.1234131
vt 0.671875 0.1226196
vt 0.605957 0.08874512
vt 0.6665039 0.1199341
vt 0.625 0.09851074
vt 0.2207031 0.4719238
vt 0.2229004 0.4645996
vt 0.2058105 0.4624023
vt 0.2426758 0.3852539
vt 0.1072998 0.4133301
vt 0.09570313 0.4042969
vt 0.09283447 0.4069824
vt 0.07678223 0.4013672
vt 0.06103516 0.3591309
vt 0.04983521 0.3662109
vt 0.3000488 0.1533203
vt 0.03924561 0.3063965
vt 0.04931641 0.3652344
vt 0.02658081 0.3103027
vt 0.03179932 0.25
vt 0.02632141 0.3093262
vt 0.01856995 0.2504883
vt 0.03924561 0.1934814
vt 0.01856995 0.2495117
vt 0.02632141 0.1905518
vt 0.05603027 0.1529541
vt 0.02658081 0.1895752
vt 0.03231812 0.1757813
vt 0.2858887 0.1459961
vt 0.1166382 0.07965088
vt 0.1322021 0.06768799
vt 0.1269531 0.0645752
vt 0.1237183 0.06933594
vt 0.1166382 0.07965088
vt 0.1322021 0.06768799
vt 1 0
vt 0 0
vt 0.8549805 0.8549805
vt 1 1
vt 0.7373047 0.7373047
vn 0.2316895 -0.9296875 -0.2871094
vn 0.2316895 -0.9296875 -0.2871094
vn 0.2316895 -0.9296875 -0.2871094
vn -0.7714844 0.01449585 0.6357422
vn -0.7714844 0.01449585 0.6357422
vn -0.7714844 0.01449585 0.6357422
vn 0.3249512 -0.7241211 -0.6083984
vn 0.3249512 -0.7241211 -0.6083984
vn 0.3249512 -0.7241211 -0.6083984
vn -0.4436035 -0.1210327 -0.8881836
vn -0.4436035 -0.1210327 -0.8881836
vn -0.4436035 -0.1210327 -0.8881836
vn -0.4436035 -0.1210327 -0.8881836
vn -0.4436035 -0.1210327 -0.8881836
vn -0.4436035 -0.1210327 -0.8881836
vn -0.4436035 -0.1210327 -0.8881836
vn -0.4436035 -0.1210327 -0.8881836
vn -0.4436035 -0.1210327 -0.8881836
vn -0.4436035 -0.1210327 -0.8881836
vn -0.4436035 -0.1210327 -0.8881836
vn -0.4436035 -0.1210327 -0.8881836
vn -0.4436035 -0.1210327 -0.8881836
vn -0.4436035 -0.1210327 -0.8881836
vn -0.4436035 -0.1210327 -0.8881836
vn 0.243042 -0.9277344 -0.2827148
vn 0.243042 -0.9277344 -0.2827148
vn 0.243042 -0.9277344 -0.2827148
vn 0.4545898 -0.1993408 0.8681641
vn 0.4545898 -0.1993408 0.8681641
vn 0.4545898 -0.1993408 0.8681641
vn -0.3955078 0.9038086 0.1638184
vn -0.6879883 0.7099609 0.1506348
vn -0.5444336 0.8261719 0.145874
vn -0.4406738 -0.1265869 -0.8886719
vn -0.4406738 -0.1265869 -0.8886719
vn -0.4406738 -0.1265869 -0.8886719
vn -0.4406738 -0.1265869 -0.8886719
vn 0.2393799 -0.9267578 -0.2897949
vn 0.2393799 -0.9267578 -0.2897949
vn 0.2393799 -0.9267578 -0.2897949
vn 0.2393799 -0.9267578 -0.2897949
vn 0.2393799 -0.9267578 -0.2897949
vn 0.2393799 -0.9267578 -0.2897949
vn -0.7705078 0.01548767 0.637207
vn -0.7705078 0.01548767 0.637207
vn -0.7705078 0.01548767 0.637207
vn -0.7705078 0.01548767 0.637207
vn -0.7705078 0.01548767 0.637207
vn -0.7705078 0.01548767 0.637207
vn -0.7705078 0.01548767 0.637207
vn -0.7705078 0.01548767 0.637207
vn -0.7705078 0.01548767 0.637207
vn -0.7705078 0.01548767 0.637207
vn -0.7695313 0.01464081 0.6386719
vn -0.7695313 0.01464081 0.6386719
vn -0.7695313 0.01464081 0.6386719
vn -0.7695313 0.01464081 0.6386719
vn 0.4472656 -0.1773682 0.8764648
vn 0.4472656 -0.1773682 0.8764648
vn 0.4472656 -0.1773682 0.8764648
vn 0.4472656 -0.1773682 0.8764648
vn 0.4472656 -0.1773682 0.8764648
vn 0.9257813 -0.3010254 -0.2297363
vn 0.9257813 -0.3010254 -0.2297363
vn 0.9257813 -0.3010254 -0.2297363
vn 0.9257813 -0.3010254 -0.2297363
vn 0.2418213 -0.9262695 -0.2893066
vn 0.2418213 -0.9262695 -0.2893066
vn 0.2418213 -0.9262695 -0.2893066
vn 0.2418213 -0.9262695 -0.2893066
vn 0.2418213 -0.9262695 -0.2893066
vn 0.4506836 -0.1813965 0.8740234
vn 0.4506836 -0.1813965 0.8740234
vn 0.4506836 -0.1813965 0.8740234
vn 0.4506836 -0.1813965 0.8740234
vn 0.4506836 -0.1813965 0.8740234
vn -0.9912109 0 0.1304932
vn -0.9912109 0 0.1304932
vn -1 0 -1.192093E-07
vn -0.980957 0.1934814 -1.192093E-07
vn -0.9667969 0.2213135 0.1273193
vn -0.7788086 0.6191406 0.102478
vn -0.8344727 0.5512695 -1.788139E-07
vn -0.5634766 0.8261719 0
vn -0.5444336 0.8261719 0.145874
vn -0.6879883 0.7099609 0.1506348
vn -0.980957 0.1934814 -1.192093E-07
vn -0.9912109 0 -0.1304932
vn -0.9912109 0 -0.1304932
vn -0.9731445 0 -0.2299805
vn -0.9477539 0.1934814 -0.2539063
vn -0.9238281 0 -0.3825684
vn -0.9238281 0 -0.3825684
vn -0.8344727 0.5512695 -1.788139E-07
vn -0.9155273 0 -0.402832
vn -0.8061523 0.5512695 -0.2159424
vn -0.5634766 0.8261719 0
vn -0.5444336 0.8261719 -0.145874
vn -0.8496094 0.1934814 -0.4904785
vn -0.8061523 0.5512695 -0.2159424
vn -0.7226563 0.5512695 -0.4172363
vn -0.5444336 0.8261719 -0.145874
vn -0.4880371 0.8261719 -0.2817383
vn -0.7675781 0.2519531 -0.5893555
vn -0.8496094 0.1934814 -0.4904785
vn -0.7226563 0.5512695 -0.4172363
vn -0.6083984 0.6420898 -0.4667969
vn -0.3508301 0.8969727 -0.2692871
vn -0.4880371 0.8261719 -0.2817383
vn 0 -1 0
vn 0 -1 0
vn 0 -1 0
vn 0 -1 0
vn 0 -1 0
vn 0 -1 0
vn 0 -1 0
vn 0 -1 0
vn 0 -1 0
vn 0 -1 0
vn 0 -1 0
vn 0 -1 0
vn -0.04995728 0.9238281 -0.3793945
vn -0.02264404 0.9848633 -0.1719971
vn -0.005443573 0.9990234 -0.04135132
vn 0 1 0
vn -0.01462555 0.9995117 -0.01905823
vn -0.1478271 0.9780273 -0.1478271
vn -0.2758789 0.9248047 -0.2612305
vn -0.3508301 0.8969727 -0.2692871
vn -0.1810303 0.9780273 -0.1044922
vn -0.4880371 0.8261719 -0.2817383
vn 0 1 0
vn -0.2019043 0.9780273 -0.05410767
vn -0.4880371 0.8261719 -0.2817383
vn -0.5444336 0.8261719 -0.145874
vn -0.2089844 0.9780273 0
vn -0.5444336 0.8261719 -0.145874
vn -0.5634766 0.8261719 0
vn -0.2019043 0.9780273 0.05410767
vn -0.5634766 0.8261719 0
vn -0.5444336 0.8261719 0.145874
vn -0.03631592 0.9990234 0.01504517
vn -0.5444336 0.8261719 0.145874
vn -0.3955078 0.9038086 0.1638184
vn 0 1 0
vn -0.0181427 0.9995117 0.02365112
vn -0.08343506 0.9907227 0.1087036
vn -0.2329102 0.9238281 0.3037109
vn -0.2329102 0.9238281 0.3037109
vn -0.0181427 0.9995117 0.02365112
vn -0.08343506 0.9907227 0.1087036
vn 0.9238281 -0.3078613 -0.2285156
vn 0.9238281 -0.3078613 -0.2285156
vn 0.9238281 -0.3078613 -0.2285156
vn 0.9238281 -0.3078613 -0.2285156
vn 0.9238281 -0.3078613 -0.2285156
g lantern_cell.003_0
f 3/3/3 2/2/2 1/1/1
f 6/6/6 5/5/5 4/4/4
f 9/9/9 8/8/8 7/7/7
f 12/12/12 11/11/11 10/10/10
f 15/15/15 14/14/14 13/13/13
f 14/14/14 17/17/17 16/16/16
f 14/14/14 18/18/18 17/17/17
f 14/14/14 19/19/19 18/18/18
f 14/14/14 20/20/20 19/19/19
f 14/14/14 21/21/21 20/20/20
f 24/24/24 23/23/23 22/22/22
f 27/27/27 26/26/26 25/25/25
f 30/30/30 29/29/29 28/28/28
f 33/33/33 32/32/32 31/31/31
f 36/36/36 35/35/35 34/34/34
f 37/37/37 36/36/36 34/34/34
f 40/40/40 39/39/39 38/38/38
f 38/38/38 41/41/41 40/40/40
f 38/38/38 42/42/42 41/41/41
f 38/38/38 43/43/43 42/42/42
f 46/46/46 45/45/45 44/44/44
f 44/44/44 47/47/47 46/46/46
f 44/44/44 48/48/48 47/47/47
f 44/44/44 49/49/49 48/48/48
f 44/44/44 50/50/50 49/49/49
f 44/44/44 51/51/51 50/50/50
f 44/44/44 52/52/52 51/51/51
f 44/44/44 53/53/53 52/52/52
f 56/56/56 55/55/55 54/54/54
f 57/57/57 56/56/56 54/54/54
f 60/60/60 59/59/59 58/58/58
f 58/58/58 61/61/61 60/60/60
f 61/61/61 62/62/62 60/60/60
f 65/65/65 64/64/64 63/63/63
f 66/66/66 65/65/65 63/63/63
f 69/69/69 68/68/68 67/67/67
f 67/67/67 70/70/70 69/69/69
f 70/70/70 71/71/71 69/69/69
f 74/74/74 73/73/73 72/72/72
f 72/72/72 75/75/75 74/74/74
f 75/75/75 76/76/76 74/74/74
f 79/79/79 78/78/78 77/77/77
f 77/77/77 80/80/80 79/79/79
f 77/77/77 81/81/81 80/80/80
f 80/80/80 81/81/81 82/82/82
f 83/83/83 80/80/80 82/82/82
f 84/84/84 83/83/83 82/82/82
f 82/82/82 85/85/85 84/84/84
f 82/82/82 86/86/86 85/85/85
f 88/88/88 79/79/79 87/87/87
f 87/87/87 89/89/89 88/88/88
f 87/87/87 90/90/90 89/89/89
f 87/87/87 91/91/91 90/90/90
f 92/92/92 90/90/90 91/91/91
f 91/91/91 93/93/93 92/92/92
f 87/87/87 94/94/94 91/91/91
f 91/91/91 95/95/95 93/93/93
f 94/94/94 96/96/96 91/91/91
f 96/96/96 94/94/94 97/97/97
f 98/98/98 96/96/96 97/97/97
f 91/91/91 99/99/99 95/95/95
f 91/91/91 100/100/100 99/99/99
f 100/100/100 101/101/101 99/99/99
f 101/101/101 100/100/100 102/102/102
f 103/103/103 101/101/101 102/102/102
f 95/95/95 105/105/105 104/104/104
f 104/104/104 105/105/105 106/106/106
f 107/107/107 104/104/104 106/106/106
f 108/108/108 107/107/107 106/106/106
f 109/109/109 108/108/108 106/106/106
f 112/112/112 111/111/111 110/110/110
f 110/110/110 113/113/113 112/112/112
f 110/110/110 114/114/114 113/113/113
f 114/114/114 115/115/115 113/113/113
f 114/114/114 116/116/116 115/115/115
f 116/116/116 117/117/117 115/115/115
f 116/116/116 118/118/118 117/117/117
f 118/118/118 119/119/119 117/117/117
f 118/118/118 120/120/120 119/119/119
f 120/120/120 121/121/121 119/119/119
f 124/124/124 123/123/123 122/122/122
f 125/125/125 123/123/123 124/124/124
f 124/124/124 126/126/126 125/125/125
f 126/126/126 127/127/127 125/125/125
f 126/126/126 128/128/128 127/127/127
f 127/127/127 128/128/128 129/129/129
f 127/127/127 130/130/130 125/125/125
f 129/129/129 130/130/130 127/127/127
f 129/129/129 131/131/131 130/130/130
f 130/130/130 132/132/132 125/125/125
f 130/130/130 133/133/133 132/132/132
f 133/133/133 130/130/130 134/134/134
f 135/135/135 133/133/133 134/134/134
f 133/133/133 136/136/136 132/132/132
f 136/136/136 133/133/133 137/137/137
f 138/138/138 136/136/136 137/137/137
f 136/136/136 139/139/139 132/132/132
f 139/139/139 136/136/136 140/140/140
f 141/141/141 139/139/139 140/140/140
f 139/139/139 142/142/142 132/132/132
f 139/139/139 143/143/143 142/142/142
f 143/143/143 144/144/144 142/142/142
f 142/142/142 145/145/145 132/132/132
f 142/142/142 146/146/146 145/145/145
f 146/146/146 147/147/147 145/145/145
f 150/150/150 149/149/149 148/148/148
f 151/151/151 150/150/150 148/148/148
f 154/154/154 153/153/153 152/152/152
f 152/152/152 155/155/155 154/154/154
f 155/155/155 156/156/156 154/154/154
