g lever
v 0.02061869 0.07290646 0.1381837
v 0.02443811 0.07424831 0.1392649
v 0.02850809 0.06396944 0.1392649
v 0.02468866 0.06262767 0.1381837
v 0.02468866 0.06262767 0.1381837
v 0.02850809 0.06396944 0.1137253
v 0.02468866 0.06262767 0.1156232
v 0.02850809 0.06396944 0.1392649
v 0.03129449 0.06494825 0.1355373
v 0.03129449 0.06494825 0.1132664
v 0.05137791 0.07200338 0.116823
v 0.05137791 0.07200338 0.1355373
v 0.05387801 0.07288165 0.1392649
v 0.05387801 0.07288165 0.1215826
v 0.05695914 0.07396396 0.1311291
v 0.05695914 0.07396396 0.1384107
v 0.02468866 0.06262767 0.1156232
v 0.02443811 0.07424831 0.1137253
v 0.02061869 0.07290646 0.1156232
v 0.02850809 0.06396944 0.1137253
v 0.03129449 0.06494825 0.1132664
v 0.02722452 0.07522701 0.1132664
v 0.04730783 0.08228211 0.116823
v 0.05137791 0.07200338 0.116823
v 0.05387801 0.07288165 0.1215826
v 0.04980801 0.08316038 0.1215826
v 0.05288911 0.08424272 0.1311291
v 0.05695914 0.07396396 0.1311291
v 0.05288911 0.08424272 0.1384107
v 0.05695914 0.07396396 0.1384107
v 0.02061869 0.07290646 0.1156232
v 0.02443811 0.07424831 0.1392649
v 0.02061869 0.07290646 0.1381837
v 0.02443811 0.07424831 0.1137253
v 0.02722452 0.07522701 0.1132664
v 0.02722452 0.07522701 0.1355373
v 0.04730783 0.08228211 0.1355373
v 0.04730783 0.08228211 0.116823
v 0.04980801 0.08316038 0.1215826
v 0.04980801 0.08316038 0.1392649
v 0.05288911 0.08424272 0.1384107
v 0.05288911 0.08424272 0.1311291
v 0.02061869 0.07290646 0.1156232
v 0.02061869 0.07290646 0.1381837
v 0.02468866 0.06262767 0.1381837
v 0.02468866 0.06262767 0.1156232
v 0.04980801 0.08316038 0.1392649
v 0.05288911 0.08424272 0.1384107
v 0.05695914 0.07396396 0.1384107
v 0.05387801 0.07288165 0.1392649
v 0.02850809 0.06396944 0.1392649
v 0.02443811 0.07424831 0.1392649
v 0.02722452 0.07522701 0.1355373
v 0.03129449 0.06494825 0.1355373
v 0.05137791 0.07200338 0.1355373
v 0.04730783 0.08228211 0.1355373
v 0.04980801 0.08316038 0.1392649
v 0.05387801 0.07288165 0.1392649
vt 0.0701017 0.9185208
vt 0.0699669 0.9189996
vt 0.0699669 0.9189996
vt 0.0701017 0.9185208
vt 0.0701017 0.9185208
vt 0.0731516 0.9189996
vt 0.072915 0.9185208
vt 0.0699669 0.9189996
vt 0.0704317 0.9193489
vt 0.0732088 0.9193489
vt 0.0727653 0.9218665
vt 0.0704317 0.9218665
vt 0.0699669 0.9221799
vt 0.0721718 0.9221799
vt 0.0709814 0.9225661
vt 0.0700734 0.9225661
vt 0.072915 0.9185208
vt 0.0731516 0.9189996
vt 0.072915 0.9185208
vt 0.0731516 0.9189996
vt 0.0732088 0.9193489
vt 0.0732088 0.9193489
vt 0.0727653 0.9218665
vt 0.0727653 0.9218665
vt 0.0721718 0.9221799
vt 0.0721718 0.9221799
vt 0.0709814 0.9225661
vt 0.0709814 0.9225661
vt 0.0700734 0.9225661
vt 0.0700734 0.9225661
vt 0.072915 0.9185208
vt 0.0699669 0.9189996
vt 0.0701017 0.9185208
vt 0.0731516 0.9189996
vt 0.0732088 0.9193489
vt 0.0704317 0.9193489
vt 0.0704317 0.9218665
vt 0.0727653 0.9218665
vt 0.0721718 0.9221799
vt 0.0699669 0.9221799
vt 0.0700734 0.9225661
vt 0.0709814 0.9225661
vt 0.072915 0.9185208
vt 0.0701017 0.9185208
vt 0.0701017 0.9185208
vt 0.072915 0.9185208
vt 0.0699669 0.9221799
vt 0.0700734 0.9225661
vt 0.0700734 0.9225661
vt 0.0699669 0.9221799
vt 0.0699669 0.9189996
vt 0.0699669 0.9189996
vt 0.0704317 0.9193489
vt 0.0704317 0.9193489
vt 0.0704317 0.9218665
vt 0.0704317 0.9218665
vt 0.0699669 0.9221799
vt 0.0699669 0.9221799
vn -0.2400783 -0.09506059 0.9660879
vn -0.2400783 -0.09506059 0.9660879
vn -0.2400783 -0.09506059 0.9660879
vn -0.2400783 -0.09506059 0.9660879
vn 0.331446 -0.9434742 0
vn 0.3314358 -0.9434777 0
vn 0.331446 -0.9434742 0
vn 0.3314358 -0.9434777 0
vn 0.3314306 -0.9434796 0
vn 0.3314306 -0.9434796 0
vn 0.3314362 -0.9434776 0
vn 0.3314362 -0.9434776 0
vn 0.3314288 -0.9434802 0
vn 0.3314288 -0.9434802 0
vn 0.3314208 -0.9434831 0
vn 0.3314208 -0.9434831 0
vn -0.3949112 -0.1563677 -0.9053145
vn -0.2716402 -0.1075578 -0.9563696
vn -0.3949112 -0.1563677 -0.9053145
vn -0.2716402 -0.1075578 -0.9563696
vn 0.005294456 0.002096945 -0.9999838
vn 0.005294456 0.002096945 -0.9999838
vn 0.5359754 0.2122281 -0.8171227
vn 0.5359754 0.2122281 -0.8171227
vn 0.8495149 0.3363782 -0.4064162
vn 0.8495149 0.3363782 -0.4064162
vn 0.9171853 0.3631727 -0.163941
vn 0.9171853 0.3631727 -0.163941
vn 0.9297647 0.3681543 0
vn 0.9297647 0.3681543 0
vn -0.3314641 0.9434679 0
vn -0.3314284 0.9434803 0
vn -0.3314641 0.9434679 0
vn -0.3314284 0.9434803 0
vn -0.3314143 0.9434853 0
vn -0.3314143 0.9434853 0
vn -0.3314313 0.9434794 0
vn -0.3314313 0.9434794 0
vn -0.3314273 0.9434807 0
vn -0.3314273 0.9434807 0
vn -0.3314278 0.9434806 0
vn -0.3314278 0.9434806 0
vn -0.9297672 -0.368148 0
vn -0.9297672 -0.368148 0
vn -0.9297672 -0.368148 0
vn -0.9297672 -0.368148 0
vn 0.2354476 0.09322868 0.9674051
vn 0.2354476 0.09322868 0.9674051
vn 0.2354476 0.09322868 0.9674051
vn 0.2354476 0.09322868 0.9674051
vn 0.7289786 0.2886445 0.6207049
vn 0.7289786 0.2886445 0.6207049
vn 0.4049001 0.1603232 0.9001957
vn 0.4049001 0.1603232 0.9001957
vn -0.4265232 -0.1688889 0.8885689
vn -0.4265232 -0.1688889 0.8885689
vn -0.7579904 -0.3001387 0.5791092
vn -0.7579904 -0.3001387 0.5791092
g lever_0
f 3/3/3 2/2/2 1/1/1
f 4/4/4 3/3/3 1/1/1
f 7/7/7 6/6/6 5/5/5
f 6/6/6 8/8/8 5/5/5
f 9/9/9 8/8/8 6/6/6
f 10/10/10 9/9/9 6/6/6
f 9/9/9 10/10/10 11/11/11
f 12/12/12 9/9/9 11/11/11
f 13/13/13 12/12/12 11/11/11
f 14/14/14 13/13/13 11/11/11
f 14/14/14 15/15/15 13/13/13
f 15/15/15 16/16/16 13/13/13
f 19/19/19 18/18/18 17/17/17
f 18/18/18 20/20/20 17/17/17
f 20/20/20 18/18/18 21/21/21
f 18/18/18 22/22/22 21/21/21
f 21/21/21 22/22/22 23/23/23
f 24/24/24 21/21/21 23/23/23
f 24/24/24 23/23/23 25/25/25
f 23/23/23 26/26/26 25/25/25
f 26/26/26 27/27/27 25/25/25
f 27/27/27 28/28/28 25/25/25
f 28/28/28 27/27/27 29/29/29
f 30/30/30 28/28/28 29/29/29
f 33/33/33 32/32/32 31/31/31
f 32/32/32 34/34/34 31/31/31
f 34/34/34 32/32/32 35/35/35
f 32/32/32 36/36/36 35/35/35
f 35/35/35 36/36/36 37/37/37
f 38/38/38 35/35/35 37/37/37
f 38/38/38 37/37/37 39/39/39
f 37/37/37 40/40/40 39/39/39
f 40/40/40 41/41/41 39/39/39
f 41/41/41 42/42/42 39/39/39
f 45/45/45 44/44/44 43/43/43
f 46/46/46 45/45/45 43/43/43
f 49/49/49 48/48/48 47/47/47
f 50/50/50 49/49/49 47/47/47
f 53/53/53 52/52/52 51/51/51
f 54/54/54 53/53/53 51/51/51
f 53/53/53 54/54/54 55/55/55
f 56/56/56 53/53/53 55/55/55
f 57/57/57 56/56/56 55/55/55
f 58/58/58 57/57/57 55/55/55
