g LOCK_cell
v 0.05432435 0.2070992 -0.02643011
v 0.1279129 0.1412508 -0.09262498
v 0.1458071 0.1156187 -0.09262498
v -0.159097 -0.01488865 -0.07056432
v -0.159097 -0.005291551 -0.07056432
v -0.159097 -0.01488866 -0.06049899
v 0.009051226 0.2070992 -0.07056428
v -0.007675357 0.2006377 -0.08616357
v 0.008184873 0.2006377 -0.08616357
v -0.02048729 -0.173075 0.07704493
v 0.084328 -0.1140806 -0.09262504
v 0.0007148311 -0.1682968 -0.09262504
v 0.0007148311 -0.1682968 -0.09262504
v -0.01528801 -0.1783315 -0.08616363
v -0.02048729 -0.173075 0.07704493
v -0.01528801 -0.1783315 -0.08616363
v -0.0225425 -0.1822149 -0.07056434
v -0.02048729 -0.173075 0.07704493
v -0.0225425 -0.1822149 -0.07056434
v -0.02891432 -0.1794332 0.06031182
v -0.02048729 -0.173075 0.07704493
v 0.1458071 0.1156187 -0.09262498
v 0.1880696 0.05479157 -0.09262501
v 0.1191393 0.07542452 0.03680118
v 0.07828327 0.1273123 0.03680119
v 0.05432435 0.2070992 -0.02643011
v 0.07828327 0.1273123 0.04819126
v 0.06204188 0.1299361 0.08237258
v 0.06763469 0.1218866 0.08237258
v 0.04982625 0.2070992 -0.01576655
v 0.1422405 0.04172952 0.03680118
v 0.1191393 0.07542452 0.03680118
v 0.1880696 0.05479157 -0.09262501
v 0.1944842 0.04543535 -0.09262501
v 0.1300955 0.02398654 0.03680118
v 0.1422405 0.04172952 0.03680118
v 0.1944842 0.04543535 -0.09262501
v 0.1144466 0.01601302 0.06333654
v 0.1179296 0.006212875 0.03680118
v 0.1658417 0.003590547 -0.09262501
v 0.03925658 -0.1087232 0.03680116
v -0.005541176 -0.1486005 0.08237253
v 0.03395207 -0.1087232 0.05061292
v 0.0471246 -0.07165924 0.08237255
v 0.084328 -0.1140806 -0.09262504
v -0.02048729 -0.173075 0.07704493
v -0.01456457 -0.1616264 0.08237253
v -0.005541176 -0.1486005 0.08237253
v 0.1658417 0.003590547 -0.09262501
v 0.03469553 0.1850385 -0.09262498
v 0.1279129 0.1412508 -0.09262498
v 0.05432435 0.2070992 -0.02643011
v 0.008184873 0.2006377 -0.08616357
v 0.009051226 0.2070992 -0.07056428
v 0.04248732 0.2070992 -0.02559078
v -0.1012755 0.08877584 -0.092625
v -0.02486191 0.1850385 -0.09262498
v -0.007675357 0.2006377 -0.08616357
v 0.009051226 0.2070992 -0.07056428
v 0.01790552 0.07419334 0.08237258
v -0.1526356 0.01780685 -0.0861636
v -0.1370363 0.0436111 -0.09262501
v -0.1012755 0.08877584 -0.092625
v 0.06204188 0.1299361 0.08237258
v 0.04248732 0.2070992 -0.02559078
v 0.04982625 0.2070992 -0.01576655
v -0.1068154 -0.0845644 0.08237255
v -0.1192304 -0.09420672 0.0759111
v -0.1285434 -0.09118769 0.06031184
v -0.1468456 -0.06041142 0.003600467
v 0.01790552 0.07419334 0.08237258
v -0.159097 -0.01488866 -0.06049899
v -0.159097 -0.005291551 -0.07056432
v -0.1526356 0.01780685 -0.0861636
v 0.06204188 0.1299361 0.08237258
v 0.06763469 0.1218866 0.08237258
v 0.06197157 0.1190011 0.08237258
v 0.04902653 0.106056 0.08237258
v 0.01790552 0.07419334 0.08237258
v 0.04071533 0.08974433 0.08237258
v 0.03785147 0.07166266 0.08237258
v -0.005541176 -0.1486005 0.08237253
v 0.04071533 0.053581 0.08237258
v -0.1068154 -0.0845644 0.08237255
v 0.0471246 -0.07165924 0.08237255
v 0.04902653 0.03726927 0.08237256
v 0.06197157 0.02432423 0.08237256
v 0.07828327 0.01601302 0.08237256
v -0.01456457 -0.1616264 0.08237253
v -0.04406371 -0.1487483 0.08237253
v -0.02048729 -0.173075 0.07704493
v -0.05244227 -0.1621115 0.0759111
v -0.09418324 -0.1058061 0.08237255
v -0.1062801 -0.1159834 0.0759111
v -0.1068154 -0.0845644 0.08237255
v -0.1192304 -0.09420672 0.0759111
v 0.1658417 0.003590547 -0.09262501
v 0.1944842 0.04543535 -0.09262501
v 0.1880696 0.05479157 -0.09262501
v 0.1458071 0.1156187 -0.09262498
v 0.084328 -0.1140806 -0.09262504
v 0.1279129 0.1412508 -0.09262498
v 0.03469553 0.1850385 -0.09262498
v 0.0007148311 -0.1682968 -0.09262504
v -0.02486191 0.1850385 -0.09262498
v -0.04406371 -0.1487482 -0.09262504
v -0.01528801 -0.1783315 -0.08616363
v -0.05244227 -0.1621115 -0.08616363
v -0.1012755 0.08877584 -0.092625
v -0.09418324 -0.105806 -0.09262502
v -0.1062801 -0.1159834 -0.08616362
v -0.1263321 -0.05174572 -0.09262502
v -0.1370363 0.0436111 -0.09262501
v -0.1408374 -0.05787329 -0.0861636
v -0.1370363 -0.01197193 -0.09262501
v -0.1526356 0.01780685 -0.0861636
v -0.1526356 -0.01403439 -0.0861636
v 0.008184873 0.2006377 -0.08616357
v -0.007675357 0.2006377 -0.08616357
v -0.02486191 0.1850385 -0.09262498
v -0.0559128 -0.1676468 0.06031183
v -0.02891432 -0.1794332 0.06031182
v -0.0225425 -0.1822149 -0.07056434
v -0.0559128 -0.1676467 -0.07056434
v -0.1112908 -0.120199 0.06031183
v -0.1112908 -0.120199 -0.07056434
v -0.1285434 -0.09118769 0.06031184
v -0.1468456 -0.0604114 -0.07056432
v -0.1468456 -0.06041142 0.003600467
v -0.159097 -0.01488865 -0.07056432
v -0.159097 -0.01488866 -0.06049899
v -0.1192304 -0.09420672 0.0759111
v -0.1062801 -0.1159834 0.0759111
v -0.05244227 -0.1621115 0.0759111
v -0.02048729 -0.173075 0.07704493
v -0.02891432 -0.1794332 0.06031182
v 0.04248732 0.2070992 -0.02559078
v 0.009051226 0.2070992 -0.07056428
v 0.05432435 0.2070992 -0.02643011
v 0.04982625 0.2070992 -0.01576655
v -0.05244227 -0.1621115 -0.08616363
v -0.0225425 -0.1822149 -0.07056434
v -0.01528801 -0.1783315 -0.08616363
v -0.0559128 -0.1676467 -0.07056434
v -0.1062801 -0.1159834 -0.08616362
v -0.1112908 -0.120199 -0.07056434
v -0.1408374 -0.05787329 -0.0861636
v -0.1468456 -0.0604114 -0.07056432
v -0.1526356 -0.01403439 -0.0861636
v -0.159097 -0.01488865 -0.07056432
v -0.159097 -0.005291551 -0.07056432
v -0.1526356 0.01780685 -0.0861636
v 0.1300955 0.02398654 0.03680118
v 0.1144466 0.01601302 0.06333654
v 0.1144466 0.01601303 0.03680118
v 0.03925658 -0.1087232 0.03680116
v 0.03395207 -0.1087232 0.05061292
v 0.03395207 -0.1087232 0.03680116
v 0.1144466 0.01601302 0.06333654
v 0.1179296 0.006212875 0.03680118
v 0.1144466 0.01601303 0.03680118
v 0.1191393 0.07542452 0.03680118
v 0.1422405 0.04172952 0.03680118
v 0.1300955 0.02398654 0.03680118
v 0.1144466 0.01601303 0.03680118
v 0.07828327 0.1273123 0.03680119
v 0.07828327 0.01601303 0.03680118
v 0.06197157 0.1190011 0.03680119
v 0.03925658 -0.1087232 0.03680116
v 0.1179296 0.006212875 0.03680118
v 0.03395207 -0.1087232 0.03680116
v 0.06197157 0.02432424 0.03680118
v 0.04902653 0.106056 0.03680119
v 0.04902653 0.03726928 0.03680118
v 0.04071533 0.08974433 0.03680119
v 0.04071533 0.053581 0.03680118
v 0.03785147 0.07166266 0.03680118
v 0.07828327 0.01601303 0.03680118
v 0.07828327 0.01601302 0.08237256
v 0.06197157 0.02432423 0.08237256
v 0.06197157 0.02432424 0.03680118
v 0.04902653 0.03726927 0.08237256
v 0.04902653 0.03726928 0.03680118
v 0.04071533 0.053581 0.08237258
v 0.04071533 0.053581 0.03680118
v 0.03785147 0.07166266 0.08237258
v 0.03785147 0.07166266 0.03680118
v 0.04071533 0.08974433 0.08237258
v 0.04071533 0.08974433 0.03680119
v 0.04902653 0.106056 0.08237258
v 0.04902653 0.106056 0.03680119
v 0.06197157 0.1190011 0.08237258
v 0.06197157 0.1190011 0.03680119
v 0.07828327 0.1273123 0.04819126
v 0.07828327 0.1273123 0.03680119
v 0.06763469 0.1218866 0.08237258
v 0.07828327 0.01601303 0.03680118
v 0.03395207 -0.1087232 0.03680116
v 0.03395207 -0.1087232 0.05061292
v 0.0471246 -0.07165924 0.08237255
v 0.07828327 0.01601302 0.08237256
vt 1 0.0322876
vt 0.4169922 0
vt 1 0.5849609
vt 0.3017578 0.6508789
vt 0.3129883 0.6474609
vt 0.3032227 0.6401367
vt 0.9116211 0.5341797
vt 0.8979492 0.5209961
vt 0.8979492 0.5332031
vt 0.9667969 0.7602539
vt 1 0.1827393
vt 0.8178711 0.5571289
vt 0.8178711 0.5571289
vt 0.7944336 0.494873
vt 0.9667969 0.7602539
vt 0.7944336 0.494873
vt 0.737793 0.4709473
vt 0.9667969 0.7602539
vt 0.737793 0.4709473
vt 0.8154297 0.5527344
vt 0.9667969 0.7602539
vt 0.5849609 0.5849609
vt 1 0.8188477
vt 1 0.3476563
vt 0.6411133 0.1453857
vt 0.0322876 0.0322876
vt 0.6582031 0.1135254
vt 0.6772461 0
vt 0.7324219 0.0309906
vt 0.04388428 0
vt 1 0.3476563
vt 0.3476563 0.3476563
vt 0.8188477 0.8188477
vt 1 0.8188477
vt 0.4245605 0.3479004
vt 0.3476563 0.3476563
vt 0.8188477 0.8188477
vt 0.3591309 0.2514648
vt 0.5014648 0.3479004
vt 1 0.8193359
vt 0.9990234 0.348877
vt 1 0.1832275
vt 0.9467773 0.298584
vt 0.6669922 0.1827393
vt 0.8173828 0
vt 0.2021484 0
vt 0.1831055 0.09259033
vt 0.1832275 0.1832275
vt 0.8193359 0.8193359
vt 0.6020508 0.1851807
vt 1 0.5830078
vt 1 0.04376221
vt 0.5200195 0.04931641
vt 0.6054688 0.004814148
vt 1 0.9746094
vt 1 0.4179688
vt 0.519043 0.4172363
vt 0.4980469 0.4709473
vt 0.6035156 0.6005859
vt 0.8183594 0
vt 0.2055664 0
vt 0.2709961 0.1566162
vt 0.4179688 0.4179688
vt 1 0.3225098
vt 0.9746094 0.9746094
vt 1 0.9560547
vt 0.8193359 0.3649902
vt 0.7958984 0.3200684
vt 0.7392578 0.2868652
vt 0.5327148 0.2220459
vt 0.8183594 0.8183594
vt 0.2998047 0.1795654
vt 0.2631836 0.1798096
vt 0.2062988 0.2038574
vt 0.4052734 0.3413086
vt 0.3981934 0.3369141
vt 0.3962402 0.3413086
vt 0.387207 0.3515625
vt 0.3674316 0.3781738
vt 0.3757324 0.3586426
vt 0.3630371 0.3623047
vt 0.2192383 0.3933105
vt 0.3500977 0.3630371
vt 0.2717285 0.4697266
vt 0.2717285 0.3535156
vt 0.3378906 0.3601074
vt 0.3276367 0.3544922
vt 0.3205566 0.3479004
vt 0.2086182 0.4023438
vt 0.2220459 0.4255371
vt 0.1989746 0.4086914
vt 0.2111816 0.4338379
vt 0.2565918 0.4614258
vt 0.2490234 0.4716797
vt 0.2717285 0.4697266
vt 0.2646484 0.4799805
vt 0.7421875 0.6547852
vt 0.7753906 0.6777344
vt 0.7827148 0.6728516
vt 0.8305664 0.6396484
vt 0.6494141 0.5869141
vt 0.8505859 0.6259766
vt 0.8847656 0.5541992
vt 0.6083984 0.5170898
vt 0.8847656 0.5078125
vt 0.625 0.4821777
vt 0.5996094 0.503418
vt 0.6137695 0.4746094
vt 0.8105469 0.4455566
vt 0.659668 0.4443359
vt 0.6513672 0.4338379
vt 0.7021484 0.4211426
vt 0.7758789 0.4157715
vt 0.6972656 0.4086914
vt 0.7329102 0.4138184
vt 0.7568359 0.4020996
vt 0.7314453 0.4003906
vt 0.8979492 0.5332031
vt 0.8979492 0.5209961
vt 0.8847656 0.5078125
vt 0.2003174 0.4423828
vt 0.1870117 0.4211426
vt 0.07653809 0.4929199
vt 0.1008911 0.5292969
vt 0.2414551 0.4819336
vt 0.1660156 0.5913086
vt 0.2634277 0.4934082
vt 0.2437744 0.6342773
vt 0.2683105 0.5615234
vt 0.3017578 0.6508789
vt 0.3032227 0.6401367
vt 0.2646484 0.4799805
vt 0.2490234 0.4716797
vt 0.2111816 0.4338379
vt 0.1975098 0.4111328
vt 0.1870117 0.4211426
vt 0.5297852 0.3652344
vt 0.5615234 0.4047852
vt 0.5317383 0.354248
vt 0.5229492 0.3574219
vt 0.6137695 0.4746094
vt 0.5888672 0.4936523
vt 0.5996094 0.503418
vt 0.6025391 0.4665527
vt 0.6513672 0.4338379
vt 0.6430664 0.4233398
vt 0.6972656 0.4086914
vt 0.6923828 0.395752
vt 0.7314453 0.4003906
vt 0.7299805 0.3867188
vt 0.737793 0.387207
vt 0.7563477 0.4016113
vt 0.3369141 0.2958984
vt 0.324707 0.2888184
vt 0.3286133 0.3032227
vt 0.2685547 0.3305664
vt 0.2634277 0.3393555
vt 0.2687988 0.3322754
vt 0.324707 0.2888184
vt 0.3242188 0.3022461
vt 0.3286133 0.3032227
vt 0.3588867 0.3056641
vt 0.3466797 0.293457
vt 0.3369141 0.2958984
vt 0.3286133 0.3032227
vt 0.3779297 0.3217773
vt 0.331543 0.3232422
vt 0.375 0.3276367
vt 0.2685547 0.3305664
vt 0.3242188 0.3022461
vt 0.2687988 0.3322754
vt 0.3381348 0.3320313
vt 0.3701172 0.3320313
vt 0.3442383 0.3361816
vt 0.364502 0.3361816
vt 0.3513184 0.3383789
vt 0.3581543 0.3383789
vt 0.331543 0.3232422
vt 0.3205566 0.3479004
vt 0.3276367 0.3544922
vt 0.3381348 0.3320313
vt 0.3378906 0.3601074
vt 0.3442383 0.3361816
vt 0.3500977 0.3630371
vt 0.3513184 0.3383789
vt 0.3630371 0.3623047
vt 0.3581543 0.3383789
vt 0.3757324 0.3586426
vt 0.364502 0.3361816
vt 0.387207 0.3515625
vt 0.3701172 0.3320313
vt 0.3962402 0.3413086
vt 0.375 0.3276367
vt 0.3840332 0.3237305
vt 0.3779297 0.3217773
vt 0.3981934 0.3369141
vt 0.331543 0.3232422
vt 0.2687988 0.3322754
vt 0.2634277 0.3393555
vt 0.2717285 0.3535156
vt 0.3205566 0.3479004
vn 0.7758789 0.5415039 0.3237305
vn 0.7758789 0.5415039 0.3237305
vn 0.7758789 0.5415039 0.3237305
vn -0.9726563 -0.12854 -0.1934814
vn -0.9560547 0 -0.293457
vn -0.9794922 -0.2005615 0
vn 0 0.9238281 -0.3825684
vn 0 0.9238281 -0.3825684
vn 0 0.9238281 -0.3825684
vn 0.543457 -0.8383789 0.04431152
vn 0.543457 -0.8383789 0.04431152
vn 0.543457 -0.8383789 0.04431152
vn 0.543457 -0.8383789 0.04431152
vn 0.543457 -0.8383789 0.04431152
vn 0.543457 -0.8383789 0.04431152
vn 0.543457 -0.8383789 0.04431152
vn 0.543457 -0.8383789 0.04431152
vn 0.543457 -0.8383789 0.04431152
vn 0.543457 -0.8383789 0.04431152
vn 0.543457 -0.8383789 0.04431152
vn 0.543457 -0.8383789 0.04431152
vn 0.7749023 0.5371094 0.333252
vn 0.7749023 0.5371094 0.333252
vn 0.7749023 0.5371094 0.333252
vn 0.7749023 0.5371094 0.333252
vn 0.7749023 0.5371094 0.333252
vn 0.7749023 0.5371094 0.333252
vn 0.7749023 0.5371094 0.333252
vn 0.7749023 0.5371094 0.333252
vn 0.7749023 0.5371094 0.333252
vn 0.7788086 0.5336914 0.3295898
vn 0.7788086 0.5336914 0.3295898
vn 0.7788086 0.5336914 0.3295898
vn 0.7788086 0.5336914 0.3295898
vn 0.7866211 -0.5385742 0.302002
vn 0.7866211 -0.5385742 0.302002
vn 0.7866211 -0.5385742 0.302002
vn 0.7866211 -0.5385742 0.302002
vn 0.7866211 -0.5385742 0.302002
vn 0.7866211 -0.5385742 0.302002
vn 0.7866211 -0.5385742 0.302002
vn 0.7866211 -0.5385742 0.302002
vn 0.7866211 -0.5385742 0.302002
vn 0.7866211 -0.5385742 0.302002
vn 0.7851563 -0.5439453 0.2958984
vn 0.7851563 -0.5439453 0.2958984
vn 0.7851563 -0.5439453 0.2958984
vn 0.7851563 -0.5439453 0.2958984
vn 0.7851563 -0.5439453 0.2958984
vn 0.3894043 0.8334961 -0.3918457
vn 0.3894043 0.8334961 -0.3918457
vn 0.3894043 0.8334961 -0.3918457
vn 0.3894043 0.8334961 -0.3918457
vn 0.3894043 0.8334961 -0.3918457
vn -0.6767578 0.5371094 0.503418
vn -0.6767578 0.5371094 0.503418
vn -0.6767578 0.5371094 0.503418
vn -0.6767578 0.5371094 0.503418
vn -0.6767578 0.5371094 0.503418
vn -0.6767578 0.5356445 0.5053711
vn -0.6767578 0.5356445 0.5053711
vn -0.6767578 0.5356445 0.5053711
vn -0.6767578 0.5356445 0.5053711
vn -0.6767578 0.5356445 0.5053711
vn -0.6767578 0.5356445 0.5053711
vn -0.6767578 0.5356445 0.5053711
vn -0.6777344 0.5322266 0.5073242
vn -0.6777344 0.5322266 0.5073242
vn -0.6777344 0.5322266 0.5073242
vn -0.6777344 0.5322266 0.5073242
vn -0.6777344 0.5322266 0.5073242
vn -0.6777344 0.5322266 0.5073242
vn -0.6777344 0.5322266 0.5073242
vn -0.6777344 0.5322266 0.5073242
vn 0 0 1
vn 0 0 1
vn 0 0 1
vn 0 0 1
vn 0 0 1
vn 0 0 1
vn 0 0 1
vn 0 0 1
vn 0 0 1
vn -0.1437988 -0.08551025 0.9858398
vn 0 0 1
vn 0 0 1
vn 0 0 1
vn 0 0 1
vn -0.07196045 -0.1647949 0.9838867
vn -0.1118774 -0.1784668 0.9775391
vn -0.1530762 -0.3508301 0.9238281
vn -0.2028809 -0.3203125 0.925293
vn -0.1621094 -0.1363525 0.9775391
vn -0.2895508 -0.2435303 0.9257813
vn -0.1437988 -0.08551025 0.9858398
vn -0.3288574 -0.1955566 0.9238281
vn 0 0 -1
vn 0 0 -1
vn 0 0 -1
vn 0 0 -1
vn 0 0 -1
vn 0 0 -1
vn 0 0.06713867 -0.9975586
vn -0.04962158 -0.1136475 -0.9921875
vn 0 0.09991455 -0.9951172
vn -0.1118774 -0.1784668 -0.9775391
vn -0.1530762 -0.3505859 -0.9238281
vn -0.201416 -0.3210449 -0.925293
vn 0 0 -1
vn -0.1621094 -0.1363525 -0.9775391
vn -0.2895508 -0.2435303 -0.9257813
vn -0.1929932 -0.08154297 -0.9780273
vn -0.07354736 0 -0.9970703
vn -0.3496094 -0.1477051 -0.925293
vn -0.2072754 -0.02737427 -0.9780273
vn -0.3825684 0 -0.9238281
vn -0.3764648 -0.04977417 -0.9248047
vn 0 0.3825684 -0.9238281
vn 0 0.3825684 -0.9238281
vn 0 0.09991455 -0.9951172
vn -0.5136719 -0.8325195 0.206543
vn -0.373291 -0.8974609 0.234375
vn -0.390625 -0.8950195 -0.2149658
vn -0.5209961 -0.8310547 -0.1934814
vn -0.7509766 -0.6318359 0.1936035
vn -0.7509766 -0.6318359 -0.1936035
vn -0.8515625 -0.5063477 0.137207
vn -0.9038086 -0.3818359 -0.1934814
vn -0.8857422 -0.4643555 0
vn -0.9726563 -0.12854 -0.1934814
vn -0.9794922 -0.2005615 0
vn -0.7939453 -0.472168 0.3825684
vn -0.7055664 -0.59375 0.3869629
vn -0.4694824 -0.7807617 0.4121094
vn -0.3320313 -0.8388672 0.4309082
vn -0.373291 -0.8974609 0.234375
vn 0 1 0
vn 0 1 0
vn 0 1 0
vn 0 1 0
vn -0.4899902 -0.78125 -0.3862305
vn -0.390625 -0.8950195 -0.2149658
vn -0.3696289 -0.8466797 -0.3825684
vn -0.5209961 -0.8310547 -0.1934814
vn -0.7055664 -0.59375 -0.3869629
vn -0.7509766 -0.6318359 -0.1936035
vn -0.8500977 -0.3591309 -0.3857422
vn -0.9038086 -0.3818359 -0.1934814
vn -0.9145508 -0.1209106 -0.385498
vn -0.9726563 -0.12854 -0.1934814
vn -0.9560547 0 -0.293457
vn -0.9238281 0 -0.3825684
vn -0.4538574 0.8911133 0
vn -0.4538574 0.8911133 0
vn -0.4538574 0.8911133 0
vn 0 1 0
vn 0 1 0
vn 0 1 0
vn -0.9423828 -0.3349609 0
vn -0.9423828 -0.3349609 0
vn -0.9423828 -0.3349609 0
vn 0 0 1
vn 0 0 1
vn 0 0 1
vn 0 0 1
vn 0 0 1
vn 0 0 1
vn 0 0 1
vn 0 0 1
vn 0 0 1
vn 0 0 1
vn 0 0 1
vn 0 0 1
vn 0 0 1
vn 0 0 1
vn 0 0 1
vn 0 0 1
vn 0.4538574 0.8911133 0
vn 0.4538574 0.8911133 0
vn 0.5878906 0.809082 0
vn 0.5878906 0.809082 0
vn 0.809082 0.5878906 0
vn 0.809082 0.5878906 0
vn 0.9511719 0.309082 0
vn 0.9511719 0.309082 0
vn 1 0 0
vn 1 0 0
vn 0.9511719 -0.309082 0
vn 0.9511719 -0.309082 0
vn 0.809082 -0.5878906 0
vn 0.809082 -0.5878906 0
vn 0.5878906 -0.809082 0
vn 0.5878906 -0.809082 0
vn 0.4538574 -0.8911133 0
vn 0.4538574 -0.8911133 0
vn 0.4538574 -0.8911133 0
vn 0.9423828 -0.3349609 0
vn 0.9423828 -0.3349609 0
vn 0.9423828 -0.3349609 0
vn 0.9423828 -0.3349609 0
vn 0.9423828 -0.3349609 0
g LOCK_cell_0
f 3/3/3 2/2/2 1/1/1
f 6/6/6 5/5/5 4/4/4
f 9/9/9 8/8/8 7/7/7
f 12/12/12 11/11/11 10/10/10
f 15/15/15 14/14/14 13/13/13
f 18/18/18 17/17/17 16/16/16
f 21/21/21 20/20/20 19/19/19
f 24/24/24 23/23/23 22/22/22
f 22/22/22 25/25/25 24/24/24
f 22/22/22 26/26/26 25/25/25
f 26/26/26 27/27/27 25/25/25
f 26/26/26 28/28/28 27/27/27
f 29/29/29 27/27/27 28/28/28
f 26/26/26 30/30/30 28/28/28
f 33/33/33 32/32/32 31/31/31
f 34/34/34 33/33/33 31/31/31
f 37/37/37 36/36/36 35/35/35
f 37/37/37 35/35/35 38/38/38
f 37/37/37 38/38/38 39/39/39
f 40/40/40 37/37/37 39/39/39
f 40/40/40 39/39/39 41/41/41
f 41/41/41 42/42/42 40/40/40
f 42/42/42 41/41/41 43/43/43
f 43/43/43 44/44/44 42/42/42
f 47/47/47 46/46/46 45/45/45
f 45/45/45 48/48/48 47/47/47
f 45/45/45 49/49/49 48/48/48
f 52/52/52 51/51/51 50/50/50
f 50/50/50 53/53/53 52/52/52
f 53/53/53 54/54/54 52/52/52
f 57/57/57 56/56/56 55/55/55
f 55/55/55 58/58/58 57/57/57
f 55/55/55 59/59/59 58/58/58
f 62/62/62 61/61/61 60/60/60
f 60/60/60 63/63/63 62/62/62
f 60/60/60 64/64/64 63/63/63
f 64/64/64 65/65/65 63/63/63
f 64/64/64 66/66/66 65/65/65
f 69/69/69 68/68/68 67/67/67
f 67/67/67 70/70/70 69/69/69
f 67/67/67 71/71/71 70/70/70
f 71/71/71 72/72/72 70/70/70
f 71/71/71 73/73/73 72/72/72
f 71/71/71 74/74/74 73/73/73
f 77/77/77 76/76/76 75/75/75
f 75/75/75 78/78/78 77/77/77
f 75/75/75 79/79/79 78/78/78
f 79/79/79 80/80/80 78/78/78
f 79/79/79 81/81/81 80/80/80
f 81/81/81 79/79/79 82/82/82
f 83/83/83 81/81/81 82/82/82
f 79/79/79 84/84/84 82/82/82
f 83/83/83 82/82/82 85/85/85
f 86/86/86 83/83/83 85/85/85
f 87/87/87 86/86/86 85/85/85
f 85/85/85 88/88/88 87/87/87
f 84/84/84 89/89/89 82/82/82
f 84/84/84 90/90/90 89/89/89
f 89/89/89 90/90/90 91/91/91
f 90/90/90 92/92/92 91/91/91
f 84/84/84 93/93/93 90/90/90
f 94/94/94 92/92/92 90/90/90
f 93/93/93 94/94/94 90/90/90
f 93/93/93 95/95/95 94/94/94
f 95/95/95 96/96/96 94/94/94
f 99/99/99 98/98/98 97/97/97
f 97/97/97 100/100/100 99/99/99
f 97/97/97 101/101/101 100/100/100
f 101/101/101 102/102/102 100/100/100
f 101/101/101 103/103/103 102/102/102
f 101/101/101 104/104/104 103/103/103
f 104/104/104 105/105/105 103/103/103
f 104/104/104 106/106/106 105/105/105
f 104/104/104 107/107/107 106/106/106
f 107/107/107 108/108/108 106/106/106
f 106/106/106 109/109/109 105/105/105
f 106/106/106 108/108/108 110/110/110
f 106/106/106 110/110/110 109/109/109
f 108/108/108 111/111/111 110/110/110
f 110/110/110 112/112/112 109/109/109
f 110/110/110 111/111/111 112/112/112
f 112/112/112 113/113/113 109/109/109
f 111/111/111 114/114/114 112/112/112
f 112/112/112 115/115/115 113/113/113
f 112/112/112 114/114/114 115/115/115
f 116/116/116 113/113/113 115/115/115
f 114/114/114 117/117/117 115/115/115
f 117/117/117 116/116/116 115/115/115
f 119/119/119 118/118/118 103/103/103
f 120/120/120 119/119/119 103/103/103
f 123/123/123 122/122/122 121/121/121
f 124/124/124 123/123/123 121/121/121
f 121/121/121 125/125/125 124/124/124
f 125/125/125 126/126/126 124/124/124
f 126/126/126 125/125/125 127/127/127
f 127/127/127 128/128/128 126/126/126
f 127/127/127 129/129/129 128/128/128
f 128/128/128 129/129/129 130/130/130
f 129/129/129 131/131/131 130/130/130
f 132/132/132 127/127/127 125/125/125
f 133/133/133 132/132/132 125/125/125
f 133/133/133 125/125/125 134/134/134
f 125/125/125 121/121/121 134/134/134
f 134/134/134 121/121/121 135/135/135
f 121/121/121 136/136/136 135/135/135
f 139/139/139 138/138/138 137/137/137
f 140/140/140 139/139/139 137/137/137
f 143/143/143 142/142/142 141/141/141
f 142/142/142 144/144/144 141/141/141
f 141/141/141 144/144/144 145/145/145
f 144/144/144 146/146/146 145/145/145
f 145/145/145 146/146/146 147/147/147
f 146/146/146 148/148/148 147/147/147
f 147/147/147 148/148/148 149/149/149
f 148/148/148 150/150/150 149/149/149
f 150/150/150 151/151/151 149/149/149
f 151/151/151 152/152/152 149/149/149
g LOCK_cell_1
f 155/155/155 154/154/154 153/153/153
f 158/158/158 157/157/157 156/156/156
f 161/161/161 160/160/160 159/159/159
f 164/164/164 163/163/163 162/162/162
f 162/162/162 165/165/165 164/164/164
f 162/162/162 166/166/166 165/165/165
f 165/165/165 166/166/166 167/167/167
f 167/167/167 166/166/166 168/168/168
f 165/165/165 167/167/167 169/169/169
f 169/169/169 170/170/170 165/165/165
f 167/167/167 171/171/171 169/169/169
f 168/168/168 172/172/172 167/167/167
f 168/168/168 173/173/173 172/172/172
f 173/173/173 174/174/174 172/172/172
f 173/173/173 175/175/175 174/174/174
f 175/175/175 176/176/176 174/174/174
f 175/175/175 177/177/177 176/176/176
f 180/180/180 179/179/179 178/178/178
f 181/181/181 180/180/180 178/178/178
f 182/182/182 180/180/180 181/181/181
f 183/183/183 182/182/182 181/181/181
f 184/184/184 182/182/182 183/183/183
f 185/185/185 184/184/184 183/183/183
f 186/186/186 184/184/184 185/185/185
f 187/187/187 186/186/186 185/185/185
f 188/188/188 186/186/186 187/187/187
f 189/189/189 188/188/188 187/187/187
f 190/190/190 188/188/188 189/189/189
f 191/191/191 190/190/190 189/189/189
f 192/192/192 190/190/190 191/191/191
f 193/193/193 192/192/192 191/191/191
f 194/194/194 192/192/192 193/193/193
f 193/193/193 195/195/195 194/194/194
f 194/194/194 196/196/196 192/192/192
f 199/199/199 198/198/198 197/197/197
f 197/197/197 200/200/200 199/199/199
f 197/197/197 201/201/201 200/200/200
