g LOCK_cell.002
v 0.1603956 0.05368697 0.07140583
v 0.162783 0.05770154 0.05621197
v 0.1808505 0.08808307 -0.05947033
v 0.162783 0.05770154 0.05621197
v 0.02119946 0.06394479 -0.08153103
v 0.1554846 0.08858927 -0.08153103
v 0.1748482 0.09063119 -0.07506961
v 0.1808505 0.08808307 -0.05947033
v -0.1614002 -0.01538615 -0.07506963
v -0.1453761 -0.005360683 -0.08153103
v -0.06196379 0.0485827 -0.08153103
v -0.167312 -0.01070442 0.08780265
v -0.1686606 -0.01926691 -0.05947035
v -0.1749694 -0.01651274 0.07140583
v -0.167312 -0.01070442 0.08780265
v -0.06196379 0.0485827 -0.08153103
v 0.02119946 0.06394479 -0.08153103
v 0.162783 0.05770154 0.05621197
v 0.1603956 0.05368697 0.07140583
v 0.1492583 0.04794365 0.0870778
v 0.1168014 0.04044551 0.09346655
v -0.1411529 -0.007204399 0.09346654
v -0.04810533 -0.04479443 0.07140581
v 0.02924676 -0.03429747 -0.05947035
v -0.04810533 -0.0447944 -0.05947035
v 0.02924676 -0.03429749 0.07140581
v 0.09902707 -0.003834152 -0.05947034
v 0.09902707 -0.003834175 0.07140583
v 0.1544051 0.04361355 -0.05947034
v 0.02748624 -0.02801572 0.08700509
v 0.09555659 0.001701036 0.08700511
v 0.1492583 0.04794365 0.0870778
v -0.04854174 -0.038333 0.08700509
v 0.1544051 0.04361354 0.07140583
v 0.1603956 0.05368697 0.07140583
v 0.1808505 0.08808307 -0.05947033
v -0.05687895 -0.04479443 0.07140581
v -0.05644254 -0.038333 0.08700509
v -0.05687895 -0.0447944 -0.05947035
v -0.04810533 -0.0447944 -0.05947035
v -0.134231 -0.03429749 0.07140581
v -0.134231 -0.03429747 -0.05947035
v -0.1686606 -0.01926691 -0.05947035
v -0.1324705 -0.02801572 0.08700509
v -0.1749694 -0.01651274 0.07140583
v -0.167312 -0.01070442 0.08780265
v -0.1453761 -0.005360683 -0.08153103
v -0.1614002 -0.01538615 -0.07506963
v -0.1324705 -0.02801569 -0.07506964
v -0.1282202 -0.01285029 -0.08153103
v -0.05644254 -0.03833298 -0.07506964
v -0.06196379 0.0485827 -0.08153103
v -0.05538893 -0.02273373 -0.08153105
v -0.04854174 -0.03833298 -0.07506964
v -0.04959533 -0.02273373 -0.08153105
v 0.02748624 -0.02801569 -0.07506964
v 0.02119946 0.06394479 -0.08153103
v 0.02323597 -0.01285029 -0.08153103
v 0.09555659 0.001701066 -0.07506962
v 0.08717803 0.01506433 -0.08153103
v 0.1493944 0.04782917 -0.07506962
v 0.1372975 0.05800655 -0.08153103
v 0.1554846 0.08858927 -0.08153103
v 0.1748482 0.09063119 -0.07506961
v -0.1614002 -0.01538615 -0.07506963
v -0.1686606 -0.01926691 -0.05947035
v -0.134231 -0.03429747 -0.05947035
v -0.1324705 -0.02801569 -0.07506964
v -0.05687895 -0.0447944 -0.05947035
v -0.05644254 -0.03833298 -0.07506964
v -0.04810533 -0.0447944 -0.05947035
v -0.04854174 -0.03833298 -0.07506964
v 0.02924676 -0.03429747 -0.05947035
v 0.02748624 -0.02801569 -0.07506964
v 0.09902707 -0.003834152 -0.05947034
v 0.09555659 0.001701066 -0.07506962
v 0.1544051 0.04361355 -0.05947034
v 0.1493944 0.04782917 -0.07506962
v 0.1748482 0.09063119 -0.07506961
v 0.1808505 0.08808307 -0.05947033
v -0.167312 -0.01070442 0.08780265
v -0.1411529 -0.007204399 0.09346654
v -0.1282202 -0.01285032 0.09346654
v -0.1324705 -0.02801572 0.08700509
v -0.05538893 -0.02273376 0.09346654
v -0.05644254 -0.038333 0.08700509
v -0.1411529 -0.007204399 0.09346654
v -0.04959533 -0.02273376 0.09346654
v -0.04854174 -0.038333 0.08700509
v 0.02323597 -0.01285032 0.09346654
v 0.02748624 -0.02801572 0.08700509
v 0.08717803 0.0150643 0.09346654
v 0.1168014 0.04044551 0.09346655
v 0.09555659 0.001701036 0.08700511
v 0.1492583 0.04794365 0.0870778
v 0.1168014 0.04044551 0.09346655
vt 0.2583008 0.1385498
vt 0.2563477 0.1239624
vt 0.2531738 0.01143646
vt 0.6826172 0
vt 0.1828613 0
vt 0.6572266 0.4748535
vt 0.7260742 0.5200195
vt 0.7470703 0.484375
vt 0.793457 0.3842773
vt 0.8168945 0.3359375
vt 0.8168945 0
vt 0.2017822 0
vt 0.7368164 0.3745117
vt 0.2614746 0.07196045
vt 0.2017822 0.2017822
vt 0.8168945 0.8168945
vt 1 0.8168945
vt 1 0.3173828
vt 0.9604492 0.262207
vt 0.9008789 0.2055664
vt 0.8144531 0.1820068
vt 0.246582 0.1812744
vt 0.1418457 0.307373
vt 0.05355835 0.1436768
vt 0 0.2263184
vt 0.1665039 0.2321777
vt 0.119873 0.07531738
vt 0.2059326 0.1781006
vt 0.1954346 0.02867126
vt 0.1804199 0.2392578
vt 0.2161865 0.1877441
vt 0.2570801 0.152832
vt 0.1604004 0.307373
vt 0.2504883 0.1419678
vt 0.2583008 0.1385498
vt 0.2531738 0.01143646
vt 0.1439209 0.3171387
vt 0.1605225 0.3151855
vt 0.01203918 0.3710938
vt 0.008346558 0.3620605
vt 0.1658936 0.3874512
vt 0.04998779 0.4533691
vt 0.07513428 0.4909668
vt 0.1795654 0.3811035
vt 0.1860352 0.4194336
vt 0.1966553 0.4094238
vt 0.6074219 0.5185547
vt 0.5991211 0.5048828
vt 0.5878906 0.527832
vt 0.6010742 0.5317383
vt 0.5766602 0.5898438
vt 0.6489258 0.5883789
vt 0.5913086 0.5908203
vt 0.5766602 0.5966797
vt 0.5917969 0.5961914
vt 0.5854492 0.6611328
vt 0.6601563 0.65625
vt 0.5991211 0.6572266
vt 0.609375 0.7172852
vt 0.621582 0.7099609
vt 0.6464844 0.7612305
vt 0.6557617 0.7504883
vt 0.6796875 0.765625
vt 0.6806641 0.7822266
vt 0.5991211 0.5048828
vt 0.5883789 0.4951172
vt 0.5742188 0.5229492
vt 0.5878906 0.527832
vt 0.5620117 0.5888672
vt 0.5766602 0.5898438
vt 0.5615234 0.597168
vt 0.5766602 0.5966797
vt 0.5712891 0.6650391
vt 0.5854492 0.6611328
vt 0.597168 0.7250977
vt 0.609375 0.7172852
vt 0.637207 0.7719727
vt 0.6464844 0.7612305
vt 0.6806641 0.7822266
vt 0.6743164 0.7949219
vt 0.1966553 0.4094238
vt 0.1988525 0.385498
vt 0.1928711 0.3752441
vt 0.1795654 0.3811035
vt 0.1760254 0.3137207
vt 0.1605225 0.3151855
vt 0.1988525 0.385498
vt 0.1761475 0.3085938
vt 0.1604004 0.307373
vt 0.1938477 0.2457275
vt 0.1804199 0.2392578
vt 0.2264404 0.1967773
vt 0.2486572 0.177124
vt 0.2161865 0.1877441
vt 0.2573242 0.1529541
vt 0.2486572 0.177124
vn 0.8510742 -0.5063477 0.1395264
vn 0.859375 -0.5112305 0
vn 0.8398438 -0.4995117 -0.2121582
vn -0.1759033 0.9584961 0.2242432
vn -0.1759033 0.9584961 0.2242432
vn -0.1759033 0.9584961 0.2242432
vn -0.1759033 0.9584961 0.2242432
vn -0.1759033 0.9584961 0.2242432
vn -0.5424805 0.8388672 -0.04379272
vn -0.5424805 0.8388672 -0.04379272
vn -0.5424805 0.8388672 -0.04379272
vn -0.5424805 0.8388672 -0.04379272
vn -0.5424805 0.8388672 -0.04379272
vn -0.5424805 0.8388672 -0.04379272
vn -0.177002 0.9580078 0.2253418
vn -0.177002 0.9580078 0.2253418
vn -0.177002 0.9580078 0.2253418
vn -0.177002 0.9580078 0.2253418
vn -0.177002 0.9580078 0.2253418
vn -0.177002 0.9580078 0.2253418
vn -0.177002 0.9580078 0.2253418
vn -0.177002 0.9580078 0.2253418
vn 0.06610107 -0.9790039 0.1938477
vn 0.2646484 -0.9448242 -0.1934814
vn 0.06610107 -0.9790039 -0.1938477
vn 0.2646484 -0.9448242 0.1934814
vn 0.5209961 -0.8310547 -0.1934814
vn 0.5209961 -0.8310547 0.194458
vn 0.7509766 -0.6318359 -0.1936035
vn 0.2489014 -0.8881836 0.3857422
vn 0.4899902 -0.7807617 0.3881836
vn 0.6591797 -0.6420898 0.3908691
vn 0.06222534 -0.9213867 0.3833008
vn 0.7504883 -0.6313477 0.1964111
vn 0.8510742 -0.5063477 0.1395264
vn 0.8398438 -0.4995117 -0.2121582
vn -0.06610107 -0.9790039 0.1938477
vn -0.06222534 -0.9213867 0.3833008
vn -0.06610107 -0.9790039 -0.1938477
vn 0.06610107 -0.9790039 -0.1938477
vn -0.2675781 -0.9414063 0.2042236
vn -0.2646484 -0.9448242 -0.1934814
vn -0.394043 -0.902832 -0.1717529
vn -0.2548828 -0.8774414 0.4067383
vn -0.3991699 -0.8945313 0.201416
vn -0.3779297 -0.8237305 0.4226074
vn -0.1065063 -0.2440186 -0.9638672
vn -0.1530762 -0.3505859 -0.9238281
vn -0.102417 -0.3654785 -0.925293
vn -0.05657959 -0.2019043 -0.9775391
vn -0.02572632 -0.3811035 -0.9243164
vn 0 0 -1
vn -0.01364136 -0.2022705 -0.9790039
vn 0.02572632 -0.3811035 -0.9243164
vn 0.01364136 -0.2022705 -0.9790039
vn 0.102417 -0.3654785 -0.925293
vn 0 0 -1
vn 0.05657959 -0.2019043 -0.9775391
vn 0.201416 -0.3210449 -0.925293
vn 0.1118774 -0.1784668 -0.9775391
vn 0.2895508 -0.2435303 -0.9257813
vn 0.1621094 -0.1363525 -0.9775391
vn 0.2399902 -0.1427002 -0.9604492
vn 0.3288574 -0.1955566 -0.9238281
vn -0.3696289 -0.8466797 -0.3825684
vn -0.394043 -0.902832 -0.1717529
vn -0.2646484 -0.9448242 -0.1934814
vn -0.2489014 -0.8881836 -0.3857422
vn -0.06610107 -0.9790039 -0.1938477
vn -0.06222534 -0.9213867 -0.3833008
vn 0.06610107 -0.9790039 -0.1938477
vn 0.06222534 -0.9213867 -0.3833008
vn 0.2646484 -0.9448242 -0.1934814
vn 0.2489014 -0.8881836 -0.3857422
vn 0.5209961 -0.8310547 -0.1934814
vn 0.4899902 -0.78125 -0.3862305
vn 0.7509766 -0.6318359 -0.1936035
vn 0.7055664 -0.59375 -0.3869629
vn 0.7939453 -0.472168 -0.3825684
vn 0.8398438 -0.4995117 -0.2121582
vn -0.1530762 -0.3508301 0.9238281
vn -0.1257324 -0.2880859 0.9492188
vn -0.05657959 -0.2019043 0.9775391
vn -0.1014404 -0.3657227 0.925293
vn -0.01364136 -0.2022705 0.9790039
vn -0.02572632 -0.3811035 0.9243164
vn -0.1257324 -0.2880859 0.9492188
vn 0.01364136 -0.2022705 0.9790039
vn 0.02572632 -0.3811035 0.9243164
vn 0.05657959 -0.2019043 0.9775391
vn 0.102417 -0.3654785 0.925293
vn 0.1118774 -0.1784668 0.9775391
vn 0.2097168 -0.244751 0.9467773
vn 0.2012939 -0.3212891 0.925293
vn 0.2490234 -0.2905273 0.9238281
vn 0.2097168 -0.244751 0.9467773
g LOCK_cell.002_0
f 3/3/3 2/2/2 1/1/1
f 6/6/6 5/5/5 4/4/4
f 4/4/4 7/7/7 6/6/6
f 4/4/4 8/8/8 7/7/7
f 11/11/11 10/10/10 9/9/9
f 9/9/9 12/12/12 11/11/11
f 9/9/9 13/13/13 12/12/12
f 13/13/13 14/14/14 12/12/12
f 17/17/17 16/16/16 15/15/15
f 15/15/15 18/18/18 17/17/17
f 15/15/15 19/19/19 18/18/18
f 15/15/15 20/20/20 19/19/19
f 15/15/15 21/21/21 20/20/20
f 15/15/15 22/22/22 21/21/21
f 25/25/25 24/24/24 23/23/23
f 24/24/24 26/26/26 23/23/23
f 24/24/24 27/27/27 26/26/26
f 27/27/27 28/28/28 26/26/26
f 27/27/27 29/29/29 28/28/28
f 23/23/23 26/26/26 30/30/30
f 30/30/30 26/26/26 31/31/31
f 26/26/26 28/28/28 31/31/31
f 31/31/31 28/28/28 32/32/32
f 33/33/33 23/23/23 30/30/30
f 28/28/28 34/34/34 32/32/32
f 29/29/29 34/34/34 28/28/28
f 34/34/34 35/35/35 32/32/32
f 35/35/35 34/34/34 29/29/29
f 29/29/29 36/36/36 35/35/35
f 37/37/37 23/23/23 33/33/33
f 38/38/38 37/37/37 33/33/33
f 23/23/23 37/37/37 39/39/39
f 40/40/40 23/23/23 39/39/39
f 41/41/41 37/37/37 38/38/38
f 37/37/37 41/41/41 39/39/39
f 41/41/41 42/42/42 39/39/39
f 42/42/42 41/41/41 43/43/43
f 44/44/44 41/41/41 38/38/38
f 41/41/41 45/45/45 43/43/43
f 41/41/41 44/44/44 45/45/45
f 44/44/44 46/46/46 45/45/45
f 49/49/49 48/48/48 47/47/47
f 50/50/50 49/49/49 47/47/47
f 51/51/51 49/49/49 50/50/50
f 50/50/50 47/47/47 52/52/52
f 53/53/53 51/51/51 50/50/50
f 53/53/53 50/50/50 52/52/52
f 54/54/54 51/51/51 53/53/53
f 55/55/55 53/53/53 52/52/52
f 55/55/55 54/54/54 53/53/53
f 56/56/56 54/54/54 55/55/55
f 55/55/55 52/52/52 57/57/57
f 58/58/58 56/56/56 55/55/55
f 58/58/58 55/55/55 57/57/57
f 59/59/59 56/56/56 58/58/58
f 60/60/60 59/59/59 58/58/58
f 60/60/60 58/58/58 57/57/57
f 61/61/61 59/59/59 60/60/60
f 62/62/62 60/60/60 57/57/57
f 62/62/62 61/61/61 60/60/60
f 57/57/57 63/63/63 62/62/62
f 61/61/61 62/62/62 64/64/64
f 62/62/62 63/63/63 64/64/64
f 67/67/67 66/66/66 65/65/65
f 68/68/68 67/67/67 65/65/65
f 69/69/69 67/67/67 68/68/68
f 70/70/70 69/69/69 68/68/68
f 71/71/71 69/69/69 70/70/70
f 72/72/72 71/71/71 70/70/70
f 73/73/73 71/71/71 72/72/72
f 74/74/74 73/73/73 72/72/72
f 75/75/75 73/73/73 74/74/74
f 76/76/76 75/75/75 74/74/74
f 77/77/77 75/75/75 76/76/76
f 78/78/78 77/77/77 76/76/76
f 78/78/78 79/79/79 77/77/77
f 79/79/79 80/80/80 77/77/77
f 83/83/83 82/82/82 81/81/81
f 84/84/84 83/83/83 81/81/81
f 83/83/83 84/84/84 85/85/85
f 84/84/84 86/86/86 85/85/85
f 87/87/87 83/83/83 85/85/85
f 85/85/85 86/86/86 88/88/88
f 87/87/87 85/85/85 88/88/88
f 86/86/86 89/89/89 88/88/88
f 88/88/88 89/89/89 90/90/90
f 87/87/87 88/88/88 90/90/90
f 89/89/89 91/91/91 90/90/90
f 87/87/87 90/90/90 92/92/92
f 90/90/90 91/91/91 92/92/92
f 92/92/92 93/93/93 87/87/87
f 91/91/91 94/94/94 92/92/92
f 94/94/94 95/95/95 92/92/92
f 95/95/95 96/96/96 92/92/92
