g LOCK_cell.003
v -0.07278343 -0.01941069 -0.1073431
v -0.08910878 0.004724634 -0.1073431
v -0.1626514 0.07084702 -0.04145846
v 0.1238061 -0.09910647 -0.1008817
v 0.1082067 -0.09781977 -0.1073431
v 0.02956412 -0.0930915 -0.1073431
v 0.1302675 -0.1074004 0.04559371
v 0.1302675 -0.1003371 -0.08528244
v 0.1302675 -0.1074004 0.04559371
v 0.02956412 -0.0930915 -0.1073431
v -0.02417202 -0.0897989 -0.1073431
v -0.07362506 -0.09365617 0.02208304
v -0.07482328 -0.09600784 0.06765442
v 0.1238061 -0.1078346 0.061193
v 0.1082067 -0.1072227 0.06765442
v -0.02417202 -0.0897989 -0.1073431
v -0.03094288 -0.08020069 -0.1073431
v -0.09987004 -0.05924542 0.02208304
v -0.07362506 -0.09365617 0.02208304
v -0.1568212 -0.004383842 0.06765445
v -0.1505889 -0.01343878 0.06765445
v -0.1417592 -0.008939846 0.03933427
v -0.1352085 -0.007902322 0.02208305
v -0.1626514 0.07084702 -0.04145846
v -0.1683794 0.07084702 -0.02785666
v -0.07278343 -0.01941069 -0.1073431
v -0.09987004 -0.05924542 0.02208304
v -0.03094288 -0.08020069 -0.1073431
v -0.1466158 0.04878632 0.06765446
v -0.1516159 0.02296153 0.06765445
v -0.1522228 0.07084702 0.03177235
v -0.1453744 0.06438558 0.06119302
v -0.1484178 0.07084702 0.04559374
v -0.1683794 0.07084702 -0.02785666
v -0.1522228 0.07084702 0.03177235
v -0.1516159 0.02296153 0.06765445
v -0.1568212 -0.004383842 0.06765445
v -0.08910878 0.004724634 -0.1073431
v -0.07278343 -0.01941069 -0.1073431
v -0.03094288 -0.08020069 -0.1073431
v -0.02417202 -0.0897989 -0.1073431
v 0.02956412 -0.0930915 -0.1073431
v 0.09370679 0.04834514 -0.1073431
v 0.1011966 0.04633824 -0.1073431
v 0.1090277 0.06038947 -0.1008817
v 0.1057587 0.04177614 -0.1073431
v 0.1197446 0.04985093 -0.1008817
v 0.1082067 0.03263994 -0.1073431
v 0.1082067 -0.09781977 -0.1073431
v 0.1238061 0.03469361 -0.1008817
v 0.1238061 -0.09910647 -0.1008817
v 0.1302675 -0.1003371 -0.08528244
v 0.1302675 -0.1074004 0.04559371
v 0.1302675 0.03554429 0.04559373
v 0.1302675 0.03554429 -0.08528243
v 0.1255378 0.05319567 -0.08528243
v 0.1255378 0.05319567 0.04559374
v 0.1197446 0.04985093 0.06119302
v 0.1238061 0.03469361 0.06119302
v 0.1302675 -0.1074004 0.04559371
v 0.1238061 -0.1078346 0.061193
v 0.1092714 0.06032418 0.06119302
v 0.1126161 0.06611733 0.04559374
v 0.09411398 0.06438558 0.06119302
v 0.09496465 0.07084702 0.04559374
v -0.1453744 0.06438558 0.06119302
v -0.1484178 0.07084702 0.04559374
v 0.1126161 0.06611733 -0.08528243
v 0.1255378 0.05319567 -0.08528243
v 0.09496465 0.07084702 -0.08528243
v -0.1626514 0.07084702 -0.04145846
v 0.06789804 0.07084702 -0.08528243
v -0.1683794 0.07084702 -0.02785666
v -0.1522228 0.07084702 0.03177235
v -0.1484178 0.07084702 0.04559374
v 0.09496465 0.07084702 -0.08528243
v 0.1090277 0.06038947 -0.1008817
v 0.1126161 0.06611733 -0.08528243
v 0.09457272 0.06786995 -0.09246971
v 0.06789804 0.07084702 -0.08528243
v 0.1197446 0.04985093 -0.1008817
v 0.1126161 0.06611733 -0.08528243
v 0.1090277 0.06038947 -0.1008817
v 0.1255378 0.05319567 -0.08528243
v 0.1238061 0.03469361 -0.1008817
v 0.1302675 0.03554429 -0.08528243
v 0.1238061 -0.09910647 -0.1008817
v 0.1302675 -0.1003371 -0.08528244
v -0.1505889 -0.01343878 0.06765445
v -0.1568212 -0.004383842 0.06765445
v -0.1516159 0.02296153 0.06765445
v -0.1466158 0.04878632 0.06765446
v -0.1417592 -0.008939846 0.06765445
v -0.1236775 -0.006076022 0.06765445
v -0.1055959 -0.008939846 0.06765445
v -0.08928418 -0.01725106 0.06765445
v -0.07633914 -0.03019614 0.06765445
v 0.09206031 0.04878632 0.06765446
v -0.0680279 -0.04650782 0.06765445
v -0.1453744 0.06438558 0.06119302
v -0.06516407 -0.06458952 0.06765442
v 0.09411398 0.06438558 0.06119302
v -0.06802791 -0.08267114 0.06765442
v 0.1092714 0.06032418 0.06119302
v -0.07482328 -0.09600784 0.06765442
v 0.1011966 0.04633824 0.06765446
v 0.1197446 0.04985093 0.06119302
v 0.1057587 0.04177614 0.06765445
v 0.1082067 -0.1072227 0.06765442
v 0.1238061 0.03469361 0.06119302
v 0.1082067 0.03263994 0.06765445
v 0.1238061 -0.1078346 0.061193
v 0.09370679 0.04834514 -0.1073431
v 0.1090277 0.06038947 -0.1008817
v 0.09457272 0.06786995 -0.09246971
v 0.06789804 0.07084702 -0.08528243
v -0.08910878 0.004724634 -0.1073431
v -0.1626514 0.07084702 -0.04145846
v -0.1417592 -0.008939846 0.06765445
v -0.1417592 -0.008939846 0.03933427
v -0.1505889 -0.01343878 0.06765445
v -0.1417592 -0.008939846 0.03933427
v -0.1236775 -0.006076022 0.06765445
v -0.1352085 -0.007902322 0.02208305
v -0.1236775 -0.006076022 0.02208305
v -0.1055959 -0.008939846 0.06765445
v -0.1055959 -0.008939846 0.02208305
v -0.08928418 -0.01725106 0.06765445
v -0.08928418 -0.01725106 0.02208305
v -0.07633914 -0.03019614 0.06765445
v -0.07633914 -0.03019614 0.02208305
v -0.0680279 -0.04650782 0.06765445
v -0.0680279 -0.04650782 0.02208304
v -0.06516407 -0.06458952 0.06765442
v -0.06516407 -0.06458952 0.02208304
v -0.06802791 -0.08267114 0.06765442
v -0.06802791 -0.08267114 0.02208304
v -0.07482328 -0.09600784 0.06765442
v -0.07362506 -0.09365617 0.02208304
v -0.0680279 -0.04650782 0.02208304
v -0.06516407 -0.06458952 0.02208304
v -0.06802791 -0.08267114 0.02208304
v -0.07633914 -0.03019614 0.02208305
v -0.07362506 -0.09365617 0.02208304
v -0.09987004 -0.05924542 0.02208304
v -0.08928418 -0.01725106 0.02208305
v -0.1055959 -0.008939846 0.02208305
v -0.1352085 -0.007902322 0.02208305
v -0.1236775 -0.006076022 0.02208305
vt 0.5844727 0.5844727
vt 0.5874023 0
vt 0.05480957 0
vt 0.5112305 0.3056641
vt 0.5727539 0.3903809
vt 1 0.8173828
vt 1 0.2724609
vt 0.5332031 0.270752
vt 0.269043 0.2629395
vt 0.8173828 0.8173828
vt 1 0.8168945
vt 1 0.3466797
vt 0.9355469 0.1812744
vt 0.2697754 0.2062988
vt 0.3139648 0.1827393
vt 0.8168945 0.8168945
vt 1 0.8173828
vt 1 0.347168
vt 0.3466797 0.3466797
vt 0.3244629 0
vt 0.2971191 0.03463745
vt 0.4272461 0.1027222
vt 0.5014648 0.1507568
vt 1 0.04098511
vt 0.9438477 0
vt 1 0.5844727
vt 0.347168 0.347168
vt 0.8173828 0.8173828
vt 0.8422852 0.4382324
vt 1 0.5952148
vt 1 0.3049316
vt 0.7998047 0.3435059
vt 0.887207 0.3046875
vt 1 0.05603027
vt 0.3049316 0.3049316
vt 0.5952148 0.5952148
vt 1 0.6757813
vt 0.8500977 0.628418
vt 0.831543 0.6411133
vt 0.7836914 0.6733398
vt 0.7758789 0.6787109
vt 0.7734375 0.7216797
vt 0.8842773 0.7709961
vt 0.8828125 0.7768555
vt 0.894043 0.7832031
vt 0.8793945 0.7802734
vt 0.8862305 0.7910156
vt 0.8725586 0.7822266
vt 0.7700195 0.784668
vt 0.875 0.7954102
vt 0.769043 0.7983398
vt 0.378418 0.0146637
vt 0.3605957 0.1204834
vt 0.4475098 0.1391602
vt 0.5244141 0.05386353
vt 0.5375977 0.0668335
vt 0.4580078 0.1459961
vt 0.4516602 0.1538086
vt 0.4431152 0.1496582
vt 0.3601074 0.1225586
vt 0.3586426 0.1340332
vt 0.4575195 0.1601563
vt 0.4663086 0.1546631
vt 0.4604492 0.1696777
vt 0.4724121 0.166748
vt 0.4575195 0.3317871
vt 0.4697266 0.3339844
vt 0.5498047 0.08026123
vt 0.4663086 0.1546631
vt 0.5615234 0.09399414
vt 0.5307617 0.3518066
vt 0.5615234 0.12146
vt 0.5209961 0.3554688
vt 0.479248 0.3374023
vt 0.4697266 0.3339844
vt 0.9116211 0.7749023
vt 0.8945313 0.7832031
vt 0.9057617 0.7905273
vt 0.9052734 0.7734375
vt 0.9116211 0.753418
vt 0.8862305 0.7910156
vt 0.9057617 0.7905273
vt 0.894043 0.7832031
vt 0.8945313 0.8027344
vt 0.875 0.7954102
vt 0.8789063 0.8095703
vt 0.769043 0.7983398
vt 0.7680664 0.8120117
vt 0.3986816 0.3356934
vt 0.4067383 0.340332
vt 0.4279785 0.3361816
vt 0.4462891 0.3325195
vt 0.4018555 0.3288574
vt 0.4035645 0.3156738
vt 0.4023438 0.3022461
vt 0.3972168 0.2897949
vt 0.3886719 0.2792969
vt 0.4489746 0.1707764
vt 0.3774414 0.2717285
vt 0.4575195 0.3317871
vt 0.3649902 0.2678223
vt 0.4604492 0.1696777
vt 0.3522949 0.2663574
vt 0.4575195 0.1601563
vt 0.3422852 0.2678223
vt 0.447998 0.164917
vt 0.4516602 0.1538086
vt 0.4455566 0.1618652
vt 0.3579102 0.1452637
vt 0.4431152 0.1496582
vt 0.4401855 0.15979
vt 0.3586426 0.1340332
vt 0.7529297 0.53125
vt 0.7963867 0.4448242
vt 0.7553711 0.3654785
vt 0.6787109 0.3115234
vt 0.4125977 0
vt 0.9453125 0
vt 0.4018555 0.3288574
vt 0.3869629 0.3244629
vt 0.3986816 0.3356934
vt 0.3869629 0.3244629
vt 0.4035645 0.3156738
vt 0.378418 0.3195801
vt 0.3791504 0.3154297
vt 0.4023438 0.3022461
vt 0.3781738 0.309082
vt 0.3972168 0.2897949
vt 0.3759766 0.3027344
vt 0.3886719 0.2792969
vt 0.3718262 0.2976074
vt 0.3774414 0.2717285
vt 0.3662109 0.2939453
vt 0.3649902 0.2678223
vt 0.3591309 0.2922363
vt 0.3522949 0.2663574
vt 0.3522949 0.2910156
vt 0.3422852 0.2678223
vt 0.3474121 0.2919922
vt 0.3662109 0.2939453
vt 0.3591309 0.2922363
vt 0.3522949 0.2910156
vt 0.3718262 0.2976074
vt 0.3474121 0.2919922
vt 0.359375 0.3051758
vt 0.3759766 0.3027344
vt 0.3781738 0.309082
vt 0.378418 0.3195801
vt 0.3791504 0.3154297
vn -0.7788086 -0.5268555 -0.3405762
vn -0.7788086 -0.5268555 -0.3405762
vn -0.7788086 -0.5268555 -0.3405762
vn -0.05993652 -0.996582 -0.05380249
vn -0.05993652 -0.996582 -0.05380249
vn -0.05993652 -0.996582 -0.05380249
vn -0.05993652 -0.996582 -0.05380249
vn -0.05993652 -0.996582 -0.05380249
vn -0.06106567 -0.996582 -0.05303955
vn -0.06106567 -0.996582 -0.05303955
vn -0.06106567 -0.996582 -0.05303955
vn -0.06106567 -0.996582 -0.05303955
vn -0.06106567 -0.996582 -0.05303955
vn -0.06106567 -0.996582 -0.05303955
vn -0.06106567 -0.996582 -0.05303955
vn -0.7602539 -0.5703125 -0.3100586
vn -0.7602539 -0.5703125 -0.3100586
vn -0.7602539 -0.5703125 -0.3100586
vn -0.7602539 -0.5703125 -0.3100586
vn -0.7783203 -0.5356445 -0.3276367
vn -0.7783203 -0.5356445 -0.3276367
vn -0.7783203 -0.5356445 -0.3276367
vn -0.7783203 -0.5356445 -0.3276367
vn -0.7783203 -0.5356445 -0.3276367
vn -0.7783203 -0.5356445 -0.3276367
vn -0.7783203 -0.5356445 -0.3276367
vn -0.7783203 -0.5356445 -0.3276367
vn -0.7783203 -0.5356445 -0.3276367
vn -0.9477539 0.1834717 0.2609863
vn -0.9477539 0.1834717 0.2609863
vn -0.9477539 0.1834717 0.2609863
vn -0.9477539 0.1834717 0.2609863
vn -0.9477539 0.1834717 0.2609863
vn -0.9492188 0.1806641 0.2573242
vn -0.9492188 0.1806641 0.2573242
vn -0.9492188 0.1806641 0.2573242
vn -0.9492188 0.1806641 0.2573242
vn 0 0 -1
vn 0 0 -1
vn 0 0 -1
vn 0 0 -1
vn 0 0 -1
vn 0.02688599 0.1003418 -0.9946289
vn 0.1097412 0.1903076 -0.9755859
vn 0.2327881 0.2954102 -0.9267578
vn 0.1895752 0.1103516 -0.9755859
vn 0.3215332 0.1867676 -0.9282227
vn 0.2072754 0.02728271 -0.9780273
vn 0.2034912 0 -0.9790039
vn 0.376709 0.04956055 -0.9248047
vn 0.3825684 0 -0.9238281
vn 0.9824219 0 -0.1871338
vn 0.9799805 0 0.2000732
vn 0.9726563 0.1280518 0.1934814
vn 0.9726563 0.1280518 -0.1934814
vn 0.8491211 0.4909668 -0.1958008
vn 0.8496094 0.4904785 0.1949463
vn 0.7958984 0.4594727 0.394043
vn 0.9150391 0.1204224 0.385498
vn 0.9799805 0 0.2000732
vn 0.9238281 0 0.3825684
vn 0.4594727 0.7958984 0.394043
vn 0.4904785 0.8496094 0.1949463
vn 0.1204224 0.9150391 0.385498
vn 0.1280518 0.9726563 0.1934814
vn 0 0.9238281 0.3825684
vn 0 0.9858398 0.1680908
vn 0.4904785 0.8491211 -0.1956787
vn 0.8491211 0.4909668 -0.1958008
vn 0.1280518 0.9726563 -0.1934814
vn 0 1 0
vn 0 0.9995117 -0.03372192
vn 0 1 0
vn 0 1 0
vn 0 0.9858398 0.1680908
vn 0.1280518 0.9726563 -0.1934814
vn 0.4936523 0.7744141 -0.3955078
vn 0.4904785 0.8491211 -0.1956787
vn 0.1481934 0.9106445 -0.3852539
vn 0 0.9995117 -0.03372192
vn 0.7944336 0.4606934 -0.3959961
vn 0.4904785 0.8491211 -0.1956787
vn 0.4936523 0.7744141 -0.3955078
vn 0.8491211 0.4909668 -0.1958008
vn 0.9150391 0.1204224 -0.385498
vn 0.9726563 0.1280518 -0.1934814
vn 0.9238281 0 -0.3825684
vn 0.9824219 0 -0.1871338
vn 0 0 1
vn 0 0 1
vn 0 0 1
vn 0 0.1791992 0.9838867
vn 0 0 1
vn 0 0 1
vn 0 0 1
vn 0 0 1
vn 0 0 1
vn 0.02728271 0.2072754 0.9780273
vn 0 0 1
vn 0 0.3825684 0.9238281
vn 0 0 1
vn 0.04956055 0.376709 0.9248047
vn 0 0 1
vn 0.185791 0.3217773 0.9282227
vn 0 0 1
vn 0.1095581 0.1898193 0.9755859
vn 0.3217773 0.1856689 0.9282227
vn 0.1898193 0.1095581 0.9755859
vn 0.2011719 0 0.9794922
vn 0.376709 0.04956055 0.9248047
vn 0.2072754 0.02728271 0.9780273
vn 0.3825684 0 0.9238281
vn -0.1467285 0.6088867 -0.7797852
vn -0.1467285 0.6088867 -0.7797852
vn -0.1467285 0.6088867 -0.7797852
vn -0.1467285 0.6088867 -0.7797852
vn -0.1467285 0.6088867 -0.7797852
vn -0.1467285 0.6088867 -0.7797852
vn 0.309082 -0.9511719 0
vn 0.1895752 -0.9819336 0
vn 0.4538574 -0.8911133 0
vn 0.1895752 -0.9819336 0
vn 0 -1 0
vn 0.1563721 -0.987793 0
vn 0 -1 0
vn -0.309082 -0.9511719 0
vn -0.309082 -0.9511719 0
vn -0.5878906 -0.809082 0
vn -0.5878906 -0.809082 0
vn -0.809082 -0.5878906 0
vn -0.809082 -0.5878906 0
vn -0.9511719 -0.309082 0
vn -0.9511719 -0.309082 0
vn -1 0 0
vn -1 0 0
vn -0.9511719 0.309082 0
vn -0.9511719 0.309082 0
vn -0.8911133 0.4538574 0
vn -0.8911133 0.4538574 0
vn 0 0 1
vn 0 0 1
vn 0 0 1
vn 0 0 1
vn 0 0 1
vn 0 0 1
vn 0 0 1
vn 0 0 1
vn 0 0 1
vn 0 0 1
g LOCK_cell.003_0
f 3/3/3 2/2/2 1/1/1
f 6/6/6 5/5/5 4/4/4
f 4/4/4 7/7/7 6/6/6
f 4/4/4 8/8/8 7/7/7
f 11/11/11 10/10/10 9/9/9
f 9/9/9 12/12/12 11/11/11
f 9/9/9 13/13/13 12/12/12
f 9/9/9 14/14/14 13/13/13
f 14/14/14 15/15/15 13/13/13
f 18/18/18 17/17/17 16/16/16
f 19/19/19 18/18/18 16/16/16
f 22/22/22 21/21/21 20/20/20
f 20/20/20 23/23/23 22/22/22
f 23/23/23 20/20/20 24/24/24
f 20/20/20 25/25/25 24/24/24
f 23/23/23 24/24/24 26/26/26
f 27/27/27 23/23/23 26/26/26
f 26/26/26 28/28/28 27/27/27
f 31/31/31 30/30/30 29/29/29
f 29/29/29 32/32/32 31/31/31
f 32/32/32 33/33/33 31/31/31
f 36/36/36 35/35/35 34/34/34
f 37/37/37 36/36/36 34/34/34
f 40/40/40 39/39/39 38/38/38
f 41/41/41 40/40/40 38/38/38
f 42/42/42 41/41/41 38/38/38
f 42/42/42 38/38/38 43/43/43
f 42/42/42 43/43/43 44/44/44
f 44/44/44 43/43/43 45/45/45
f 44/44/44 45/45/45 46/46/46
f 42/42/42 44/44/44 46/46/46
f 45/45/45 47/47/47 46/46/46
f 42/42/42 46/46/46 48/48/48
f 46/46/46 47/47/47 48/48/48
f 48/48/48 49/49/49 42/42/42
f 47/47/47 50/50/50 48/48/48
f 48/48/48 50/50/50 49/49/49
f 50/50/50 51/51/51 49/49/49
f 54/54/54 53/53/53 52/52/52
f 55/55/55 54/54/54 52/52/52
f 54/54/54 55/55/55 56/56/56
f 57/57/57 54/54/54 56/56/56
f 54/54/54 57/57/57 58/58/58
f 59/59/59 54/54/54 58/58/58
f 54/54/54 59/59/59 60/60/60
f 59/59/59 61/61/61 60/60/60
f 58/58/58 57/57/57 62/62/62
f 57/57/57 63/63/63 62/62/62
f 62/62/62 63/63/63 64/64/64
f 63/63/63 65/65/65 64/64/64
f 64/64/64 65/65/65 66/66/66
f 65/65/65 67/67/67 66/66/66
f 63/63/63 57/57/57 68/68/68
f 57/57/57 69/69/69 68/68/68
f 63/63/63 68/68/68 70/70/70
f 65/65/65 63/63/63 70/70/70
f 71/71/71 65/65/65 70/70/70
f 70/70/70 72/72/72 71/71/71
f 71/71/71 73/73/73 65/65/65
f 73/73/73 74/74/74 65/65/65
f 74/74/74 75/75/75 65/65/65
f 78/78/78 77/77/77 76/76/76
f 77/77/77 79/79/79 76/76/76
f 79/79/79 80/80/80 76/76/76
f 83/83/83 82/82/82 81/81/81
f 82/82/82 84/84/84 81/81/81
f 81/81/81 84/84/84 85/85/85
f 84/84/84 86/86/86 85/85/85
f 85/85/85 86/86/86 87/87/87
f 86/86/86 88/88/88 87/87/87
f 91/91/91 90/90/90 89/89/89
f 92/92/92 91/91/91 89/89/89
f 92/92/92 89/89/89 93/93/93
f 92/92/92 93/93/93 94/94/94
f 92/92/92 94/94/94 95/95/95
f 92/92/92 95/95/95 96/96/96
f 92/92/92 96/96/96 97/97/97
f 98/98/98 92/92/92 97/97/97
f 98/98/98 97/97/97 99/99/99
f 100/100/100 92/92/92 98/98/98
f 99/99/99 101/101/101 98/98/98
f 102/102/102 100/100/100 98/98/98
f 98/98/98 101/101/101 103/103/103
f 104/104/104 102/102/102 98/98/98
f 98/98/98 103/103/103 105/105/105
f 106/106/106 104/104/104 98/98/98
f 106/106/106 98/98/98 105/105/105
f 107/107/107 104/104/104 106/106/106
f 108/108/108 106/106/106 105/105/105
f 108/108/108 107/107/107 106/106/106
f 108/108/108 105/105/105 109/109/109
f 110/110/110 107/107/107 108/108/108
f 109/109/109 111/111/111 108/108/108
f 111/111/111 110/110/110 108/108/108
f 111/111/111 109/109/109 112/112/112
f 110/110/110 111/111/111 112/112/112
f 115/115/115 114/114/114 113/113/113
f 113/113/113 116/116/116 115/115/115
f 113/113/113 117/117/117 116/116/116
f 117/117/117 118/118/118 116/116/116
g LOCK_cell.003_1
f 121/121/121 120/120/120 119/119/119
f 123/123/123 119/119/119 122/122/122
f 123/123/123 122/122/122 124/124/124
f 124/124/124 125/125/125 123/123/123
f 126/126/126 123/123/123 125/125/125
f 127/127/127 126/126/126 125/125/125
f 128/128/128 126/126/126 127/127/127
f 129/129/129 128/128/128 127/127/127
f 130/130/130 128/128/128 129/129/129
f 131/131/131 130/130/130 129/129/129
f 132/132/132 130/130/130 131/131/131
f 133/133/133 132/132/132 131/131/131
f 134/134/134 132/132/132 133/133/133
f 135/135/135 134/134/134 133/133/133
f 136/136/136 134/134/134 135/135/135
f 137/137/137 136/136/136 135/135/135
f 136/136/136 137/137/137 138/138/138
f 137/137/137 139/139/139 138/138/138
f 142/142/142 141/141/141 140/140/140
f 140/140/140 143/143/143 142/142/142
f 143/143/143 144/144/144 142/142/142
f 143/143/143 145/145/145 144/144/144
f 143/143/143 146/146/146 145/145/145
f 146/146/146 147/147/147 145/145/145
f 147/147/147 148/148/148 145/145/145
f 147/147/147 149/149/149 148/148/148
