g lock_inner_cell.001
v 0.005088001 0.07486163 -0.03303491
v -0.000506714 0.08192502 -0.03303491
v -0.004298121 0.0694453 -0.03855652
v -0.04659016 0.03997672 -0.001585327
v -0.0440494 0.03890067 -0.013598
v -0.03900652 0.04105289 -0.02443478
v -0.0463783 0.04417773 0.01042734
v -0.0319521 0.04622614 -0.03303491
v -0.04194224 0.04772241 0.02126412
v -0.02357115 0.05392031 -0.03855652
v -0.03954975 0.05833814 0.02986425
v -0.01467933 0.06338762 -0.04045914
v -0.03311137 0.06746785 0.03538587
v -0.004298121 0.0694453 -0.03855652
v -0.02538474 0.07686691 0.03728849
v -0.000506714 0.08192502 -0.03303491
v -0.01712894 0.08561217 0.03538587
v 0.004031904 0.08991297 -0.02443477
v -0.00915528 0.09284395 0.02986425
v 0.006217878 0.09596741 -0.013598
v -0.00224695 0.09785135 0.02126412
v 0.005834814 0.09949303 -0.00158532
v 0.002918363 0.1001426 0.01042735
v -0.02836213 -0.09551459 -0.01359802
v -0.03026474 -0.03827298 -0.001585342
v -0.03026474 -0.09551459 -0.001585353
v -0.02836213 -0.03827298 -0.01359801
v -0.0228405 -0.09551459 -0.0244348
v -0.03341588 0.01480608 -0.013598
v -0.03525373 0.01431383 -0.001585335
v -0.04659016 0.03997672 -0.001585327
v -0.0440494 0.03890067 -0.013598
v -0.02808228 0.01623456 -0.02443479
v -0.03900652 0.04105289 -0.02443478
v -0.0228405 -0.03827298 -0.0244348
v -0.01424038 -0.09551459 -0.03303494
v -0.01977494 0.01845957 -0.03303491
v -0.0319521 0.04622614 -0.03303491
v -0.01424038 -0.03827298 -0.03303492
v -0.003403574 -0.09551459 -0.03855655
v -0.009307086 0.0212632 -0.03855653
v -0.02357115 0.05392031 -0.03855652
v -0.003403574 -0.03827298 -0.03855655
v 0.008609086 -0.09551459 -0.04045917
v 0.002296597 0.02437101 -0.04045914
v -0.01467933 0.06338762 -0.04045914
v -0.004298121 0.0694453 -0.03855652
v 0.008609086 -0.03827298 -0.04045916
v 0.02062178 -0.09551459 -0.03855655
v 0.01390022 0.02747889 -0.03855653
v 0.005088001 0.07486163 -0.03303491
v 0.02062178 -0.03827298 -0.03855655
v 0.03145852 -0.09551459 -0.03303493
v 0.02436811 0.03028251 -0.03303491
v 0.03145852 -0.03827298 -0.03303492
v 0.04005867 -0.09551459 -0.0244348
v 0.01253685 0.07916011 -0.02443477
v -0.000506714 0.08192502 -0.03303491
v 0.004031904 0.08991297 -0.02443477
v 0.04005867 -0.03827298 -0.02443479
v 0.04558029 -0.09551459 -0.01359803
v 0.03267545 0.03250746 -0.02443478
v 0.01731929 0.08191992 -0.013598
v 0.006217878 0.09596741 -0.013598
v 0.04558029 -0.03827298 -0.01359802
v 0.04748291 -0.09551459 -0.001585353
v 0.03800905 0.03393601 -0.01359801
v 0.01896724 0.08287086 -0.001585323
v 0.005834814 0.09949303 -0.00158532
v 0.04748291 -0.03827298 -0.001585346
v 0.04558029 -0.09551459 0.01042732
v 0.03984692 0.03442825 -0.001585331
v 0.01731929 0.08191992 0.01042735
v 0.002918363 0.1001426 0.01042735
v 0.04558029 -0.03827298 0.01042733
v 0.04005867 -0.09551459 0.02126409
v 0.03800905 0.03393601 0.01042734
v 0.01253685 0.07916011 0.02126412
v -0.00224695 0.09785135 0.02126412
v 0.04005867 -0.03827298 0.0212641
v 0.03145852 -0.09551459 0.02986422
v 0.03267545 0.03250746 0.02126411
v 0.005088031 0.07486163 0.02986425
v -0.00915528 0.09284395 0.02986425
v 0.03145852 -0.03827298 0.02986423
v 0.02062178 -0.09551459 0.03538584
v 0.02436811 0.03028251 0.02986424
v -0.004298091 0.0694453 0.03538587
v -0.01712894 0.08561217 0.03538587
v 0.02062178 -0.03827298 0.03538585
v 0.008609086 -0.09551459 0.03728846
v 0.01390022 0.02747889 0.03538586
v -0.01470268 0.06344129 0.03728849
v -0.02538474 0.07686691 0.03728849
v 0.008609086 -0.03827298 0.03728847
v -0.003403574 -0.09551459 0.03538584
v 0.002296597 0.02437101 0.03728848
v -0.02510726 0.05743717 0.03538587
v -0.03311137 0.06746785 0.03538587
v -0.003403574 -0.03827298 0.03538585
v -0.01424038 -0.09551459 0.02986423
v -0.009307086 0.0212632 0.03538586
v -0.03449335 0.05202083 0.02986425
v -0.03954975 0.05833814 0.02986425
v -0.04194224 0.04772241 0.02126412
v -0.01977494 0.01845957 0.02986424
v -0.01424038 -0.03827298 0.02986423
v -0.0228405 -0.09551459 0.0212641
v -0.02808228 0.01623456 0.02126412
v -0.0228405 -0.03827298 0.02126411
v -0.0283621 -0.09551459 0.01042732
v -0.03341588 0.01480608 0.01042734
v -0.0463783 0.04417773 0.01042734
v -0.0283621 -0.03827298 0.01042733
v -0.03026474 -0.09551459 -0.001585353
v -0.03026474 -0.03827298 -0.001585342
v -0.03525373 0.01431383 -0.001585335
v -0.04659016 0.03997672 -0.001585327
v 0.02062178 -0.09551459 -0.03855655
v 0.008609086 -0.09551459 -0.04045917
v -0.003403574 -0.09551459 -0.03855655
v 0.03145852 -0.09551459 -0.03303493
v -0.01424038 -0.09551459 -0.03303494
v -0.0228405 -0.09551459 -0.0244348
v 0.04005867 -0.09551459 -0.0244348
v -0.02836213 -0.09551459 -0.01359802
v 0.04558029 -0.09551459 -0.01359803
v 0.04748291 -0.09551459 -0.001585353
v -0.03026474 -0.09551459 -0.001585353
v 0.04558029 -0.09551459 0.01042732
v -0.0283621 -0.09551459 0.01042732
v -0.0228405 -0.09551459 0.0212641
v 0.04005867 -0.09551459 0.02126409
v 0.03145852 -0.09551459 0.02986422
v -0.01424038 -0.09551459 0.02986423
v 0.02062178 -0.09551459 0.03538584
v -0.003403574 -0.09551459 0.03538584
v 0.008609086 -0.09551459 0.03728846
vt 0.1990967 0.8144531
vt 0.1982422 0.8222656
vt 0.2089844 0.8193359
vt 0.4985352 0.07250977
vt 0.4311523 0.03591919
vt 0.3701172 0.01415253
vt 0.5776367 0.1304932
vt 0.3217773 0.009315491
vt 0.6274414 0.1719971
vt 0.2907715 0.02189636
vt 0.6757813 0.223999
vt 0.2802734 0.05072021
vt 0.7070313 0.2717285
vt 0.2910156 0.08966064
vt 0.7177734 0.310791
vt 0.3222656 0.1374512
vt 0.7070313 0.3369141
vt 0.3708496 0.1895752
vt 0.6762695 0.3479004
vt 0.4316406 0.2407227
vt 0.6279297 0.3425293
vt 0.4992676 0.2861328
vt 0.5668945 0.3212891
vt 0.211792 0.675293
vt 0.2697754 0.7026367
vt 0.2041016 0.6508789
vt 0.2563477 0.7119141
vt 0.2119141 0.6899414
vt 0.2731934 0.7739258
vt 0.2893066 0.7719727
vt 0.2912598 0.8110352
vt 0.2746582 0.8085938
vt 0.2583008 0.7758789
vt 0.2592773 0.8085938
vt 0.244751 0.7192383
vt 0.2102051 0.6977539
vt 0.244751 0.7773438
vt 0.2452393 0.8105469
vt 0.2348633 0.7241211
vt 0.2069092 0.703125
vt 0.2325439 0.777832
vt 0.2322998 0.8129883
vt 0.2260742 0.7280273
vt 0.2047119 0.7075195
vt 0.2216797 0.777832
vt 0.2202148 0.8164063
vt 0.2093506 0.8154297
vt 0.2180176 0.7304688
vt 0.2017822 0.7099609
vt 0.2116699 0.777832
vt 0.1990967 0.8144531
vt 0.2108154 0.7324219
vt 0.1987305 0.7119141
vt 0.2025146 0.7773438
vt 0.2041016 0.7329102
vt 0.1954346 0.7124023
vt 0.1894531 0.8134766
vt 0.1982422 0.8222656
vt 0.1879883 0.8242188
vt 0.1977539 0.7333984
vt 0.192627 0.7128906
vt 0.1938477 0.7763672
vt 0.1801758 0.8120117
vt 0.1779785 0.8256836
vt 0.1917725 0.7329102
vt 0.1899414 0.7124023
vt 0.1856689 0.7753906
vt 0.1710205 0.8105469
vt 0.1682129 0.8266602
vt 0.1859131 0.7319336
vt 0.1873779 0.7109375
vt 0.1777344 0.7739258
vt 0.1619873 0.8085938
vt 0.1584473 0.8266602
vt 0.1801758 0.7304688
vt 0.1851807 0.7089844
vt 0.1696777 0.7724609
vt 0.15271 0.8066406
vt 0.1485596 0.8256836
vt 0.1743164 0.7285156
vt 0.1821289 0.7070313
vt 0.1616211 0.7705078
vt 0.1431885 0.8046875
vt 0.1385498 0.8237305
vt 0.168335 0.7260742
vt 0.1796875 0.7045898
vt 0.1531982 0.7680664
vt 0.1330566 0.8017578
vt 0.1282959 0.8203125
vt 0.1622314 0.7226563
vt 0.1781006 0.7006836
vt 0.144165 0.7651367
vt 0.1223145 0.7988281
vt 0.1177368 0.8154297
vt 0.1557617 0.7182617
vt 0.1777344 0.6962891
vt 0.1346436 0.7617188
vt 0.1105957 0.7954102
vt 0.1066895 0.8085938
vt 0.1489258 0.7124023
vt 0.1772461 0.6889648
vt 0.1240845 0.7578125
vt 0.09790039 0.7910156
vt 0.09509277 0.800293
vt 0.08404541 0.7866211
vt 0.1125488 0.7529297
vt 0.1414795 0.7050781
vt 0.1795654 0.6806641
vt 0.09985352 0.746582
vt 0.133667 0.6958008
vt 0.1865234 0.6689453
vt 0.08587646 0.7397461
vt 0.06951904 0.7797852
vt 0.1252441 0.684082
vt 0.2041016 0.6508789
vt 0.1156616 0.6694336
vt 0.07073975 0.7314453
vt 0.05557251 0.7695313
vt 0.2017822 0.7099609
vt 0.2047119 0.7075195
vt 0.2069092 0.703125
vt 0.1987305 0.7119141
vt 0.2102051 0.6977539
vt 0.2119141 0.6899414
vt 0.1954346 0.7124023
vt 0.211792 0.675293
vt 0.192627 0.7128906
vt 0.1899414 0.7124023
vt 0.2041016 0.6508789
vt 0.1873779 0.7109375
vt 0.1865234 0.6689453
vt 0.1795654 0.6806641
vt 0.1851807 0.7089844
vt 0.1821289 0.7070313
vt 0.1772461 0.6889648
vt 0.1796875 0.7045898
vt 0.1777344 0.6962891
vt 0.1781006 0.7006836
vn 0.5117188 0.3061523 -0.8027344
vn 0.4924316 0.3896484 -0.7783203
vn 0.3076172 0.1567383 -0.9384766
vn -0.7348633 0.6425781 -0.2175293
vn -0.7348633 0.6425781 -0.2175293
vn -0.7348633 0.6425781 -0.2175293
vn -0.7348633 0.6425781 -0.2175293
vn -0.7348633 0.6425781 -0.2175293
vn -0.7348633 0.6425781 -0.2175293
vn -0.7348633 0.6425781 -0.2175293
vn -0.7348633 0.6425781 -0.2175293
vn -0.7348633 0.6425781 -0.2175293
vn -0.7348633 0.6425781 -0.2175293
vn -0.7348633 0.6425781 -0.2175293
vn -0.7348633 0.6425781 -0.2175293
vn -0.7348633 0.6425781 -0.2175293
vn -0.7348633 0.6425781 -0.2175293
vn -0.7348633 0.6425781 -0.2175293
vn -0.7348633 0.6425781 -0.2175293
vn -0.7348633 0.6425781 -0.2175293
vn -0.7348633 0.6425781 -0.2175293
vn -0.7348633 0.6425781 -0.2175293
vn -0.7348633 0.6425781 -0.2175293
vn -0.9511719 0 -0.309082
vn -0.9990234 -0.0475769 0
vn -1 0 0
vn -0.949707 -0.04537964 -0.3095703
vn -0.809082 0 -0.5878906
vn -0.918457 -0.239624 -0.3146973
vn -0.9677734 -0.2524414 0
vn -0.9145508 -0.4038086 0.02218628
vn -0.8730469 -0.3852539 -0.2988281
vn -0.7763672 -0.2026367 -0.5966797
vn -0.7387695 -0.3251953 -0.590332
vn -0.8071289 -0.03887939 -0.5888672
vn -0.5878906 0 -0.809082
vn -0.5576172 -0.1455078 -0.8173828
vn -0.5253906 -0.2302246 -0.8193359
vn -0.5849609 -0.02844238 -0.8105469
vn -0.309082 0 -0.9511719
vn -0.2844238 -0.07427979 -0.9560547
vn -0.2553711 -0.1115723 -0.9604492
vn -0.3049316 -0.01489258 -0.9521484
vn 0 0 -1
vn 0.01489258 0.00378418 -1
vn 0.02658081 0.01144409 -0.9995117
vn 0.3076172 0.1567383 -0.9384766
vn 0.005004883 0.0005493164 -1
vn 0.309082 0 -0.9511719
vn 0.3115234 0.08129883 -0.9467773
vn 0.5117188 0.3061523 -0.8027344
vn 0.3139648 0.0163269 -0.9492188
vn 0.5878906 0 -0.809082
vn 0.5771484 0.1507568 -0.8027344
vn 0.5913086 0.03067017 -0.8056641
vn 0.809082 0 -0.5878906
vn 0.6987305 0.4172363 -0.581543
vn 0.4924316 0.3896484 -0.7783203
vn 0.6489258 0.5131836 -0.5615234
vn 0.8105469 0.04211426 -0.5839844
vn 0.9511719 0 -0.309082
vn 0.7871094 0.2058105 -0.581543
vn 0.8178711 0.487793 -0.3051758
vn 0.7529297 0.5952148 -0.2814941
vn 0.9506836 0.04943848 -0.3066406
vn 1 0 0
vn 0.9213867 0.2409668 -0.3054199
vn 0.8588867 0.512207 0
vn 0.784668 0.6196289 0.02185059
vn 0.9985352 0.05197144 0
vn 0.9511719 0 0.309082
vn 0.9672852 0.2531738 0
vn 0.8178711 0.487793 0.3051758
vn 0.7431641 0.5874023 0.3212891
vn 0.9506836 0.04943848 0.3066406
vn 0.809082 0 0.5878906
vn 0.9213867 0.2409668 0.3054199
vn 0.6987305 0.4169922 0.581543
vn 0.6333008 0.5009766 0.590332
vn 0.8105469 0.04211426 0.5839844
vn 0.5878906 0 0.809082
vn 0.7871094 0.2058105 0.581543
vn 0.5117188 0.3061523 0.8027344
vn 0.4645996 0.3679199 0.8056641
vn 0.5913086 0.03067017 0.8056641
vn 0.309082 0 0.9511719
vn 0.5771484 0.1507568 0.8027344
vn 0.2751465 0.1650391 0.9472656
vn 0.2519531 0.1998291 0.9467773
vn 0.3139648 0.0163269 0.9492188
vn 0 0 1
vn 0.3115234 0.08129883 0.9467773
vn 0.01107788 0.00680542 1
vn 0.01422119 0.01116943 1
vn 0.005004883 0.0005493164 1
vn -0.309082 0 0.9511719
vn 0.01489258 0.00378418 1
vn -0.2546387 -0.1534424 0.9545898
vn -0.2260742 -0.1804199 0.9570313
vn -0.3049316 -0.01489258 0.9521484
vn -0.5878906 0 0.809082
vn -0.2844238 -0.07427979 0.9560547
vn -0.4960938 -0.3000488 0.8149414
vn -0.4353027 -0.3481445 0.8300781
vn -0.7094727 -0.3459473 0.6137695
vn -0.5571289 -0.1455078 0.8173828
vn -0.5849609 -0.02844238 0.8105469
vn -0.809082 0 0.5878906
vn -0.7763672 -0.2025146 0.5966797
vn -0.8071289 -0.03887939 0.5888672
vn -0.9511719 0 0.309082
vn -0.918457 -0.239624 0.3146973
vn -0.8642578 -0.3813477 0.3276367
vn -0.949707 -0.04537964 0.3095703
vn -1 0 0
vn -0.9990234 -0.0475769 0
vn -0.9677734 -0.2524414 0
vn -0.9145508 -0.4038086 0.02218628
vn 0 -1 0
vn 0 -1 0
vn 0 -1 0
vn 0 -1 0
vn 0 -1 0
vn 0 -1 0
vn 0 -1 0
vn 0 -1 0
vn 0 -1 0
vn 0 -1 0
vn 0 -1 0
vn 0 -1 0
vn 0 -1 0
vn 0 -1 0
vn 0 -1 0
vn 0 -1 0
vn 0 -1 0
vn 0 -1 0
vn 0 -1 0
vn 0 -1 0
g lock_inner_cell.001_0
f 3/3/3 2/2/2 1/1/1
f 6/6/6 5/5/5 4/4/4
f 4/4/4 7/7/7 6/6/6
f 7/7/7 8/8/8 6/6/6
f 7/7/7 9/9/9 8/8/8
f 9/9/9 10/10/10 8/8/8
f 9/9/9 11/11/11 10/10/10
f 11/11/11 12/12/12 10/10/10
f 11/11/11 13/13/13 12/12/12
f 13/13/13 14/14/14 12/12/12
f 13/13/13 15/15/15 14/14/14
f 15/15/15 16/16/16 14/14/14
f 15/15/15 17/17/17 16/16/16
f 17/17/17 18/18/18 16/16/16
f 17/17/17 19/19/19 18/18/18
f 19/19/19 20/20/20 18/18/18
f 19/19/19 21/21/21 20/20/20
f 21/21/21 22/22/22 20/20/20
f 21/21/21 23/23/23 22/22/22
f 26/26/26 25/25/25 24/24/24
f 25/25/25 27/27/27 24/24/24
f 24/24/24 27/27/27 28/28/28
f 29/29/29 27/27/27 25/25/25
f 30/30/30 29/29/29 25/25/25
f 30/30/30 31/31/31 29/29/29
f 31/31/31 32/32/32 29/29/29
f 29/29/29 32/32/32 33/33/33
f 29/29/29 33/33/33 27/27/27
f 32/32/32 34/34/34 33/33/33
f 27/27/27 35/35/35 28/28/28
f 33/33/33 35/35/35 27/27/27
f 28/28/28 35/35/35 36/36/36
f 33/33/33 34/34/34 37/37/37
f 33/33/33 37/37/37 35/35/35
f 34/34/34 38/38/38 37/37/37
f 35/35/35 39/39/39 36/36/36
f 37/37/37 39/39/39 35/35/35
f 36/36/36 39/39/39 40/40/40
f 37/37/37 38/38/38 41/41/41
f 37/37/37 41/41/41 39/39/39
f 38/38/38 42/42/42 41/41/41
f 39/39/39 43/43/43 40/40/40
f 41/41/41 43/43/43 39/39/39
f 40/40/40 43/43/43 44/44/44
f 41/41/41 42/42/42 45/45/45
f 41/41/41 45/45/45 43/43/43
f 42/42/42 46/46/46 45/45/45
f 45/45/45 46/46/46 47/47/47
f 43/43/43 48/48/48 44/44/44
f 45/45/45 48/48/48 43/43/43
f 44/44/44 48/48/48 49/49/49
f 50/50/50 45/45/45 47/47/47
f 45/45/45 50/50/50 48/48/48
f 47/47/47 51/51/51 50/50/50
f 48/48/48 52/52/52 49/49/49
f 50/50/50 52/52/52 48/48/48
f 49/49/49 52/52/52 53/53/53
f 51/51/51 54/54/54 50/50/50
f 50/50/50 54/54/54 52/52/52
f 52/52/52 55/55/55 53/53/53
f 54/54/54 55/55/55 52/52/52
f 53/53/53 55/55/55 56/56/56
f 51/51/51 57/57/57 54/54/54
f 51/51/51 58/58/58 57/57/57
f 58/58/58 59/59/59 57/57/57
f 55/55/55 60/60/60 56/56/56
f 56/56/56 60/60/60 61/61/61
f 54/54/54 62/62/62 55/55/55
f 57/57/57 62/62/62 54/54/54
f 62/62/62 60/60/60 55/55/55
f 57/57/57 59/59/59 63/63/63
f 57/57/57 63/63/63 62/62/62
f 59/59/59 64/64/64 63/63/63
f 60/60/60 65/65/65 61/61/61
f 61/61/61 65/65/65 66/66/66
f 62/62/62 67/67/67 60/60/60
f 63/63/63 67/67/67 62/62/62
f 67/67/67 65/65/65 60/60/60
f 63/63/63 64/64/64 68/68/68
f 63/63/63 68/68/68 67/67/67
f 64/64/64 69/69/69 68/68/68
f 65/65/65 70/70/70 66/66/66
f 66/66/66 70/70/70 71/71/71
f 67/67/67 72/72/72 65/65/65
f 68/68/68 72/72/72 67/67/67
f 72/72/72 70/70/70 65/65/65
f 68/68/68 69/69/69 73/73/73
f 68/68/68 73/73/73 72/72/72
f 69/69/69 74/74/74 73/73/73
f 70/70/70 75/75/75 71/71/71
f 71/71/71 75/75/75 76/76/76
f 72/72/72 77/77/77 70/70/70
f 73/73/73 77/77/77 72/72/72
f 77/77/77 75/75/75 70/70/70
f 73/73/73 74/74/74 78/78/78
f 73/73/73 78/78/78 77/77/77
f 74/74/74 79/79/79 78/78/78
f 75/75/75 80/80/80 76/76/76
f 76/76/76 80/80/80 81/81/81
f 77/77/77 82/82/82 75/75/75
f 78/78/78 82/82/82 77/77/77
f 82/82/82 80/80/80 75/75/75
f 78/78/78 79/79/79 83/83/83
f 78/78/78 83/83/83 82/82/82
f 79/79/79 84/84/84 83/83/83
f 80/80/80 85/85/85 81/81/81
f 81/81/81 85/85/85 86/86/86
f 82/82/82 87/87/87 80/80/80
f 83/83/83 87/87/87 82/82/82
f 87/87/87 85/85/85 80/80/80
f 83/83/83 84/84/84 88/88/88
f 83/83/83 88/88/88 87/87/87
f 84/84/84 89/89/89 88/88/88
f 85/85/85 90/90/90 86/86/86
f 86/86/86 90/90/90 91/91/91
f 87/87/87 92/92/92 85/85/85
f 88/88/88 92/92/92 87/87/87
f 92/92/92 90/90/90 85/85/85
f 88/88/88 89/89/89 93/93/93
f 88/88/88 93/93/93 92/92/92
f 89/89/89 94/94/94 93/93/93
f 90/90/90 95/95/95 91/91/91
f 91/91/91 95/95/95 96/96/96
f 92/92/92 97/97/97 90/90/90
f 93/93/93 97/97/97 92/92/92
f 97/97/97 95/95/95 90/90/90
f 93/93/93 94/94/94 98/98/98
f 93/93/93 98/98/98 97/97/97
f 94/94/94 99/99/99 98/98/98
f 95/95/95 100/100/100 96/96/96
f 96/96/96 100/100/100 101/101/101
f 97/97/97 102/102/102 95/95/95
f 98/98/98 102/102/102 97/97/97
f 102/102/102 100/100/100 95/95/95
f 98/98/98 99/99/99 103/103/103
f 98/98/98 103/103/103 102/102/102
f 99/99/99 104/104/104 103/103/103
f 103/103/103 104/104/104 105/105/105
f 103/103/103 106/106/106 102/102/102
f 102/102/102 106/106/106 100/100/100
f 103/103/103 105/105/105 106/106/106
f 100/100/100 107/107/107 101/101/101
f 106/106/106 107/107/107 100/100/100
f 101/101/101 107/107/107 108/108/108
f 105/105/105 109/109/109 106/106/106
f 106/106/106 109/109/109 107/107/107
f 107/107/107 110/110/110 108/108/108
f 109/109/109 110/110/110 107/107/107
f 108/108/108 110/110/110 111/111/111
f 109/109/109 105/105/105 112/112/112
f 109/109/109 112/112/112 110/110/110
f 105/105/105 113/113/113 112/112/112
f 110/110/110 114/114/114 111/111/111
f 112/112/112 114/114/114 110/110/110
f 111/111/111 114/114/114 115/115/115
f 114/114/114 116/116/116 115/115/115
f 117/117/117 116/116/116 114/114/114
f 112/112/112 117/117/117 114/114/114
f 112/112/112 113/113/113 117/117/117
f 113/113/113 118/118/118 117/117/117
f 121/121/121 120/120/120 119/119/119
f 119/119/119 122/122/122 121/121/121
f 122/122/122 123/123/123 121/121/121
f 122/122/122 124/124/124 123/123/123
f 122/122/122 125/125/125 124/124/124
f 125/125/125 126/126/126 124/124/124
f 125/125/125 127/127/127 126/126/126
f 127/127/127 128/128/128 126/126/126
f 128/128/128 129/129/129 126/126/126
f 128/128/128 130/130/130 129/129/129
f 130/130/130 131/131/131 129/129/129
f 130/130/130 132/132/132 131/131/131
f 130/130/130 133/133/133 132/132/132
f 133/133/133 134/134/134 132/132/132
f 134/134/134 135/135/135 132/132/132
f 134/134/134 136/136/136 135/135/135
f 136/136/136 137/137/137 135/135/135
f 136/136/136 138/138/138 137/137/137
