g lollipop_rotate
v 0.05558759 0.5308382 -0.219739
v 0.05558781 0.6301891 -0.2797322
v -0.06910384 0.6236917 -0.2773124
v 0.1024998 0.6480325 -0.2366789
v 0.1024998 0.5637989 -0.1867917
v 0.1090108 0.7313168 -2.30968E-07
v -0.06910373 0.5257615 -0.215017
v -0.09363612 0.5417025 -0.1965768
v -0.09363612 0.6313624 -0.2541758
v -0.1007238 0.7313168 -2.30968E-07
v 0.1024999 0.5050679 -0.1084668
v 0.1024834 0.480606 -0.01362915
v 0.05556894 0.4340683 -0.01361952
v 0.0555875 0.4620085 -0.1262923
v -0.06910385 0.4591254 -0.1199872
v -0.06912328 0.4340841 -0.006690122
v -0.09365393 0.45843 -0.004922833
v -0.09363638 0.48091 -0.109051
v 0.1024998 0.7449451 -0.2505341
v 0.1024998 0.8397831 -0.2262482
v 0.05558805 0.7449358 -0.2971388
v 0.05558826 0.857609 -0.2693087
v -0.06910414 0.8513037 -0.2721919
v -0.069104 0.7380069 -0.2973896
v -0.09363615 0.7362399 -0.2730788
v -0.09363618 0.8403676 -0.2504078
v 0.1024995 0.9679967 -0.08328477
v 0.1024998 0.9181081 -0.1675182
v 0.05558851 0.9510555 -0.2004788
v 0.05558847 1.011049 -0.1011279
v -0.06910425 0.9463335 -0.2055555
v -0.06910418 1.008629 -0.1076255
v -0.09363618 0.9278933 -0.1896146
v -0.09363601 0.9854918 -0.09995454
v 0.1024999 0.9575657 0.1084663
v 0.1024834 0.9820276 0.01362861
v 0.05556899 1.028565 0.01361898
v 0.05558752 1.000625 0.1262918
v -0.06912341 1.028549 0.006689649
v -0.06910393 1.003508 0.1199868
v -0.09365404 1.004204 0.004922373
v -0.09363646 0.9817235 0.1090505
v 0.1024998 0.8146009 0.2366785
v 0.1024998 0.8988346 0.1867911
v 0.05558759 0.9317953 0.2197385
v 0.05558782 0.8324444 0.2797317
v -0.06910377 0.9368721 0.2150165
v -0.06910391 0.8389417 0.2773119
v -0.09363618 0.920931 0.1965763
v -0.09363618 0.8312711 0.2541752
v 0.1024998 0.6228505 0.2262477
v 0.1024998 0.7176885 0.2505338
v 0.05558804 0.7176979 0.2971383
v 0.05558825 0.6050245 0.2693081
v -0.06910408 0.6113299 0.2721914
v -0.06910401 0.7246267 0.297389
v -0.09363615 0.7263938 0.2730782
v -0.09363615 0.622266 0.2504074
v 0.1024995 0.4946369 0.08328429
v 0.1024998 0.5445254 0.1675177
v 0.05558851 0.511578 0.2004783
v 0.05558846 0.4515847 0.1011274
v -0.06910411 0.4540046 0.107625
v -0.06910422 0.5163001 0.2055551
v -0.09363613 0.5347403 0.1896141
v -0.09363592 0.4771417 0.09995408
v -0.007204981 0.4902987 -0.06032009
v -0.04985756 -4.043142E-09 -0.0426528
v -0.00720494 -1.110153E-09 -0.06032009
v -0.04985767 0.4902987 -0.04265279
v -0.06752504 0.4902987 -1.974404E-07
v -0.06752505 -1.192388E-09 -8.568168E-08
v -0.04985771 0.4902987 0.04265262
v -0.04985771 5.441104E-09 0.04265273
v -0.007204953 0.4902987 0.06031996
v -0.007204913 8.209641E-09 0.06032006
v 0.03544774 6.277157E-09 0.04265271
v 0.03544774 0.4902987 0.0426526
v 0.05311504 0.4902987 -1.229346E-07
v 0.05311504 3.426342E-10 -9.313226E-09
v 0.03544774 -1.425382E-09 -0.04265273
v 0.03544777 0.4902987 -0.04265273
v -0.007204981 0.4902987 -0.06032009
v -0.00720494 -1.110153E-09 -0.06032009
v -0.04985767 0.4902987 -0.04265279
v -0.007204981 0.4902987 -0.06032009
v 0.03544777 0.4902987 -0.04265273
v -0.06752504 0.4902987 -1.974404E-07
v 0.05311504 0.4902987 -1.229346E-07
v -0.04985771 0.4902987 0.04265262
v 0.03544774 0.4902987 0.0426526
v -0.007204953 0.4902987 0.06031996
v 0.03544774 -1.425382E-09 -0.04265273
v -0.00720494 -1.110153E-09 -0.06032009
v -0.04985756 -4.043142E-09 -0.0426528
v -0.06752505 -1.192388E-09 -8.568168E-08
v 0.05311504 3.426342E-10 -9.313226E-09
v -0.04985771 5.441104E-09 0.04265273
v 0.03544774 6.277157E-09 0.04265271
v -0.007204913 8.209641E-09 0.06032006
vt 0 0
vt 0 0
vt 0 0
vt 0 0
vt 0 0
vt 0 0
vt 0 0
vt 0 0
vt 0 0
vt 0 0
vt 0 0
vt 0 0
vt 0 0
vt 0 0
vt 0 0
vt 0 0
vt 0 0
vt 0 0
vt 0 0
vt 0 0
vt 0 0
vt 0 0
vt 0 0
vt 0 0
vt 0 0
vt 0 0
vt 0 0
vt 0 0
vt 0 0
vt 0 0
vt 0 0
vt 0 0
vt 0 0
vt 0 0
vt 0 0
vt 0 0
vt 0 0
vt 0 0
vt 0 0
vt 0 0
vt 0 0
vt 0 0
vt 0 0
vt 0 0
vt 0 0
vt 0 0
vt 0 0
vt 0 0
vt 0 0
vt 0 0
vt 0 0
vt 0 0
vt 0 0
vt 0 0
vt 0 0
vt 0 0
vt 0 0
vt 0 0
vt 0 0
vt 0 0
vt 0 0
vt 0 0
vt 0 0
vt 0 0
vt 0 0
vt 0 0
vt 0 1
vt 0.125 0.5
vt 0 0.5
vt 0.125 1
vt 0.25 1
vt 0.25 0.5
vt 0.375 1
vt 0.375 0.5
vt 0.5 1
vt 0.5 0.5
vt 0.625 0.5
vt 0.625 1
vt 0.75 1
vt 0.75 0.5
vt 0.875 0.5
vt 0.875 1
vt 1 1
vt 1 0.5
vt 0.08032227 0.4196777
vt 0.25 0.4899902
vt 0.4196777 0.4196777
vt 0.01000214 0.25
vt 0.4899902 0.25
vt 0.08032227 0.08032227
vt 0.4196777 0.08032227
vt 0.25 0.01000214
vt 0.9199219 0.4196777
vt 0.75 0.4899902
vt 0.5800781 0.4196777
vt 0.5097656 0.25
vt 0.9902344 0.25
vt 0.5800781 0.08032227
vt 0.9199219 0.08032227
vt 0.75 0.01000214
vn 0.3652139 -0.6295568 -0.6857675
vn 0.3652173 -0.3192021 -0.8744863
vn -0.3651192 -0.3334006 -0.8692134
vn 0.9008185 -0.1442061 -0.4095494
vn 0.9008166 -0.2899588 -0.3231922
vn 1 0 0
vn -0.3651198 -0.6406558 -0.6754611
vn -0.9008219 -0.3020711 -0.3118859
vn -0.9008217 -0.1597244 -0.4037429
vn -1 -1.768243E-07 0
vn 0.9008389 -0.3914308 -0.1878066
vn 0.9005834 -0.4340461 -0.02352982
vn 0.364492 -0.9303582 -0.03973947
vn 0.3649255 -0.8441119 -0.392816
vn -0.365402 -0.8503838 -0.378588
vn -0.3658643 -0.930343 -0.02460166
vn -0.9010508 -0.4336578 -0.006952011
vn -0.9007983 -0.3985874 -0.1723088
vn 0.9008194 0.02349798 -0.4335577
vn 0.9008194 0.1876242 -0.3915628
vn 0.365219 0.03974675 -0.9300728
vn 0.3652191 0.3926443 -0.8440649
vn -0.3651207 0.378877 -0.8503758
vn -0.3651193 0.02461186 -0.9306354
vn -0.9008217 0.00693997 -0.4341337
vn -0.9008225 0.172547 -0.3984297
vn 0.9008458 0.4094173 -0.144411
vn 0.9008194 0.3231868 -0.2899563
vn 0.3652189 0.6857652 -0.6295563
vn 0.3649177 0.8745546 -0.3193576
vn -0.3651238 0.6754605 -0.6406543
vn -0.3654146 0.8692055 -0.3330976
vn -0.9008241 0.3118832 -0.3020675
vn -0.9008065 0.4038718 -0.1594845
vn 0.9008389 0.3914307 0.1878068
vn 0.9005833 0.4340462 0.02352985
vn 0.3644919 0.9303582 0.03973955
vn 0.3649257 0.8441119 0.3928159
vn -0.3658646 0.9303428 0.02460171
vn -0.3654018 0.8503838 0.3785882
vn -0.9010511 0.4336571 0.006951937
vn -0.9007986 0.3985872 0.172309
vn 0.9008185 0.1442063 0.4095494
vn 0.9008166 0.2899588 0.3231922
vn 0.3652139 0.6295568 0.6857675
vn 0.3652169 0.3192023 0.8744864
vn -0.3651196 0.6406557 0.6754612
vn -0.3651196 0.3334002 0.8692134
vn -0.9008219 0.3020709 0.311886
vn -0.9008217 0.159724 0.403743
vn 0.9008194 -0.1876242 0.3915628
vn 0.9008194 -0.02349806 0.4335579
vn 0.3652185 -0.03974685 0.930073
vn 0.3652189 -0.3926444 0.8440649
vn -0.3651212 -0.378877 0.8503757
vn -0.3651197 -0.02461186 0.9306352
vn -0.9008217 -0.006940166 0.4341336
vn -0.9008227 -0.1725468 0.3984295
vn 0.9008458 -0.4094173 0.1444109
vn 0.9008191 -0.3231875 0.2899567
vn 0.3652185 -0.6857651 0.6295565
vn 0.3649179 -0.8745545 0.3193579
vn -0.3654145 -0.8692055 0.3330979
vn -0.3651245 -0.67546 0.6406542
vn -0.9008245 -0.3118826 0.3020669
vn -0.9008064 -0.4038721 0.1594845
vn 3.491112E-07 0 -1
vn -0.7071058 0 -0.7071077
vn 3.901831E-07 0 -1
vn -0.7071059 0 -0.7071077
vn -1 0 -1.560733E-06
vn -1 0 -1.478589E-06
vn -0.7071069 1.509982E-07 0.7071066
vn -0.7071069 1.509982E-07 0.7071066
vn 6.366146E-07 2.244382E-07 1
vn 6.571506E-07 2.244382E-07 1
vn 0.7071073 1.729458E-07 0.7071062
vn 0.7071073 1.729458E-07 0.7071062
vn 1 0 0
vn 1 0 0
vn 0.7071071 0 -0.7071064
vn 0.7071071 0 -0.7071064
vn 3.491112E-07 0 -1
vn 3.901831E-07 0 -1
vn -1.809931E-07 1 0
vn -1.809931E-07 1 0
vn -1.809931E-07 1 0
vn -1.809931E-07 1 0
vn -1.809931E-07 1 0
vn -1.809931E-07 1 0
vn -1.809931E-07 1 0
vn -1.809931E-07 1 0
vn 0 -1 0
vn 0 -1 0
vn 0 -1 0
vn 0 -1 0
vn 0 -1 0
vn 0 -1 0
vn 0 -1 0
vn 0 -1 0
g lollipop_rotate_0
f 3/3/3 2/2/2 1/1/1
f 1/1/1 2/2/2 4/4/4
f 5/5/5 1/1/1 4/4/4
f 5/5/5 4/4/4 6/6/6
f 7/7/7 3/3/3 1/1/1
f 3/3/3 7/7/7 8/8/8
f 9/9/9 3/3/3 8/8/8
f 9/9/9 8/8/8 10/10/10
f 12/12/12 11/11/11 6/6/6
f 12/12/12 13/13/13 11/11/11
f 13/13/13 14/14/14 11/11/11
f 15/15/15 14/14/14 13/13/13
f 16/16/16 15/15/15 13/13/13
f 15/15/15 16/16/16 17/17/17
f 18/18/18 15/15/15 17/17/17
f 18/18/18 17/17/17 10/10/10
f 20/20/20 6/6/6 19/19/19
f 19/19/19 21/21/21 20/20/20
f 21/21/21 22/22/22 20/20/20
f 23/23/23 22/22/22 21/21/21
f 24/24/24 23/23/23 21/21/21
f 23/23/23 24/24/24 25/25/25
f 26/26/26 23/23/23 25/25/25
f 25/25/25 10/10/10 26/26/26
f 28/28/28 27/27/27 6/6/6
f 28/28/28 29/29/29 27/27/27
f 29/29/29 30/30/30 27/27/27
f 30/30/30 29/29/29 31/31/31
f 32/32/32 30/30/30 31/31/31
f 32/32/32 31/31/31 33/33/33
f 34/34/34 32/32/32 33/33/33
f 34/34/34 33/33/33 10/10/10
f 36/36/36 35/35/35 6/6/6
f 36/36/36 37/37/37 35/35/35
f 37/37/37 38/38/38 35/35/35
f 38/38/38 37/37/37 39/39/39
f 40/40/40 38/38/38 39/39/39
f 40/40/40 39/39/39 41/41/41
f 42/42/42 40/40/40 41/41/41
f 42/42/42 41/41/41 10/10/10
f 44/44/44 43/43/43 6/6/6
f 44/44/44 45/45/45 43/43/43
f 45/45/45 46/46/46 43/43/43
f 46/46/46 45/45/45 47/47/47
f 48/48/48 46/46/46 47/47/47
f 48/48/48 47/47/47 49/49/49
f 50/50/50 48/48/48 49/49/49
f 50/50/50 49/49/49 10/10/10
f 52/52/52 51/51/51 6/6/6
f 52/52/52 53/53/53 51/51/51
f 53/53/53 54/54/54 51/51/51
f 55/55/55 54/54/54 53/53/53
f 56/56/56 55/55/55 53/53/53
f 55/55/55 56/56/56 57/57/57
f 58/58/58 55/55/55 57/57/57
f 58/58/58 57/57/57 10/10/10
f 60/60/60 59/59/59 6/6/6
f 60/60/60 61/61/61 59/59/59
f 61/61/61 62/62/62 59/59/59
f 63/63/63 62/62/62 61/61/61
f 64/64/64 63/63/63 61/61/61
f 63/63/63 64/64/64 65/65/65
f 66/66/66 65/65/65 10/10/10
f 66/66/66 63/63/63 65/65/65
g lollipop_rotate_1
f 4/4/4 19/19/19 6/6/6
f 4/4/4 2/2/2 19/19/19
f 2/2/2 21/21/21 19/19/19
f 24/24/24 21/21/21 2/2/2
f 3/3/3 24/24/24 2/2/2
f 24/24/24 3/3/3 9/9/9
f 25/25/25 24/24/24 9/9/9
f 25/25/25 9/9/9 10/10/10
f 27/27/27 36/36/36 6/6/6
f 27/27/27 30/30/30 36/36/36
f 30/30/30 37/37/37 36/36/36
f 37/37/37 30/30/30 32/32/32
f 39/39/39 37/37/37 32/32/32
f 39/39/39 32/32/32 34/34/34
f 41/41/41 39/39/39 34/34/34
f 41/41/41 34/34/34 10/10/10
f 35/35/35 44/44/44 6/6/6
f 35/35/35 38/38/38 44/44/44
f 38/38/38 45/45/45 44/44/44
f 45/45/45 38/38/38 40/40/40
f 47/47/47 45/45/45 40/40/40
f 47/47/47 40/40/40 42/42/42
f 49/49/49 47/47/47 42/42/42
f 49/49/49 42/42/42 10/10/10
f 43/43/43 52/52/52 6/6/6
f 43/43/43 46/46/46 52/52/52
f 46/46/46 53/53/53 52/52/52
f 53/53/53 46/46/46 48/48/48
f 56/56/56 53/53/53 48/48/48
f 56/56/56 48/48/48 50/50/50
f 57/57/57 56/56/56 50/50/50
f 57/57/57 50/50/50 10/10/10
f 51/51/51 60/60/60 6/6/6
f 51/51/51 54/54/54 60/60/60
f 54/54/54 61/61/61 60/60/60
f 64/64/64 61/61/61 54/54/54
f 55/55/55 64/64/64 54/54/54
f 64/64/64 55/55/55 58/58/58
f 65/65/65 64/64/64 58/58/58
f 65/65/65 58/58/58 10/10/10
f 59/59/59 12/12/12 6/6/6
f 59/59/59 62/62/62 12/12/12
f 62/62/62 13/13/13 12/12/12
f 16/16/16 13/13/13 62/62/62
f 63/63/63 16/16/16 62/62/62
f 16/16/16 63/63/63 66/66/66
f 17/17/17 16/16/16 66/66/66
f 17/17/17 66/66/66 10/10/10
f 11/11/11 5/5/5 6/6/6
f 11/11/11 14/14/14 5/5/5
f 14/14/14 1/1/1 5/5/5
f 7/7/7 1/1/1 14/14/14
f 15/15/15 7/7/7 14/14/14
f 7/7/7 15/15/15 18/18/18
f 8/8/8 7/7/7 18/18/18
f 8/8/8 18/18/18 10/10/10
f 20/20/20 28/28/28 6/6/6
f 20/20/20 22/22/22 28/28/28
f 22/22/22 29/29/29 28/28/28
f 31/31/31 29/29/29 22/22/22
f 23/23/23 31/31/31 22/22/22
f 31/31/31 23/23/23 26/26/26
f 33/33/33 26/26/26 10/10/10
f 33/33/33 31/31/31 26/26/26
g lollipop_rotate_2
f 69/69/69 68/68/68 67/67/67
f 68/68/68 70/70/70 67/67/67
f 70/70/70 68/68/68 71/71/71
f 68/68/68 72/72/72 71/71/71
f 71/71/71 72/72/72 73/73/73
f 72/72/72 74/74/74 73/73/73
f 73/73/73 74/74/74 75/75/75
f 74/74/74 76/76/76 75/75/75
f 76/76/76 77/77/77 75/75/75
f 77/77/77 78/78/78 75/75/75
f 78/78/78 77/77/77 79/79/79
f 77/77/77 80/80/80 79/79/79
f 80/80/80 81/81/81 79/79/79
f 81/81/81 82/82/82 79/79/79
f 82/82/82 81/81/81 83/83/83
f 81/81/81 84/84/84 83/83/83
f 87/87/87 86/86/86 85/85/85
f 85/85/85 88/88/88 87/87/87
f 88/88/88 89/89/89 87/87/87
f 88/88/88 90/90/90 89/89/89
f 90/90/90 91/91/91 89/89/89
f 90/90/90 92/92/92 91/91/91
f 95/95/95 94/94/94 93/93/93
f 93/93/93 96/96/96 95/95/95
f 93/93/93 97/97/97 96/96/96
f 97/97/97 98/98/98 96/96/96
f 97/97/97 99/99/99 98/98/98
f 99/99/99 100/100/100 98/98/98
