g M16 Bullet
v 0.006143792 -0.006413158 -1.00734E-09
v -1.688113E-10 -0.02483571 -1.867976E-09
v 0.003071896 -0.006413147 0.005320681
v 0.003071896 -0.006413147 0.005320681
v -1.688113E-10 -0.02483571 -1.867976E-09
v -0.003071896 -0.006413147 0.005320681
v -0.003071896 -0.006413147 0.005320681
v -1.688113E-10 -0.02483571 -1.867976E-09
v -0.006143792 -0.006413158 -1.544448E-09
v -0.006143792 -0.006413158 -1.544448E-09
v -1.688113E-10 -0.02483571 -1.867976E-09
v -0.003071896 -0.006413199 -0.00532068
v -0.003071896 -0.006413199 -0.00532068
v -1.688113E-10 -0.02483571 -1.867976E-09
v 0.003071896 -0.006413199 -0.00532068
v 0.003071896 -0.006413199 -0.00532068
v -1.688113E-10 -0.02483571 -1.867976E-09
v 0.006143792 -0.006413158 -1.00734E-09
v -0.003071895 0.02483578 -0.005320677
v -0.003071896 0.02483578 0.005320682
v -0.006143792 0.02483578 2.534879E-09
v 0.006143792 0.02483578 3.071985E-09
v 0.003071896 0.02483578 -0.005320677
v 0.003071896 0.02483578 0.005320684
v 0.006143792 0.02483578 3.071985E-09
v 0.003071896 -0.006413147 0.005320681
v 0.003071896 0.02483578 0.005320684
v 0.006143792 -0.006413158 -1.00734E-09
v 0.003071896 0.02483578 0.005320684
v -0.003071896 -0.006413147 0.005320681
v -0.003071896 0.02483578 0.005320682
v 0.003071896 -0.006413147 0.005320681
v -0.003071896 0.02483578 0.005320682
v -0.006143792 -0.006413158 -1.544448E-09
v -0.006143792 0.02483578 2.534879E-09
v -0.003071896 -0.006413147 0.005320681
v -0.006143792 0.02483578 2.534879E-09
v -0.003071896 -0.006413199 -0.00532068
v -0.003071895 0.02483578 -0.005320677
v -0.006143792 -0.006413158 -1.544448E-09
v -0.003071895 0.02483578 -0.005320677
v 0.003071896 -0.006413199 -0.00532068
v 0.003071896 0.02483578 -0.005320677
v -0.003071896 -0.006413199 -0.00532068
v 0.003071896 0.02483578 -0.005320677
v 0.006143792 -0.006413158 -1.00734E-09
v 0.006143792 0.02483578 3.071985E-09
v 0.003071896 -0.006413199 -0.00532068
vt 0.6630164 0.02808398
vt 0.6613023 0.02854687
vt 0.6643876 0.02808398
vt 0.6561599 0.02808398
vt 0.6571328 0.02887106
vt 0.6575312 0.02808398
vt 0.6575312 0.02808398
vt 0.6585041 0.02887106
vt 0.6589025 0.02808398
vt 0.6589025 0.02808398
vt 0.6598753 0.02887106
vt 0.6602737 0.02808398
vt 0.6602737 0.02808398
vt 0.6612465 0.02887106
vt 0.6616451 0.02808398
vt 0.6616451 0.02808398
vt 0.6613023 0.02854687
vt 0.6630164 0.02808398
vt 0.6575312 0.08626467
vt 0.6623307 0.08626467
vt 0.6589025 0.08626467
vt 0.6630164 0.08626467
vt 0.6595882 0.08626467
vt 0.6643876 0.08626467
vt 0.6630164 0.08626467
vt 0.6643876 0.09402937
vt 0.6643876 0.08626467
vt 0.6630164 0.09402937
vt 0.6561599 0.08626467
vt 0.6575312 0.09402937
vt 0.6575312 0.08626467
vt 0.6561599 0.09402937
vt 0.6575312 0.08626467
vt 0.6589025 0.09402937
vt 0.6589025 0.08626467
vt 0.6575312 0.09402937
vt 0.6589025 0.08626467
vt 0.6602737 0.09402937
vt 0.6602737 0.08626467
vt 0.6589025 0.09402937
vt 0.6602737 0.08626467
vt 0.6616451 0.09402937
vt 0.6616451 0.08626467
vt 0.6602737 0.09402937
vt 0.6616451 0.08626467
vt 0.6630164 0.09402937
vt 0.6630164 0.08626467
vt 0.6616451 0.09402937
vn 0.8320195 -0.2774727 0.4803669
vn 0.8320195 -0.2774727 0.480367
vn 0.8320195 -0.2774727 0.4803669
vn 0 -0.2774727 0.9607335
vn 0 -0.2774727 0.9607335
vn 0 -0.2774727 0.9607335
vn -0.8320195 -0.2774726 0.4803669
vn -0.8320195 -0.2774727 0.480367
vn -0.8320196 -0.2774727 0.4803669
vn -0.8320204 -0.2774729 -0.4803652
vn -0.8320204 -0.2774729 -0.4803652
vn -0.8320204 -0.2774729 -0.4803652
vn 0 -0.2774732 -0.9607334
vn 0 -0.2774732 -0.9607334
vn 0 -0.2774732 -0.9607334
vn 0.8320204 -0.2774729 -0.4803652
vn 0.8320204 -0.2774729 -0.4803652
vn 0.8320204 -0.2774729 -0.4803652
vn 0 1 0
vn 0 1 0
vn 0 1 0
vn 0 1 0
vn 0 1 0
vn 0 1 0
vn 0.8660255 0 0.4999999
vn 0.8660255 0 0.4999999
vn 0.8660255 0 0.4999999
vn 0.8660255 0 0.4999997
vn 0 0 1
vn 0 0 1
vn 0 0 1
vn 0 0 1
vn -0.8660254 0 0.4999999
vn -0.8660254 0 0.4999999
vn -0.8660254 0 0.5
vn -0.8660256 0 0.4999997
vn -0.8660253 0 -0.5000001
vn -0.8660253 0 -0.5000001
vn -0.8660253 0 -0.5000001
vn -0.8660253 0 -0.5000001
vn 0 0 -1
vn 0 0 -1
vn 0 0 -1
vn 0 0 -1
vn 0.8660254 0 -0.5
vn 0.8660253 0 -0.5000001
vn 0.8660254 0 -0.5000001
vn 0.8660253 0 -0.5000001
g M16 Bullet_0
f 3/3/3 2/2/2 1/1/1
f 6/6/6 5/5/5 4/4/4
f 9/9/9 8/8/8 7/7/7
f 12/12/12 11/11/11 10/10/10
f 15/15/15 14/14/14 13/13/13
f 18/18/18 17/17/17 16/16/16
f 21/21/21 20/20/20 19/19/19
f 20/20/20 22/22/22 19/19/19
f 19/19/19 22/22/22 23/23/23
f 24/24/24 22/22/22 20/20/20
f 27/27/27 26/26/26 25/25/25
f 28/28/28 25/25/25 26/26/26
f 31/31/31 30/30/30 29/29/29
f 32/32/32 29/29/29 30/30/30
f 35/35/35 34/34/34 33/33/33
f 36/36/36 33/33/33 34/34/34
f 39/39/39 38/38/38 37/37/37
f 40/40/40 37/37/37 38/38/38
f 43/43/43 42/42/42 41/41/41
f 44/44/44 41/41/41 42/42/42
f 47/47/47 46/46/46 45/45/45
f 48/48/48 45/45/45 46/46/46
