g M79_Part04
v -0.0270301 0.06641623 0.004089693
v 0.02703009 0.06641622 -0.004583269
v -0.02703009 0.06641621 -0.004583281
v 0.02703008 0.06641623 0.004089703
v -0.0270301 0.07781848 0.004089692
v 0.02703008 0.07781851 -0.004583271
v 0.02703008 0.07781851 0.004089702
v -0.0270301 0.07781848 -0.004583283
v -0.0270301 0.07781848 -0.004583283
v 0.02703009 0.06641622 -0.004583269
v 0.02703008 0.07781851 -0.004583271
v -0.02703009 0.06641621 -0.004583281
v -0.0270301 0.07781848 0.004089692
v -0.02703009 0.06641621 -0.004583281
v -0.0270301 0.07781848 -0.004583283
v -0.0270301 0.06641623 0.004089693
v 0.02703008 0.07781851 0.004089702
v -0.0270301 0.06641623 0.004089693
v -0.0270301 0.07781848 0.004089692
v 0.02703008 0.06641623 0.004089703
v 0.02703008 0.07781851 -0.004583271
v 0.02703008 0.06641623 0.004089703
v 0.02703008 0.07781851 0.004089702
v 0.02703009 0.06641622 -0.004583269
v 0.0217176 0.0700876 0.004963778
v 0.02050629 0.07206704 -0.005401081
v 0.02050628 0.07206704 0.004963777
v 0.02171762 0.07008761 -0.00540108
v 0.02414022 0.07008759 0.004963778
v 0.02171762 0.07008761 -0.00540108
v 0.0217176 0.0700876 0.004963778
v 0.02414023 0.07008758 -0.005401079
v 0.0253515 0.07206699 0.004963778
v 0.02414023 0.07008758 -0.005401079
v 0.02414022 0.07008759 0.004963778
v 0.02535151 0.072067 -0.005401079
v 0.02414017 0.07404643 0.004963778
v 0.02535151 0.072067 -0.005401079
v 0.0253515 0.07206699 0.004963778
v 0.02414018 0.07404643 -0.00540108
v 0.02171757 0.07404645 0.004963777
v 0.02414018 0.07404643 -0.00540108
v 0.02414017 0.07404643 0.004963778
v 0.02171757 0.07404646 -0.005401082
v 0.02050628 0.07206704 0.004963777
v 0.02171757 0.07404646 -0.005401082
v 0.02171757 0.07404645 0.004963777
v 0.02050629 0.07206704 -0.005401081
v 0.02414023 0.07008758 -0.005401079
v 0.02050629 0.07206704 -0.005401081
v 0.02171762 0.07008761 -0.00540108
v 0.02414018 0.07404643 -0.00540108
v 0.02535151 0.072067 -0.005401079
v 0.02171757 0.07404646 -0.005401082
v 0.0253515 0.07206699 0.004963778
v 0.02171757 0.07404645 0.004963777
v 0.02414017 0.07404643 0.004963778
v 0.0217176 0.0700876 0.004963778
v 0.02414022 0.07008759 0.004963778
v 0.02050628 0.07206704 0.004963777
v -0.02416656 0.0700876 0.004963765
v -0.02537787 0.07206704 -0.005401094
v -0.02537788 0.07206704 0.004963764
v -0.02416655 0.0700876 -0.005401092
v -0.02174394 0.0700876 0.004963766
v -0.02416655 0.0700876 -0.005401092
v -0.02416656 0.0700876 0.004963765
v -0.02174394 0.07008759 -0.00540109
v -0.02053266 0.07206699 0.004963766
v -0.02174394 0.07008759 -0.00540109
v -0.02174394 0.0700876 0.004963766
v -0.02053265 0.072067 -0.005401092
v -0.02174399 0.07404643 0.004963766
v -0.02053265 0.072067 -0.005401092
v -0.02053266 0.07206699 0.004963766
v -0.02174398 0.07404643 -0.005401092
v -0.0241666 0.07404644 0.004963765
v -0.02174398 0.07404643 -0.005401092
v -0.02174399 0.07404643 0.004963766
v -0.02416659 0.07404645 -0.005401093
v -0.02537788 0.07206704 0.004963764
v -0.02416659 0.07404645 -0.005401093
v -0.0241666 0.07404644 0.004963765
v -0.02537787 0.07206704 -0.005401094
v -0.02174394 0.07008759 -0.00540109
v -0.02537787 0.07206704 -0.005401094
v -0.02416655 0.0700876 -0.005401092
v -0.02174398 0.07404643 -0.005401092
v -0.02053265 0.072067 -0.005401092
v -0.02416659 0.07404645 -0.005401093
v -0.02053266 0.07206699 0.004963766
v -0.0241666 0.07404644 0.004963765
v -0.02174399 0.07404643 0.004963766
v -0.02416656 0.0700876 0.004963765
v -0.02174394 0.0700876 0.004963766
v -0.02537788 0.07206704 0.004963764
v 0.03111819 0.07193588 -0.004014238
v 0.03111167 0.07001827 -0.001134207
v 0.03111819 0.06854256 -0.002007075
v 0.03111167 0.07193586 -0.002268471
v 0.03111819 0.06854256 -0.002007075
v 0.03111167 0.07001825 0.001134282
v 0.03111819 0.06854252 0.002007182
v 0.03111167 0.07001827 -0.001134207
v 0.03111819 0.06854252 0.002007182
v 0.03111166 0.07193581 0.002268506
v 0.03111819 0.07193579 0.004014273
v 0.03111167 0.07001825 0.001134282
v 0.03111819 0.07193579 0.004014273
v 0.03111166 0.07385337 0.001134242
v 0.03111819 0.07532907 0.00200711
v 0.03111166 0.07193581 0.002268506
v 0.03111819 0.07532907 0.00200711
v 0.03111167 0.07385339 -0.001134247
v 0.03111819 0.07532911 -0.002007146
v 0.03111166 0.07385337 0.001134242
v 0.03111819 0.07532911 -0.002007146
v 0.03111167 0.07193586 -0.002268471
v 0.03111819 0.07193588 -0.004014238
v 0.03111167 0.07385339 -0.001134247
v 0.03641393 0.06854253 0.002007184
v 0.03641394 0.07193588 -0.004014239
v 0.03641393 0.06854256 -0.002007074
v 0.03641394 0.07532907 0.002007111
v 0.03641394 0.07193579 0.004014276
v 0.03641394 0.07532911 -0.002007145
v 0.03111167 0.07193586 -0.002268471
v 0.02301957 0.07001827 -0.001134209
v 0.03111167 0.07001827 -0.001134207
v 0.02301957 0.07193586 -0.002268475
v 0.03111819 0.06854256 -0.002007075
v 0.03641394 0.07193588 -0.004014239
v 0.03111819 0.07193588 -0.004014238
v 0.03641393 0.06854256 -0.002007074
v 0.03111167 0.07001827 -0.001134207
v 0.02301957 0.07001825 0.001134281
v 0.03111167 0.07001825 0.001134282
v 0.02301957 0.07001827 -0.001134209
v 0.03111819 0.06854252 0.002007182
v 0.03641393 0.06854256 -0.002007074
v 0.03111819 0.06854256 -0.002007075
v 0.03641393 0.06854253 0.002007184
v 0.03111167 0.07001825 0.001134282
v 0.02301957 0.07193581 0.002268506
v 0.03111166 0.07193581 0.002268506
v 0.02301957 0.07001825 0.001134281
v 0.03111819 0.07193579 0.004014273
v 0.03641393 0.06854253 0.002007184
v 0.03111819 0.06854252 0.002007182
v 0.03641394 0.07193579 0.004014276
v 0.03111166 0.07193581 0.002268506
v 0.02301957 0.07385337 0.00113424
v 0.03111166 0.07385337 0.001134242
v 0.02301957 0.07193581 0.002268506
v 0.03111819 0.07532907 0.00200711
v 0.03641394 0.07193579 0.004014276
v 0.03111819 0.07193579 0.004014273
v 0.03641394 0.07532907 0.002007111
v 0.03111166 0.07385337 0.001134242
v 0.02301957 0.07385339 -0.00113425
v 0.03111167 0.07385339 -0.001134247
v 0.02301957 0.07385337 0.00113424
v 0.03111819 0.07532911 -0.002007146
v 0.03641394 0.07532907 0.002007111
v 0.03111819 0.07532907 0.00200711
v 0.03641394 0.07532911 -0.002007145
v 0.03111167 0.07385339 -0.001134247
v 0.02301957 0.07193586 -0.002268475
v 0.03111167 0.07193586 -0.002268471
v 0.02301957 0.07385339 -0.00113425
v 0.03111819 0.07193588 -0.004014238
v 0.03641394 0.07532911 -0.002007145
v 0.03111819 0.07532911 -0.002007146
v 0.03641394 0.07193588 -0.004014239
vt 0.7213854 0.969239
vt 0.7342541 0.9563702
vt 0.7213854 0.9563702
vt 0.7342541 0.969239
vt 0.7342541 0.969239
vt 0.7213854 0.9563702
vt 0.7213854 0.969239
vt 0.7342541 0.9563702
vt 0.7342541 0.969239
vt 0.7213854 0.9563702
vt 0.7213854 0.969239
vt 0.7342541 0.9563702
vt 0.7342541 0.969239
vt 0.7213854 0.9563702
vt 0.7213854 0.969239
vt 0.7342541 0.9563702
vt 0.7342541 0.969239
vt 0.7213854 0.9563702
vt 0.7213854 0.969239
vt 0.7342541 0.9563702
vt 0.7342541 0.969239
vt 0.7213854 0.9563702
vt 0.7213854 0.969239
vt 0.7342541 0.9563702
vt 0.7331817 0.969239
vt 0.7310369 0.9563702
vt 0.7310369 0.969239
vt 0.7331817 0.9563702
vt 0.7353265 0.969239
vt 0.7331817 0.9563702
vt 0.7331817 0.969239
vt 0.7353265 0.9563702
vt 0.7246026 0.969239
vt 0.7224578 0.9563702
vt 0.7224578 0.969239
vt 0.7246026 0.9563702
vt 0.7267474 0.969239
vt 0.7246026 0.9563702
vt 0.7246026 0.969239
vt 0.7267474 0.9563702
vt 0.7288922 0.969239
vt 0.7267474 0.9563702
vt 0.7267474 0.969239
vt 0.7288922 0.9563702
vt 0.7310369 0.969239
vt 0.7288922 0.9563702
vt 0.7288922 0.969239
vt 0.7310369 0.9563702
vt 0.7222475 0.9595875
vt 0.7278198 0.969239
vt 0.7222475 0.9660219
vt 0.7333921 0.9595875
vt 0.7278198 0.9563702
vt 0.7333921 0.9660219
vt 0.7278198 0.9563702
vt 0.7333921 0.9660219
vt 0.7333921 0.9595875
vt 0.7222475 0.9660219
vt 0.7222475 0.9595875
vt 0.7278198 0.969239
vt 0.7331817 0.969239
vt 0.7310369 0.9563702
vt 0.7310369 0.969239
vt 0.7331817 0.9563702
vt 0.7353265 0.969239
vt 0.7331817 0.9563702
vt 0.7331817 0.969239
vt 0.7353265 0.9563702
vt 0.7246026 0.969239
vt 0.7224578 0.9563702
vt 0.7224578 0.969239
vt 0.7246026 0.9563702
vt 0.7267474 0.969239
vt 0.7246026 0.9563702
vt 0.7246026 0.969239
vt 0.7267474 0.9563702
vt 0.7288922 0.969239
vt 0.7267474 0.9563702
vt 0.7267474 0.969239
vt 0.7288922 0.9563702
vt 0.7310369 0.969239
vt 0.7288922 0.9563702
vt 0.7288922 0.969239
vt 0.7310369 0.9563702
vt 0.7222475 0.9595875
vt 0.7278198 0.969239
vt 0.7222475 0.9660219
vt 0.7333921 0.9595875
vt 0.7278198 0.9563702
vt 0.7333921 0.9660219
vt 0.7278198 0.9563702
vt 0.7333921 0.9660219
vt 0.7333921 0.9595875
vt 0.7222475 0.9660219
vt 0.7222475 0.9595875
vt 0.7278198 0.969239
vt 0.7310369 0.9606599
vt 0.7331817 0.9649494
vt 0.7331817 0.9606599
vt 0.7310369 0.9649494
vt 0.7331817 0.9606599
vt 0.7353265 0.9649494
vt 0.7353265 0.9606599
vt 0.7331817 0.9649494
vt 0.7224578 0.9606599
vt 0.7246026 0.9649494
vt 0.7246026 0.9606599
vt 0.7224578 0.9649494
vt 0.7246026 0.9606599
vt 0.7267474 0.9649494
vt 0.7267474 0.9606599
vt 0.7246026 0.9649494
vt 0.7267474 0.9606599
vt 0.7288922 0.9649494
vt 0.7288922 0.9606599
vt 0.7267474 0.9649494
vt 0.7288922 0.9606599
vt 0.7310369 0.9649494
vt 0.7310369 0.9606599
vt 0.7288922 0.9649494
vt 0.7222475 0.9595875
vt 0.7278198 0.969239
vt 0.7222475 0.9660219
vt 0.7333921 0.9595875
vt 0.7278198 0.9563702
vt 0.7333921 0.9660219
vt 0.7310369 0.9649494
vt 0.7331817 0.969239
vt 0.7331817 0.9649494
vt 0.7310369 0.969239
vt 0.7331817 0.9606599
vt 0.7310369 0.9563702
vt 0.7310369 0.9606599
vt 0.7331817 0.9563702
vt 0.7331817 0.9649494
vt 0.7353265 0.969239
vt 0.7353265 0.9649494
vt 0.7331817 0.969239
vt 0.7353265 0.9606599
vt 0.7331817 0.9563702
vt 0.7331817 0.9606599
vt 0.7353265 0.9563702
vt 0.7224578 0.9649494
vt 0.7246026 0.969239
vt 0.7246026 0.9649494
vt 0.7224578 0.969239
vt 0.7246026 0.9606599
vt 0.7224578 0.9563702
vt 0.7224578 0.9606599
vt 0.7246026 0.9563702
vt 0.7246026 0.9649494
vt 0.7267474 0.969239
vt 0.7267474 0.9649494
vt 0.7246026 0.969239
vt 0.7267474 0.9606599
vt 0.7246026 0.9563702
vt 0.7246026 0.9606599
vt 0.7267474 0.9563702
vt 0.7267474 0.9649494
vt 0.7288922 0.969239
vt 0.7288922 0.9649494
vt 0.7267474 0.969239
vt 0.7288922 0.9606599
vt 0.7267474 0.9563702
vt 0.7267474 0.9606599
vt 0.7288922 0.9563702
vt 0.7288922 0.9649494
vt 0.7310369 0.969239
vt 0.7310369 0.9649494
vt 0.7288922 0.969239
vt 0.7310369 0.9606599
vt 0.7288922 0.9563702
vt 0.7288922 0.9606599
vt 0.7310369 0.9563702
vn 0 -1 0
vn 0 -1 0
vn 0 -1 0
vn 0 -1 0
vn 0 1 0
vn 0 1 0
vn 0 1 0
vn 0 1 0
vn 0 0 -1
vn 0 0 -1
vn 0 0 -1
vn 0 0 -1
vn -1 0 0
vn -1 0 0
vn -1 0 0
vn -1 0 0
vn 0 0 1
vn 0 0 1
vn 0 0 1
vn 0 0 1
vn 1 0 0
vn 1 0 0
vn 1 0 0
vn 1 0 0
vn -0.8529621 -0.5219728 0
vn -0.8529621 -0.5219728 0
vn -0.8529621 -0.5219728 0
vn -0.8529609 -0.5219747 0
vn 0 -1 0
vn 0 -1 0
vn 0 -1 0
vn -1.230174E-05 -1 0
vn 0.8529674 -0.5219642 0
vn 0.8529673 -0.5219642 0
vn 0.8529674 -0.5219642 0
vn 0.8529677 -0.5219637 0
vn 0.8529618 0.5219734 0
vn 0.8529618 0.5219734 0
vn 0.8529617 0.5219734 0
vn 0.8529609 0.5219748 0
vn 0 1 0
vn 0 1 0
vn 0 1 0
vn 1.230172E-05 1 0
vn -0.8529652 0.5219677 0
vn -0.8529652 0.5219677 0
vn -0.8529652 0.5219677 0
vn -0.8529685 0.5219625 0
vn 0 0 -1
vn 0 0 -1
vn 0 0 -1
vn 0 0 -1
vn 0 0 -1
vn 0 0 -1
vn 0 0 1
vn 0 0 1
vn 0 0 1
vn 0 0 1
vn 0 0 1
vn 0 0 1
vn -0.8529616 -0.5219737 0
vn -0.8529616 -0.5219736 0
vn -0.8529616 -0.5219736 0
vn -0.8529613 -0.5219742 0
vn 0 -1 0
vn 0 -1 0
vn 0 -1 0
vn 0 -1 0
vn 0.8529659 -0.5219668 0
vn 0.8529658 -0.5219668 0
vn 0.8529659 -0.5219668 0
vn 0.8529658 -0.5219669 0
vn 0.8529608 0.5219751 0
vn 0.8529606 0.5219752 0
vn 0.8529606 0.5219751 0
vn 0.8529609 0.5219747 0
vn 0 1 0
vn 0 1 0
vn 0 1 0
vn 0 1 0
vn -0.8529667 0.5219653 0
vn -0.8529667 0.5219653 0
vn -0.8529667 0.5219653 0
vn -0.8529661 0.5219663 0
vn 0 0 -1
vn 0 0 -1
vn 0 0 -1
vn 0 0 -1
vn 0 0 -1
vn 0 0 -1
vn 0 0 1
vn 0 0 1
vn 0 0 1
vn 0 0 1
vn 0 0 1
vn 0 0 1
vn -0.9999906 -0.002209496 -0.003735379
vn -0.9999906 -0.002209496 -0.003735379
vn -0.9999906 -0.002209496 -0.003735379
vn -0.9999906 -0.00221109 -0.00373644
vn -0.9999902 -0.00442014 0
vn -0.9999902 -0.004420141 0
vn -0.9999902 -0.004420141 0
vn -0.9999902 -0.004418435 0
vn -0.9999906 -0.002211939 0.003739594
vn -0.9999906 -0.00221194 0.003739594
vn -0.9999906 -0.002211939 0.003739594
vn -0.9999906 -0.002211501 0.003733908
vn -0.9999906 0.002211404 0.003738571
vn -0.9999906 0.002211404 0.003738571
vn -0.9999906 0.002211404 0.003738572
vn -0.9999906 0.002213025 0.003739651
vn -0.9999902 0.004421442 0
vn -0.9999902 0.004421442 0
vn -0.9999902 0.004421442 0
vn -0.9999902 0.004423216 0
vn -0.9999906 0.002210076 -0.003736402
vn -0.9999906 0.002210076 -0.003736402
vn -0.9999906 0.002210076 -0.003736402
vn -0.9999906 0.002210219 -0.003738251
vn 1 0 0
vn 1 0 0
vn 1 0 0
vn 1 0 0
vn 1 0 0
vn 1 0 0
vn 0 -0.5091087 -0.8607022
vn 0 -0.5091087 -0.8607022
vn 0 -0.5091086 -0.8607022
vn 0 -0.5091093 -0.8607019
vn 0 -0.5091096 -0.8607018
vn 0 -0.5091096 -0.8607017
vn 0 -0.5091096 -0.8607017
vn 0 -0.5091099 -0.8607016
vn 0 -1 0
vn 0 -1 0
vn 0 -1 0
vn 0 -1 0
vn 0 -1 -1.113618E-05
vn 0 -1 -1.113618E-05
vn 0 -1 -1.113618E-05
vn 0 -1 0
vn 0 -0.5091029 0.8607056
vn 0 -0.5091029 0.8607056
vn 0 -0.5091029 0.8607056
vn 0 -0.5091031 0.8607055
vn 0 -0.509101 0.8607067
vn 0 -0.509101 0.8607067
vn 0 -0.509101 0.8607068
vn 0 -0.5091019 0.8607062
vn 0 0.5091148 0.8606986
vn 0 0.5091147 0.8606986
vn 0 0.5091148 0.8606986
vn 0 0.5091154 0.8606983
vn 0 0.5091129 0.8606998
vn 0 0.5091128 0.8606998
vn 0 0.5091128 0.8606998
vn 0 0.509113 0.8606997
vn 0 1 0
vn 0 1 0
vn 0 1 0
vn 0 1 0
vn 0 1 0
vn 0 1 0
vn 0 1 0
vn 0 1 0
vn 0 0.5091087 -0.8607022
vn 0 0.5091087 -0.8607022
vn 0 0.5091087 -0.8607022
vn 0 0.5091089 -0.860702
vn 0 0.5091052 -0.8607042
vn 0 0.5091052 -0.8607042
vn 0 0.5091053 -0.8607042
vn 0 0.5091057 -0.860704
g M79_Part04_0
f 3/3/3 2/2/2 1/1/1
f 4/4/4 1/1/1 2/2/2
f 7/7/7 6/6/6 5/5/5
f 8/8/8 5/5/5 6/6/6
f 11/11/11 10/10/10 9/9/9
f 12/12/12 9/9/9 10/10/10
f 15/15/15 14/14/14 13/13/13
f 16/16/16 13/13/13 14/14/14
f 19/19/19 18/18/18 17/17/17
f 20/20/20 17/17/17 18/18/18
f 23/23/23 22/22/22 21/21/21
f 24/24/24 21/21/21 22/22/22
f 27/27/27 26/26/26 25/25/25
f 28/28/28 25/25/25 26/26/26
f 31/31/31 30/30/30 29/29/29
f 32/32/32 29/29/29 30/30/30
f 35/35/35 34/34/34 33/33/33
f 36/36/36 33/33/33 34/34/34
f 39/39/39 38/38/38 37/37/37
f 40/40/40 37/37/37 38/38/38
f 43/43/43 42/42/42 41/41/41
f 44/44/44 41/41/41 42/42/42
f 47/47/47 46/46/46 45/45/45
f 48/48/48 45/45/45 46/46/46
f 51/51/51 50/50/50 49/49/49
f 50/50/50 52/52/52 49/49/49
f 52/52/52 53/53/53 49/49/49
f 54/54/54 52/52/52 50/50/50
f 57/57/57 56/56/56 55/55/55
f 56/56/56 58/58/58 55/55/55
f 58/58/58 59/59/59 55/55/55
f 60/60/60 58/58/58 56/56/56
f 63/63/63 62/62/62 61/61/61
f 64/64/64 61/61/61 62/62/62
f 67/67/67 66/66/66 65/65/65
f 68/68/68 65/65/65 66/66/66
f 71/71/71 70/70/70 69/69/69
f 72/72/72 69/69/69 70/70/70
f 75/75/75 74/74/74 73/73/73
f 76/76/76 73/73/73 74/74/74
f 79/79/79 78/78/78 77/77/77
f 80/80/80 77/77/77 78/78/78
f 83/83/83 82/82/82 81/81/81
f 84/84/84 81/81/81 82/82/82
f 87/87/87 86/86/86 85/85/85
f 86/86/86 88/88/88 85/85/85
f 88/88/88 89/89/89 85/85/85
f 90/90/90 88/88/88 86/86/86
f 93/93/93 92/92/92 91/91/91
f 92/92/92 94/94/94 91/91/91
f 94/94/94 95/95/95 91/91/91
f 96/96/96 94/94/94 92/92/92
f 99/99/99 98/98/98 97/97/97
f 100/100/100 97/97/97 98/98/98
f 103/103/103 102/102/102 101/101/101
f 104/104/104 101/101/101 102/102/102
f 107/107/107 106/106/106 105/105/105
f 108/108/108 105/105/105 106/106/106
f 111/111/111 110/110/110 109/109/109
f 112/112/112 109/109/109 110/110/110
f 115/115/115 114/114/114 113/113/113
f 116/116/116 113/113/113 114/114/114
f 119/119/119 118/118/118 117/117/117
f 120/120/120 117/117/117 118/118/118
f 123/123/123 122/122/122 121/121/121
f 122/122/122 124/124/124 121/121/121
f 124/124/124 125/125/125 121/121/121
f 126/126/126 124/124/124 122/122/122
f 129/129/129 128/128/128 127/127/127
f 130/130/130 127/127/127 128/128/128
f 133/133/133 132/132/132 131/131/131
f 134/134/134 131/131/131 132/132/132
f 137/137/137 136/136/136 135/135/135
f 138/138/138 135/135/135 136/136/136
f 141/141/141 140/140/140 139/139/139
f 142/142/142 139/139/139 140/140/140
f 145/145/145 144/144/144 143/143/143
f 146/146/146 143/143/143 144/144/144
f 149/149/149 148/148/148 147/147/147
f 150/150/150 147/147/147 148/148/148
f 153/153/153 152/152/152 151/151/151
f 154/154/154 151/151/151 152/152/152
f 157/157/157 156/156/156 155/155/155
f 158/158/158 155/155/155 156/156/156
f 161/161/161 160/160/160 159/159/159
f 162/162/162 159/159/159 160/160/160
f 165/165/165 164/164/164 163/163/163
f 166/166/166 163/163/163 164/164/164
f 169/169/169 168/168/168 167/167/167
f 170/170/170 167/167/167 168/168/168
f 173/173/173 172/172/172 171/171/171
f 174/174/174 171/171/171 172/172/172
