g M79_Part07
v -0.005746433 0.004171417 0.01264258
v 0.005746433 -0.005736056 -0.01156631
v -0.005746429 -0.005736056 -0.01156631
v 0.005746429 0.004171417 0.01264258
v 0.005746433 0.0003995678 -0.006558587
v -0.00574643 -0.002457801 -0.01164532
v 0.005746434 -0.002457801 -0.01164532
v -0.005746431 0.0003995678 -0.006558589
v -0.00574643 -0.002457801 -0.01164532
v 0.005746433 -0.005736056 -0.01156631
v 0.005746434 -0.002457801 -0.01164532
v -0.005746429 -0.005736056 -0.01156631
v -0.00574643 -0.002457801 -0.01164532
v -0.005746433 0.004171417 0.01264258
v -0.005746429 -0.005736056 -0.01156631
v -0.005746433 0.004971127 0.004379036
v -0.005746434 0.006685315 0.01022994
v -0.005746431 0.0003995678 -0.006558589
v -0.005746432 0.00500841 -0.00262556
v 0.005746431 0.006685315 0.01022994
v -0.005746433 0.004171417 0.01264258
v -0.005746434 0.006685315 0.01022994
v 0.005746429 0.004171417 0.01264258
v 0.005746431 0.006685315 0.01022994
v 0.005746433 -0.005736056 -0.01156631
v 0.005746429 0.004171417 0.01264258
v 0.005746433 0.0003995678 -0.006558587
v 0.005746434 -0.002457801 -0.01164532
v 0.005746432 0.004971127 0.004379038
v 0.005746433 0.00500841 -0.002625558
v 0.005746433 0.00500841 -0.002625558
v -0.005746433 0.004971127 0.004379036
v -0.005746432 0.00500841 -0.00262556
v 0.005746432 0.004971127 0.004379038
v 0.005746433 0.0003995678 -0.006558587
v -0.005746432 0.00500841 -0.00262556
v -0.005746431 0.0003995678 -0.006558589
v 0.005746433 0.00500841 -0.002625558
v 0.005746432 0.004971127 0.004379038
v -0.005746434 0.006685315 0.01022994
v -0.005746433 0.004971127 0.004379036
v 0.005746431 0.006685315 0.01022994
vt 0.7213854 0.969239
vt 0.7342541 0.9563702
vt 0.7213854 0.9563702
vt 0.7342541 0.969239
vt 0.7213854 0.9595875
vt 0.7342541 0.9563702
vt 0.7213854 0.9563702
vt 0.7342541 0.9595875
vt 0.7342541 0.969239
vt 0.7213854 0.9563702
vt 0.7213854 0.969239
vt 0.7342541 0.9563702
vt 0.7213854 0.969239
vt 0.7342541 0.9563702
vt 0.7213854 0.9563702
vt 0.7310369 0.969239
vt 0.7342541 0.969239
vt 0.7246026 0.969239
vt 0.7278198 0.969239
vt 0.7342541 0.969239
vt 0.7213854 0.9563702
vt 0.7213854 0.969239
vt 0.7342541 0.9563702
vt 0.7213854 0.969239
vt 0.7342541 0.9563702
vt 0.7213854 0.9563702
vt 0.7310369 0.969239
vt 0.7342541 0.969239
vt 0.7246026 0.969239
vt 0.7278198 0.969239
vt 0.7213854 0.9628047
vt 0.7342541 0.9660219
vt 0.7342541 0.9628047
vt 0.7213854 0.9660219
vt 0.7213854 0.9595875
vt 0.7342541 0.9628047
vt 0.7342541 0.9595875
vt 0.7213854 0.9628047
vt 0.7213854 0.9660219
vt 0.7342541 0.969239
vt 0.7342541 0.9660219
vt 0.7213854 0.969239
vn 0 -0.9255044 0.3787369
vn 0 -0.9255044 0.3787369
vn 0 -0.9255044 0.3787369
vn 0 -0.9255044 0.3787369
vn 0 0.8718585 -0.4897577
vn 0 0.871868 -0.4897409
vn 0 0.871868 -0.4897409
vn 0 0.8718585 -0.4897577
vn 0 -0.02409335 -0.9997097
vn 0 -0.02409236 -0.9997097
vn 0 -0.02409335 -0.9997097
vn 0 -0.02409236 -0.9997097
vn -1 0 0
vn -1 0 0
vn -1 0 0
vn -1 0 0
vn -1 0 0
vn -1 0 0
vn -1 0 0
vn 0 0.6924133 0.7215011
vn 0 0.692424 0.7214909
vn 0 0.6924133 0.7215011
vn 0 0.692424 0.7214909
vn 1 0 0
vn 1 0 0
vn 1 0 0
vn 1 0 0
vn 1 0 0
vn 1 0 0
vn 1 0 0
vn 0 0.9999858 0.005324213
vn 0 0.9999858 0.005324213
vn 0 0.9999858 0.005324213
vn 0 0.9999858 0.005324213
vn 0 0.6491334 -0.7606745
vn 0 0.6491342 -0.7606739
vn 0 0.6491334 -0.7606745
vn 0 0.6491342 -0.7606739
vn 0 0.9596632 -0.2811523
vn 0 0.9596576 -0.2811712
vn 0 0.9596632 -0.2811523
vn 0 0.9596576 -0.2811712
g M79_Part07_0
f 3/3/3 2/2/2 1/1/1
f 4/4/4 1/1/1 2/2/2
f 7/7/7 6/6/6 5/5/5
f 8/8/8 5/5/5 6/6/6
f 11/11/11 10/10/10 9/9/9
f 12/12/12 9/9/9 10/10/10
f 15/15/15 14/14/14 13/13/13
f 13/13/13 14/14/14 16/16/16
f 14/14/14 17/17/17 16/16/16
f 18/18/18 13/13/13 16/16/16
f 19/19/19 18/18/18 16/16/16
f 22/22/22 21/21/21 20/20/20
f 23/23/23 20/20/20 21/21/21
f 26/26/26 25/25/25 24/24/24
f 24/24/24 25/25/25 27/27/27
f 25/25/25 28/28/28 27/27/27
f 29/29/29 24/24/24 27/27/27
f 30/30/30 29/29/29 27/27/27
f 33/33/33 32/32/32 31/31/31
f 34/34/34 31/31/31 32/32/32
f 37/37/37 36/36/36 35/35/35
f 38/38/38 35/35/35 36/36/36
f 41/41/41 40/40/40 39/39/39
f 42/42/42 39/39/39 40/40/40
