g M79_Part03
v -0.02063426 -0.005241509 -0.003100329
v 0.02063427 6.340162E-08 -0.006200751
v -0.02063426 5.913729E-08 -0.006200763
v 0.02063426 -0.005241504 -0.003100318
v -0.02063426 -0.00524157 0.003100426
v 0.02063426 -0.005241504 -0.003100318
v -0.02063426 -0.005241509 -0.003100329
v 0.02063426 -0.005241565 0.003100438
v -0.02063426 -6.492355E-08 0.006200748
v 0.02063426 -0.005241565 0.003100438
v -0.02063426 -0.00524157 0.003100426
v 0.02063426 -6.065922E-08 0.006200759
v -0.02063426 0.005241502 0.003100314
v 0.02063426 -6.065922E-08 0.006200759
v -0.02063426 -6.492355E-08 0.006200748
v 0.02063426 0.005241506 0.003100325
v -0.02063426 0.005241564 -0.003100441
v 0.02063426 0.005241506 0.003100325
v -0.02063426 0.005241502 0.003100314
v 0.02063426 0.005241568 -0.003100429
v -0.02063426 5.913729E-08 -0.006200763
v 0.02063426 0.005241568 -0.003100429
v -0.02063426 0.005241564 -0.003100441
v 0.02063427 6.340162E-08 -0.006200751
v 0.02063426 -0.005241565 0.003100438
v 0.02063427 6.340162E-08 -0.006200751
v 0.02063426 -0.005241504 -0.003100318
v 0.02063426 0.005241506 0.003100325
v 0.02063426 -6.065922E-08 0.006200759
v 0.02063426 0.005241568 -0.003100429
v -0.02063426 -6.492355E-08 0.006200748
v -0.02063426 0.005241564 -0.003100441
v -0.02063426 0.005241502 0.003100314
v -0.02063426 -0.005241509 -0.003100329
v -0.02063426 -0.00524157 0.003100426
v -0.02063426 5.913729E-08 -0.006200763
v 0.01926893 -0.003841972 0.002475644
v -0.01926893 -0.003841951 -0.002748224
v -0.01926893 -0.003841976 0.002475636
v 0.01926893 -0.003841948 -0.002748217
v -0.01926893 -0.003841976 0.002475636
v -0.01926894 0.1655049 -0.002748258
v -0.01926894 0.1655049 0.002475603
v -0.01926893 -0.003841951 -0.002748224
v -0.01926894 0.1655049 0.002475603
v 0.01926891 0.1655049 -0.00274825
v 0.01926891 0.1655049 0.002475611
v -0.01926894 0.1655049 -0.002748258
v 0.01926891 0.1655049 0.002475611
v 0.01926893 -0.003841948 -0.002748217
v 0.01926893 -0.003841972 0.002475644
v 0.01926891 0.1655049 -0.00274825
v -0.01101551 0.00471235 -0.002748224
v 0.01587619 0.004712356 0.002475642
v -0.01101551 0.004712326 0.002475636
v 0.01587619 0.004712381 -0.002748219
v -0.01101553 0.1583623 -0.002748254
v -0.01101551 0.004712326 0.002475636
v -0.01101553 0.1583623 0.002475606
v -0.01101551 0.00471235 -0.002748224
v 0.01587617 0.1583624 -0.002748249
v -0.01101553 0.1583623 0.002475606
v 0.01587617 0.1583623 0.002475612
v -0.01101553 0.1583623 -0.002748254
v 0.01587619 0.004712381 -0.002748219
v 0.01587617 0.1583623 0.002475612
v 0.01587619 0.004712356 0.002475642
v 0.01587617 0.1583624 -0.002748249
v -0.01926893 -0.003841976 0.002475636
v 0.01587619 0.004712356 0.002475642
v 0.01926893 -0.003841972 0.002475644
v -0.01101551 0.004712326 0.002475636
v 0.01926893 -0.003841948 -0.002748217
v -0.01101551 0.00471235 -0.002748224
v -0.01926893 -0.003841951 -0.002748224
v 0.01587619 0.004712381 -0.002748219
v -0.01926894 0.1655049 0.002475603
v -0.01101551 0.004712326 0.002475636
v -0.01926893 -0.003841976 0.002475636
v -0.01101553 0.1583623 0.002475606
v -0.01926893 -0.003841951 -0.002748224
v -0.01101553 0.1583623 -0.002748254
v -0.01926894 0.1655049 -0.002748258
v -0.01101551 0.00471235 -0.002748224
v 0.01926891 0.1655049 0.002475611
v -0.01101553 0.1583623 0.002475606
v -0.01926894 0.1655049 0.002475603
v 0.01587617 0.1583623 0.002475612
v -0.01926894 0.1655049 -0.002748258
v 0.01587617 0.1583624 -0.002748249
v 0.01926891 0.1655049 -0.00274825
v -0.01101553 0.1583623 -0.002748254
v 0.01926893 -0.003841972 0.002475644
v 0.01587617 0.1583623 0.002475612
v 0.01926891 0.1655049 0.002475611
v 0.01587619 0.004712356 0.002475642
v 0.01926891 0.1655049 -0.00274825
v 0.01587619 0.004712381 -0.002748219
v 0.01926893 -0.003841948 -0.002748217
v 0.01587617 0.1583624 -0.002748249
v 0.0144425 0.1602173 -0.004520319
v 0.009042335 0.163903 -0.004520347
v 0.009042336 0.1602173 -0.004520347
v 0.0144425 0.163903 -0.004520319
v 0.01714261 0.1602172 3.114475E-08
v 0.0144425 0.163903 -0.004520319
v 0.0144425 0.1602173 -0.004520319
v 0.01714261 0.1639029 3.110997E-08
v 0.01444255 0.1602172 0.004520354
v 0.01714261 0.1639029 3.110997E-08
v 0.01714261 0.1602172 3.114475E-08
v 0.01444255 0.1639029 0.004520354
v 0.009042379 0.1602172 0.004520325
v 0.01444255 0.1639029 0.004520354
v 0.01444255 0.1602172 0.004520354
v 0.009042379 0.1639029 0.004520326
v 0.006342275 0.1602172 -2.397794E-08
v 0.009042379 0.1639029 0.004520326
v 0.009042379 0.1602172 0.004520325
v 0.006342274 0.1639029 -2.401291E-08
v 0.009042336 0.1602173 -0.004520347
v 0.006342274 0.1639029 -2.401291E-08
v 0.006342275 0.1602172 -2.397794E-08
v 0.009042335 0.163903 -0.004520347
v 0.01714261 0.1639029 3.110997E-08
v 0.009042335 0.163903 -0.004520347
v 0.0144425 0.163903 -0.004520319
v 0.009042379 0.1639029 0.004520326
v 0.01444255 0.1639029 0.004520354
v 0.006342274 0.1639029 -2.401291E-08
v 0.01444255 0.1602172 0.004520354
v 0.006342275 0.1602172 -2.397794E-08
v 0.009042379 0.1602172 0.004520325
v 0.0144425 0.1602173 -0.004520319
v 0.01714261 0.1602172 3.114475E-08
v 0.009042336 0.1602173 -0.004520347
v -0.01391813 0.1595334 0.005856596
v -0.01670569 0.1595335 -0.005856741
v -0.01670544 0.1595334 0.005856652
v -0.01391838 0.1595335 -0.005856796
v -0.01252447 0.1618107 0.005856597
v -0.01391838 0.1595335 -0.005856796
v -0.01391813 0.1595334 0.005856596
v -0.01252471 0.1618109 -0.005856796
v -0.01391811 0.1640881 0.005856651
v -0.01252471 0.1618109 -0.005856796
v -0.01252447 0.1618107 0.005856597
v -0.01391836 0.1640882 -0.005856742
v -0.01670542 0.1640881 0.005856707
v -0.01391836 0.1640882 -0.005856742
v -0.01391811 0.1640881 0.005856651
v -0.01670567 0.1640882 -0.005856686
v -0.01809909 0.1618107 0.005856706
v -0.01670567 0.1640882 -0.005856686
v -0.01670542 0.1640881 0.005856707
v -0.01809934 0.1618108 -0.005856686
v -0.01670544 0.1595334 0.005856652
v -0.01809934 0.1618108 -0.005856686
v -0.01809909 0.1618107 0.005856706
v -0.01670569 0.1595335 -0.005856741
v -0.01252471 0.1618109 -0.005856796
v -0.01670569 0.1595335 -0.005856741
v -0.01391838 0.1595335 -0.005856796
v -0.01670567 0.1640882 -0.005856686
v -0.01391836 0.1640882 -0.005856742
v -0.01809934 0.1618108 -0.005856686
v -0.01391811 0.1640881 0.005856651
v -0.01809909 0.1618107 0.005856706
v -0.01670542 0.1640881 0.005856707
v -0.01391813 0.1595334 0.005856596
v -0.01252447 0.1618107 0.005856597
v -0.01670544 0.1595334 0.005856652
vt 0.7331817 0.969239
vt 0.7310369 0.9563702
vt 0.7310369 0.969239
vt 0.7331817 0.9563702
vt 0.7353265 0.969239
vt 0.7331817 0.9563702
vt 0.7331817 0.969239
vt 0.7353265 0.9563702
vt 0.7246026 0.969239
vt 0.7224578 0.9563702
vt 0.7224578 0.969239
vt 0.7246026 0.9563702
vt 0.7267474 0.969239
vt 0.7246026 0.9563702
vt 0.7246026 0.969239
vt 0.7267474 0.9563702
vt 0.7288922 0.969239
vt 0.7267474 0.9563702
vt 0.7267474 0.969239
vt 0.7288922 0.9563702
vt 0.7310369 0.969239
vt 0.7288922 0.9563702
vt 0.7288922 0.969239
vt 0.7310369 0.9563702
vt 0.7222475 0.9595875
vt 0.7278198 0.969239
vt 0.7222475 0.9660219
vt 0.7333921 0.9595875
vt 0.7278198 0.9563702
vt 0.7333921 0.9660219
vt 0.7278198 0.9563702
vt 0.7333921 0.9660219
vt 0.7333921 0.9595875
vt 0.7222475 0.9660219
vt 0.7222475 0.9595875
vt 0.7278198 0.969239
vt 0.2774429 0.9563702
vt 0.2903117 0.969239
vt 0.2903117 0.9563702
vt 0.2774429 0.969239
vt 0.2774429 0.9563702
vt 0.2903117 0.969239
vt 0.2903117 0.9563702
vt 0.2774429 0.969239
vt 0.2774429 0.9563702
vt 0.2903117 0.969239
vt 0.2903117 0.9563702
vt 0.2774429 0.969239
vt 0.2774429 0.9563702
vt 0.2903117 0.969239
vt 0.2903117 0.9563702
vt 0.2774429 0.969239
vt 0.2903117 0.969239
vt 0.2774429 0.9563702
vt 0.2903117 0.9563702
vt 0.2774429 0.969239
vt 0.2903117 0.969239
vt 0.2774429 0.9563702
vt 0.2903117 0.9563702
vt 0.2774429 0.969239
vt 0.2903117 0.969239
vt 0.2774429 0.9563702
vt 0.2903117 0.9563702
vt 0.2774429 0.969239
vt 0.2903117 0.969239
vt 0.2774429 0.9563702
vt 0.2903117 0.9563702
vt 0.2774429 0.969239
vt 0.2903117 0.9563702
vt 0.2774429 0.9563702
vt 0.2774429 0.9563702
vt 0.2903117 0.9563702
vt 0.2774429 0.969239
vt 0.2903117 0.969239
vt 0.2903117 0.969239
vt 0.2774429 0.969239
vt 0.2903117 0.9563702
vt 0.2774429 0.9563702
vt 0.2774429 0.9563702
vt 0.2903117 0.9563702
vt 0.2774429 0.969239
vt 0.2903117 0.969239
vt 0.2903117 0.969239
vt 0.2774429 0.969239
vt 0.2903117 0.9563702
vt 0.2774429 0.9563702
vt 0.2774429 0.9563702
vt 0.2903117 0.9563702
vt 0.2774429 0.969239
vt 0.2903117 0.969239
vt 0.2903117 0.969239
vt 0.2774429 0.969239
vt 0.2903117 0.9563702
vt 0.2774429 0.9563702
vt 0.2774429 0.9563702
vt 0.2903117 0.9563702
vt 0.2774429 0.969239
vt 0.2903117 0.969239
vt 0.2903117 0.969239
vt 0.2774429 0.969239
vt 0.7331817 0.969239
vt 0.7310369 0.9563702
vt 0.7310369 0.969239
vt 0.7331817 0.9563702
vt 0.7353265 0.969239
vt 0.7331817 0.9563702
vt 0.7331817 0.969239
vt 0.7353265 0.9563702
vt 0.7246026 0.969239
vt 0.7224578 0.9563702
vt 0.7224578 0.969239
vt 0.7246026 0.9563702
vt 0.7267474 0.969239
vt 0.7246026 0.9563702
vt 0.7246026 0.969239
vt 0.7267474 0.9563702
vt 0.7288922 0.969239
vt 0.7267474 0.9563702
vt 0.7267474 0.969239
vt 0.7288922 0.9563702
vt 0.7310369 0.969239
vt 0.7288922 0.9563702
vt 0.7288922 0.969239
vt 0.7310369 0.9563702
vt 0.7222475 0.9595875
vt 0.7278198 0.969239
vt 0.7222475 0.9660219
vt 0.7333921 0.9595875
vt 0.7278198 0.9563702
vt 0.7333921 0.9660219
vt 0.7278198 0.9563702
vt 0.7333921 0.9660219
vt 0.7333921 0.9595875
vt 0.7222475 0.9660219
vt 0.7222475 0.9595875
vt 0.7278198 0.969239
vt 0.7331817 0.969239
vt 0.7310369 0.9563702
vt 0.7310369 0.969239
vt 0.7331817 0.9563702
vt 0.7353265 0.969239
vt 0.7331817 0.9563702
vt 0.7331817 0.969239
vt 0.7353265 0.9563702
vt 0.7246026 0.969239
vt 0.7224578 0.9563702
vt 0.7224578 0.969239
vt 0.7246026 0.9563702
vt 0.7267474 0.969239
vt 0.7246026 0.9563702
vt 0.7246026 0.969239
vt 0.7267474 0.9563702
vt 0.7288922 0.969239
vt 0.7267474 0.9563702
vt 0.7267474 0.969239
vt 0.7288922 0.9563702
vt 0.7310369 0.969239
vt 0.7288922 0.9563702
vt 0.7288922 0.969239
vt 0.7310369 0.9563702
vt 0.7222475 0.9595875
vt 0.7278198 0.969239
vt 0.7222475 0.9660219
vt 0.7333921 0.9595875
vt 0.7278198 0.9563702
vt 0.7333921 0.9660219
vt 0.7278198 0.9563702
vt 0.7333921 0.9660219
vt 0.7333921 0.9595875
vt 0.7222475 0.9660219
vt 0.7222475 0.9595875
vt 0.7278198 0.969239
vn 0 -0.3118027 -0.9501469
vn 0 -0.3118114 -0.9501439
vn 0 -0.3118114 -0.9501441
vn 0 -0.3118591 -0.9501283
vn 0 -1 0
vn 0 -1 0
vn 0 -1 0
vn 0 -1 0
vn 0 -0.3118057 0.9501459
vn 0 -0.3118591 0.9501283
vn 0 -0.3118591 0.9501283
vn 0 -0.3118057 0.9501459
vn 0 0.3118591 0.9501283
vn 0 0.3118115 0.9501439
vn 0 0.3118116 0.9501439
vn 0 0.3118027 0.9501469
vn 0 1 0
vn 0 1 0
vn 0 1 0
vn 0 1 0
vn 0 0.3118058 -0.9501459
vn 0 0.3118591 -0.9501283
vn 0 0.3118027 -0.9501469
vn 0 0.3118058 -0.9501459
vn 1 0 0
vn 1 0 0
vn 1 0 0
vn 1 0 0
vn 1 0 0
vn 1 0 0
vn -1 0 0
vn -1 0 0
vn -1 0 0
vn -1 0 0
vn -1 0 0
vn -1 0 0
vn 0 -1 0
vn 0 -1 0
vn 0 -1 0
vn 0 -1 0
vn -1 0 -2.300331E-05
vn -1 0 -2.299908E-05
vn -1 0 -2.299908E-05
vn -1 0 -2.300331E-05
vn 0 1 0
vn 0 1 0
vn 0 1 0
vn 0 1 0
vn 1 0 2.300331E-05
vn 1 0 2.300331E-05
vn 1 0 2.300331E-05
vn 1 0 2.300331E-05
vn 0 1 0
vn 0 1 0
vn 0 1 0
vn 0 1 0
vn 1 0 0
vn 1 0 0
vn 1 0 0
vn 1 0 0
vn 0 -1 0
vn 0 -1 0
vn 0 -1 0
vn 0 -1 0
vn -1 0 0
vn -1 0 0
vn -1 0 0
vn -1 0 0
vn 0 0 1
vn 0 0 1
vn 0 0 1
vn 0 0 1
vn 0 0 -1
vn 0 0 -1
vn 0 0 -1
vn 0 0 -1
vn 0 0 1
vn 0 0 1
vn 0 0 1
vn 0 0 1
vn 0 0 -1
vn 0 0 -1
vn 0 0 -1
vn 0 0 -1
vn 0 0 1
vn 0 0 1
vn 0 0 1
vn 0 0 1
vn 0 0 -1
vn 0 0 -1
vn 0 0 -1
vn 0 0 -1
vn 0 0 1
vn 0 0 1
vn 0 0 1
vn 0 0 1
vn 0 0 -1
vn 0 0 -1
vn 0 0 -1
vn 0 0 -1
vn 0 0 -1
vn 0 0 -1
vn 0 0 -1
vn 0 0 -1
vn 0.944468 0 -0.3286035
vn 0.9444717 0 -0.3285929
vn 0.9444568 0 -0.3286355
vn 0.944468 0 -0.3286035
vn 0.9444717 0 0.3285929
vn 0.9444689 0 0.3286011
vn 0.9444689 0 0.328601
vn 0.9444568 0 0.3286355
vn 0 0 1
vn 0 0 1
vn 0 0 1
vn 0 0 1
vn -0.9444577 0 0.3286332
vn -0.9444717 0 0.3285929
vn -0.9444568 0 0.3286355
vn -0.9444577 0 0.3286332
vn -0.9444465 0 -0.3286651
vn -0.9444585 0 -0.3286306
vn -0.9444585 0 -0.3286306
vn -0.9444568 0 -0.3286355
vn 0 1 0
vn 0 1 0
vn 0 1 0
vn 0 1 0
vn 0 1 0
vn 0 1 0
vn 0 -1 0
vn 0 -1 0
vn 0 -1 0
vn 0 -1 0
vn 0 -1 0
vn 0 -1 0
vn 0 -1 0
vn 0 -1 0
vn 0 -1 0
vn 0 -1 0
vn 0.9809683 -0.1941679 0
vn 0.9806724 -0.1956568 0
vn 0.9809647 -0.1941861 0
vn 0.9809647 -0.1941861 0
vn 0.9809683 0.1941679 0
vn 0.9806724 0.1956568 0
vn 0.9809683 0.1941679 0
vn 0.9806724 0.1956568 0
vn 0 1 0
vn 0 1 0
vn 0 1 0
vn 0 1 0
vn -0.9809683 0.1941679 0
vn -0.980961 0.1942043 0
vn -0.9809683 0.1941679 0
vn -0.980961 0.1942043 0
vn -0.9809683 -0.1941679 0
vn -0.980961 -0.1942043 0
vn -0.9809683 -0.1941679 0
vn -0.9809683 -0.1941679 0
vn 0 0 -1
vn 0 0 -1
vn 0 0 -1
vn 0 0 -1
vn 0 0 -1
vn 0 0 -1
vn 0 0 1
vn 0 0 1
vn 0 0 1
vn 0 0 1
vn 0 0 1
vn 0 0 1
g M79_Part03_0
f 3/3/3 2/2/2 1/1/1
f 4/4/4 1/1/1 2/2/2
f 7/7/7 6/6/6 5/5/5
f 8/8/8 5/5/5 6/6/6
f 11/11/11 10/10/10 9/9/9
f 12/12/12 9/9/9 10/10/10
f 15/15/15 14/14/14 13/13/13
f 16/16/16 13/13/13 14/14/14
f 19/19/19 18/18/18 17/17/17
f 20/20/20 17/17/17 18/18/18
f 23/23/23 22/22/22 21/21/21
f 24/24/24 21/21/21 22/22/22
f 27/27/27 26/26/26 25/25/25
f 26/26/26 28/28/28 25/25/25
f 28/28/28 29/29/29 25/25/25
f 30/30/30 28/28/28 26/26/26
f 33/33/33 32/32/32 31/31/31
f 32/32/32 34/34/34 31/31/31
f 34/34/34 35/35/35 31/31/31
f 36/36/36 34/34/34 32/32/32
f 39/39/39 38/38/38 37/37/37
f 40/40/40 37/37/37 38/38/38
f 43/43/43 42/42/42 41/41/41
f 44/44/44 41/41/41 42/42/42
f 47/47/47 46/46/46 45/45/45
f 48/48/48 45/45/45 46/46/46
f 51/51/51 50/50/50 49/49/49
f 52/52/52 49/49/49 50/50/50
f 55/55/55 54/54/54 53/53/53
f 56/56/56 53/53/53 54/54/54
f 59/59/59 58/58/58 57/57/57
f 60/60/60 57/57/57 58/58/58
f 63/63/63 62/62/62 61/61/61
f 64/64/64 61/61/61 62/62/62
f 67/67/67 66/66/66 65/65/65
f 68/68/68 65/65/65 66/66/66
f 71/71/71 70/70/70 69/69/69
f 72/72/72 69/69/69 70/70/70
f 75/75/75 74/74/74 73/73/73
f 76/76/76 73/73/73 74/74/74
f 79/79/79 78/78/78 77/77/77
f 80/80/80 77/77/77 78/78/78
f 83/83/83 82/82/82 81/81/81
f 84/84/84 81/81/81 82/82/82
f 87/87/87 86/86/86 85/85/85
f 88/88/88 85/85/85 86/86/86
f 91/91/91 90/90/90 89/89/89
f 92/92/92 89/89/89 90/90/90
f 95/95/95 94/94/94 93/93/93
f 96/96/96 93/93/93 94/94/94
f 99/99/99 98/98/98 97/97/97
f 100/100/100 97/97/97 98/98/98
f 103/103/103 102/102/102 101/101/101
f 104/104/104 101/101/101 102/102/102
f 107/107/107 106/106/106 105/105/105
f 108/108/108 105/105/105 106/106/106
f 111/111/111 110/110/110 109/109/109
f 112/112/112 109/109/109 110/110/110
f 115/115/115 114/114/114 113/113/113
f 116/116/116 113/113/113 114/114/114
f 119/119/119 118/118/118 117/117/117
f 120/120/120 117/117/117 118/118/118
f 123/123/123 122/122/122 121/121/121
f 124/124/124 121/121/121 122/122/122
f 127/127/127 126/126/126 125/125/125
f 126/126/126 128/128/128 125/125/125
f 128/128/128 129/129/129 125/125/125
f 130/130/130 128/128/128 126/126/126
f 133/133/133 132/132/132 131/131/131
f 132/132/132 134/134/134 131/131/131
f 134/134/134 135/135/135 131/131/131
f 136/136/136 134/134/134 132/132/132
f 139/139/139 138/138/138 137/137/137
f 140/140/140 137/137/137 138/138/138
f 143/143/143 142/142/142 141/141/141
f 144/144/144 141/141/141 142/142/142
f 147/147/147 146/146/146 145/145/145
f 148/148/148 145/145/145 146/146/146
f 151/151/151 150/150/150 149/149/149
f 152/152/152 149/149/149 150/150/150
f 155/155/155 154/154/154 153/153/153
f 156/156/156 153/153/153 154/154/154
f 159/159/159 158/158/158 157/157/157
f 160/160/160 157/157/157 158/158/158
f 163/163/163 162/162/162 161/161/161
f 162/162/162 164/164/164 161/161/161
f 164/164/164 165/165/165 161/161/161
f 166/166/166 164/164/164 162/162/162
f 169/169/169 168/168/168 167/167/167
f 168/168/168 170/170/170 167/167/167
f 170/170/170 171/171/171 167/167/167
f 172/172/172 170/170/170 168/168/168
