g M79_Part06
v 0.001144965 -0.02674456 -0.005301929
v 0.001144965 -0.008033402 -0.003034104
v -0.001144964 -0.008033402 -0.003034105
v -0.001144964 -0.02674456 -0.00530193
v -0.001144965 -0.007730434 0.002039986
v 0.001144964 -0.007730434 0.002039987
v 0.001144965 -0.02624538 -0.001927475
v -0.001144964 -0.02624538 -0.001927475
v -0.001144964 -0.02674456 -0.00530193
v -0.001144964 -0.008033402 -0.003034105
v -0.001144965 -0.007730434 0.002039986
v -0.001144964 -0.02624538 -0.001927475
v -0.001144965 -0.04149937 0.00121893
v -0.001144965 -0.04086568 0.003428308
v -0.001144965 -0.04149937 0.00121893
v -0.001144965 -0.04086568 0.003428308
v 0.001144964 -0.04086568 0.003428309
v 0.001144964 -0.04149937 0.001218931
v 0.001144965 -0.02674456 -0.005301929
v 0.001144964 -0.04149937 0.001218931
v 0.001144964 -0.04086568 0.003428309
v 0.001144965 -0.02624538 -0.001927475
v 0.001144965 -0.008033402 -0.003034104
v 0.001144964 -0.007730434 0.002039987
v 0.001144964 -0.04149937 0.001218931
v 0.001144965 -0.02674456 -0.005301929
v -0.001144964 -0.02674456 -0.00530193
v -0.001144965 -0.04149937 0.00121893
v -0.001144965 -0.04086568 0.003428308
v -0.001144964 -0.02624538 -0.001927475
v 0.001144965 -0.02624538 -0.001927475
v 0.001144964 -0.04086568 0.003428309
vt 0.7342541 0.9628047
vt 0.7342541 0.9563702
vt 0.7213854 0.9563702
vt 0.7213854 0.9628047
vt 0.7342541 0.9563702
vt 0.7213854 0.9563702
vt 0.7213854 0.9628047
vt 0.7342541 0.9628047
vt 0.7278198 0.9563702
vt 0.7213854 0.9563702
vt 0.7213854 0.969239
vt 0.7278198 0.969239
vt 0.7342541 0.9563702
vt 0.7342541 0.969239
vt 0.7213854 0.9563702
vt 0.7213854 0.969239
vt 0.7342541 0.969239
vt 0.7342541 0.9563702
vt 0.7278198 0.9563702
vt 0.7213854 0.9563702
vt 0.7213854 0.969239
vt 0.7278198 0.969239
vt 0.7342541 0.9563702
vt 0.7342541 0.969239
vt 0.7342541 0.969239
vt 0.7342541 0.9628047
vt 0.7213854 0.9628047
vt 0.7213854 0.969239
vt 0.7342541 0.969239
vt 0.7342541 0.9628047
vt 0.7213854 0.9628047
vt 0.7213854 0.969239
vn 0 0.1211063 -0.9926395
vn 0 0.1196997 -0.9928101
vn 0 0.1196997 -0.9928101
vn 0 0.1211063 -0.9926395
vn 0 -0.2086262 0.9779954
vn 0 -0.2086753 0.9779849
vn 0 -0.2095455 0.9777989
vn 0 -0.2095701 0.9777936
vn -1 0 0
vn -1 0 0
vn -1 0 0
vn -1 0 0
vn -1 0 0
vn -1 0 0
vn 0 -0.9612605 0.2756415
vn 0 -0.9612605 0.2756415
vn 0 -0.9612605 0.2756415
vn 0 -0.9612605 0.2756415
vn 1 0 0
vn 1 0 0
vn 1 0 0
vn 1 0 0
vn 1 0 0
vn 1 0 0
vn 0 -0.4038177 -0.9148395
vn 0 -0.4038177 -0.9148395
vn 0 -0.4038177 -0.9148395
vn 0 -0.4038177 -0.9148395
vn 0 0.342438 0.9395403
vn 0 0.3441346 0.9389203
vn 0 0.3440958 0.9389346
vn 0 0.3423607 0.9395685
g M79_Part06_0
f 3/3/3 2/2/2 1/1/1
f 4/4/4 3/3/3 1/1/1
f 7/7/7 6/6/6 5/5/5
f 8/8/8 7/7/7 5/5/5
f 11/11/11 10/10/10 9/9/9
f 12/12/12 11/11/11 9/9/9
f 12/12/12 9/9/9 13/13/13
f 14/14/14 12/12/12 13/13/13
f 17/17/17 16/16/16 15/15/15
f 18/18/18 17/17/17 15/15/15
f 21/21/21 20/20/20 19/19/19
f 22/22/22 21/21/21 19/19/19
f 22/22/22 19/19/19 23/23/23
f 24/24/24 22/22/22 23/23/23
f 27/27/27 26/26/26 25/25/25
f 28/28/28 27/27/27 25/25/25
f 31/31/31 30/30/30 29/29/29
f 32/32/32 31/31/31 29/29/29
