g magwell
v -0.01830655 -0.1008991 -0.1751594
v -0.01830655 -0.01924191 -0.1791198
v 0.01830655 -0.01924191 -0.1791198
v 0.01830655 -0.1008991 -0.1751594
v 0.01830655 -0.1008991 -0.1751594
v 0.01830655 -0.01924191 -0.1791198
v 0.01696217 -0.02522492 -0.2296014
v 0.01696208 -0.1028276 -0.2249492
v -0.01696208 -0.1028276 -0.2249492
v -0.01696217 -0.02522492 -0.2296014
v -0.01830655 -0.01924191 -0.1791198
v -0.01830655 -0.1008991 -0.1751594
v -0.01696208 -0.1028276 -0.2249492
v -0.01830655 -0.1008991 -0.1751594
v 0.01830655 -0.1008991 -0.1751594
v 0.01696208 -0.1028276 -0.2249492
v 0.009621839 -0.1079613 -0.2282101
v -0.009621839 -0.1079613 -0.2282101
v 0.009621841 -0.1157991 -0.2316143
v -0.009621841 -0.1157991 -0.2316143
v 0.009621841 -0.1157991 -0.2316143
v 0.00962195 -0.05823948 -0.292448
v -0.00962195 -0.05823948 -0.292448
v -0.009621841 -0.1157991 -0.2316143
v 0.00962195 -0.02608232 -0.2337871
v 0.009621839 -0.1079613 -0.2282101
v 0.01696208 -0.1028276 -0.2249492
v 0.01696217 -0.02522492 -0.2296014
v -0.01696217 -0.02522492 -0.2296014
v -0.01696208 -0.1028276 -0.2249492
v -0.009621839 -0.1079613 -0.2282101
v -0.00962195 -0.02608232 -0.2337871
v 0.009621841 -0.1157991 -0.2316143
v 0.00962195 -0.03343109 -0.2569304
v 0.00962195 -0.05823948 -0.292448
v 0.009621839 -0.1079613 -0.2282101
v 0.00962195 -0.02608232 -0.2337871
v -0.009621839 -0.1079613 -0.2282101
v -0.00962195 -0.03343109 -0.2569304
v -0.00962195 -0.02608232 -0.2337871
v -0.009621841 -0.1157991 -0.2316143
v -0.00962195 -0.05823948 -0.292448
v 0.01032126 -0.03942978 -0.2533861
v 0.0103211 -0.09032183 -0.2484084
v 0.01032112 -0.08550151 -0.2466828
v 0.01032126 -0.0595617 -0.2862925
v 0.01032112 -0.09101527 -0.2531269
v -0.01032112 -0.08550151 -0.2466828
v -0.0103211 -0.09032183 -0.2484084
v -0.01032126 -0.03942978 -0.2533861
v -0.01032126 -0.0595617 -0.2862925
v -0.01032112 -0.09101527 -0.2531269
v -0.01573938 -0.1025781 -0.2181783
v -0.01552836 -0.1010695 -0.1795599
v 0.01552836 -0.1010695 -0.1795599
v 0.01573938 -0.1025781 -0.2181783
vt 0.201881 0.9675829
vt 0.202127 0.9728479
vt 0.201512 0.9728459
vt 0.201266 0.9675809
vt 0.201266 0.9675809
vt 0.201512 0.9728459
vt 0.20464 0.9724599
vt 0.204352 0.9674559
vt 0.204967 0.9674579
vt 0.205255 0.9724609
vt 0.202127 0.9728479
vt 0.201881 0.9675829
vt 0.204967 0.9674579
vt 0.201881 0.9675829
vt 0.201266 0.9675809
vt 0.204352 0.9674559
vt 0.204688 0.9671249
vt 0.205034 0.9671259
vt 0.204899 0.9666199
vt 0.205245 0.9666209
vt 0.204899 0.9666199
vt 0.208669 0.9703299
vt 0.209015 0.9703309
vt 0.205245 0.9666209
vt 0.205034 0.9724049
vt 0.204688 0.9671249
vt 0.204352 0.9674559
vt 0.20464 0.9724599
vt 0.205255 0.9724609
vt 0.204967 0.9674579
vt 0.205034 0.9671259
vt 0.20538 0.9724059
vt 0.204899 0.9666199
vt 0.206468 0.9721389
vt 0.208669 0.9703299
vt 0.204688 0.9671249
vt 0.205034 0.9724049
vt 0.205034 0.9671259
vt 0.206814 0.9721399
vt 0.20538 0.9724059
vt 0.205245 0.9666209
vt 0.209015 0.9703309
vt 0.0809853 0.9391608
vt 0.0812756 0.9359445
vt 0.0813762 0.9362282
vt 0.0790664 0.9378154
vt 0.0810004 0.9359092
vt 0.0816308 0.9363484
vt 0.0815301 0.9360647
vt 0.0812399 0.939281
vt 0.0793209 0.9379356
vt 0.081255 0.9360294
vt 0.300505 0.9836811
vt 0.299846 0.9837063
vt 0.299867 0.9840088
vt 0.300524 0.9839614
vn 0 0.0484436 0.9988258
vn 0 0.0484436 0.9988258
vn 0 0.0484436 0.9988258
vn 0 0.0484436 0.9988258
vn 0.9996425 -0.00144975 -0.02669996
vn 0.9996425 -0.00144975 -0.02669996
vn 0.9996425 -0.00144975 -0.02669996
vn 0.9996425 -0.00144975 -0.02669996
vn -0.9996425 -0.001449751 -0.02669996
vn -0.9996425 -0.001449751 -0.02669996
vn -0.9996425 -0.001449751 -0.02669996
vn -0.9996425 -0.001449751 -0.02669996
vn 0 -0.8669217 0.4984444
vn 0 -0.9992507 0.03870348
vn 0 -0.9992507 0.03870348
vn 0 -0.8669217 0.4984444
vn 0 -0.4687033 0.8833557
vn 0 -0.4687033 0.8833557
vn 0 -0.3983727 0.9172236
vn 0 -0.3983727 0.9172236
vn 0 -0.7263836 -0.6872895
vn 0 -0.7263836 -0.6872895
vn 0 -0.7263836 -0.6872895
vn 0 -0.7263836 -0.6872895
vn 0.4701714 -0.0564596 -0.8807673
vn 0.4701714 -0.0564596 -0.8807673
vn 0.4701714 -0.0564596 -0.8807673
vn 0.4701714 -0.0564596 -0.8807673
vn -0.4701714 -0.05645959 -0.8807673
vn -0.4701714 -0.05645959 -0.8807673
vn -0.4701714 -0.05645959 -0.8807673
vn -0.4701714 -0.05645959 -0.8807673
vn 1 -8.855744E-07 1.427293E-06
vn 1 -1.032163E-06 1.091809E-06
vn 1 -1.090211E-06 7.614925E-07
vn 1 -1.00314E-06 1.256967E-06
vn 1 -1.325342E-06 4.208397E-07
vn -1 -1.00314E-06 1.256967E-06
vn -1 -1.032163E-06 1.091809E-06
vn -1 -1.325342E-06 4.208398E-07
vn -1 -8.855744E-07 1.427293E-06
vn -1 -1.090211E-06 7.614926E-07
vn 1 -2.98366E-06 3.888137E-07
vn 1 -2.258463E-06 1.393579E-06
vn 1 -3.116237E-06 -9.666481E-07
vn 1 -1.829576E-06 2.573692E-06
vn 1 -8.080686E-07 3.40311E-06
vn -1 -3.116238E-06 -9.666495E-07
vn -1 -2.258463E-06 1.393578E-06
vn -1 -2.98366E-06 3.88813E-07
vn -1 -1.829576E-06 2.573692E-06
vn -1 -8.080691E-07 3.403109E-06
vn 0 -0.9992379 0.039035
vn 0 -0.9992379 0.039035
vn 0 -0.9992379 0.039035
vn 0 -0.9992379 0.039035
g magwell_0
f 3/3/3 2/2/2 1/1/1
f 4/4/4 3/3/3 1/1/1
f 7/7/7 6/6/6 5/5/5
f 8/8/8 7/7/7 5/5/5
f 11/11/11 10/10/10 9/9/9
f 12/12/12 11/11/11 9/9/9
f 15/15/15 14/14/14 13/13/13
f 16/16/16 15/15/15 13/13/13
f 17/17/17 16/16/16 13/13/13
f 18/18/18 17/17/17 13/13/13
f 19/19/19 17/17/17 18/18/18
f 20/20/20 19/19/19 18/18/18
f 23/23/23 22/22/22 21/21/21
f 24/24/24 23/23/23 21/21/21
f 27/27/27 26/26/26 25/25/25
f 28/28/28 27/27/27 25/25/25
f 31/31/31 30/30/30 29/29/29
f 32/32/32 31/31/31 29/29/29
f 35/35/35 34/34/34 33/33/33
f 33/33/33 34/34/34 36/36/36
f 36/36/36 34/34/34 37/37/37
f 40/40/40 39/39/39 38/38/38
f 38/38/38 39/39/39 41/41/41
f 41/41/41 39/39/39 42/42/42
f 45/45/45 44/44/44 43/43/43
f 43/43/43 44/44/44 46/46/46
f 46/46/46 44/44/44 47/47/47
f 50/50/50 49/49/49 48/48/48
f 51/51/51 49/49/49 50/50/50
f 52/52/52 49/49/49 51/51/51
f 55/55/55 54/54/54 53/53/53
f 56/56/56 55/55/55 53/53/53
