g Minigun_Part05
v 0.004491298 -0.005001332 -0.03922554
v 0.004491297 0.01946221 -0.04023938
v -0.004491299 0.01946221 -0.04023938
v -0.004491298 -0.005001332 -0.03922554
v 0.004491298 -0.008053871 0.0001370449
v 0.004491298 0.009622995 0.004323266
v 0.004491297 0.01831864 -0.01970406
v 0.004491298 -0.001601382 -0.02177163
v 0.004491298 -0.005001332 -0.03922554
v 0.004491298 -0.001601382 -0.02177163
v 0.004491297 0.01946221 -0.04023938
v -0.004491299 0.01831864 -0.01970406
v -0.004491298 0.009622995 0.004323266
v -0.004491297 -0.008053871 0.0001370449
v -0.004491298 -0.001601397 -0.02177163
v -0.004491298 -0.001601397 -0.02177163
v -0.004491298 -0.005001332 -0.03922554
v -0.004491299 0.01946221 -0.04023938
v -0.004491298 -0.001601397 -0.02177163
v -0.004491297 -0.008053871 0.0001370449
v 0.004491298 -0.008053871 0.0001370449
v 0.004491298 -0.001601382 -0.02177163
v -0.004491298 -0.005001332 -0.03922554
v -0.004491298 -0.001601397 -0.02177163
v 0.004491298 -0.001601382 -0.02177163
v 0.004491298 -0.005001332 -0.03922554
vt 0.1846296 0.9786426
vt 0.1714877 0.9786426
vt 0.1714877 0.9917845
vt 0.1846296 0.9917845
vt 0.1714877 0.9830233
vt 0.1846296 0.9830233
vt 0.1846296 0.9808329
vt 0.1714877 0.9808329
vt 0.1714877 0.9786426
vt 0.1714877 0.9808329
vt 0.1846296 0.9786426
vt 0.1714877 0.9808329
vt 0.1714877 0.9830233
vt 0.1846296 0.9830233
vt 0.1846296 0.9808329
vt 0.1846296 0.9808329
vt 0.1846296 0.9786426
vt 0.1714877 0.9786426
vt 0.1714877 0.9808329
vt 0.1714877 0.9830233
vt 0.1846296 0.9830233
vt 0.1846296 0.9808329
vt 0.1714877 0.9786426
vt 0.1714877 0.9808329
vt 0.1846296 0.9808329
vt 0.1846296 0.9786426
vn 0 -0.04140725 -0.9991424
vn 0 -0.04140725 -0.9991424
vn 0 -0.04140725 -0.9991424
vn 0 -0.04140725 -0.9991424
vn 1 0 0
vn 1 0 0
vn 1 0 0
vn 1 0 0
vn 1 0 0
vn 1 0 0
vn 1 0 0
vn -1 0 0
vn -1 0 0
vn -1 0 0
vn -1 0 0
vn -1 0 0
vn -1 0 0
vn -1 0 0
vn 0 -0.9592617 -0.2825191
vn 0 -0.9592617 -0.2825191
vn 0 -0.9592617 -0.2825191
vn 0 -0.9592617 -0.2825191
vn 0 -0.9815508 0.1912016
vn 0 -0.9815508 0.1912016
vn 0 -0.9815508 0.1912016
vn 0 -0.9815508 0.1912016
g Minigun_Part05_0
f 3/3/3 2/2/2 1/1/1
f 4/4/4 3/3/3 1/1/1
f 7/7/7 6/6/6 5/5/5
f 8/8/8 7/7/7 5/5/5
f 7/7/7 10/10/10 9/9/9
f 11/11/11 7/7/7 9/9/9
f 14/14/14 13/13/13 12/12/12
f 15/15/15 14/14/14 12/12/12
f 17/17/17 16/16/16 12/12/12
f 18/18/18 17/17/17 12/12/12
f 21/21/21 20/20/20 19/19/19
f 22/22/22 21/21/21 19/19/19
f 25/25/25 24/24/24 23/23/23
f 26/26/26 25/25/25 23/23/23
