g muzzlebrake
v -0.008525401 0.05789106 0.2613145
v 1.33472E-08 0.06281324 0.2203352
v -0.004922149 0.05428781 0.2613145
v 1.33472E-08 0.06281324 0.2203352
v -0.009844286 0.06281319 0.2613145
v -0.008525397 0.06773537 0.2613145
v -0.004922154 0.0713386 0.2613145
v 1.34376E-08 0.07265754 0.2613145
v 1.34376E-08 0.07620185 0.2203352
v 0.006694297 0.07440804 0.2613145
v 1.34376E-08 0.07620185 0.2613145
v 0.006694297 0.07440804 0.2203352
v 0.01159486 0.06950753 0.2613145
v 0.01159486 0.06950753 0.2203352
v 0.01338859 0.06281319 0.2613145
v 0.01338859 0.06281321 0.2203352
v 0.01159487 0.05611898 0.2613145
v 0.01159487 0.05611898 0.2203352
v 0.0066943 0.05121829 0.2613145
v 0.0066943 0.05121829 0.2203352
v 1.34376E-08 0.04942464 0.2613145
v 1.34376E-08 0.04942464 0.2203352
v -0.006694298 0.07440804 0.2203352
v 1.34376E-08 0.07620185 0.2203352
v 1.34376E-08 0.07620185 0.2613145
v -0.006694298 0.07440804 0.2613145
v -0.01159486 0.06950753 0.2203352
v -0.01159486 0.06950753 0.2613145
v -0.01338859 0.06281321 0.2203352
v -0.01338859 0.06281319 0.2613145
v -0.01159487 0.05611898 0.2203352
v -0.01159487 0.05611898 0.2613145
v -0.006694301 0.05121829 0.2203352
v -0.006694301 0.05121829 0.2613145
v 1.34376E-08 0.04942464 0.2203352
v 1.34376E-08 0.04942464 0.2613145
v 0.005241931 0.07189251 0.2203352
v 1.34376E-08 0.07329711 0.2203352
v 1.34376E-08 0.07329711 0.2167772
v 0.005241931 0.07189251 0.2167772
v 0.009079295 0.06805511 0.2203352
v 0.009079295 0.06805511 0.2167772
v 0.01048385 0.06281321 0.2203352
v 0.01048385 0.06281321 0.2167772
v 0.009079296 0.05757123 0.2203352
v 0.009079296 0.05757123 0.2167772
v 0.005241937 0.0537339 0.2203352
v 0.005241937 0.0537339 0.2167772
v 1.34376E-08 0.05232945 0.2203352
v 1.34376E-08 0.05232945 0.2167772
v 1.34376E-08 0.07329711 0.2203352
v -0.005241932 0.07189251 0.2167772
v 1.34376E-08 0.07329711 0.2167772
v -0.005241932 0.07189251 0.2203352
v -0.009079295 0.06805511 0.2167772
v -0.009079295 0.06805511 0.2203352
v -0.01048385 0.06281321 0.2167772
v -0.01048385 0.06281321 0.2203352
v -0.009079296 0.05757123 0.2167772
v -0.009079296 0.05757123 0.2203352
v -0.005241938 0.0537339 0.2167772
v -0.005241938 0.0537339 0.2203352
v 1.34376E-08 0.05232945 0.2167772
v 1.34376E-08 0.05232945 0.2203352
v 1.33472E-08 0.06281324 0.2203352
v 1.34376E-08 0.05296898 0.2613145
v -0.004922149 0.05428781 0.2613145
v 0.004922148 0.05428781 0.2613145
v 0.008525401 0.05789106 0.2613145
v 0.009844285 0.06281319 0.2613145
v 1.33472E-08 0.06281324 0.2203352
v 0.008525397 0.06773537 0.2613145
v 0.004922154 0.0713386 0.2613145
v 1.34376E-08 0.07265754 0.2613145
v 0.01365228 0.06281319 0.2547804
v 0.01275541 0.06559634 0.2535187
v 0.01275541 0.06616037 0.2517647
v 0.01365228 0.0628132 0.2517647
v 0.01275542 0.06003013 0.2535187
v 0.01275541 0.06616037 0.2408248
v 0.01275542 0.05946609 0.2517647
v 0.01365228 0.0628132 0.2408248
v 0.01275541 0.06616037 0.229882
v 0.01275542 0.05946609 0.2408248
v 0.01365228 0.06281321 0.229882
v 0.01275541 0.06559635 0.228131
v 0.01275542 0.05946609 0.229882
v 0.01365228 0.06281321 0.2268693
v 0.01275542 0.06003013 0.228131
v -0.01275541 0.06616037 0.2517647
v -0.01275541 0.06559634 0.2535187
v -0.01365228 0.06281319 0.2547804
v -0.01365228 0.0628132 0.2517647
v -0.01275542 0.06003013 0.2535187
v -0.01275541 0.06616037 0.2408248
v -0.01275542 0.05946609 0.2517647
v -0.01365228 0.0628132 0.2408248
v -0.01275541 0.06616037 0.229882
v -0.01275542 0.05946609 0.2408248
v -0.01365228 0.06281321 0.229882
v -0.01275541 0.06559635 0.228131
v -0.01275542 0.05946609 0.229882
v -0.01365228 0.06281321 0.2268693
v -0.01275542 0.06003013 0.228131
v 3.37352E-08 0.0764655 0.2547804
v -0.002783116 0.07556864 0.2535187
v -0.003347134 0.07556864 0.2517647
v 2.99208E-08 0.0764655 0.2517647
v 0.002783104 0.07556864 0.2535187
v -0.003347142 0.07556864 0.2408248
v 0.003347141 0.07556864 0.2517647
v 2.61064E-08 0.0764655 0.2408248
v -0.003347142 0.07556864 0.229882
v 0.003347137 0.07556864 0.2408248
v 1.84768E-08 0.0764655 0.229882
v -0.002783123 0.07556864 0.228131
v 0.003347133 0.07556864 0.229882
v 1.84768E-08 0.0764655 0.2268693
v 0.002783096 0.07556864 0.228131
v -0.003347133 0.05005781 0.2517647
v -0.002783115 0.05005781 0.2535187
v 3.49288E-08 0.04916095 0.2547804
v 3.11144E-08 0.04916095 0.2517647
v 0.002783104 0.05005781 0.2535187
v -0.003347141 0.05005781 0.2408248
v 0.003347142 0.05005781 0.2517647
v 2.73E-08 0.04916095 0.2408248
v -0.003347141 0.05005781 0.229882
v 0.003347138 0.05005781 0.2408248
v 1.96704E-08 0.04916095 0.229882
v -0.002783123 0.05005781 0.228131
v 0.003347134 0.05005781 0.229882
v 1.96704E-08 0.04916095 0.2268693
v 0.002783097 0.05005781 0.228131
v -0.006694301 0.05121829 0.2203352
v -0.009079296 0.05757123 0.2203352
v -0.01159487 0.05611898 0.2203352
v -0.005241938 0.0537339 0.2203352
v -0.01048385 0.06281321 0.2203352
v 1.34376E-08 0.04942464 0.2203352
v -0.01338859 0.06281321 0.2203352
v 1.34376E-08 0.05232945 0.2203352
v -0.009079295 0.06805511 0.2203352
v 0.0066943 0.05121829 0.2203352
v -0.01159486 0.06950753 0.2203352
v 0.005241937 0.0537339 0.2203352
v -0.005241932 0.07189251 0.2203352
v 0.01159487 0.05611898 0.2203352
v -0.006694298 0.07440804 0.2203352
v 0.009079296 0.05757123 0.2203352
v 1.34376E-08 0.07329711 0.2203352
v 0.01338859 0.06281321 0.2203352
v 1.34376E-08 0.07620185 0.2203352
v 0.01048385 0.06281321 0.2203352
v 0.005241931 0.07189251 0.2203352
v 0.01159486 0.06950753 0.2203352
v 0.006694297 0.07440804 0.2203352
v 0.009079295 0.06805511 0.2203352
v -0.006694301 0.05121829 0.2613145
v -0.008525401 0.05789106 0.2613145
v -0.004922149 0.05428781 0.2613145
v -0.01159487 0.05611898 0.2613145
v 1.34376E-08 0.04942464 0.2613145
v -0.009844286 0.06281319 0.2613145
v 1.34376E-08 0.05296898 0.2613145
v -0.01338859 0.06281319 0.2613145
v 0.0066943 0.05121829 0.2613145
v -0.008525397 0.06773537 0.2613145
v 0.004922148 0.05428781 0.2613145
v -0.01159486 0.06950753 0.2613145
v 0.01159487 0.05611898 0.2613145
v -0.004922154 0.0713386 0.2613145
v 0.008525401 0.05789106 0.2613145
v -0.006694298 0.07440804 0.2613145
v 0.01338859 0.06281319 0.2613145
v 1.34376E-08 0.07265754 0.2613145
v 0.009844285 0.06281319 0.2613145
v 1.34376E-08 0.07620185 0.2613145
v 0.01159486 0.06950753 0.2613145
v 0.004922154 0.0713386 0.2613145
v 0.008525397 0.06773537 0.2613145
v 0.006694297 0.07440804 0.2613145
vt 0.303193 0.9781408
vt 0.303883 0.9785388
vt 0.303485 0.9778498
vt 0.303883 0.9785388
vt 0.303087 0.9785388
vt 0.303193 0.9789378
vt 0.303485 0.9792288
vt 0.303883 0.9793358
vt 0.258821 0.9913216
vt 0.254744 0.9912677
vt 0.254641 0.9913842
vt 0.258924 0.9912051
vt 0.25482 0.9908141
vt 0.259 0.9907515
vt 0.254847 0.990145
vt 0.259028 0.9900824
vt 0.25482 0.9894396
vt 0.259 0.9893771
vt 0.254744 0.988887
vt 0.258924 0.9888244
vt 0.254641 0.9886352
vt 0.258821 0.9885727
vt 0.258718 0.9910699
vt 0.258821 0.9913216
vt 0.254641 0.9913842
vt 0.254538 0.9911324
vt 0.258642 0.9905173
vt 0.254462 0.9905798
vt 0.258615 0.9898119
vt 0.254434 0.9898745
vt 0.258642 0.9891428
vt 0.254462 0.9892053
vt 0.258718 0.9886892
vt 0.254538 0.9887518
vt 0.258821 0.9885727
vt 0.254641 0.9886352
vt 0.256351 0.9810105
vt 0.256351 0.9817545
vt 0.258237 0.9817545
vt 0.258237 0.9810105
vt 0.256351 0.9789755
vt 0.258237 0.9789755
vt 0.256351 0.9761965
vt 0.258237 0.9761965
vt 0.256351 0.9734175
vt 0.258237 0.9734175
vt 0.256351 0.9713835
vt 0.258237 0.9713835
vt 0.256351 0.9706385
vt 0.258237 0.9706385
vt 0.256351 0.9817545
vt 0.258237 0.9810105
vt 0.258237 0.9817545
vt 0.256351 0.9810105
vt 0.258237 0.9789755
vt 0.256351 0.9789755
vt 0.258237 0.9761965
vt 0.256351 0.9761965
vt 0.258237 0.9734175
vt 0.256351 0.9734175
vt 0.258237 0.9713835
vt 0.256351 0.9713835
vt 0.258237 0.9706385
vt 0.256351 0.9706385
vt 0.303883 0.9785388
vt 0.303883 0.9777428
vt 0.303485 0.9778498
vt 0.304281 0.9778498
vt 0.304573 0.9781408
vt 0.304679 0.9785388
vt 0.303883 0.9785388
vt 0.304573 0.9789378
vt 0.304281 0.9792288
vt 0.303883 0.9793358
vt 0.300842 0.9790544
vt 0.301024 0.979492
vt 0.301291 0.9795796
vt 0.301301 0.9790577
vt 0.301024 0.978647
vt 0.302956 0.9795914
vt 0.301291 0.9785633
vt 0.302966 0.9790696
vt 0.304622 0.9796033
vt 0.302956 0.9785752
vt 0.304632 0.9790814
vt 0.304888 0.9795196
vt 0.304622 0.978587
vt 0.30509 0.9790847
vt 0.304888 0.9786746
vt 0.301291 0.9795796
vt 0.301024 0.979492
vt 0.300842 0.9790544
vt 0.301301 0.9790577
vt 0.301024 0.978647
vt 0.302956 0.9795914
vt 0.301291 0.9785633
vt 0.302966 0.9790696
vt 0.304622 0.9796033
vt 0.302956 0.9785752
vt 0.304632 0.9790814
vt 0.304888 0.9795196
vt 0.304622 0.978587
vt 0.30509 0.9790847
vt 0.304888 0.9786746
vt 0.300842 0.9790544
vt 0.301024 0.979492
vt 0.301291 0.9795796
vt 0.301301 0.9790577
vt 0.301024 0.978647
vt 0.302956 0.9795914
vt 0.301291 0.9785633
vt 0.302966 0.9790696
vt 0.304622 0.9796033
vt 0.302956 0.9785752
vt 0.304632 0.9790814
vt 0.304888 0.9795196
vt 0.304622 0.978587
vt 0.30509 0.9790847
vt 0.304888 0.9786746
vt 0.301291 0.9795796
vt 0.301024 0.979492
vt 0.300842 0.9790544
vt 0.301301 0.9790577
vt 0.301024 0.978647
vt 0.302956 0.9795914
vt 0.301291 0.9785633
vt 0.302966 0.9790696
vt 0.304622 0.9796033
vt 0.302956 0.9785752
vt 0.304632 0.9790814
vt 0.304888 0.9795196
vt 0.304622 0.978587
vt 0.30509 0.9790847
vt 0.304888 0.9786746
vt 0.258718 0.9886892
vt 0.258681 0.9893173
vt 0.258642 0.9891428
vt 0.25874 0.9889621
vt 0.258659 0.9898412
vt 0.258821 0.9885727
vt 0.258615 0.9898119
vt 0.258821 0.9888709
vt 0.258681 0.9903936
vt 0.258924 0.9888244
vt 0.258642 0.9905173
vt 0.258902 0.989068
vt 0.25874 0.9908263
vt 0.259 0.9893771
vt 0.258718 0.9910699
vt 0.258961 0.9895007
vt 0.258821 0.9910234
vt 0.259028 0.9900824
vt 0.258821 0.9913216
vt 0.258983 0.9900531
vt 0.258902 0.9909322
vt 0.259 0.9907515
vt 0.258924 0.9912051
vt 0.258961 0.990577
vt 0.254538 0.9887518
vt 0.254509 0.9894183
vt 0.254565 0.9890848
vt 0.254462 0.9892053
vt 0.254641 0.9886352
vt 0.254489 0.9899103
vt 0.254641 0.9889991
vt 0.254434 0.9898745
vt 0.254744 0.988887
vt 0.254509 0.9904289
vt 0.254717 0.9891842
vt 0.254462 0.9905798
vt 0.25482 0.9894396
vt 0.254565 0.9908352
vt 0.254772 0.9895906
vt 0.254538 0.9911324
vt 0.254847 0.990145
vt 0.254641 0.9910204
vt 0.254793 0.9901092
vt 0.254641 0.9913842
vt 0.25482 0.9908141
vt 0.254717 0.9909347
vt 0.254772 0.9906012
vt 0.254744 0.9912677
vn 0.8420683 0.4861694 0.2335816
vn 0.6888053 0.6888069 0.226036
vn 0.4861638 0.8420715 0.2335816
vn 0.8345154 -0.481806 0.2672961
vn 0.9723374 6.621398E-07 0.2335812
vn 0.8420684 -0.4861694 0.233581
vn 0.4861717 -0.8420673 0.2335804
vn -6.621415E-07 -0.9723372 0.2335813
vn 5.245133E-07 1 0
vn 0.5000026 0.8660239 0
vn 5.245133E-07 1 0
vn 0.5000026 0.8660239 0
vn 0.8660244 0.5000016 0
vn 0.8660244 0.5000016 0
vn 1 -1.619816E-06 0
vn 1 -1.619816E-06 0
vn 0.8660281 -0.4999953 0
vn 0.8660281 -0.4999953 0
vn 0.5000004 -0.8660251 0
vn 0.5000004 -0.8660251 0
vn 5.399369E-07 -1 0
vn 5.399369E-07 -1 0
vn -0.5000021 0.8660242 0
vn 5.245133E-07 1 0
vn 5.245133E-07 1 0
vn -0.5000021 0.8660242 0
vn -0.8660244 0.5000018 0
vn -0.8660244 0.5000018 0
vn -1 -1.635243E-06 0
vn -1 -1.635243E-06 0
vn -0.8660281 -0.4999955 0
vn -0.8660281 -0.4999955 0
vn -0.5000001 -0.8660253 0
vn -0.5000001 -0.8660253 0
vn 5.399369E-07 -1 0
vn 5.399369E-07 -1 0
vn 0.5000049 0.8660226 0
vn 6.633542E-07 1 0
vn 6.633542E-07 1 0
vn 0.5000049 0.8660226 0
vn 0.8660269 0.4999974 0
vn 0.8660269 0.4999974 0
vn 1 1.88207E-06 0
vn 1 1.88207E-06 0
vn 0.866026 -0.4999989 0
vn 0.866026 -0.4999989 0
vn 0.4999894 -0.8660315 0
vn 0.4999894 -0.8660315 0
vn 6.633492E-07 -1 0
vn 6.633492E-07 -1 0
vn 6.633542E-07 1 0
vn -0.5000043 0.8660229 0
vn 6.633542E-07 1 0
vn -0.5000043 0.8660229 0
vn -0.8660269 0.4999975 0
vn -0.8660269 0.4999975 0
vn -1 1.897497E-06 0
vn -1 1.897497E-06 0
vn -0.866026 -0.4999991 0
vn -0.866026 -0.4999991 0
vn -0.4999889 -0.8660318 0
vn -0.4999889 -0.8660318 0
vn 6.633492E-07 -1 0
vn 6.633492E-07 -1 0
vn -0.4818065 0.834515 0.267296
vn -6.929353E-07 0.9723374 0.2335803
vn 0.4861638 0.8420715 0.2335816
vn -0.4861644 0.8420712 0.2335812
vn -0.8420684 0.4861694 0.2335811
vn -0.9723374 6.775383E-07 0.2335806
vn -0.6852159 -0.685212 0.2469086
vn -0.8420686 -0.4861693 0.2335805
vn -0.4861723 -0.8420669 0.2335801
vn -6.621415E-07 -0.9723372 0.2335813
vn 0.9990627 -2.640888E-06 0.04328553
vn 0.9583235 0.2826523 0.04151971
vn 0.9624076 0.2708145 0.02076601
vn 0.9997672 -2.175525E-06 0.02157249
vn 0.9583219 -0.2826574 0.04152113
vn 0.9659262 0.2588177 1.37263E-07
vn 0.9624063 -0.2708186 0.02076669
vn 1 -1.581249E-06 0
vn 0.9624067 0.2708151 -0.02080011
vn 0.9659254 -0.2588208 0
vn 0.9997665 -1.711002E-06 -0.02160816
vn 0.9583203 0.2826527 -0.04158814
vn 0.9624057 -0.2708184 -0.02080126
vn 0.9990596 -1.972899E-06 -0.0433572
vn 0.9583191 -0.2826565 -0.04159021
vn -0.9624076 0.2708145 0.02076601
vn -0.9583235 0.2826523 0.04151971
vn -0.9990627 -2.640888E-06 0.04328553
vn -0.9997672 -2.160041E-06 0.02157249
vn -0.9583219 -0.2826574 0.04152113
vn -0.9659262 0.2588177 1.372135E-07
vn -0.9624063 -0.2708186 0.02076669
vn -1 -1.573535E-06 0
vn -0.9624067 0.2708151 -0.02080011
vn -0.9659254 -0.2588208 0
vn -0.9997665 -1.711002E-06 -0.02160816
vn -0.9583203 0.2826527 -0.04158814
vn -0.9624057 -0.2708184 -0.02080126
vn -0.9990596 -1.972899E-06 -0.0433572
vn -0.9583191 -0.2826565 -0.04159021
vn 2.998185E-06 0.9990627 0.04328566
vn -0.2826523 0.9583234 0.04151974
vn -0.2708144 0.9624076 0.02076604
vn 2.531661E-06 0.9997672 0.02157253
vn 0.282658 0.9583216 0.04152133
vn -0.2588173 0.9659263 1.118947E-07
vn 0.2708192 0.9624062 0.02076673
vn 1.990059E-06 1 0
vn -0.2708145 0.9624068 -0.02080029
vn 0.2588212 0.9659253 -1.118204E-07
vn 2.245206E-06 0.9997665 -0.02160831
vn -0.2826521 0.9583206 -0.04158842
vn 0.2708188 0.9624056 -0.02080136
vn 2.54768E-06 0.9990596 -0.04335741
vn 0.2826569 0.958319 -0.04159034
vn -0.2708144 -0.9624076 0.02076603
vn -0.2826523 -0.9583235 0.04151971
vn 3.029254E-06 -0.9990627 0.04328565
vn 2.554888E-06 -0.9997672 0.02157252
vn 0.2826581 -0.9583216 0.04152135
vn -0.2588173 -0.9659263 1.135033E-07
vn 0.2708192 -0.9624061 0.02076673
vn 1.851218E-06 -1 0
vn -0.2708145 -0.9624068 -0.02080028
vn 0.2588209 -0.9659254 0
vn 1.74197E-06 -0.9997665 -0.0216082
vn -0.282652 -0.9583206 -0.04158841
vn 0.2708178 -0.9624059 -0.02080117
vn 1.87969E-06 -0.9990596 -0.04335731
vn 0.2826556 -0.9583194 -0.04159015
vn 0 0 -1
vn 0 0 -1
vn 0 0 -1
vn 0 0 -1
vn 0 0 -1
vn 0 0 -1
vn 0 0 -1
vn 0 0 -1
vn 0 0 -1
vn 0 0 -1
vn 0 0 -1
vn 0 0 -1
vn 0 0 -1
vn 0 0 -1
vn 0 0 -1
vn 0 0 -1
vn 0 0 -1
vn 0 0 -1
vn 0 0 -1
vn 0 0 -1
vn 0 0 -1
vn 0 0 -1
vn 0 0 -1
vn 0 0 -1
vn 0 0 1
vn 0 0 1
vn 0 0 1
vn 0 0 1
vn 0 0 1
vn 0 0 1
vn 0 0 1
vn 0 0 1
vn 0 0 1
vn 0 0 1
vn 0 0 1
vn 0 0 1
vn 0 0 1
vn 0 0 1
vn 0 0 1
vn 0 0 1
vn 0 0 1
vn 0 0 1
vn 0 0 1
vn 0 0 1
vn 0 0 1
vn 0 0 1
vn 0 0 1
vn 0 0 1
g muzzlebrake_0
f 3/3/3 2/2/2 1/1/1
f 5/5/5 1/1/1 4/4/4
f 6/6/6 5/5/5 4/4/4
f 7/7/7 6/6/6 4/4/4
f 8/8/8 7/7/7 4/4/4
f 11/11/11 10/10/10 9/9/9
f 10/10/10 12/12/12 9/9/9
f 10/10/10 13/13/13 12/12/12
f 13/13/13 14/14/14 12/12/12
f 13/13/13 15/15/15 14/14/14
f 15/15/15 16/16/16 14/14/14
f 15/15/15 17/17/17 16/16/16
f 17/17/17 18/18/18 16/16/16
f 17/17/17 19/19/19 18/18/18
f 19/19/19 20/20/20 18/18/18
f 19/19/19 21/21/21 20/20/20
f 21/21/21 22/22/22 20/20/20
f 25/25/25 24/24/24 23/23/23
f 26/26/26 25/25/25 23/23/23
f 26/26/26 23/23/23 27/27/27
f 28/28/28 26/26/26 27/27/27
f 28/28/28 27/27/27 29/29/29
f 30/30/30 28/28/28 29/29/29
f 30/30/30 29/29/29 31/31/31
f 32/32/32 30/30/30 31/31/31
f 32/32/32 31/31/31 33/33/33
f 34/34/34 32/32/32 33/33/33
f 34/34/34 33/33/33 35/35/35
f 36/36/36 34/34/34 35/35/35
f 39/39/39 38/38/38 37/37/37
f 40/40/40 39/39/39 37/37/37
f 40/40/40 37/37/37 41/41/41
f 42/42/42 40/40/40 41/41/41
f 42/42/42 41/41/41 43/43/43
f 44/44/44 42/42/42 43/43/43
f 44/44/44 43/43/43 45/45/45
f 46/46/46 44/44/44 45/45/45
f 46/46/46 45/45/45 47/47/47
f 48/48/48 46/46/46 47/47/47
f 48/48/48 47/47/47 49/49/49
f 50/50/50 48/48/48 49/49/49
f 53/53/53 52/52/52 51/51/51
f 52/52/52 54/54/54 51/51/51
f 52/52/52 55/55/55 54/54/54
f 55/55/55 56/56/56 54/54/54
f 55/55/55 57/57/57 56/56/56
f 57/57/57 58/58/58 56/56/56
f 57/57/57 59/59/59 58/58/58
f 59/59/59 60/60/60 58/58/58
f 59/59/59 61/61/61 60/60/60
f 61/61/61 62/62/62 60/60/60
f 61/61/61 63/63/63 62/62/62
f 63/63/63 64/64/64 62/62/62
f 67/67/67 66/66/66 65/65/65
f 66/66/66 68/68/68 65/65/65
f 68/68/68 69/69/69 65/65/65
f 69/69/69 70/70/70 65/65/65
f 70/70/70 72/72/72 71/71/71
f 72/72/72 73/73/73 71/71/71
f 74/74/74 71/71/71 73/73/73
f 77/77/77 76/76/76 75/75/75
f 78/78/78 77/77/77 75/75/75
f 78/78/78 75/75/75 79/79/79
f 80/80/80 77/77/77 78/78/78
f 81/81/81 78/78/78 79/79/79
f 82/82/82 80/80/80 78/78/78
f 82/82/82 78/78/78 81/81/81
f 83/83/83 80/80/80 82/82/82
f 84/84/84 82/82/82 81/81/81
f 85/85/85 83/83/83 82/82/82
f 85/85/85 82/82/82 84/84/84
f 86/86/86 83/83/83 85/85/85
f 87/87/87 85/85/85 84/84/84
f 88/88/88 86/86/86 85/85/85
f 88/88/88 85/85/85 87/87/87
f 89/89/89 88/88/88 87/87/87
f 92/92/92 91/91/91 90/90/90
f 93/93/93 92/92/92 90/90/90
f 94/94/94 92/92/92 93/93/93
f 93/93/93 90/90/90 95/95/95
f 96/96/96 94/94/94 93/93/93
f 97/97/97 93/93/93 95/95/95
f 96/96/96 93/93/93 97/97/97
f 97/97/97 95/95/95 98/98/98
f 99/99/99 96/96/96 97/97/97
f 100/100/100 97/97/97 98/98/98
f 99/99/99 97/97/97 100/100/100
f 100/100/100 98/98/98 101/101/101
f 102/102/102 99/99/99 100/100/100
f 103/103/103 100/100/100 101/101/101
f 102/102/102 100/100/100 103/103/103
f 104/104/104 102/102/102 103/103/103
f 107/107/107 106/106/106 105/105/105
f 108/108/108 107/107/107 105/105/105
f 108/108/108 105/105/105 109/109/109
f 110/110/110 107/107/107 108/108/108
f 111/111/111 108/108/108 109/109/109
f 112/112/112 110/110/110 108/108/108
f 112/112/112 108/108/108 111/111/111
f 113/113/113 110/110/110 112/112/112
f 114/114/114 112/112/112 111/111/111
f 115/115/115 113/113/113 112/112/112
f 115/115/115 112/112/112 114/114/114
f 116/116/116 113/113/113 115/115/115
f 117/117/117 115/115/115 114/114/114
f 118/118/118 116/116/116 115/115/115
f 118/118/118 115/115/115 117/117/117
f 119/119/119 118/118/118 117/117/117
f 122/122/122 121/121/121 120/120/120
f 123/123/123 122/122/122 120/120/120
f 124/124/124 122/122/122 123/123/123
f 123/123/123 120/120/120 125/125/125
f 126/126/126 124/124/124 123/123/123
f 127/127/127 123/123/123 125/125/125
f 126/126/126 123/123/123 127/127/127
f 127/127/127 125/125/125 128/128/128
f 129/129/129 126/126/126 127/127/127
f 130/130/130 127/127/127 128/128/128
f 129/129/129 127/127/127 130/130/130
f 130/130/130 128/128/128 131/131/131
f 132/132/132 129/129/129 130/130/130
f 133/133/133 130/130/130 131/131/131
f 132/132/132 130/130/130 133/133/133
f 134/134/134 132/132/132 133/133/133
f 137/137/137 136/136/136 135/135/135
f 136/136/136 138/138/138 135/135/135
f 139/139/139 136/136/136 137/137/137
f 135/135/135 138/138/138 140/140/140
f 141/141/141 139/139/139 137/137/137
f 138/138/138 142/142/142 140/140/140
f 143/143/143 139/139/139 141/141/141
f 140/140/140 142/142/142 144/144/144
f 145/145/145 143/143/143 141/141/141
f 142/142/142 146/146/146 144/144/144
f 147/147/147 143/143/143 145/145/145
f 144/144/144 146/146/146 148/148/148
f 149/149/149 147/147/147 145/145/145
f 146/146/146 150/150/150 148/148/148
f 151/151/151 147/147/147 149/149/149
f 148/148/148 150/150/150 152/152/152
f 153/153/153 151/151/151 149/149/149
f 150/150/150 154/154/154 152/152/152
f 155/155/155 151/151/151 153/153/153
f 152/152/152 154/154/154 156/156/156
f 157/157/157 155/155/155 153/153/153
f 154/154/154 158/158/158 156/156/156
f 158/158/158 155/155/155 157/157/157
f 156/156/156 158/158/158 157/157/157
f 161/161/161 160/160/160 159/159/159
f 160/160/160 162/162/162 159/159/159
f 161/161/161 159/159/159 163/163/163
f 160/160/160 164/164/164 162/162/162
f 165/165/165 161/161/161 163/163/163
f 164/164/164 166/166/166 162/162/162
f 165/165/165 163/163/163 167/167/167
f 164/164/164 168/168/168 166/166/166
f 169/169/169 165/165/165 167/167/167
f 168/168/168 170/170/170 166/166/166
f 169/169/169 167/167/167 171/171/171
f 168/168/168 172/172/172 170/170/170
f 173/173/173 169/169/169 171/171/171
f 172/172/172 174/174/174 170/170/170
f 173/173/173 171/171/171 175/175/175
f 172/172/172 176/176/176 174/174/174
f 177/177/177 173/173/173 175/175/175
f 176/176/176 178/178/178 174/174/174
f 177/177/177 175/175/175 179/179/179
f 176/176/176 180/180/180 178/178/178
f 181/181/181 177/177/177 179/179/179
f 180/180/180 182/182/182 178/178/178
f 181/181/181 179/179/179 182/182/182
f 180/180/180 181/181/181 182/182/182
