g polySurface176.002
v 0.3170682 0.01192581 -0.3026441
v -0.2997166 0.003606817 -0.313739
v 0.3170682 0.003606718 -0.3026441
v -0.2997166 0.003606817 -0.313739
v 0.3170682 0.01192581 -0.3026441
v -0.2997166 0.01192591 -0.313739
v -0.3108115 0.01192589 0.3030458
v 0.3059732 0.003606705 0.3141407
v -0.3108115 0.003606804 0.3030458
v 0.3059732 0.003606705 0.3141407
v -0.3108115 0.01192589 0.3030458
v 0.3059732 0.0119258 0.3141407
v 0.3100195 0.0219398 -0.2958446
v -0.292917 0.01192591 -0.3066904
v 0.3100195 0.01192581 -0.2958446
v -0.292917 0.01192591 -0.3066904
v 0.3100195 0.0219398 -0.2958446
v -0.292917 0.0219399 -0.3066904
v -0.3037629 0.02193989 0.2962462
v 0.2991737 0.0119258 0.3070921
v -0.3037629 0.0119259 0.2962462
v 0.2991737 0.0119258 0.3070921
v -0.3037629 0.02193989 0.2962462
v 0.2991737 0.02193979 0.3070921
v 0.06128499 0.4161617 0.06048796
v 0.06180961 0.4161617 -0.05640659
v 0.05973577 0.4161617 0.05888202
v 0.06180961 0.4161617 -0.05640659
v 0.06128499 0.4161617 0.06048796
v 0.0634156 0.4161617 -0.05795575
v 0.0634156 0.4161617 -0.05795575
v -0.05347898 0.4161618 -0.05848044
v 0.06180961 0.4161617 -0.05640659
v -0.05347898 0.4161618 -0.05848044
v 0.0634156 0.4161617 -0.05795575
v -0.05502822 0.4161618 -0.06008637
v -0.05502822 0.4161618 -0.06008637
v -0.05555285 0.4161618 0.05680817
v -0.05347898 0.4161618 -0.05848044
v -0.05555285 0.4161618 0.05680817
v -0.05502822 0.4161618 -0.06008637
v -0.05715881 0.4161618 0.05835734
v -0.05715881 0.4161618 0.05835734
v 0.05973577 0.4161617 0.05888202
v -0.05555285 0.4161618 0.05680817
v 0.05973577 0.4161617 0.05888202
v -0.05715881 0.4161618 0.05835734
v 0.06128499 0.4161617 0.06048796
v 0.005116209 0.5117031 0.002307296
v 0.0634156 0.4161617 -0.05795575
v 0.06128499 0.4161617 0.06048796
v 0.0634156 0.4161617 -0.05795575
v 0.005116209 0.5117031 0.002307296
v 0.005190685 0.5117031 -0.001832828
v 0.005190685 0.5117031 -0.001832828
v -0.05502822 0.4161618 -0.06008637
v 0.0634156 0.4161617 -0.05795575
v -0.05502822 0.4161618 -0.06008637
v 0.005190685 0.5117031 -0.001832828
v 0.001140594 0.5117031 -0.00190568
v 0.001140594 0.5117031 -0.00190568
v -0.05715881 0.4161618 0.05835734
v -0.05502822 0.4161618 -0.06008637
v -0.05715881 0.4161618 0.05835734
v 0.001140594 0.5117031 -0.00190568
v 0.001066118 0.5117031 0.002234444
v 0.001066118 0.5117031 0.002234444
v 0.06128499 0.4161617 0.06048796
v -0.05715881 0.4161618 0.05835734
v 0.06128499 0.4161617 0.06048796
v 0.001066118 0.5117031 0.002234444
v 0.005116209 0.5117031 0.002307296
v 0.3059732 0.0119258 0.3141407
v 0.3170682 0.003606718 -0.3026441
v 0.3059732 0.003606705 0.3141407
v 0.3170682 0.01192581 -0.3026441
v 0.001066118 0.5117031 0.002234444
v 0.005190685 0.5117031 -0.001832828
v 0.005116209 0.5117031 0.002307296
v 0.001140594 0.5117031 -0.00190568
v -0.3108115 0.003606804 0.3030458
v -0.2997166 0.01192591 -0.313739
v -0.3108115 0.01192589 0.3030458
v -0.2997166 0.003606817 -0.313739
v 0.3059732 0.003606705 0.3141407
v -0.2997166 0.003606817 -0.313739
v -0.3108115 0.003606804 0.3030458
v 0.3170682 0.003606718 -0.3026441
v 0.2991737 0.02193979 0.3070921
v 0.3100195 0.01192581 -0.2958446
v 0.2991737 0.0119258 0.3070921
v 0.3100195 0.0219398 -0.2958446
v -0.292917 0.0219399 -0.3066904
v -0.3037629 0.0119259 0.2962462
v -0.292917 0.01192591 -0.3066904
v -0.3037629 0.02193989 0.2962462
v 0.05973577 0.4161617 0.05888202
v 0.3011335 0.0219398 -0.2872726
v 0.2906017 0.02193979 0.2982059
v 0.06180961 0.4161617 -0.05640659
v 0.06180961 0.4161617 -0.05640659
v -0.284345 0.0219399 -0.2978043
v 0.3011335 0.0219398 -0.2872726
v -0.05347898 0.4161618 -0.05848044
v -0.05347898 0.4161618 -0.05848044
v -0.2948768 0.02193989 0.2876741
v -0.284345 0.0219399 -0.2978043
v -0.05555285 0.4161618 0.05680817
v -0.05555285 0.4161618 0.05680817
v 0.2906017 0.02193979 0.2982059
v -0.2948768 0.02193989 0.2876741
v 0.05973577 0.4161617 0.05888202
v -0.284345 0.0219399 -0.2978043
v -0.3037629 0.02193989 0.2962462
v -0.292917 0.0219399 -0.3066904
v 0.3011335 0.0219398 -0.2872726
v -0.2948768 0.02193989 0.2876741
v 0.3100195 0.0219398 -0.2958446
v 0.2991737 0.02193979 0.3070921
v 0.2906017 0.02193979 0.2982059
v -0.292917 0.01192591 -0.3066904
v -0.3108115 0.01192589 0.3030458
v -0.2997166 0.01192591 -0.313739
v 0.3100195 0.01192581 -0.2958446
v -0.3037629 0.0119259 0.2962462
v 0.3170682 0.01192581 -0.3026441
v 0.3059732 0.0119258 0.3141407
v 0.2991737 0.0119258 0.3070921
vt 0.451662 0.470453
vt 0.485156 0.825228
vt 0.454457 0.466935
vt 0.485156 0.825228
vt 0.451662 0.470453
vt 0.481646 0.822437
vt 0.129627 0.852378
vt 0.096159 0.497577
vt 0.126838 0.85589
vt 0.096159 0.497577
vt 0.129627 0.852378
vt 0.099673 0.500363
vt 0.444616 0.478998
vt 0.47737 0.818748
vt 0.447938 0.474772
vt 0.47737 0.818748
vt 0.444616 0.478998
vt 0.473151 0.815431
vt 0.13663 0.843883
vt 0.10395 0.504051
vt 0.133315 0.848103
vt 0.10395 0.504051
vt 0.13663 0.843883
vt 0.108171 0.507365
vt 0.003753 0.65227
vt 0.094051 0.633583
vt 0.003627 0.651944
vt 0.094051 0.633583
vt 0.003753 0.65227
vt 0.093771 0.633643
vt 0.093771 0.633643
vt 0.112542 0.72409
vt 0.094051 0.633583
vt 0.112542 0.72409
vt 0.093771 0.633643
vt 0.112417 0.723765
vt 0.112417 0.723765
vt 0.021986 0.742483
vt 0.112542 0.72409
vt 0.021986 0.742483
vt 0.112417 0.723765
vt 0.022314 0.742359
vt 0.022314 0.742359
vt 0.003627 0.651944
vt 0.021986 0.742483
vt 0.003627 0.651944
vt 0.022314 0.742359
vt 0.003753 0.65227
vt 0.056619 0.687091
vt 0.093771 0.633643
vt 0.003753 0.65227
vt 0.093771 0.633643
vt 0.056619 0.687091
vt 0.058977 0.686587
vt 0.058977 0.686587
vt 0.112417 0.723765
vt 0.093771 0.633643
vt 0.112417 0.723765
vt 0.058977 0.686587
vt 0.059579 0.688991
vt 0.059579 0.688991
vt 0.022314 0.742359
vt 0.112417 0.723765
vt 0.022314 0.742359
vt 0.059579 0.688991
vt 0.057123 0.689551
vt 0.057123 0.689551
vt 0.003753 0.65227
vt 0.022314 0.742359
vt 0.003753 0.65227
vt 0.057123 0.689551
vt 0.056619 0.687091
vt 0.099673 0.500363
vt 0.454457 0.466935
vt 0.096159 0.497577
vt 0.451662 0.470453
vt 0.057123 0.689551
vt 0.058977 0.686587
vt 0.056619 0.687091
vt 0.059579 0.688991
vt 0.126838 0.85589
vt 0.481646 0.822437
vt 0.129627 0.852378
vt 0.485156 0.825228
vt 0.484738 0.244194
vt 0.003628 0.244194
vt 0.244183 0.48475
vt 0.244183 0.003639
vt 0.108171 0.507365
vt 0.447938 0.474772
vt 0.10395 0.504051
vt 0.444616 0.478998
vt 0.473151 0.815431
vt 0.133315 0.848103
vt 0.47737 0.818748
vt 0.13663 0.843883
vt 0.557188 0.742595
vt 0.780849 0.515871
vt 0.460502 0.475116
vt 0.620268 0.75062
vt 0.416975 0.098245
vt 0.64193 0.323684
vt 0.685207 0.003668
vt 0.408453 0.16126
vt 0.760408 0.257086
vt 0.535684 0.482757
vt 0.855836 0.525017
vt 0.697365 0.248765
vt 0.444025 0.725936
vt 0.215978 0.503623
vt 0.177124 0.824207
vt 0.451675 0.662808
vt 0.467779 0.810828
vt 0.13663 0.843883
vt 0.473151 0.815431
vt 0.440015 0.484368
vt 0.141232 0.838512
vt 0.444616 0.478998
vt 0.108171 0.507365
vt 0.113543 0.511968
vt 0.47737 0.818748
vt 0.129627 0.852378
vt 0.481646 0.822437
vt 0.447938 0.474772
vt 0.133315 0.848103
vt 0.451662 0.470453
vt 0.099673 0.500363
vt 0.10395 0.504051
vn 0.01798532 0 -0.9998382
vn 0.01798532 0 -0.9998382
vn 0.01798532 0 -0.9998382
vn 0.01798532 0 -0.9998382
vn 0.01798532 0 -0.9998382
vn 0.01798532 0 -0.9998382
vn -0.01798537 0 0.9998382
vn -0.01798537 0 0.9998382
vn -0.01798537 0 0.9998382
vn -0.01798538 0 0.9998382
vn -0.01798538 0 0.9998382
vn -0.01798538 0 0.9998382
vn 0.01798545 0 -0.9998382
vn 0.01798545 0 -0.9998382
vn 0.01798545 0 -0.9998382
vn 0.01798546 0 -0.9998382
vn 0.01798546 0 -0.9998382
vn 0.01798546 0 -0.9998382
vn -0.01798544 0 0.9998382
vn -0.01798544 0 0.9998382
vn -0.01798544 0 0.9998382
vn -0.01798545 0 0.9998382
vn -0.01798545 0 0.9998382
vn -0.01798545 0 0.9998382
vn 4.095139E-05 -1 0
vn 4.095139E-05 -1 0
vn 4.095139E-05 -1 0
vn -3.986006E-05 -1 0
vn -3.986006E-05 -1 0
vn -3.986006E-05 -1 0
vn 0 -1 -2.630759E-07
vn 0 -1 -2.630759E-07
vn 0 -1 -2.630759E-07
vn -6.228387E-07 -1 2.470195E-07
vn -6.228387E-07 -1 2.470195E-07
vn -6.228387E-07 -1 2.470195E-07
vn 0 -1 0
vn 0 -1 0
vn 0 -1 0
vn 0 -1 0
vn 0 -1 0
vn 0 -1 0
vn -6.398805E-07 -1 -2.630722E-07
vn -6.398805E-07 -1 -2.630722E-07
vn -6.398805E-07 -1 -2.630722E-07
vn 0 -1 2.470171E-07
vn 0 -1 2.470171E-07
vn 0 -1 2.470171E-07
vn 0.857824 0.5137118 0.01543088
vn 0.857824 0.5137118 0.01543088
vn 0.857824 0.5137118 0.01543088
vn 0.8578246 0.5137108 0.01543174
vn 0.8578246 0.5137108 0.01543174
vn 0.8578246 0.5137108 0.01543174
vn 0.01543447 0.5134141 -0.8580022
vn 0.01543447 0.5134141 -0.8580022
vn 0.01543447 0.5134141 -0.8580022
vn 0.01542789 0.5134143 -0.8580021
vn 0.01542789 0.5134143 -0.8580021
vn 0.01542789 0.5134143 -0.8580021
vn -0.8578238 0.5137122 -0.01543074
vn -0.8578238 0.5137122 -0.01543074
vn -0.8578238 0.5137122 -0.01543074
vn -0.8578246 0.5137107 -0.01543174
vn -0.8578246 0.5137107 -0.01543174
vn -0.8578246 0.5137107 -0.01543174
vn -0.01543363 0.5134138 0.8580023
vn -0.01543363 0.5134138 0.8580023
vn -0.01543363 0.5134138 0.8580023
vn -0.01543616 0.5134141 0.8580021
vn -0.01543616 0.5134141 0.8580021
vn -0.01543616 0.5134141 0.8580021
vn 0.9998382 0 0.01798554
vn 0.9998382 0 0.01798554
vn 0.9998382 0 0.01798554
vn 0.9998382 0 0.01798552
vn 0 1 0
vn 0 1 0
vn 0 1 0
vn 0 1 0
vn -0.9998382 0 -0.01798544
vn -0.9998382 0 -0.01798544
vn -0.9998382 0 -0.01798544
vn -0.9998382 0 -0.0179853
vn -1.615237E-07 -1 0
vn -1.615237E-07 -1 0
vn -1.615237E-07 -1 0
vn -1.615237E-07 -1 0
vn 0.9998382 0 0.01798533
vn 0.9998382 0 0.01798533
vn 0.9998382 0 0.01798533
vn 0.9998382 0 0.01798532
vn -0.9998382 0 -0.01798543
vn -0.9998382 0 -0.01798543
vn -0.9998382 0 -0.01798543
vn -0.9998382 0 -0.01798545
vn 0.8586969 0.512251 0.01544652
vn 0.8586969 0.512251 0.01544652
vn 0.8586969 0.512251 0.01544652
vn 0.8586969 0.5122511 0.01544643
vn 0.01544652 0.5122511 -0.8586969
vn 0.01544652 0.5122511 -0.8586969
vn 0.01544652 0.5122511 -0.8586969
vn 0.01544666 0.5122508 -0.8586969
vn -0.8586968 0.5122511 -0.01544658
vn -0.8586968 0.5122511 -0.01544658
vn -0.8586968 0.5122511 -0.01544658
vn -0.8586968 0.5122511 -0.01544643
vn -0.01544638 0.5122511 0.8586969
vn -0.01544638 0.5122511 0.8586969
vn -0.01544638 0.5122511 0.8586969
vn -0.01544638 0.512251 0.8586969
vn 1.821722E-07 1 -1.748984E-07
vn 0 1 0
vn 1.547853E-07 1 3.862263E-07
vn 0 1 0
vn -3.643443E-07 1 0
vn -3.537951E-07 1 0
vn -3.537951E-07 1 0
vn -3.537951E-07 1 0
vn 1.742281E-07 1 -3.012647E-07
vn -4.360042E-07 1 0
vn 1.635007E-07 1 4.333373E-07
vn -2.230097E-07 1 0
vn -2.230107E-07 1 0
vn -2.180058E-07 1 0
vn -2.180058E-07 1 0
vn -2.180058E-07 1 0
g polySurface176.002_0
f 3/3/3 2/2/2 1/1/1
f 6/6/6 5/5/5 4/4/4
f 9/9/9 8/8/8 7/7/7
f 12/12/12 11/11/11 10/10/10
f 15/15/15 14/14/14 13/13/13
f 18/18/18 17/17/17 16/16/16
f 21/21/21 20/20/20 19/19/19
f 24/24/24 23/23/23 22/22/22
f 27/27/27 26/26/26 25/25/25
f 30/30/30 29/29/29 28/28/28
f 33/33/33 32/32/32 31/31/31
f 36/36/36 35/35/35 34/34/34
f 39/39/39 38/38/38 37/37/37
f 42/42/42 41/41/41 40/40/40
f 45/45/45 44/44/44 43/43/43
f 48/48/48 47/47/47 46/46/46
f 51/51/51 50/50/50 49/49/49
f 54/54/54 53/53/53 52/52/52
f 57/57/57 56/56/56 55/55/55
f 60/60/60 59/59/59 58/58/58
f 63/63/63 62/62/62 61/61/61
f 66/66/66 65/65/65 64/64/64
f 69/69/69 68/68/68 67/67/67
f 72/72/72 71/71/71 70/70/70
f 75/75/75 74/74/74 73/73/73
f 76/76/76 73/73/73 74/74/74
f 79/79/79 78/78/78 77/77/77
f 80/80/80 77/77/77 78/78/78
f 83/83/83 82/82/82 81/81/81
f 84/84/84 81/81/81 82/82/82
f 87/87/87 86/86/86 85/85/85
f 88/88/88 85/85/85 86/86/86
f 91/91/91 90/90/90 89/89/89
f 92/92/92 89/89/89 90/90/90
f 95/95/95 94/94/94 93/93/93
f 96/96/96 93/93/93 94/94/94
f 99/99/99 98/98/98 97/97/97
f 100/100/100 97/97/97 98/98/98
f 103/103/103 102/102/102 101/101/101
f 104/104/104 101/101/101 102/102/102
f 107/107/107 106/106/106 105/105/105
f 108/108/108 105/105/105 106/106/106
f 111/111/111 110/110/110 109/109/109
f 112/112/112 109/109/109 110/110/110
f 115/115/115 114/114/114 113/113/113
f 113/113/113 116/116/116 115/115/115
f 117/117/117 113/113/113 114/114/114
f 118/118/118 115/115/115 116/116/116
f 114/114/114 119/119/119 117/117/117
f 116/116/116 120/120/120 118/118/118
f 120/120/120 117/117/117 119/119/119
f 119/119/119 118/118/118 120/120/120
f 123/123/123 122/122/122 121/121/121
f 121/121/121 124/124/124 123/123/123
f 125/125/125 121/121/121 122/122/122
f 126/126/126 123/123/123 124/124/124
f 122/122/122 127/127/127 125/125/125
f 124/124/124 128/128/128 126/126/126
f 128/128/128 125/125/125 127/127/127
f 127/127/127 126/126/126 128/128/128
