g rearsight
v -0.01517186 0.1252012 -0.1063635
v 0.01555038 0.1252012 -0.07939415
v -0.01555038 0.1252012 -0.07939415
v 0.01517186 0.1252012 -0.1063635
v 0.01517186 0.127028 -0.1099458
v -0.01517186 0.127028 -0.1099458
v -0.0007101205 0.1276234 -0.1109257
v -0.0100313 0.1276322 -0.1109257
v -0.009994969 0.1402014 -0.1210259
v -0.01517186 0.1402014 -0.1210259
v -0.01517186 0.1402014 -0.1282714
v -0.009994969 0.1402014 -0.1282714
v -0.0100313 0.1276322 -0.1377982
v -0.01517186 0.127028 -0.1379014
v -0.0007101205 0.1276234 -0.1377982
v 0.009946 0.1276322 -0.1377982
v 0.009946 0.1276322 -0.1109257
v -0.0100313 0.1276322 -0.1377982
v 0.00999986 0.1402014 -0.1210259
v 0.01517186 0.1402014 -0.1210259
v 0.01517186 0.1402014 -0.1282714
v 0.00999986 0.1402014 -0.1282714
v 0.01517186 0.127028 -0.1379014
v 0.009946 0.1276322 -0.1377982
v -0.0007101205 0.1276234 -0.1377982
v 0.01517186 0.1252012 -0.1389699
v -0.01517186 0.1252012 -0.1389699
v -0.01517186 0.1062905 -0.1417277
v 0.01517186 0.1062905 -0.1417277
v -0.01366316 0.102927 -0.1422182
v 0.01366316 0.102927 -0.1422182
v 0.01517186 0.127028 -0.1099458
v 0.01517186 0.1402014 -0.1210259
v 0.01517186 0.1402014 -0.1282714
v 0.01517186 0.127028 -0.1379014
v 0.01517186 0.1252012 -0.1063635
v 0.01517186 0.1252012 -0.1389699
v 0.01517186 0.1062905 -0.1417277
v 0.01538631 0.1062905 -0.07939415
v 0.01555038 0.1252012 -0.07939415
v 0.01366316 0.102927 -0.1422182
v 0.01366316 0.102927 -0.07939415
v -0.01517186 0.127028 -0.1379014
v -0.01517186 0.1402014 -0.1282714
v -0.01517186 0.1402014 -0.1210259
v -0.01517186 0.127028 -0.1099458
v -0.01517186 0.1252012 -0.1389699
v -0.01517186 0.1252012 -0.1063635
v -0.01538631 0.1062905 -0.07939415
v -0.01555038 0.1252012 -0.07939415
v -0.01517186 0.1062905 -0.1417277
v -0.01366316 0.102927 -0.07939415
v -0.01366316 0.102927 -0.1422182
v -0.01538631 0.1062905 -0.07939415
v 0.01366316 0.102927 -0.07939415
v -0.01366316 0.102927 -0.07939415
v 0.01538631 0.1062905 -0.07939415
v -0.01555038 0.1252012 -0.07939415
v 0.01555038 0.1252012 -0.07939415
v -0.009994969 0.1402014 -0.1282714
v -0.0100313 0.1276322 -0.1109257
v -0.009994969 0.1402014 -0.1210259
v -0.0100313 0.1276322 -0.1377982
v 0.00999986 0.1402014 -0.1210259
v 0.009946 0.1276322 -0.1109257
v 0.00999986 0.1402014 -0.1282714
v 0.009946 0.1276322 -0.1377982
v -0.006307313 0.1275996 -0.1253434
v -0.006307313 0.1275996 -0.1359178
v -0.006307313 0.1295662 -0.1359178
v -0.006307313 0.1295662 -0.1253434
v -0.006307313 0.1275996 -0.1233033
v -0.006307313 0.1295662 -0.1233033
v -0.006307313 0.1346667 -0.1253434
v -0.006307313 0.1346667 -0.1233033
v -0.006307313 0.1375595 -0.1253434
v -0.006307313 0.1375595 -0.1233033
v 0.006307313 0.1295662 -0.1253434
v 0.006307313 0.1295662 -0.1359178
v 0.006307313 0.1275996 -0.1359178
v 0.006307313 0.1275996 -0.1253434
v 0.006307313 0.1295662 -0.1233033
v 0.006307313 0.1275996 -0.1233033
v 0.006307313 0.1346667 -0.1233033
v 0.006307313 0.1346667 -0.1253434
v 0.006307313 0.1375595 -0.1233033
v 0.006307313 0.1375595 -0.1253434
v -0.006307313 0.1375595 -0.1233033
v -0.006307313 0.1375595 -0.1253434
v -0.001499846 0.1375595 -0.1253434
v -0.001499846 0.1375595 -0.1233033
v -0.001499846 0.1295662 -0.1359178
v -0.006307313 0.1295662 -0.1253434
v -0.006307313 0.1295662 -0.1359178
v -0.001499846 0.1295662 -0.1253434
v 0.001499846 0.1295662 -0.1253434
v 0.001499846 0.1295662 -0.1359178
v 0.006307313 0.1295662 -0.1359178
v 0.006307313 0.1295662 -0.1253434
v -0.001499846 0.1275996 -0.1359178
v -0.006307313 0.1295662 -0.1359178
v -0.006307313 0.1275996 -0.1359178
v -0.001499846 0.1295662 -0.1359178
v 0.001499846 0.1295662 -0.1359178
v 0.001499846 0.1275996 -0.1359178
v 0.006307313 0.1275996 -0.1359178
v 0.006307313 0.1295662 -0.1359178
v -0.006307313 0.1275996 -0.1253434
v -0.006307313 0.1275996 -0.1233033
v -0.001499846 0.1275996 -0.1233033
v -0.001499846 0.1275996 -0.1253434
v -0.006307313 0.1275996 -0.1359178
v -0.001499846 0.1275996 -0.1359178
v 0.001499846 0.1275996 -0.1359178
v 0.001499846 0.1275996 -0.1253434
v 0.001499846 0.1275996 -0.1233033
v 0.006307313 0.1275996 -0.1233033
v 0.006307313 0.1275996 -0.1253434
v 0.006307313 0.1275996 -0.1359178
v 0.001499846 0.1375595 -0.1233033
v 0.001499846 0.1375595 -0.1253434
v 0.006307313 0.1375595 -0.1253434
v 0.006307313 0.1375595 -0.1233033
v 0.001499846 0.1275996 -0.1233033
v 0.006307313 0.1295662 -0.1233033
v 0.006307313 0.1275996 -0.1233033
v 0.001499846 0.1295662 -0.1233033
v -0.001499846 0.1295662 -0.1233033
v -0.001499846 0.1275996 -0.1233033
v -0.006307313 0.1275996 -0.1233033
v -0.006307313 0.1295662 -0.1233033
v -0.006307313 0.1346667 -0.1233033
v -0.001499846 0.1346667 -0.1233033
v -0.006307313 0.1375595 -0.1233033
v -0.001499846 0.1375595 -0.1233033
v 0.001499846 0.1346667 -0.1233033
v 0.006307313 0.1346667 -0.1233033
v 0.001499846 0.1375595 -0.1233033
v 0.006307313 0.1375595 -0.1233033
v -0.006307313 0.1346667 -0.1253434
v -0.001499846 0.1375595 -0.1253434
v -0.006307313 0.1375595 -0.1253434
v -0.001499846 0.1346667 -0.1253434
v -0.006307313 0.1295662 -0.1253434
v -0.001499846 0.1295662 -0.1253434
v 0.001499846 0.1346667 -0.1253434
v 0.001499846 0.1295662 -0.1253434
v 0.006307313 0.1346667 -0.1253434
v 0.006307313 0.1295662 -0.1253434
v 0.006307313 0.1375595 -0.1253434
v 0.001499846 0.1375595 -0.1253434
v -0.001499846 0.1375595 -0.1253434
v -0.001499846 0.1346667 -0.1253434
v -0.001499846 0.1346667 -0.1233033
v -0.001499846 0.1375595 -0.1233033
v 0.001499846 0.1346667 -0.1253434
v 0.001499846 0.1375595 -0.1253434
v 0.001499846 0.1375595 -0.1233033
v 0.001499846 0.1346667 -0.1233033
v -0.001499846 0.1346667 -0.1253434
v 0.001499846 0.1346667 -0.1253434
v 0.001499846 0.1346667 -0.1233033
v -0.001499846 0.1346667 -0.1233033
v 0.01552554 0.1206681 -0.1191736
v 0.01552554 0.1247247 -0.1232303
v 0.01552554 0.1189877 -0.1232303
v 0.01552554 0.1247247 -0.1174932
v 0.01552554 0.1206681 -0.1272869
v 0.01552554 0.1287814 -0.1191736
v 0.01552554 0.1247247 -0.1289673
v 0.01552554 0.1304618 -0.1232303
v 0.01552554 0.1287814 -0.1272869
v -0.01552554 0.1189877 -0.1232303
v -0.01552554 0.1247247 -0.1232303
v -0.01552554 0.1206681 -0.1191736
v -0.01552554 0.1206681 -0.1272869
v -0.01552554 0.1247247 -0.1174932
v -0.01552554 0.1247247 -0.1289673
v -0.01552554 0.1287814 -0.1191736
v -0.01552554 0.1287814 -0.1272869
v -0.01552554 0.1304618 -0.1232303
vt 0.257529 0.967607
vt 0.256677 0.967607
vt 0.256677 0.967607
vt 0.257529 0.967607
vt 0.257694 0.967802
vt 0.257694 0.967802
vt 0.257945 0.968056
vt 0.257945 0.968056
vt 0.257945 0.968056
vt 0.257945 0.968056
vt 0.258269 0.968056
vt 0.258269 0.968056
vt 0.258269 0.968056
vt 0.258474 0.967802
vt 0.258269 0.968056
vt 0.258269 0.968056
vt 0.257945 0.968056
vt 0.258269 0.968056
vt 0.257945 0.968056
vt 0.257945 0.968056
vt 0.258269 0.968056
vt 0.258269 0.968056
vt 0.258474 0.967802
vt 0.258269 0.968056
vt 0.258269 0.968056
vt 0.25856 0.967607
vt 0.25856 0.967607
vt 0.258646 0.9670093
vt 0.258646 0.9670093
vt 0.258662 0.966903
vt 0.258662 0.966903
vt 0.257694 0.967802
vt 0.257945 0.968056
vt 0.258269 0.968056
vt 0.258474 0.967802
vt 0.257529 0.967607
vt 0.25856 0.967607
vt 0.258646 0.9670093
vt 0.256805 0.9670093
vt 0.256677 0.967607
vt 0.258662 0.966903
vt 0.256677 0.966903
vt 0.258474 0.967802
vt 0.258269 0.968056
vt 0.257945 0.968056
vt 0.257694 0.967802
vt 0.25856 0.967607
vt 0.257529 0.967607
vt 0.256805 0.9670093
vt 0.256677 0.967607
vt 0.258646 0.9670093
vt 0.256677 0.966903
vt 0.258662 0.966903
vt 0.256677 0.9670093
vt 0.256677 0.966903
vt 0.256677 0.966903
vt 0.256677 0.9670093
vt 0.256677 0.967607
vt 0.256677 0.967607
vt 0.258269 0.968056
vt 0.257945 0.968056
vt 0.257945 0.968056
vt 0.258269 0.968056
vt 0.257945 0.968056
vt 0.257945 0.968056
vt 0.258269 0.968056
vt 0.258269 0.968056
vt 0.116025 0.9263951
vt 0.115001 0.9248736
vt 0.115001 0.9277948
vt 0.116025 0.9293163
vt 0.117048 0.9279166
vt 0.117048 0.9308378
vt 0.116025 0.9316877
vt 0.117048 0.9332092
vt 0.116025 0.9322375
vt 0.117048 0.933759
vt 0.109687 0.9302991
vt 0.108663 0.9287776
vt 0.108663 0.9258564
vt 0.109687 0.9273779
vt 0.11071 0.9318206
vt 0.11071 0.9288994
vt 0.11071 0.934192
vt 0.109687 0.9326705
vt 0.11071 0.9347418
vt 0.109687 0.9332203
vt 0.117048 0.933759
vt 0.116025 0.9322375
vt 0.113406 0.9326435
vt 0.11443 0.934165
vt 0.112383 0.9282008
vt 0.115001 0.930716
vt 0.115001 0.9277948
vt 0.112383 0.931122
vt 0.111282 0.9312927
vt 0.111282 0.9283715
vt 0.108663 0.9287776
vt 0.108663 0.9316988
vt 0.112383 0.9252796
vt 0.115001 0.9277948
vt 0.115001 0.9248736
vt 0.112383 0.9282008
vt 0.111282 0.9283715
vt 0.111282 0.9254503
vt 0.108663 0.9258564
vt 0.108663 0.9287776
vt 0.116025 0.9263951
vt 0.117048 0.9279166
vt 0.11443 0.9283226
vt 0.113406 0.9268011
vt 0.115001 0.9248736
vt 0.112383 0.9252796
vt 0.111282 0.9254503
vt 0.112306 0.9269718
vt 0.113329 0.9284933
vt 0.11071 0.9288994
vt 0.109687 0.9273779
vt 0.108663 0.9258564
vt 0.113329 0.9343357
vt 0.112306 0.9328142
vt 0.109687 0.9332203
vt 0.11071 0.9347418
vt 0.113329 0.9284933
vt 0.11071 0.9318206
vt 0.11071 0.9288994
vt 0.113329 0.9314145
vt 0.11443 0.9312438
vt 0.11443 0.9283226
vt 0.117048 0.9279166
vt 0.117048 0.9308378
vt 0.117048 0.9332092
vt 0.11443 0.9336153
vt 0.117048 0.933759
vt 0.11443 0.934165
vt 0.113329 0.933786
vt 0.11071 0.934192
vt 0.113329 0.9343357
vt 0.11071 0.9347418
vt 0.115832 0.9319511
vt 0.113406 0.9326435
vt 0.116025 0.9322375
vt 0.113214 0.9323572
vt 0.115001 0.930716
vt 0.112383 0.931122
vt 0.112113 0.9325279
vt 0.111282 0.9312927
vt 0.109494 0.9329339
vt 0.108663 0.9316988
vt 0.109687 0.9332203
vt 0.112306 0.9328142
vt 0.113406 0.9326435
vt 0.113214 0.9323572
vt 0.113214 0.9323572
vt 0.113406 0.9326435
vt 0.112113 0.9325279
vt 0.112306 0.9328142
vt 0.112306 0.9328142
vt 0.112113 0.9325279
vt 0.113214 0.9323572
vt 0.112113 0.9325279
vt 0.112113 0.9325279
vt 0.113214 0.9323572
vt 0.210507 0.9763406
vt 0.21048 0.9765186
vt 0.21048 0.9762846
vt 0.210519 0.9764996
vt 0.210452 0.9763666
vt 0.210507 0.9766696
vt 0.21044 0.9765366
vt 0.21048 0.9767516
vt 0.210452 0.9766956
vt 0.209553 0.9762726
vt 0.209553 0.9765056
vt 0.209581 0.9763276
vt 0.209525 0.9763536
vt 0.209593 0.9764866
vt 0.209514 0.9765236
vt 0.209581 0.9766576
vt 0.209525 0.9766836
vt 0.209553 0.9767386
vn 0 0.9723297 0.2336127
vn 0 1 0
vn 0 1 0
vn 0 0.9723297 0.2336127
vn -0.01508274 0.7854328 0.6187632
vn 0.01536763 0.7853321 0.618884
vn 4.977013E-05 0.9723228 0.2336413
vn 0.02735104 0.8840997 0.4664972
vn 0.02069081 0.9041176 0.4267823
vn 0 0.906555 0.4220879
vn 0 0.9547028 -0.297561
vn -0.02021286 0.8072068 -0.5899224
vn 0.0009402528 0.9999996 0
vn -0.01121663 0.4170334 -0.908822
vn 5.889492E-05 1 0
vn -0.0008224629 0.9999996 0
vn -0.0268065 0.8842353 0.4662718
vn -0.02820387 0.3967284 -0.9175027
vn -0.02032993 0.9041634 0.4267028
vn 0 0.906555 0.4220878
vn 0 0.9547028 -0.297561
vn 0.01987246 0.8071445 -0.5900194
vn 0.01103063 0.4170059 -0.9088369
vn 0.0277351 0.396663 -0.9175451
vn 6.523139E-06 0.168416 -0.985716
vn 0 0.330668 -0.9437472
vn 0 0.330668 -0.9437472
vn 0 0.1443109 -0.9895324
vn 0 0.1443109 -0.9895324
vn 0 0.1443137 -0.989532
vn 0 0.1443137 -0.989532
vn 1 0 0
vn 1 0 0
vn 1 0 0
vn 1 0 0
vn 0.9999846 -0.001819327 -0.005251301
vn 0.9999983 0.001608421 -0.0008600861
vn 0.9754212 -0.2203421 -0.001668
vn 0.9887683 -0.1493404 -0.005890573
vn 0.9998639 -0.008674642 -0.01403323
vn 0.90151 -0.4327556 -0.001531458
vn 0.90151 -0.4327556 -0.001531458
vn -1 0 0
vn -1 0 0
vn -1 0 0
vn -1 0 0
vn -0.9999983 0.001608421 -0.0008600861
vn -0.9999846 -0.001819327 -0.005251301
vn -0.9887683 -0.1493404 -0.005890573
vn -0.9998639 -0.008674642 -0.01403323
vn -0.9754212 -0.2203421 -0.001668
vn -0.90151 -0.4327556 -0.001531458
vn -0.90151 -0.4327556 -0.001531458
vn 0 0 1
vn 0 0 1
vn 0 0 1
vn 0 0 1
vn 0 0 1
vn 0 0 1
vn 0.9999958 -0.002890348 0
vn 0.9999958 -0.002890348 0
vn 0.9999958 -0.002890348 0
vn 0.9999958 -0.002890348 0
vn -0.9999908 0.004285022 0
vn -0.9999908 0.004285022 0
vn -0.9999908 0.004285022 0
vn -0.9999908 0.004285022 0
vn -1 0 0
vn -1 0 0
vn -1 0 0
vn -1 0 0
vn -1 0 0
vn -1 0 0
vn -1 0 0
vn -1 0 0
vn -1 0 0
vn -1 0 0
vn 1 0 0
vn 1 0 0
vn 1 0 0
vn 1 0 0
vn 1 0 0
vn 1 0 0
vn 1 0 0
vn 1 0 0
vn 1 0 0
vn 1 0 0
vn 0 1 0
vn 0 1 0
vn 0 1 0
vn 0 1 0
vn 0 1 0
vn 0 1 0
vn 0 1 0
vn 0 1 0
vn 0 1 0
vn 0 1 0
vn 0 1 0
vn 0 1 0
vn 0 0 -1
vn 0 0 -1
vn 0 0 -1
vn 0 0 -1
vn 0 0 -1
vn 0 0 -1
vn 0 0 -1
vn 0 0 -1
vn 0 -1 0
vn 0 -1 0
vn 0 -1 0
vn 0 -1 0
vn 0 -1 0
vn 0 -1 0
vn 0 -1 0
vn 0 -1 0
vn 0 -1 0
vn 0 -1 0
vn 0 -1 0
vn 0 -1 0
vn 0 1 0
vn 0 1 0
vn 0 1 0
vn 0 1 0
vn 0 0 1
vn 0 0 1
vn 0 0 1
vn 0 0 1
vn 0 0 1
vn 0 0 1
vn 0 0 1
vn 0 0 1
vn 0 0 1
vn 0 0 1
vn 0 0 1
vn 0 0 1
vn 0 0 1
vn 0 0 1
vn 0 0 1
vn 0 0 1
vn 9.918679E-07 -3.567467E-07 -1
vn 9.918679E-07 -1.64837E-06 -1
vn 9.918679E-07 -1.64837E-06 -1
vn 1.313717E-07 0 -1
vn 9.918678E-07 9.348765E-07 -1
vn -2.988764E-07 9.348765E-07 -1
vn -5.298735E-07 3.116255E-07 -1
vn -7.948103E-07 4.674383E-07 -1
vn 0 0 -1
vn 0 0 -1
vn 0 0 -1
vn 0 0 -1
vn 1 0 0
vn 1 0 0
vn 1 0 0
vn 1 0 0
vn -1 0 0
vn -1 0 0
vn -1 0 0
vn -1 0 0
vn 0 1 0
vn 0 1 0
vn 0 1 0
vn 0 1 0
vn 1 0 0
vn 1 0 0
vn 1 0 0
vn 1 0 0
vn 1 0 0
vn 1 0 0
vn 1 0 0
vn 1 0 0
vn 1 0 0
vn -1 0 0
vn -1 0 0
vn -1 0 0
vn -1 0 0
vn -1 0 0
vn -1 0 0
vn -1 0 0
vn -1 0 0
vn -1 0 0
g rearsight_0
f 3/3/3 2/2/2 1/1/1
f 2/2/2 4/4/4 1/1/1
f 4/4/4 5/5/5 1/1/1
f 5/5/5 6/6/6 1/1/1
f 5/5/5 7/7/7 6/6/6
f 7/7/7 8/8/8 6/6/6
f 6/6/6 8/8/8 9/9/9
f 6/6/6 9/9/9 10/10/10
f 10/10/10 9/9/9 11/11/11
f 11/11/11 9/9/9 12/12/12
f 7/7/7 13/13/13 8/8/8
f 11/11/11 12/12/12 14/14/14
f 15/15/15 13/13/13 7/7/7
f 7/7/7 16/16/16 15/15/15
f 7/7/7 17/17/17 16/16/16
f 5/5/5 17/17/17 7/7/7
f 12/12/12 18/18/18 14/14/14
f 19/19/19 17/17/17 5/5/5
f 20/20/20 19/19/19 5/5/5
f 21/21/21 19/19/19 20/20/20
f 21/21/21 22/22/22 19/19/19
f 23/23/23 22/22/22 21/21/21
f 23/23/23 24/24/24 22/22/22
f 25/25/25 24/24/24 23/23/23
f 14/14/14 18/18/18 25/25/25
f 14/14/14 25/25/25 23/23/23
f 14/14/14 23/23/23 26/26/26
f 27/27/27 14/14/14 26/26/26
f 27/27/27 26/26/26 28/28/28
f 26/26/26 29/29/29 28/28/28
f 30/30/30 28/28/28 29/29/29
f 31/31/31 30/30/30 29/29/29
f 34/34/34 33/33/33 32/32/32
f 35/35/35 34/34/34 32/32/32
f 35/35/35 32/32/32 36/36/36
f 37/37/37 35/35/35 36/36/36
f 37/37/37 36/36/36 38/38/38
f 36/36/36 39/39/39 38/38/38
f 36/36/36 40/40/40 39/39/39
f 41/41/41 38/38/38 39/39/39
f 42/42/42 41/41/41 39/39/39
f 45/45/45 44/44/44 43/43/43
f 46/46/46 45/45/45 43/43/43
f 46/46/46 43/43/43 47/47/47
f 48/48/48 46/46/46 47/47/47
f 48/48/48 47/47/47 49/49/49
f 48/48/48 49/49/49 50/50/50
f 47/47/47 51/51/51 49/49/49
f 52/52/52 49/49/49 51/51/51
f 53/53/53 52/52/52 51/51/51
f 56/56/56 55/55/55 54/54/54
f 55/55/55 57/57/57 54/54/54
f 58/58/58 54/54/54 57/57/57
f 59/59/59 58/58/58 57/57/57
f 62/62/62 61/61/61 60/60/60
f 60/60/60 61/61/61 63/63/63
f 66/66/66 65/65/65 64/64/64
f 66/66/66 67/67/67 65/65/65
f 70/70/70 69/69/69 68/68/68
f 71/71/71 70/70/70 68/68/68
f 71/71/71 68/68/68 72/72/72
f 73/73/73 71/71/71 72/72/72
f 74/74/74 71/71/71 73/73/73
f 75/75/75 74/74/74 73/73/73
f 76/76/76 74/74/74 75/75/75
f 77/77/77 76/76/76 75/75/75
f 80/80/80 79/79/79 78/78/78
f 81/81/81 80/80/80 78/78/78
f 81/81/81 78/78/78 82/82/82
f 83/83/83 81/81/81 82/82/82
f 82/82/82 78/78/78 84/84/84
f 78/78/78 85/85/85 84/84/84
f 84/84/84 85/85/85 86/86/86
f 85/85/85 87/87/87 86/86/86
f 90/90/90 89/89/89 88/88/88
f 91/91/91 90/90/90 88/88/88
f 94/94/94 93/93/93 92/92/92
f 93/93/93 95/95/95 92/92/92
f 92/92/92 95/95/95 96/96/96
f 97/97/97 92/92/92 96/96/96
f 97/97/97 96/96/96 98/98/98
f 96/96/96 99/99/99 98/98/98
f 102/102/102 101/101/101 100/100/100
f 101/101/101 103/103/103 100/100/100
f 100/100/100 103/103/103 104/104/104
f 105/105/105 100/100/100 104/104/104
f 105/105/105 104/104/104 106/106/106
f 104/104/104 107/107/107 106/106/106
f 110/110/110 109/109/109 108/108/108
f 111/111/111 110/110/110 108/108/108
f 108/108/108 112/112/112 111/111/111
f 112/112/112 113/113/113 111/111/111
f 111/111/111 113/113/113 114/114/114
f 110/110/110 111/111/111 115/115/115
f 115/115/115 111/111/111 114/114/114
f 116/116/116 110/110/110 115/115/115
f 117/117/117 116/116/116 115/115/115
f 118/118/118 117/117/117 115/115/115
f 115/115/115 114/114/114 118/118/118
f 114/114/114 119/119/119 118/118/118
f 122/122/122 121/121/121 120/120/120
f 123/123/123 122/122/122 120/120/120
f 126/126/126 125/125/125 124/124/124
f 125/125/125 127/127/127 124/124/124
f 127/127/127 128/128/128 124/124/124
f 128/128/128 129/129/129 124/124/124
f 129/129/129 128/128/128 130/130/130
f 128/128/128 131/131/131 130/130/130
f 132/132/132 131/131/131 128/128/128
f 133/133/133 132/132/132 128/128/128
f 133/133/133 128/128/128 127/127/127
f 134/134/134 132/132/132 133/133/133
f 135/135/135 134/134/134 133/133/133
f 136/136/136 133/133/133 127/127/127
f 127/127/127 125/125/125 136/136/136
f 125/125/125 137/137/137 136/136/136
f 136/136/136 137/137/137 138/138/138
f 137/137/137 139/139/139 138/138/138
f 142/142/142 141/141/141 140/140/140
f 141/141/141 143/143/143 140/140/140
f 140/140/140 143/143/143 144/144/144
f 143/143/143 145/145/145 144/144/144
f 145/145/145 143/143/143 146/146/146
f 147/147/147 145/145/145 146/146/146
f 147/147/147 146/146/146 148/148/148
f 149/149/149 147/147/147 148/148/148
f 148/148/148 146/146/146 150/150/150
f 146/146/146 151/151/151 150/150/150
f 154/154/154 153/153/153 152/152/152
f 155/155/155 154/154/154 152/152/152
f 158/158/158 157/157/157 156/156/156
f 159/159/159 158/158/158 156/156/156
f 162/162/162 161/161/161 160/160/160
f 163/163/163 162/162/162 160/160/160
f 166/166/166 165/165/165 164/164/164
f 164/164/164 165/165/165 167/167/167
f 168/168/168 165/165/165 166/166/166
f 167/167/167 165/165/165 169/169/169
f 170/170/170 165/165/165 168/168/168
f 169/169/169 165/165/165 171/171/171
f 172/172/172 165/165/165 170/170/170
f 171/171/171 165/165/165 172/172/172
f 175/175/175 174/174/174 173/173/173
f 173/173/173 174/174/174 176/176/176
f 177/177/177 174/174/174 175/175/175
f 176/176/176 174/174/174 178/178/178
f 179/179/179 174/174/174 177/177/177
f 178/178/178 174/174/174 180/180/180
f 181/181/181 174/174/174 179/179/179
f 180/180/180 174/174/174 181/181/181
