g scorpion
v 0.02794047 0.06451335 0.09345654
v 0.01376373 0.7000812 0.09345659
v 0.01376373 0.7000812 -0.04221013
v 0.02794047 0.06451335 -0.04221016
v 0.02794047 0.06451335 -0.04221016
v 0.03987145 0.05487833 0.09345656
v 0.02794047 0.06451335 0.09345654
v 0.03987145 0.05487834 -0.04221016
v 0.05487834 0.03987144 0.09345656
v 0.05487834 0.03987144 -0.04221016
v 0.06451336 0.02096164 0.09345656
v 0.06451336 0.02096165 -0.04221016
v 0.06783336 -1.827228E-08 0.09345656
v 0.06783336 -1.23421E-08 -0.04221016
v 0.06451336 -0.02096168 0.09345656
v 0.06451336 -0.02096167 -0.04221016
v 0.05487834 -0.03987146 0.09345656
v 0.05487834 -0.03987145 -0.04221016
v 0.03987145 -0.05487836 0.09345656
v 0.03987145 -0.05487836 -0.04221016
v 0.02096166 -0.06451338 0.09345656
v 0.02096166 -0.06451338 -0.04221016
v -5.930181E-09 -0.06783338 0.09345656
v -5.930181E-09 -0.06783338 -0.04221016
v -0.02096166 -0.06451338 0.09345656
v -0.02096166 -0.06451338 -0.04221016
v -0.03987146 -0.05487835 0.09345656
v -0.03987146 -0.05487834 -0.04221016
v -0.05487835 -0.03987145 0.09345656
v -0.05487835 -0.03987145 -0.04221016
v -0.06451336 -0.02096169 0.09345656
v -0.06451336 -0.02096168 -0.04221016
v -0.06783336 -1.449829E-08 0.09345656
v -0.06783336 -8.568104E-09 -0.04221016
v -0.06451336 0.02096165 0.09345656
v -0.06451336 0.02096166 -0.04221016
v -0.05487835 0.03987142 0.09345656
v -0.05487835 0.03987143 -0.04221016
v -0.03987145 0.05487832 0.09345656
v -0.03987145 0.05487833 -0.04221016
v -0.02794046 0.06451335 0.09345654
v -0.02794046 0.06451335 -0.04221016
v 0.06451336 0.02096164 0.09345656
v 0.06783336 -1.827228E-08 0.09345656
v 0.06451336 -0.02096168 0.09345656
v 0.05487834 0.03987144 0.09345656
v 0.05487834 -0.03987146 0.09345656
v 0.03987145 0.05487833 0.09345656
v 0.03987145 -0.05487836 0.09345656
v 0.02794047 0.06451335 0.09345654
v 0.02096166 -0.06451338 0.09345656
v 0 0.06783335 0.09345656
v 0.01376373 0.7000812 0.09345659
v -5.930181E-09 -0.06783338 0.09345656
v -8.734363E-09 0.7034013 0.09345659
v -0.02794046 0.06451335 0.09345654
v -0.01376374 0.7000812 0.09345659
v -0.02096166 -0.06451338 0.09345656
v -0.03987146 -0.05487835 0.09345656
v -0.03987145 0.05487832 0.09345656
v -0.05487835 0.03987142 0.09345656
v -0.05487835 -0.03987145 0.09345656
v -0.06451336 0.02096165 0.09345656
v -0.06451336 -0.02096169 0.09345656
v -0.06783336 -1.449829E-08 0.09345656
v 0.06451336 -0.02096167 -0.04221016
v 0.06783336 -1.23421E-08 -0.04221016
v 0.06451336 0.02096165 -0.04221016
v 0.05487834 -0.03987145 -0.04221016
v 0.05487834 0.03987144 -0.04221016
v 0.03987145 -0.05487836 -0.04221016
v 0.03987145 0.05487834 -0.04221016
v 0.02794047 0.06451335 -0.04221016
v 0.02096166 -0.06451338 -0.04221016
v 0 0.06783335 -0.04221016
v -5.930181E-09 -0.06783338 -0.04221016
v -8.734363E-09 0.7034013 -0.04221013
v 0.01376373 0.7000812 -0.04221013
v -0.01376374 0.7000812 -0.04221013
v -0.02794046 0.06451335 -0.04221016
v -0.02096166 -0.06451338 -0.04221016
v -0.03987146 -0.05487834 -0.04221016
v -0.03987145 0.05487833 -0.04221016
v -0.05487835 0.03987143 -0.04221016
v -0.05487835 -0.03987145 -0.04221016
v -0.06451336 -0.02096168 -0.04221016
v -0.06451336 0.02096166 -0.04221016
v -0.06783336 -8.568104E-09 -0.04221016
v -8.734363E-09 0.7034013 -0.04221013
v 0.01376373 0.7000812 -0.04221013
v 0.01376373 0.7000812 0.09345659
v -8.734363E-09 0.7034013 0.09345659
v -0.01376374 0.7000812 -0.04221013
v -8.734363E-09 0.7034013 -0.04221013
v -8.734363E-09 0.7034013 0.09345659
v -0.01376374 0.7000812 0.09345659
v -0.02794046 0.06451335 -0.04221016
v -0.01376374 0.7000812 -0.04221013
v -0.01376374 0.7000812 0.09345659
v -0.02794046 0.06451335 0.09345654
vt 0.390625 0.01111603
vt 0.390625 0.01111603
vt 0.390625 0.01204681
vt 0.390625 0.01204681
vt 0.390625 0.01204681
vt 0.390625 0.01111603
vt 0.390625 0.01111603
vt 0.390625 0.01204681
vt 0.3908691 0.01111603
vt 0.3908691 0.01204681
vt 0.3908691 0.01111603
vt 0.3908691 0.01204681
vt 0.3911133 0.01111603
vt 0.3911133 0.01204681
vt 0.3911133 0.01111603
vt 0.3911133 0.01204681
vt 0.3911133 0.01111603
vt 0.3911133 0.01204681
vt 0.3913574 0.01111603
vt 0.3913574 0.01204681
vt 0.3913574 0.01111603
vt 0.3913574 0.01204681
vt 0.3916016 0.01111603
vt 0.3916016 0.01204681
vt 0.3916016 0.01111603
vt 0.3916016 0.01204681
vt 0.3916016 0.01111603
vt 0.3916016 0.01204681
vt 0.3918457 0.01111603
vt 0.3918457 0.01204681
vt 0.3918457 0.01111603
vt 0.3918457 0.01204681
vt 0.3918457 0.01111603
vt 0.3918457 0.01204681
vt 0.3920898 0.01111603
vt 0.3920898 0.01204681
vt 0.3920898 0.01111603
vt 0.3920898 0.01204681
vt 0.392334 0.01111603
vt 0.392334 0.01204681
vt 0.392334 0.01111603
vt 0.392334 0.01204681
vt 0.3977051 0.05267334
vt 0.3977051 0.05282593
vt 0.3977051 0.052948
vt 0.3977051 0.05255127
vt 0.3977051 0.05307007
vt 0.3979492 0.05245972
vt 0.3979492 0.05319214
vt 0.3979492 0.05239868
vt 0.3979492 0.05325317
vt 0.3981934 0.05236816
vt 0.3979492 0.05239868
vt 0.3981934 0.05325317
vt 0.3981934 0.05236816
vt 0.3981934 0.05239868
vt 0.3981934 0.05239868
vt 0.3981934 0.05325317
vt 0.3984375 0.05319214
vt 0.3984375 0.05245972
vt 0.3984375 0.05255127
vt 0.3984375 0.05307007
vt 0.3986816 0.05267334
vt 0.3986816 0.052948
vt 0.3986816 0.05282593
vt 0.3967285 0.052948
vt 0.3967285 0.05282593
vt 0.3967285 0.05267334
vt 0.3969727 0.05307007
vt 0.3969727 0.05255127
vt 0.3969727 0.05319214
vt 0.3969727 0.05245972
vt 0.3969727 0.05239868
vt 0.3969727 0.05325317
vt 0.3972168 0.05236816
vt 0.3972168 0.05325317
vt 0.3972168 0.05236816
vt 0.3969727 0.05239868
vt 0.3974609 0.05239868
vt 0.3974609 0.05239868
vt 0.3974609 0.05325317
vt 0.3974609 0.05319214
vt 0.3974609 0.05245972
vt 0.3974609 0.05255127
vt 0.3974609 0.05307007
vt 0.3977051 0.052948
vt 0.3977051 0.05267334
vt 0.3977051 0.05282593
vt 0.390625 0.01204681
vt 0.390625 0.01204681
vt 0.390625 0.01111603
vt 0.390625 0.01111603
vt 0.392334 0.01204681
vt 0.392334 0.01204681
vt 0.392334 0.01111603
vt 0.392334 0.01111603
vt 0.392334 0.01204681
vt 0.392334 0.01204681
vt 0.392334 0.01111603
vt 0.392334 0.01111603
vn 0.9995117 0.02229309 0
vn 0.9995117 0.02229309 0
vn 0.9995117 0.02229309 0
vn 0.9995117 0.02229309 0
vn 0.628418 0.777832 0
vn 0.668457 0.7436523 0
vn 0.628418 0.777832 0
vn 0.668457 0.7436523 0
vn 0.809082 0.5878906 0
vn 0.809082 0.5878906 0
vn 0.9511719 0.309082 0
vn 0.9511719 0.309082 0
vn 1 0 0
vn 1 0 0
vn 0.9511719 -0.309082 0
vn 0.9511719 -0.309082 0
vn 0.809082 -0.5878906 0
vn 0.809082 -0.5878906 0
vn 0.5878906 -0.809082 0
vn 0.5878906 -0.809082 0
vn 0.309082 -0.9511719 0
vn 0.309082 -0.9511719 0
vn 0 -1 0
vn 0 -1 0
vn -0.309082 -0.9511719 0
vn -0.309082 -0.9511719 0
vn -0.5878906 -0.809082 0
vn -0.5878906 -0.809082 0
vn -0.809082 -0.5878906 0
vn -0.809082 -0.5878906 0
vn -0.9511719 -0.309082 0
vn -0.9511719 -0.309082 0
vn -1 0 0
vn -1 0 0
vn -0.9511719 0.309082 0
vn -0.9511719 0.309082 0
vn -0.809082 0.5878906 0
vn -0.809082 0.5878906 0
vn -0.668457 0.7436523 0
vn -0.668457 0.7436523 0
vn -0.628418 0.777832 0
vn -0.628418 0.777832 0
vn 0 1.192093E-07 1
vn 0 1.192093E-07 1
vn 0 1.192093E-07 1
vn 0 1.192093E-07 1
vn 0 1.192093E-07 1
vn 0 1.192093E-07 1
vn 0 1.192093E-07 1
vn 2.384186E-07 0 1
vn 0 1.192093E-07 1
vn 0 0 1
vn 7.152557E-07 0 1
vn 0 1.192093E-07 1
vn 0 0 1
vn -2.384186E-07 0 1
vn -7.152557E-07 0 1
vn 0 1.192093E-07 1
vn 0 1.192093E-07 1
vn 0 1.192093E-07 1
vn 0 1.192093E-07 1
vn 0 1.192093E-07 1
vn 0 1.192093E-07 1
vn 0 1.192093E-07 1
vn 0 1.192093E-07 1
vn 0 0 -1
vn 0 0 -1
vn 0 0 -1
vn 0 0 -1
vn 0 0 -1
vn 0 0 -1
vn 0 0 -1
vn 0 0 -1
vn 0 0 -1
vn 0 0 -1
vn 0 0 -1
vn 0 0 -1
vn 0 0 -1
vn 0 0 -1
vn 0 0 -1
vn 0 0 -1
vn 0 0 -1
vn 0 0 -1
vn 0 0 -1
vn 0 0 -1
vn 0 0 -1
vn 0 0 -1
vn 0 0 -1
vn 0 1 0
vn 0.2344971 0.972168 0
vn 0.2344971 0.972168 0
vn 0 1 0
vn -0.2344971 0.972168 0
vn 0 1 0
vn 0 1 0
vn -0.2344971 0.972168 0
vn -0.9995117 0.02229309 0
vn -0.9995117 0.02229309 0
vn -0.9995117 0.02229309 0
vn -0.9995117 0.02229309 0
g scorpion_0
f 3/3/3 2/2/2 1/1/1
f 4/4/4 3/3/3 1/1/1
f 7/7/7 6/6/6 5/5/5
f 6/6/6 8/8/8 5/5/5
f 6/6/6 9/9/9 8/8/8
f 9/9/9 10/10/10 8/8/8
f 9/9/9 11/11/11 10/10/10
f 11/11/11 12/12/12 10/10/10
f 11/11/11 13/13/13 12/12/12
f 13/13/13 14/14/14 12/12/12
f 13/13/13 15/15/15 14/14/14
f 15/15/15 16/16/16 14/14/14
f 15/15/15 17/17/17 16/16/16
f 17/17/17 18/18/18 16/16/16
f 17/17/17 19/19/19 18/18/18
f 19/19/19 20/20/20 18/18/18
f 19/19/19 21/21/21 20/20/20
f 21/21/21 22/22/22 20/20/20
f 21/21/21 23/23/23 22/22/22
f 23/23/23 24/24/24 22/22/22
f 23/23/23 25/25/25 24/24/24
f 25/25/25 26/26/26 24/24/24
f 25/25/25 27/27/27 26/26/26
f 27/27/27 28/28/28 26/26/26
f 27/27/27 29/29/29 28/28/28
f 29/29/29 30/30/30 28/28/28
f 29/29/29 31/31/31 30/30/30
f 31/31/31 32/32/32 30/30/30
f 31/31/31 33/33/33 32/32/32
f 33/33/33 34/34/34 32/32/32
f 33/33/33 35/35/35 34/34/34
f 35/35/35 36/36/36 34/34/34
f 35/35/35 37/37/37 36/36/36
f 37/37/37 38/38/38 36/36/36
f 37/37/37 39/39/39 38/38/38
f 39/39/39 40/40/40 38/38/38
f 39/39/39 41/41/41 40/40/40
f 41/41/41 42/42/42 40/40/40
f 45/45/45 44/44/44 43/43/43
f 43/43/43 46/46/46 45/45/45
f 46/46/46 47/47/47 45/45/45
f 46/46/46 48/48/48 47/47/47
f 48/48/48 49/49/49 47/47/47
f 48/48/48 50/50/50 49/49/49
f 50/50/50 51/51/51 49/49/49
f 50/50/50 52/52/52 51/51/51
f 50/50/50 53/53/53 52/52/52
f 52/52/52 54/54/54 51/51/51
f 53/53/53 55/55/55 52/52/52
f 52/52/52 56/56/56 54/54/54
f 52/52/52 55/55/55 56/56/56
f 55/55/55 57/57/57 56/56/56
f 56/56/56 58/58/58 54/54/54
f 56/56/56 59/59/59 58/58/58
f 56/56/56 60/60/60 59/59/59
f 60/60/60 61/61/61 59/59/59
f 61/61/61 62/62/62 59/59/59
f 61/61/61 63/63/63 62/62/62
f 63/63/63 64/64/64 62/62/62
f 63/63/63 65/65/65 64/64/64
f 68/68/68 67/67/67 66/66/66
f 66/66/66 69/69/69 68/68/68
f 69/69/69 70/70/70 68/68/68
f 69/69/69 71/71/71 70/70/70
f 71/71/71 72/72/72 70/70/70
f 71/71/71 73/73/73 72/72/72
f 71/71/71 74/74/74 73/73/73
f 74/74/74 75/75/75 73/73/73
f 74/74/74 76/76/76 75/75/75
f 75/75/75 77/77/77 73/73/73
f 77/77/77 78/78/78 73/73/73
f 79/79/79 77/77/77 75/75/75
f 80/80/80 79/79/79 75/75/75
f 76/76/76 80/80/80 75/75/75
f 76/76/76 81/81/81 80/80/80
f 81/81/81 82/82/82 80/80/80
f 82/82/82 83/83/83 80/80/80
f 82/82/82 84/84/84 83/83/83
f 82/82/82 85/85/85 84/84/84
f 85/85/85 86/86/86 84/84/84
f 86/86/86 87/87/87 84/84/84
f 86/86/86 88/88/88 87/87/87
f 91/91/91 90/90/90 89/89/89
f 92/92/92 91/91/91 89/89/89
f 95/95/95 94/94/94 93/93/93
f 96/96/96 95/95/95 93/93/93
f 99/99/99 98/98/98 97/97/97
f 100/100/100 99/99/99 97/97/97
