g Shotgun_Part03
v 0.001187527 -0.01499615 -0.002751816
v 0.001187527 -0.004499225 -0.001601227
v -0.001187526 -0.004499225 -0.001601228
v -0.001187526 -0.01499615 -0.002751817
v -0.001187527 -0.004347591 0.001124374
v 0.001187527 -0.004347591 0.001124374
v 0.001187527 -0.01472817 -0.000940276
v -0.001187527 -0.01472817 -0.0009402764
v -0.001187526 -0.01499615 -0.002751817
v -0.001187526 -0.004499225 -0.001601228
v -0.001187527 -0.004347591 0.001124374
v -0.001187527 -0.01472817 -0.0009402764
v -0.001187527 -0.0233038 0.0008060414
v -0.001187527 -0.02295606 0.001991006
v -0.001187527 -0.0233038 0.0008060414
v -0.001187527 -0.02295606 0.001991006
v 0.001187527 -0.02295606 0.001991007
v 0.001187527 -0.0233038 0.0008060419
v 0.001187527 -0.01499615 -0.002751816
v 0.001187527 -0.0233038 0.0008060419
v 0.001187527 -0.02295606 0.001991007
v 0.001187527 -0.01472817 -0.000940276
v 0.001187527 -0.004499225 -0.001601227
v 0.001187527 -0.004347591 0.001124374
v 0.001187527 -0.0233038 0.0008060419
v 0.001187527 -0.01499615 -0.002751816
v -0.001187526 -0.01499615 -0.002751817
v -0.001187527 -0.0233038 0.0008060414
v -0.001187527 -0.02295606 0.001991006
v -0.001187527 -0.01472817 -0.0009402764
v 0.001187527 -0.01472817 -0.000940276
v 0.001187527 -0.02295606 0.001991007
vt 0.4695193 0.977604
vt 0.4695193 0.9774976
vt 0.4693065 0.9774976
vt 0.4693065 0.977604
vt 0.4695193 0.9774976
vt 0.4693065 0.9774976
vt 0.4693065 0.977604
vt 0.4695193 0.977604
vt 0.4694129 0.9774976
vt 0.4693065 0.9774976
vt 0.4693065 0.9777104
vt 0.4694129 0.9777104
vt 0.4695193 0.9774976
vt 0.4695193 0.9777104
vt 0.4693065 0.9774976
vt 0.4693065 0.9777104
vt 0.4695193 0.9777104
vt 0.4695193 0.9774976
vt 0.4694129 0.9774976
vt 0.4693065 0.9774976
vt 0.4693065 0.9777104
vt 0.4694129 0.9777104
vt 0.4695193 0.9774976
vt 0.4695193 0.9777104
vt 0.4695193 0.9777104
vt 0.4695193 0.977604
vt 0.4693065 0.977604
vt 0.4693065 0.9777104
vt 0.4695193 0.9777104
vt 0.4695193 0.977604
vt 0.4693065 0.977604
vt 0.4693065 0.9777104
vn 0 0.132076 -0.9912396
vn 0 0.131199 -0.991356
vn 0 0.131199 -0.991356
vn 0 0.1321052 -0.9912356
vn 0 -0.2243718 0.9745036
vn 0 -0.2243718 0.9745036
vn 0 -0.2243109 0.9745176
vn 0 -0.2243109 0.9745176
vn -1 0 0
vn -1 0 0
vn -1 0 0
vn -1 0 0
vn -1 0 0
vn -1 0 0
vn 0 -0.9629152 0.2698044
vn 0 -0.9630393 0.2693607
vn 0 -0.9630393 0.2693607
vn 0 -0.9629152 0.2698044
vn 1 0 0
vn 1 0 0
vn 1 0 0
vn 1 0 0
vn 1 0 0
vn 1 0 0
vn 0 -0.4157176 -0.9094937
vn 0 -0.4149792 -0.9098309
vn 0 -0.4149792 -0.9098309
vn 0 -0.4157176 -0.9094937
vn 0 0.3506333 0.9365129
vn 0 0.3529281 0.9356505
vn 0 0.3529281 0.9356505
vn 0 0.3506333 0.9365129
g Shotgun_Part03_0
f 3/3/3 2/2/2 1/1/1
f 4/4/4 3/3/3 1/1/1
f 7/7/7 6/6/6 5/5/5
f 8/8/8 7/7/7 5/5/5
f 11/11/11 10/10/10 9/9/9
f 12/12/12 11/11/11 9/9/9
f 12/12/12 9/9/9 13/13/13
f 14/14/14 12/12/12 13/13/13
f 17/17/17 16/16/16 15/15/15
f 18/18/18 17/17/17 15/15/15
f 21/21/21 20/20/20 19/19/19
f 22/22/22 21/21/21 19/19/19
f 22/22/22 19/19/19 23/23/23
f 24/24/24 22/22/22 23/23/23
f 27/27/27 26/26/26 25/25/25
f 28/28/28 27/27/27 25/25/25
f 31/31/31 30/30/30 29/29/29
f 32/32/32 31/31/31 29/29/29
