g SM_PROP_skeleton_skull_jaw_03
v 0.09693195 -0.04041066 0.1884105
v 0.1255912 -0.04785787 0.1764774
v 0.1258419 -0.001027246 0.1919504
v 0.1099025 0.002477058 0.2016088
v 0.03836248 -0.1590236 0.3238803
v 0 -0.1570781 0.3347365
v 0 -0.057288 0.3080552
v 0.03457579 -0.06249069 0.3005688
v 0.07936516 -0.1618396 0.2766597
v 0.03641773 0.0121441 0.2844014
v 0 0.01711396 0.3035251
v 0.07428601 0.006980116 0.2673074
v 0.07163671 -0.0640747 0.2725023
v 0.1117031 -0.1627108 0.2281207
v 0.1045785 4.422758E-05 0.2309843
v 0.1005373 -0.05672015 0.2283368
v 0.1255912 -0.04785787 0.1764774
v 0.1258419 -0.001027246 0.1919504
v 0.1315044 -0.1542534 0.1533763
v 0.1597291 -0.007170569 0.1158721
v 0.181728 -0.09304616 0.05289216
v 0.1904081 -0.1431434 -0.02342529
v 0.1871657 -0.06169979 -0.03387272
v 0.1925004 0.007294765 0.001126146
v 0.2022811 0.0938885 0.04700299
v 0.2171401 0.06835584 -0.03952288
v 0.2043181 0.08554837 -0.107568
v 0.2561928 0.127864 -0.02296733
v 0.1315044 -0.1542534 0.1533763
v 0.1904081 -0.1431434 -0.02342529
v 0.1548545 -0.1460399 -0.01261751
v 0.08396598 -0.1717516 0.1475173
v 0.1117031 -0.1627108 0.2281207
v 0.05343922 -0.1662434 0.2179053
v 0.07936516 -0.1618396 0.2766597
v 0.03836248 -0.1590236 0.3238803
v 0.02655565 -0.1598943 0.2496059
v 0 -0.156598 0.262091
v 0 -0.1570781 0.3347365
v 0.1625887 -0.06342594 -0.03218378
v 0.1757542 0.08359201 -0.1126785
v 0.1983044 0.06897823 -0.03504933
v 0.1649138 0.01237647 0.004620555
v 0.1780924 0.09695426 0.0468796
v 0.2234191 0.1267075 -0.01845497
v 0.1245831 -0.009610342 0.1233247
v 0.1488029 -0.1092964 0.04857451
v 0.1548545 -0.1460399 -0.01261751
v 0.09693195 -0.04041066 0.1884105
v 0.08396598 -0.1717516 0.1475173
v 0.07534156 -0.04625013 0.2568079
v 0.05343922 -0.1662434 0.2179053
v 0.07595269 0.007981309 0.2515108
v 0.1099025 0.002477058 0.2016088
v 0.0302715 0.01184687 0.2737307
v 0.03442555 -0.05106831 0.2865453
v 0.02655565 -0.1598943 0.2496059
v 0 -0.156598 0.262091
v 0 -0.04789519 0.2939609
v 0 0.01545413 0.2870822
v 0.1904081 -0.1431434 -0.02342529
v 0.1625887 -0.06342594 -0.03218378
v 0.1548545 -0.1460399 -0.01261751
v 0.1871657 -0.06169979 -0.03387272
v 0.1757542 0.08359201 -0.1126785
v 0.2043181 0.08554837 -0.107568
v 0.1757542 0.08359201 -0.1126785
v 0.2043181 0.08554837 -0.107568
v 0.2171401 0.06835584 -0.03952288
v 0.1983044 0.06897823 -0.03504933
v 0.1780924 0.09695426 0.0468796
v 0.2234191 0.1267075 -0.01845497
v 0.2561928 0.127864 -0.02296733
v 0.2022811 0.0938885 0.04700299
v 0.1245831 -0.009610342 0.1233247
v 0.1597291 -0.007170569 0.1158721
v 0.1255912 -0.04785787 0.1764774
v 0.09693195 -0.04041066 0.1884105
v 0.2171401 0.06835584 -0.03952288
v 0.2561928 0.127864 -0.02296733
v 0.2234191 0.1267075 -0.01845497
v 0.1983044 0.06897823 -0.03504933
v 0.03641773 0.0121441 0.2844014
v 0 0.01711396 0.3035251
v 0 0.01545413 0.2870822
v 0.0302715 0.01184687 0.2737307
v 0.07595269 0.007981309 0.2515108
v 0.07428601 0.006980116 0.2673074
v 0.1045785 4.422758E-05 0.2309843
v 0.1099025 0.002477058 0.2016088
v 0.1258419 -0.001027246 0.1919504
v -0.09693195 -0.04041066 0.1884105
v -0.1099025 0.002477058 0.2016088
v -0.1258419 -0.001027246 0.1919504
v -0.1255912 -0.04785787 0.1764774
v -0.07595269 0.007981309 0.2515108
v -0.0302715 0.01184687 0.2737307
v -0.03641773 0.0121441 0.2844014
v 0 0.01545413 0.2870822
v 0 0.01711396 0.3035251
v -0.03836248 -0.1590236 0.3238803
v 0 -0.057288 0.3080552
v 0 -0.1570781 0.3347365
v -0.03457579 -0.06249069 0.3005688
v -0.07936516 -0.1618396 0.2766597
v -0.03641773 0.0121441 0.2844014
v 0 0.01711396 0.3035251
v -0.07428601 0.006980116 0.2673074
v -0.07163671 -0.0640747 0.2725023
v -0.1117031 -0.1627108 0.2281207
v -0.1045785 4.422758E-05 0.2309843
v -0.1005373 -0.05672015 0.2283368
v -0.1255912 -0.04785787 0.1764774
v -0.1258419 -0.001027246 0.1919504
v -0.1315044 -0.1542534 0.1533763
v -0.1597291 -0.007170569 0.1158721
v -0.181728 -0.09304616 0.05289216
v -0.1904081 -0.1431434 -0.02342529
v -0.1925004 0.007294765 0.001126146
v -0.1871657 -0.06169979 -0.03387272
v -0.2171401 0.06835584 -0.03952288
v -0.2043181 0.08554837 -0.107568
v -0.1597291 -0.007170569 0.1158721
v -0.1925004 0.007294765 0.001126146
v -0.2022811 0.0938885 0.04700299
v -0.2171401 0.06835584 -0.03952288
v -0.2561928 0.127864 -0.02296733
v -0.1315044 -0.1542534 0.1533763
v -0.1548545 -0.1460399 -0.01261751
v -0.1904081 -0.1431434 -0.02342529
v -0.08396598 -0.1717516 0.1475173
v -0.1117031 -0.1627108 0.2281207
v -0.05343922 -0.1662434 0.2179053
v -0.07936516 -0.1618396 0.2766597
v -0.03836248 -0.1590236 0.3238803
v -0.02655565 -0.1598943 0.2496059
v 0 -0.156598 0.262091
v 0 -0.1570781 0.3347365
v -0.1045785 4.422758E-05 0.2309843
v -0.07595269 0.007981309 0.2515108
v -0.07428601 0.006980116 0.2673074
v -0.03641773 0.0121441 0.2844014
v -0.07595269 0.007981309 0.2515108
v -0.1045785 4.422758E-05 0.2309843
v -0.1099025 0.002477058 0.2016088
v -0.1258419 -0.001027246 0.1919504
v -0.1625887 -0.06342594 -0.03218378
v -0.1983044 0.06897823 -0.03504933
v -0.1757542 0.08359201 -0.1126785
v -0.1649138 0.01237647 0.004620555
v -0.1780924 0.09695426 0.0468796
v -0.2234191 0.1267075 -0.01845497
v -0.1245831 -0.009610342 0.1233247
v -0.1488029 -0.1092964 0.04857451
v -0.1548545 -0.1460399 -0.01261751
v -0.09693195 -0.04041066 0.1884105
v -0.08396598 -0.1717516 0.1475173
v -0.07534156 -0.04625013 0.2568079
v -0.05343922 -0.1662434 0.2179053
v -0.07595269 0.007981309 0.2515108
v -0.1099025 0.002477058 0.2016088
v -0.0302715 0.01184687 0.2737307
v -0.03442555 -0.05106831 0.2865453
v -0.02655565 -0.1598943 0.2496059
v 0 -0.156598 0.262091
v 0 -0.04789519 0.2939609
v 0 0.01545413 0.2870822
v -0.1904081 -0.1431434 -0.02342529
v -0.1548545 -0.1460399 -0.01261751
v -0.1625887 -0.06342594 -0.03218378
v -0.1871657 -0.06169979 -0.03387272
v -0.1757542 0.08359201 -0.1126785
v -0.2043181 0.08554837 -0.107568
v -0.1757542 0.08359201 -0.1126785
v -0.1983044 0.06897823 -0.03504933
v -0.2171401 0.06835584 -0.03952288
v -0.2043181 0.08554837 -0.107568
v -0.1780924 0.09695426 0.0468796
v -0.2561928 0.127864 -0.02296733
v -0.2234191 0.1267075 -0.01845497
v -0.2022811 0.0938885 0.04700299
v -0.1245831 -0.009610342 0.1233247
v -0.1597291 -0.007170569 0.1158721
v -0.1255912 -0.04785787 0.1764774
v -0.09693195 -0.04041066 0.1884105
v -0.2171401 0.06835584 -0.03952288
v -0.1983044 0.06897823 -0.03504933
v -0.2234191 0.1267075 -0.01845497
v -0.2561928 0.127864 -0.02296733
vt 0.5913086 0.4768066
vt 0.5537109 0.5
vt 0.625 0.5
vt 0.6645508 0.4768066
vt 0.02702332 0.1141357
vt 0.0004136562 0.1138306
vt 0.0004136562 0.05856323
vt 0.02812195 0.0597229
vt 0.05734253 0.1127319
vt 0.02862549 0.01488495
vt 0.0004136562 0.01462555
vt 0.05895996 0.01403809
vt 0.05847168 0.06262207
vt 0.09594727 0.1101074
vt 0.09442139 0.01924133
vt 0.0949707 0.05801392
vt 0.1330566 0.06286621
vt 0.1259766 0.02217102
vt 0.1557617 0.1049194
vt 0.171875 0.02929688
vt 0.1922607 0.06951904
vt 0.2131348 0.1037598
vt 0.2670898 0.08251953
vt 0.2521973 0.04263306
vt 0.2158203 0.005222321
vt 0.3618164 0.01328278
vt 0.427002 0.03970337
vt 0.2746582 0.002922058
vt 0.7973633 0.7543945
vt 0.6352539 0.746582
vt 0.6455078 0.7788086
vt 0.7929688 0.8139648
vt 0.8662109 0.7729492
vt 0.8598633 0.8466797
vt 0.9130859 0.8212891
vt 0.9599609 0.8701172
vt 0.890625 0.8798828
vt 0.9033203 0.9082031
vt 0.972168 0.9052734
vt 0.296875 0.07196045
vt 0.4309082 0.06204224
vt 0.4157715 0.03875732
vt 0.3144531 0.05612183
vt 0.3129883 0.00226593
vt 0.3833008 -0.001860619
vt 0.1925049 0.04135132
vt 0.210083 0.08477783
vt 0.2775879 0.1286621
vt 0.1312256 0.06298828
vt 0.1523438 0.1152954
vt 0.07904053 0.0536499
vt 0.0703125 0.1223755
vt 0.08233643 0.01927185
vt 0.1278076 0.03375244
vt 0.02912903 0.01791382
vt 0.03359985 0.05541992
vt 0.03182983 0.1206055
vt -3.457069E-06 0.1192017
vt 0.0005755424 0.05670166
vt 0.0006217957 0.0171814
vt 0.6352539 0.746582
vt 0.5493164 0.7861328
vt 0.6455078 0.7788086
vt 0.5419922 0.762207
vt 0.3857422 0.8183594
vt 0.3793945 0.7919922
vt 0.3857422 0.8183594
vt 0.3793945 0.7919922
vt 0.3132324 0.7719727
vt 0.310791 0.7905273
vt 0.1947021 0.8071289
vt 0.2563477 0.7602539
vt 0.2575684 0.7294922
vt 0.1906738 0.7792969
vt 0.08221436 0.8491211
vt 0.08111572 0.8085938
vt 0.02355957 0.8481445
vt 0.02627563 0.890625
vt 0.3132324 0.7719727
vt 0.2575684 0.7294922
vt 0.2563477 0.7602539
vt 0.310791 0.7905273
vt 0.02635193 0.02087402
vt 0.002630234 0.02087402
vt 0.0007915497 0.07244873
vt 0.02537537 0.07244873
vt 0.07574463 0.07165527
vt 0.06286621 0.02087402
vt 0.1013794 0.02474976
vt 0.1337891 0.07244873
vt 0.1269531 0.03016663
vt 0.5913086 0.4768066
vt 0.6645508 0.4768066
vt 0.625 0.5
vt 0.5537109 0.5
vt 0.07574463 0.07165527
vt 0.02537537 0.07244873
vt 0.02635193 0.02087402
vt 0.0007915497 0.07244873
vt 0.002630234 0.02087402
vt 0.02702332 0.1141357
vt 0.0004136562 0.05856323
vt 0.0004136562 0.1138306
vt 0.02812195 0.0597229
vt 0.05734253 0.1127319
vt 0.02862549 0.01488495
vt 0.0004136562 0.01462555
vt 0.05895996 0.01403809
vt 0.05847168 0.06262207
vt 0.09594727 0.1101074
vt 0.09442139 0.01924133
vt 0.0949707 0.05801392
vt 0.1330566 0.06286621
vt 0.1259766 0.02217102
vt 0.1557617 0.1049194
vt 0.171875 0.02929688
vt 0.1922607 0.06951904
vt 0.2131348 0.1037598
vt 0.2521973 0.04263306
vt 0.2670898 0.08251953
vt 0.3618164 0.01328278
vt 0.427002 0.03970337
vt 0.171875 0.02929688
vt 0.2521973 0.04263306
vt 0.2158203 0.005222321
vt 0.3618164 0.01328278
vt 0.2746582 0.002922058
vt 0.7973633 0.7543945
vt 0.6455078 0.7788086
vt 0.6352539 0.746582
vt 0.7929688 0.8139648
vt 0.8662109 0.7729492
vt 0.8598633 0.8466797
vt 0.9130859 0.8212891
vt 0.9599609 0.8701172
vt 0.890625 0.8798828
vt 0.9033203 0.9082031
vt 0.972168 0.9052734
vt 0.1013794 0.02474976
vt 0.07574463 0.07165527
vt 0.06286621 0.02087402
vt 0.02635193 0.02087402
vt 0.07574463 0.07165527
vt 0.1013794 0.02474976
vt 0.1337891 0.07244873
vt 0.1269531 0.03016663
vt 0.296875 0.07196045
vt 0.4157715 0.03875732
vt 0.4309082 0.06204224
vt 0.3144531 0.05612183
vt 0.3129883 0.00226593
vt 0.3833008 -0.001860619
vt 0.1925049 0.04135132
vt 0.210083 0.08477783
vt 0.2775879 0.1286621
vt 0.1312256 0.06298828
vt 0.1523438 0.1152954
vt 0.07904053 0.0536499
vt 0.0703125 0.1223755
vt 0.08233643 0.01927185
vt 0.1278076 0.03375244
vt 0.02912903 0.01791382
vt 0.03359985 0.05541992
vt 0.03182983 0.1206055
vt -3.457069E-06 0.1192017
vt 0.0005755424 0.05670166
vt 0.0006217957 0.0171814
vt 0.6352539 0.746582
vt 0.6455078 0.7788086
vt 0.5493164 0.7861328
vt 0.5419922 0.762207
vt 0.3857422 0.8183594
vt 0.3793945 0.7919922
vt 0.3857422 0.8183594
vt 0.310791 0.7905273
vt 0.3132324 0.7719727
vt 0.3793945 0.7919922
vt 0.1947021 0.8071289
vt 0.2575684 0.7294922
vt 0.2563477 0.7602539
vt 0.1906738 0.7792969
vt 0.08221436 0.8491211
vt 0.08111572 0.8085938
vt 0.02355957 0.8481445
vt 0.02627563 0.890625
vt 0.3132324 0.7719727
vt 0.310791 0.7905273
vt 0.2563477 0.7602539
vt 0.2575684 0.7294922
vn -0.8066406 0.2363281 -0.5415039
vn -0.3439941 0.331543 -0.878418
vn -0.3439941 0.331543 -0.878418
vn -0.6875 0.2568359 -0.6791992
vn 0.4841309 0.1999512 0.8520508
vn 0 0.251709 0.9677734
vn 0 0.1895752 0.9819336
vn 0.4665527 0.1600342 0.8696289
vn 0.7661133 0.1142578 0.6323242
vn 0.3491211 0.7578125 0.5512695
vn 0 0.1328125 0.9912109
vn 0.5751953 0.6069336 0.5483398
vn 0.7207031 0.08282471 0.6884766
vn 0.8911133 0.0635376 0.4494629
vn 0.7568359 0.4995117 0.4211426
vn 0.8740234 -0.003259659 0.4863281
vn 0.8168945 0.2408447 0.5239258
vn 0.8862305 0.1489258 0.4384766
vn 0.7226563 -0.6474609 0.2421875
vn 0.7104492 0.291748 0.640625
vn 0.9594727 -0.1021729 0.2626953
vn 0.8730469 -0.4729004 0.1199951
vn 0.7382813 -0.2832031 -0.6118164
vn 0.9711914 -0.197876 0.1324463
vn 0.637207 0.3977051 0.6601563
vn 0.9394531 -0.3244629 0.1112061
vn 0.5263672 -0.4707031 -0.7080078
vn 0.8725586 -0.4069824 0.2700195
vn 0.7226563 -0.6474609 0.2421875
vn 0.8730469 -0.4729004 0.1199951
vn 0.2375488 -0.9711914 -0.01464844
vn 0.208374 -0.9780273 0.02090454
vn 0.1235962 -0.9907227 0.05212402
vn 0.05703735 -0.9970703 0.05221558
vn 0.03012085 -0.9975586 0.06149292
vn -0.06610107 -0.9975586 0.02444458
vn -0.1455078 -0.9887695 0.0292511
vn 0 -1 0.008888245
vn 0 -1 0.008888245
vn -0.7167969 -0.1213989 -0.6870117
vn -0.5620117 0.8051758 0.1878662
vn -0.7529297 0.6054688 -0.2578125
vn -0.9599609 0.2235107 -0.1679688
vn -0.8896484 0.3349609 -0.3103027
vn -0.486084 0.4008789 -0.7763672
vn -0.9296875 0.1491699 -0.3369141
vn -0.9370117 0.1879883 -0.2949219
vn -0.7832031 0.05059814 -0.6196289
vn -0.8066406 0.2363281 -0.5415039
vn -0.9013672 0.2235107 -0.3713379
vn -0.7636719 0.1363525 -0.6308594
vn -0.8173828 0.2758789 -0.5058594
vn -0.7397461 0.005222321 -0.6728516
vn -0.6875 0.2568359 -0.6791992
vn -0.4106445 -0.1524658 -0.8989258
vn -0.4462891 0.09375 -0.8901367
vn -0.4899902 0.3161621 -0.8125
vn 0 0.310791 -0.9506836
vn 0 0.06005859 -0.9980469
vn 0 -0.1647949 -0.9863281
vn -0.1877441 -0.1717529 -0.9672852
vn -0.7167969 -0.1213989 -0.6870117
vn -0.7832031 0.05059814 -0.6196289
vn 0.7382813 -0.2832031 -0.6118164
vn 0.08911133 -0.4694824 -0.878418
vn 0.5263672 -0.4707031 -0.7080078
vn -0.5620117 0.8051758 0.1878662
vn -0.03039551 0.9750977 0.2202148
vn -0.03039551 0.9750977 0.2202148
vn -0.7529297 0.6054688 -0.2578125
vn 0.09606934 0.684082 0.7231445
vn 0.06536865 0.8833008 0.4641113
vn 0.06536865 0.8833008 0.4641113
vn 0.637207 0.3977051 0.6601563
vn 0.1972656 0.722168 0.6630859
vn 0.7104492 0.291748 0.640625
vn 0.8168945 0.2408447 0.5239258
vn 0.2337646 0.7915039 0.5649414
vn -0.1641846 0.3505859 -0.921875
vn -0.1641846 0.3505859 -0.921875
vn -0.486084 0.4008789 -0.7763672
vn -0.7529297 0.6054688 -0.2578125
vn 0.3491211 0.7578125 0.5512695
vn 0 0.9951172 -0.1004639
vn 0 0.9951172 -0.09637451
vn 0.07080078 0.9951172 -0.06848145
vn 0.2807617 0.9560547 0.08624268
vn 0.5751953 0.6069336 0.5483398
vn 0.7568359 0.4995117 0.4211426
vn 0.2995605 0.9448242 0.1325684
vn 0.8862305 0.1489258 0.4384766
vn 0.8066406 0.2363281 -0.5415039
vn 0.6875 0.2568359 -0.6791992
vn 0.3439941 0.331543 -0.878418
vn 0.3439941 0.331543 -0.878418
vn -0.2807617 0.9560547 0.08624268
vn -0.07080078 0.9951172 -0.06848145
vn -0.3491211 0.7578125 0.5512695
vn 0 0.9951172 -0.09637451
vn 0 0.9951172 -0.1004639
vn -0.4841309 0.1999512 0.8520508
vn 0 0.1895752 0.9819336
vn 0 0.251709 0.9677734
vn -0.4665527 0.1600342 0.8696289
vn -0.7661133 0.1142578 0.6323242
vn -0.3491211 0.7578125 0.5512695
vn 0 0.1328125 0.9912109
vn -0.5751953 0.6069336 0.5483398
vn -0.7207031 0.08282471 0.6884766
vn -0.8911133 0.0635376 0.4494629
vn -0.7568359 0.4995117 0.4211426
vn -0.8740234 -0.003259659 0.4863281
vn -0.8168945 0.2408447 0.5239258
vn -0.8862305 0.1489258 0.4384766
vn -0.7226563 -0.6474609 0.2421875
vn -0.7104492 0.291748 0.640625
vn -0.9594727 -0.1021729 0.2626953
vn -0.8730469 -0.4729004 0.1199951
vn -0.9711914 -0.197876 0.1324463
vn -0.7382813 -0.2832031 -0.6118164
vn -0.9394531 -0.3244629 0.1112061
vn -0.5263672 -0.4707031 -0.7080078
vn -0.7104492 0.291748 0.640625
vn -0.9711914 -0.197876 0.1324463
vn -0.637207 0.3977051 0.6601563
vn -0.9394531 -0.3244629 0.1112061
vn -0.8725586 -0.4069824 0.2700195
vn -0.7226563 -0.6474609 0.2421875
vn -0.2375488 -0.9711914 -0.01464844
vn -0.8730469 -0.4729004 0.1199951
vn -0.208374 -0.9780273 0.02090454
vn -0.1235962 -0.9907227 0.05212402
vn -0.05703735 -0.9970703 0.05221558
vn -0.03012085 -0.9975586 0.06149292
vn 0.06610107 -0.9975586 0.02444458
vn 0.1455078 -0.9887695 0.0292511
vn 0 -1 0.008888245
vn 0 -1 0.008888245
vn -0.7568359 0.4995117 0.4211426
vn -0.2807617 0.9560547 0.08624268
vn -0.5751953 0.6069336 0.5483398
vn -0.3491211 0.7578125 0.5512695
vn -0.2807617 0.9560547 0.08624268
vn -0.7568359 0.4995117 0.4211426
vn -0.2995605 0.9448242 0.1325684
vn -0.8862305 0.1489258 0.4384766
vn 0.7167969 -0.1213989 -0.6870117
vn 0.7529297 0.6054688 -0.2578125
vn 0.5620117 0.8051758 0.1878662
vn 0.9599609 0.2235107 -0.1679688
vn 0.8896484 0.3349609 -0.3103027
vn 0.486084 0.4008789 -0.7763672
vn 0.9296875 0.1491699 -0.3369141
vn 0.9370117 0.1879883 -0.2949219
vn 0.7832031 0.05059814 -0.6196289
vn 0.8066406 0.2363281 -0.5415039
vn 0.9013672 0.2235107 -0.3713379
vn 0.7636719 0.1363525 -0.6308594
vn 0.8173828 0.2758789 -0.5058594
vn 0.7397461 0.005222321 -0.6728516
vn 0.6875 0.2568359 -0.6791992
vn 0.4106445 -0.1524658 -0.8989258
vn 0.4462891 0.09375 -0.8901367
vn 0.4899902 0.3161621 -0.8125
vn 0 0.310791 -0.9506836
vn 0 0.06005859 -0.9980469
vn 0 -0.1647949 -0.9863281
vn 0.1877441 -0.1717529 -0.9672852
vn 0.7832031 0.05059814 -0.6196289
vn 0.7167969 -0.1213989 -0.6870117
vn -0.7382813 -0.2832031 -0.6118164
vn -0.08911133 -0.4694824 -0.878418
vn -0.5263672 -0.4707031 -0.7080078
vn 0.5620117 0.8051758 0.1878662
vn 0.7529297 0.6054688 -0.2578125
vn 0.03039551 0.9750977 0.2202148
vn 0.03039551 0.9750977 0.2202148
vn -0.09606934 0.684082 0.7231445
vn -0.06536865 0.8833008 0.4641113
vn -0.06536865 0.8833008 0.4641113
vn -0.637207 0.3977051 0.6601563
vn -0.1972656 0.722168 0.6630859
vn -0.7104492 0.291748 0.640625
vn -0.8168945 0.2408447 0.5239258
vn -0.2337646 0.7915039 0.5649414
vn 0.1641846 0.3505859 -0.921875
vn 0.7529297 0.6054688 -0.2578125
vn 0.486084 0.4008789 -0.7763672
vn 0.1641846 0.3505859 -0.921875
g SM_PROP_skeleton_skull_jaw_03_0
f 3/3/3 2/2/2 1/1/1
f 4/4/4 3/3/3 1/1/1
f 7/7/7 6/6/6 5/5/5
f 8/8/8 7/7/7 5/5/5
f 8/8/8 5/5/5 9/9/9
f 8/8/8 10/10/10 7/7/7
f 10/10/10 11/11/11 7/7/7
f 12/12/12 10/10/10 8/8/8
f 13/13/13 8/8/8 9/9/9
f 13/13/13 12/12/12 8/8/8
f 13/13/13 9/9/9 14/14/14
f 15/15/15 12/12/12 13/13/13
f 16/16/16 13/13/13 14/14/14
f 16/16/16 15/15/15 13/13/13
f 16/16/16 14/14/14 17/17/17
f 16/16/16 17/17/17 15/15/15
f 17/17/17 18/18/18 15/15/15
f 14/14/14 19/19/19 17/17/17
f 17/17/17 19/19/19 20/20/20
f 19/19/19 21/21/21 20/20/20
f 19/19/19 22/22/22 21/21/21
f 21/21/21 22/22/22 23/23/23
f 20/20/20 21/21/21 24/24/24
f 21/21/21 23/23/23 24/24/24
f 24/24/24 25/25/25 20/20/20
f 24/24/24 23/23/23 26/26/26
f 24/24/24 26/26/26 25/25/25
f 23/23/23 27/27/27 26/26/26
f 26/26/26 28/28/28 25/25/25
f 31/31/31 30/30/30 29/29/29
f 32/32/32 31/31/31 29/29/29
f 32/32/32 29/29/29 33/33/33
f 34/34/34 32/32/32 33/33/33
f 33/33/33 35/35/35 34/34/34
f 35/35/35 36/36/36 34/34/34
f 37/37/37 34/34/34 36/36/36
f 37/37/37 36/36/36 38/38/38
f 36/36/36 39/39/39 38/38/38
f 42/42/42 41/41/41 40/40/40
f 43/43/43 42/42/42 40/40/40
f 43/43/43 44/44/44 42/42/42
f 44/44/44 45/45/45 42/42/42
f 46/46/46 44/44/44 43/43/43
f 46/46/46 43/43/43 40/40/40
f 47/47/47 46/46/46 40/40/40
f 47/47/47 40/40/40 48/48/48
f 49/49/49 46/46/46 47/47/47
f 50/50/50 47/47/47 48/48/48
f 50/50/50 49/49/49 47/47/47
f 51/51/51 49/49/49 50/50/50
f 52/52/52 51/51/51 50/50/50
f 51/51/51 53/53/53 49/49/49
f 53/53/53 54/54/54 49/49/49
f 55/55/55 53/53/53 51/51/51
f 56/56/56 51/51/51 52/52/52
f 56/56/56 55/55/55 51/51/51
f 57/57/57 56/56/56 52/52/52
f 57/57/57 58/58/58 56/56/56
f 58/58/58 59/59/59 56/56/56
f 56/56/56 59/59/59 55/55/55
f 59/59/59 60/60/60 55/55/55
f 63/63/63 62/62/62 61/61/61
f 62/62/62 64/64/64 61/61/61
f 62/62/62 65/65/65 64/64/64
f 65/65/65 66/66/66 64/64/64
f 69/69/69 68/68/68 67/67/67
f 70/70/70 69/69/69 67/67/67
f 73/73/73 72/72/72 71/71/71
f 74/74/74 73/73/73 71/71/71
f 74/74/74 71/71/71 75/75/75
f 76/76/76 74/74/74 75/75/75
f 77/77/77 76/76/76 75/75/75
f 78/78/78 77/77/77 75/75/75
f 81/81/81 80/80/80 79/79/79
f 82/82/82 81/81/81 79/79/79
f 85/85/85 84/84/84 83/83/83
f 83/83/83 86/86/86 85/85/85
f 86/86/86 83/83/83 87/87/87
f 87/87/87 83/83/83 88/88/88
f 87/87/87 88/88/88 89/89/89
f 89/89/89 90/90/90 87/87/87
f 89/89/89 91/91/91 90/90/90
f 94/94/94 93/93/93 92/92/92
f 95/95/95 94/94/94 92/92/92
f 98/98/98 97/97/97 96/96/96
f 97/97/97 98/98/98 99/99/99
f 100/100/100 99/99/99 98/98/98
f 103/103/103 102/102/102 101/101/101
f 102/102/102 104/104/104 101/101/101
f 101/101/101 104/104/104 105/105/105
f 106/106/106 104/104/104 102/102/102
f 107/107/107 106/106/106 102/102/102
f 106/106/106 108/108/108 104/104/104
f 104/104/104 109/109/109 105/105/105
f 108/108/108 109/109/109 104/104/104
f 105/105/105 109/109/109 110/110/110
f 108/108/108 111/111/111 109/109/109
f 109/109/109 112/112/112 110/110/110
f 111/111/111 112/112/112 109/109/109
f 110/110/110 112/112/112 113/113/113
f 113/113/113 112/112/112 111/111/111
f 114/114/114 113/113/113 111/111/111
f 115/115/115 110/110/110 113/113/113
f 115/115/115 113/113/113 116/116/116
f 117/117/117 115/115/115 116/116/116
f 118/118/118 115/115/115 117/117/117
f 117/117/117 116/116/116 119/119/119
f 118/118/118 117/117/117 120/120/120
f 120/120/120 117/117/117 119/119/119
f 120/120/120 119/119/119 121/121/121
f 122/122/122 120/120/120 121/121/121
f 125/125/125 124/124/124 123/123/123
f 126/126/126 124/124/124 125/125/125
f 127/127/127 126/126/126 125/125/125
f 130/130/130 129/129/129 128/128/128
f 129/129/129 131/131/131 128/128/128
f 128/128/128 131/131/131 132/132/132
f 131/131/131 133/133/133 132/132/132
f 134/134/134 132/132/132 133/133/133
f 135/135/135 134/134/134 133/133/133
f 133/133/133 136/136/136 135/135/135
f 135/135/135 136/136/136 137/137/137
f 138/138/138 135/135/135 137/137/137
f 141/141/141 140/140/140 139/139/139
f 142/142/142 140/140/140 141/141/141
f 145/145/145 144/144/144 143/143/143
f 146/146/146 144/144/144 145/145/145
f 149/149/149 148/148/148 147/147/147
f 148/148/148 150/150/150 147/147/147
f 151/151/151 150/150/150 148/148/148
f 152/152/152 151/151/151 148/148/148
f 151/151/151 153/153/153 150/150/150
f 150/150/150 153/153/153 147/147/147
f 153/153/153 154/154/154 147/147/147
f 147/147/147 154/154/154 155/155/155
f 153/153/153 156/156/156 154/154/154
f 154/154/154 157/157/157 155/155/155
f 156/156/156 157/157/157 154/154/154
f 156/156/156 158/158/158 157/157/157
f 158/158/158 159/159/159 157/157/157
f 160/160/160 158/158/158 156/156/156
f 161/161/161 160/160/160 156/156/156
f 160/160/160 162/162/162 158/158/158
f 158/158/158 163/163/163 159/159/159
f 162/162/162 163/163/163 158/158/158
f 163/163/163 164/164/164 159/159/159
f 165/165/165 164/164/164 163/163/163
f 166/166/166 165/165/165 163/163/163
f 166/166/166 163/163/163 162/162/162
f 167/167/167 166/166/166 162/162/162
f 170/170/170 169/169/169 168/168/168
f 171/171/171 170/170/170 168/168/168
f 172/172/172 170/170/170 171/171/171
f 173/173/173 172/172/172 171/171/171
f 176/176/176 175/175/175 174/174/174
f 177/177/177 176/176/176 174/174/174
f 180/180/180 179/179/179 178/178/178
f 179/179/179 181/181/181 178/178/178
f 178/178/178 181/181/181 182/182/182
f 181/181/181 183/183/183 182/182/182
f 183/183/183 184/184/184 182/182/182
f 184/184/184 185/185/185 182/182/182
f 188/188/188 187/187/187 186/186/186
f 189/189/189 188/188/188 186/186/186
