g SM_Plant3
v -0.00692646 0.02069059 -0.006926413
v -0.00692646 0 -0.006926413
v 0 0 -0.009235373
v 0 0.02069059 -0.009235373
v 0.006926537 0 -0.006926413
v -0.009756165 0.04066869 -0.007757712
v 0.006926537 0.02069059 -0.006926413
v 0 0.03851395 -0.009235373
v -0.009383812 0.05204437 -0.009235373
v 0.006926537 0.03851395 -0.006926413
v 0 0.05060287 -0.009235373
v -0.008904533 0.0604654 -0.007757712
v 0.006926537 0.05060287 -0.006926413
v 0 0.05969685 -0.009235373
v -0.00692646 0.06853535 -0.006926413
v 0.0101717 0.05978345 -0.007757712
v 0 0.06853535 -0.009235373
v -0.007484398 0.08323018 -0.007484351
v 0.01038273 0.06853535 -0.009235373
v 0 0.08323018 -0.009979239
v -0.009158173 0.1098932 -0.009158163
v 0.01012478 0.0810353 -0.008114767
v 0 0.1098932 -0.01221099
v -0.007445068 0.1280304 -0.007445021
v 0.009158173 0.1098932 -0.009158163
v 0 0.1343784 -0.01064605
v -0.01064598 0.1343784 9.115831E-09
v 0.007445106 0.1280304 -0.007445059
v 0 0.1425402 9.115831E-09
v 0.01064606 0.1343784 9.115831E-09
v -0.007445068 0.1280304 0.007445115
v 0 0.1343784 0.01064603
v 0.007445068 0.1280304 0.007445115
v -0.009158173 0.1098932 0.009158219
v 0 0.1098932 0.01221093
v -0.01221092 0.1098932 9.115831E-09
v -0.01064598 0.1343784 9.115831E-09
v -0.009158173 0.1098932 -0.009158163
v -0.007445068 0.1280304 -0.007445021
v -0.007484398 0.08323018 -0.007484351
v -0.00997921 0.08323018 9.115831E-09
v -0.00692646 0.06853535 -0.006926413
v -0.007484398 0.08323018 0.007484407
v -0.009235306 0.06853536 9.115831E-09
v -0.008904533 0.0604654 -0.007757712
v 0.009158173 0.1098932 0.009158219
v 0.01064606 0.1343784 9.115831E-09
v 0 0.08323018 0.009979218
v 0.01012474 0.08103531 0.008114747
v 0.012211 0.1098932 9.115831E-09
v 0.007445106 0.1280304 -0.007445059
v 0.009158173 0.1098932 -0.009158163
v 0.01301453 0.08532326 9.115831E-09
v 0.01012478 0.0810353 -0.008114767
v -0.00692646 0.06853536 0.006926507
v -0.01080555 0.06302713 9.115831E-09
v 0 0.06853536 0.009235314
v -0.008904533 0.06046541 0.007757653
v 0.0213768 0.07690768 9.115831E-09
v 0.02179764 0.0748146 0.006926507
v 0.02179756 0.0748146 -0.006926413
v 0.01038273 0.06853535 -0.009235373
v 0.02306 0.06853535 -0.009235373
v 0.0101717 0.05978345 -0.007757712
v -0.01640339 0.06203518 -0.006926413
v -0.01551624 0.06392395 9.115831E-09
v -0.01906467 0.05636883 -0.009235373
v -0.009383812 0.05204437 -0.009235373
v -0.02172604 0.05070249 -0.006926413
v -0.009756165 0.04066869 -0.007757712
v 0.03069443 0.07980987 -2.903114E-08
v 0.03175537 0.07792239 -0.007470847
v 0.03175537 0.0779224 0.007470903
v -0.02643677 0.06384444 -0.009722891
v -0.02121502 0.06802761 -0.007292242
v -0.03165848 0.05966128 -0.007292242
v -0.0226131 0.04881372 9.115831E-09
v -0.03339905 0.0582669 9.115831E-09
v -0.01257973 0.03806665 9.115831E-09
v -0.00692646 0.02069059 -0.006926413
v -0.009235306 0.02069057 9.115831E-09
v -0.009756165 0.04066868 0.007757653
v -0.00692646 0 -0.006926413
v -0.009235306 0 9.115831E-09
v -0.00692646 0.02069057 0.006926507
v -0.00692646 0 0.006926507
v -0.02172604 0.05070249 0.006926507
v 0 0.02069057 0.009235314
v 0 0 0.009235314
v -0.03165848 0.05966128 0.007292222
v 0 0.03851395 0.009235314
v 0.006926537 0.02069057 0.006926507
v 0.006926537 0 0.006926507
v 0.006926537 0.03851395 0.006926507
v 0.009235344 0.02069059 9.115831E-09
v 0.009235344 0 9.115831E-09
v 0.006926537 0.02069059 -0.006926413
v 0.006926537 0 -0.006926413
v 0.006926537 0.03851395 -0.006926413
v 0.009235344 0.03851395 9.115831E-09
v 0.006926537 0.05060287 -0.006926413
v 0.009235344 0.05060287 9.115831E-09
v 0.006926537 0.05060287 0.006926507
v 0.01311233 0.05760378 9.115831E-09
v 0 0.05060288 0.009235314
v 0.02432251 0.06225611 -0.006926413
v 0.0101717 0.05978346 0.007757653
v 0.02474335 0.06016303 9.115831E-09
v 0.03493851 0.07225999 -0.009961233
v 0.03812149 0.0665976 -0.007470961
v -0.009383812 0.05204437 0.009235314
v 0 0.05969686 0.009235314
v -0.01906467 0.05636884 0.009235314
v -0.02643677 0.06384445 0.009722947
v 0.03650451 0.08775343 -0.009104186
v 0.0429245 0.08343392 -0.01213897
v 0.03436447 0.08919326 9.115831E-09
v 0.03650451 0.08775344 0.009104165
v -0.01640339 0.06203518 0.006926507
v -0.02121502 0.06802761 0.007292222
v -0.01947445 0.069422 9.115831E-09
v 0.01038273 0.06853536 0.009235314
v 0.02432251 0.06225611 0.006926507
v 0.02306 0.06853536 0.009235314
v 0.03918274 0.06471013 -2.903114E-08
v 0.03493851 0.07226 0.009961213
v 0.03812149 0.0665976 0.007470903
v 0.04934448 0.07911441 -0.009104186
v 0.0429245 0.08343392 0.01213891
v 0.05148468 0.07767457 9.115831E-09
v 0.04934448 0.07911441 0.009104165
v 0.04745453 0.09460784 -0.01055594
v 0.05218963 0.08901672 -0.007389022
v 0.05647125 0.09142561 -2.903114E-08
v 0.05218963 0.08901672 0.007389077
v 0.04745453 0.09460784 0.01055596
v 0.04896423 0.0983325 9.115831E-09
v 0.04037033 0.09440509 -0.007389022
v 0.03843781 0.09779008 -2.903114E-08
v 0.04037048 0.09440509 0.007389077
v -0.0213139 0.07697289 -0.008389349
v -0.01878719 0.07771739 9.115831E-09
v -0.02889404 0.07473935 -0.01118583
v -0.0213139 0.07697289 0.008389405
v -0.0364743 0.07250583 -0.008389349
v -0.02889404 0.07473936 0.01118585
v -0.03900101 0.07176133 9.115831E-09
v -0.0364743 0.07250583 0.008389405
v -0.02261028 0.08274958 -0.006647826
v -0.02889404 0.08419277 -0.009364577
v -0.01980892 0.08497105 9.115831E-09
v -0.03517792 0.0807342 -0.006647826
v -0.02261028 0.08274958 0.006647843
v -0.02889404 0.08734392 9.115831E-09
v -0.03797928 0.0834145 9.115831E-09
v -0.02889404 0.08419277 0.009364671
v -0.03517792 0.08073422 0.006647843
vt 0.4922591 0.4918037
vt 0.4922591 0.4918289
vt 0.4923275 0.4918289
vt 0.4923275 0.4918037
vt 0.4923958 0.4918289
vt 0.4922592 0.4917787
vt 0.4923958 0.4918037
vt 0.4923275 0.4917822
vt 0.4922591 0.4917674
vt 0.4923958 0.4917787
vt 0.4923275 0.4917674
vt 0.4922591 0.4917562
vt 0.4923958 0.4917674
vt 0.4923275 0.4917564
vt 0.4922591 0.4917457
vt 0.4923958 0.4917562
vt 0.4923275 0.4917457
vt 0.4922591 0.4917351
vt 0.4923958 0.4917457
vt 0.4923275 0.4917324
vt 0.4922591 0.4917137
vt 0.4923958 0.4917351
vt 0.4923275 0.4917137
vt 0.4922591 0.4916922
vt 0.4923958 0.4917137
vt 0.4923275 0.4916805
vt 0.4922591 0.4916239
vt 0.4923958 0.4916922
vt 0.4923275 0.4916239
vt 0.4923958 0.4916239
vt 0.4922591 0.4915557
vt 0.4923275 0.4915674
vt 0.4923958 0.4915557
vt 0.4922591 0.4915343
vt 0.4923275 0.4915343
vt 0.4921909 0.4915343
vt 0.4921909 0.4915557
vt 0.4921226 0.4915343
vt 0.4921226 0.4915557
vt 0.4921226 0.4915127
vt 0.4921909 0.4915155
vt 0.4921226 0.4915023
vt 0.4922591 0.4915155
vt 0.4921909 0.4915023
vt 0.4921226 0.4914917
vt 0.4923958 0.4915343
vt 0.4924642 0.4915557
vt 0.4923275 0.4915155
vt 0.4923958 0.4915147
vt 0.4924642 0.4915343
vt 0.4925325 0.4915557
vt 0.4925325 0.4915343
vt 0.4924642 0.4915183
vt 0.4925325 0.4915127
vt 0.4922591 0.4915023
vt 0.4921909 0.4914943
vt 0.4923275 0.4915023
vt 0.4922591 0.4914916
vt 0.4924642 0.4915127
vt 0.4924129 0.4915101
vt 0.4925153 0.4915101
vt 0.4925325 0.4915023
vt 0.4925325 0.4915023
vt 0.4925325 0.4914917
vt 0.4921397 0.4914889
vt 0.4921909 0.4914917
vt 0.4921226 0.4914805
vt 0.4921226 0.4914805
vt 0.4921397 0.4914721
vt 0.4921226 0.4914693
vt 0.4924642 0.4915127
vt 0.4925153 0.4915101
vt 0.4924129 0.4915101
vt 0.4921226 0.4914805
vt 0.4921397 0.4914889
vt 0.4921397 0.4914721
vt 0.4921909 0.4914693
vt 0.4921909 0.4914693
vt 0.4921909 0.491463
vt 0.4921226 0.4914442
vt 0.4921909 0.4914442
vt 0.4922591 0.4914671
vt 0.4921226 0.491419
vt 0.4921909 0.491419
vt 0.4922591 0.4914442
vt 0.4922591 0.491419
vt 0.4922422 0.4914721
vt 0.4923275 0.4914442
vt 0.4923275 0.491419
vt 0.4922422 0.4914721
vt 0.4923275 0.4914658
vt 0.4923958 0.4914442
vt 0.4923958 0.491419
vt 0.4923958 0.4914658
vt 0.4924642 0.4914442
vt 0.4924642 0.491419
vt 0.4925325 0.4914442
vt 0.4925325 0.491419
vt 0.4925325 0.4914693
vt 0.4924642 0.4914658
vt 0.4925325 0.4914805
vt 0.4924642 0.4914805
vt 0.4923958 0.4914805
vt 0.4924642 0.4914889
vt 0.4923275 0.4914805
vt 0.4925153 0.4914943
vt 0.4923958 0.4914916
vt 0.4924642 0.4914917
vt 0.4925325 0.4915023
vt 0.4925153 0.4914943
vt 0.4922763 0.4914805
vt 0.4923275 0.4914914
vt 0.4922591 0.4914805
vt 0.4922591 0.4914805
vt 0.4925153 0.4915101
vt 0.4925325 0.4915023
vt 0.4924642 0.4915127
vt 0.4924129 0.4915101
vt 0.4922422 0.4914889
vt 0.4922422 0.4914889
vt 0.4921909 0.4914917
vt 0.4923787 0.4915023
vt 0.4924129 0.4914943
vt 0.4923958 0.4915023
vt 0.4924642 0.4914917
vt 0.4923958 0.4915023
vt 0.4924129 0.4914943
vt 0.4925153 0.4914943
vt 0.4923958 0.4915023
vt 0.4924642 0.4914917
vt 0.4924129 0.4914943
vt 0.4925153 0.4915023
vt 0.4925021 0.4914964
vt 0.4924642 0.4914943
vt 0.4924262 0.4914964
vt 0.4924129 0.4915023
vt 0.4924642 0.4915023
vt 0.4925021 0.4915082
vt 0.4924642 0.4915101
vt 0.4924262 0.4915082
vt 0.4921397 0.4914889
vt 0.4921909 0.4914917
vt 0.4921226 0.4914805
vt 0.4922422 0.4914889
vt 0.4921397 0.4914721
vt 0.4922591 0.4914805
vt 0.4921909 0.4914693
vt 0.4922422 0.4914721
vt 0.492153 0.4914867
vt 0.4921397 0.4914805
vt 0.4921909 0.4914889
vt 0.4921529 0.4914742
vt 0.4922289 0.4914867
vt 0.4921909 0.4914805
vt 0.4921909 0.4914721
vt 0.4922422 0.4914805
vt 0.4922288 0.4914743
vn -0.6643185 -0.0549064 -0.7454302
vn -0.7071096 0 -0.7071039
vn 0 0 -1
vn 0.008689492 -0.01085318 -0.9999033
vn 0.7071087 0 -0.7071048
vn -0.4958776 -0.2518246 -0.8310775
vn 0.7071084 0 -0.7071052
vn 0.03989187 -0.0268861 -0.9988423
vn -0.09334547 -0.02898917 -0.9952117
vn 0.7071081 0 -0.7071054
vn 0.0811886 -0.0221947 -0.9964516
vn -0.1980329 0.2975999 -0.9339256
vn 0.6347803 -0.1157054 -0.7639804
vn 0.009333105 -0.006628578 -0.9999346
vn -0.6667886 0.02840477 -0.7447054
vn 0.2768873 -0.399034 -0.8741311
vn -0.07918469 -0.01448847 -0.9967546
vn -0.7049809 -0.07751655 -0.7049775
vn 0.08043428 -0.0213331 -0.9965317
vn -0.03051772 -0.05166876 -0.998198
vn -0.707093 -0.006550413 -0.7070902
vn 0.4714965 0.1215704 -0.8734481
vn -0.008945295 -0.0005607419 -0.9999598
vn -0.6919972 0.2056364 -0.6919924
vn 0.6680734 0.02804547 -0.7435666
vn -1.445837E-07 0.4545152 -0.890739
vn -0.8907383 0.4545167 1.807295E-07
vn 0.691995 0.2056362 -0.6919947
vn 9.308653E-07 1 -7.257594E-07
vn 0.8907381 0.454517 3.614587E-07
vn -0.6919956 0.205636 0.6919943
vn 1.626567E-07 0.454518 0.8907377
vn 0.691993 0.2056369 0.6919966
vn -0.7070919 -0.006550555 0.7070913
vn -0.008943902 -0.0005616601 0.9999598
vn -0.9999844 -0.005595852 -1.556289E-07
vn -0.8907383 0.4545167 1.807295E-07
vn -0.707093 -0.006550413 -0.7070902
vn -0.6919972 0.2056364 -0.6919924
vn -0.7049809 -0.07751655 -0.7049775
vn -0.997331 -0.07301266 0
vn -0.6667886 0.02840477 -0.7447054
vn -0.7049795 -0.07751664 0.7049788
vn -0.9983106 0.05810334 0
vn -0.1980329 0.2975999 -0.9339256
vn 0.6680719 0.02804421 0.7435681
vn 0.8907381 0.454517 3.614587E-07
vn -0.03051463 -0.05166954 0.998198
vn 0.4714949 0.1215686 0.8734493
vn 0.9985021 0.05471332 1.196522E-06
vn 0.691995 0.2056362 -0.6919947
vn 0.6680734 0.02804547 -0.7435666
vn 0.9765567 0.2152606 9.593741E-07
vn 0.4714965 0.1215704 -0.8734481
vn -0.6667851 0.02840172 0.7447085
vn -0.5654494 0.824783 1.197019E-07
vn -0.07917911 -0.0144912 0.9967551
vn -0.1980314 0.2975958 0.9339273
vn 0.266167 0.963927 4.83677E-07
vn 0.09454725 0.5545669 0.8267505
vn 0.09455245 0.5545695 -0.8267481
vn 0.08043428 -0.0213331 -0.9965317
vn 0.02853509 -0.05477272 -0.998091
vn 0.2768873 -0.399034 -0.8741311
vn 0.3381415 0.5088574 -0.7916594
vn 0.553004 0.8331785 -2.065659E-07
vn -0.06991355 -0.06595633 -0.9953702
vn -0.09334547 -0.02898917 -0.9952117
vn -0.4868681 -0.538787 -0.6875086
vn -0.4958776 -0.2518246 -0.8310775
vn -0.7197336 0.6942503 -9.235605E-07
vn -0.5214651 0.432451 -0.735568
vn -0.5214628 0.4324515 0.7355694
vn -0.04526059 -0.1274684 -0.9908094
vn 0.6671106 0.1338466 -0.732836
vn -0.6448783 -0.4627818 -0.6082476
vn -0.6800627 -0.7331539 -3.084167E-07
vn -0.8215061 -0.5701997 0
vn -0.9090815 -0.4166185 0
vn -0.6643185 -0.0549064 -0.7454302
vn -0.9962876 -0.08608802 -1.25971E-07
vn -0.4958764 -0.2518233 0.8310786
vn -0.7071096 0 -0.7071039
vn -1 0 -1.721034E-07
vn -0.6643152 -0.05490476 0.7454334
vn -0.707107 0 0.7071065
vn -0.4868644 -0.5387854 0.6875125
vn 0.008687455 -0.01085192 0.9999034
vn 0 0 1
vn -0.6448784 -0.4627831 0.6082465
vn 0.03988596 -0.0268844 0.9988425
vn 0.7071053 0 0.7071083
vn 0.7071053 0 0.7071083
vn 0.707105 0 0.7071084
vn 1 0 -1.137944E-07
vn 1 0 -2.382969E-07
vn 0.7071084 0 -0.7071052
vn 0.7071087 0 -0.7071048
vn 0.7071081 0 -0.7071054
vn 1 0 0
vn 0.6347803 -0.1157054 -0.7639804
vn 0.9803101 -0.197464 1.315488E-07
vn 0.6347759 -0.1157022 0.7639847
vn 0.5164585 -0.8563123 4.436878E-07
vn 0.08118171 -0.02219257 0.9964522
vn 0.1765146 -0.7156473 -0.6757895
vn 0.2768857 -0.399032 0.8741326
vn 0.2506519 -0.9680772 4.069466E-07
vn -0.01074473 -0.1491304 -0.9887592
vn 0.4327903 -0.6807824 -0.5909551
vn -0.09334055 -0.02898853 0.9952121
vn 0.009333025 -0.006628011 0.9999346
vn -0.0699092 -0.06595557 0.9953706
vn -0.045261 -0.1274694 0.9908092
vn -0.6592232 0.3290628 -0.676123
vn 0.03181993 -0.02769288 -0.9991099
vn -0.9006625 0.4345192 2.990138E-06
vn -0.659224 0.3290634 0.6761221
vn 0.3381425 0.5088503 0.7916635
vn 0.6671126 0.1338458 0.7328343
vn 0.9752064 0.2212972 0
vn 0.08043117 -0.0213345 0.9965318
vn 0.1765143 -0.7156436 0.6757935
vn 0.0285332 -0.05477342 0.998091
vn 0.5584343 -0.8295487 -3.529484E-07
vn -0.01074095 -0.1491305 0.9887592
vn 0.4327913 -0.6807817 0.590955
vn 0.6581697 -0.4185912 -0.6257747
vn 0.03182143 -0.02769469 0.9991098
vn 0.8424441 -0.5387838 4.113992E-07
vn 0.6581694 -0.4185916 0.6257747
vn 0.2558748 0.5750808 -0.7770523
vn 0.8000431 0.06605487 -0.596295
vn 0.9827769 0.1847963 -3.142968E-07
vn 0.8000429 0.0660545 0.5962952
vn 0.2558763 0.5750801 0.7770523
vn 0.3780871 0.9257699 7.85263E-07
vn -0.4425702 0.6722886 -0.5934305
vn -0.5153702 0.8569677 7.320763E-07
vn -0.4425673 0.6722883 0.5934331
vn 0.7138907 0.07860056 -0.6958319
vn 0.9974153 0.07185118 -1.261595E-07
vn -0.04604609 0.02182188 -0.998701
vn 0.7138907 0.07859935 0.695832
vn -0.7479925 -0.1232428 -0.6521643
vn -0.046046 0.02182015 0.998701
vn -0.98376 -0.1794891 0
vn -0.7479923 -0.1232439 0.6521643
vn 0.5591367 0.5748487 -0.5974237
vn -0.09607644 0.669036 -0.736994
vn 0.6932772 0.7206711 0
vn -0.6917899 0.4270312 -0.5822982
vn 0.5591378 0.5748506 0.5974209
vn -0.1148258 0.9933856 0
vn -0.8226266 0.5685819 -2.390483E-07
vn -0.09607618 0.6690356 0.7369944
vn -0.691792 0.427031 0.5822957
g SM_Plant3_0
f 3/3/3 2/2/2 1/1/1
f 4/4/4 3/3/3 1/1/1
f 5/5/5 3/3/3 4/4/4
f 4/4/4 1/1/1 6/6/6
f 7/7/7 5/5/5 4/4/4
f 8/8/8 4/4/4 6/6/6
f 7/7/7 4/4/4 8/8/8
f 8/8/8 6/6/6 9/9/9
f 10/10/10 7/7/7 8/8/8
f 11/11/11 8/8/8 9/9/9
f 10/10/10 8/8/8 11/11/11
f 11/11/11 9/9/9 12/12/12
f 13/13/13 10/10/10 11/11/11
f 14/14/14 11/11/11 12/12/12
f 13/13/13 11/11/11 14/14/14
f 14/14/14 12/12/12 15/15/15
f 16/16/16 13/13/13 14/14/14
f 17/17/17 14/14/14 15/15/15
f 16/16/16 14/14/14 17/17/17
f 17/17/17 15/15/15 18/18/18
f 19/19/19 16/16/16 17/17/17
f 20/20/20 17/17/17 18/18/18
f 19/19/19 17/17/17 20/20/20
f 20/20/20 18/18/18 21/21/21
f 22/22/22 19/19/19 20/20/20
f 23/23/23 20/20/20 21/21/21
f 22/22/22 20/20/20 23/23/23
f 23/23/23 21/21/21 24/24/24
f 25/25/25 22/22/22 23/23/23
f 26/26/26 23/23/23 24/24/24
f 25/25/25 23/23/23 26/26/26
f 26/26/26 24/24/24 27/27/27
f 28/28/28 25/25/25 26/26/26
f 29/29/29 26/26/26 27/27/27
f 28/28/28 26/26/26 29/29/29
f 30/30/30 28/28/28 29/29/29
f 29/29/29 27/27/27 31/31/31
f 30/30/30 29/29/29 32/32/32
f 32/32/32 29/29/29 31/31/31
f 33/33/33 30/30/30 32/32/32
f 32/32/32 31/31/31 34/34/34
f 33/33/33 32/32/32 35/35/35
f 35/35/35 32/32/32 34/34/34
f 34/34/34 31/31/31 36/36/36
f 31/31/31 37/37/37 36/36/36
f 36/36/36 37/37/37 38/38/38
f 37/37/37 39/39/39 38/38/38
f 36/36/36 38/38/38 40/40/40
f 41/41/41 36/36/36 40/40/40
f 34/34/34 36/36/36 41/41/41
f 41/41/41 40/40/40 42/42/42
f 43/43/43 34/34/34 41/41/41
f 35/35/35 34/34/34 43/43/43
f 44/44/44 41/41/41 42/42/42
f 43/43/43 41/41/41 44/44/44
f 44/44/44 42/42/42 45/45/45
f 46/46/46 33/33/33 35/35/35
f 47/47/47 33/33/33 46/46/46
f 48/48/48 35/35/35 43/43/43
f 46/46/46 35/35/35 48/48/48
f 49/49/49 46/46/46 48/48/48
f 50/50/50 47/47/47 46/46/46
f 50/50/50 46/46/46 49/49/49
f 51/51/51 47/47/47 50/50/50
f 52/52/52 51/51/51 50/50/50
f 52/52/52 50/50/50 53/53/53
f 53/53/53 50/50/50 49/49/49
f 54/54/54 52/52/52 53/53/53
f 55/55/55 43/43/43 44/44/44
f 48/48/48 43/43/43 55/55/55
f 56/56/56 44/44/44 45/45/45
f 55/55/55 44/44/44 56/56/56
f 57/57/57 48/48/48 55/55/55
f 49/49/49 48/48/48 57/57/57
f 58/58/58 55/55/55 56/56/56
f 57/57/57 55/55/55 58/58/58
f 53/53/53 59/59/59 54/54/54
f 49/49/49 60/60/60 53/53/53
f 60/60/60 59/59/59 53/53/53
f 59/59/59 61/61/61 54/54/54
f 54/54/54 61/61/61 62/62/62
f 61/61/61 63/63/63 62/62/62
f 62/62/62 63/63/63 64/64/64
f 45/45/45 65/65/65 56/56/56
f 56/56/56 66/66/66 58/58/58
f 65/65/65 66/66/66 56/56/56
f 67/67/67 65/65/65 45/45/45
f 68/68/68 67/67/67 45/45/45
f 69/69/69 67/67/67 68/68/68
f 70/70/70 69/69/69 68/68/68
f 59/59/59 71/71/71 61/61/61
f 61/61/61 72/72/72 63/63/63
f 71/71/71 72/72/72 61/61/61
f 73/73/73 71/71/71 59/59/59
f 60/60/60 73/73/73 59/59/59
f 67/67/67 74/74/74 65/65/65
f 65/65/65 75/75/75 66/66/66
f 74/74/74 75/75/75 65/65/65
f 69/69/69 76/76/76 67/67/67
f 76/76/76 74/74/74 67/67/67
f 77/77/77 69/69/69 70/70/70
f 78/78/78 76/76/76 69/69/69
f 77/77/77 78/78/78 69/69/69
f 79/79/79 77/77/77 70/70/70
f 79/79/79 70/70/70 80/80/80
f 81/81/81 79/79/79 80/80/80
f 82/82/82 79/79/79 81/81/81
f 81/81/81 80/80/80 83/83/83
f 84/84/84 81/81/81 83/83/83
f 85/85/85 81/81/81 84/84/84
f 85/85/85 82/82/82 81/81/81
f 86/86/86 85/85/85 84/84/84
f 87/87/87 77/77/77 79/79/79
f 82/82/82 87/87/87 79/79/79
f 88/88/88 85/85/85 86/86/86
f 89/89/89 88/88/88 86/86/86
f 90/90/90 78/78/78 77/77/77
f 87/87/87 90/90/90 77/77/77
f 91/91/91 82/82/82 85/85/85
f 88/88/88 91/91/91 85/85/85
f 92/92/92 88/88/88 89/89/89
f 93/93/93 92/92/92 89/89/89
f 94/94/94 91/91/91 88/88/88
f 92/92/92 94/94/94 88/88/88
f 95/95/95 92/92/92 93/93/93
f 96/96/96 95/95/95 93/93/93
f 97/97/97 95/95/95 96/96/96
f 98/98/98 97/97/97 96/96/96
f 97/97/97 99/99/99 95/95/95
f 95/95/95 100/100/100 92/92/92
f 99/99/99 100/100/100 95/95/95
f 100/100/100 94/94/94 92/92/92
f 99/99/99 101/101/101 100/100/100
f 101/101/101 102/102/102 100/100/100
f 100/100/100 102/102/102 94/94/94
f 101/101/101 64/64/64 102/102/102
f 94/94/94 103/103/103 91/91/91
f 102/102/102 103/103/103 94/94/94
f 64/64/64 104/104/104 102/102/102
f 102/102/102 104/104/104 103/103/103
f 103/103/103 105/105/105 91/91/91
f 91/91/91 105/105/105 82/82/82
f 64/64/64 106/106/106 104/104/104
f 63/63/63 106/106/106 64/64/64
f 104/104/104 107/107/107 103/103/103
f 103/103/103 107/107/107 105/105/105
f 106/106/106 108/108/108 104/104/104
f 104/104/104 108/108/108 107/107/107
f 63/63/63 109/109/109 106/106/106
f 72/72/72 109/109/109 63/63/63
f 106/106/106 110/110/110 108/108/108
f 109/109/109 110/110/110 106/106/106
f 105/105/105 111/111/111 82/82/82
f 107/107/107 112/112/112 105/105/105
f 105/105/105 112/112/112 111/111/111
f 111/111/111 113/113/113 82/82/82
f 113/113/113 87/87/87 82/82/82
f 113/113/113 114/114/114 87/87/87
f 114/114/114 90/90/90 87/87/87
f 72/72/72 115/115/115 109/109/109
f 109/109/109 116/116/116 110/110/110
f 115/115/115 116/116/116 109/109/109
f 117/117/117 115/115/115 72/72/72
f 71/71/71 117/117/117 72/72/72
f 118/118/118 117/117/117 71/71/71
f 73/73/73 118/118/118 71/71/71
f 119/119/119 113/113/113 111/111/111
f 120/120/120 114/114/114 113/113/113
f 119/119/119 120/120/120 113/113/113
f 58/58/58 119/119/119 111/111/111
f 112/112/112 58/58/58 111/111/111
f 66/66/66 119/119/119 58/58/58
f 112/112/112 57/57/57 58/58/58
f 66/66/66 121/121/121 119/119/119
f 121/121/121 120/120/120 119/119/119
f 75/75/75 121/121/121 66/66/66
f 122/122/122 57/57/57 112/112/112
f 107/107/107 122/122/122 112/112/112
f 122/122/122 49/49/49 57/57/57
f 107/107/107 123/123/123 122/122/122
f 108/108/108 123/123/123 107/107/107
f 122/122/122 124/124/124 49/49/49
f 123/123/123 124/124/124 122/122/122
f 124/124/124 60/60/60 49/49/49
f 108/108/108 125/125/125 123/123/123
f 110/110/110 125/125/125 108/108/108
f 124/124/124 126/126/126 60/60/60
f 126/126/126 73/73/73 60/60/60
f 123/123/123 127/127/127 124/124/124
f 125/125/125 127/127/127 123/123/123
f 127/127/127 126/126/126 124/124/124
f 110/110/110 128/128/128 125/125/125
f 116/116/116 128/128/128 110/110/110
f 126/126/126 129/129/129 73/73/73
f 129/129/129 118/118/118 73/73/73
f 125/125/125 130/130/130 127/127/127
f 128/128/128 130/130/130 125/125/125
f 127/127/127 131/131/131 126/126/126
f 131/131/131 129/129/129 126/126/126
f 130/130/130 131/131/131 127/127/127
f 116/116/116 132/132/132 128/128/128
f 128/128/128 133/133/133 130/130/130
f 132/132/132 133/133/133 128/128/128
f 133/133/133 134/134/134 130/130/130
f 130/130/130 134/134/134 131/131/131
f 133/133/133 132/132/132 134/134/134
f 131/131/131 135/135/135 129/129/129
f 134/134/134 135/135/135 131/131/131
f 129/129/129 136/136/136 118/118/118
f 135/135/135 136/136/136 129/129/129
f 134/134/134 137/137/137 135/135/135
f 132/132/132 137/137/137 134/134/134
f 137/137/137 136/136/136 135/135/135
f 138/138/138 132/132/132 116/116/116
f 132/132/132 138/138/138 137/137/137
f 115/115/115 138/138/138 116/116/116
f 138/138/138 139/139/139 137/137/137
f 139/139/139 138/138/138 115/115/115
f 137/137/137 139/139/139 136/136/136
f 117/117/117 139/139/139 115/115/115
f 118/118/118 140/140/140 117/117/117
f 136/136/136 140/140/140 118/118/118
f 139/139/139 140/140/140 136/136/136
f 140/140/140 139/139/139 117/117/117
f 75/75/75 141/141/141 121/121/121
f 141/141/141 142/142/142 121/121/121
f 121/121/121 142/142/142 120/120/120
f 143/143/143 141/141/141 75/75/75
f 74/74/74 143/143/143 75/75/75
f 142/142/142 144/144/144 120/120/120
f 120/120/120 144/144/144 114/114/114
f 145/145/145 143/143/143 74/74/74
f 76/76/76 145/145/145 74/74/74
f 144/144/144 146/146/146 114/114/114
f 114/114/114 146/146/146 90/90/90
f 147/147/147 145/145/145 76/76/76
f 78/78/78 147/147/147 76/76/76
f 90/90/90 148/148/148 78/78/78
f 146/146/146 148/148/148 90/90/90
f 148/148/148 147/147/147 78/78/78
f 141/141/141 149/149/149 142/142/142
f 143/143/143 150/150/150 141/141/141
f 150/150/150 149/149/149 141/141/141
f 149/149/149 151/151/151 142/142/142
f 142/142/142 151/151/151 144/144/144
f 151/151/151 149/149/149 150/150/150
f 145/145/145 152/152/152 143/143/143
f 152/152/152 150/150/150 143/143/143
f 144/144/144 153/153/153 146/146/146
f 151/151/151 153/153/153 144/144/144
f 154/154/154 151/151/151 150/150/150
f 154/154/154 150/150/150 152/152/152
f 153/153/153 151/151/151 154/154/154
f 155/155/155 152/152/152 145/145/145
f 147/147/147 155/155/155 145/145/145
f 155/155/155 154/154/154 152/152/152
f 153/153/153 156/156/156 146/146/146
f 156/156/156 153/153/153 154/154/154
f 146/146/146 156/156/156 148/148/148
f 156/156/156 154/154/154 155/155/155
f 157/157/157 155/155/155 147/147/147
f 148/148/148 157/157/157 147/147/147
f 157/157/157 156/156/156 155/155/155
f 156/156/156 157/157/157 148/148/148
