g SM_Plant1
v -0.006926498 0.02069059 -0.006926413
v -0.006926498 0 -0.006926413
v 0 0 -0.009235373
v 0 0.02069059 -0.009235373
v 0.006926498 0 -0.006926413
v -0.009756165 0.04066869 -0.007757712
v 0.006926498 0.02069059 -0.006926413
v 0 0.03851395 -0.009235373
v -0.00938385 0.05204437 -0.009235373
v 0.006926498 0.03851395 -0.006926413
v 0 0.05060287 -0.009235373
v -0.008904572 0.0604654 -0.007757712
v 0.006926498 0.05060287 -0.006926413
v 0 0.05969685 -0.009235373
v -0.006926498 0.06853535 -0.006926413
v 0.01017166 0.05978345 -0.007757712
v 0 0.06853535 -0.009235373
v -0.007484398 0.08323018 -0.007484351
v 0.01038269 0.06853535 -0.009235373
v 0 0.08323018 -0.009979239
v -0.009158211 0.1098932 -0.009158163
v 0.01012474 0.0810353 -0.008114767
v 0 0.1098932 -0.01221099
v -0.007445106 0.1280304 -0.007445021
v 0.009158211 0.1098932 -0.009158163
v 0 0.1343784 -0.01064605
v -0.01064602 0.1343784 9.115831E-09
v 0.007445144 0.1280304 -0.007445059
v 0 0.1425402 9.115831E-09
v 0.01064602 0.1343784 9.115831E-09
v -0.007445106 0.1280304 0.007445115
v 0 0.1343784 0.01064603
v 0.007445106 0.1280304 0.007445115
v -0.009158211 0.1098932 0.009158219
v 0 0.1098932 0.01221093
v -0.01221092 0.1098932 9.115831E-09
v -0.01064602 0.1343784 9.115831E-09
v -0.009158211 0.1098932 -0.009158163
v -0.007445106 0.1280304 -0.007445021
v -0.007484398 0.08323018 -0.007484351
v -0.00997921 0.08323018 9.115831E-09
v -0.006926498 0.06853535 -0.006926413
v -0.007484398 0.08323018 0.007484407
v -0.009235306 0.06853536 9.115831E-09
v -0.008904572 0.0604654 -0.007757712
v 0.009158211 0.1098932 0.009158219
v 0.01064602 0.1343784 9.115831E-09
v 0 0.08323018 0.009979218
v 0.0101247 0.08103531 0.008114747
v 0.01221096 0.1098932 9.115831E-09
v 0.007445144 0.1280304 -0.007445059
v 0.009158211 0.1098932 -0.009158163
v 0.01301464 0.08532326 9.115831E-09
v 0.01012474 0.0810353 -0.008114767
v -0.006926498 0.06853536 0.006926507
v -0.01080555 0.06302713 9.115831E-09
v 0 0.06853536 0.009235314
v -0.008904572 0.06046541 0.007757653
v 0.02137676 0.07690768 9.115831E-09
v 0.0217976 0.0748146 0.006926507
v 0.02179752 0.0748146 -0.006926413
v 0.01038269 0.06853535 -0.009235373
v 0.02305996 0.06853535 -0.009235373
v 0.01017166 0.05978345 -0.007757712
v -0.01640335 0.06203518 -0.006926413
v -0.01551628 0.06392395 9.115831E-09
v -0.01906471 0.05636883 -0.009235373
v -0.00938385 0.05204437 -0.009235373
v -0.02172596 0.05070249 -0.006926413
v -0.009756165 0.04066869 -0.007757712
v 0.03069439 0.07980987 -2.903114E-08
v 0.03175533 0.07792239 -0.007470847
v 0.03175533 0.0779224 0.007470903
v -0.02643681 0.06384444 -0.009722891
v -0.02121506 0.06802761 -0.007292242
v -0.03165852 0.05966128 -0.007292242
v -0.0226131 0.04881372 9.115831E-09
v -0.03339909 0.0582669 9.115831E-09
v -0.0125798 0.03806665 9.115831E-09
v -0.006926498 0.02069059 -0.006926413
v -0.009235306 0.02069057 9.115831E-09
v -0.009756165 0.04066868 0.007757653
v -0.006926498 0 -0.006926413
v -0.009235306 0 9.115831E-09
v -0.006926498 0.02069057 0.006926507
v -0.006926498 0 0.006926507
v -0.02172596 0.05070249 0.006926507
v 0 0.02069057 0.009235314
v 0 0 0.009235314
v -0.03165852 0.05966128 0.007292222
v 0 0.03851395 0.009235314
v 0.006926498 0.02069057 0.006926507
v 0.006926498 0 0.006926507
v 0.006926498 0.03851395 0.006926507
v 0.009235306 0.02069059 9.115831E-09
v 0.009235306 0 9.115831E-09
v 0.006926498 0.02069059 -0.006926413
v 0.006926498 0 -0.006926413
v 0.006926498 0.03851395 -0.006926413
v 0.009235306 0.03851395 9.115831E-09
v 0.006926498 0.05060287 -0.006926413
v 0.009235306 0.05060287 9.115831E-09
v 0.006926498 0.05060287 0.006926507
v 0.0131123 0.05760378 9.115831E-09
v 0 0.05060288 0.009235314
v 0.02432247 0.06225611 -0.006926413
v 0.01017166 0.05978346 0.007757653
v 0.02474331 0.06016303 9.115831E-09
v 0.03493847 0.07225999 -0.009961233
v 0.0381216 0.0665976 -0.007470961
v -0.00938385 0.05204437 0.009235314
v 0 0.05969686 0.009235314
v -0.01906471 0.05636884 0.009235314
v -0.02643681 0.06384445 0.009722947
v 0.03650448 0.08775343 -0.009104186
v 0.04292446 0.08343392 -0.01213897
v 0.03436443 0.08919326 9.115831E-09
v 0.03650448 0.08775344 0.009104165
v -0.01640335 0.06203518 0.006926507
v -0.02121506 0.06802761 0.007292222
v -0.01947449 0.069422 9.115831E-09
v 0.01038269 0.06853536 0.009235314
v 0.02432247 0.06225611 0.006926507
v 0.02305996 0.06853536 0.009235314
v 0.0391827 0.06471013 -2.903114E-08
v 0.03493847 0.07226 0.009961213
v 0.0381216 0.0665976 0.007470903
v 0.04934444 0.07911441 -0.009104186
v 0.04292446 0.08343392 0.01213891
v 0.05148464 0.07767457 9.115831E-09
v 0.04934444 0.07911441 0.009104165
v 0.04745449 0.09460784 -0.01055594
v 0.0521896 0.08901672 -0.007389022
v 0.05647121 0.09142561 -2.903114E-08
v 0.0521896 0.08901672 0.007389077
v 0.04745449 0.09460784 0.01055596
v 0.0489645 0.0983325 9.115831E-09
v 0.04037029 0.09440509 -0.007389022
v 0.03843761 0.09779008 -2.903114E-08
v 0.04037045 0.09440509 0.007389077
v -0.0213139 0.07697289 -0.008389349
v -0.01878723 0.07771739 9.115831E-09
v -0.02889408 0.07473935 -0.01118583
v -0.02131397 0.07697289 0.008389405
v -0.03647434 0.07250583 -0.008389349
v -0.02889408 0.07473936 0.01118585
v -0.03900104 0.07176133 9.115831E-09
v -0.03647434 0.07250583 0.008389405
v -0.02261021 0.08274958 -0.006647826
v -0.02889408 0.08419277 -0.009364577
v -0.01980896 0.08497105 9.115831E-09
v -0.03517795 0.0807342 -0.006647826
v -0.02261021 0.08274958 0.006647843
v -0.02889408 0.08734392 9.115831E-09
v -0.03797932 0.0834145 9.115831E-09
v -0.02889408 0.08419277 0.009364671
v -0.03517795 0.08073422 0.006647843
vt 0.6595042 0.82432
vt 0.6595042 0.8243451
vt 0.6595727 0.8243451
vt 0.6595727 0.82432
vt 0.659641 0.8243451
vt 0.6595043 0.8242949
vt 0.659641 0.82432
vt 0.6595727 0.8242984
vt 0.6595042 0.8242837
vt 0.659641 0.8242949
vt 0.6595727 0.8242837
vt 0.6595042 0.8242725
vt 0.659641 0.8242837
vt 0.6595727 0.8242726
vt 0.6595042 0.8242619
vt 0.659641 0.8242725
vt 0.6595727 0.8242619
vt 0.6595042 0.8242514
vt 0.659641 0.8242619
vt 0.6595727 0.8242486
vt 0.6595042 0.8242299
vt 0.659641 0.8242514
vt 0.6595727 0.8242299
vt 0.6595042 0.8242084
vt 0.659641 0.8242299
vt 0.6595727 0.8241968
vt 0.6595042 0.8241401
vt 0.659641 0.8242084
vt 0.6595727 0.8241401
vt 0.659641 0.8241401
vt 0.6595042 0.8240719
vt 0.6595727 0.8240836
vt 0.659641 0.8240719
vt 0.6595042 0.8240505
vt 0.6595727 0.8240505
vt 0.659436 0.8240505
vt 0.659436 0.8240719
vt 0.6593677 0.8240505
vt 0.6593677 0.8240719
vt 0.6593677 0.824029
vt 0.659436 0.8240318
vt 0.6593677 0.8240185
vt 0.6595042 0.8240318
vt 0.659436 0.8240185
vt 0.6593677 0.8240079
vt 0.659641 0.8240505
vt 0.6597093 0.8240719
vt 0.6595727 0.8240318
vt 0.659641 0.8240309
vt 0.6597093 0.8240505
vt 0.6597776 0.8240719
vt 0.6597776 0.8240505
vt 0.6597093 0.8240346
vt 0.6597776 0.824029
vt 0.6595042 0.8240185
vt 0.659436 0.8240106
vt 0.6595727 0.8240185
vt 0.6595042 0.8240078
vt 0.6597093 0.824029
vt 0.659658 0.8240263
vt 0.6597604 0.8240263
vt 0.6597776 0.8240185
vt 0.6597776 0.8240185
vt 0.6597776 0.8240079
vt 0.6593848 0.8240051
vt 0.659436 0.8240079
vt 0.6593677 0.8239967
vt 0.6593677 0.8239967
vt 0.6593848 0.8239883
vt 0.6593677 0.8239855
vt 0.6597093 0.824029
vt 0.6597604 0.8240263
vt 0.659658 0.8240263
vt 0.6593677 0.8239967
vt 0.6593848 0.8240051
vt 0.6593848 0.8239883
vt 0.659436 0.8239855
vt 0.659436 0.8239855
vt 0.659436 0.8239793
vt 0.6593677 0.8239604
vt 0.659436 0.8239604
vt 0.6595042 0.8239833
vt 0.6593677 0.8239353
vt 0.659436 0.8239353
vt 0.6595042 0.8239604
vt 0.6595042 0.8239353
vt 0.6594873 0.8239883
vt 0.6595727 0.8239604
vt 0.6595727 0.8239353
vt 0.6594873 0.8239883
vt 0.6595727 0.8239821
vt 0.659641 0.8239604
vt 0.659641 0.8239353
vt 0.659641 0.8239821
vt 0.6597093 0.8239604
vt 0.6597093 0.8239353
vt 0.6597776 0.8239604
vt 0.6597776 0.8239353
vt 0.6597776 0.8239855
vt 0.6597093 0.823982
vt 0.6597776 0.8239967
vt 0.6597093 0.8239967
vt 0.659641 0.8239967
vt 0.6597093 0.8240051
vt 0.6595727 0.8239967
vt 0.6597604 0.8240106
vt 0.659641 0.8240078
vt 0.6597093 0.8240079
vt 0.6597776 0.8240185
vt 0.6597604 0.8240106
vt 0.6595214 0.8239967
vt 0.6595727 0.8240076
vt 0.6595042 0.8239967
vt 0.6595042 0.8239967
vt 0.6597604 0.8240263
vt 0.6597776 0.8240185
vt 0.6597093 0.824029
vt 0.659658 0.8240263
vt 0.6594873 0.8240051
vt 0.6594873 0.8240051
vt 0.659436 0.8240079
vt 0.6596238 0.8240185
vt 0.659658 0.8240106
vt 0.659641 0.8240185
vt 0.6597093 0.8240079
vt 0.659641 0.8240185
vt 0.659658 0.8240106
vt 0.6597604 0.8240106
vt 0.659641 0.8240185
vt 0.6597093 0.8240079
vt 0.659658 0.8240106
vt 0.6597604 0.8240185
vt 0.6597472 0.8240126
vt 0.6597093 0.8240106
vt 0.6596713 0.8240126
vt 0.659658 0.8240185
vt 0.6597093 0.8240185
vt 0.6597472 0.8240244
vt 0.6597093 0.8240263
vt 0.6596713 0.8240244
vt 0.6593848 0.8240051
vt 0.659436 0.8240079
vt 0.6593677 0.8239967
vt 0.6594873 0.8240051
vt 0.6593848 0.8239883
vt 0.6595042 0.8239967
vt 0.659436 0.8239855
vt 0.6594873 0.8239883
vt 0.6593981 0.8240029
vt 0.6593848 0.8239967
vt 0.659436 0.8240051
vt 0.659398 0.8239905
vt 0.659474 0.8240029
vt 0.659436 0.8239967
vt 0.659436 0.8239883
vt 0.6594873 0.8239967
vt 0.659474 0.8239905
vn -0.664318 -0.0549068 -0.7454307
vn -0.7071097 0 -0.7071038
vn 0 0 -1
vn 0.00868949 -0.0108531 -0.9999033
vn 0.7071102 0 -0.7071034
vn -0.4958769 -0.2518226 -0.8310785
vn 0.7071097 0 -0.7071037
vn 0.0398919 -0.02688594 -0.9988423
vn -0.09334568 -0.02898914 -0.9952117
vn 0.7071096 0 -0.7071039
vn 0.08118866 -0.02219471 -0.9964516
vn -0.1980326 0.2975995 -0.933926
vn 0.6347818 -0.1157048 -0.7639793
vn 0.009333115 -0.006628868 -0.9999346
vn -0.6667887 0.02840575 -0.7447053
vn 0.2768878 -0.3990342 -0.8741309
vn -0.07918474 -0.01448836 -0.9967546
vn -0.7049806 -0.07751624 -0.7049777
vn 0.08043443 -0.02133309 -0.9965317
vn -0.03051764 -0.05166886 -0.9981979
vn -0.7070927 -0.006550889 -0.7070904
vn 0.471496 0.1215687 -0.8734487
vn -0.008945255 -0.0005609636 -0.9999598
vn -0.6919967 0.2056359 -0.691993
vn 0.6680734 0.02804492 -0.7435666
vn -3.704945E-07 0.4545165 -0.8907383
vn -0.8907377 0.4545178 -1.355472E-07
vn 0.6919966 0.2056356 -0.6919933
vn 2.839913E-07 1 -1.057079E-06
vn 0.8907374 0.4545184 4.608594E-07
vn -0.691995 0.2056364 0.6919947
vn 4.789322E-07 0.4545183 0.8907374
vn 0.6919944 0.2056364 0.6919951
vn -0.7070917 -0.006551288 0.7070914
vn -0.008943868 -0.0005618357 0.9999598
vn -0.9999844 -0.005596687 -1.361752E-07
vn -0.8907377 0.4545178 -1.355472E-07
vn -0.7070927 -0.006550889 -0.7070904
vn -0.6919967 0.2056359 -0.691993
vn -0.7049806 -0.07751624 -0.7049777
vn -0.997331 -0.07301223 0
vn -0.6667887 0.02840575 -0.7447053
vn -0.7049792 -0.07751676 0.7049791
vn -0.9983104 0.05810537 -1.429497E-07
vn -0.1980326 0.2975995 -0.933926
vn 0.6680719 0.02804429 0.743568
vn 0.8907374 0.4545184 4.608594E-07
vn -0.03051457 -0.05166961 0.998198
vn 0.4714943 0.1215674 0.8734497
vn 0.9985021 0.05471286 1.15913E-06
vn 0.6919966 0.2056356 -0.6919933
vn 0.6680734 0.02804492 -0.7435666
vn 0.9765564 0.2152614 9.646466E-07
vn 0.471496 0.1215687 -0.8734487
vn -0.6667854 0.02840333 0.7447083
vn -0.5654514 0.8247817 1.596028E-07
vn -0.07917916 -0.01449086 0.9967551
vn -0.1980309 0.2975957 0.9339275
vn 0.266168 0.9639266 3.84612E-07
vn 0.09454735 0.5545648 0.8267519
vn 0.09455217 0.5545686 -0.8267488
vn 0.08043443 -0.02133309 -0.9965317
vn 0.02853503 -0.05477311 -0.9980909
vn 0.2768878 -0.3990342 -0.8741309
vn 0.3381406 0.5088571 -0.7916599
vn 0.5530066 0.8331769 -2.459127E-07
vn -0.06991355 -0.06595681 -0.9953702
vn -0.09334568 -0.02898914 -0.9952117
vn -0.4868675 -0.5387861 -0.6875097
vn -0.4958769 -0.2518226 -0.8310785
vn -0.7197342 0.6942496 -1.092579E-06
vn -0.521465 0.4324511 -0.735568
vn -0.5214633 0.4324498 0.73557
vn -0.04526061 -0.1274685 -0.9908093
vn 0.6671095 0.1338447 -0.7328373
vn -0.6448776 -0.4627832 -0.6082472
vn -0.6800629 -0.7331538 -1.743226E-07
vn -0.821505 -0.5702013 0
vn -0.9090817 -0.4166179 0
vn -0.664318 -0.0549068 -0.7454307
vn -0.9962875 -0.08608854 -1.458611E-07
vn -0.4958757 -0.2518214 0.8310797
vn -0.7071097 0 -0.7071038
vn -1 0 -1.985809E-07
vn -0.6643146 -0.05490464 0.7454339
vn -0.707107 0 0.7071065
vn -0.4868639 -0.5387847 0.6875134
vn 0.008687479 -0.01085184 0.9999034
vn 0 0 1
vn -0.6448778 -0.4627841 0.6082461
vn 0.03988605 -0.02688423 0.9988425
vn 0.7071068 0 0.7071068
vn 0.7071068 0 0.7071068
vn 0.7071066 0 0.7071069
vn 1 0 -1.137944E-07
vn 1 0 -2.382969E-07
vn 0.7071097 0 -0.7071037
vn 0.7071102 0 -0.7071034
vn 0.7071096 0 -0.7071039
vn 1 0 0
vn 0.6347818 -0.1157048 -0.7639793
vn 0.9803106 -0.1974615 1.002277E-07
vn 0.6347771 -0.1157011 0.7639837
vn 0.5164595 -0.8563116 4.436886E-07
vn 0.08118179 -0.02219218 0.9964522
vn 0.1765141 -0.7156472 -0.6757898
vn 0.2768863 -0.3990318 0.8741325
vn 0.2506512 -0.9680775 3.596263E-07
vn -0.0107452 -0.1491297 -0.9887593
vn 0.4327933 -0.6807808 -0.5909547
vn -0.09334079 -0.02898828 0.9952121
vn 0.009333028 -0.006627996 0.9999346
vn -0.06990922 -0.06595618 0.9953706
vn -0.04526095 -0.1274694 0.9908092
vn -0.6592232 0.3290606 -0.6761242
vn 0.03181998 -0.02769219 -0.9991099
vn -0.9006644 0.4345155 2.856163E-06
vn -0.659224 0.3290606 0.6761233
vn 0.3381411 0.5088506 0.7916638
vn 0.6671113 0.133847 0.7328352
vn 0.9752067 0.2212963 1.556069E-06
vn 0.08043133 -0.02133438 0.9965318
vn 0.1765136 -0.7156442 0.6757931
vn 0.02853314 -0.05477438 0.9980909
vn 0.5584326 -0.8295498 -2.052028E-07
vn -0.01074136 -0.1491305 0.9887592
vn 0.4327936 -0.6807813 0.5909538
vn 0.6581706 -0.4185892 -0.6257751
vn 0.03182149 -0.02769499 0.9991098
vn 0.8424456 -0.5387815 6.170998E-07
vn 0.6581702 -0.4185899 0.625775
vn 0.2558695 0.5750818 -0.7770532
vn 0.8000427 0.0660462 -0.5962965
vn 0.9827788 0.1847855 -2.544303E-07
vn 0.8000425 0.06604765 0.5962967
vn 0.2558714 0.5750816 0.7770527
vn 0.3780931 0.9257676 3.440203E-07
vn -0.4425639 0.6722922 -0.5934311
vn -0.515368 0.8569691 0
vn -0.4425613 0.6722916 0.5934336
vn 0.71389 0.07859962 -0.6958327
vn 0.9974155 0.07184787 2.262462E-06
vn -0.04604595 0.0218223 -0.998701
vn 0.7138886 0.07859759 0.6958343
vn -0.7479926 -0.1232432 -0.6521643
vn -0.04604589 0.02181963 0.998701
vn -0.9837599 -0.1794894 0
vn -0.7479924 -0.123244 0.6521644
vn 0.5591376 0.5748501 -0.5974216
vn -0.09607513 0.6690367 -0.7369935
vn 0.6932735 0.7206746 1.332013E-06
vn -0.6917897 0.4270316 -0.582298
vn 0.5591409 0.5748492 0.5974193
vn -0.1148249 0.9933857 4.31569E-07
vn -0.8226259 0.5685831 0
vn -0.09607533 0.6690366 0.7369936
vn -0.6917915 0.4270326 0.5822952
g SM_Plant1_0
f 3/3/3 2/2/2 1/1/1
f 4/4/4 3/3/3 1/1/1
f 5/5/5 3/3/3 4/4/4
f 4/4/4 1/1/1 6/6/6
f 7/7/7 5/5/5 4/4/4
f 8/8/8 4/4/4 6/6/6
f 7/7/7 4/4/4 8/8/8
f 8/8/8 6/6/6 9/9/9
f 10/10/10 7/7/7 8/8/8
f 11/11/11 8/8/8 9/9/9
f 10/10/10 8/8/8 11/11/11
f 11/11/11 9/9/9 12/12/12
f 13/13/13 10/10/10 11/11/11
f 14/14/14 11/11/11 12/12/12
f 13/13/13 11/11/11 14/14/14
f 14/14/14 12/12/12 15/15/15
f 16/16/16 13/13/13 14/14/14
f 17/17/17 14/14/14 15/15/15
f 16/16/16 14/14/14 17/17/17
f 17/17/17 15/15/15 18/18/18
f 19/19/19 16/16/16 17/17/17
f 20/20/20 17/17/17 18/18/18
f 19/19/19 17/17/17 20/20/20
f 20/20/20 18/18/18 21/21/21
f 22/22/22 19/19/19 20/20/20
f 23/23/23 20/20/20 21/21/21
f 22/22/22 20/20/20 23/23/23
f 23/23/23 21/21/21 24/24/24
f 25/25/25 22/22/22 23/23/23
f 26/26/26 23/23/23 24/24/24
f 25/25/25 23/23/23 26/26/26
f 26/26/26 24/24/24 27/27/27
f 28/28/28 25/25/25 26/26/26
f 29/29/29 26/26/26 27/27/27
f 28/28/28 26/26/26 29/29/29
f 30/30/30 28/28/28 29/29/29
f 29/29/29 27/27/27 31/31/31
f 30/30/30 29/29/29 32/32/32
f 32/32/32 29/29/29 31/31/31
f 33/33/33 30/30/30 32/32/32
f 32/32/32 31/31/31 34/34/34
f 33/33/33 32/32/32 35/35/35
f 35/35/35 32/32/32 34/34/34
f 34/34/34 31/31/31 36/36/36
f 31/31/31 37/37/37 36/36/36
f 36/36/36 37/37/37 38/38/38
f 37/37/37 39/39/39 38/38/38
f 36/36/36 38/38/38 40/40/40
f 41/41/41 36/36/36 40/40/40
f 34/34/34 36/36/36 41/41/41
f 41/41/41 40/40/40 42/42/42
f 43/43/43 34/34/34 41/41/41
f 35/35/35 34/34/34 43/43/43
f 44/44/44 41/41/41 42/42/42
f 43/43/43 41/41/41 44/44/44
f 44/44/44 42/42/42 45/45/45
f 46/46/46 33/33/33 35/35/35
f 47/47/47 33/33/33 46/46/46
f 48/48/48 35/35/35 43/43/43
f 46/46/46 35/35/35 48/48/48
f 49/49/49 46/46/46 48/48/48
f 50/50/50 47/47/47 46/46/46
f 50/50/50 46/46/46 49/49/49
f 51/51/51 47/47/47 50/50/50
f 52/52/52 51/51/51 50/50/50
f 52/52/52 50/50/50 53/53/53
f 53/53/53 50/50/50 49/49/49
f 54/54/54 52/52/52 53/53/53
f 55/55/55 43/43/43 44/44/44
f 48/48/48 43/43/43 55/55/55
f 56/56/56 44/44/44 45/45/45
f 55/55/55 44/44/44 56/56/56
f 57/57/57 48/48/48 55/55/55
f 49/49/49 48/48/48 57/57/57
f 58/58/58 55/55/55 56/56/56
f 57/57/57 55/55/55 58/58/58
f 53/53/53 59/59/59 54/54/54
f 49/49/49 60/60/60 53/53/53
f 60/60/60 59/59/59 53/53/53
f 59/59/59 61/61/61 54/54/54
f 54/54/54 61/61/61 62/62/62
f 61/61/61 63/63/63 62/62/62
f 62/62/62 63/63/63 64/64/64
f 45/45/45 65/65/65 56/56/56
f 56/56/56 66/66/66 58/58/58
f 65/65/65 66/66/66 56/56/56
f 67/67/67 65/65/65 45/45/45
f 68/68/68 67/67/67 45/45/45
f 69/69/69 67/67/67 68/68/68
f 70/70/70 69/69/69 68/68/68
f 59/59/59 71/71/71 61/61/61
f 61/61/61 72/72/72 63/63/63
f 71/71/71 72/72/72 61/61/61
f 73/73/73 71/71/71 59/59/59
f 60/60/60 73/73/73 59/59/59
f 67/67/67 74/74/74 65/65/65
f 65/65/65 75/75/75 66/66/66
f 74/74/74 75/75/75 65/65/65
f 69/69/69 76/76/76 67/67/67
f 76/76/76 74/74/74 67/67/67
f 77/77/77 69/69/69 70/70/70
f 78/78/78 76/76/76 69/69/69
f 77/77/77 78/78/78 69/69/69
f 79/79/79 77/77/77 70/70/70
f 79/79/79 70/70/70 80/80/80
f 81/81/81 79/79/79 80/80/80
f 82/82/82 79/79/79 81/81/81
f 81/81/81 80/80/80 83/83/83
f 84/84/84 81/81/81 83/83/83
f 85/85/85 81/81/81 84/84/84
f 85/85/85 82/82/82 81/81/81
f 86/86/86 85/85/85 84/84/84
f 87/87/87 77/77/77 79/79/79
f 82/82/82 87/87/87 79/79/79
f 88/88/88 85/85/85 86/86/86
f 89/89/89 88/88/88 86/86/86
f 90/90/90 78/78/78 77/77/77
f 87/87/87 90/90/90 77/77/77
f 91/91/91 82/82/82 85/85/85
f 88/88/88 91/91/91 85/85/85
f 92/92/92 88/88/88 89/89/89
f 93/93/93 92/92/92 89/89/89
f 94/94/94 91/91/91 88/88/88
f 92/92/92 94/94/94 88/88/88
f 95/95/95 92/92/92 93/93/93
f 96/96/96 95/95/95 93/93/93
f 97/97/97 95/95/95 96/96/96
f 98/98/98 97/97/97 96/96/96
f 97/97/97 99/99/99 95/95/95
f 95/95/95 100/100/100 92/92/92
f 99/99/99 100/100/100 95/95/95
f 100/100/100 94/94/94 92/92/92
f 99/99/99 101/101/101 100/100/100
f 101/101/101 102/102/102 100/100/100
f 100/100/100 102/102/102 94/94/94
f 101/101/101 64/64/64 102/102/102
f 94/94/94 103/103/103 91/91/91
f 102/102/102 103/103/103 94/94/94
f 64/64/64 104/104/104 102/102/102
f 102/102/102 104/104/104 103/103/103
f 103/103/103 105/105/105 91/91/91
f 91/91/91 105/105/105 82/82/82
f 64/64/64 106/106/106 104/104/104
f 63/63/63 106/106/106 64/64/64
f 104/104/104 107/107/107 103/103/103
f 103/103/103 107/107/107 105/105/105
f 106/106/106 108/108/108 104/104/104
f 104/104/104 108/108/108 107/107/107
f 63/63/63 109/109/109 106/106/106
f 72/72/72 109/109/109 63/63/63
f 106/106/106 110/110/110 108/108/108
f 109/109/109 110/110/110 106/106/106
f 105/105/105 111/111/111 82/82/82
f 107/107/107 112/112/112 105/105/105
f 105/105/105 112/112/112 111/111/111
f 111/111/111 113/113/113 82/82/82
f 113/113/113 87/87/87 82/82/82
f 113/113/113 114/114/114 87/87/87
f 114/114/114 90/90/90 87/87/87
f 72/72/72 115/115/115 109/109/109
f 109/109/109 116/116/116 110/110/110
f 115/115/115 116/116/116 109/109/109
f 117/117/117 115/115/115 72/72/72
f 71/71/71 117/117/117 72/72/72
f 118/118/118 117/117/117 71/71/71
f 73/73/73 118/118/118 71/71/71
f 119/119/119 113/113/113 111/111/111
f 120/120/120 114/114/114 113/113/113
f 119/119/119 120/120/120 113/113/113
f 58/58/58 119/119/119 111/111/111
f 112/112/112 58/58/58 111/111/111
f 66/66/66 119/119/119 58/58/58
f 112/112/112 57/57/57 58/58/58
f 66/66/66 121/121/121 119/119/119
f 121/121/121 120/120/120 119/119/119
f 75/75/75 121/121/121 66/66/66
f 122/122/122 57/57/57 112/112/112
f 107/107/107 122/122/122 112/112/112
f 122/122/122 49/49/49 57/57/57
f 107/107/107 123/123/123 122/122/122
f 108/108/108 123/123/123 107/107/107
f 122/122/122 124/124/124 49/49/49
f 123/123/123 124/124/124 122/122/122
f 124/124/124 60/60/60 49/49/49
f 108/108/108 125/125/125 123/123/123
f 110/110/110 125/125/125 108/108/108
f 124/124/124 126/126/126 60/60/60
f 126/126/126 73/73/73 60/60/60
f 123/123/123 127/127/127 124/124/124
f 125/125/125 127/127/127 123/123/123
f 127/127/127 126/126/126 124/124/124
f 110/110/110 128/128/128 125/125/125
f 116/116/116 128/128/128 110/110/110
f 126/126/126 129/129/129 73/73/73
f 129/129/129 118/118/118 73/73/73
f 125/125/125 130/130/130 127/127/127
f 128/128/128 130/130/130 125/125/125
f 127/127/127 131/131/131 126/126/126
f 131/131/131 129/129/129 126/126/126
f 130/130/130 131/131/131 127/127/127
f 116/116/116 132/132/132 128/128/128
f 128/128/128 133/133/133 130/130/130
f 132/132/132 133/133/133 128/128/128
f 133/133/133 134/134/134 130/130/130
f 130/130/130 134/134/134 131/131/131
f 133/133/133 132/132/132 134/134/134
f 131/131/131 135/135/135 129/129/129
f 134/134/134 135/135/135 131/131/131
f 129/129/129 136/136/136 118/118/118
f 135/135/135 136/136/136 129/129/129
f 134/134/134 137/137/137 135/135/135
f 132/132/132 137/137/137 134/134/134
f 137/137/137 136/136/136 135/135/135
f 138/138/138 132/132/132 116/116/116
f 132/132/132 138/138/138 137/137/137
f 115/115/115 138/138/138 116/116/116
f 138/138/138 139/139/139 137/137/137
f 139/139/139 138/138/138 115/115/115
f 137/137/137 139/139/139 136/136/136
f 117/117/117 139/139/139 115/115/115
f 118/118/118 140/140/140 117/117/117
f 136/136/136 140/140/140 118/118/118
f 139/139/139 140/140/140 136/136/136
f 140/140/140 139/139/139 117/117/117
f 75/75/75 141/141/141 121/121/121
f 141/141/141 142/142/142 121/121/121
f 121/121/121 142/142/142 120/120/120
f 143/143/143 141/141/141 75/75/75
f 74/74/74 143/143/143 75/75/75
f 142/142/142 144/144/144 120/120/120
f 120/120/120 144/144/144 114/114/114
f 145/145/145 143/143/143 74/74/74
f 76/76/76 145/145/145 74/74/74
f 144/144/144 146/146/146 114/114/114
f 114/114/114 146/146/146 90/90/90
f 147/147/147 145/145/145 76/76/76
f 78/78/78 147/147/147 76/76/76
f 90/90/90 148/148/148 78/78/78
f 146/146/146 148/148/148 90/90/90
f 148/148/148 147/147/147 78/78/78
f 141/141/141 149/149/149 142/142/142
f 143/143/143 150/150/150 141/141/141
f 150/150/150 149/149/149 141/141/141
f 149/149/149 151/151/151 142/142/142
f 142/142/142 151/151/151 144/144/144
f 151/151/151 149/149/149 150/150/150
f 145/145/145 152/152/152 143/143/143
f 152/152/152 150/150/150 143/143/143
f 144/144/144 153/153/153 146/146/146
f 151/151/151 153/153/153 144/144/144
f 154/154/154 151/151/151 150/150/150
f 154/154/154 150/150/150 152/152/152
f 153/153/153 151/151/151 154/154/154
f 155/155/155 152/152/152 145/145/145
f 147/147/147 155/155/155 145/145/145
f 155/155/155 154/154/154 152/152/152
f 153/153/153 156/156/156 146/146/146
f 156/156/156 153/153/153 154/154/154
f 146/146/146 156/156/156 148/148/148
f 156/156/156 154/154/154 155/155/155
f 157/157/157 155/155/155 147/147/147
f 148/148/148 157/157/157 147/147/147
f 157/157/157 156/156/156 155/155/155
f 156/156/156 157/157/157 148/148/148
