g SM_PROP_spiderweb_02
v 0.01948107 1.548465 0.03003553
v 0.2997192 1.536345 0.06021149
v 0.5639291 -0.06086343 0.01295124
v 0.01241076 -0.03743615 4.885969E-08
v -0.1629636 1.524009 -0.01358292
v 0.01948107 1.548465 0.03003553
v 0.01241076 -0.03743615 4.885969E-08
v -0.3950841 -0.04412924 7.962468E-08
v -0.09370718 2.300202 -0.014613
v 0.01241075 2.290437 -0.06424896
v 0.01948107 1.548465 0.03003553
v -0.1629636 1.524009 -0.01358292
v 0.01241075 2.290437 -0.06424896
v 0.1330509 2.291438 0.03957189
v 0.2997192 1.536345 0.06021149
v 0.01948107 1.548465 0.03003553
vt 0.486084 0.7250977
vt 0.9941406 0.4870605
vt 0.9941406 0.1577148
vt 0.486084 0.3977051
vt 0.006408691 0.4853516
vt 0.486084 0.7250977
vt 0.486084 0.3977051
vt 0.006408691 0.1625977
vt 0.006408691 0.6455078
vt 0.486084 0.8793945
vt 0.486084 0.7250977
vt 0.006408691 0.4853516
vt 0.486084 0.8793945
vt 0.9941406 0.6430664
vt 0.9941406 0.4870605
vt 0.486084 0.7250977
vn -0.05297852 -0.02851868 0.9980469
vn -0.05297852 -0.02851868 0.9980469
vn -0.05297852 -0.02851868 0.9980469
vn -0.05297852 -0.02851868 0.9980469
vn -0.07373047 0.0003912449 0.9970703
vn -0.07373047 0.0003912449 0.9970703
vn -0.07373047 0.0003912449 0.9970703
vn -0.07373047 0.0003912449 0.9970703
vn 0.01765442 0.06192017 0.9980469
vn 0.01765442 0.06192017 0.9980469
vn 0.01765442 0.06192017 0.9980469
vn 0.01765442 0.06192017 0.9980469
vn -0.315918 0.03613281 0.9482422
vn -0.315918 0.03613281 0.9482422
vn -0.315918 0.03613281 0.9482422
vn -0.315918 0.03613281 0.9482422
g SM_PROP_spiderweb_02_0
f 3/3/3 2/2/2 1/1/1
f 4/4/4 3/3/3 1/1/1
f 7/7/7 6/6/6 5/5/5
f 8/8/8 7/7/7 5/5/5
f 11/11/11 10/10/10 9/9/9
f 12/12/12 11/11/11 9/9/9
f 15/15/15 14/14/14 13/13/13
f 16/16/16 15/15/15 13/13/13
