g SM_StreetLamp
v 0.02255463 0 -0.05749786
v 0.02255524 0.1503012 -0.05920959
v 0.02255463 0.1673956 -0.100896
v 0.02255463 0 -0.1026077
v 0.02255524 0.2938037 0.09051269
v -0.02255463 0.2938037 0.09051269
v -0.02255524 0.3273123 0.06062622
v 0.02255463 0.3273123 0.06062622
v -0.02255463 0.1503012 -0.05920959
v -0.02255463 0 -0.05749786
v -0.02255463 0 -0.1026077
v -0.02255463 0.1673956 -0.100896
v 0.02255463 0 -0.1026077
v 0.02255463 0.1673956 -0.100896
v -0.02255463 0.1673956 -0.100896
v -0.02255463 0 -0.1026077
v -0.02255463 0 -0.05749786
v -0.02255463 0.1503012 -0.05920959
v 0.02255524 0.1503012 -0.05920959
v 0.02255463 0 -0.05749786
v 0.02255524 0.1503012 -0.05920959
v 0.02255463 0.2315198 0.01950561
v 0.02255463 0.2650287 -0.01038086
v 0.02255463 0.1673956 -0.100896
v 0.02255463 0.1673956 -0.100896
v -0.02255524 0.2650287 -0.01038086
v -0.02255463 0.1673956 -0.100896
v 0.02255463 0.2650287 -0.01038086
v -0.02255524 0.3273123 0.06062622
v 0.02255463 0.3273123 0.06062622
v 0.02255463 0.2650287 -0.01038086
v 0.04082977 0.3273123 0.06062622
v 0.04082977 0.2650287 -0.01038086
v -0.04083038 0.3273123 0.06062622
v -0.04083038 0.2650287 -0.01038086
v -0.02255524 0.2650287 -0.01038086
v -0.02255463 0.1673956 -0.100896
v -0.02255524 0.2650287 -0.01038086
v -0.02255524 0.2315198 0.01950561
v -0.02255463 0.1503012 -0.05920959
v -0.02255463 0.1503012 -0.05920959
v -0.02255524 0.2315198 0.01950561
v 0.02255463 0.2315198 0.01950561
v 0.02255524 0.1503012 -0.05920959
v 0.04082977 0.2315198 0.01950561
v 0.04083038 0.2938037 0.09051269
v 0.04082977 0.3273123 0.06062622
v 0.04082977 0.2650287 -0.01038086
v -0.04083038 0.2650287 -0.01038086
v -0.04083038 0.3273123 0.06062622
v -0.04082977 0.2938037 0.09051269
v -0.04083038 0.2315198 0.01950561
v 0.02255463 0.2315198 0.01950561
v 0.04082977 0.2315198 0.01950561
v 0.04082977 0.2650287 -0.01038086
v 0.02255463 0.2650287 -0.01038086
v 0.02255463 0.3273123 0.06062622
v 0.04082977 0.3273123 0.06062622
v 0.04083038 0.2938037 0.09051269
v 0.02255524 0.2938037 0.09051269
v 0.01620331 0.2640468 0.1026077
v 0.02933197 0.2640468 0.1026077
v 0.02933197 0.219303 0.0515976
v 0.01620331 0.219303 0.0515976
v -0.0162027 0.219303 0.0515976
v -0.0162027 0.2640468 0.1026077
v -0.02933136 0.2640468 0.1026077
v -0.02933136 0.219303 0.0515976
v -0.02255524 0.2650287 -0.01038086
v -0.04083038 0.2650287 -0.01038086
v -0.04083038 0.2315198 0.01950561
v -0.02255524 0.2315198 0.01950561
v -0.02255463 0.2938037 0.09051269
v -0.04082977 0.2938037 0.09051269
v -0.04083038 0.3273123 0.06062622
v -0.02255524 0.3273123 0.06062622
v 0.01620331 0.2402899 0.02950378
v 0.02933197 0.219303 0.0515976
v 0.02933197 0.2402899 0.02950378
v 0.01620331 0.219303 0.0515976
v -0.0162027 0.2402899 0.02950378
v -0.0162027 0.219303 0.0515976
v -0.02933136 0.2402899 0.02950378
v -0.02933136 0.219303 0.0515976
v 0.02933197 0.2402899 0.02950378
v 0.02933197 0.219303 0.0515976
v 0.02933197 0.2640468 0.1026077
v 0.02933197 0.2850336 0.08051422
v 0.02933197 0.2850336 0.08051422
v 0.02933197 0.2640468 0.1026077
v 0.01620331 0.2640468 0.1026077
v 0.01620331 0.2850336 0.08051422
v -0.0162027 0.2640468 0.1026077
v -0.0162027 0.2850336 0.08051422
v -0.02933136 0.2640468 0.1026077
v -0.02933136 0.2850336 0.08051422
v -0.02933136 0.2850336 0.08051422
v -0.02933136 0.2640468 0.1026077
v -0.02933136 0.219303 0.0515976
v -0.02933136 0.2402899 0.02950378
v -0.04082977 0.2938037 0.09051269
v -0.02933136 0.2402899 0.02950378
v -0.04083038 0.2315198 0.01950561
v -0.02933136 0.2850336 0.08051422
v -0.0162027 0.2402899 0.02950378
v -0.02255463 0.2938037 0.09051269
v -0.02255524 0.2315198 0.01950561
v -0.0162027 0.2850336 0.08051422
v 0.01620331 0.2402899 0.02950378
v 0.02255524 0.2938037 0.09051269
v 0.02255463 0.2315198 0.01950561
v 0.01620331 0.2850336 0.08051422
v 0.02933197 0.2402899 0.02950378
v 0.04083038 0.2938037 0.09051269
v 0.04082977 0.2315198 0.01950561
v 0.02933197 0.2850336 0.08051422
vt 0.5131781 0.4320644
vt 0.5131781 0.4317709
vt 0.5128846 0.4317709
vt 0.5128846 0.4320644
vt 0.5131781 0.4317709
vt 0.5131781 0.4314773
vt 0.5128846 0.4314773
vt 0.5128846 0.4317709
vt 0.5131781 0.4314773
vt 0.5131781 0.4311838
vt 0.5128846 0.4311838
vt 0.5128846 0.4314773
vt 0.5128846 0.4320644
vt 0.5128846 0.4317709
vt 0.5125909 0.4317709
vt 0.5125909 0.4320644
vt 0.5134717 0.4320644
vt 0.5134717 0.4317709
vt 0.5131781 0.4317709
vt 0.5131781 0.4320644
vt 0.5131781 0.4317709
vt 0.5131781 0.4317709
vt 0.5128846 0.4317709
vt 0.5128846 0.4317709
vt 0.5128846 0.4317709
vt 0.5128846 0.4314773
vt 0.5128846 0.4314773
vt 0.5128846 0.4317709
vt 0.5128846 0.4314773
vt 0.5128846 0.4317709
vt 0.5128846 0.4317709
vt 0.5128846 0.4317709
vt 0.5128846 0.4317709
vt 0.5128846 0.4314773
vt 0.5128846 0.4314773
vt 0.5128846 0.4314773
vt 0.5128846 0.4314773
vt 0.5128846 0.4314773
vt 0.5131781 0.4314773
vt 0.5131781 0.4314773
vt 0.5131781 0.4314773
vt 0.5131781 0.4314773
vt 0.5131781 0.4317709
vt 0.5131781 0.4317709
vt 0.5131781 0.4317709
vt 0.5131781 0.4317709
vt 0.5128846 0.4317709
vt 0.5128846 0.4317709
vt 0.5128846 0.4314773
vt 0.5128846 0.4314773
vt 0.5131781 0.4314773
vt 0.5131781 0.4314773
vt 0.5131781 0.4317709
vt 0.5131781 0.4317709
vt 0.5128846 0.4317709
vt 0.5128846 0.4317709
vt 0.5128846 0.4317709
vt 0.5128846 0.4317709
vt 0.5131781 0.4317709
vt 0.5131781 0.4317709
vt 0.9941272 0.4918095
vt 0.9941272 0.4918095
vt 0.9944286 0.4915429
vt 0.9944286 0.4915429
vt 0.9944286 0.4915429
vt 0.9941272 0.4918095
vt 0.9941272 0.4918095
vt 0.9944286 0.4915429
vt 0.5128846 0.4314773
vt 0.5128846 0.4314773
vt 0.5131781 0.4314773
vt 0.5131781 0.4314773
vt 0.5131781 0.4314773
vt 0.5131781 0.4314773
vt 0.5128846 0.4314773
vt 0.5128846 0.4314773
vt 0.9945593 0.491668
vt 0.9944286 0.4915429
vt 0.9945593 0.491668
vt 0.9944286 0.4915429
vt 0.9945593 0.491668
vt 0.9944286 0.4915429
vt 0.9945593 0.491668
vt 0.9944286 0.4915429
vt 0.9945593 0.491668
vt 0.9944286 0.4915429
vt 0.9941272 0.4918095
vt 0.9942577 0.4919346
vt 0.9942577 0.4919346
vt 0.9941272 0.4918095
vt 0.9941272 0.4918095
vt 0.9942577 0.4919346
vt 0.9941272 0.4918095
vt 0.9942577 0.4919346
vt 0.9941272 0.4918095
vt 0.9942577 0.4919346
vt 0.9942577 0.4919346
vt 0.9941272 0.4918095
vt 0.9944286 0.4915429
vt 0.9945593 0.491668
vt 0.5131781 0.4314773
vt 0.5131781 0.4314773
vt 0.5131781 0.4314773
vt 0.5131781 0.4314773
vt 0.5131781 0.4314773
vt 0.5131781 0.4314773
vt 0.5131781 0.4314773
vt 0.5131781 0.4314773
vt 0.5131781 0.4317709
vt 0.5131781 0.4317709
vt 0.5131781 0.4317709
vt 0.5131781 0.4317709
vt 0.5131781 0.4317709
vt 0.5131781 0.4317709
vt 0.5131781 0.4317709
vt 0.5131781 0.4317709
vn 1 1.770764E-06 -7.410455E-06
vn 1 1.770764E-06 -7.410453E-06
vn 1 1.770764E-06 -7.410454E-06
vn 1 1.770764E-06 -7.410455E-06
vn 0 0.6656221 0.746289
vn 0 0.6656221 0.746289
vn 0 0.6656221 0.746289
vn 0 0.6656221 0.746289
vn -1 -8.85382E-07 0
vn -1 -8.85382E-07 0
vn -1 -8.85382E-07 0
vn -1 -8.85382E-07 0
vn 0 0.01022522 -0.9999478
vn 0 0.01022522 -0.9999478
vn 0 0.01022522 -0.9999478
vn 0 0.01022522 -0.9999478
vn 0 0.01138796 0.9999352
vn 0 0.01138796 0.9999352
vn 0 0.01138796 0.9999352
vn 0 0.01138796 0.9999352
vn 1 0 -3.663851E-06
vn 1 0 -3.663851E-06
vn 1 0 -3.663851E-06
vn 1 0 -3.663852E-06
vn 0 0.6798747 -0.7333284
vn 0 0.710633 -0.7035629
vn 0 0.6798746 -0.7333284
vn 0 0.710633 -0.7035629
vn 0 0.751777 -0.6594175
vn 0 0.751777 -0.6594175
vn 0 0.7517741 -0.6594207
vn 0 0.7517741 -0.6594207
vn 0 0.7517741 -0.6594207
vn 0 0.7517741 -0.6594207
vn 0 0.7517741 -0.6594207
vn 0 0.7517741 -0.6594207
vn -1 0 -2.891315E-06
vn -1 0 -2.891315E-06
vn -1 0 -2.891315E-06
vn -1 0 -2.891315E-06
vn 0 -0.6959581 0.7180823
vn 0 -0.6959581 0.7180823
vn 0 -0.6959581 0.7180823
vn 0 -0.6959581 0.7180823
vn 1 5.756953E-06 -6.893414E-06
vn 1 5.756953E-06 -6.893414E-06
vn 1 5.756954E-06 -6.893415E-06
vn 1 5.756953E-06 -6.893415E-06
vn -1 -5.75692E-06 6.893375E-06
vn -1 -5.75692E-06 6.893375E-06
vn -1 -5.75692E-06 6.893375E-06
vn -1 -5.75692E-06 6.893375E-06
vn 0 -0.6656163 -0.7462941
vn 0 -0.6656163 -0.7462941
vn 0 -0.6656163 -0.7462941
vn 0 -0.6656163 -0.7462941
vn 0 0.6656196 0.7462912
vn 0 0.6656196 0.7462912
vn 0 0.6656196 0.7462912
vn 0 0.6656196 0.7462912
vn 0 -0.7517766 0.6594179
vn 0 -0.7517648 0.6594312
vn 0 -0.7517648 0.6594312
vn 0 -0.7517766 0.6594179
vn 0 -0.7517766 0.6594179
vn 0 -0.7517766 0.6594179
vn 0 -0.7517648 0.6594312
vn 0 -0.7517648 0.6594312
vn 0 -0.6656163 -0.7462941
vn 0 -0.6656163 -0.7462941
vn 0 -0.6656163 -0.7462941
vn 0 -0.6656163 -0.7462941
vn 0 0.6656196 0.7462912
vn 0 0.6656196 0.7462912
vn 0 0.6656196 0.7462912
vn 0 0.6656196 0.7462912
vn 0 -0.7250328 -0.6887143
vn 0 -0.7250367 -0.6887102
vn 0 -0.7250367 -0.6887102
vn 0 -0.7250328 -0.6887143
vn 0 -0.7250328 -0.6887143
vn 0 -0.7250328 -0.6887143
vn 0 -0.7250367 -0.6887102
vn 0 -0.7250367 -0.6887102
vn 1 0 0
vn 1 0 0
vn 1 0 0
vn 1 0 0
vn 0 0.7250249 0.6887228
vn 0 0.7250249 0.6887228
vn 0 0.7250351 0.6887119
vn 0 0.7250351 0.6887119
vn 0 0.7250351 0.6887119
vn 0 0.7250351 0.6887119
vn 0 0.7250249 0.6887228
vn 0 0.7250249 0.6887228
vn -1 0 0
vn -1 0 0
vn -1 0 0
vn -1 0 0
vn 0 -0.7517745 0.6594202
vn -3.270358E-06 -0.751777 0.6594175
vn -3.270359E-06 -0.7517769 0.6594176
vn 0 -0.7517745 0.6594203
vn 0 -0.7517692 0.6594263
vn 0 -0.7517794 0.6594147
vn 0 -0.7517692 0.6594263
vn 0 -0.7517794 0.6594147
vn 0 -0.7517692 0.6594263
vn 0 -0.7517794 0.6594147
vn 0 -0.7517692 0.6594263
vn 0 -0.7517794 0.6594147
vn 0 -0.7517616 0.6594349
vn -6.541126E-06 -0.7517717 0.6594236
vn 0 -0.7517616 0.6594349
vn -6.541126E-06 -0.7517716 0.6594235
g SM_StreetLamp_0
f 3/3/3 2/2/2 1/1/1
f 4/4/4 3/3/3 1/1/1
f 7/7/7 6/6/6 5/5/5
f 8/8/8 7/7/7 5/5/5
f 11/11/11 10/10/10 9/9/9
f 12/12/12 11/11/11 9/9/9
f 15/15/15 14/14/14 13/13/13
f 16/16/16 15/15/15 13/13/13
f 19/19/19 18/18/18 17/17/17
f 20/20/20 19/19/19 17/17/17
f 23/23/23 22/22/22 21/21/21
f 24/24/24 23/23/23 21/21/21
f 27/27/27 26/26/26 25/25/25
f 26/26/26 28/28/28 25/25/25
f 26/26/26 29/29/29 28/28/28
f 29/29/29 30/30/30 28/28/28
f 30/30/30 32/32/32 31/31/31
f 32/32/32 33/33/33 31/31/31
f 35/35/35 34/34/34 29/29/29
f 36/36/36 35/35/35 29/29/29
f 39/39/39 38/38/38 37/37/37
f 40/40/40 39/39/39 37/37/37
f 43/43/43 42/42/42 41/41/41
f 44/44/44 43/43/43 41/41/41
f 47/47/47 46/46/46 45/45/45
f 48/48/48 47/47/47 45/45/45
f 51/51/51 50/50/50 49/49/49
f 52/52/52 51/51/51 49/49/49
f 55/55/55 54/54/54 53/53/53
f 56/56/56 55/55/55 53/53/53
f 59/59/59 58/58/58 57/57/57
f 60/60/60 59/59/59 57/57/57
f 63/63/63 62/62/62 61/61/61
f 64/64/64 63/63/63 61/61/61
f 64/64/64 61/61/61 65/65/65
f 61/61/61 66/66/66 65/65/65
f 66/66/66 67/67/67 65/65/65
f 67/67/67 68/68/68 65/65/65
f 71/71/71 70/70/70 69/69/69
f 72/72/72 71/71/71 69/69/69
f 75/75/75 74/74/74 73/73/73
f 76/76/76 75/75/75 73/73/73
f 79/79/79 78/78/78 77/77/77
f 78/78/78 80/80/80 77/77/77
f 77/77/77 80/80/80 81/81/81
f 80/80/80 82/82/82 81/81/81
f 81/81/81 82/82/82 83/83/83
f 82/82/82 84/84/84 83/83/83
f 87/87/87 86/86/86 85/85/85
f 88/88/88 87/87/87 85/85/85
f 91/91/91 90/90/90 89/89/89
f 92/92/92 91/91/91 89/89/89
f 93/93/93 91/91/91 92/92/92
f 94/94/94 93/93/93 92/92/92
f 95/95/95 93/93/93 94/94/94
f 96/96/96 95/95/95 94/94/94
f 99/99/99 98/98/98 97/97/97
f 100/100/100 99/99/99 97/97/97
f 103/103/103 102/102/102 101/101/101
f 102/102/102 104/104/104 101/101/101
f 105/105/105 102/102/102 103/103/103
f 101/101/101 104/104/104 106/106/106
f 107/107/107 105/105/105 103/103/103
f 104/104/104 108/108/108 106/106/106
f 109/109/109 105/105/105 107/107/107
f 106/106/106 108/108/108 110/110/110
f 111/111/111 109/109/109 107/107/107
f 108/108/108 112/112/112 110/110/110
f 113/113/113 109/109/109 111/111/111
f 110/110/110 112/112/112 114/114/114
f 115/115/115 113/113/113 111/111/111
f 112/112/112 116/116/116 114/114/114
f 116/116/116 113/113/113 115/115/115
f 114/114/114 116/116/116 115/115/115
