g SM_Tree2
v 0.1746497 0.3686754 -2.69176E-07
v 0.1730048 0.4860206 -0.1256955
v 0.141295 0.3686754 -0.1026565
v 0.2138456 0.4860206 -2.69176E-07
v 0.1412949 0.3686754 0.102656
v 0.2045748 0.6687897 -0.1486331
v 0.1730047 0.4860206 0.1256955
v 0.05396976 0.3686754 0.166102
v 0.2528686 0.6687897 -2.69176E-07
v 0.2210469 0.899092 -0.1606009
v 0.06608188 0.4860206 0.2033799
v -0.05397008 0.3686754 0.166102
v 0.2045747 0.6687897 0.1486319
v -0.06608224 0.4860206 0.2033799
v -0.1412947 0.3686754 0.102656
v 0.2732294 0.899092 -2.69176E-07
v 0.0781406 0.6687897 0.2404917
v -0.1730051 0.4860206 0.1256955
v -0.17465 0.3686754 -2.69176E-07
v 0.2210469 0.899092 0.1605997
v -0.07814096 0.6687897 0.2404917
v -0.213846 0.4860206 -2.69176E-07
v -0.1412947 0.3686754 -0.1026565
v 0.08443272 0.899092 0.2598569
v -0.2045752 0.6687897 0.1486319
v -0.1730052 0.4860206 -0.1256955
v -0.05397014 0.3686754 -0.1661026
v -0.08443244 0.899092 0.2598569
v -0.2528691 0.6687897 -2.69176E-07
v -0.06608226 0.4860206 -0.2033792
v 0.05396975 0.3686754 -0.1661026
v -0.2210473 0.899092 0.1605997
v -0.2045752 0.6687897 -0.1486331
v 0.06608184 0.4860206 -0.2033792
v 0.141295 0.3686754 -0.1026565
v 0.1730048 0.4860206 -0.1256955
v -0.07814103 0.6687897 -0.2404928
v 0.07814056 0.6687897 -0.2404928
v 0.2045748 0.6687897 -0.1486331
v -0.2732298 0.899092 -2.69176E-07
v -0.2210473 0.899092 -0.1606009
v 0.08443268 0.899092 -0.2598574
v -0.08443251 0.899092 -0.2598574
v -0.2732298 1.203614 -2.69176E-07
v -0.2210473 1.203614 -0.1606009
v -0.08443251 1.203614 -0.2598574
v 0.08443268 1.203614 -0.2598574
v 0.2210469 1.203614 -0.1606009
v 0.07182229 1.288232 -0.2210476
v 0.1880341 1.288232 -0.1366153
v -0.07182273 1.288232 -0.2210476
v -0.1880339 1.288232 -0.1366153
v 0.05218174 1.355385 -0.1606009
v 0.1366146 1.355385 -0.09925686
v -0.05218215 1.355385 -0.1606009
v 0.02743367 1.3985 -0.08443264
v 0.07182232 1.3985 -0.05218227
v -1.858889E-07 1.413356 -2.69176E-07
v -0.02743406 1.3985 -0.08443264
v -1.858889E-07 1.413356 -2.69176E-07
v -0.1366151 1.355385 -0.09925686
v -0.07182271 1.3985 -0.05218227
v -1.858889E-07 1.413356 -2.69176E-07
v -0.08877749 1.3985 -2.69176E-07
v -1.858889E-07 1.413356 -2.69176E-07
v -0.1688654 1.355385 -2.69176E-07
v -0.2324231 1.288232 -2.69176E-07
v -0.0718227 1.3985 0.05218235
v -1.858889E-07 1.413356 -2.69176E-07
v -0.136615 1.355385 0.09925571
v -0.1880339 1.288232 0.1366147
v -0.02743405 1.3985 0.0844321
v -1.858889E-07 1.413356 -2.69176E-07
v -0.05218213 1.355385 0.1605997
v -0.2210473 1.203614 0.1605997
v -0.07182267 1.288232 0.2210471
v -0.08443244 1.203614 0.2598569
v 0.02743369 1.3985 0.0844321
v -1.858889E-07 1.413356 -2.69176E-07
v 0.05218177 1.355385 0.1605997
v 0.08443272 1.203614 0.2598569
v 0.07182232 1.288232 0.2210471
v 0.07182232 1.3985 0.05218235
v -1.858889E-07 1.413356 -2.69176E-07
v 0.2210469 1.203614 0.1605997
v 0.188034 1.288232 0.1366147
v 0.1366146 1.355385 0.09925571
v 0.2732294 1.203614 -2.69176E-07
v 0.2210469 1.203614 -0.1606009
v 0.1880341 1.288232 -0.1366153
v 0.2324227 1.288232 -2.69176E-07
v 0.1366146 1.355385 -0.09925686
v 0.1688649 1.355385 -2.69176E-07
v 0.07182232 1.3985 -0.05218227
v 0.0887777 1.3985 -2.69176E-07
v -1.858889E-07 1.413356 -2.69176E-07
v -1.858889E-07 1.413356 -2.69176E-07
v 0.05396975 0.3686754 -0.1661026
v 0.01535747 0.4063624 -0.0472665
v 0.04020669 0.4063624 -0.02921231
v 0.141295 0.3686754 -0.1026565
v -0.05397014 0.3686754 -0.1661026
v -0.01535785 0.4063624 -0.0472665
v 0.01535747 0.4063624 -0.0472665
v 0.05396975 0.3686754 -0.1661026
v -0.1412947 0.3686754 -0.1026565
v -0.04020705 0.4063624 -0.02921231
v -0.01535785 0.4063624 -0.0472665
v -0.05397014 0.3686754 -0.1661026
v -0.17465 0.3686754 -2.69176E-07
v -0.04969863 0.4063624 -2.69176E-07
v -0.04020705 0.4063624 -0.02921231
v -0.1412947 0.3686754 -0.1026565
v -0.1412947 0.3686754 0.102656
v -0.04020704 0.4063624 0.02921177
v -0.04969863 0.4063624 -2.69176E-07
v -0.17465 0.3686754 -2.69176E-07
v -0.05397008 0.3686754 0.166102
v -0.01535784 0.4063624 0.04726597
v -0.04020704 0.4063624 0.02921177
v -0.1412947 0.3686754 0.102656
v 0.05396976 0.3686754 0.166102
v 0.01535748 0.4063624 0.04726597
v -0.01535784 0.4063624 0.04726597
v -0.05397008 0.3686754 0.166102
v 0.1412949 0.3686754 0.102656
v 0.04020666 0.4063624 0.02921177
v 0.01535748 0.4063624 0.04726597
v 0.05396976 0.3686754 0.166102
v 0.1746497 0.3686754 -2.69176E-07
v 0.04969826 0.4063624 -2.69176E-07
v 0.04020666 0.4063624 0.02921177
v 0.1412949 0.3686754 0.102656
v 0.141295 0.3686754 -0.1026565
v 0.04020669 0.4063624 -0.02921231
v 0.04969826 0.4063624 -2.69176E-07
v 0.1746497 0.3686754 -2.69176E-07
v 0.04969826 0.4063624 -2.69176E-07
v 0.06999131 0 -2.69176E-07
v 0.05662451 0 0.04113926
v 0.04020666 0.4063624 0.02921177
v 0.04020669 0.4063624 -0.02921231
v 0.02162844 0 0.06656589
v 0.05662453 0 -0.0411404
v 0.01535748 0.4063624 0.04726597
v 0.01535747 0.4063624 -0.0472665
v -0.02162879 0 0.06656589
v 0.02162843 0 -0.06656643
v -0.01535784 0.4063624 0.04726597
v -0.01535785 0.4063624 -0.0472665
v -0.05662427 0 0.04113926
v -0.02162881 0 -0.06656643
v -0.04020704 0.4063624 0.02921177
v -0.04020705 0.4063624 -0.02921231
v -0.06999168 0 -2.69176E-07
v -0.05662429 0 -0.0411404
v -0.04969863 0.4063624 -2.69176E-07
vt 0.8193802 0.08054376
vt 0.8193939 0.08055747
vt 0.8193939 0.08054376
vt 0.8193802 0.08055747
vt 0.8193665 0.08054376
vt 0.8193939 0.08057117
vt 0.8193665 0.08055747
vt 0.8193528 0.08054376
vt 0.8193802 0.08057117
vt 0.8192566 0.08058488
vt 0.8193528 0.08055747
vt 0.819339 0.08054376
vt 0.8193665 0.08057117
vt 0.819339 0.08055747
vt 0.8193253 0.08054376
vt 0.8193802 0.08058488
vt 0.8193528 0.08057117
vt 0.8193253 0.08055747
vt 0.8193116 0.08054376
vt 0.8193665 0.08058488
vt 0.819339 0.08057117
vt 0.8193116 0.08055747
vt 0.8192979 0.08054376
vt 0.8193528 0.08058488
vt 0.8193253 0.08057117
vt 0.8192979 0.08055747
vt 0.8192841 0.08054376
vt 0.819339 0.08058488
vt 0.8193116 0.08057117
vt 0.8192841 0.08055747
vt 0.8192704 0.08054376
vt 0.8193253 0.08058488
vt 0.8192979 0.08057117
vt 0.8192704 0.08055747
vt 0.8192566 0.08054376
vt 0.8192566 0.08055747
vt 0.8192841 0.08057117
vt 0.8192704 0.08057117
vt 0.8192566 0.08057117
vt 0.8193116 0.08058488
vt 0.8192979 0.08058488
vt 0.8192704 0.08058488
vt 0.8192841 0.08058488
vt 0.8193116 0.08061236
vt 0.8192979 0.08061236
vt 0.8192841 0.08061236
vt 0.8192704 0.08061236
vt 0.8192566 0.08061236
vt 0.8192704 0.08062607
vt 0.8192566 0.08062607
vt 0.8192841 0.08062607
vt 0.8192979 0.08062607
vt 0.8192704 0.08063984
vt 0.8192566 0.08063984
vt 0.8192841 0.08063984
vt 0.8192704 0.08065355
vt 0.8192566 0.08065355
vt 0.8192635 0.08066726
vt 0.8192841 0.08065355
vt 0.8192772 0.08066726
vt 0.8192979 0.08063984
vt 0.8192979 0.08065355
vt 0.8192909 0.08066726
vt 0.8193116 0.08065355
vt 0.8193048 0.08066726
vt 0.8193116 0.08063984
vt 0.8193116 0.08062607
vt 0.8193253 0.08065355
vt 0.8193185 0.08066726
vt 0.8193253 0.08063984
vt 0.8193253 0.08062607
vt 0.819339 0.08065355
vt 0.8193322 0.08066726
vt 0.819339 0.08063984
vt 0.8193253 0.08061236
vt 0.819339 0.08062607
vt 0.819339 0.08061236
vt 0.8193528 0.08065355
vt 0.8193459 0.08066726
vt 0.8193528 0.08063984
vt 0.8193528 0.08061236
vt 0.8193528 0.08062607
vt 0.8193665 0.08065355
vt 0.8193596 0.08066726
vt 0.8193665 0.08061236
vt 0.8193665 0.08062607
vt 0.8193665 0.08063984
vt 0.8193802 0.08061236
vt 0.8193939 0.08061236
vt 0.8193939 0.08062607
vt 0.8193802 0.08062607
vt 0.8193939 0.08063984
vt 0.8193802 0.08063984
vt 0.8193939 0.08065355
vt 0.8193802 0.08065355
vt 0.8193733 0.08066726
vt 0.819387 0.08066726
vt 0.8192566 0.08052999
vt 0.8192566 0.08066726
vt 0.8193939 0.08066726
vt 0.8193939 0.08052999
vt 0.8192566 0.08052999
vt 0.8192566 0.08066726
vt 0.8193939 0.08066726
vt 0.8193939 0.08052999
vt 0.8192566 0.08052999
vt 0.8192566 0.08066726
vt 0.8193939 0.08066726
vt 0.8193939 0.08052999
vt 0.8192566 0.08052999
vt 0.8192566 0.08066726
vt 0.8193939 0.08066726
vt 0.8193939 0.08052999
vt 0.8192566 0.08052999
vt 0.8192566 0.08066726
vt 0.8193939 0.08066726
vt 0.8193939 0.08052999
vt 0.8192566 0.08052999
vt 0.8192566 0.08066726
vt 0.8193939 0.08066726
vt 0.8193939 0.08052999
vt 0.8192566 0.08052999
vt 0.8192566 0.08066726
vt 0.8193939 0.08066726
vt 0.8193939 0.08052999
vt 0.8192566 0.08052999
vt 0.8192566 0.08066726
vt 0.8193939 0.08066726
vt 0.8193939 0.08052999
vt 0.8192566 0.08052999
vt 0.8192566 0.08066726
vt 0.8193939 0.08066726
vt 0.8193939 0.08052999
vt 0.8192566 0.08052999
vt 0.8192566 0.08066726
vt 0.8193939 0.08066726
vt 0.8193939 0.08052999
vt 0.5610433 0.4082635
vt 0.5610433 0.4084008
vt 0.5610433 0.4084008
vt 0.5610433 0.4082635
vt 0.5611807 0.4082635
vt 0.5610433 0.4084008
vt 0.5611807 0.4084008
vt 0.5610433 0.4082635
vt 0.5610433 0.4082635
vt 0.5610433 0.4084008
vt 0.5610433 0.4084008
vt 0.5610433 0.4082635
vt 0.5610433 0.4082635
vt 0.5610433 0.4084008
vt 0.5610433 0.4084008
vt 0.5610433 0.4082635
vt 0.5610433 0.4082635
vt 0.5610433 0.4084008
vt 0.5610433 0.4084008
vt 0.5610433 0.4082635
vn 0.9484875 -0.3168148 0
vn 0.7843677 -0.2449671 -0.5698758
vn 0.7673433 -0.3168136 -0.5575063
vn 0.9695315 -0.2449664 0
vn 0.7673442 -0.3168167 0.5575034
vn 0.8013883 -0.1370066 -0.5822423
vn 0.7843679 -0.2449657 0.5698761
vn 0.2930999 -0.3168186 0.9020634
vn 0.9905703 -0.1370058 1.037859E-07
vn 0.8084682 -0.03684809 -0.5873851
vn 0.2996013 -0.2449647 0.9220799
vn -0.2931002 -0.3168194 0.902063
vn 0.8013887 -0.1370054 0.5822418
vn -0.2996014 -0.244965 0.9220798
vn -0.7673433 -0.3168185 0.5575038
vn 0.9993209 -0.0368479 0
vn 0.3061041 -0.1370057 0.9420879
vn -0.7843678 -0.2449664 0.569876
vn -0.9484865 -0.3168174 2.265482E-07
vn 0.8084684 -0.03684833 0.5873851
vn -0.3061042 -0.1370054 0.9420879
vn -0.9695313 -0.2449674 0
vn -0.7673426 -0.3168154 -0.5575064
vn 0.3088095 -0.03684932 0.9504098
vn -0.8013883 -0.1370052 0.5822425
vn -0.7843677 -0.2449677 -0.5698756
vn -0.2931005 -0.3168115 -0.9020658
vn -0.3088088 -0.0368491 0.9504101
vn -0.9905703 -0.1370058 0
vn -0.2996029 -0.2449676 -0.9220787
vn 0.2931001 -0.3168107 -0.9020661
vn -0.8084674 -0.0368481 0.5873862
vn -0.801388 -0.1370064 -0.5822426
vn 0.2996028 -0.2449673 -0.9220788
vn 0.7673433 -0.3168136 -0.5575063
vn 0.7843677 -0.2449671 -0.5698758
vn -0.3061031 -0.1370077 -0.9420879
vn 0.3061029 -0.1370079 -0.942088
vn 0.8013883 -0.1370066 -0.5822423
vn -0.9993209 -0.03684785 0
vn -0.8084676 -0.03684788 -0.587386
vn 0.3088074 -0.03684851 -0.9504106
vn -0.3088068 -0.03684832 -0.9504107
vn -0.9958138 0.09140555 0
vn -0.8056303 0.09140562 -0.5853246
vn -0.3077233 0.09140599 -0.9470751
vn 0.307724 0.09140605 -0.9470749
vn 0.805631 0.09140542 -0.5853235
vn 0.2606069 0.5373781 -0.8020653
vn 0.6822788 0.537377 -0.4957032
vn -0.2606077 0.5373776 -0.8020655
vn -0.6822781 0.5373766 -0.4957045
vn 0.2021452 0.7563614 -0.6221373
vn 0.5292207 0.7563621 -0.384502
vn -0.2021454 0.7563612 -0.6221374
vn 0.1295076 0.9079445 -0.3985783
vn 0.3390508 0.9079444 -0.2463362
vn 0 1 -4.067123E-07
vn -0.1295076 0.9079446 -0.3985779
vn 0 1 -4.067123E-07
vn -0.5292218 0.7563614 -0.384502
vn -0.339051 0.9079446 -0.2463351
vn 0 1 -4.067123E-07
vn -0.4190888 0.9079453 0
vn 0 1 -4.067123E-07
vn -0.6541542 0.7563612 5.33352E-07
vn -0.8433424 0.5373766 2.548439E-07
vn -0.3390522 0.9079435 0.2463376
vn 0 1 -4.067123E-07
vn -0.5292222 0.7563612 0.3845016
vn -0.6822777 0.5373766 0.4957051
vn -0.1295066 0.9079433 0.3985811
vn 0 1 -4.067123E-07
vn -0.2021435 0.7563623 0.6221368
vn -0.8056304 0.09140535 0.5853245
vn -0.2606085 0.5373785 0.8020645
vn -0.3077254 0.09140564 0.9470745
vn 0.1295067 0.9079433 0.3985811
vn 0 1 -4.067123E-07
vn 0.2021433 0.7563623 0.6221368
vn 0.3077261 0.09140576 0.9470742
vn 0.2606077 0.5373787 0.8020647
vn 0.3390521 0.9079433 0.2463385
vn 0 1 -4.067123E-07
vn 0.8056312 0.09140518 0.5853233
vn 0.6822783 0.5373767 0.4957041
vn 0.5292215 0.7563618 0.3845016
vn 0.9958138 0.09140487 0
vn 0.805631 0.09140542 -0.5853235
vn 0.6822788 0.537377 -0.4957032
vn 0.8433427 0.537376 0
vn 0.5292207 0.7563621 -0.384502
vn 0.6541536 0.7563617 3.125371E-07
vn 0.3390508 0.9079444 -0.2463362
vn 0.4190899 0.9079447 3.794975E-07
vn 0 1 -4.067123E-07
vn 0 1 -4.067123E-07
vn -0.08923463 -0.9574004 0.2746301
vn -0.08923478 -0.9574004 0.2746301
vn -0.2336152 -0.9574003 0.1697308
vn -0.2336153 -0.9574003 0.1697306
vn 0.08923475 -0.9574004 0.2746302
vn 0.08923502 -0.9574004 0.2746301
vn -0.08923478 -0.9574004 0.2746301
vn -0.08923463 -0.9574004 0.2746301
vn 0.2336159 -0.9574 0.1697314
vn 0.2336159 -0.9574 0.1697313
vn 0.08923502 -0.9574004 0.2746301
vn 0.08923475 -0.9574004 0.2746302
vn 0.2887625 -0.9574008 0
vn 0.2887625 -0.9574008 0
vn 0.2336159 -0.9574 0.1697313
vn 0.2336159 -0.9574 0.1697314
vn 0.233616 -0.9574 -0.1697313
vn 0.233616 -0.9574 -0.1697312
vn 0.2887625 -0.9574008 0
vn 0.2887625 -0.9574008 0
vn 0.08923474 -0.9574004 -0.2746302
vn 0.08923505 -0.9574004 -0.27463
vn 0.233616 -0.9574 -0.1697312
vn 0.233616 -0.9574 -0.1697313
vn -0.08923464 -0.9574003 -0.2746302
vn -0.08923481 -0.9574003 -0.2746302
vn 0.08923505 -0.9574004 -0.27463
vn 0.08923474 -0.9574004 -0.2746302
vn -0.2336154 -0.9574003 -0.1697307
vn -0.2336153 -0.9574003 -0.1697308
vn -0.08923481 -0.9574003 -0.2746302
vn -0.08923464 -0.9574003 -0.2746302
vn -0.2887621 -0.9574009 0
vn -0.2887622 -0.9574009 0
vn -0.2336153 -0.9574003 -0.1697308
vn -0.2336154 -0.9574003 -0.1697307
vn -0.2336153 -0.9574003 0.1697306
vn -0.2336152 -0.9574003 0.1697308
vn -0.2887622 -0.9574009 0
vn -0.2887621 -0.9574009 0
vn 0.9987555 0.04987666 3.192671E-07
vn 0.9987555 0.04987666 2.913216E-07
vn 0.8080106 0.0498764 0.587053
vn 0.8080103 0.04987641 0.5870534
vn 0.808015 0.04987635 -0.5870467
vn 0.3086339 0.0498764 0.9498724
vn 0.8080152 0.04987637 -0.5870467
vn 0.308634 0.0498764 0.9498724
vn 0.3086461 0.04987637 -0.9498684
vn -0.3086351 0.04987619 0.949872
vn 0.3086461 0.04987638 -0.9498684
vn -0.3086352 0.04987619 0.949872
vn -0.3086474 0.04987617 -0.949868
vn -0.8080105 0.04987568 0.5870531
vn -0.3086475 0.04987618 -0.949868
vn -0.8080104 0.04987569 0.5870534
vn -0.8080153 0.04987564 -0.5870466
vn -0.9987555 0.04987603 2.39912E-07
vn -0.8080152 0.04987564 -0.5870467
vn -0.9987555 0.04987603 2.856601E-07
g SM_Tree2_0
f 3/3/3 2/2/2 1/1/1
f 2/2/2 4/4/4 1/1/1
f 1/1/1 4/4/4 5/5/5
f 2/2/2 6/6/6 4/4/4
f 4/4/4 7/7/7 5/5/5
f 5/5/5 7/7/7 8/8/8
f 6/6/6 9/9/9 4/4/4
f 4/4/4 9/9/9 7/7/7
f 6/6/6 10/10/10 9/9/9
f 7/7/7 11/11/11 8/8/8
f 8/8/8 11/11/11 12/12/12
f 9/9/9 13/13/13 7/7/7
f 7/7/7 13/13/13 11/11/11
f 11/11/11 14/14/14 12/12/12
f 12/12/12 14/14/14 15/15/15
f 10/10/10 16/16/16 9/9/9
f 9/9/9 16/16/16 13/13/13
f 13/13/13 17/17/17 11/11/11
f 11/11/11 17/17/17 14/14/14
f 14/14/14 18/18/18 15/15/15
f 15/15/15 18/18/18 19/19/19
f 16/16/16 20/20/20 13/13/13
f 13/13/13 20/20/20 17/17/17
f 17/17/17 21/21/21 14/14/14
f 14/14/14 21/21/21 18/18/18
f 18/18/18 22/22/22 19/19/19
f 19/19/19 22/22/22 23/23/23
f 20/20/20 24/24/24 17/17/17
f 17/17/17 24/24/24 21/21/21
f 21/21/21 25/25/25 18/18/18
f 18/18/18 25/25/25 22/22/22
f 22/22/22 26/26/26 23/23/23
f 23/23/23 26/26/26 27/27/27
f 24/24/24 28/28/28 21/21/21
f 21/21/21 28/28/28 25/25/25
f 25/25/25 29/29/29 22/22/22
f 22/22/22 29/29/29 26/26/26
f 26/26/26 30/30/30 27/27/27
f 27/27/27 30/30/30 31/31/31
f 28/28/28 32/32/32 25/25/25
f 25/25/25 32/32/32 29/29/29
f 29/29/29 33/33/33 26/26/26
f 26/26/26 33/33/33 30/30/30
f 30/30/30 34/34/34 31/31/31
f 31/31/31 34/34/34 35/35/35
f 34/34/34 36/36/36 35/35/35
f 30/30/30 37/37/37 34/34/34
f 33/33/33 37/37/37 30/30/30
f 34/34/34 38/38/38 36/36/36
f 37/37/37 38/38/38 34/34/34
f 38/38/38 39/39/39 36/36/36
f 29/29/29 40/40/40 33/33/33
f 32/32/32 40/40/40 29/29/29
f 33/33/33 41/41/41 37/37/37
f 40/40/40 41/41/41 33/33/33
f 38/38/38 42/42/42 39/39/39
f 42/42/42 10/10/10 39/39/39
f 37/37/37 43/43/43 38/38/38
f 41/41/41 43/43/43 37/37/37
f 43/43/43 42/42/42 38/38/38
f 44/44/44 40/40/40 32/32/32
f 45/45/45 41/41/41 40/40/40
f 44/44/44 45/45/45 40/40/40
f 46/46/46 43/43/43 41/41/41
f 45/45/45 46/46/46 41/41/41
f 47/47/47 42/42/42 43/43/43
f 46/46/46 47/47/47 43/43/43
f 48/48/48 10/10/10 42/42/42
f 47/47/47 48/48/48 42/42/42
f 47/47/47 49/49/49 48/48/48
f 49/49/49 50/50/50 48/48/48
f 46/46/46 51/51/51 47/47/47
f 51/51/51 49/49/49 47/47/47
f 45/45/45 52/52/52 46/46/46
f 52/52/52 51/51/51 46/46/46
f 49/49/49 53/53/53 50/50/50
f 53/53/53 54/54/54 50/50/50
f 51/51/51 55/55/55 49/49/49
f 55/55/55 53/53/53 49/49/49
f 53/53/53 56/56/56 54/54/54
f 56/56/56 57/57/57 54/54/54
f 56/56/56 58/58/58 57/57/57
f 59/59/59 56/56/56 53/53/53
f 55/55/55 59/59/59 53/53/53
f 59/59/59 60/60/60 56/56/56
f 61/61/61 55/55/55 51/51/51
f 52/52/52 61/61/61 51/51/51
f 62/62/62 59/59/59 55/55/55
f 61/61/61 62/62/62 55/55/55
f 62/62/62 63/63/63 59/59/59
f 64/64/64 62/62/62 61/61/61
f 64/64/64 65/65/65 62/62/62
f 66/66/66 61/61/61 52/52/52
f 66/66/66 64/64/64 61/61/61
f 67/67/67 66/66/66 52/52/52
f 67/67/67 52/52/52 45/45/45
f 44/44/44 67/67/67 45/45/45
f 68/68/68 64/64/64 66/66/66
f 68/68/68 69/69/69 64/64/64
f 70/70/70 66/66/66 67/67/67
f 70/70/70 68/68/68 66/66/66
f 71/71/71 67/67/67 44/44/44
f 71/71/71 70/70/70 67/67/67
f 72/72/72 68/68/68 70/70/70
f 72/72/72 73/73/73 68/68/68
f 74/74/74 72/72/72 70/70/70
f 74/74/74 70/70/70 71/71/71
f 75/75/75 71/71/71 44/44/44
f 75/75/75 44/44/44 32/32/32
f 75/75/75 32/32/32 28/28/28
f 76/76/76 71/71/71 75/75/75
f 76/76/76 74/74/74 71/71/71
f 77/77/77 75/75/75 28/28/28
f 77/77/77 76/76/76 75/75/75
f 77/77/77 28/28/28 24/24/24
f 78/78/78 72/72/72 74/74/74
f 78/78/78 79/79/79 72/72/72
f 80/80/80 74/74/74 76/76/76
f 80/80/80 78/78/78 74/74/74
f 81/81/81 77/77/77 24/24/24
f 81/81/81 24/24/24 20/20/20
f 82/82/82 76/76/76 77/77/77
f 82/82/82 80/80/80 76/76/76
f 81/81/81 82/82/82 77/77/77
f 83/83/83 78/78/78 80/80/80
f 83/83/83 84/84/84 78/78/78
f 85/85/85 81/81/81 20/20/20
f 85/85/85 20/20/20 16/16/16
f 86/86/86 82/82/82 81/81/81
f 85/85/85 86/86/86 81/81/81
f 87/87/87 80/80/80 82/82/82
f 87/87/87 83/83/83 80/80/80
f 86/86/86 87/87/87 82/82/82
f 88/88/88 85/85/85 16/16/16
f 88/88/88 16/16/16 10/10/10
f 89/89/89 88/88/88 10/10/10
f 89/89/89 90/90/90 88/88/88
f 88/88/88 91/91/91 85/85/85
f 90/90/90 91/91/91 88/88/88
f 91/91/91 86/86/86 85/85/85
f 90/90/90 92/92/92 91/91/91
f 91/91/91 93/93/93 86/86/86
f 92/92/92 93/93/93 91/91/91
f 93/93/93 87/87/87 86/86/86
f 92/92/92 94/94/94 93/93/93
f 95/95/95 83/83/83 87/87/87
f 93/93/93 95/95/95 87/87/87
f 94/94/94 95/95/95 93/93/93
f 95/95/95 96/96/96 83/83/83
f 94/94/94 97/97/97 95/95/95
f 100/100/100 99/99/99 98/98/98
f 101/101/101 100/100/100 98/98/98
f 104/104/104 103/103/103 102/102/102
f 105/105/105 104/104/104 102/102/102
f 108/108/108 107/107/107 106/106/106
f 109/109/109 108/108/108 106/106/106
f 112/112/112 111/111/111 110/110/110
f 113/113/113 112/112/112 110/110/110
f 116/116/116 115/115/115 114/114/114
f 117/117/117 116/116/116 114/114/114
f 120/120/120 119/119/119 118/118/118
f 121/121/121 120/120/120 118/118/118
f 124/124/124 123/123/123 122/122/122
f 125/125/125 124/124/124 122/122/122
f 128/128/128 127/127/127 126/126/126
f 129/129/129 128/128/128 126/126/126
f 132/132/132 131/131/131 130/130/130
f 133/133/133 132/132/132 130/130/130
f 136/136/136 135/135/135 134/134/134
f 137/137/137 136/136/136 134/134/134
f 140/140/140 139/139/139 138/138/138
f 141/141/141 140/140/140 138/138/138
f 138/138/138 139/139/139 142/142/142
f 143/143/143 140/140/140 141/141/141
f 139/139/139 144/144/144 142/142/142
f 145/145/145 143/143/143 141/141/141
f 142/142/142 144/144/144 146/146/146
f 147/147/147 143/143/143 145/145/145
f 144/144/144 148/148/148 146/146/146
f 149/149/149 147/147/147 145/145/145
f 146/146/146 148/148/148 150/150/150
f 151/151/151 147/147/147 149/149/149
f 148/148/148 152/152/152 150/150/150
f 153/153/153 151/151/151 149/149/149
f 150/150/150 152/152/152 154/154/154
f 155/155/155 151/151/151 153/153/153
f 152/152/152 156/156/156 154/154/154
f 157/157/157 155/155/155 153/153/153
f 154/154/154 156/156/156 157/157/157
f 156/156/156 155/155/155 157/157/157
