g SM_VFX_Swirl_01
v -1 0 0.03627793
v -0.951057 -0.309017 0.341502
v -0.951057 -0.309017 0.018599
v -1 0 0.3591778
v -0.951057 0.309017 0.08962297
v -0.951057 0.309017 0.4125208
v -0.8090169 0.587785 0.159878
v -0.8090169 0.587785 0.4827737
v -0.587785 0.8090169 0.2344989
v -0.587785 0.8090169 0.5573961
v -0.309017 0.951057 0.3065141
v -0.309017 0.951057 0.6294111
v 0 1 0.3821169
v 0 1 0.7050142
v 0.309017 0.951057 0.4529809
v 0.309017 0.951057 0.7758778
v 0.587786 0.809018 0.5604702
v 0.587786 0.8090169 0.8833672
v 0.809018 0.587786 0.6569847
v 0.809018 0.587786 0.9798837
v 0.951057 0.309017 0.7437978
v 0.951057 0.309017 1.066698
v 1 0 0.8217125
v 1 0 1.144614
v 0.951057 -0.309017 0.8882254
v 0.951057 -0.309017 1.211118
v 0.8090169 -0.587785 0.9763046
v 0.8090169 -0.587785 1.2992
v 0.587785 -0.8090169 1.086474
v 0.587785 -0.8090169 1.409375
v 0.309017 -0.951057 1.207384
v 0.309017 -0.9510559 1.530285
v 0 -1 1.305186
v 0 -1 1.628077
v -0.309017 -0.951057 1.376166
v -0.309017 -0.9510559 1.699069
v -0.587785 -0.8090169 1.452845
v -0.587785 -0.8090169 1.775745
v -0.8090169 -0.587785 1.530351
v -0.8090169 -0.587785 1.853259
vt 0.001066 0.052895
vt 1.001188 0.002643
vt 0.001191 0.000264
vt 1.001063 0.055274
vt 0.00094 0.105527
vt 1.000938 0.107906
vt 0.000815 0.158159
vt 1.000812 0.160537
vt 0.00069 0.21079
vt 1.000687 0.213168
vt 0.000565 0.263421
vt 1.000562 0.2658
vt 0.00044 0.316052
vt 1.000437 0.318431
vt 0.000314 0.368684
vt 1.000312 0.371063
vt 0.000189 0.421316
vt 1.000186 0.423695
vt 6.4E-05 0.473947
vt 1.000061 0.476326
vt -6.1E-05 0.526579
vt 0.999936 0.528957
vt -0.000186 0.57921
vt 0.999811 0.581588
vt -0.000312 0.631841
vt 0.999686 0.63422
vt -0.000437 0.684473
vt 0.99956 0.686851
vt -0.000562 0.737104
vt 0.999435 0.739483
vt -0.000687 0.789736
vt 0.99931 0.792114
vt -0.000812 0.842367
vt 0.999185 0.844745
vt -0.000938 0.894999
vt 0.99906 0.897377
vt -0.001063 0.94763
vt 0.998934 0.950008
vt -0.001188 1.000261
vt 0.998809 1.00264
vn -0.9999306 -0.011781 0
vn -0.9876885 -0.1564341 0
vn -0.9876885 -0.1564341 0
vn -0.9999399 0.010966 0
vn -0.9570399 0.289956 0
vn -0.9449067 0.3273399 0
vn -0.8223398 0.5689968 0
vn -0.7953826 0.6061077 0
vn -0.6063528 0.7951957 0
vn -0.5688077 0.8224705 0
vn -0.3312189 0.9435539 0
vn -0.2867998 0.9579906 0
vn -0.023072 0.9997337 0
vn 0.023283 0.9997289 0
vn 0.2814051 0.9595891 0
vn 0.3345581 0.9423751 0
vn 0.5620621 0.827095 0
vn 0.6134328 0.7897468 0
vn 0.79196 0.610573 0
vn 0.8257127 0.5640908 0
vn 0.9427929 0.3333789 0
vn 0.958816 0.284028 0
vn 0.9997444 0.02260901 0
vn 0.9997328 -0.023113 0
vn 0.9584571 -0.285237 0
vn 0.943401 -0.331654 0
vn 0.8271489 -0.5619829 0
vn 0.7908527 -0.6120067 0
vn 0.6165162 -0.7873423 0
vn 0.5588601 -0.829262 0
vn 0.3403779 -0.9402887 0
vn 0.275954 -0.9611709 0
vn 0.02585599 -0.9996656 0
vn -0.027203 -0.99963 0
vn -0.286595 -0.9580519 0
vn -0.331028 -0.9436209 0
vn -0.5678932 -0.8231022 0
vn -0.607298 -0.7944741 0
vn -0.7071068 -0.7071068 0
vn -0.7071068 -0.7071068 0
g SM_VFX_Swirl_01_0
f 3/3/3 2/2/2 1/1/1
f 2/2/2 4/4/4 1/1/1
f 1/1/1 4/4/4 5/5/5
f 4/4/4 6/6/6 5/5/5
f 5/5/5 6/6/6 7/7/7
f 6/6/6 8/8/8 7/7/7
f 7/7/7 8/8/8 9/9/9
f 8/8/8 10/10/10 9/9/9
f 9/9/9 10/10/10 11/11/11
f 10/10/10 12/12/12 11/11/11
f 11/11/11 12/12/12 13/13/13
f 12/12/12 14/14/14 13/13/13
f 13/13/13 14/14/14 15/15/15
f 14/14/14 16/16/16 15/15/15
f 15/15/15 16/16/16 17/17/17
f 16/16/16 18/18/18 17/17/17
f 17/17/17 18/18/18 19/19/19
f 18/18/18 20/20/20 19/19/19
f 19/19/19 20/20/20 21/21/21
f 20/20/20 22/22/22 21/21/21
f 21/21/21 22/22/22 23/23/23
f 22/22/22 24/24/24 23/23/23
f 23/23/23 24/24/24 25/25/25
f 24/24/24 26/26/26 25/25/25
f 25/25/25 26/26/26 27/27/27
f 26/26/26 28/28/28 27/27/27
f 27/27/27 28/28/28 29/29/29
f 28/28/28 30/30/30 29/29/29
f 29/29/29 30/30/30 31/31/31
f 30/30/30 32/32/32 31/31/31
f 31/31/31 32/32/32 33/33/33
f 32/32/32 34/34/34 33/33/33
f 33/33/33 34/34/34 35/35/35
f 34/34/34 36/36/36 35/35/35
f 35/35/35 36/36/36 37/37/37
f 36/36/36 38/38/38 37/37/37
f 37/37/37 38/38/38 39/39/39
f 38/38/38 40/40/40 39/39/39
