g SM_VFX_Cylinder_01
v 0.987689 0.1564343 0
v 0.987689 0.1564343 2
v 0.9510572 0.309017 2
v 0.9510572 0.309017 0
v 0.8910071 0.4539906 2
v 0.8910071 0.4539906 0
v 0.8090176 0.5877854 2
v 0.8090176 0.5877854 0
v 0.7071074 0.7071071 2
v 0.7071074 0.7071071 0
v 0.5877858 0.8090173 2
v 0.5877858 0.8090173 0
v 0.453991 0.8910069 2
v 0.453991 0.8910069 0
v 0.3090174 0.951057 2
v 0.3090174 0.951057 0
v 0.1564348 0.9876889 2
v 0.1564348 0.9876889 0
v 2.2E-07 1.000001 2
v 2.2E-07 1.000001 0
v -0.1564343 0.9876889 2
v -0.1564343 0.9876889 0
v -0.3090169 0.951057 2
v -0.3090169 0.951057 0
v -0.4539905 0.8910071 2
v -0.4539905 0.8910071 0
v -0.5877854 0.8090175 2
v -0.5877854 0.8090175 0
v -0.7071069 0.7071073 2
v -0.7071069 0.7071073 0
v -0.8090172 0.5877857 2
v -0.8090172 0.5877857 0
v -0.8910068 0.4539908 2
v -0.8910068 0.4539908 0
v -0.9510569 0.3090173 2
v -0.9510569 0.3090173 0
v -0.9876887 0.1564347 2
v -0.9876887 0.1564347 0
v -1 1.6E-07 2
v -1 1.6E-07 0
v -0.9876887 -0.1564343 2
v -0.9876887 -0.1564343 0
v -0.9510569 -0.3090169 2
v -0.9510569 -0.3090169 0
v -0.8910068 -0.4539905 2
v -0.8910068 -0.4539905 0
v -0.8090173 -0.5877853 2
v -0.8090173 -0.5877853 0
v -0.7071071 -0.7071068 2
v -0.7071071 -0.7071068 0
v -0.5877855 -0.8090171 2
v -0.5877855 -0.8090171 0
v -0.4539907 -0.8910067 2
v -0.4539907 -0.8910067 0
v -0.3090172 -0.9510567 2
v -0.3090172 -0.9510567 0
v -0.1564346 -0.9876886 2
v -0.1564346 -0.9876886 0
v -9.999999E-08 -1 2
v -9.999999E-08 -1 0
v 0.1564344 -0.9876886 2
v 0.1564344 -0.9876886 0
v 0.309017 -0.9510567 2
v 0.309017 -0.9510567 0
v 0.4539905 -0.8910068 2
v 0.4539905 -0.8910068 0
v 0.5877853 -0.8090172 2
v 0.5877853 -0.8090172 0
v 0.7071068 -0.7071069 2
v 0.7071068 -0.7071069 0
v 0.809017 -0.5877854 2
v 0.809017 -0.5877854 0
v 0.8910066 -0.4539906 2
v 0.8910066 -0.4539906 0
v 0.9510565 -0.309017 2
v 0.9510565 -0.309017 0
v 0.9876884 -0.1564345 2
v 0.9876884 -0.1564345 0
v 1 0 2
v 1 0 0
v 0.987689 0.1564343 2
v 0.987689 0.1564343 0
vt 0.999056 1.000942
vt 1.000942 0.000944
vt 0.975942 0.000896
vt 0.974056 1.000895
vt 0.950942 0.000849
vt 0.949057 1.000848
vt 0.925942 0.000802
vt 0.924057 1.0008
vt 0.900942 0.000755
vt 0.899057 1.000753
vt 0.875942 0.000708
vt 0.874057 1.000706
vt 0.850942 0.000661
vt 0.849057 1.000659
vt 0.825943 0.000614
vt 0.824057 1.000612
vt 0.800943 0.000566
vt 0.799057 1.000565
vt 0.775943 0.000519
vt 0.774057 1.000518
vt 0.750943 0.000472
vt 0.749057 1.00047
vt 0.725943 0.000425
vt 0.724058 1.000423
vt 0.700943 0.000378
vt 0.699058 1.000376
vt 0.675943 0.000331
vt 0.674058 1.000329
vt 0.650943 0.000284
vt 0.649058 1.000282
vt 0.625943 0.000237
vt 0.624058 1.000235
vt 0.600943 0.000189
vt 0.599058 1.000188
vt 0.575944 0.000142
vt 0.574058 1.00014
vt 0.550944 9.5E-05
vt 0.549058 1.000093
vt 0.525944 4.8E-05
vt 0.524058 1.000046
vt 0.500944 1E-06
vt 0.499059 0.999999
vt 0.475944 -4.6E-05
vt 0.474059 0.999952
vt 0.450944 -9.3E-05
vt 0.449058 0.999905
vt 0.425944 -0.00014
vt 0.424058 0.999858
vt 0.400944 -0.000188
vt 0.399058 0.999811
vt 0.375944 -0.000235
vt 0.374058 0.999763
vt 0.350944 -0.000282
vt 0.349058 0.999716
vt 0.325944 -0.000329
vt 0.324058 0.999669
vt 0.300944 -0.000376
vt 0.299058 0.999622
vt 0.275944 -0.000423
vt 0.274058 0.999575
vt 0.250944 -0.00047
vt 0.249058 0.999528
vt 0.225944 -0.000518
vt 0.224058 0.999481
vt 0.200944 -0.000565
vt 0.199058 0.999434
vt 0.175944 -0.000612
vt 0.174058 0.999386
vt 0.150944 -0.000659
vt 0.149058 0.999339
vt 0.125944 -0.000706
vt 0.124058 0.999292
vt 0.100944 -0.000753
vt 0.099058 0.999245
vt 0.075944 -0.0008
vt 0.074058 0.999198
vt 0.050944 -0.000848
vt 0.049058 0.999151
vt 0.025944 -0.000895
vt 0.024058 0.999104
vt 0.000944 -0.000942
vt -0.000942 0.999056
vn 0.9876887 0.156432 0
vn 0.9876887 0.156432 0
vn 0.9510565 0.3090168 0
vn 0.9510565 0.3090168 0
vn 0.8910068 0.4539899 0
vn 0.8910068 0.4539899 0
vn 0.8090171 0.5877851 0
vn 0.8090171 0.5877851 0
vn 0.7071068 0.7071068 0
vn 0.7071068 0.7071068 0
vn 0.5877851 0.8090171 0
vn 0.5877851 0.8090171 0
vn 0.4539911 0.8910062 0
vn 0.4539911 0.8910062 0
vn 0.3090168 0.9510565 0
vn 0.3090168 0.9510565 0
vn 0.156435 0.9876882 0
vn 0.156435 0.9876882 0
vn 0 1 0
vn 0 1 0
vn -0.156435 0.9876882 0
vn -0.156435 0.9876882 0
vn -0.3090168 0.9510565 0
vn -0.3090168 0.9510565 0
vn -0.4539899 0.8910068 0
vn -0.4539899 0.8910068 0
vn -0.5877851 0.8090171 0
vn -0.5877851 0.8090171 0
vn -0.7071068 0.7071068 0
vn -0.7071068 0.7071068 0
vn -0.8090171 0.5877851 0
vn -0.8090171 0.5877851 0
vn -0.8910062 0.4539911 0
vn -0.8910062 0.4539911 0
vn -0.9510565 0.3090168 0
vn -0.9510565 0.3090168 0
vn -0.9876885 0.1564341 0
vn -0.9876885 0.1564341 0
vn -1 0 0
vn -1 0 0
vn -0.9876885 -0.1564341 0
vn -0.9876885 -0.1564341 0
vn -0.9510565 -0.3090168 0
vn -0.9510565 -0.3090168 0
vn -0.8910064 -0.4539907 0
vn -0.8910064 -0.4539907 0
vn -0.8090171 -0.5877851 0
vn -0.8090171 -0.5877851 0
vn -0.7071068 -0.7071068 0
vn -0.7071068 -0.7071068 0
vn -0.5877851 -0.8090171 0
vn -0.5877851 -0.8090171 0
vn -0.4539911 -0.8910062 0
vn -0.4539911 -0.8910062 0
vn -0.3090172 -0.9510565 0
vn -0.3090172 -0.9510565 0
vn -0.1564341 -0.9876885 0
vn -0.1564341 -0.9876885 0
vn 0 -1 0
vn 0 -1 0
vn 0.1564341 -0.9876885 0
vn 0.1564341 -0.9876885 0
vn 0.3090168 -0.9510565 0
vn 0.3090168 -0.9510565 0
vn 0.4539899 -0.8910068 0
vn 0.4539899 -0.8910068 0
vn 0.5877851 -0.8090171 0
vn 0.5877851 -0.8090171 0
vn 0.7071068 -0.7071068 0
vn 0.7071068 -0.7071068 0
vn 0.8090171 -0.5877851 0
vn 0.8090171 -0.5877851 0
vn 0.8910068 -0.4539899 0
vn 0.8910068 -0.4539899 0
vn 0.9510565 -0.3090168 0
vn 0.9510565 -0.3090168 0
vn 0.9876885 -0.1564341 0
vn 0.9876885 -0.1564341 0
vn 1 -2E-06 0
vn 1 -2E-06 0
vn 0.9876887 0.156432 0
vn 0.9876887 0.156432 0
g SM_VFX_Cylinder_01_0
f 3/3/3 2/2/2 1/1/1
f 4/4/4 3/3/3 1/1/1
f 5/5/5 3/3/3 4/4/4
f 6/6/6 5/5/5 4/4/4
f 7/7/7 5/5/5 6/6/6
f 8/8/8 7/7/7 6/6/6
f 9/9/9 7/7/7 8/8/8
f 10/10/10 9/9/9 8/8/8
f 11/11/11 9/9/9 10/10/10
f 12/12/12 11/11/11 10/10/10
f 13/13/13 11/11/11 12/12/12
f 14/14/14 13/13/13 12/12/12
f 15/15/15 13/13/13 14/14/14
f 16/16/16 15/15/15 14/14/14
f 17/17/17 15/15/15 16/16/16
f 18/18/18 17/17/17 16/16/16
f 19/19/19 17/17/17 18/18/18
f 20/20/20 19/19/19 18/18/18
f 21/21/21 19/19/19 20/20/20
f 22/22/22 21/21/21 20/20/20
f 23/23/23 21/21/21 22/22/22
f 24/24/24 23/23/23 22/22/22
f 25/25/25 23/23/23 24/24/24
f 26/26/26 25/25/25 24/24/24
f 27/27/27 25/25/25 26/26/26
f 28/28/28 27/27/27 26/26/26
f 29/29/29 27/27/27 28/28/28
f 30/30/30 29/29/29 28/28/28
f 31/31/31 29/29/29 30/30/30
f 32/32/32 31/31/31 30/30/30
f 33/33/33 31/31/31 32/32/32
f 34/34/34 33/33/33 32/32/32
f 35/35/35 33/33/33 34/34/34
f 36/36/36 35/35/35 34/34/34
f 37/37/37 35/35/35 36/36/36
f 38/38/38 37/37/37 36/36/36
f 39/39/39 37/37/37 38/38/38
f 40/40/40 39/39/39 38/38/38
f 41/41/41 39/39/39 40/40/40
f 42/42/42 41/41/41 40/40/40
f 43/43/43 41/41/41 42/42/42
f 44/44/44 43/43/43 42/42/42
f 45/45/45 43/43/43 44/44/44
f 46/46/46 45/45/45 44/44/44
f 47/47/47 45/45/45 46/46/46
f 48/48/48 47/47/47 46/46/46
f 49/49/49 47/47/47 48/48/48
f 50/50/50 49/49/49 48/48/48
f 51/51/51 49/49/49 50/50/50
f 52/52/52 51/51/51 50/50/50
f 53/53/53 51/51/51 52/52/52
f 54/54/54 53/53/53 52/52/52
f 55/55/55 53/53/53 54/54/54
f 56/56/56 55/55/55 54/54/54
f 57/57/57 55/55/55 56/56/56
f 58/58/58 57/57/57 56/56/56
f 59/59/59 57/57/57 58/58/58
f 60/60/60 59/59/59 58/58/58
f 61/61/61 59/59/59 60/60/60
f 62/62/62 61/61/61 60/60/60
f 63/63/63 61/61/61 62/62/62
f 64/64/64 63/63/63 62/62/62
f 65/65/65 63/63/63 64/64/64
f 66/66/66 65/65/65 64/64/64
f 67/67/67 65/65/65 66/66/66
f 68/68/68 67/67/67 66/66/66
f 69/69/69 67/67/67 68/68/68
f 70/70/70 69/69/69 68/68/68
f 71/71/71 69/69/69 70/70/70
f 72/72/72 71/71/71 70/70/70
f 73/73/73 71/71/71 72/72/72
f 74/74/74 73/73/73 72/72/72
f 75/75/75 73/73/73 74/74/74
f 76/76/76 75/75/75 74/74/74
f 77/77/77 75/75/75 76/76/76
f 78/78/78 77/77/77 76/76/76
f 79/79/79 77/77/77 78/78/78
f 80/80/80 79/79/79 78/78/78
f 81/81/81 79/79/79 80/80/80
f 82/82/82 81/81/81 80/80/80
