g STACK
v 4.357075E-09 -0.3080369 0.6599094
v -1.478447 -0.3436351 0.6599094
v -1.478447 0.2557177 0.6599095
v 4.357075E-09 0.2201196 0.6599094
v 1.478447 -0.3436351 0.6599094
v 1.478447 0.2557177 0.6599095
v 4.357075E-09 0.2527495 -0.5627952
v 4.357075E-09 0.2527493 0.5627953
v -1.325369 0.2846592 0.5627953
v -1.325369 0.2846594 -0.5627952
v 1.478447 -0.3436349 -0.6599095
v 1.478447 -0.3436351 0.6599094
v 1.478447 0.2557177 0.6599095
v 1.478447 0.2557179 -0.6599094
v -1.478447 -0.3436349 -0.6599095
v 4.357075E-09 0.2201198 -0.6599094
v -1.478447 0.2557179 -0.6599094
v 4.357075E-09 -0.3080367 -0.6599095
v 1.478447 0.2557179 -0.6599094
v 1.478447 -0.3436349 -0.6599095
v -1.478447 -0.3436351 0.6599094
v -1.478447 -0.3436349 -0.6599095
v -1.478447 0.2557179 -0.6599094
v -1.478447 0.2557177 0.6599095
v 1.325369 0.2846594 -0.5627952
v 1.325369 0.2846592 0.5627953
v 4.357075E-09 0.2527493 0.5627953
v 4.357075E-09 0.2527495 -0.5627952
v 4.357075E-09 -0.3406665 -0.5627953
v 4.357075E-09 -0.3406667 0.5627952
v 1.325369 -0.3725765 0.5627952
v 1.325369 -0.3725764 -0.5627953
v -1.325369 -0.3725764 -0.5627953
v -1.433612 -0.3656262 -0.6314655
v -1.433612 -0.3656264 0.6314654
v -1.325369 -0.3725765 0.5627952
v -1.433612 -0.3656262 -0.6314655
v -1.478447 -0.3436349 -0.6599095
v -1.478447 -0.3436351 0.6599094
v -1.433612 -0.3656264 0.6314654
v -1.325369 0.2846592 0.5627953
v -1.433612 0.277709 0.6314655
v -1.433612 0.2777092 -0.6314654
v -1.325369 0.2846594 -0.5627952
v -1.433612 0.277709 0.6314655
v -1.478447 0.2557177 0.6599095
v -1.478447 0.2557179 -0.6599094
v -1.433612 0.2777092 -0.6314654
v 4.357075E-09 -0.3406665 -0.5627953
v 4.38873E-09 -0.3311094 -0.6314654
v -1.433612 -0.3656262 -0.6314655
v -1.325369 -0.3725764 -0.5627953
v 4.38873E-09 -0.3311094 -0.6314654
v 4.357075E-09 -0.3080367 -0.6599095
v -1.478447 -0.3436349 -0.6599095
v -1.433612 -0.3656262 -0.6314655
v 4.357075E-09 0.2527495 -0.5627952
v 4.38873E-09 0.2431925 -0.6314652
v 1.433612 0.2777092 -0.6314654
v 1.325369 0.2846594 -0.5627952
v 4.38873E-09 0.2431925 -0.6314652
v 4.357075E-09 0.2201198 -0.6599094
v 1.478447 0.2557179 -0.6599094
v 1.433612 0.2777092 -0.6314654
v 1.325369 -0.3725765 0.5627952
v 1.433612 -0.3656264 0.6314654
v 1.433612 -0.3656262 -0.6314655
v 1.325369 -0.3725764 -0.5627953
v 1.433612 -0.3656264 0.6314654
v 1.478447 -0.3436351 0.6599094
v 1.478447 -0.3436349 -0.6599095
v 1.433612 -0.3656262 -0.6314655
v 1.325369 0.2846594 -0.5627952
v 1.433612 0.2777092 -0.6314654
v 1.433612 0.277709 0.6314655
v 1.325369 0.2846592 0.5627953
v 1.433612 0.2777092 -0.6314654
v 1.478447 0.2557179 -0.6599094
v 1.478447 0.2557177 0.6599095
v 1.433612 0.277709 0.6314655
v 4.357075E-09 -0.3406667 0.5627952
v 4.38873E-09 -0.3311096 0.6314652
v 1.433612 -0.3656264 0.6314654
v 1.325369 -0.3725765 0.5627952
v 4.38873E-09 -0.3311096 0.6314652
v 4.357075E-09 -0.3080369 0.6599094
v 1.478447 -0.3436351 0.6599094
v 1.433612 -0.3656264 0.6314654
v 4.357075E-09 0.2527493 0.5627953
v 4.38873E-09 0.2431923 0.6314654
v -1.433612 0.277709 0.6314655
v -1.325369 0.2846592 0.5627953
v 4.38873E-09 0.2431923 0.6314654
v 4.357075E-09 0.2201196 0.6599094
v -1.478447 0.2557177 0.6599095
v -1.433612 0.277709 0.6314655
v 1.325369 -0.3725764 -0.5627953
v 1.433612 -0.3656262 -0.6314655
v 4.38873E-09 -0.3311094 -0.6314654
v 4.357075E-09 -0.3406665 -0.5627953
v 1.433612 -0.3656262 -0.6314655
v 1.478447 -0.3436349 -0.6599095
v 4.357075E-09 -0.3080367 -0.6599095
v 4.38873E-09 -0.3311094 -0.6314654
v -1.325369 0.2846594 -0.5627952
v -1.433612 0.2777092 -0.6314654
v 4.38873E-09 0.2431925 -0.6314652
v 4.357075E-09 0.2527495 -0.5627952
v -1.433612 0.2777092 -0.6314654
v -1.478447 0.2557179 -0.6599094
v 4.357075E-09 0.2201198 -0.6599094
v 4.38873E-09 0.2431925 -0.6314652
v -1.325369 -0.3725765 0.5627952
v -1.433612 -0.3656264 0.6314654
v 4.38873E-09 -0.3311096 0.6314652
v 4.357075E-09 -0.3406667 0.5627952
v -1.433612 -0.3656264 0.6314654
v -1.478447 -0.3436351 0.6599094
v 4.357075E-09 -0.3080369 0.6599094
v 4.38873E-09 -0.3311096 0.6314652
v 1.325369 0.2846592 0.5627953
v 1.433612 0.277709 0.6314655
v 4.38873E-09 0.2431923 0.6314654
v 4.357075E-09 0.2527493 0.5627953
v 1.433612 0.277709 0.6314655
v 1.478447 0.2557177 0.6599095
v 4.357075E-09 0.2201196 0.6599094
v 4.38873E-09 0.2431923 0.6314654
v -1.325369 -0.3725764 -0.5627953
v -1.325369 -0.3725765 0.5627952
v 4.357075E-09 -0.3406667 0.5627952
v 4.357075E-09 -0.3406665 -0.5627953
vt 0.5087891 0.1955566
vt 1.047852 0.1732178
vt 1.047852 0.550293
vt 0.5087891 0.527832
vt -0.02999878 0.1732178
vt -0.02999878 0.550293
vt 0.4973145 0.9672852
vt 0.4973145 0.6264648
vt 0.05084229 0.6264648
vt 0.05084229 0.9672852
vt 1 0.1574707
vt 0 0.1574707
vt 0 0.5512695
vt 1 0.5512695
vt 1.047852 0.1732178
vt 0.5087891 0.527832
vt 1.047852 0.550293
vt 0.5087891 0.1955566
vt -0.02999878 0.550293
vt -0.02999878 0.1732178
vt 0 0.1574707
vt 1 0.1574707
vt 1 0.5512695
vt 0 0.5512695
vt 0.9438477 0.9672852
vt 0.9438477 0.6264648
vt 0.4973145 0.6264648
vt 0.4973145 0.9672852
vt 0.4973145 0.9672852
vt 0.4973145 0.6264648
vt 0.9438477 0.6264648
vt 0.9438477 0.9672852
vt 0.05084229 0.9672852
vt 0.01437378 0.987793
vt 0.01437378 0.605957
vt 0.05084229 0.6264648
vt 0.01437378 0.987793
vt -0.000729084 0.996582
vt -0.000729084 0.597168
vt 0.01437378 0.605957
vt 0.05084229 0.6264648
vt 0.01437378 0.605957
vt 0.01437378 0.987793
vt 0.05084229 0.9672852
vt 0.01437378 0.605957
vt -0.000729084 0.597168
vt -0.000729084 0.996582
vt 0.01437378 0.987793
vt 0.4973145 0.9672852
vt 0.4973145 0.987793
vt 0.01437378 0.987793
vt 0.05084229 0.9672852
vt 0.4973145 0.987793
vt 0.4973145 0.996582
vt -0.000729084 0.996582
vt 0.01437378 0.987793
vt 0.4973145 0.9672852
vt 0.4973145 0.987793
vt 0.9804688 0.987793
vt 0.9438477 0.9672852
vt 0.4973145 0.987793
vt 0.4973145 0.996582
vt 0.9956055 0.996582
vt 0.9804688 0.987793
vt 0.9438477 0.6264648
vt 0.9804688 0.605957
vt 0.9804688 0.987793
vt 0.9438477 0.9672852
vt 0.9804688 0.605957
vt 0.9956055 0.597168
vt 0.9956055 0.996582
vt 0.9804688 0.987793
vt 0.9438477 0.9672852
vt 0.9804688 0.987793
vt 0.9804688 0.605957
vt 0.9438477 0.6264648
vt 0.9804688 0.987793
vt 0.9956055 0.996582
vt 0.9956055 0.597168
vt 0.9804688 0.605957
vt 0.4973145 0.6264648
vt 0.4973145 0.605957
vt 0.9804688 0.605957
vt 0.9438477 0.6264648
vt 0.4973145 0.605957
vt 0.4973145 0.597168
vt 0.9956055 0.597168
vt 0.9804688 0.605957
vt 0.4973145 0.6264648
vt 0.4973145 0.605957
vt 0.01437378 0.605957
vt 0.05084229 0.6264648
vt 0.4973145 0.605957
vt 0.4973145 0.597168
vt -0.000729084 0.597168
vt 0.01437378 0.605957
vt 0.9438477 0.9672852
vt 0.9804688 0.987793
vt 0.4973145 0.987793
vt 0.4973145 0.9672852
vt 0.9804688 0.987793
vt 0.9956055 0.996582
vt 0.4973145 0.996582
vt 0.4973145 0.987793
vt 0.05084229 0.9672852
vt 0.01437378 0.987793
vt 0.4973145 0.987793
vt 0.4973145 0.9672852
vt 0.01437378 0.987793
vt -0.000729084 0.996582
vt 0.4973145 0.996582
vt 0.4973145 0.987793
vt 0.05084229 0.6264648
vt 0.01437378 0.605957
vt 0.4973145 0.605957
vt 0.4973145 0.6264648
vt 0.01437378 0.605957
vt -0.000729084 0.597168
vt 0.4973145 0.597168
vt 0.4973145 0.605957
vt 0.9438477 0.6264648
vt 0.9804688 0.605957
vt 0.4973145 0.605957
vt 0.4973145 0.6264648
vt 0.9804688 0.605957
vt 0.9956055 0.597168
vt 0.4973145 0.597168
vt 0.4973145 0.605957
vt 0.05084229 0.9672852
vt 0.05084229 0.6264648
vt 0.4973145 0.6264648
vt 0.4973145 0.9672852
vn 0 0 1
vn 0 0 1
vn 0 0 1
vn 0 0 1
vn 0 0 1
vn 0 0 1
vn 0.02406311 0.9995117 0
vn 0.02406311 0.9995117 0
vn 0.02406311 0.9995117 0
vn 0.02406311 0.9995117 0
vn 1 0 0
vn 1 0 0
vn 1 0 0
vn 1 0 0
vn 0 0 -1
vn 0 0 -1
vn 0 0 -1
vn 0 0 -1
vn 0 0 -1
vn 0 0 -1
vn -1 0 0
vn -1 0 0
vn -1 0 0
vn -1 0 0
vn -0.02406311 0.9995117 0
vn -0.02406311 0.9995117 0
vn -0.02406311 0.9995117 0
vn -0.02406311 0.9995117 0
vn -0.02406311 -0.9995117 0
vn -0.02406311 -0.9995117 0
vn -0.02406311 -0.9995117 0
vn -0.02406311 -0.9995117 0
vn -0.06408691 -0.9980469 0
vn -0.06408691 -0.9980469 0
vn -0.06408691 -0.9980469 0
vn -0.06408691 -0.9980469 0
vn -0.4404297 -0.8979492 0
vn -0.4404297 -0.8979492 0
vn -0.4404297 -0.8979492 0
vn -0.4404297 -0.8979492 0
vn -0.06408691 0.9980469 0
vn -0.06408691 0.9980469 0
vn -0.06408691 0.9980469 0
vn -0.06408691 0.9980469 0
vn -0.4404297 0.8979492 0
vn -0.4404297 0.8979492 0
vn -0.4404297 0.8979492 0
vn -0.4404297 0.8979492 0
vn 0.02383423 -0.9902344 -0.1378174
vn 0.02383423 -0.9902344 -0.1378174
vn 0.02383423 -0.9902344 -0.1378174
vn 0.02383423 -0.9902344 -0.1378174
vn 0.01869202 -0.7763672 -0.6298828
vn 0.01869202 -0.7763672 -0.6298828
vn 0.01869202 -0.7763672 -0.6298828
vn 0.01869202 -0.7763672 -0.6298828
vn -0.02383423 0.9902344 -0.1378174
vn -0.02383423 0.9902344 -0.1378174
vn -0.02383423 0.9902344 -0.1378174
vn -0.02383423 0.9902344 -0.1378174
vn -0.01869202 0.7763672 -0.6298828
vn -0.01869202 0.7763672 -0.6298828
vn -0.01869202 0.7763672 -0.6298828
vn -0.01869202 0.7763672 -0.6298828
vn 0.06408691 -0.9980469 0
vn 0.06408691 -0.9980469 0
vn 0.06408691 -0.9980469 0
vn 0.06408691 -0.9980469 0
vn 0.4404297 -0.8979492 0
vn 0.4404297 -0.8979492 0
vn 0.4404297 -0.8979492 0
vn 0.4404297 -0.8979492 0
vn 0.06408691 0.9980469 0
vn 0.06408691 0.9980469 0
vn 0.06408691 0.9980469 0
vn 0.06408691 0.9980469 0
vn 0.4404297 0.8979492 0
vn 0.4404297 0.8979492 0
vn 0.4404297 0.8979492 0
vn 0.4404297 0.8979492 0
vn -0.02383423 -0.9902344 0.1378174
vn -0.02383423 -0.9902344 0.1378174
vn -0.02383423 -0.9902344 0.1378174
vn -0.02383423 -0.9902344 0.1378174
vn -0.01869202 -0.7763672 0.6298828
vn -0.01869202 -0.7763672 0.6298828
vn -0.01869202 -0.7763672 0.6298828
vn -0.01869202 -0.7763672 0.6298828
vn 0.02383423 0.9902344 0.1378174
vn 0.02383423 0.9902344 0.1378174
vn 0.02383423 0.9902344 0.1378174
vn 0.02383423 0.9902344 0.1378174
vn 0.01869202 0.7763672 0.6298828
vn 0.01869202 0.7763672 0.6298828
vn 0.01869202 0.7763672 0.6298828
vn 0.01869202 0.7763672 0.6298828
vn -0.02383423 -0.9902344 -0.1378174
vn -0.02383423 -0.9902344 -0.1378174
vn -0.02383423 -0.9902344 -0.1378174
vn -0.02383423 -0.9902344 -0.1378174
vn -0.01869202 -0.7763672 -0.6298828
vn -0.01869202 -0.7763672 -0.6298828
vn -0.01869202 -0.7763672 -0.6298828
vn -0.01869202 -0.7763672 -0.6298828
vn 0.02383423 0.9902344 -0.1378174
vn 0.02383423 0.9902344 -0.1378174
vn 0.02383423 0.9902344 -0.1378174
vn 0.02383423 0.9902344 -0.1378174
vn 0.01869202 0.7763672 -0.6298828
vn 0.01869202 0.7763672 -0.6298828
vn 0.01869202 0.7763672 -0.6298828
vn 0.01869202 0.7763672 -0.6298828
vn 0.02383423 -0.9902344 0.1378174
vn 0.02383423 -0.9902344 0.1378174
vn 0.02383423 -0.9902344 0.1378174
vn 0.02383423 -0.9902344 0.1378174
vn 0.01869202 -0.7763672 0.6298828
vn 0.01869202 -0.7763672 0.6298828
vn 0.01869202 -0.7763672 0.6298828
vn 0.01869202 -0.7763672 0.6298828
vn -0.02383423 0.9902344 0.1378174
vn -0.02383423 0.9902344 0.1378174
vn -0.02383423 0.9902344 0.1378174
vn -0.02383423 0.9902344 0.1378174
vn -0.01869202 0.7763672 0.6298828
vn -0.01869202 0.7763672 0.6298828
vn -0.01869202 0.7763672 0.6298828
vn -0.01869202 0.7763672 0.6298828
vn 0.02406311 -0.9995117 0
vn 0.02406311 -0.9995117 0
vn 0.02406311 -0.9995117 0
vn 0.02406311 -0.9995117 0
g STACK_0
f 3/3/3 2/2/2 1/1/1
f 4/4/4 3/3/3 1/1/1
f 4/4/4 1/1/1 5/5/5
f 6/6/6 4/4/4 5/5/5
f 9/9/9 8/8/8 7/7/7
f 10/10/10 9/9/9 7/7/7
f 13/13/13 12/12/12 11/11/11
f 14/14/14 13/13/13 11/11/11
f 17/17/17 16/16/16 15/15/15
f 16/16/16 18/18/18 15/15/15
f 16/16/16 19/19/19 18/18/18
f 19/19/19 20/20/20 18/18/18
f 23/23/23 22/22/22 21/21/21
f 24/24/24 23/23/23 21/21/21
f 27/27/27 26/26/26 25/25/25
f 28/28/28 27/27/27 25/25/25
f 31/31/31 30/30/30 29/29/29
f 32/32/32 31/31/31 29/29/29
f 35/35/35 34/34/34 33/33/33
f 36/36/36 35/35/35 33/33/33
f 39/39/39 38/38/38 37/37/37
f 40/40/40 39/39/39 37/37/37
f 43/43/43 42/42/42 41/41/41
f 44/44/44 43/43/43 41/41/41
f 47/47/47 46/46/46 45/45/45
f 48/48/48 47/47/47 45/45/45
f 51/51/51 50/50/50 49/49/49
f 52/52/52 51/51/51 49/49/49
f 55/55/55 54/54/54 53/53/53
f 56/56/56 55/55/55 53/53/53
f 59/59/59 58/58/58 57/57/57
f 60/60/60 59/59/59 57/57/57
f 63/63/63 62/62/62 61/61/61
f 64/64/64 63/63/63 61/61/61
f 67/67/67 66/66/66 65/65/65
f 68/68/68 67/67/67 65/65/65
f 71/71/71 70/70/70 69/69/69
f 72/72/72 71/71/71 69/69/69
f 75/75/75 74/74/74 73/73/73
f 76/76/76 75/75/75 73/73/73
f 79/79/79 78/78/78 77/77/77
f 80/80/80 79/79/79 77/77/77
f 83/83/83 82/82/82 81/81/81
f 84/84/84 83/83/83 81/81/81
f 87/87/87 86/86/86 85/85/85
f 88/88/88 87/87/87 85/85/85
f 91/91/91 90/90/90 89/89/89
f 92/92/92 91/91/91 89/89/89
f 95/95/95 94/94/94 93/93/93
f 96/96/96 95/95/95 93/93/93
f 99/99/99 98/98/98 97/97/97
f 100/100/100 99/99/99 97/97/97
f 103/103/103 102/102/102 101/101/101
f 104/104/104 103/103/103 101/101/101
f 107/107/107 106/106/106 105/105/105
f 108/108/108 107/107/107 105/105/105
f 111/111/111 110/110/110 109/109/109
f 112/112/112 111/111/111 109/109/109
f 115/115/115 114/114/114 113/113/113
f 116/116/116 115/115/115 113/113/113
f 119/119/119 118/118/118 117/117/117
f 120/120/120 119/119/119 117/117/117
f 123/123/123 122/122/122 121/121/121
f 124/124/124 123/123/123 121/121/121
f 127/127/127 126/126/126 125/125/125
f 128/128/128 127/127/127 125/125/125
f 131/131/131 130/130/130 129/129/129
f 132/132/132 131/131/131 129/129/129
