g swat_cell.006
v -0.00607442 0.1994499 0.01546326
v -0.03819566 0.1824762 0.0009782966
v -0.03957226 0.1813706 -0.01558079
v 0.01456536 0.1361244 -0.01493818
v 0.05296019 0.1314529 0.01297634
v 0.006006806 0.1800494 -0.01700942
v 0.0830382 -0.1168557 0.05851392
v 0.06415605 0.08895997 0.04404358
v 0.06705202 0.1176007 0.02350291
v -0.004065128 -0.4198056 -0.03516557
v -0.0690131 -0.4315612 -0.05768179
v -0.07621947 -0.4279714 -0.03351468
v 0.04854444 -0.4071981 -0.0001184195
v -0.07666584 -0.4245424 -0.01454693
v -0.01783054 -0.4159845 -0.005544332
v 0.0375713 -0.4041198 0.02367016
v 0.1156993 -0.3897766 0.05185564
v 0.1096369 -0.3869483 0.07114205
v 0.05296019 0.1314529 0.01297634
v 0.06705202 0.1176007 0.02350291
v 0.05191816 0.1554004 0.05996857
v 0.006006806 0.1800494 -0.01700942
v 0.008171692 0.1990081 0.02855129
v -0.005561155 0.1953564 -0.01744877
v -0.00607442 0.1994499 0.01546326
v 0.0830382 -0.1168557 0.05851392
v 0.1096369 -0.3869483 0.07114205
v 0.0375713 -0.4041198 0.02367016
v 0.06415605 0.08895997 0.04404358
v -0.01783054 0.08883689 -0.005544221
v -0.01783054 -0.4159845 -0.005544332
v 0.0619056 0.1127803 0.04258554
v -0.0142852 0.1127249 -0.0026701
v 0.04854444 -0.4071981 -0.0001184195
v 0.1156993 -0.3897766 0.05185564
v 0.06705202 0.1176007 0.02350291
v 0.05296019 0.1314529 0.01297634
v 0.01456536 0.1361244 -0.01493818
v -0.004065128 -0.4198056 -0.03516557
v 0.001333976 0.1302444 -0.02652571
v -0.008352017 0.1130981 -0.0346482
v -0.01189741 0.08921007 -0.0375223
v -0.03957226 0.1813706 -0.01558079
v -0.03819566 0.1824762 0.0009782966
v -0.06836721 0.1384913 -0.01063892
v -0.06812308 0.1383209 -0.02905746
v 0.001333976 0.1302444 -0.02652571
v 0.01456536 0.1361244 -0.01493818
v 0.006006806 0.1800494 -0.01700942
v -0.005561155 0.1953564 -0.01744877
v -0.03608038 0.1788619 -0.03892925
v -0.06149914 0.1375561 -0.05274901
v -0.008352017 0.1130981 -0.0346482
v -0.06900405 0.09531844 -0.05755273
v -0.01189741 0.08921007 -0.0375223
v -0.0690131 -0.4315612 -0.05768179
v -0.004065128 -0.4198056 -0.03516557
v -0.07664257 0.09474096 -0.01446849
v -0.07666584 -0.4245424 -0.01454693
v -0.07621947 -0.4279714 -0.03351468
v -0.07618892 0.09500408 -0.03347504
v -0.0690131 -0.4315612 -0.05768179
v -0.06900405 0.09531844 -0.05755273
v -0.06149914 0.1375561 -0.05274901
v -0.06812308 0.1383209 -0.02905746
v -0.06836721 0.1384913 -0.01063892
v -0.03608038 0.1788619 -0.03892925
v -0.03957226 0.1813706 -0.01558079
v -0.03608038 0.1788619 -0.03892925
v -0.005561155 0.1953564 -0.01744877
v -0.00607442 0.1994499 0.01546326
v -0.03957226 0.1813706 -0.01558079
v 0.05524313 0.1324234 0.05750398
v 0.05963189 0.1342808 0.0420826
v -0.004599115 0.1298713 0.005452394
v 0.008632222 0.1357513 0.0170399
v 0.05191816 0.1554004 0.05996857
v 0.05524313 0.1324234 0.05750398
v 0.008632222 0.1357513 0.0170399
v 0.008171692 0.1990081 0.02855129
v -0.00607442 0.1994499 0.01546326
v -0.004599115 0.1298713 0.005452394
v -0.03819566 0.1824762 0.0009782966
v -0.0142852 0.1127249 -0.0026701
v -0.06836721 0.1384913 -0.01063892
v -0.01783054 0.08883689 -0.005544221
v -0.07664257 0.09474096 -0.01446849
v -0.01783054 -0.4159845 -0.005544332
v -0.07666584 -0.4245424 -0.01454693
v 0.06705202 0.1176007 0.02350291
v 0.1156993 -0.3897766 0.05185564
v 0.1096369 -0.3869483 0.07114205
v 0.0830382 -0.1168557 0.05851392
v 0.06415605 0.08895997 0.04404358
v 0.0619056 0.1127803 0.04258554
v 0.06705202 0.1176007 0.02350291
v 0.05963189 0.1342808 0.0420826
v 0.05191816 0.1554004 0.05996857
v 0.05524313 0.1324234 0.05750398
v 0.05963189 0.1342808 0.0420826
v 0.0619056 0.1127803 0.04258554
v -0.0142852 0.1127249 -0.0026701
v -0.004599115 0.1298713 0.005452394
vt 0.1524658 0.5507813
vt 0.1468506 0.5483398
vt 0.1466064 0.5478516
vt 0.1547852 0.5415039
vt 0.1601563 0.5415039
vt 0.1535645 0.5478516
vt 0.7919922 0.4934082
vt 0.597168 0.402832
vt 0.5805664 0.3815918
vt 0.6713867 0.4902344
vt 0.7250977 0.5522461
vt 0.7431641 0.5522461
vt 0.6416016 0.4465332
vt 0.7524414 0.5478516
vt 0.7016602 0.4997559
vt 0.6630859 0.4492188
vt 0.6030273 0.3815918
vt 0.6176758 0.3815918
vt 0.921875 0.6640625
vt 1 0.6689453
vt 1 0.5385742
vt 0.7285156 0.6459961
vt 0.8017578 0.5288086
vt 0.6875 0.6225586
vt 0.734375 0.5766602
vt 0.208374 0.8452148
vt 0.2122803 0.8061523
vt 0.2015381 0.8037109
vt 0.2053223 0.8745117
vt 0.1928711 0.8745117
vt 0.1928711 0.8017578
vt 0.2049561 0.8779297
vt 0.1933594 0.8779297
vt 0.2026367 0.8032227
vt 0.2120361 0.8056641
vt 0.2056885 0.8789063
vt 0.2036133 0.8808594
vt 0.1977539 0.8813477
vt 0.1937256 0.8012695
vt 0.1958008 0.8803711
vt 0.1943359 0.8779297
vt 0.1937256 0.8745117
vt 0.1466064 0.5478516
vt 0.1468506 0.5483398
vt 0.1422119 0.5419922
vt 0.1422119 0.5419922
vt 0.152832 0.5405273
vt 0.1547852 0.5415039
vt 0.1535645 0.5478516
vt 0.1516113 0.5498047
vt 0.1470947 0.5478516
vt 0.1433105 0.5419922
vt 0.1513672 0.5380859
vt 0.1420898 0.5356445
vt 0.1507568 0.534668
vt 0.1420898 0.4597168
vt 0.1507568 0.4614258
vt 0.1409912 0.5356445
vt 0.1409912 0.4609375
vt 0.1409912 0.4604492
vt 0.1409912 0.5356445
vt 0.1420898 0.4597168
vt 0.1420898 0.5356445
vt 0.1433105 0.5419922
vt 0.1422119 0.5419922
vt 0.1422119 0.5419922
vt 0.1470947 0.5478516
vt 0.1466064 0.5478516
vt 0.1470947 0.5478516
vt 0.1516113 0.5498047
vt 0.1524658 0.5507813
vt 0.1466064 0.5478516
vt 0.1375732 0.5292969
vt 0.1383057 0.5297852
vt 0.1304932 0.5297852
vt 0.1304932 0.5297852
vt 0.1591797 0.5458984
vt 0.1610107 0.5410156
vt 0.1539307 0.5415039
vt 0.1538086 0.5507813
vt 0.1517334 0.5507813
vt 0.1518555 0.5405273
vt 0.1468506 0.5483398
vt 0.1503906 0.5380859
vt 0.1422119 0.5419922
vt 0.1499023 0.534668
vt 0.1409912 0.5356445
vt 0.1499023 0.4621582
vt 0.1409912 0.4609375
vt 0.5805664 0.3815918
vt 0.6030273 0.5131836
vt 0.6176758 0.527832
vt 0.7919922 0.4934082
vt 0.597168 0.402832
vt 0.5991211 0.3920898
vt 0.5805664 0.3815918
vt 0.6020508 0.3825684
vt 0.6235352 0.3815918
vt 0.6113281 0.3876953
vt 0.2047119 0.8813477
vt 0.204834 0.8798828
vt 0.1933594 0.8779297
vt 0.1948242 0.8803711
vn -0.4040527 0.9086914 -0.1046753
vn -0.6181641 0.7861328 -0.01093292
vn -0.6445313 0.7583008 -0.09619141
vn 0.5678711 0.07043457 -0.8198242
vn 0.5952148 0.02516174 -0.8032227
vn 0.512207 0.1385498 -0.8476563
vn 0.953125 0.1072388 0.2832031
vn 0.953125 0.1072388 0.2832031
vn 0.953125 0.1072388 0.2832031
vn 0.1146851 -0.9770508 0.1793213
vn 0.1146851 -0.9770508 0.1793213
vn 0.1146851 -0.9770508 0.1793213
vn 0.1146851 -0.9770508 0.1793213
vn 0.1146851 -0.9770508 0.1793213
vn 0.1146851 -0.9770508 0.1793213
vn 0.1146851 -0.9770508 0.1793213
vn 0.1146851 -0.9770508 0.1793213
vn 0.1146851 -0.9770508 0.1793213
vn 0.75 0.6030273 -0.2717285
vn 0.75 0.6030273 -0.2717285
vn 0.75 0.6030273 -0.2717285
vn 0.75 0.6030273 -0.2717285
vn 0.75 0.6030273 -0.2717285
vn 0.75 0.6030273 -0.2717285
vn 0.75 0.6030273 -0.2717285
vn -0.5249023 -0.005817413 0.8510742
vn -0.5249023 -0.005817413 0.8510742
vn -0.5249023 -0.005817413 0.8510742
vn -0.5200195 -0.008453369 0.8540039
vn -0.3354492 -0.02230835 0.9418945
vn -0.3242188 -0.002693176 0.9458008
vn -0.5083008 -0.04067993 0.8603516
vn -0.345459 -0.07336426 0.9355469
vn 0.5957031 0.01248169 -0.8032227
vn 0.5957031 0.01248169 -0.8032227
vn 0.5957031 0.01248169 -0.8032227
vn 0.5952148 0.02516174 -0.8032227
vn 0.5678711 0.07043457 -0.8198242
vn 0.4533691 0.005886078 -0.8916016
vn 0.5078125 0.08312988 -0.8574219
vn 0.4694824 0.05084229 -0.8813477
vn 0.4619141 0.01994324 -0.8867188
vn -0.6445313 0.7583008 -0.09619141
vn -0.6181641 0.7861328 -0.01093292
vn -0.9174805 0.3977051 -0.004619598
vn -0.9130859 0.3859863 -0.1309814
vn 0.5078125 0.08312988 -0.8574219
vn 0.5678711 0.07043457 -0.8198242
vn 0.512207 0.1385498 -0.8476563
vn 0.4914551 0.1534424 -0.8574219
vn 0.4440918 0.1306152 -0.8862305
vn 0.3669434 0.07965088 -0.9267578
vn 0.4694824 0.05084229 -0.8813477
vn 0.3344727 0.02639771 -0.9418945
vn 0.4619141 0.01994324 -0.8867188
vn 0.3291016 0.0004551411 -0.9443359
vn 0.4533691 0.005886078 -0.8916016
vn -0.9951172 0.09503174 -0.02081299
vn -0.9995117 5.429983E-05 -0.0236969
vn -0.9853516 7.021427E-05 -0.1697998
vn -0.9829102 0.09741211 -0.1552734
vn -0.9584961 8.20756E-05 -0.2858887
vn -0.9545898 0.09985352 -0.28125
vn -0.890625 0.3806152 -0.2496338
vn -0.9130859 0.3859863 -0.1309814
vn -0.9174805 0.3977051 -0.004619598
vn -0.7915039 0.5742188 -0.210083
vn -0.6445313 0.7583008 -0.09619141
vn -0.3830566 0.9140625 -0.1345215
vn -0.3830566 0.9140625 -0.1345215
vn -0.4040527 0.9086914 -0.1046753
vn -0.6445313 0.7583008 -0.09619141
vn -0.1185303 -0.9755859 0.184082
vn -0.1185303 -0.9755859 0.184082
vn -0.1185303 -0.9755859 0.184082
vn -0.1185303 -0.9755859 0.184082
vn -0.6635742 -0.1461182 0.7333984
vn -0.6635742 -0.1461182 0.7333984
vn -0.5610352 -0.1429443 0.8154297
vn -0.6635742 -0.1461182 0.7333984
vn -0.5585938 -0.1428223 0.8168945
vn -0.4060059 -0.1146851 0.9067383
vn -0.3613281 -0.1385498 0.921875
vn -0.345459 -0.07336426 0.9355469
vn -0.2145996 -0.1047363 0.9711914
vn -0.3354492 -0.02230835 0.9418945
vn -0.1585693 -0.03427124 0.9868164
vn -0.3242188 -0.002693176 0.9458008
vn -0.1506348 -7.241964E-05 0.9887695
vn 0.953125 0.1072388 0.2832031
vn 0.953125 0.1072388 0.2832031
vn 0.953125 0.1072388 0.2832031
vn 0.953125 0.1072388 0.2832031
vn 0.953125 0.1072388 0.2832031
vn 0.953125 0.1072388 0.2832031
vn 0.953125 0.1072388 0.2832031
vn 0.953125 0.1072388 0.2832031
vn 0.953125 0.1072388 0.2832031
vn 0.953125 0.1072388 0.2832031
vn -0.5004883 -0.07403564 0.8623047
vn -0.5083008 -0.04067993 0.8603516
vn -0.345459 -0.07336426 0.9355469
vn -0.4060059 -0.1146851 0.9067383
g swat_cell.006_0
f 3/3/3 2/2/2 1/1/1
f 6/6/6 5/5/5 4/4/4
f 9/9/9 8/8/8 7/7/7
f 12/12/12 11/11/11 10/10/10
f 10/10/10 13/13/13 12/12/12
f 13/13/13 14/14/14 12/12/12
f 13/13/13 15/15/15 14/14/14
f 13/13/13 16/16/16 15/15/15
f 13/13/13 17/17/17 16/16/16
f 17/17/17 18/18/18 16/16/16
f 21/21/21 20/20/20 19/19/19
f 19/19/19 22/22/22 21/21/21
f 22/22/22 23/23/23 21/21/21
f 22/22/22 24/24/24 23/23/23
f 24/24/24 25/25/25 23/23/23
f 28/28/28 27/27/27 26/26/26
f 26/26/26 29/29/29 28/28/28
f 29/29/29 30/30/30 28/28/28
f 30/30/30 31/31/31 28/28/28
f 30/30/30 29/29/29 32/32/32
f 33/33/33 30/30/30 32/32/32
f 36/36/36 35/35/35 34/34/34
f 34/34/34 37/37/37 36/36/36
f 34/34/34 38/38/38 37/37/37
f 34/34/34 39/39/39 38/38/38
f 39/39/39 40/40/40 38/38/38
f 39/39/39 41/41/41 40/40/40
f 39/39/39 42/42/42 41/41/41
f 45/45/45 44/44/44 43/43/43
f 46/46/46 45/45/45 43/43/43
f 49/49/49 48/48/48 47/47/47
f 47/47/47 50/50/50 49/49/49
f 47/47/47 51/51/51 50/50/50
f 52/52/52 51/51/51 47/47/47
f 53/53/53 52/52/52 47/47/47
f 54/54/54 52/52/52 53/53/53
f 55/55/55 54/54/54 53/53/53
f 54/54/54 55/55/55 56/56/56
f 55/55/55 57/57/57 56/56/56
f 60/60/60 59/59/59 58/58/58
f 61/61/61 60/60/60 58/58/58
f 62/62/62 60/60/60 61/61/61
f 63/63/63 62/62/62 61/61/61
f 64/64/64 63/63/63 61/61/61
f 61/61/61 58/58/58 65/65/65
f 65/65/65 64/64/64 61/61/61
f 58/58/58 66/66/66 65/65/65
f 67/67/67 64/64/64 65/65/65
f 68/68/68 67/67/67 65/65/65
f 71/71/71 70/70/70 69/69/69
f 72/72/72 71/71/71 69/69/69
f 75/75/75 74/74/74 73/73/73
f 76/76/76 75/75/75 73/73/73
f 79/79/79 78/78/78 77/77/77
f 77/77/77 80/80/80 79/79/79
f 80/80/80 81/81/81 79/79/79
f 79/79/79 81/81/81 82/82/82
f 81/81/81 83/83/83 82/82/82
f 82/82/82 83/83/83 84/84/84
f 83/83/83 85/85/85 84/84/84
f 86/86/86 84/84/84 85/85/85
f 87/87/87 86/86/86 85/85/85
f 86/86/86 87/87/87 88/88/88
f 87/87/87 89/89/89 88/88/88
f 92/92/92 91/91/91 90/90/90
f 90/90/90 93/93/93 92/92/92
f 96/96/96 95/95/95 94/94/94
f 96/96/96 97/97/97 95/95/95
f 96/96/96 98/98/98 97/97/97
f 99/99/99 97/97/97 98/98/98
f 102/102/102 101/101/101 100/100/100
f 103/103/103 102/102/102 100/100/100
