g swat_cell
v -0.07419661 -0.07261684 0.008784254
v -0.05802506 -0.08241028 0.01270999
v -0.04363295 -0.08962326 0.01368781
v 0.05492688 -0.009015402 -0.004140235
v -0.01443426 -0.06854632 -0.0001494884
v 0.03076116 -0.0293148 0.004482323
v -0.01315686 -0.04605359 -0.02247517
v -0.02519093 -0.0762675 -0.02234004
v 0.0278177 -0.0332505 -0.01843943
v -0.07462098 -0.04094827 0.009182537
v -0.07419661 -0.07261684 0.008784254
v -0.07417308 -0.0648112 -0.004185352
v -0.07317098 -0.0523845 -0.02543991
v -0.07462098 -0.04094827 0.009182537
v -0.07417308 -0.0648112 -0.004185352
v -0.02519093 -0.0762675 -0.02234004
v -0.07317098 -0.0523845 -0.02543991
v -0.07417308 -0.0648112 -0.004185352
v -0.04363295 -0.08962326 0.01368781
v -0.07419661 -0.07261684 0.008784254
v 0.03076116 -0.0293148 0.004482323
v -0.01443426 -0.06854632 -0.0001494884
v -0.0144335 -0.04450381 0.01134507
v 0.02661869 0.01218298 0.01107422
v -0.01198847 -0.001330884 -0.004498199
v -0.0144335 -0.01479906 0.009230822
v 0.07921898 0.01489352 0.0445899
v 0.0545251 -0.008078434 0.01688342
v 0.03076116 -0.0293148 0.004482323
v -0.004154583 0.006892947 -0.02448512
v -0.01328236 -0.01633489 -0.02460837
v -0.01315686 -0.04605359 -0.02247517
v 0.0278177 -0.0332505 -0.01843943
v 0.02839241 0.01096785 -0.02268903
v 0.05492688 -0.009015402 -0.004140235
v 0.0814922 0.01484692 0.01173041
v -0.004154583 0.006892947 -0.02448512
v -0.06577747 0.02303922 -0.03055514
v -0.01328236 -0.01633489 -0.02460837
v -0.03496087 0.06150442 -0.03070744
v 0.02839241 0.01096785 -0.02268903
v 0.02384799 0.07449364 -0.02735556
v 0.0814922 0.01484692 0.01173041
v 0.08109862 0.07758265 0.008138503
v 0.1545442 0.07758292 0.008139107
v 0.153313 0.07876908 0.04495553
v 0.08088644 0.07876908 0.04495527
v 0.02222803 0.07582036 0.009457173
v -0.03515392 0.06392333 -0.008209566
v -0.06672831 0.02535513 0.006444504
v -0.07451467 -0.008463057 0.00727585
v -0.07330008 -0.0101997 -0.02907939
v -0.07462098 -0.04094827 0.009182537
v -0.01328236 -0.01633489 -0.02460837
v -0.07317098 -0.0523845 -0.02543991
v -0.01315686 -0.04605359 -0.02247517
v -0.02519093 -0.0762675 -0.02234004
v -0.01198847 -0.001330884 -0.004498199
v -0.0144335 -0.01479906 0.009230822
v -0.005305697 0.008429227 0.00935407
v 0.02661869 0.01218298 0.01107422
v -0.05802506 -0.08241028 0.01270999
v -0.07419661 -0.07261684 0.008784254
v -0.07462098 -0.04094827 0.009182537
v -0.04363295 -0.08962326 0.01368781
v -0.01443426 -0.06854632 -0.0001494884
v -0.0144335 -0.04450381 0.01134507
v -0.07451467 -0.008463057 0.00727585
v -0.0144335 -0.01479906 0.009230822
v -0.0144335 -0.01479906 0.009230822
v -0.07451467 -0.008463057 0.00727585
v -0.06672831 0.02535513 0.006444504
v -0.03503626 0.06389919 0.006937142
v -0.03515392 0.06392333 -0.008209566
v 0.02222803 0.07582036 0.009457173
v -0.005305697 0.008429227 0.00935407
v 0.02222803 0.07582036 0.009457173
v 0.02661869 0.01218298 0.01107422
v 0.07921898 0.01489352 0.0445899
v 0.08088644 0.07876908 0.04495527
v 0.153313 0.07876908 0.04495553
v 0.153313 0.07876908 0.04495553
v 0.1545442 0.07758292 0.008139107
v 0.0814922 0.01484692 0.01173041
v 0.0545251 -0.008078434 0.01688342
v 0.07921898 0.01489352 0.0445899
v 0.03076116 -0.0293148 0.004482323
v 0.05492688 -0.009015402 -0.004140235
v -0.01443426 -0.06854632 -0.0001494884
v 0.0278177 -0.0332505 -0.01843943
v -0.02519093 -0.0762675 -0.02234004
v -0.04363295 -0.08962326 0.01368781
vt 0.09423828 0.09423828
vt 0.07647705 0.03277588
vt 0.0262146 0
vt 0.8085938 0.1645508
vt 0.9418945 0.02970886
vt 0.8662109 0.1096802
vt 0.2203369 0.9125977
vt 0.2203369 0.909668
vt 0.2265625 0.9145508
vt 0.1679688 0.5737305
vt 0.1680908 0.5693359
vt 0.1680908 0.5703125
vt 0.1682129 0.5717773
vt 0.1679688 0.5737305
vt 0.1680908 0.5703125
vt 0.1030884 0.1030884
vt 0.2159424 0.08660889
vt 0.1254883 0.021698
vt 0 0
vt 0.1224365 0.01940918
vt 0.2263184 0.9150391
vt 0.2200928 0.909668
vt 0.2200928 0.9130859
vt 0.2263184 0.9208984
vt 0.220459 0.9189453
vt 0.2200928 0.9174805
vt 0.2344971 0.9213867
vt 0.2305908 0.9179688
vt 0.2269287 0.9150391
vt 0.2216797 0.9204102
vt 0.2207031 0.9189453
vt 0.2203369 0.9125977
vt 0.2266846 0.9150391
vt 0.2266846 0.9208984
vt 0.2305908 0.9179688
vt 0.2344971 0.9213867
vt 0.1787109 0.5805664
vt 0.1693115 0.5830078
vt 0.1777344 0.5791016
vt 0.1740723 0.5883789
vt 0.1837158 0.5810547
vt 0.1829834 0.590332
vt 0.1915283 0.581543
vt 0.1916504 0.5908203
vt 0.2028809 0.5908203
vt 0.2028809 0.5908203
vt 0.1916504 0.5908203
vt 0.1827393 0.590332
vt 0.1739502 0.5888672
vt 0.1691895 0.5830078
vt 0.1679688 0.578125
vt 0.1682129 0.578125
vt 0.1679688 0.5737305
vt 0.1773682 0.5771484
vt 0.1682129 0.5732422
vt 0.1773682 0.5727539
vt 0.1755371 0.5688477
vt 0.1550293 0.5688477
vt 0.1540527 0.5673828
vt 0.1551514 0.5688477
vt 0.1599121 0.5693359
vt 0.1705322 0.5678711
vt 0.1680908 0.5693359
vt 0.1679688 0.5737305
vt 0.1739502 0.5673828
vt 0.177124 0.5698242
vt 0.177124 0.5732422
vt 0.1679688 0.578125
vt 0.177124 0.5771484
vt 0.1774902 0.5791016
vt 0.1679688 0.578125
vt 0.1691895 0.5830078
vt 0.1739502 0.5888672
vt 0.1739502 0.5888672
vt 0.1827393 0.590332
vt 0.1785889 0.5805664
vt 0.1827393 0.590332
vt 0.1833496 0.5810547
vt 0.1916504 0.5820313
vt 0.1916504 0.5908203
vt 0.2026367 0.5908203
vt 0.5380859 0.1768799
vt 0.5766602 0.2683105
vt 0.7329102 0.161499
vt 0.7861328 0.112793
vt 0.7128906 0.1106567
vt 0.8662109 0.1096802
vt 0.8085938 0.1645508
vt 0.9418945 0.02970886
vt 0.8764648 0.1636963
vt 0.9760742 0.1141357
vt 1 0
vn -0.3652344 -0.7963867 -0.4819336
vn -0.3676758 -0.7983398 -0.4768066
vn -0.1114502 -0.9106445 -0.3981934
vn 0.6455078 -0.7626953 0.03411865
vn 0.6455078 -0.7626953 0.03411865
vn 0.6455078 -0.7626953 0.03411865
vn 0.08685303 -0.05813599 -0.9946289
vn 0.06768799 -0.03140259 -0.9970703
vn 0.2363281 -0.07092285 -0.9692383
vn -0.7055664 0.01464844 0.7084961
vn -0.3874512 -0.02764893 0.9213867
vn -0.9995117 -0.00390625 -0.02648926
vn -0.6972656 -0.04418945 -0.7158203
vn -0.7055664 0.01464844 0.7084961
vn -0.9995117 -0.00390625 -0.02648926
vn 0.2929688 -0.9335938 -0.2058105
vn -0.3652344 -0.7963867 -0.4819336
vn -0.3652344 -0.7963867 -0.4819336
vn -0.1114502 -0.9106445 -0.3981934
vn -0.3652344 -0.7963867 -0.4819336
vn -0.107605 -0.1008301 0.9892578
vn 0.1414795 -0.1518555 0.9780273
vn 0.08813477 -0.09326172 0.9916992
vn -0.2634277 -0.1099854 0.9584961
vn 0.5532227 -0.3920898 0.7348633
vn 0.09368896 0.01928711 0.9956055
vn -0.3745117 -0.06616211 0.9248047
vn -0.411377 -0.3222656 0.8525391
vn -0.107605 -0.1008301 0.9892578
vn 0.08544922 -0.06585693 -0.9941406
vn 0.08477783 -0.06988525 -0.9941406
vn 0.08685303 -0.05813599 -0.9946289
vn 0.2363281 -0.07092285 -0.9692383
vn 0.3249512 -0.0635376 -0.9433594
vn 0.5356445 -0.06988525 -0.8413086
vn 0.3969727 -0.04922485 -0.9165039
vn 0.08544922 -0.06585693 -0.9941406
vn -0.6381836 0.2897949 -0.7133789
vn 0.08477783 -0.06988525 -0.9941406
vn -0.3666992 0.6137695 -0.6987305
vn 0.3249512 -0.0635376 -0.9433594
vn 0.1489258 0.6464844 -0.7480469
vn 0.3969727 -0.04922485 -0.9165039
vn 0.1636963 0.753418 -0.6367188
vn 0 0.8920898 -0.4523926
vn 0 0.9243164 0.3813477
vn -0.211792 0.6640625 0.7172852
vn -0.2722168 0.7832031 0.5585938
vn -0.5161133 0.855957 -0.03912354
vn -0.7021484 0.3464355 0.6220703
vn -0.75 0.1134644 0.6513672
vn -0.6889648 0.03363037 -0.7236328
vn -0.7055664 0.01464844 0.7084961
vn 0.08477783 -0.06988525 -0.9941406
vn -0.6972656 -0.04418945 -0.7158203
vn 0.08685303 -0.05813599 -0.9946289
vn 0.06768799 -0.03140259 -0.9970703
vn 0.5532227 -0.3920898 0.7348633
vn 0.09368896 0.01928711 0.9956055
vn 0.1340332 -0.3481445 0.9277344
vn -0.2634277 -0.1099854 0.9584961
vn 0.07574463 -0.02322388 0.9970703
vn -0.3874512 -0.02764893 0.9213867
vn -0.7055664 0.01464844 0.7084961
vn 0.07574463 -0.02322388 0.9970703
vn 0.1414795 -0.1518555 0.9780273
vn 0.08813477 -0.09326172 0.9916992
vn -0.75 0.1134644 0.6513672
vn 0.09368896 0.01928711 0.9956055
vn 0.09368896 0.01928711 0.9956055
vn -0.75 0.1134644 0.6513672
vn -0.7021484 0.3464355 0.6220703
vn -0.4157715 0.6611328 0.6245117
vn -0.5161133 0.855957 -0.03912354
vn -0.2722168 0.7832031 0.5585938
vn 0.1340332 -0.3481445 0.9277344
vn -0.2722168 0.7832031 0.5585938
vn -0.2634277 -0.1099854 0.9584961
vn -0.3745117 -0.06616211 0.9248047
vn -0.211792 0.6640625 0.7172852
vn 0 0.9243164 0.3813477
vn 0.6455078 -0.7626953 0.03411865
vn 0.6455078 -0.7626953 0.03411865
vn 0.6455078 -0.7626953 0.03411865
vn 0.6455078 -0.7626953 0.03411865
vn 0.6455078 -0.7626953 0.03411865
vn 0.6455078 -0.7626953 0.03411865
vn 0.6455078 -0.7626953 0.03411865
vn 0.6455078 -0.7626953 0.03411865
vn 0.6455078 -0.7626953 0.03411865
vn 0.2929688 -0.9335938 -0.2058105
vn -0.1114502 -0.9106445 -0.3981934
g swat_cell_0
f 3/3/3 2/2/2 1/1/1
f 6/6/6 5/5/5 4/4/4
f 9/9/9 8/8/8 7/7/7
f 12/12/12 11/11/11 10/10/10
f 15/15/15 14/14/14 13/13/13
f 18/18/18 17/17/17 16/16/16
f 16/16/16 19/19/19 18/18/18
f 19/19/19 20/20/20 18/18/18
f 23/23/23 22/22/22 21/21/21
f 23/23/23 21/21/21 24/24/24
f 24/24/24 25/25/25 23/23/23
f 25/25/25 26/26/26 23/23/23
f 28/28/28 27/27/27 24/24/24
f 29/29/29 28/28/28 24/24/24
f 32/32/32 31/31/31 30/30/30
f 33/33/33 32/32/32 30/30/30
f 30/30/30 34/34/34 33/33/33
f 35/35/35 33/33/33 34/34/34
f 36/36/36 35/35/35 34/34/34
f 39/39/39 38/38/38 37/37/37
f 38/38/38 40/40/40 37/37/37
f 37/37/37 40/40/40 41/41/41
f 40/40/40 42/42/42 41/41/41
f 43/43/43 41/41/41 42/42/42
f 44/44/44 43/43/43 42/42/42
f 45/45/45 43/43/43 44/44/44
f 46/46/46 45/45/45 44/44/44
f 47/47/47 46/46/46 44/44/44
f 47/47/47 44/44/44 48/48/48
f 44/44/44 42/42/42 48/48/48
f 48/48/48 42/42/42 49/49/49
f 42/42/42 40/40/40 49/49/49
f 49/49/49 40/40/40 50/50/50
f 40/40/40 38/38/38 50/50/50
f 50/50/50 38/38/38 51/51/51
f 38/38/38 52/52/52 51/51/51
f 51/51/51 52/52/52 53/53/53
f 52/52/52 38/38/38 54/54/54
f 52/52/52 55/55/55 53/53/53
f 55/55/55 52/52/52 54/54/54
f 56/56/56 55/55/55 54/54/54
f 55/55/55 56/56/56 57/57/57
f 60/60/60 59/59/59 58/58/58
f 61/61/61 60/60/60 58/58/58
f 64/64/64 63/63/63 62/62/62
f 64/64/64 62/62/62 65/65/65
f 64/64/64 65/65/65 66/66/66
f 66/66/66 67/67/67 64/64/64
f 68/68/68 64/64/64 67/67/67
f 69/69/69 68/68/68 67/67/67
f 72/72/72 71/71/71 70/70/70
f 73/73/73 72/72/72 70/70/70
f 72/72/72 73/73/73 74/74/74
f 74/74/74 73/73/73 75/75/75
f 76/76/76 73/73/73 70/70/70
f 77/77/77 73/73/73 76/76/76
f 78/78/78 77/77/77 76/76/76
f 77/77/77 78/78/78 79/79/79
f 80/80/80 77/77/77 79/79/79
f 79/79/79 81/81/81 80/80/80
f 84/84/84 83/83/83 82/82/82
f 82/82/82 85/85/85 84/84/84
f 82/82/82 86/86/86 85/85/85
f 84/84/84 85/85/85 87/87/87
f 88/88/88 84/84/84 87/87/87
f 90/90/90 88/88/88 89/89/89
f 91/91/91 90/90/90 89/89/89
f 89/89/89 92/92/92 91/91/91
