g swat_cell.008
v 0.01990984 0.01622724 0.01063614
v 0.03223578 0.02481979 -0.01306952
v 0.0159025 -0.02025915 -0.01258824
v -0.01688683 0.02974301 0.01709431
v 0.003232962 0.0172179 0.02197306
v -0.01638022 -0.008064693 0.01661882
v 0.003232962 0.0172179 0.02197306
v 0.01990984 0.01622724 0.01063614
v 0.0159025 -0.02025915 -0.01258824
v 0.005313601 -0.03126307 -0.01360946
v -0.01210975 -0.04810818 -0.01439872
v -0.01638022 -0.008064693 0.01661882
v -0.01528266 -0.02862083 0.001394324
v -0.01528266 -0.02862083 0.001394324
v -0.01210975 -0.04810818 -0.01439872
v -0.0159352 0.04830786 -0.01405076
v -0.01638022 -0.008064693 0.01661882
v -0.01688683 0.02974301 0.01709431
v 0.0159025 -0.02025915 -0.01258824
v 0.03223578 0.02481979 -0.01306952
v -0.0159352 0.04830786 -0.01405076
v 0.005313601 -0.03126307 -0.01360946
v -0.01210975 -0.04810818 -0.01439872
v -0.01688683 0.02974301 0.01709431
v -0.0159352 0.04830786 -0.01405076
v 0.03223578 0.02481979 -0.01306952
v 0.01990984 0.01622724 0.01063614
v 0.003232962 0.0172179 0.02197306
vt 0.6601563 0.5083008
vt 0.7373047 0.5854492
vt 0.7944336 0.5083008
vt 0.1680908 0.5678711
vt 0.1711426 0.5664063
vt 0.1680908 0.5625
vt 0.8652344 0.5371094
vt 0.8930664 0.5649414
vt 0.8930664 0.5332031
vt 0.8774414 0.5078125
vt 0.8520508 0.4667969
vt 0.8408203 0.4794922
vt 0.8432617 0.4746094
vt 0.168335 0.559082
vt 0.1688232 0.5566406
vt 0.168335 0.5708008
vt 0.1682129 0.5605469
vt 0.1680908 0.5688477
vt 0.1729736 0.5605469
vt 0.1755371 0.5673828
vt 0.168335 0.5708008
vt 0.1713867 0.559082
vt 0.1688232 0.5566406
vt 0.8359375 0.03726196
vt 1 0.09851074
vt 0.9916992 0.07287598
vt 1 0
vt 0.8823242 0
vn 0.8837891 -0.3164063 0.3447266
vn 0.8837891 -0.3164063 0.3447266
vn 0.8837891 -0.3164063 0.3447266
vn -0.244751 -0.01547241 0.9692383
vn -0.244751 -0.01547241 0.9692383
vn -0.244751 -0.01547241 0.9692383
vn 0.4619141 -0.5117188 0.7241211
vn 0.4619141 -0.5117188 0.7241211
vn 0.4619141 -0.5117188 0.7241211
vn 0.4619141 -0.5117188 0.7241211
vn 0.4619141 -0.5117188 0.7241211
vn 0.4619141 -0.5117188 0.7241211
vn 0.4619141 -0.5117188 0.7241211
vn -0.9960938 -0.0241394 -0.08270264
vn -0.9960938 -0.0241394 -0.08270264
vn -0.9960938 -0.0241394 -0.08270264
vn -0.9960938 -0.0241394 -0.08270264
vn -0.9960938 -0.0241394 -0.08270264
vn 0.03518677 -0.002435684 -0.9995117
vn 0.03518677 -0.002435684 -0.9995117
vn 0.03518677 -0.002435684 -0.9995117
vn 0.03518677 -0.002435684 -0.9995117
vn 0.03518677 -0.002435684 -0.9995117
vn 0.3757324 0.7910156 0.482666
vn 0.3757324 0.7910156 0.482666
vn 0.3757324 0.7910156 0.482666
vn 0.3757324 0.7910156 0.482666
vn 0.3757324 0.7910156 0.482666
g swat_cell.008_0
f 3/3/3 2/2/2 1/1/1
f 6/6/6 5/5/5 4/4/4
f 9/9/9 8/8/8 7/7/7
f 7/7/7 10/10/10 9/9/9
f 7/7/7 11/11/11 10/10/10
f 7/7/7 12/12/12 11/11/11
f 12/12/12 13/13/13 11/11/11
f 16/16/16 15/15/15 14/14/14
f 14/14/14 17/17/17 16/16/16
f 17/17/17 18/18/18 16/16/16
f 21/21/21 20/20/20 19/19/19
f 19/19/19 22/22/22 21/21/21
f 22/22/22 23/23/23 21/21/21
f 26/26/26 25/25/25 24/24/24
f 24/24/24 27/27/27 26/26/26
f 24/24/24 28/28/28 27/27/27
