g swat.001
v -0.1913449 1.047258 0.09103032
v -0.164624 1.039691 0.09103031
v -0.164624 1.039691 0.1316712
v -0.1913449 1.047258 0.1316712
v -0.164624 1.039691 0.09103031
v -0.1450628 1.019017 0.1316712
v -0.164624 1.039691 0.1316712
v -0.1450628 1.019017 0.09103031
v -0.137903 0.9907771 0.1316712
v -0.137903 0.9907771 0.09103031
v -0.1450628 0.9625369 0.1316712
v -0.1450628 0.9625369 0.0910303
v -0.164624 0.9418635 0.1316712
v -0.164624 0.9418635 0.0910303
v -0.164624 0.9418635 0.0910303
v -0.1913449 0.9342967 0.0910303
v -0.1913449 0.9342967 0.1316712
v -0.164624 0.9418635 0.1316712
v -0.1913449 0.9342967 0.0910303
v -0.2180659 0.9418635 0.0910303
v -0.2180659 0.9418635 0.1316712
v -0.1913449 0.9342967 0.1316712
v -0.2180659 0.9418635 0.0910303
v -0.2376271 0.9625369 0.1316712
v -0.2180659 0.9418635 0.1316712
v -0.2376271 0.9625369 0.0910303
v -0.2447869 0.9907771 0.1316712
v -0.2447869 0.9907771 0.09103031
v -0.2376271 1.019017 0.1316712
v -0.2376271 1.019017 0.09103031
v -0.2180659 1.039691 0.1316712
v -0.2180659 1.039691 0.09103031
v -0.1450628 1.019017 0.1316712
v -0.137903 0.9907771 0.1316712
v -0.1450628 0.9625369 0.1316712
v -0.164624 1.039691 0.1316712
v -0.164624 0.9418635 0.1316712
v -0.1913449 1.047258 0.1316712
v -0.1913449 0.9342967 0.1316712
v -0.2180659 1.039691 0.1316712
v -0.2180659 0.9418635 0.1316712
v -0.2376271 1.019017 0.1316712
v -0.2376271 0.9625369 0.1316712
v -0.2447869 0.9907771 0.1316712
v -0.2180659 1.039691 0.09103031
v -0.1913449 1.047258 0.09103032
v -0.1913449 1.047258 0.1316712
v -0.2180659 1.039691 0.1316712
v -0.1450628 0.9625369 0.0910303
v -0.137903 0.9907771 0.09103031
v -0.1450628 1.019017 0.09103031
v -0.164624 0.9418635 0.0910303
v -0.164624 1.039691 0.09103031
v -0.1913449 0.9342967 0.0910303
v -0.1913449 1.047258 0.09103032
v -0.2180659 0.9418635 0.0910303
v -0.2180659 1.039691 0.09103031
v -0.2376271 0.9625369 0.0910303
v -0.2376271 1.019017 0.09103031
v -0.2447869 0.9907771 0.09103031
v -0.06949727 1.047258 0.09103032
v -0.0427763 1.039691 0.09103031
v -0.0427763 1.039691 0.1316712
v -0.06949727 1.047258 0.1316712
v -0.0427763 1.039691 0.09103031
v -0.02321518 1.019017 0.1316712
v -0.0427763 1.039691 0.1316712
v -0.02321518 1.019017 0.09103031
v -0.01605531 0.9907771 0.1316712
v -0.01605531 0.9907771 0.09103031
v -0.02321518 0.9625369 0.1316712
v -0.02321518 0.9625369 0.0910303
v -0.0427763 0.9418635 0.1316712
v -0.0427763 0.9418635 0.0910303
v -0.0427763 0.9418635 0.0910303
v -0.06949727 0.9342967 0.0910303
v -0.06949727 0.9342967 0.1316712
v -0.0427763 0.9418635 0.1316712
v -0.06949727 0.9342967 0.0910303
v -0.09621826 0.9418635 0.0910303
v -0.09621826 0.9418635 0.1316712
v -0.06949727 0.9342967 0.1316712
v -0.09621826 0.9418635 0.0910303
v -0.1157794 0.9625369 0.1316712
v -0.09621826 0.9418635 0.1316712
v -0.1157794 0.9625369 0.0910303
v -0.1229392 0.9907771 0.1316712
v -0.1229392 0.9907771 0.09103031
v -0.1157794 1.019017 0.1316712
v -0.1157794 1.019017 0.09103031
v -0.09621827 1.039691 0.1316712
v -0.09621827 1.039691 0.09103031
v -0.02321518 1.019017 0.1316712
v -0.01605531 0.9907771 0.1316712
v -0.02321518 0.9625369 0.1316712
v -0.0427763 1.039691 0.1316712
v -0.0427763 0.9418635 0.1316712
v -0.06949727 1.047258 0.1316712
v -0.06949727 0.9342967 0.1316712
v -0.09621827 1.039691 0.1316712
v -0.09621826 0.9418635 0.1316712
v -0.1157794 0.9625369 0.1316712
v -0.1157794 1.019017 0.1316712
v -0.1229392 0.9907771 0.1316712
v -0.09621827 1.039691 0.09103031
v -0.06949727 1.047258 0.09103032
v -0.06949727 1.047258 0.1316712
v -0.09621827 1.039691 0.1316712
v -0.02321518 0.9625369 0.0910303
v -0.01605531 0.9907771 0.09103031
v -0.02321518 1.019017 0.09103031
v -0.0427763 0.9418635 0.0910303
v -0.0427763 1.039691 0.09103031
v -0.06949727 0.9342967 0.0910303
v -0.06949727 1.047258 0.09103032
v -0.09621826 0.9418635 0.0910303
v -0.09621827 1.039691 0.09103031
v -0.1157794 0.9625369 0.0910303
v -0.1157794 1.019017 0.09103031
v -0.1229392 0.9907771 0.09103031
v 0.0523504 1.047258 0.09103032
v 0.07907138 1.039691 0.09103031
v 0.07907138 1.039691 0.1316712
v 0.0523504 1.047258 0.1316712
v 0.07907138 1.039691 0.09103031
v 0.0986325 1.019017 0.1316712
v 0.07907138 1.039691 0.1316712
v 0.0986325 1.019017 0.09103031
v 0.1057924 0.9907771 0.1316712
v 0.1057924 0.9907771 0.09103031
v 0.0986325 0.9625369 0.1316712
v 0.0986325 0.9625369 0.0910303
v 0.07907138 0.9418635 0.1316712
v 0.07907138 0.9418635 0.0910303
v 0.07907138 0.9418635 0.0910303
v 0.0523504 0.9342967 0.0910303
v 0.0523504 0.9342967 0.1316712
v 0.07907138 0.9418635 0.1316712
v 0.0523504 0.9342967 0.0910303
v 0.02562941 0.9418635 0.0910303
v 0.02562941 0.9418635 0.1316712
v 0.0523504 0.9342967 0.1316712
v 0.02562941 0.9418635 0.0910303
v 0.006068298 0.9625369 0.1316712
v 0.02562941 0.9418635 0.1316712
v 0.006068298 0.9625369 0.0910303
v -0.001091566 0.9907771 0.1316712
v -0.001091566 0.9907771 0.09103031
v 0.006068298 1.019017 0.1316712
v 0.006068298 1.019017 0.09103031
v 0.02562941 1.039691 0.1316712
v 0.02562941 1.039691 0.09103031
v 0.0986325 1.019017 0.1316712
v 0.1057924 0.9907771 0.1316712
v 0.0986325 0.9625369 0.1316712
v 0.07907138 1.039691 0.1316712
v 0.07907138 0.9418635 0.1316712
v 0.0523504 1.047258 0.1316712
v 0.0523504 0.9342967 0.1316712
v 0.02562941 1.039691 0.1316712
v 0.02562941 0.9418635 0.1316712
v 0.006068298 1.019017 0.1316712
v 0.006068298 0.9625369 0.1316712
v -0.001091566 0.9907771 0.1316712
v 0.02562941 1.039691 0.09103031
v 0.0523504 1.047258 0.09103032
v 0.0523504 1.047258 0.1316712
v 0.02562941 1.039691 0.1316712
v 0.0986325 0.9625369 0.0910303
v 0.1057924 0.9907771 0.09103031
v 0.0986325 1.019017 0.09103031
v 0.07907138 0.9418635 0.0910303
v 0.07907138 1.039691 0.09103031
v 0.0523504 0.9342967 0.0910303
v 0.0523504 1.047258 0.09103032
v 0.02562941 0.9418635 0.0910303
v 0.02562941 1.039691 0.09103031
v 0.006068298 0.9625369 0.0910303
v 0.006068298 1.019017 0.09103031
v -0.001091566 0.9907771 0.09103031
v 0.1741981 1.047258 0.09103032
v 0.2009191 1.039691 0.09103031
v 0.2009191 1.039691 0.1316712
v 0.1741981 1.047258 0.1316712
v 0.2009191 1.039691 0.09103031
v 0.2204802 1.019017 0.1316712
v 0.2009191 1.039691 0.1316712
v 0.2204802 1.019017 0.09103031
v 0.2276401 0.9907771 0.1316712
v 0.2276401 0.9907771 0.09103031
v 0.2204802 0.9625369 0.1316712
v 0.2204802 0.9625369 0.0910303
v 0.2009191 0.9418635 0.1316712
v 0.2009191 0.9418635 0.0910303
v 0.2009191 0.9418635 0.0910303
v 0.1741981 0.9342967 0.0910303
v 0.1741981 0.9342967 0.1316712
v 0.2009191 0.9418635 0.1316712
v 0.1741981 0.9342967 0.0910303
v 0.1474771 0.9418635 0.0910303
v 0.1474771 0.9418635 0.1316712
v 0.1741981 0.9342967 0.1316712
v 0.1474771 0.9418635 0.0910303
v 0.127916 0.9625369 0.1316712
v 0.1474771 0.9418635 0.1316712
v 0.127916 0.9625369 0.0910303
v 0.1207561 0.9907771 0.1316712
v 0.1207561 0.9907771 0.09103031
v 0.127916 1.019017 0.1316712
v 0.127916 1.019017 0.09103031
v 0.1474771 1.039691 0.1316712
v 0.1474771 1.039691 0.09103031
v 0.2204802 1.019017 0.1316712
v 0.2276401 0.9907771 0.1316712
v 0.2204802 0.9625369 0.1316712
v 0.2009191 1.039691 0.1316712
v 0.2009191 0.9418635 0.1316712
v 0.1741981 1.047258 0.1316712
v 0.1741981 0.9342967 0.1316712
v 0.1474771 1.039691 0.1316712
v 0.1474771 0.9418635 0.1316712
v 0.127916 1.019017 0.1316712
v 0.127916 0.9625369 0.1316712
v 0.1207561 0.9907771 0.1316712
v 0.1474771 1.039691 0.09103031
v 0.1741981 1.047258 0.09103032
v 0.1741981 1.047258 0.1316712
v 0.1474771 1.039691 0.1316712
v 0.2204802 0.9625369 0.0910303
v 0.2276401 0.9907771 0.09103031
v 0.2204802 1.019017 0.09103031
v 0.2009191 0.9418635 0.0910303
v 0.2009191 1.039691 0.09103031
v 0.1741981 0.9342967 0.0910303
v 0.1741981 1.047258 0.09103032
v 0.1474771 0.9418635 0.0910303
v 0.1474771 1.039691 0.09103031
v 0.127916 0.9625369 0.0910303
v 0.127916 1.019017 0.09103031
v 0.1207561 0.9907771 0.09103031
vt 0.7998047 0.8359375
vt 0.7841797 0.8359375
vt 0.7841797 0.9287109
vt 0.7998047 0.9287109
vt 0.7841797 0.8359375
vt 0.769043 0.9287109
vt 0.7841797 0.9287109
vt 0.769043 0.8359375
vt 0.753418 0.9287109
vt 0.753418 0.8359375
vt 0.737793 0.9287109
vt 0.737793 0.8359375
vt 0.7226563 0.9287109
vt 0.7226563 0.8359375
vt 0.7226563 0.8359375
vt 0.7070313 0.8359375
vt 0.7070313 0.9287109
vt 0.7226563 0.9287109
vt 0.7070313 0.8359375
vt 0.6914063 0.8359375
vt 0.6914063 0.9287109
vt 0.7070313 0.9287109
vt 0.6914063 0.8359375
vt 0.6762695 0.9287109
vt 0.6914063 0.9287109
vt 0.6762695 0.8359375
vt 0.6606445 0.9287109
vt 0.6606445 0.8359375
vt 0.6450195 0.9287109
vt 0.6450195 0.8359375
vt 0.6298828 0.9287109
vt 0.6298828 0.8359375
vt 0.6992188 0.8120117
vt 0.7050781 0.7895508
vt 0.6992188 0.7675781
vt 0.6831055 0.828125
vt 0.6831055 0.7509766
vt 0.6606445 0.8344727
vt 0.6606445 0.7451172
vt 0.6381836 0.828125
vt 0.6381836 0.7509766
vt 0.6220703 0.8120117
vt 0.6220703 0.7675781
vt 0.6162109 0.7895508
vt 0.6298828 0.8359375
vt 0.6142578 0.8359375
vt 0.6142578 0.9287109
vt 0.6298828 0.9287109
vt 0.7919922 0.7675781
vt 0.7978516 0.7895508
vt 0.7919922 0.8120117
vt 0.7758789 0.7509766
vt 0.7758789 0.828125
vt 0.753418 0.7451172
vt 0.753418 0.8344727
vt 0.730957 0.7509766
vt 0.730957 0.828125
vt 0.7148438 0.7675781
vt 0.7148438 0.8120117
vt 0.7089844 0.7895508
vt 0.7998047 0.8359375
vt 0.7841797 0.8359375
vt 0.7841797 0.9287109
vt 0.7998047 0.9287109
vt 0.7841797 0.8359375
vt 0.769043 0.9287109
vt 0.7841797 0.9287109
vt 0.769043 0.8359375
vt 0.753418 0.9287109
vt 0.753418 0.8359375
vt 0.737793 0.9287109
vt 0.737793 0.8359375
vt 0.7226563 0.9287109
vt 0.7226563 0.8359375
vt 0.7226563 0.8359375
vt 0.7070313 0.8359375
vt 0.7070313 0.9287109
vt 0.7226563 0.9287109
vt 0.7070313 0.8359375
vt 0.6914063 0.8359375
vt 0.6914063 0.9287109
vt 0.7070313 0.9287109
vt 0.6914063 0.8359375
vt 0.6762695 0.9287109
vt 0.6914063 0.9287109
vt 0.6762695 0.8359375
vt 0.6606445 0.9287109
vt 0.6606445 0.8359375
vt 0.6450195 0.9287109
vt 0.6450195 0.8359375
vt 0.6298828 0.9287109
vt 0.6298828 0.8359375
vt 0.6992188 0.8120117
vt 0.7050781 0.7895508
vt 0.6992188 0.7675781
vt 0.6831055 0.828125
vt 0.6831055 0.7509766
vt 0.6606445 0.8344727
vt 0.6606445 0.7451172
vt 0.6381836 0.828125
vt 0.6381836 0.7509766
vt 0.6220703 0.7675781
vt 0.6220703 0.8120117
vt 0.6162109 0.7895508
vt 0.6298828 0.8359375
vt 0.6142578 0.8359375
vt 0.6142578 0.9287109
vt 0.6298828 0.9287109
vt 0.7919922 0.7675781
vt 0.7978516 0.7895508
vt 0.7919922 0.8120117
vt 0.7758789 0.7509766
vt 0.7758789 0.828125
vt 0.753418 0.7451172
vt 0.753418 0.8344727
vt 0.730957 0.7509766
vt 0.730957 0.828125
vt 0.7148438 0.7675781
vt 0.7148438 0.8120117
vt 0.7089844 0.7895508
vt 0.7998047 0.8359375
vt 0.7841797 0.8359375
vt 0.7841797 0.9287109
vt 0.7998047 0.9287109
vt 0.7841797 0.8359375
vt 0.769043 0.9287109
vt 0.7841797 0.9287109
vt 0.769043 0.8359375
vt 0.753418 0.9287109
vt 0.753418 0.8359375
vt 0.737793 0.9287109
vt 0.737793 0.8359375
vt 0.7226563 0.9287109
vt 0.7226563 0.8359375
vt 0.7226563 0.8359375
vt 0.7070313 0.8359375
vt 0.7070313 0.9287109
vt 0.7226563 0.9287109
vt 0.7070313 0.8359375
vt 0.6914063 0.8359375
vt 0.6914063 0.9287109
vt 0.7070313 0.9287109
vt 0.6914063 0.8359375
vt 0.6762695 0.9287109
vt 0.6914063 0.9287109
vt 0.6762695 0.8359375
vt 0.6606445 0.9287109
vt 0.6606445 0.8359375
vt 0.6450195 0.9287109
vt 0.6450195 0.8359375
vt 0.6298828 0.9287109
vt 0.6298828 0.8359375
vt 0.6992188 0.8120117
vt 0.7050781 0.7895508
vt 0.6992188 0.7675781
vt 0.6831055 0.828125
vt 0.6831055 0.7509766
vt 0.6606445 0.8344727
vt 0.6606445 0.7451172
vt 0.6381836 0.828125
vt 0.6381836 0.7509766
vt 0.6220703 0.8120117
vt 0.6220703 0.7675781
vt 0.6162109 0.7895508
vt 0.6298828 0.8359375
vt 0.6142578 0.8359375
vt 0.6142578 0.9287109
vt 0.6298828 0.9287109
vt 0.7919922 0.7675781
vt 0.7978516 0.7895508
vt 0.7919922 0.8120117
vt 0.7758789 0.7509766
vt 0.7758789 0.828125
vt 0.753418 0.7451172
vt 0.753418 0.8344727
vt 0.730957 0.7509766
vt 0.730957 0.828125
vt 0.7148438 0.7675781
vt 0.7148438 0.8120117
vt 0.7089844 0.7895508
vt 0.7998047 0.8359375
vt 0.7841797 0.8359375
vt 0.7841797 0.9287109
vt 0.7998047 0.9287109
vt 0.7841797 0.8359375
vt 0.769043 0.9287109
vt 0.7841797 0.9287109
vt 0.769043 0.8359375
vt 0.753418 0.9287109
vt 0.753418 0.8359375
vt 0.737793 0.9287109
vt 0.737793 0.8359375
vt 0.7226563 0.9287109
vt 0.7226563 0.8359375
vt 0.7226563 0.8359375
vt 0.7070313 0.8359375
vt 0.7070313 0.9287109
vt 0.7226563 0.9287109
vt 0.7070313 0.8359375
vt 0.6914063 0.8359375
vt 0.6914063 0.9287109
vt 0.7070313 0.9287109
vt 0.6914063 0.8359375
vt 0.6762695 0.9287109
vt 0.6914063 0.9287109
vt 0.6762695 0.8359375
vt 0.6606445 0.9287109
vt 0.6606445 0.8359375
vt 0.6450195 0.9287109
vt 0.6450195 0.8359375
vt 0.6298828 0.9287109
vt 0.6298828 0.8359375
vt 0.6992188 0.8120117
vt 0.7050781 0.7895508
vt 0.6992188 0.7675781
vt 0.6831055 0.828125
vt 0.6831055 0.7509766
vt 0.6606445 0.8344727
vt 0.6606445 0.7451172
vt 0.6381836 0.828125
vt 0.6381836 0.7509766
vt 0.6220703 0.8120117
vt 0.6220703 0.7675781
vt 0.6162109 0.7895508
vt 0.6298828 0.8359375
vt 0.6142578 0.8359375
vt 0.6142578 0.9287109
vt 0.6298828 0.9287109
vt 0.7919922 0.7675781
vt 0.7978516 0.7895508
vt 0.7919922 0.8120117
vt 0.7758789 0.7509766
vt 0.7758789 0.828125
vt 0.753418 0.7451172
vt 0.753418 0.8344727
vt 0.730957 0.7509766
vt 0.730957 0.828125
vt 0.7148438 0.7675781
vt 0.7148438 0.8120117
vt 0.7089844 0.7895508
vn 0.2724609 0.9624023 0
vn 0.2724609 0.9624023 0
vn 0.2724609 0.9624023 0
vn 0.2724609 0.9624023 0
vn 0.7265625 0.6875 0
vn 0.8759766 0.4821777 0
vn 0.7265625 0.6875 0
vn 0.8759766 0.4821777 0
vn 1 1.311302E-06 0
vn 1 1.251698E-06 0
vn 0.8759766 -0.4821777 0
vn 0.8759766 -0.4821777 0
vn 0.7265625 -0.6875 0
vn 0.7265625 -0.6875 0
vn 0.2724609 -0.9624023 0
vn 0.2724609 -0.9624023 0
vn 0.2724609 -0.9624023 0
vn 0.2724609 -0.9624023 0
vn -0.2724609 -0.9624023 0
vn -0.2724609 -0.9624023 0
vn -0.2724609 -0.9624023 0
vn -0.2724609 -0.9624023 0
vn -0.7265625 -0.6875 0
vn -0.8759766 -0.4821777 0
vn -0.7265625 -0.6875 0
vn -0.8759766 -0.4821777 0
vn -1 1.251698E-06 0
vn -1 1.192093E-06 0
vn -0.8759766 0.4821777 0
vn -0.8759766 0.4821777 0
vn -0.7265625 0.6875 0
vn -0.7265625 0.6875 0
vn 0 0 1
vn 0 0 1
vn 0 0 1
vn 0 0 1
vn 0 0 1
vn 0 0 1
vn 0 0 1
vn 0 0 1
vn 0 0 1
vn 0 0 1
vn 0 0 1
vn 0 0 1
vn -0.2724609 0.9624023 0
vn -0.2724609 0.9624023 0
vn -0.2724609 0.9624023 0
vn -0.2724609 0.9624023 0
vn 0 0 -1
vn 0 0 -1
vn 0 0 -1
vn 0 0 -1
vn 0 0 -1
vn 0 0 -1
vn 0 0 -1
vn 0 0 -1
vn 0 0 -1
vn 0 0 -1
vn 0 0 -1
vn 0 0 -1
vn 0.2724609 0.9624023 0
vn 0.2724609 0.9624023 0
vn 0.2724609 0.9624023 0
vn 0.2724609 0.9624023 0
vn 0.7265625 0.6875 0
vn 0.8759766 0.4821777 0
vn 0.7265625 0.6875 0
vn 0.8759766 0.4821777 0
vn 1 1.311302E-06 0
vn 1 1.251698E-06 0
vn 0.8759766 -0.4821777 0
vn 0.8759766 -0.4821777 0
vn 0.7265625 -0.6875 0
vn 0.7265625 -0.6875 0
vn 0.2724609 -0.9624023 0
vn 0.2724609 -0.9624023 0
vn 0.2724609 -0.9624023 0
vn 0.2724609 -0.9624023 0
vn -0.2724609 -0.9624023 0
vn -0.2724609 -0.9624023 0
vn -0.2724609 -0.9624023 0
vn -0.2724609 -0.9624023 0
vn -0.7265625 -0.6875 0
vn -0.8759766 -0.4821777 0
vn -0.7265625 -0.6875 0
vn -0.8759766 -0.4821777 0
vn -1 1.311302E-06 0
vn -1 1.251698E-06 0
vn -0.8759766 0.4821777 0
vn -0.8759766 0.4821777 0
vn -0.7265625 0.6875 0
vn -0.7265625 0.6875 0
vn 0 0 1
vn 0 0 1
vn 0 0 1
vn 0 0 1
vn 0 0 1
vn 0 0 1
vn 0 0 1
vn 0 0 1
vn 0 0 1
vn 0 0 1
vn 0 0 1
vn 0 0 1
vn -0.2724609 0.9624023 0
vn -0.2724609 0.9624023 0
vn -0.2724609 0.9624023 0
vn -0.2724609 0.9624023 0
vn 0 0 -1
vn 0 0 -1
vn 0 0 -1
vn 0 0 -1
vn 0 0 -1
vn 0 0 -1
vn 0 0 -1
vn 0 0 -1
vn 0 0 -1
vn 0 0 -1
vn 0 0 -1
vn 0 0 -1
vn 0.2724609 0.9624023 0
vn 0.2724609 0.9624023 0
vn 0.2724609 0.9624023 0
vn 0.2724609 0.9624023 0
vn 0.7265625 0.6875 0
vn 0.8759766 0.4821777 0
vn 0.7265625 0.6875 0
vn 0.8759766 0.4821777 0
vn 1 1.311302E-06 0
vn 1 1.251698E-06 0
vn 0.8759766 -0.4821777 0
vn 0.8759766 -0.4821777 0
vn 0.7265625 -0.6875 0
vn 0.7265625 -0.6875 0
vn 0.2724609 -0.9624023 0
vn 0.2724609 -0.9624023 0
vn 0.2724609 -0.9624023 0
vn 0.2724609 -0.9624023 0
vn -0.2724609 -0.9624023 0
vn -0.2724609 -0.9624023 0
vn -0.2724609 -0.9624023 0
vn -0.2724609 -0.9624023 0
vn -0.7265625 -0.6875 0
vn -0.8759766 -0.4821777 0
vn -0.7265625 -0.6875 0
vn -0.8759766 -0.4821777 0
vn -1 1.311302E-06 0
vn -1 1.251698E-06 0
vn -0.8759766 0.4821777 0
vn -0.8759766 0.4821777 0
vn -0.7265625 0.6875 0
vn -0.7265625 0.6875 0
vn 0 0 1
vn 0 0 1
vn 0 0 1
vn 0 0 1
vn 0 0 1
vn 0 0 1
vn 0 0 1
vn 0 0 1
vn 0 0 1
vn 0 0 1
vn 0 0 1
vn 0 0 1
vn -0.2724609 0.9624023 0
vn -0.2724609 0.9624023 0
vn -0.2724609 0.9624023 0
vn -0.2724609 0.9624023 0
vn 0 0 -1
vn 0 0 -1
vn 0 0 -1
vn 0 0 -1
vn 0 0 -1
vn 0 0 -1
vn 0 0 -1
vn 0 0 -1
vn 0 0 -1
vn 0 0 -1
vn 0 0 -1
vn 0 0 -1
vn 0.2724609 0.9624023 0
vn 0.2724609 0.9624023 0
vn 0.2724609 0.9624023 0
vn 0.2724609 0.9624023 0
vn 0.7265625 0.6875 0
vn 0.8759766 0.4821777 0
vn 0.7265625 0.6875 0
vn 0.8759766 0.4821777 0
vn 1 1.311302E-06 0
vn 1 1.251698E-06 0
vn 0.8759766 -0.4821777 0
vn 0.8759766 -0.4821777 0
vn 0.7265625 -0.6875 0
vn 0.7265625 -0.6875 0
vn 0.2724609 -0.9624023 0
vn 0.2724609 -0.9624023 0
vn 0.2724609 -0.9624023 0
vn 0.2724609 -0.9624023 0
vn -0.2724609 -0.9624023 0
vn -0.2724609 -0.9624023 0
vn -0.2724609 -0.9624023 0
vn -0.2724609 -0.9624023 0
vn -0.7265625 -0.6875 0
vn -0.8759766 -0.4821777 0
vn -0.7265625 -0.6875 0
vn -0.8759766 -0.4821777 0
vn -1 1.311302E-06 0
vn -1 1.251698E-06 0
vn -0.8759766 0.4821777 0
vn -0.8759766 0.4821777 0
vn -0.7265625 0.6875 0
vn -0.7265625 0.6875 0
vn 0 0 1
vn 0 0 1
vn 0 0 1
vn 0 0 1
vn 0 0 1
vn 0 0 1
vn 0 0 1
vn 0 0 1
vn 0 0 1
vn 0 0 1
vn 0 0 1
vn 0 0 1
vn -0.2724609 0.9624023 0
vn -0.2724609 0.9624023 0
vn -0.2724609 0.9624023 0
vn -0.2724609 0.9624023 0
vn 0 0 -1
vn 0 0 -1
vn 0 0 -1
vn 0 0 -1
vn 0 0 -1
vn 0 0 -1
vn 0 0 -1
vn 0 0 -1
vn 0 0 -1
vn 0 0 -1
vn 0 0 -1
vn 0 0 -1
g swat.001_0
f 3/3/3 2/2/2 1/1/1
f 4/4/4 3/3/3 1/1/1
f 7/7/7 6/6/6 5/5/5
f 6/6/6 8/8/8 5/5/5
f 6/6/6 9/9/9 8/8/8
f 9/9/9 10/10/10 8/8/8
f 9/9/9 11/11/11 10/10/10
f 11/11/11 12/12/12 10/10/10
f 11/11/11 13/13/13 12/12/12
f 13/13/13 14/14/14 12/12/12
f 17/17/17 16/16/16 15/15/15
f 18/18/18 17/17/17 15/15/15
f 21/21/21 20/20/20 19/19/19
f 22/22/22 21/21/21 19/19/19
f 25/25/25 24/24/24 23/23/23
f 24/24/24 26/26/26 23/23/23
f 24/24/24 27/27/27 26/26/26
f 27/27/27 28/28/28 26/26/26
f 27/27/27 29/29/29 28/28/28
f 29/29/29 30/30/30 28/28/28
f 29/29/29 31/31/31 30/30/30
f 31/31/31 32/32/32 30/30/30
f 35/35/35 34/34/34 33/33/33
f 33/33/33 36/36/36 35/35/35
f 36/36/36 37/37/37 35/35/35
f 36/36/36 38/38/38 37/37/37
f 38/38/38 39/39/39 37/37/37
f 38/38/38 40/40/40 39/39/39
f 40/40/40 41/41/41 39/39/39
f 40/40/40 42/42/42 41/41/41
f 42/42/42 43/43/43 41/41/41
f 42/42/42 44/44/44 43/43/43
f 47/47/47 46/46/46 45/45/45
f 48/48/48 47/47/47 45/45/45
f 51/51/51 50/50/50 49/49/49
f 49/49/49 52/52/52 51/51/51
f 52/52/52 53/53/53 51/51/51
f 52/52/52 54/54/54 53/53/53
f 54/54/54 55/55/55 53/53/53
f 54/54/54 56/56/56 55/55/55
f 56/56/56 57/57/57 55/55/55
f 56/56/56 58/58/58 57/57/57
f 58/58/58 59/59/59 57/57/57
f 58/58/58 60/60/60 59/59/59
f 63/63/63 62/62/62 61/61/61
f 64/64/64 63/63/63 61/61/61
f 67/67/67 66/66/66 65/65/65
f 66/66/66 68/68/68 65/65/65
f 66/66/66 69/69/69 68/68/68
f 69/69/69 70/70/70 68/68/68
f 69/69/69 71/71/71 70/70/70
f 71/71/71 72/72/72 70/70/70
f 71/71/71 73/73/73 72/72/72
f 73/73/73 74/74/74 72/72/72
f 77/77/77 76/76/76 75/75/75
f 78/78/78 77/77/77 75/75/75
f 81/81/81 80/80/80 79/79/79
f 82/82/82 81/81/81 79/79/79
f 85/85/85 84/84/84 83/83/83
f 84/84/84 86/86/86 83/83/83
f 84/84/84 87/87/87 86/86/86
f 87/87/87 88/88/88 86/86/86
f 87/87/87 89/89/89 88/88/88
f 89/89/89 90/90/90 88/88/88
f 89/89/89 91/91/91 90/90/90
f 91/91/91 92/92/92 90/90/90
f 95/95/95 94/94/94 93/93/93
f 93/93/93 96/96/96 95/95/95
f 96/96/96 97/97/97 95/95/95
f 96/96/96 98/98/98 97/97/97
f 98/98/98 99/99/99 97/97/97
f 98/98/98 100/100/100 99/99/99
f 100/100/100 101/101/101 99/99/99
f 100/100/100 102/102/102 101/101/101
f 100/100/100 103/103/103 102/102/102
f 103/103/103 104/104/104 102/102/102
f 107/107/107 106/106/106 105/105/105
f 108/108/108 107/107/107 105/105/105
f 111/111/111 110/110/110 109/109/109
f 109/109/109 112/112/112 111/111/111
f 112/112/112 113/113/113 111/111/111
f 112/112/112 114/114/114 113/113/113
f 114/114/114 115/115/115 113/113/113
f 114/114/114 116/116/116 115/115/115
f 116/116/116 117/117/117 115/115/115
f 116/116/116 118/118/118 117/117/117
f 118/118/118 119/119/119 117/117/117
f 118/118/118 120/120/120 119/119/119
f 123/123/123 122/122/122 121/121/121
f 124/124/124 123/123/123 121/121/121
f 127/127/127 126/126/126 125/125/125
f 126/126/126 128/128/128 125/125/125
f 126/126/126 129/129/129 128/128/128
f 129/129/129 130/130/130 128/128/128
f 129/129/129 131/131/131 130/130/130
f 131/131/131 132/132/132 130/130/130
f 131/131/131 133/133/133 132/132/132
f 133/133/133 134/134/134 132/132/132
f 137/137/137 136/136/136 135/135/135
f 138/138/138 137/137/137 135/135/135
f 141/141/141 140/140/140 139/139/139
f 142/142/142 141/141/141 139/139/139
f 145/145/145 144/144/144 143/143/143
f 144/144/144 146/146/146 143/143/143
f 144/144/144 147/147/147 146/146/146
f 147/147/147 148/148/148 146/146/146
f 147/147/147 149/149/149 148/148/148
f 149/149/149 150/150/150 148/148/148
f 149/149/149 151/151/151 150/150/150
f 151/151/151 152/152/152 150/150/150
f 155/155/155 154/154/154 153/153/153
f 153/153/153 156/156/156 155/155/155
f 156/156/156 157/157/157 155/155/155
f 156/156/156 158/158/158 157/157/157
f 158/158/158 159/159/159 157/157/157
f 158/158/158 160/160/160 159/159/159
f 160/160/160 161/161/161 159/159/159
f 160/160/160 162/162/162 161/161/161
f 162/162/162 163/163/163 161/161/161
f 162/162/162 164/164/164 163/163/163
f 167/167/167 166/166/166 165/165/165
f 168/168/168 167/167/167 165/165/165
f 171/171/171 170/170/170 169/169/169
f 169/169/169 172/172/172 171/171/171
f 172/172/172 173/173/173 171/171/171
f 172/172/172 174/174/174 173/173/173
f 174/174/174 175/175/175 173/173/173
f 174/174/174 176/176/176 175/175/175
f 176/176/176 177/177/177 175/175/175
f 176/176/176 178/178/178 177/177/177
f 178/178/178 179/179/179 177/177/177
f 178/178/178 180/180/180 179/179/179
f 183/183/183 182/182/182 181/181/181
f 184/184/184 183/183/183 181/181/181
f 187/187/187 186/186/186 185/185/185
f 186/186/186 188/188/188 185/185/185
f 186/186/186 189/189/189 188/188/188
f 189/189/189 190/190/190 188/188/188
f 189/189/189 191/191/191 190/190/190
f 191/191/191 192/192/192 190/190/190
f 191/191/191 193/193/193 192/192/192
f 193/193/193 194/194/194 192/192/192
f 197/197/197 196/196/196 195/195/195
f 198/198/198 197/197/197 195/195/195
f 201/201/201 200/200/200 199/199/199
f 202/202/202 201/201/201 199/199/199
f 205/205/205 204/204/204 203/203/203
f 204/204/204 206/206/206 203/203/203
f 204/204/204 207/207/207 206/206/206
f 207/207/207 208/208/208 206/206/206
f 207/207/207 209/209/209 208/208/208
f 209/209/209 210/210/210 208/208/208
f 209/209/209 211/211/211 210/210/210
f 211/211/211 212/212/212 210/210/210
f 215/215/215 214/214/214 213/213/213
f 213/213/213 216/216/216 215/215/215
f 216/216/216 217/217/217 215/215/215
f 216/216/216 218/218/218 217/217/217
f 218/218/218 219/219/219 217/217/217
f 218/218/218 220/220/220 219/219/219
f 220/220/220 221/221/221 219/219/219
f 220/220/220 222/222/222 221/221/221
f 222/222/222 223/223/223 221/221/221
f 222/222/222 224/224/224 223/223/223
f 227/227/227 226/226/226 225/225/225
f 228/228/228 227/227/227 225/225/225
f 231/231/231 230/230/230 229/229/229
f 229/229/229 232/232/232 231/231/231
f 232/232/232 233/233/233 231/231/231
f 232/232/232 234/234/234 233/233/233
f 234/234/234 235/235/235 233/233/233
f 234/234/234 236/236/236 235/235/235
f 236/236/236 237/237/237 235/235/235
f 236/236/236 238/238/238 237/237/237
f 238/238/238 239/239/239 237/237/237
f 238/238/238 240/240/240 239/239/239
