g swat_cell.004
v -0.008365184 0.4970789 0.04405144
v -0.008266804 0.4626408 0.04308986
v -0.01773357 0.4958592 0.05601495
v 0.1605762 -0.6610521 -0.1135572
v 0.1671539 -0.6652912 -0.08919678
v 0.1481061 -0.6522301 -0.1090892
v -0.02286779 0.2381696 0.02794124
v -0.02286705 0.2337631 0.05374658
v 0.08411419 0.2414014 -0.03912651
v -0.01271058 0.5158543 0.05524384
v -0.008365184 0.4970789 0.04405144
v -0.01773357 0.4958592 0.05601495
v 0.003883603 0.2950668 0.02387332
v 0.01235491 0.302422 0.03872619
v -0.01074052 0.320428 0.05063118
v 0.1671539 -0.6652912 -0.08919678
v 0.1605762 -0.6610521 -0.1135572
v 0.1481061 -0.6522301 -0.1090892
v 0.1046424 -0.6214842 -0.0936889
v 0.09033799 -0.6113355 -0.08842339
v 0.1676071 -0.6653162 -0.07029621
v 0.1487194 -0.6520169 -0.0675811
v 0.110577 -0.6251537 -0.0617108
v -0.02286779 -0.5303075 0.01447941
v -0.08124506 -0.4888066 0.04840047
v -0.06276711 -0.5019237 0.03889078
v -0.08124506 -0.4888066 0.04840047
v 0.09033799 -0.6113355 -0.08842339
v 0.02131158 -0.5621148 -0.04348186
v -0.01032981 -0.5395238 -0.01887706
v -0.02821558 -0.5267484 -0.004181374
v -0.04244828 -0.5166129 0.003183547
v -0.07548131 -0.493064 0.02385328
v -0.08774946 -0.4843382 0.0287056
v -0.1123756 -0.4667986 0.04182208
v -0.1321853 -0.4526996 0.05096253
v -0.109469 -0.4687153 0.06192605
v -0.167548 -0.427517 0.06925676
v -0.1535573 -0.4373268 0.08363336
v -0.2238393 -0.3876362 0.06941204
v -0.2375567 -0.3777699 0.09031183
v -0.1680901 -0.4269851 0.09011412
v -0.07272715 0.2375803 0.05297154
v -0.06133461 0.3015245 0.0566478
v -0.02286779 0.2381696 0.02794124
v -0.07856749 0.218375 0.05504791
v -0.02286779 0.2183749 0.02765495
v 0.08411419 0.2414014 -0.03912651
v 0.09734553 0.2355214 -0.05071401
v 0.1070315 0.218375 -0.0588365
v -0.07117146 0.1945112 0.05192778
v -0.02286779 0.1945049 0.02730975
v 0.110577 0.194487 -0.06171062
v 0.110577 -0.6251537 -0.0617108
v -0.02286779 -0.5303075 0.01447941
v -0.06276711 -0.5019237 0.03889078
v -0.08124506 -0.4888066 0.04840047
v -0.08586035 0.1945132 0.05767565
v -0.07856749 0.218375 0.05504791
v -0.109469 -0.4687153 0.06192605
v -0.109469 0.117797 0.06633694
v -0.1161879 0.09822599 0.06946188
v -0.109469 -0.4687153 0.06192605
v -0.1535573 -0.4373268 0.08363336
v -0.1677423 -0.05835943 0.09159499
v -0.1680901 -0.4269851 0.09011412
v -0.2375567 -0.3777699 0.09031183
v -0.04015198 0.2597957 0.01661735
v -0.04561496 0.2385295 0.01759615
v -0.02808008 0.2386916 0.008737072
v -0.02821558 -0.5267484 -0.004181374
v -0.04244828 -0.5166129 0.003183547
v -0.01032981 -0.5395238 -0.01887706
v 0.02131158 -0.5621148 -0.04348186
v 0.07817954 0.2417745 -0.07110456
v -0.07548131 -0.493064 0.02385328
v -0.07522818 0.152807 0.03152554
v 0.09033799 -0.6113355 -0.08842339
v 0.09141083 0.2358945 -0.08269211
v 0.101097 0.2187482 -0.09081461
v 0.1046424 0.1948601 -0.0936887
v 0.1046424 -0.6214842 -0.0936889
v -0.07522818 0.152807 0.03152554
v -0.105839 0.05117355 0.04214817
v -0.08774946 -0.4843382 0.0287056
v -0.1123756 -0.4667986 0.04182208
v -0.1122153 0.03350888 0.04538254
v -0.1508059 -0.08306702 0.06214265
v -0.1321853 -0.4526996 0.05096253
v -0.167548 -0.427517 0.06925676
v -0.1672884 -0.1290193 0.07041912
v -0.2238393 -0.3876362 0.06941204
v -0.06133461 0.3015245 0.0566478
v -0.06841612 0.3139999 0.06959997
v -0.02286705 0.2337631 0.05374658
v -0.02286779 0.2381696 0.02794124
v 0.1617489 0.2009685 -0.1137191
v 0.1046424 -0.6214842 -0.0936889
v 0.1481061 -0.6522301 -0.1090892
v 0.1046424 0.1948601 -0.0936887
v 0.154244 0.2432062 -0.1089154
v 0.101097 0.2187482 -0.09081461
v 0.1288254 0.284512 -0.09509565
v 0.09141083 0.2358945 -0.08269211
v 0.09035748 0.304275 -0.07405178
v 0.07817954 0.2417745 -0.07110456
v -0.003692833 0.2969645 0.004409339
v -0.02808008 0.2386916 0.008737072
v -0.01439918 0.320428 0.02657239
v -0.03813648 0.3177397 0.03087362
v -0.01128511 0.4117961 0.02300766
v -0.04015198 0.2597957 0.01661735
v 0.09367752 0.304569 -0.05289578
v 0.09640461 0.3036044 -0.0376831
v 0.01235491 0.302422 0.03872619
v 0.003883603 0.2950668 0.02387332
v 0.1323164 0.2870211 -0.07174854
v 0.1288254 0.284512 -0.09509565
v 0.154244 0.2432062 -0.1089154
v 0.1608677 0.2439712 -0.08522568
v 0.1617489 0.2009685 -0.1137191
v 0.1689336 0.2006543 -0.08964346
v 0.1611133 0.244142 -0.06680914
v 0.1481061 -0.6522301 -0.1090892
v 0.169389 0.2003913 -0.07063911
v 0.1671539 -0.6652912 -0.08919678
v 0.1676071 -0.6653162 -0.07029621
v 0.09367752 0.304569 -0.05289578
v 0.09035748 0.304275 -0.07405178
v 0.1288254 0.284512 -0.09509565
v 0.1323164 0.2870211 -0.07174854
v 0.09640461 0.3036044 -0.0376831
v 0.1309417 0.2881266 -0.0551905
v -0.01074052 0.320428 0.05063118
v -0.01439918 0.320428 0.02657239
v -0.003692833 0.2969645 0.004409339
v 0.003883603 0.2950668 0.02387332
v 0.003883603 0.2950668 0.02387332
v -0.003692833 0.2969645 0.004409339
v 0.09035748 0.304275 -0.07405178
v 0.09367752 0.304569 -0.05289578
v -0.008266804 0.4626408 0.04308986
v -0.01128511 0.4117961 0.02300766
v -0.01439918 0.320428 0.02657239
v -0.01074052 0.320428 0.05063118
v -0.02722519 0.4613704 0.05843334
v -0.01773357 0.4958592 0.05601495
v -0.008266804 0.4626408 0.04308986
v -0.01074052 0.320428 0.05063118
v -0.04203532 0.3932149 0.05802246
v -0.06841612 0.3139999 0.06959997
v -0.02286705 0.2337631 0.05374658
v 0.01235491 0.302422 0.03872619
v 0.09640461 0.3036044 -0.0376831
v 0.08411419 0.2414014 -0.03912651
v 0.1309417 0.2881266 -0.0551905
v 0.09734553 0.2355214 -0.05071401
v 0.1611133 0.244142 -0.06680914
v 0.1070315 0.218375 -0.0588365
v 0.169389 0.2003913 -0.07063911
v 0.110577 0.194487 -0.06171062
v 0.1676071 -0.6653162 -0.07029621
v 0.1487194 -0.6520169 -0.0675811
v 0.110577 -0.6251537 -0.0617108
v 0.1608677 0.2439712 -0.08522568
v 0.1611133 0.244142 -0.06680914
v 0.1309417 0.2881266 -0.0551905
v 0.1323164 0.2870211 -0.07174854
v -0.2375567 -0.3777699 0.09031183
v -0.2238393 -0.3876362 0.06941204
v -0.1672884 -0.1290193 0.07041912
v -0.1677423 -0.05835943 0.09159499
v -0.1508059 -0.08306702 0.06214265
v -0.1122153 0.03350888 0.04538254
v -0.1122153 0.03350888 0.04538254
v -0.1161879 0.09822599 0.06946188
v -0.1677423 -0.05835943 0.09159499
v -0.105839 0.05117355 0.04214817
v -0.07522818 0.152807 0.03152554
v -0.07522818 0.152807 0.03152554
v -0.109469 0.117797 0.06633694
v -0.1161879 0.09822599 0.06946188
v -0.08586035 0.1945132 0.05767565
v -0.04561496 0.2385295 0.01759615
v -0.07856749 0.218375 0.05504791
v -0.07272715 0.2375803 0.05297154
v -0.06133461 0.3015245 0.0566478
v -0.04015198 0.2597957 0.01661735
v -0.03813648 0.3177397 0.03087362
v -0.06841612 0.3139999 0.06959997
v -0.04203532 0.3932149 0.05802246
v -0.01128511 0.4117961 0.02300766
v -0.02722519 0.4613704 0.05843334
v -0.008266804 0.4626408 0.04308986
v -0.01773357 0.4958592 0.05601495
v -0.008365184 0.4970789 0.04405144
v -0.01271058 0.5158543 0.05524384
vt 0.2841797 0.578125
vt 0.2841797 0.5732422
vt 0.2841797 0.578125
vt 0.3100586 0.4116211
vt 0.3110352 0.4108887
vt 0.3100586 0.4125977
vt 0.2585449 0.5292969
vt 0.2585449 0.5288086
vt 0.2749023 0.5297852
vt 0.2836914 0.5810547
vt 0.2841797 0.578125
vt 0.2841797 0.578125
vt 0.2861328 0.5493164
vt 0.2873535 0.550293
vt 0.2839355 0.5527344
vt 0.6977539 0.411377
vt 0.6948242 0.394043
vt 0.6889648 0.3908691
vt 0.6689453 0.380127
vt 0.6665039 0.3786621
vt 0.6977539 0.4226074
vt 0.6894531 0.4155273
vt 0.6699219 0.3937988
vt 0.6108398 0.3852539
vt 0.5839844 0.3786621
vt 0.5922852 0.3813477
vt 0.5839844 0.4992676
vt 0.6665039 0.581543
vt 0.6381836 0.5385742
vt 0.6235352 0.5244141
vt 0.6147461 0.5166016
vt 0.6103516 0.5078125
vt 0.5986328 0.489502
vt 0.5957031 0.480957
vt 0.5878906 0.4660645
vt 0.5825195 0.453125
vt 0.5761719 0.4812012
vt 0.5717773 0.4311523
vt 0.5634766 0.453125
vt 0.5712891 0.3786621
vt 0.559082 0.3786621
vt 0.5595703 0.4436035
vt 0.317627 0.8808594
vt 0.3198242 0.8901367
vt 0.3249512 0.8808594
vt 0.317627 0.8779297
vt 0.3249512 0.8779297
vt 0.3413086 0.8813477
vt 0.3432617 0.8803711
vt 0.3447266 0.8779297
vt 0.317627 0.8745117
vt 0.3249512 0.8745117
vt 0.345459 0.8745117
vt 0.345459 0.7563477
vt 0.3249512 0.7700195
vt 0.3188477 0.7744141
vt 0.317627 0.7753906
vt 0.3154297 0.8745117
vt 0.3166504 0.8779297
vt 0.3129883 0.7783203
vt 0.3117676 0.8637695
vt 0.310791 0.8608398
vt 0.3117676 0.7792969
vt 0.3051758 0.7836914
vt 0.3029785 0.8383789
vt 0.3029785 0.7851563
vt 0.2924805 0.7919922
vt 0.3225098 0.8842773
vt 0.3215332 0.8808594
vt 0.3242188 0.8808594
vt 0.3242188 0.7709961
vt 0.3220215 0.7719727
vt 0.3271484 0.769043
vt 0.3320313 0.765625
vt 0.340332 0.8813477
vt 0.3171387 0.7753906
vt 0.317627 0.8696289
vt 0.3425293 0.7587891
vt 0.3425293 0.8803711
vt 0.3439941 0.8779297
vt 0.3444824 0.8745117
vt 0.3444824 0.7573242
vt 0.3171387 0.8686523
vt 0.3125 0.8540039
vt 0.3151855 0.7768555
vt 0.3115234 0.7792969
vt 0.3115234 0.8515625
vt 0.3056641 0.8344727
vt 0.3083496 0.78125
vt 0.3029785 0.7851563
vt 0.3029785 0.828125
vt 0.2944336 0.7910156
vt 0.253418 0.5385742
vt 0.251709 0.5410156
vt 0.2585449 0.5288086
vt 0.2585449 0.5292969
vt 0.3100586 0.5356445
vt 0.3015137 0.4172363
vt 0.3081055 0.4128418
vt 0.3015137 0.534668
vt 0.309082 0.5419922
vt 0.3010254 0.5380859
vt 0.3051758 0.5478516
vt 0.2995605 0.5405273
vt 0.2993164 0.5507813
vt 0.2973633 0.5415039
vt 0.2849121 0.5493164
vt 0.28125 0.5410156
vt 0.2834473 0.5527344
vt 0.2797852 0.5527344
vt 0.2839355 0.565918
vt 0.279541 0.5444336
vt 0.2998047 0.5507813
vt 0.300293 0.550293
vt 0.2873535 0.550293
vt 0.2861328 0.5493164
vt 0.3056641 0.5478516
vt 0.3051758 0.5478516
vt 0.309082 0.5419922
vt 0.3100586 0.5419922
vt 0.3100586 0.5356445
vt 0.3112793 0.5356445
vt 0.3100586 0.5419922
vt 0.3100586 0.4125977
vt 0.3112793 0.5356445
vt 0.3112793 0.4125977
vt 0.3112793 0.4125977
vt 0.2998047 0.5507813
vt 0.2993164 0.5507813
vt 0.3051758 0.5478516
vt 0.3056641 0.5478516
vt 0.300293 0.550293
vt 0.3054199 0.5483398
vt 0.2839355 0.5527344
vt 0.2834473 0.5527344
vt 0.2849121 0.5493164
vt 0.2861328 0.5493164
vt 0.2861328 0.5493164
vt 0.2849121 0.5493164
vt 0.2993164 0.5507813
vt 0.2998047 0.5507813
vt 0.2841797 0.5732422
vt 0.2839355 0.565918
vt 0.2834473 0.5527344
vt 0.2839355 0.5527344
vt 0.2814941 0.5732422
vt 0.282959 0.578125
vt 0.2841797 0.5732422
vt 0.2839355 0.5527344
vt 0.2792969 0.5639648
vt 0.2751465 0.5527344
vt 0.2819824 0.5405273
vt 0.2873535 0.550293
vt 0.300293 0.550293
vt 0.2983398 0.5415039
vt 0.3054199 0.5483398
vt 0.300293 0.5405273
vt 0.3100586 0.5419922
vt 0.3017578 0.5380859
vt 0.3112793 0.5356445
vt 0.3024902 0.534668
vt 0.3112793 0.4125977
vt 0.3081055 0.4128418
vt 0.3024902 0.416748
vt 0.3100586 0.5419922
vt 0.3100586 0.5419922
vt 0.3054199 0.5483398
vt 0.3056641 0.5478516
vt 0.6713867 0.3786621
vt 0.6591797 0.3786621
vt 0.7207031 0.4399414
vt 0.7475586 0.4543457
vt 0.7280273 0.4519043
vt 0.7475586 0.4814453
vt 0.7475586 0.4814453
vt 0.5805664 0.4868164
vt 0.7475586 0.4543457
vt 0.7504883 0.486084
vt 0.5966797 0.5092773
vt 0.5966797 0.5092773
vt 0.5864258 0.4887695
vt 0.5805664 0.4868164
vt 0.6088867 0.4938965
vt 0.621582 0.5175781
vt 0.6157227 0.4953613
vt 0.6240234 0.4968262
vt 0.6401367 0.4946289
vt 0.6279297 0.5180664
vt 0.6450195 0.5097656
vt 0.6445313 0.4865723
vt 0.6669922 0.4938965
vt 0.6723633 0.5141602
vt 0.6894531 0.4941406
vt 0.6875 0.5078125
vt 0.6972656 0.4951172
vt 0.6953125 0.503418
vt 0.703125 0.4956055
vn 0.7885742 -0.08233643 0.609375
vn 0.5380859 -0.04248047 0.8417969
vn 0.7573242 -0.1032104 0.6445313
vn 0.5742188 0.8183594 -0.01269531
vn 0.5742188 0.8183594 -0.01269531
vn 0.5742188 0.8183594 -0.01269531
vn -0.07550049 -0.9829102 -0.1678467
vn -0.07550049 -0.9829102 -0.1678467
vn -0.07550049 -0.9829102 -0.1678467
vn 0.7836914 -0.1739502 0.5961914
vn 0.7885742 -0.08233643 0.609375
vn 0.7573242 -0.1032104 0.6445313
vn 0.3115234 0.769043 -0.5585938
vn 0.3115234 0.769043 -0.5585938
vn 0.3115234 0.769043 -0.5585938
vn -0.574707 -0.8183594 0.01235962
vn -0.574707 -0.8183594 0.01235962
vn -0.574707 -0.8183594 0.01235962
vn -0.574707 -0.8183594 0.01235962
vn -0.574707 -0.8183594 0.01216125
vn -0.574707 -0.8183594 0.01235962
vn -0.574707 -0.8183594 0.01235962
vn -0.574707 -0.8183594 0.01235962
vn -0.574707 -0.8183594 0.01235962
vn -0.5776367 -0.815918 0.006164551
vn -0.574707 -0.8183594 0.01235962
vn -0.5776367 -0.815918 0.006164551
vn -0.574707 -0.8183594 0.01216125
vn -0.578125 -0.815918 0.005786896
vn -0.578125 -0.815918 0.005786896
vn -0.578125 -0.815918 0.005786896
vn -0.578125 -0.815918 0.005786896
vn -0.578125 -0.815918 0.005786896
vn -0.578125 -0.815918 0.005786896
vn -0.578125 -0.815918 0.005786896
vn -0.578125 -0.815918 0.005786896
vn -0.578125 -0.815918 0.005786896
vn -0.578125 -0.815918 0.005786896
vn -0.578125 -0.815918 0.005786896
vn -0.578125 -0.815918 0.005786896
vn -0.578125 -0.815918 0.005786896
vn -0.578125 -0.815918 0.005786896
vn 0.4460449 -0.07073975 0.8920898
vn 0.4460449 -0.1303711 0.8852539
vn 0.4858398 -0.07684326 0.8706055
vn 0.4296875 -0.01028442 0.902832
vn 0.4997559 -0.03295898 0.8657227
vn 0.5566406 -0.1331787 0.8203125
vn 0.4355469 -0.12854 0.8911133
vn 0.3654785 -0.07788086 0.9277344
vn 0.425293 -0.005844116 0.9047852
vn 0.5014648 -0.007640839 0.8652344
vn 0.3449707 -0.02345276 0.9384766
vn 0.2736816 -0.002313614 0.9619141
vn 0.5092773 -0.008918762 0.8603516
vn 0.4772949 -0.01277924 0.878418
vn 0.4504395 -0.01151276 0.8925781
vn 0.3815918 -0.00881958 0.9243164
vn 0.4296875 -0.01028442 0.902832
vn 0.4020996 -0.00775528 0.9155273
vn 0.3962402 -0.00843811 0.9179688
vn 0.4221191 -0.005458832 0.9067383
vn 0.4020996 -0.00775528 0.9155273
vn 0.4221191 -0.005458832 0.9067383
vn 0.3945313 -0.005390167 0.9189453
vn 0.2980957 -0.005119324 0.9545898
vn 0 -0.004016876 1
vn -0.4414063 0.2163086 -0.8710938
vn -0.4672852 0.03826904 -0.8833008
vn -0.5239258 0.08569336 -0.8476563
vn -0.5493164 0.01230621 -0.8354492
vn -0.4785156 0.0135498 -0.8779297
vn -0.5820313 0.0116806 -0.8129883
vn -0.5820313 0.0116806 -0.8129883
vn -0.5703125 0.07293701 -0.8183594
vn -0.4550781 0.01222992 -0.890625
vn -0.4709473 0.01312256 -0.8818359
vn -0.5820313 0.0116806 -0.8129883
vn -0.5024414 0.0670166 -0.8618164
vn -0.4631348 0.05044556 -0.8847656
vn -0.4562988 0.01947021 -0.8896484
vn -0.4140625 0.003755569 -0.9101563
vn -0.4709473 0.01312256 -0.8818359
vn -0.4030762 0.009361267 -0.9150391
vn -0.4030762 0.009361267 -0.9150391
vn -0.4123535 0.008132935 -0.9111328
vn -0.40625 0.008926392 -0.9135742
vn -0.432373 0.005496979 -0.9018555
vn -0.432373 0.005496979 -0.9018555
vn -0.3051758 0.005111694 -0.9521484
vn -0.4038086 0.00541687 -0.9150391
vn 3.576279E-07 0.003894806 -1
vn -0.8691406 -0.4909668 -0.05657959
vn -0.8691406 -0.4909668 -0.05657959
vn -0.8691406 -0.4909668 -0.05657959
vn -0.8691406 -0.4909668 -0.05657959
vn -0.3359375 0.02636719 -0.9414063
vn -0.4140625 0.003755569 -0.9101563
vn -0.3322754 9.959936E-05 -0.9433594
vn -0.4562988 0.01947021 -0.8896484
vn -0.3669434 0.07965088 -0.9267578
vn -0.4631348 0.05044556 -0.8847656
vn -0.4453125 0.1040649 -0.8891602
vn -0.5024414 0.0670166 -0.8618164
vn -0.5581055 0.1213989 -0.8208008
vn -0.5703125 0.07293701 -0.8183594
vn -0.5292969 0.2034912 -0.8237305
vn -0.5239258 0.08569336 -0.8476563
vn -0.3198242 0.1251221 -0.9389648
vn -0.3354492 0.1428223 -0.9311523
vn -0.1746826 -0.03244019 -0.9838867
vn -0.4414063 0.2163086 -0.8710938
vn 0.1541748 0.9873047 -0.03683472
vn -0.182251 0.9731445 -0.1390381
vn -0.182251 0.9731445 -0.1390381
vn -0.126709 0.9902344 -0.05953979
vn 0.8188477 0.5678711 -0.08178711
vn 0.7915039 0.5742188 -0.210083
vn 0.890625 0.3806152 -0.2497559
vn 0.9130859 0.3859863 -0.1309814
vn 0.9111328 0.0960083 -0.4008789
vn 0.9711914 0.09588623 -0.2174072
vn 0.9174805 0.3977051 -0.004711151
vn 0.8574219 -0.009208679 -0.5146484
vn 0.9951172 0.09399414 -0.02101135
vn 0.9716797 -0.005222321 -0.2365723
vn 0.9995117 -0.002067566 -0.02398682
vn 0.1541748 0.9873047 -0.03683472
vn 0.2370605 0.9697266 -0.05831909
vn 0.3833008 0.9165039 -0.116333
vn 0.3903809 0.9169922 -0.08251953
vn 0.4025879 0.9150391 -0.02119446
vn 0.4025879 0.9150391 -0.02119446
vn 0.7890625 0.5878906 -0.1781006
vn 0.7890625 0.5878906 -0.1781006
vn 0.7890625 0.5878906 -0.1781006
vn 0.7890625 0.5878906 -0.1781006
vn -0.126709 0.9902344 -0.05953979
vn -0.04727173 0.9975586 0.05206299
vn 0.2370605 0.9697266 -0.05831909
vn 0.1541748 0.9873047 -0.03683472
vn 0.9926758 -0.02928162 -0.1164551
vn 0.9926758 -0.02928162 -0.1164551
vn 0.9926758 -0.02928162 -0.1164551
vn 0.9926758 -0.02928162 -0.1164551
vn 0.4831543 -0.04226685 0.8745117
vn 0.7573242 -0.1032104 0.6445313
vn 0.5380859 -0.04248047 0.8417969
vn 0.3701172 -0.005340576 0.9287109
vn 0.3676758 0.01354218 0.9296875
vn 0.3405762 0.001825333 0.9404297
vn 0.5170898 -0.09100342 0.8510742
vn 0.5673828 -0.104248 0.8168945
vn 0.565918 -0.1630859 0.8081055
vn 0.5566406 -0.1331787 0.8203125
vn 0.3703613 -0.1517334 0.9165039
vn 0.4355469 -0.12854 0.8911133
vn 0.2147217 -0.1047363 0.9711914
vn 0.3654785 -0.07788086 0.9277344
vn 0.1580811 -0.03427124 0.9868164
vn 0.3449707 -0.02345276 0.9384766
vn 0.1494141 -3.105402E-05 0.9887695
vn 0.1494141 -3.105402E-05 0.9887695
vn 0.2736816 -0.002313614 0.9619141
vn 0.9130859 0.3859863 -0.1309814
vn 0.9174805 0.3977051 -0.004711151
vn 0.8295898 0.5581055 0.006427765
vn 0.8188477 0.5678711 -0.08178711
vn -0.7792969 0.1750488 -0.6020508
vn -0.7792969 0.1750488 -0.6020508
vn -0.7792969 0.1750488 -0.6020508
vn -0.7792969 0.1750488 -0.6020508
vn -0.7792969 0.1750488 -0.6020508
vn -0.7792969 0.1750488 -0.6020508
vn -0.7792969 0.1750488 -0.6020508
vn -0.7792969 0.1750488 -0.6020508
vn -0.7792969 0.1750488 -0.6020508
vn -0.7792969 0.1750488 -0.6020508
vn -0.7792969 0.1750488 -0.6020508
vn -0.7792969 0.1750488 -0.6020508
vn -0.7792969 0.1750488 -0.6020508
vn -0.7792969 0.1750488 -0.6020508
vn -0.7792969 0.1750488 -0.6020508
vn -0.7792969 0.1750488 -0.6020508
vn -0.7792969 0.1750488 -0.6020508
vn -0.7792969 0.1750488 -0.6020508
vn -0.7792969 0.1750488 -0.6020508
vn -0.7792969 0.1750488 -0.6020508
vn -0.7792969 0.1750488 -0.6020508
vn -0.7792969 0.1750488 -0.6020508
vn -0.7792969 0.1750488 -0.6020508
vn -0.7792969 0.1750488 -0.6020508
vn -0.7792969 0.1750488 -0.6020508
vn -0.7792969 0.1750488 -0.6020508
vn -0.7792969 0.1750488 -0.6020508
vn -0.7792969 0.1750488 -0.6020508
vn -0.7792969 0.1750488 -0.6020508
g swat_cell.004_0
f 3/3/3 2/2/2 1/1/1
f 6/6/6 5/5/5 4/4/4
f 9/9/9 8/8/8 7/7/7
f 12/12/12 11/11/11 10/10/10
f 15/15/15 14/14/14 13/13/13
f 18/18/18 17/17/17 16/16/16
f 16/16/16 19/19/19 18/18/18
f 16/16/16 20/20/20 19/19/19
f 16/16/16 21/21/21 20/20/20
f 21/21/21 22/22/22 20/20/20
f 22/22/22 23/23/23 20/20/20
f 23/23/23 24/24/24 20/20/20
f 24/24/24 25/25/25 20/20/20
f 24/24/24 26/26/26 25/25/25
f 29/29/29 28/28/28 27/27/27
f 27/27/27 30/30/30 29/29/29
f 27/27/27 31/31/31 30/30/30
f 27/27/27 32/32/32 31/31/31
f 27/27/27 33/33/33 32/32/32
f 27/27/27 34/34/34 33/33/33
f 27/27/27 35/35/35 34/34/34
f 27/27/27 36/36/36 35/35/35
f 27/27/27 37/37/37 36/36/36
f 37/37/37 38/38/38 36/36/36
f 37/37/37 39/39/39 38/38/38
f 39/39/39 40/40/40 38/38/38
f 39/39/39 41/41/41 40/40/40
f 39/39/39 42/42/42 41/41/41
f 45/45/45 44/44/44 43/43/43
f 45/45/45 43/43/43 46/46/46
f 47/47/47 45/45/45 46/46/46
f 48/48/48 45/45/45 47/47/47
f 49/49/49 48/48/48 47/47/47
f 47/47/47 50/50/50 49/49/49
f 47/47/47 46/46/46 51/51/51
f 47/47/47 52/52/52 50/50/50
f 52/52/52 47/47/47 51/51/51
f 52/52/52 53/53/53 50/50/50
f 53/53/53 52/52/52 54/54/54
f 52/52/52 55/55/55 54/54/54
f 55/55/55 52/52/52 51/51/51
f 51/51/51 56/56/56 55/55/55
f 51/51/51 57/57/57 56/56/56
f 57/57/57 51/51/51 58/58/58
f 59/59/59 58/58/58 51/51/51
f 58/58/58 60/60/60 57/57/57
f 58/58/58 61/61/61 60/60/60
f 63/63/63 61/61/61 62/62/62
f 62/62/62 64/64/64 63/63/63
f 62/62/62 65/65/65 64/64/64
f 65/65/65 66/66/66 64/64/64
f 65/65/65 67/67/67 66/66/66
f 70/70/70 69/69/69 68/68/68
f 69/69/69 70/70/70 71/71/71
f 71/71/71 72/72/72 69/69/69
f 73/73/73 71/71/71 70/70/70
f 74/74/74 73/73/73 70/70/70
f 74/74/74 70/70/70 75/75/75
f 72/72/72 76/76/76 69/69/69
f 76/76/76 77/77/77 69/69/69
f 78/78/78 74/74/74 75/75/75
f 78/78/78 75/75/75 79/79/79
f 78/78/78 79/79/79 80/80/80
f 78/78/78 80/80/80 81/81/81
f 81/81/81 82/82/82 78/78/78
f 84/84/84 83/83/83 76/76/76
f 76/76/76 85/85/85 84/84/84
f 85/85/85 86/86/86 84/84/84
f 86/86/86 87/87/87 84/84/84
f 88/88/88 87/87/87 86/86/86
f 86/86/86 89/89/89 88/88/88
f 89/89/89 90/90/90 88/88/88
f 90/90/90 91/91/91 88/88/88
f 92/92/92 91/91/91 90/90/90
f 95/95/95 94/94/94 93/93/93
f 96/96/96 95/95/95 93/93/93
f 99/99/99 98/98/98 97/97/97
f 98/98/98 100/100/100 97/97/97
f 101/101/101 97/97/97 100/100/100
f 102/102/102 101/101/101 100/100/100
f 103/103/103 101/101/101 102/102/102
f 104/104/104 103/103/103 102/102/102
f 105/105/105 103/103/103 104/104/104
f 106/106/106 105/105/105 104/104/104
f 107/107/107 105/105/105 106/106/106
f 108/108/108 107/107/107 106/106/106
f 109/109/109 107/107/107 108/108/108
f 108/108/108 110/110/110 109/109/109
f 110/110/110 111/111/111 109/109/109
f 108/108/108 112/112/112 110/110/110
f 115/115/115 114/114/114 113/113/113
f 116/116/116 115/115/115 113/113/113
f 119/119/119 118/118/118 117/117/117
f 120/120/120 119/119/119 117/117/117
f 121/121/121 119/119/119 120/120/120
f 122/122/122 121/121/121 120/120/120
f 120/120/120 123/123/123 122/122/122
f 124/124/124 121/121/121 122/122/122
f 123/123/123 125/125/125 122/122/122
f 126/126/126 124/124/124 122/122/122
f 122/122/122 125/125/125 126/126/126
f 125/125/125 127/127/127 126/126/126
f 130/130/130 129/129/129 128/128/128
f 131/131/131 130/130/130 128/128/128
f 128/128/128 132/132/132 131/131/131
f 132/132/132 133/133/133 131/131/131
f 136/136/136 135/135/135 134/134/134
f 137/137/137 136/136/136 134/134/134
f 140/140/140 139/139/139 138/138/138
f 141/141/141 140/140/140 138/138/138
f 144/144/144 143/143/143 142/142/142
f 145/145/145 144/144/144 142/142/142
f 148/148/148 147/147/147 146/146/146
f 149/149/149 148/148/148 146/146/146
f 146/146/146 150/150/150 149/149/149
f 150/150/150 151/151/151 149/149/149
f 152/152/152 149/149/149 151/151/151
f 152/152/152 153/153/153 149/149/149
f 154/154/154 153/153/153 152/152/152
f 155/155/155 154/154/154 152/152/152
f 156/156/156 154/154/154 155/155/155
f 157/157/157 156/156/156 155/155/155
f 158/158/158 156/156/156 157/157/157
f 159/159/159 158/158/158 157/157/157
f 160/160/160 158/158/158 159/159/159
f 161/161/161 160/160/160 159/159/159
f 162/162/162 160/160/160 161/161/161
f 161/161/161 163/163/163 162/162/162
f 161/161/161 164/164/164 163/163/163
f 167/167/167 166/166/166 165/165/165
f 168/168/168 167/167/167 165/165/165
f 171/171/171 170/170/170 169/169/169
f 169/169/169 172/172/172 171/171/171
f 172/172/172 173/173/173 171/171/171
f 172/172/172 174/174/174 173/173/173
f 177/177/177 176/176/176 175/175/175
f 176/176/176 178/178/178 175/175/175
f 176/176/176 179/179/179 178/178/178
f 182/182/182 181/181/181 180/180/180
f 181/181/181 183/183/183 180/180/180
f 183/183/183 184/184/184 180/180/180
f 183/183/183 185/185/185 184/184/184
f 185/185/185 186/186/186 184/184/184
f 186/186/186 187/187/187 184/184/184
f 187/187/187 188/188/188 184/184/184
f 187/187/187 189/189/189 188/188/188
f 187/187/187 190/190/190 189/189/189
f 190/190/190 191/191/191 189/189/189
f 191/191/191 192/192/192 189/189/189
f 191/191/191 193/193/193 192/192/192
f 193/193/193 194/194/194 192/192/192
f 193/193/193 195/195/195 194/194/194
f 195/195/195 196/196/196 194/194/194
f 195/195/195 197/197/197 196/196/196
