g wall__sh_17
v 0.1132896 0.6270721 0.2057152
v -0.1481724 0.1294482 -0.1481834
v -0.4582723 -0.3202287 0.2057152
v -0.4553899 -0.3237317 0.160126
v -0.04004192 -0.6240896 0.2057152
v -0.05474305 -0.6193532 0.013345
v 0.1816065 -0.6270722 0.2057152
v -0.0004620552 -0.6193423 -0.01807684
v 0.2601254 0.5624943 0.2057152
v 0.4582722 -0.1810629 0.2057152
v -0.0204587 0.3431642 -0.1369252
v 0.06078863 0.4821641 -0.1130238
v -0.09411192 0.1098042 -0.1738183
v 0.1097136 -0.1891539 -0.2057152
v 0.06303692 0.4811614 -0.1130501
v 0.1674609 -0.1143477 -0.1921294
v 0.1132896 0.6270721 0.2057152
v 0.1132896 0.6270721 0.2057152
v 0.1132896 0.6270721 0.2057152
v 0.1132896 0.6270721 0.2057152
v -0.1481724 0.1294482 -0.1481834
v -0.1481724 0.1294482 -0.1481834
v -0.1481724 0.1294482 -0.1481834
v -0.1481724 0.1294482 -0.1481834
v -0.1481724 0.1294482 -0.1481834
v -0.4582723 -0.3202287 0.2057152
v -0.4582723 -0.3202287 0.2057152
v -0.4582723 -0.3202287 0.2057152
v -0.4582723 -0.3202287 0.2057152
v -0.4582723 -0.3202287 0.2057152
v -0.4582723 -0.3202287 0.2057152
v -0.4553899 -0.3237317 0.160126
v -0.4553899 -0.3237317 0.160126
v -0.4553899 -0.3237317 0.160126
v -0.04004192 -0.6240896 0.2057152
v -0.04004192 -0.6240896 0.2057152
v -0.04004192 -0.6240896 0.2057152
v -0.05474305 -0.6193532 0.013345
v -0.05474305 -0.6193532 0.013345
v -0.05474305 -0.6193532 0.013345
v -0.05474305 -0.6193532 0.013345
v -0.05474305 -0.6193532 0.013345
v -0.05474305 -0.6193532 0.013345
v 0.1816065 -0.6270722 0.2057152
v 0.1816065 -0.6270722 0.2057152
v 0.1816065 -0.6270722 0.2057152
v 0.1816065 -0.6270722 0.2057152
v 0.1816065 -0.6270722 0.2057152
v -0.0004620552 -0.6193423 -0.01807684
v -0.0004620552 -0.6193423 -0.01807684
v 0.2601254 0.5624943 0.2057152
v 0.2601254 0.5624943 0.2057152
v 0.2601254 0.5624943 0.2057152
v 0.2601254 0.5624943 0.2057152
v 0.2601254 0.5624943 0.2057152
v 0.4582722 -0.1810629 0.2057152
v 0.4582722 -0.1810629 0.2057152
v 0.4582722 -0.1810629 0.2057152
v 0.4582722 -0.1810629 0.2057152
v -0.0204587 0.3431642 -0.1369252
v -0.0204587 0.3431642 -0.1369252
v -0.0204587 0.3431642 -0.1369252
v -0.0204587 0.3431642 -0.1369252
v 0.06078863 0.4821641 -0.1130238
v 0.06078863 0.4821641 -0.1130238
v 0.06078863 0.4821641 -0.1130238
v -0.09411192 0.1098042 -0.1738183
v -0.09411192 0.1098042 -0.1738183
v -0.09411192 0.1098042 -0.1738183
v -0.09411192 0.1098042 -0.1738183
v -0.09411192 0.1098042 -0.1738183
v 0.1097136 -0.1891539 -0.2057152
v 0.1097136 -0.1891539 -0.2057152
v 0.1097136 -0.1891539 -0.2057152
v 0.1097136 -0.1891539 -0.2057152
v 0.1097136 -0.1891539 -0.2057152
v 0.06303692 0.4811614 -0.1130501
v 0.06303692 0.4811614 -0.1130501
v 0.06303692 0.4811614 -0.1130501
v 0.06303692 0.4811614 -0.1130501
v 0.1674609 -0.1143477 -0.1921294
v 0.1674609 -0.1143477 -0.1921294
v 0.1674609 -0.1143477 -0.1921294
v 0.1674609 -0.1143477 -0.1921294
vt 0.7207105 0.2625934
vt 0.5943137 0.172703
vt 0.4800956 0.2625934
vt 0.4792059 0.2510138
vt -0.5498585 0.2625934
vt -0.5461245 0.2137313
vt -0.6061574 0.2625934
vt -0.5599118 0.2057501
vt 0.9439635 0.565863
vt 0.9796517 0.4153686
vt 0.6485978 0.1755626
vt 0.5754696 0.1816335
vt 0.5361247 0.5893242
vt 0.5878965 0.5133887
vt 0.5760406 0.1816268
vt -0.5323895 0.1615407
vt 0.9175169 0.5789335
vt 0.7207105 0.2625934
vt 0.5888048 0.2625934
vt 0.7207105 0.2625934
vt 0.5943137 0.172703
vt 0.5223933 0.5943137
vt 0.5943137 0.172703
vt 0.5223933 0.5943137
vt 0.5223933 0.5943137
vt 0.4800956 0.2625934
vt -0.4436278 0.2625934
vt 0.814573 0.3872018
vt 0.814573 0.3872018
vt 0.814573 0.3872018
vt 0.814573 0.3872018
vt -0.44436 0.2510138
vt -0.44436 0.2510138
vt 0.44436 0.4792058
vt -0.5498585 0.2625934
vt -0.5498585 0.2625934
vt 0.8899004 0.325701
vt -0.5461245 0.2137313
vt 0.5461245 0.4041178
vt -0.5461245 0.2137313
vt 0.5461245 0.4041178
vt 0.5461245 0.4041178
vt 0.5461245 0.4041178
vt 0.9298215 0.3250973
vt -0.6061574 0.2625934
vt 0.9298215 0.3250973
vt -0.4021572 0.2625934
vt -0.4021572 0.2625934
vt 0.5599118 0.4041206
vt -0.4041206 0.2057501
vt 0.9439635 0.565863
vt 0.6261012 0.2625934
vt 0.6261012 0.2625934
vt -0.7043077 0.2625934
vt -0.7043077 0.2625934
vt 0.9796517 0.4153686
vt -0.5154438 0.2625934
vt -0.5154438 0.2625934
vt -0.5154438 0.2625934
vt 0.5548327 0.6485978
vt 0.6485978 0.1755626
vt 0.5548327 0.6485978
vt 0.5548327 0.6485978
vt 0.5754696 0.1816335
vt 0.6839038 0.1816336
vt 0.5754696 0.6839038
vt 0.5361247 0.5893242
vt 0.5361247 0.5893242
vt 0.5361247 0.5893242
vt 0.5361247 0.5893242
vt 0.5361247 0.5893242
vt -0.5133887 0.1580899
vt 0.5878965 0.5133887
vt -0.5133887 0.1580899
vt -0.5133887 0.1580899
vt 0.5878965 0.5133887
vt -0.6836491 0.1816269
vt 0.5760406 0.6836491
vt 0.5760406 0.6836491
vt 0.5760406 0.6836491
vt -0.5323895 0.1615407
vt -0.5323895 0.1615407
vt 0.6025644 0.5323895
vt 0.6025644 0.5323895
vn -0.852477 0.5143492 -0.09342267
vn -0.8524767 0.5143501 -0.09342119
vn -0.8524767 0.5143501 -0.09342119
vn -0.8524767 0.5143501 -0.09342119
vn -0.5876001 -0.8087655 0.02499125
vn -0.5876001 -0.8087655 0.02499206
vn -0.01345156 -0.9996313 -0.02358433
vn -0.01345215 -0.9996313 -0.02358361
vn 0 0 1
vn 0 0 1
vn -0.8524768 0.5143495 -0.09342317
vn 0.3625869 0.8244432 -0.434539
vn -0.4860865 -0.2418063 -0.8397915
vn -0.4860852 -0.2418068 -0.839792
vn 0.3626211 0.8244199 -0.4345548
vn 0.8053018 0.2146008 -0.5526622
vn 0 0 1
vn -0.8524768 0.5143495 -0.09342317
vn 0.3625869 0.8244432 -0.434539
vn -0.8524774 0.5143487 -0.09342231
vn -0.852477 0.5143492 -0.09342267
vn -0.4860857 -0.2418063 -0.8397919
vn -0.8524768 0.5143495 -0.09342317
vn -0.4860865 -0.2418063 -0.8397915
vn -0.3390375 0.250375 -0.906844
vn -0.852477 0.5143492 -0.09342267
vn -0.5876001 -0.8087655 0.02499125
vn 0 0 1
vn 0 0 1
vn 0 0 1
vn 0 0 1
vn -0.5876001 -0.8087655 0.02499125
vn -0.5876001 -0.8087655 0.02499206
vn -0.4860857 -0.2418063 -0.8397919
vn -0.5876001 -0.8087655 0.02499206
vn -0.01345156 -0.9996313 -0.02358433
vn 0 0 1
vn -0.01345156 -0.9996313 -0.02358433
vn -0.4860857 -0.2418063 -0.8397919
vn -0.01345215 -0.9996313 -0.02358361
vn -0.4860865 -0.2418063 -0.8397915
vn -0.4860852 -0.2418068 -0.839792
vn -0.486086 -0.2418064 -0.8397917
vn 0 0 1
vn -0.01345215 -0.9996313 -0.02358361
vn 0 0 1
vn 0.6930435 -0.4299036 -0.5786825
vn 0.693043 -0.4299041 -0.578683
vn -0.4860852 -0.2418068 -0.839792
vn 0.6930435 -0.4299036 -0.5786825
vn 0 0 1
vn 0.3625869 0.8244432 -0.434539
vn 0.3626211 0.8244199 -0.4345548
vn 0.8053018 0.2146008 -0.5526622
vn 0.8053013 0.2146012 -0.5526628
vn 0 0 1
vn 0.8053018 0.2146008 -0.5526622
vn 0.693043 -0.4299041 -0.578683
vn 0.6930429 -0.4299043 -0.5786828
vn -0.3390375 0.250375 -0.906844
vn -0.8524774 0.5143487 -0.09342231
vn 0.05095961 0.1402415 -0.9888051
vn 0.05096328 0.1402393 -0.9888052
vn 0.3626211 0.8244199 -0.4345548
vn -0.8524774 0.5143487 -0.09342231
vn 0.05096328 0.1402393 -0.9888052
vn -0.3390375 0.250375 -0.906844
vn -0.486086 -0.2418064 -0.8397917
vn 0.05095876 0.1402421 -0.9888051
vn 0.05095865 0.1402419 -0.9888051
vn 0.05095961 0.1402415 -0.9888051
vn 0.6930435 -0.4299036 -0.5786825
vn -0.486086 -0.2418064 -0.8397917
vn 0.693043 -0.4299041 -0.578683
vn 0.6930429 -0.4299043 -0.5786828
vn 0.05095876 0.1402421 -0.9888051
vn 0.8053013 0.2146012 -0.5526628
vn 0.05095865 0.1402419 -0.9888051
vn 0.05095961 0.1402415 -0.9888051
vn 0.05096328 0.1402393 -0.9888052
vn 0.6930429 -0.4299043 -0.5786828
vn 0.8053013 0.2146012 -0.5526628
vn 0.05095876 0.1402421 -0.9888051
vn 0.05095865 0.1402419 -0.9888051
g wall__sh_17_0
f 28/28/28 37/37/37 44/44/44
f 9/9/9 17/17/17 29/29/29
f 10/10/10 51/51/51 30/30/30
f 31/31/31 46/46/46 56/56/56
f 3/3/3 2/2/2 4/4/4
f 1/1/1 21/21/21 26/26/26
f 5/5/5 27/27/27 32/32/32
f 35/35/35 33/33/33 6/6/6
f 7/7/7 36/36/36 38/38/38
f 39/39/39 34/34/34 22/22/22
f 45/45/45 40/40/40 8/8/8
f 11/11/11 23/23/23 18/18/18
f 41/41/41 24/24/24 13/13/13
f 14/14/14 49/49/49 42/42/42
f 47/47/47 50/50/50 72/72/72
f 12/12/12 19/19/19 52/52/52
f 15/15/15 64/64/64 53/53/53
f 60/60/60 67/67/67 25/25/25
f 54/54/54 57/57/57 16/16/16
f 61/61/61 20/20/20 65/65/65
f 73/73/73 43/43/43 68/68/68
f 58/58/58 48/48/48 74/74/74
f 75/75/75 81/81/81 59/59/59
f 77/77/77 55/55/55 82/82/82
f 83/83/83 76/76/76 69/69/69
f 78/78/78 84/84/84 70/70/70
f 79/79/79 71/71/71 62/62/62
f 63/63/63 66/66/66 80/80/80
