g wall__sh_28
v 0.132683 0.5766686 0.4159477
v -0.3372271 0.04645771 -0.4159476
v 0.4891471 0.1746261 -0.4159476
v 0.5156683 0.1464731 -0.4159476
v 0.3690682 0.5297006 0.4159477
v 0.5191139 0.2356336 -0.07670236
v -0.5191139 -0.1827726 -0.4159476
v 0.5031681 -0.03368407 -0.4159476
v 0.4921254 -0.1643487 -0.1712952
v 0.227749 -0.5981445 -0.4159476
v 0.03642428 0.4553546 0.4159477
v -0.4861825 -0.1680493 -0.05669594
v -0.4664178 -0.4185682 -0.4159476
v -0.002759576 -0.5981445 -0.4159476
v 0.3739862 -0.4800062 -0.004764795
v 0.2621762 -0.5981445 -0.2561629
v 0.256345 -0.1642703 0.4159477
v 0.225355 -0.1522677 0.4159477
v -0.4831674 -0.1819277 -0.05755365
v 0.3055625 0.5908041 0.3928864
v 0.2711501 0.5981445 0.4159477
v 0.3244417 0.5770729 0.4159477
v 0.132683 0.5766686 0.4159477
v 0.132683 0.5766686 0.4159477
v 0.132683 0.5766686 0.4159477
v 0.132683 0.5766686 0.4159477
v -0.3372271 0.04645771 -0.4159476
v -0.3372271 0.04645771 -0.4159476
v -0.3372271 0.04645771 -0.4159476
v -0.3372271 0.04645771 -0.4159476
v 0.4891471 0.1746261 -0.4159476
v 0.4891471 0.1746261 -0.4159476
v 0.4891471 0.1746261 -0.4159476
v 0.4891471 0.1746261 -0.4159476
v 0.4891471 0.1746261 -0.4159476
v 0.4891471 0.1746261 -0.4159476
v 0.4891471 0.1746261 -0.4159476
v 0.4891471 0.1746261 -0.4159476
v 0.4891471 0.1746261 -0.4159476
v 0.5156683 0.1464731 -0.4159476
v 0.5156683 0.1464731 -0.4159476
v 0.5156683 0.1464731 -0.4159476
v 0.3690682 0.5297006 0.4159477
v 0.3690682 0.5297006 0.4159477
v 0.3690682 0.5297006 0.4159477
v 0.3690682 0.5297006 0.4159477
v 0.3690682 0.5297006 0.4159477
v 0.5191139 0.2356336 -0.07670236
v 0.5191139 0.2356336 -0.07670236
v 0.5191139 0.2356336 -0.07670236
v 0.5191139 0.2356336 -0.07670236
v -0.5191139 -0.1827726 -0.4159476
v -0.5191139 -0.1827726 -0.4159476
v -0.5191139 -0.1827726 -0.4159476
v -0.5191139 -0.1827726 -0.4159476
v -0.5191139 -0.1827726 -0.4159476
v 0.5031681 -0.03368407 -0.4159476
v 0.5031681 -0.03368407 -0.4159476
v 0.5031681 -0.03368407 -0.4159476
v 0.4921254 -0.1643487 -0.1712952
v 0.4921254 -0.1643487 -0.1712952
v 0.4921254 -0.1643487 -0.1712952
v 0.4921254 -0.1643487 -0.1712952
v 0.4921254 -0.1643487 -0.1712952
v 0.4921254 -0.1643487 -0.1712952
v 0.227749 -0.5981445 -0.4159476
v 0.227749 -0.5981445 -0.4159476
v 0.227749 -0.5981445 -0.4159476
v 0.227749 -0.5981445 -0.4159476
v 0.227749 -0.5981445 -0.4159476
v 0.227749 -0.5981445 -0.4159476
v 0.03642428 0.4553546 0.4159477
v 0.03642428 0.4553546 0.4159477
v 0.03642428 0.4553546 0.4159477
v 0.03642428 0.4553546 0.4159477
v 0.03642428 0.4553546 0.4159477
v 0.03642428 0.4553546 0.4159477
v -0.4861825 -0.1680493 -0.05669594
v -0.4861825 -0.1680493 -0.05669594
v -0.4861825 -0.1680493 -0.05669594
v -0.4861825 -0.1680493 -0.05669594
v -0.4664178 -0.4185682 -0.4159476
v -0.4664178 -0.4185682 -0.4159476
v -0.4664178 -0.4185682 -0.4159476
v -0.002759576 -0.5981445 -0.4159476
v -0.002759576 -0.5981445 -0.4159476
v -0.002759576 -0.5981445 -0.4159476
v -0.002759576 -0.5981445 -0.4159476
v 0.3739862 -0.4800062 -0.004764795
v 0.3739862 -0.4800062 -0.004764795
v 0.3739862 -0.4800062 -0.004764795
v 0.2621762 -0.5981445 -0.2561629
v 0.2621762 -0.5981445 -0.2561629
v 0.2621762 -0.5981445 -0.2561629
v 0.2621762 -0.5981445 -0.2561629
v 0.256345 -0.1642703 0.4159477
v 0.256345 -0.1642703 0.4159477
v 0.256345 -0.1642703 0.4159477
v 0.256345 -0.1642703 0.4159477
v 0.256345 -0.1642703 0.4159477
v 0.225355 -0.1522677 0.4159477
v 0.225355 -0.1522677 0.4159477
v 0.225355 -0.1522677 0.4159477
v 0.225355 -0.1522677 0.4159477
v 0.225355 -0.1522677 0.4159477
v 0.225355 -0.1522677 0.4159477
v -0.4831674 -0.1819277 -0.05755365
v -0.4831674 -0.1819277 -0.05755365
v -0.4831674 -0.1819277 -0.05755365
v -0.4831674 -0.1819277 -0.05755365
v 0.3055625 0.5908041 0.3928864
v 0.3055625 0.5908041 0.3928864
v 0.3055625 0.5908041 0.3928864
v 0.2711501 0.5981445 0.4159477
v 0.2711501 0.5981445 0.4159477
v 0.2711501 0.5981445 0.4159477
v 0.2711501 0.5981445 0.4159477
v 0.3244417 0.5770729 0.4159477
v 0.3244417 0.5770729 0.4159477
v 0.3244417 0.5770729 0.4159477
vt -0.1202747 0.2625934
vt -0.2396321 0.05129164
vt -0.02973265 0.05129161
vt -0.1833075 0.05129161
vt -0.2806475 0.2625934
vt -0.2059543 0.1374601
vt 0.2973191 0.08407041
vt 0.4814422 0.1142457
vt -0.1043586 0.1134335
vt 0.4318365 0
vt 0.2617635 0.2625934
vt 0.1034186 0.1425417
vt 0.3068102 0.03634588
vt 0.3903196 0
vt -0.02418143 0.1557323
vt 0.9498296 0.1496189
vt -0.1043785 0.2625934
vt 0.4314052 0.09024455
vt 0.09989351 0.1423239
vt -0.07636321 0.2567359
vt -0.08510396 0.2625934
vt -0.29268 0.2625934
vt 0.2925774 0.2625934
vt -0.1202747 0.2625934
vt -0.1202747 0.2625934
vt 0.4147141 0.2377797
vt 0.3300787 0.1304661
vt 0.1579035 0.05129161
vt 0.1579035 0.05129161
vt 0.1579035 0.05129161
vt -0.1904584 0.05129161
vt -0.1904584 0.05129161
vt 0.4789168 0.1564071
vt 0.4789168 0.1564071
vt 0.4789168 0.1564071
vt 0.4789168 0.1564071
vt -0.02973265 0.05129161
vt -0.1904584 0.05129161
vt -0.1904584 0.05129161
vt 0.4836935 0.150709
vt -0.1833075 0.05129161
vt -0.1833075 0.05129161
vt -0.2806475 0.2625934
vt 0.4572895 0.2282735
vt -0.2806475 0.2625934
vt 0.4572895 0.2282735
vt 0.4572895 0.2282735
vt -0.2059543 0.1374601
vt -0.2059543 0.1374601
vt -0.2059543 0.1374601
vt -0.2059543 0.1374601
vt 0.2973191 0.08407041
vt 0.09967888 0.05129162
vt 0.2973191 0.08407041
vt 0.09967888 0.05129162
vt 0.09967888 0.05129162
vt -0.1375475 0.05129161
vt 0.4814422 0.1142457
vt -0.1375475 0.05129161
vt -0.1043586 0.1134335
vt -0.1043586 0.1134335
vt -0.1043586 0.1134335
vt -0.1043586 0.1134335
vt -0.1043586 0.1134335
vt -0.1043586 0.1134335
vt 0.4318365 0
vt 0.005825776 0.05129162
vt 0.4318365 0
vt 0.4318365 0
vt 0.9415456 0.1478343
vt 0.005825776 0.05129162
vt 0.2617635 0.2625934
vt 0.3973769 0.213226
vt 0.3973769 0.213226
vt 0.1447245 0.2617635
vt 0.3973769 0.213226
vt 0.3973769 0.213226
vt 0.1034186 0.1425417
vt 0.2774669 0.1034186
vt 0.1034186 0.1425417
vt 0.2774669 0.1034186
vt 0.3068102 0.03634588
vt 0.0397867 0.05129162
vt 0.2724466 0.05129162
vt 0.9415456 0.1358834
vt 0.1546772 0.05129162
vt 0.1546772 0.05129162
vt 0.1546772 0.05129162
vt -0.02418143 0.1557323
vt 0.05898357 0.1557323
vt 0.05898357 0.1557323
vt 0.005825775 0.09187701
vt 0.005825775 0.09187701
vt 0.08738336 0.09187701
vt 0.08738336 0.09187701
vt 0.4369868 0.08781519
vt 0.4369868 0.08781519
vt -0.1043785 0.2625934
vt -0.1043785 0.2625934
vt 0.08886449 0.2625934
vt 0.09673598 0.1074272
vt 0.09673598 0.1074272
vt 0.09673598 0.2625934
vt 0.09673598 0.2625934
vt 0.09673598 0.2625934
vt 0.09673598 0.2625934
vt 0.09989351 0.1423239
vt 0.276701 0.09989352
vt 0.276701 0.1423239
vt 0.276701 0.1423239
vt -0.07636321 0.2567359
vt -0.2961678 0.2567359
vt -0.07636321 0.2567359
vt 0.4396535 0.2421263
vt 0.4396535 0.2421263
vt 0.4396535 0.2421263
vt -0.08510396 0.2625934
vt -0.29268 0.2625934
vt 0.4492517 0.2378615
vt -0.07156789 0.2625934
vn -0.1346752 0.8683274 -0.4773574
vn -0.1346752 0.8683274 -0.4773574
vn -0.1346752 0.8683274 -0.4773574
vn 0.715405 0.6739404 -0.184391
vn 0.7154051 0.6739402 -0.184391
vn 0.7154051 0.6739402 -0.184391
vn 0 0 -1
vn 0 0 -1
vn 0.9975691 -0.0692163 0.008059626
vn 0 0 -1
vn -0.7825192 0.6209038 0.04628449
vn -0.7825192 0.6209037 0.04628446
vn 0 0 -1
vn 0 0 -1
vn 0.8823332 -0.4305198 -0.1901077
vn 0 -1 0
vn 0.9176216 -0.1490513 0.3684485
vn 0 0 1
vn -0.9712354 -0.2170538 0.09792549
vn -0.1346757 0.8683287 -0.4773549
vn -0.1346757 0.8683287 -0.4773549
vn 0.7154066 0.6739389 -0.18439
vn -0.7825192 0.6209038 0.04628449
vn -0.1346757 0.8683287 -0.4773549
vn -0.1346759 0.8683272 -0.4773577
vn 0 0 1
vn 0 0 -1
vn -0.7825192 0.6209038 0.04628449
vn -0.7825192 0.6209037 0.04628446
vn -0.7825193 0.6209036 0.04628439
vn 0.7154051 0.6739402 -0.184391
vn 0.715405 0.6739404 -0.184391
vn 0 0 -1
vn 0 0 -1
vn 0 0 -1
vn 0 0 -1
vn -0.1346759 0.8683272 -0.4773577
vn 0.7154066 0.6739389 -0.18439
vn 0.7154049 0.6739405 -0.1843911
vn 0 0 -1
vn 0.9975691 -0.0692163 0.008059626
vn 0.9975691 -0.06921636 0.00805954
vn 0.9176216 -0.1490513 0.3684485
vn 0 0 1
vn 0.7154049 0.6739405 -0.1843911
vn 0 0 1
vn 0 0 1
vn 0.715405 0.6739404 -0.184391
vn 0.9975691 -0.0692163 0.008059626
vn 0.9176216 -0.1490513 0.3684485
vn 0.9176216 -0.1490512 0.3684486
vn 0 0 -1
vn -0.7825193 0.6209036 0.04628439
vn 0 0 -1
vn -0.9712354 -0.2170538 0.09792549
vn -0.9712361 -0.2170509 0.09792554
vn 0.9975691 -0.06921636 0.00805954
vn 0 0 -1
vn 0.8823331 -0.4305198 -0.1901077
vn 0.9975691 -0.06921636 0.00805954
vn 0.8823331 -0.4305198 -0.1901077
vn 0.8823331 -0.4305198 -0.1901077
vn 0.8823332 -0.4305198 -0.1901077
vn 0.9176216 -0.1490512 0.3684486
vn 0.9176216 -0.1490512 0.3684486
vn 0 0 -1
vn 0.8823331 -0.4305198 -0.1901077
vn 0 0 -1
vn 0 0 -1
vn 0 -1 0
vn 0.8823331 -0.4305198 -0.1901077
vn -0.7825192 0.6209037 0.04628446
vn 0 0 1
vn 0 0 1
vn -0.5427731 -0.1687669 0.8227485
vn 0 0 1
vn 0 0 1
vn -0.7825193 0.6209036 0.04628439
vn -0.5427731 -0.1687669 0.8227485
vn -0.9712361 -0.2170509 0.09792554
vn -0.5427735 -0.168764 0.8227488
vn 0 0 -1
vn -0.9712354 -0.2170538 0.09792549
vn -0.3098527 -0.800026 0.5137604
vn 0 -1 0
vn -0.3098527 -0.800026 0.5137604
vn -0.3098527 -0.8000259 0.5137604
vn -0.3098526 -0.800026 0.5137605
vn 0.9176216 -0.1490512 0.3684486
vn -0.309853 -0.8000259 0.5137604
vn -0.309852 -0.8000259 0.5137608
vn 0.8823331 -0.4305198 -0.1901077
vn 0.8823332 -0.4305198 -0.1901077
vn -0.3098526 -0.800026 0.5137605
vn -0.309853 -0.8000259 0.5137604
vn 0 0 1
vn 0 0 1
vn 0.9176216 -0.1490512 0.3684486
vn 0.9176216 -0.1490512 0.3684486
vn -0.309852 -0.8000259 0.5137608
vn -0.5427731 -0.1687669 0.8227485
vn -0.5427735 -0.168764 0.8227488
vn -0.3098527 -0.8000259 0.5137604
vn -0.3098526 -0.800026 0.5137605
vn -0.309853 -0.8000259 0.5137604
vn -0.309852 -0.8000259 0.5137608
vn -0.9712361 -0.2170509 0.09792554
vn -0.5427735 -0.168764 0.8227488
vn -0.3098527 -0.800026 0.5137604
vn -0.3098527 -0.8000259 0.5137604
vn -0.1346759 0.8683272 -0.4773577
vn 0.7154066 0.6739389 -0.18439
vn 0.3564976 0.9016041 0.2449891
vn 0 0 1
vn 0 0 1
vn 0 0 1
vn 0.3564976 0.9016041 0.2449891
vn 0.7154049 0.6739405 -0.1843911
vn 0 0 1
vn 0.3564976 0.9016041 0.2449891
g wall__sh_28_0
f 7/7/7 27/27/27 33/33/33
f 34/34/34 40/40/40 8/8/8
f 10/10/10 52/52/52 35/35/35
f 36/36/36 58/58/58 66/66/66
f 13/13/13 68/68/68 14/14/14
f 54/54/54 69/69/69 82/82/82
f 16/16/16 85/85/85 70/70/70
f 96/96/96 73/73/73 18/18/18
f 44/44/44 74/74/74 97/97/97
f 114/114/114 26/26/26 76/76/76
f 115/115/115 77/77/77 46/46/46
f 47/47/47 119/119/119 116/116/116
f 3/3/3 2/2/2 1/1/1
f 31/31/31 5/5/5 6/6/6
f 48/48/48 4/4/4 32/32/32
f 41/41/41 49/49/49 9/9/9
f 60/60/60 57/57/57 42/42/42
f 67/67/67 59/59/59 61/61/61
f 11/11/11 23/23/23 28/28/28
f 12/12/12 72/72/72 29/29/29
f 30/30/30 53/53/53 78/78/78
f 92/92/92 71/71/71 62/62/62
f 50/50/50 43/43/43 17/17/17
f 101/101/101 75/75/75 79/79/79
f 93/93/93 63/63/63 15/15/15
f 55/55/55 83/83/83 19/19/19
f 107/107/107 80/80/80 56/56/56
f 64/64/64 51/51/51 98/98/98
f 99/99/99 89/89/89 65/65/65
f 102/102/102 81/81/81 108/108/108
f 109/109/109 84/84/84 86/86/86
f 103/103/103 110/110/110 87/87/87
f 104/104/104 88/88/88 94/94/94
f 105/105/105 95/95/95 90/90/90
f 91/91/91 100/100/100 106/106/106
f 20/20/20 24/24/24 21/21/21
f 37/37/37 25/25/25 111/111/111
f 22/22/22 38/38/38 112/112/112
f 45/45/45 39/39/39 118/118/118
f 113/113/113 117/117/117 120/120/120
