g wall__sh_34
v 0.2658437 -0.4420309 0.2037972
v 0.2214625 -0.4420309 -0.09621185
v 0.03333294 0.2829425 -0.1478432
v 0.2918742 -0.3711551 0.2037972
v 0.3346832 -0.09697366 -0.1875215
v 0.3207545 0.03620863 -0.2037972
v 0.1933006 0.3929995 0.2037972
v -0.3077927 0.1805617 -0.01953274
v 0.04043186 0.4133719 0.06202406
v 0.1263751 0.4420309 0.2037972
v -0.1106297 -0.4420309 0.2037972
v -0.09603262 -0.4420309 0.008285463
v -0.3346832 0.1581668 -0.007174611
v -0.3314217 0.1105808 0.2037972
v 0.2658437 -0.4420309 0.2037972
v 0.2658437 -0.4420309 0.2037972
v 0.2214625 -0.4420309 -0.09621185
v 0.2214625 -0.4420309 -0.09621185
v 0.2214625 -0.4420309 -0.09621185
v 0.2214625 -0.4420309 -0.09621185
v 0.2214625 -0.4420309 -0.09621185
v 0.2214625 -0.4420309 -0.09621185
v 0.03333294 0.2829425 -0.1478432
v 0.03333294 0.2829425 -0.1478432
v 0.03333294 0.2829425 -0.1478432
v 0.03333294 0.2829425 -0.1478432
v 0.03333294 0.2829425 -0.1478432
v 0.03333294 0.2829425 -0.1478432
v 0.2918742 -0.3711551 0.2037972
v 0.2918742 -0.3711551 0.2037972
v 0.2918742 -0.3711551 0.2037972
v 0.2918742 -0.3711551 0.2037972
v 0.2918742 -0.3711551 0.2037972
v 0.2918742 -0.3711551 0.2037972
v 0.3346832 -0.09697366 -0.1875215
v 0.3346832 -0.09697366 -0.1875215
v 0.3346832 -0.09697366 -0.1875215
v 0.3207545 0.03620863 -0.2037972
v 0.3207545 0.03620863 -0.2037972
v 0.3207545 0.03620863 -0.2037972
v 0.1933006 0.3929995 0.2037972
v 0.1933006 0.3929995 0.2037972
v 0.1933006 0.3929995 0.2037972
v 0.1933006 0.3929995 0.2037972
v -0.3077927 0.1805617 -0.01953274
v -0.3077927 0.1805617 -0.01953274
v -0.3077927 0.1805617 -0.01953274
v -0.3077927 0.1805617 -0.01953274
v -0.3077927 0.1805617 -0.01953274
v -0.3077927 0.1805617 -0.01953274
v 0.04043186 0.4133719 0.06202406
v 0.04043186 0.4133719 0.06202406
v 0.1263751 0.4420309 0.2037972
v 0.1263751 0.4420309 0.2037972
v 0.1263751 0.4420309 0.2037972
v 0.1263751 0.4420309 0.2037972
v -0.1106297 -0.4420309 0.2037972
v -0.1106297 -0.4420309 0.2037972
v -0.1106297 -0.4420309 0.2037972
v -0.1106297 -0.4420309 0.2037972
v -0.09603262 -0.4420309 0.008285463
v -0.09603262 -0.4420309 0.008285463
v -0.09603262 -0.4420309 0.008285463
v -0.09603262 -0.4420309 0.008285463
v -0.3346832 0.1581668 -0.007174611
v -0.3346832 0.1581668 -0.007174611
v -0.3314217 0.1105808 0.2037972
v -0.3314217 0.1105808 0.2037972
v -0.3314217 0.1105808 0.2037972
v -0.3314217 0.1105808 0.2037972
v -0.3314217 0.1105808 0.2037972
v -0.3314217 0.1105808 0.2037972
vt 0.005825758 0.2625934
vt 0.005825761 0.186391
vt -0.3627826 0.1783178
vt -0.01217674 0.2625934
vt -0.2862395 0.08181894
vt -0.2897774 0.1156473
vt -0.3221507 0.2625935
vt -0.4494287 0.1523131
vt -0.3609795 0.226583
vt -0.3391499 0.2625935
vt 0.9846752 0.08594265
vt 0.9745389 0.08669943
vt -0.4562589 0.2090065
vt 0.1770576 0.1118475
vt 0.9846752 0.1054609
vt 0.2846311 0
vt -0.3149976 -0.005825783
vt 0.005825761 0.186391
vt -0.3149976 -0.005825783
vt 0.9691212 0.1031599
vt 0.9691212 0.1031599
vt -0.3149976 -0.005825783
vt -0.3627826 0.1783178
vt -0.3627826 0.1732767
vt -0.3627826 0.1783178
vt -0.3627826 0.1732767
vt -0.3627826 0.1732767
vt -0.3627826 0.1732767
vt -0.01217674 0.2625934
vt -0.01217674 0.2625934
vt -0.01217674 0.2625934
vt 0.2893195 0.0143451
vt 0.2893195 0.0143451
vt 0.2893195 0.0143451
vt -0.2862395 0.08181894
vt -0.08181896 0.1631983
vt -0.08181896 0.1631983
vt -0.2897774 0.1590643
vt -0.1156473 0.1590643
vt -0.1156473 0.1590643
vt -0.2062724 0.2625934
vt -0.3221507 0.2625935
vt 0.2715653 0.1690084
vt 0.2715653 0.1690084
vt -0.4494287 0.2058676
vt -0.4494287 0.2058676
vt -0.4494287 0.2058676
vt -0.4494287 0.2058676
vt -0.4494287 0.1523131
vt -0.4494287 0.1523131
vt -0.3609795 0.226583
vt -0.3609795 0.226583
vt -0.3391499 0.2625935
vt -0.3391499 0.2625935
vt 0.2595115 0.1789323
vt -0.3391499 0.2625935
vt 0.9846752 0.08594265
vt 0.2168245 0
vt 0.2168245 0
vt -0.005825788 0.2625934
vt -0.3956415 -0.005825783
vt -0.3956415 -0.005825783
vt -0.005825791 0.2129334
vt -0.005825791 0.2129334
vt -0.4562589 0.1466247
vt 0.1466247 0.2090065
vt -0.4554305 0.2625935
vt -0.4554305 0.2625935
vt 0.1770576 0.1118475
vt 0.1770576 0.1118475
vt 0.1345379 0.2625934
vt 0.1345379 0.2625934
vn 0.9297721 -0.3414755 -0.1375441
vn 0.9297721 -0.3414755 -0.1375441
vn -0.3092291 -0.1471566 -0.9395331
vn 0.9297721 -0.3414755 -0.1375441
vn -0.3092291 -0.1471566 -0.9395331
vn -0.3092291 -0.1471566 -0.9395331
vn 0.5240536 0.7153078 -0.4622798
vn -0.3092289 -0.1471564 -0.9395331
vn -0.4113705 0.7803174 -0.4710406
vn 0.5240529 0.7153083 -0.4622798
vn 0 -1 0
vn 0 -1 0
vn -0.5759487 0.7954959 0.1883328
vn 0 0 1
vn 0 -1 0
vn 0 0 1
vn -0.3092289 -0.1471563 -0.9395331
vn 0.9297721 -0.3414754 -0.1375441
vn -0.3092289 -0.1471564 -0.9395331
vn 0 -1 0
vn 0 -1 0
vn -0.309229 -0.1471564 -0.9395331
vn -0.3092289 -0.1471563 -0.9395331
vn 0.5240536 0.7153078 -0.4622798
vn -0.3092289 -0.1471564 -0.9395331
vn -0.4113705 0.7803174 -0.4710406
vn 0.5240529 0.7153083 -0.4622798
vn 0.5240537 0.7153078 -0.4622798
vn 0.9297721 -0.3414754 -0.1375441
vn 0.9728694 0.1254971 0.1943594
vn 0.9728692 0.1254979 0.1943601
vn 0 0 1
vn 0 0 1
vn 0 0 1
vn -0.3092289 -0.1471563 -0.9395331
vn 0.9297721 -0.3414754 -0.1375441
vn 0.9728692 0.1254979 0.1943601
vn 0.5240536 0.7153078 -0.4622798
vn 0.9728694 0.1254971 0.1943594
vn 0.9728692 0.1254979 0.1943601
vn 0.9728694 0.1254971 0.1943594
vn 0.5240537 0.7153078 -0.4622798
vn 0 0 1
vn 0 0 1
vn -0.4113705 0.7803174 -0.4710406
vn -0.5759487 0.7954957 0.1883344
vn -0.5759487 0.7954959 0.1883328
vn -0.5759483 0.7954962 0.188333
vn -0.309229 -0.1471564 -0.9395331
vn -0.309229 -0.1471564 -0.9395331
vn 0.5240529 0.7153083 -0.4622798
vn -0.5759487 0.7954957 0.1883344
vn 0.5240537 0.7153078 -0.4622798
vn -0.5759487 0.7954957 0.1883344
vn 0 0 1
vn -0.5759483 0.7954962 0.188333
vn 0 -1 0
vn 0 0 1
vn 0 0 1
vn -0.9263991 -0.3701361 -0.06916569
vn -0.309229 -0.1471564 -0.9395331
vn -0.309229 -0.1471564 -0.9395331
vn -0.9263991 -0.3701363 -0.06916527
vn -0.9263991 -0.3701361 -0.06916569
vn -0.309229 -0.1471564 -0.9395331
vn -0.9263991 -0.3701363 -0.06916527
vn -0.5759487 0.7954959 0.1883328
vn -0.5759483 0.7954962 0.188333
vn 0 0 1
vn 0 0 1
vn -0.9263991 -0.3701363 -0.06916527
vn -0.9263991 -0.3701361 -0.06916569
g wall__sh_34_0
f 12/12/12 20/20/20 11/11/11
f 21/21/21 15/15/15 57/57/57
f 58/58/58 16/16/16 32/32/32
f 43/43/43 55/55/55 14/14/14
f 33/33/33 44/44/44 69/69/69
f 70/70/70 59/59/59 34/34/34
f 4/4/4 1/1/1 2/2/2
f 5/5/5 3/3/3 6/6/6
f 17/17/17 23/23/23 35/35/35
f 29/29/29 18/18/18 36/36/36
f 7/7/7 38/38/38 24/24/24
f 39/39/39 41/41/41 30/30/30
f 31/31/31 37/37/37 40/40/40
f 25/25/25 19/19/19 8/8/8
f 26/26/26 45/45/45 9/9/9
f 10/10/10 27/27/27 51/51/51
f 42/42/42 28/28/28 53/53/53
f 54/54/54 52/52/52 46/46/46
f 67/67/67 47/47/47 13/13/13
f 56/56/56 48/48/48 68/68/68
f 49/49/49 22/22/22 61/61/61
f 62/62/62 65/65/65 50/50/50
f 71/71/71 66/66/66 63/63/63
f 64/64/64 60/60/60 72/72/72
