g wall__sh_67
v 0.4589322 0.5392826 -0.4159476
v 0.4540495 0.3608892 0.0652281
v 0.3436656 0.04419303 0.4159477
v 0.4803817 0.2331936 0.2341146
v 0.7071328 -0.03667474 -0.4159476
v 0.5790875 -0.4987619 -0.4159476
v 0.2436246 -0.3168333 0.4159477
v 0.4506046 -0.5282164 -0.4159476
v 0.5059618 -0.5392826 -0.2825054
v 0.02127397 -0.2039149 0.4159477
v -0.01495147 -0.06772876 0.4159477
v -0.3766723 0.09212136 0.07704008
v -0.7071328 0.168113 -0.4159476
v -0.4363766 -0.07777214 -0.4159476
v -0.6266153 0.0462606 -0.2012858
v -0.5799708 0.1053631 -0.1350698
v -0.6523247 0.07402492 -0.2207411
v 0.4589322 0.5392826 -0.4159476
v 0.4589322 0.5392826 -0.4159476
v 0.4589322 0.5392826 -0.4159476
v 0.4540495 0.3608892 0.0652281
v 0.4540495 0.3608892 0.0652281
v 0.4540495 0.3608892 0.0652281
v 0.4540495 0.3608892 0.0652281
v 0.3436656 0.04419303 0.4159477
v 0.3436656 0.04419303 0.4159477
v 0.3436656 0.04419303 0.4159477
v 0.3436656 0.04419303 0.4159477
v 0.3436656 0.04419303 0.4159477
v 0.4803817 0.2331936 0.2341146
v 0.4803817 0.2331936 0.2341146
v 0.4803817 0.2331936 0.2341146
v 0.4803817 0.2331936 0.2341146
v 0.7071328 -0.03667474 -0.4159476
v 0.7071328 -0.03667474 -0.4159476
v 0.7071328 -0.03667474 -0.4159476
v 0.7071328 -0.03667474 -0.4159476
v 0.7071328 -0.03667474 -0.4159476
v 0.7071328 -0.03667474 -0.4159476
v 0.5790875 -0.4987619 -0.4159476
v 0.5790875 -0.4987619 -0.4159476
v 0.5790875 -0.4987619 -0.4159476
v 0.5790875 -0.4987619 -0.4159476
v 0.2436246 -0.3168333 0.4159477
v 0.2436246 -0.3168333 0.4159477
v 0.2436246 -0.3168333 0.4159477
v 0.2436246 -0.3168333 0.4159477
v 0.4506046 -0.5282164 -0.4159476
v 0.4506046 -0.5282164 -0.4159476
v 0.4506046 -0.5282164 -0.4159476
v 0.4506046 -0.5282164 -0.4159476
v 0.4506046 -0.5282164 -0.4159476
v 0.5059618 -0.5392826 -0.2825054
v 0.5059618 -0.5392826 -0.2825054
v 0.02127397 -0.2039149 0.4159477
v 0.02127397 -0.2039149 0.4159477
v 0.02127397 -0.2039149 0.4159477
v 0.02127397 -0.2039149 0.4159477
v 0.02127397 -0.2039149 0.4159477
v 0.02127397 -0.2039149 0.4159477
v -0.01495147 -0.06772876 0.4159477
v -0.01495147 -0.06772876 0.4159477
v -0.01495147 -0.06772876 0.4159477
v -0.01495147 -0.06772876 0.4159477
v -0.3766723 0.09212136 0.07704008
v -0.3766723 0.09212136 0.07704008
v -0.3766723 0.09212136 0.07704008
v -0.3766723 0.09212136 0.07704008
v -0.3766723 0.09212136 0.07704008
v -0.7071328 0.168113 -0.4159476
v -0.7071328 0.168113 -0.4159476
v -0.7071328 0.168113 -0.4159476
v -0.7071328 0.168113 -0.4159476
v -0.7071328 0.168113 -0.4159476
v -0.7071328 0.168113 -0.4159476
v -0.7071328 0.168113 -0.4159476
v -0.4363766 -0.07777214 -0.4159476
v -0.4363766 -0.07777214 -0.4159476
v -0.4363766 -0.07777214 -0.4159476
v -0.4363766 -0.07777214 -0.4159476
v -0.6266153 0.0462606 -0.2012858
v -0.6266153 0.0462606 -0.2012858
v -0.6266153 0.0462606 -0.2012858
v -0.6266153 0.0462606 -0.2012858
v -0.6266153 0.0462606 -0.2012858
v -0.5799708 0.1053631 -0.1350698
v -0.5799708 0.1053631 -0.1350698
v -0.5799708 0.1053631 -0.1350698
v -0.6523247 0.07402492 -0.2207411
v -0.6523247 0.07402492 -0.2207411
vt -0.8207075 0.05129158
vt -0.7753955 0.1735105
vt -0.6949545 0.2625934
vt -0.7429608 0.2164077
vt -0.674414 0.05129159
vt -0.5570437 0.0512916
vt -0.6032537 0.2625934
vt 0.3442353 0.0512916
vt -0.5467514 0.085186
vt 0.1785787 0.5081937
vt 0.1720542 0.5357574
vt -0.554364 0.1765108
vt -0.6383012 0.05129164
vt 0.0961514 0.5337245
vt 0.6954797 0.1058158
vt 0.7104917 0.1226347
vt 0.7025318 0.1008741
vt -0.8207075 0.05129158
vt -0.3421201 0.05129161
vt 0.2574053 0.6586151
vt -0.3433602 0.1735105
vt -0.3433602 0.1735105
vt -0.3433602 0.1735105
vt -0.3433602 0.1735105
vt -0.6949545 0.2625934
vt -0.6949545 0.2625934
vt 0.2366446 0.5584101
vt 0.2366446 0.5584101
vt -0.3713978 0.2625934
vt -0.7429608 0.2164077
vt -0.7429608 0.2164077
vt -0.3366718 0.2164078
vt -0.3366718 0.2164078
vt -0.674414 0.05129159
vt -0.674414 0.05129159
vt 0.3021086 0.5420426
vt 0.3021086 0.5420426
vt 0.3021086 0.5420426
vt 0.3021086 0.5420426
vt -0.5570437 0.0512916
vt -0.5570437 0.0512916
vt 0.3116006 0.0512916
vt 0.2790464 0.4485171
vt -0.6032537 0.2625934
vt 0.3968083 0.2625934
vt 0.2186262 0.4853392
vt 0.3968083 0.2625934
vt 0.2559054 0.4425555
vt 0.3442353 0.0512916
vt 0.3442353 0.0512916
vt 0.2559054 0.4425555
vt 0.3442353 0.0512916
vt 0.3301745 0.085186
vt 0.3301745 0.085186
vt 0.1785787 0.5081937
vt 0.4532855 0.2625934
vt 0.631935 0.2625934
vt 0.631935 0.2625934
vt 0.4532855 0.2625934
vt 0.4532855 0.2625934
vt -0.4624867 0.2625934
vt -0.4624867 0.2625934
vt -0.4624867 0.2625934
vt 0.6665263 0.2625934
vt 0.7071283 0.1765107
vt 0.7071283 0.1765107
vt -0.554364 0.1765108
vt 0.7071283 0.1765107
vt -0.554364 0.1765108
vt 0.04738557 0.5834912
vt -0.6383012 0.05129164
vt 0.04738557 0.5834912
vt 0.6383012 0.05129159
vt -0.6383012 0.05129164
vt 0.6383012 0.05129159
vt 0.7264302 0.05129159
vt 0.0961514 0.5337245
vt 0.5695289 0.05129159
vt 0.5695289 0.05129159
vt 0.5695289 0.05129159
vt 0.6178497 0.1058158
vt 0.6178497 0.1058158
vt 0.6954797 0.1058158
vt 0.6954797 0.1058158
vt 0.6178497 0.1058158
vt 0.7104917 0.1226347
vt -0.606002 0.1226348
vt 0.7104917 0.1226347
vt 0.6243799 0.1008741
vt 0.7025318 0.1008741
vn 0.9073765 0.3910211 0.1541766
vn 0.9073768 0.3910205 0.1541763
vn 0.8797882 -0.2437917 0.4080911
vn 0.9073765 0.3910211 0.1541766
vn 0.9073765 0.3910211 0.1541766
vn 0.8797883 -0.2437912 0.4080911
vn 0.8797883 -0.2437913 0.408091
vn 0.2201614 -0.960363 -0.1709735
vn 0.8797883 -0.2437913 0.408091
vn 0 0 1
vn 0 0 1
vn -0.2362544 0.7570012 0.6092069
vn -0.2862676 0.8993373 0.3305197
vn 0 0 -1
vn -0.7146794 -0.1901037 0.6731226
vn -0.7146788 -0.1901053 0.6731226
vn -0.7146788 -0.1901053 0.6731226
vn 0.9073768 0.3910205 0.1541763
vn -0.2862676 0.8993373 0.3305197
vn 0 0 -1
vn -0.2362544 0.7570012 0.6092069
vn -0.2362544 0.7570012 0.6092069
vn -0.2862676 0.8993373 0.3305197
vn -0.2862677 0.8993372 0.3305199
vn 0.8797883 -0.2437912 0.4080911
vn 0.8797885 -0.243791 0.408091
vn 0 0 1
vn 0 0 1
vn -0.2362547 0.7570014 0.6092065
vn 0.9073768 0.3910205 0.1541763
vn 0.8797882 -0.2437917 0.4080911
vn -0.2362547 0.7570014 0.6092065
vn -0.2362544 0.7570012 0.6092069
vn 0.8797882 -0.2437917 0.4080911
vn 0.8797883 -0.2437912 0.4080911
vn 0 0 -1
vn 0 0 -1
vn 0 0 -1
vn 0 0 -1
vn 0.8797883 -0.2437913 0.408091
vn 0.8797885 -0.243791 0.408091
vn 0.2201614 -0.960363 -0.1709735
vn 0 0 -1
vn 0.8797885 -0.243791 0.408091
vn -0.4498894 -0.8858853 0.113167
vn 0 0 1
vn -0.4498877 -0.885886 0.1131676
vn 0 0 -1
vn -0.4498894 -0.8858853 0.113167
vn -0.4498877 -0.885886 0.1131676
vn 0 0 -1
vn -0.449888 -0.8858859 0.1131674
vn 0.2201614 -0.960363 -0.1709735
vn -0.4498894 -0.8858853 0.113167
vn 0 0 1
vn -0.4498877 -0.885886 0.1131676
vn -0.7146795 -0.1901042 0.6731222
vn -0.7146794 -0.1901037 0.6731226
vn -0.449888 -0.8858859 0.1131674
vn -0.4498881 -0.885886 0.1131674
vn -0.2362547 0.7570014 0.6092065
vn -0.2362544 0.7570012 0.6092069
vn -0.2362544 0.7570012 0.6092069
vn -0.7146795 -0.1901042 0.6731222
vn -0.7146795 -0.1901042 0.6731222
vn -0.7146794 -0.1901037 0.6731226
vn -0.2862677 0.8993372 0.3305199
vn -0.7146791 -0.190105 0.6731225
vn -0.2862664 0.8993379 0.3305192
vn 0 0 -1
vn -0.2862677 0.8993372 0.3305199
vn 0 0 -1
vn -0.662991 -0.7300521 -0.1657314
vn -0.2862664 0.8993379 0.3305192
vn -0.6629893 -0.7300533 -0.1657327
vn -0.7445735 0.4951432 0.4477092
vn 0 0 -1
vn -0.449888 -0.8858859 0.1131674
vn -0.4498881 -0.885886 0.1131674
vn -0.662991 -0.7300521 -0.1657314
vn -0.4498881 -0.885886 0.1131674
vn -0.662991 -0.7300521 -0.1657314
vn -0.7146788 -0.1901053 0.6731226
vn -0.7146791 -0.190105 0.6731225
vn -0.6629893 -0.7300533 -0.1657327
vn -0.7146791 -0.190105 0.6731225
vn -0.2862664 0.8993379 0.3305192
vn -0.7445735 0.4951432 0.4477092
vn -0.6629893 -0.7300533 -0.1657327
vn -0.7445735 0.4951432 0.4477092
g wall__sh_67_0
f 36/36/36 43/43/43 48/48/48
f 10/10/10 46/46/46 27/27/27
f 11/11/11 55/55/55 28/28/28
f 70/70/70 20/20/20 37/37/37
f 14/14/14 72/72/72 38/38/38
f 39/39/39 51/51/51 77/77/77
f 4/4/4 5/5/5 1/1/1
f 18/18/18 2/2/2 30/30/30
f 34/34/34 31/31/31 3/3/3
f 35/35/35 25/25/25 6/6/6
f 9/9/9 40/40/40 7/7/7
f 41/41/41 26/26/26 44/44/44
f 53/53/53 8/8/8 42/42/42
f 49/49/49 54/54/54 45/45/45
f 61/61/61 29/29/29 32/32/32
f 21/21/21 12/12/12 62/62/62
f 63/63/63 33/33/33 22/22/22
f 50/50/50 47/47/47 56/56/56
f 57/57/57 64/64/64 65/65/65
f 23/23/23 19/19/19 13/13/13
f 58/58/58 66/66/66 15/15/15
f 67/67/67 24/24/24 71/71/71
f 78/78/78 52/52/52 59/59/59
f 60/60/60 81/81/81 79/79/79
f 73/73/73 80/80/80 82/82/82
f 17/17/17 83/83/83 16/16/16
f 84/84/84 68/68/68 86/86/86
f 87/87/87 69/69/69 74/74/74
f 75/75/75 85/85/85 89/89/89
f 88/88/88 76/76/76 90/90/90
