g wall__sh_4
v 0.6211078 -0.09955311 -0.3333414
v 0.6535378 -0.03984499 -0.3333414
v 0.4719775 0.5643797 -0.3333414
v 0.1482885 0.5643797 0.2274193
v 0.6464987 -0.04769516 -0.3170606
v -0.6535378 0.5643797 -0.3333414
v -0.09159231 0.5643797 0.3333414
v -0.5903931 0.5643797 -0.2240545
v -0.1944646 -0.2421222 -0.04879823
v -0.5759704 0.2116799 -0.3333414
v -0.5598304 0.1845551 -0.3157321
v -0.2783422 -0.2758827 -0.1537136
v 0.06302869 -0.5643802 -0.3333414
v -0.1221313 -0.4674706 -0.2002056
v -0.1579163 -0.4606371 -0.2247788
v -0.1294069 -0.4963837 -0.3333414
v 0.6211078 -0.09955311 -0.3333414
v 0.6211078 -0.09955311 -0.3333414
v 0.6211078 -0.09955311 -0.3333414
v 0.6211078 -0.09955311 -0.3333414
v 0.6211078 -0.09955311 -0.3333414
v 0.6535378 -0.03984499 -0.3333414
v 0.6535378 -0.03984499 -0.3333414
v 0.6535378 -0.03984499 -0.3333414
v 0.6535378 -0.03984499 -0.3333414
v 0.6535378 -0.03984499 -0.3333414
v 0.6535378 -0.03984499 -0.3333414
v 0.4719775 0.5643797 -0.3333414
v 0.4719775 0.5643797 -0.3333414
v 0.4719775 0.5643797 -0.3333414
v 0.4719775 0.5643797 -0.3333414
v 0.1482885 0.5643797 0.2274193
v 0.1482885 0.5643797 0.2274193
v 0.1482885 0.5643797 0.2274193
v 0.6464987 -0.04769516 -0.3170606
v 0.6464987 -0.04769516 -0.3170606
v 0.6464987 -0.04769516 -0.3170606
v -0.6535378 0.5643797 -0.3333414
v -0.6535378 0.5643797 -0.3333414
v -0.6535378 0.5643797 -0.3333414
v -0.6535378 0.5643797 -0.3333414
v -0.6535378 0.5643797 -0.3333414
v -0.09159231 0.5643797 0.3333414
v -0.09159231 0.5643797 0.3333414
v -0.09159231 0.5643797 0.3333414
v -0.09159231 0.5643797 0.3333414
v -0.09159231 0.5643797 0.3333414
v -0.09159231 0.5643797 0.3333414
v -0.5903931 0.5643797 -0.2240545
v -0.5903931 0.5643797 -0.2240545
v -0.1944646 -0.2421222 -0.04879823
v -0.1944646 -0.2421222 -0.04879823
v -0.1944646 -0.2421222 -0.04879823
v -0.1944646 -0.2421222 -0.04879823
v -0.1944646 -0.2421222 -0.04879823
v -0.5759704 0.2116799 -0.3333414
v -0.5759704 0.2116799 -0.3333414
v -0.5759704 0.2116799 -0.3333414
v -0.5598304 0.1845551 -0.3157321
v -0.5598304 0.1845551 -0.3157321
v -0.5598304 0.1845551 -0.3157321
v -0.5598304 0.1845551 -0.3157321
v -0.5598304 0.1845551 -0.3157321
v -0.5598304 0.1845551 -0.3157321
v -0.2783422 -0.2758827 -0.1537136
v -0.2783422 -0.2758827 -0.1537136
v -0.2783422 -0.2758827 -0.1537136
v -0.2783422 -0.2758827 -0.1537136
v 0.06302869 -0.5643802 -0.3333414
v 0.06302869 -0.5643802 -0.3333414
v 0.06302869 -0.5643802 -0.3333414
v 0.06302869 -0.5643802 -0.3333414
v -0.1221313 -0.4674706 -0.2002056
v -0.1221313 -0.4674706 -0.2002056
v -0.1221313 -0.4674706 -0.2002056
v -0.1221313 -0.4674706 -0.2002056
v -0.1579163 -0.4606371 -0.2247788
v -0.1579163 -0.4606371 -0.2247788
v -0.1294069 -0.4963837 -0.3333414
v -0.1294069 -0.4963837 -0.3333414
v -0.1294069 -0.4963837 -0.3333414
v -0.1294069 -0.4963837 -0.3333414
v -0.1294069 -0.4963837 -0.3333414
v -0.1294069 -0.4963837 -0.3333414
vt -1.080491 0.05129157
vt -1.095657 0.05129157
vt -1.249131 0.05129157
vt 0.3716737 1.249131
vt -1.093663 0.05542691
vt 0.09203226 1
vt 0.9761099 0.07915479
vt 0.9472116 0.05329467
vt 0.4587331 1.044279
vt 0.1060029 0.9286143
vt 1.152655 0.05576435
vt 1.035704 0.09691714
vt 0.2210929 0.7715415
vt 0.4403605 0.9870402
vt 0.4494499 0.988776
vt 0.9796963 0.05129158
vt 0.2515773 1.080491
vt 0.2515773 1.080491
vt 0.2515773 1.080491
vt 0.3216085 0.8656213
vt 0.2515773 1.080491
vt -1.095657 0.05129157
vt 0.3274494 0.8777064
vt 0.3274494 0.8777064
vt 0.3274494 0.8777064
vt 0.3274494 0.8777064
vt 0.3274494 0.8777064
vt -1.249131 0.05129157
vt 0.2947486 1
vt 0.9415456 0.1083725
vt 0.9415456 0.1083725
vt -1.249131 0.1937251
vt 0.9706181 0.09159194
vt 0.3716737 1.249131
vt 0.245128 1.093663
vt -1.093663 0.05542691
vt -1.093663 0.05542691
vt 0.9415456 0.05002107
vt 0.9415456 0.05002107
vt 0.09203226 1
vt 1.249131 0.05129157
vt 1.249131 0.05129157
vt 0.9761099 0.07915479
vt 0.9761099 0.07915479
vt 0.4326035 1.249131
vt 1.249131 0.2206293
vt 0.4326035 1.249131
vt 1.249131 0.2206293
vt 1.249131 0.07905052
vt 1.249131 0.07905052
vt 1.044279 0.1235657
vt 1.044279 0.1235657
vt 0.4587331 1.044279
vt 0.4587331 1.044279
vt 0.4587331 1.044279
vt 1.159545 0.05129157
vt 1.159545 0.05129157
vt 0.1060029 0.9286143
vt 1.152655 0.05576435
vt 1.152655 0.05576435
vt 1.152655 0.05576435
vt 1.152655 0.05576435
vt 1.152655 0.05576435
vt 1.152655 0.05576435
vt 0.4800381 1.035704
vt 0.4800381 1.035704
vt 1.035704 0.09691714
vt 1.035704 0.09691714
vt 0.3933297 0.9624252
vt 0.2210929 0.7715415
vt 0.3933297 0.9624252
vt 0.3933297 0.05129158
vt 0.4403605 0.9870402
vt 0.4403605 0.9870402
vt 0.4403605 0.08510815
vt 0.4403605 0.08510815
vt 0.988776 0.07886653
vt 0.4494499 0.07886653
vt 0.1864334 0.7853038
vt 0.1864334 0.7853038
vt 0.9796963 0.05129158
vt 0.9796963 0.05129158
vt 0.4422085 0.05129158
vt 0.4422085 0.05129158
vn 0.8690529 -0.4720184 0.1481405
vn 0.8690529 -0.4720184 0.1481405
vn 0.8381527 0.251852 0.4838085
vn 0.363447 -0.4363647 0.8230991
vn 0.8690529 -0.4720184 0.1481405
vn 0 0 -1
vn 0 1 0
vn 0 1 0
vn 0.3634492 -0.436363 0.8230991
vn 0 0 -1
vn -0.8505771 -0.187063 0.4914531
vn -0.7276444 -0.2157178 0.6511524
vn 0 0 -1
vn -0.5325998 -0.5831165 0.6134433
vn -0.5325998 -0.5831165 0.6134433
vn -0.8449197 -0.5328762 -0.04640874
vn 0.363447 -0.4363647 0.8230991
vn 0.3634488 -0.4363634 0.823099
vn 0.3634492 -0.436363 0.8230991
vn 0 0 -1
vn 0.3634492 -0.4363631 0.823099
vn 0.8381515 0.2518517 0.4838108
vn 0 0 -1
vn 0 0 -1
vn 0 0 -1
vn 0 0 -1
vn 0 0 -1
vn 0.8381515 0.2518517 0.4838108
vn 0 0 -1
vn 0 1 0
vn 0 1 0
vn 0.8381527 0.251852 0.4838085
vn 0 1 0
vn 0.3634488 -0.4363634 0.823099
vn 0.363447 -0.4363647 0.8230991
vn 0.8381527 0.251852 0.4838085
vn 0.8381515 0.2518517 0.4838108
vn 0 1 0
vn 0 1 0
vn 0 0 -1
vn -0.8505771 -0.187063 0.4914531
vn -0.8505756 -0.1870625 0.4914559
vn 0 1 0
vn 0 1 0
vn 0.3634488 -0.4363634 0.823099
vn -0.7276445 -0.2157175 0.6511524
vn 0.3634492 -0.436363 0.8230991
vn -0.7276444 -0.2157177 0.6511525
vn -0.8505771 -0.187063 0.4914531
vn -0.7276445 -0.2157175 0.6511524
vn -0.7276444 -0.2157177 0.6511525
vn -0.7276444 -0.2157178 0.6511524
vn -0.5326 -0.5831166 0.613443
vn 0.3634492 -0.4363631 0.823099
vn 0.363449 -0.4363632 0.823099
vn -0.8505756 -0.1870625 0.4914559
vn -0.8449197 -0.5328762 -0.04640874
vn 0 0 -1
vn -0.8505756 -0.1870625 0.4914559
vn -0.7276445 -0.2157175 0.6511524
vn -0.7276444 -0.2157177 0.6511525
vn -0.7276444 -0.2157178 0.6511524
vn -0.8449197 -0.5328762 -0.04640874
vn -0.8449193 -0.5328756 -0.04642235
vn -0.5325998 -0.5831165 0.6134433
vn -0.5326 -0.5831166 0.613443
vn -0.8449193 -0.5328756 -0.04642235
vn -0.844919 -0.5328763 -0.04642127
vn 0.3634492 -0.4363631 0.823099
vn 0 0 -1
vn 0.363449 -0.4363632 0.823099
vn -0.3251751 -0.920272 0.2176249
vn -0.5326 -0.5831166 0.613443
vn 0.363449 -0.4363632 0.823099
vn -0.3251751 -0.920272 0.2176249
vn -0.3251778 -0.920271 0.2176249
vn -0.844919 -0.5328763 -0.04642127
vn -0.3251778 -0.920271 0.2176249
vn 0 0 -1
vn 0 0 -1
vn -0.8449193 -0.5328756 -0.04642235
vn -0.844919 -0.5328763 -0.04642127
vn -0.3251751 -0.920272 0.2176249
vn -0.3251778 -0.920271 0.2176249
g wall__sh_4_0
f 29/29/29 23/23/23 6/6/6
f 33/33/33 30/30/30 7/7/7
f 43/43/43 31/31/31 38/38/38
f 44/44/44 39/39/39 8/8/8
f 10/10/10 40/40/40 24/24/24
f 25/25/25 20/20/20 13/13/13
f 79/79/79 58/58/58 26/26/26
f 27/27/27 70/70/70 80/80/80
f 1/1/1 2/2/2 5/5/5
f 4/4/4 17/17/17 35/35/35
f 3/3/3 32/32/32 36/36/36
f 37/37/37 22/22/22 28/28/28
f 18/18/18 34/34/34 45/45/45
f 11/11/11 49/49/49 41/41/41
f 56/56/56 59/59/59 42/42/42
f 46/46/46 50/50/50 60/60/60
f 19/19/19 47/47/47 9/9/9
f 51/51/51 48/48/48 61/61/61
f 62/62/62 12/12/12 52/52/52
f 14/14/14 65/65/65 15/15/15
f 53/53/53 66/66/66 73/73/73
f 69/69/69 21/21/21 54/54/54
f 63/63/63 57/57/57 16/16/16
f 71/71/71 55/55/55 74/74/74
f 67/67/67 64/64/64 81/81/81
f 77/77/77 68/68/68 82/82/82
f 83/83/83 72/72/72 75/75/75
f 76/76/76 78/78/78 84/84/84
