g wall__sh_44
v -0.3174093 -0.1855208 0.4159477
v -0.1899557 -0.5423112 0.008353591
v -0.1414888 -0.5904559 -0.0566957
v -0.1744202 -0.6051792 -0.4159476
v 0.4773771 0.1542631 0.4159477
v 0.3811176 0.03294802 0.4159477
v 0.007466972 -0.3759485 -0.4159476
v -0.3136249 -0.4888668 -0.4159476
v -0.2033826 -0.00490427 -0.4159476
v -0.4773771 -0.2955776 0.06430745
v -0.4720663 -0.3240552 -0.1401591
v -0.1038243 0.5677639 0.4159477
v -0.2238022 0.1686789 -0.3315716
v -0.1322492 0.6050019 0.3202165
v -0.4106201 0.1998323 -0.0586955
v -0.4053017 0.303321 0.1150917
v -0.3843354 -0.136489 0.4159477
v -0.4702781 -0.1651481 0.2741749
v -0.3421484 0.1392192 0.4159477
v -0.4349196 0.1153837 0.2610222
v -0.1146213 0.6051792 0.2998898
v -0.0205372 0.5745496 0.1364779
v 0.3710474 0.3413777 0.4159477
v 0.234144 0.4573692 0.4159477
v 0.2630324 0.4492894 0.3655803
v 0.2344811 0.458788 0.4107114
v -0.3174093 -0.1855208 0.4159477
v -0.3174093 -0.1855208 0.4159477
v -0.3174093 -0.1855208 0.4159477
v -0.3174093 -0.1855208 0.4159477
v -0.3174093 -0.1855208 0.4159477
v -0.1899557 -0.5423112 0.008353591
v -0.1899557 -0.5423112 0.008353591
v -0.1899557 -0.5423112 0.008353591
v -0.1899557 -0.5423112 0.008353591
v -0.1899557 -0.5423112 0.008353591
v -0.1414888 -0.5904559 -0.0566957
v -0.1414888 -0.5904559 -0.0566957
v -0.1414888 -0.5904559 -0.0566957
v -0.1414888 -0.5904559 -0.0566957
v -0.1744202 -0.6051792 -0.4159476
v -0.1744202 -0.6051792 -0.4159476
v 0.4773771 0.1542631 0.4159477
v 0.4773771 0.1542631 0.4159477
v 0.4773771 0.1542631 0.4159477
v 0.4773771 0.1542631 0.4159477
v 0.4773771 0.1542631 0.4159477
v 0.4773771 0.1542631 0.4159477
v 0.4773771 0.1542631 0.4159477
v 0.3811176 0.03294802 0.4159477
v 0.3811176 0.03294802 0.4159477
v 0.3811176 0.03294802 0.4159477
v 0.3811176 0.03294802 0.4159477
v 0.007466972 -0.3759485 -0.4159476
v 0.007466972 -0.3759485 -0.4159476
v 0.007466972 -0.3759485 -0.4159476
v 0.007466972 -0.3759485 -0.4159476
v 0.007466972 -0.3759485 -0.4159476
v -0.3136249 -0.4888668 -0.4159476
v -0.3136249 -0.4888668 -0.4159476
v -0.3136249 -0.4888668 -0.4159476
v -0.3136249 -0.4888668 -0.4159476
v -0.3136249 -0.4888668 -0.4159476
v -0.2033826 -0.00490427 -0.4159476
v -0.2033826 -0.00490427 -0.4159476
v -0.2033826 -0.00490427 -0.4159476
v -0.2033826 -0.00490427 -0.4159476
v -0.2033826 -0.00490427 -0.4159476
v -0.2033826 -0.00490427 -0.4159476
v -0.4773771 -0.2955776 0.06430745
v -0.4773771 -0.2955776 0.06430745
v -0.4773771 -0.2955776 0.06430745
v -0.4720663 -0.3240552 -0.1401591
v -0.4720663 -0.3240552 -0.1401591
v -0.4720663 -0.3240552 -0.1401591
v -0.4720663 -0.3240552 -0.1401591
v -0.4720663 -0.3240552 -0.1401591
v -0.4720663 -0.3240552 -0.1401591
v -0.1038243 0.5677639 0.4159477
v -0.1038243 0.5677639 0.4159477
v -0.1038243 0.5677639 0.4159477
v -0.1038243 0.5677639 0.4159477
v -0.2238022 0.1686789 -0.3315716
v -0.2238022 0.1686789 -0.3315716
v -0.2238022 0.1686789 -0.3315716
v -0.1322492 0.6050019 0.3202165
v -0.1322492 0.6050019 0.3202165
v -0.1322492 0.6050019 0.3202165
v -0.1322492 0.6050019 0.3202165
v -0.4106201 0.1998323 -0.0586955
v -0.4106201 0.1998323 -0.0586955
v -0.4106201 0.1998323 -0.0586955
v -0.4106201 0.1998323 -0.0586955
v -0.4106201 0.1998323 -0.0586955
v -0.4053017 0.303321 0.1150917
v -0.4053017 0.303321 0.1150917
v -0.4053017 0.303321 0.1150917
v -0.4053017 0.303321 0.1150917
v -0.4053017 0.303321 0.1150917
v -0.3843354 -0.136489 0.4159477
v -0.3843354 -0.136489 0.4159477
v -0.3843354 -0.136489 0.4159477
v -0.3843354 -0.136489 0.4159477
v -0.3843354 -0.136489 0.4159477
v -0.4702781 -0.1651481 0.2741749
v -0.4702781 -0.1651481 0.2741749
v -0.4702781 -0.1651481 0.2741749
v -0.4702781 -0.1651481 0.2741749
v -0.4702781 -0.1651481 0.2741749
v -0.3421484 0.1392192 0.4159477
v -0.3421484 0.1392192 0.4159477
v -0.3421484 0.1392192 0.4159477
v -0.3421484 0.1392192 0.4159477
v -0.4349196 0.1153837 0.2610222
v -0.4349196 0.1153837 0.2610222
v -0.4349196 0.1153837 0.2610222
v -0.4349196 0.1153837 0.2610222
v -0.1146213 0.6051792 0.2998898
v -0.1146213 0.6051792 0.2998898
v -0.1146213 0.6051792 0.2998898
v -0.1146213 0.6051792 0.2998898
v -0.0205372 0.5745496 0.1364779
v -0.0205372 0.5745496 0.1364779
v -0.0205372 0.5745496 0.1364779
v -0.0205372 0.5745496 0.1364779
v -0.0205372 0.5745496 0.1364779
v -0.0205372 0.5745496 0.1364779
v -0.0205372 0.5745496 0.1364779
v 0.3710474 0.3413777 0.4159477
v 0.3710474 0.3413777 0.4159477
v 0.3710474 0.3413777 0.4159477
v 0.3710474 0.3413777 0.4159477
v 0.234144 0.4573692 0.4159477
v 0.234144 0.4573692 0.4159477
v 0.234144 0.4573692 0.4159477
v 0.234144 0.4573692 0.4159477
v 0.234144 0.4573692 0.4159477
v 0.234144 0.4573692 0.4159477
v 0.2630324 0.4492894 0.3655803
v 0.2630324 0.4492894 0.3655803
v 0.2630324 0.4492894 0.3655803
v 0.2344811 0.458788 0.4107114
v 0.2344811 0.458788 0.4107114
v 0.2344811 0.458788 0.4107114
vt 0.2715653 0.1690084
vt 0.2897775 0.1590644
vt 0.2774668 0.1425418
vt -0.09967884 0.05129162
vt 0.4147142 0.2377799
vt 0.3973769 0.213226
vt -0.1579036 0.05129161
vt 0.3211895 0.05129161
vt -0.252149 0.05129161
vt 0.3627826 0.1732766
vt 0.3614337 0.121342
vt 0.397607 0.2625934
vt 0.2962392 0.07272317
vt 0.4070655 0.2382777
vt 0.3041521 0.1420338
vt 0.3304383 0.1861759
vt 0.2595114 0.1789322
vt 0.2114469 0.2265831
vt 0.2887564 0.2625934
vt 0.2827021 0.2232423
vt -0.2706424 0.2331147
vt -0.246745 0.191608
vt -0.3401048 0.2625934
vt -0.1820559 0.2625934
vt -0.3675144 0.2498001
vt -0.1819702 0.2612634
vt 0.3221507 0.2625934
vt 0.3221507 0.2625934
vt 0.2715653 0.1690084
vt 0.3221507 0.2625934
vt 0.3221507 0.2625934
vt 0.2897775 0.1590644
vt 0.2897775 0.1590644
vt 0.2897775 0.1590644
vt 0.2897775 0.1590644
vt 0.2897775 0.1590644
vt -0.1034186 0.1425418
vt -0.1034186 0.1425418
vt 0.2774668 0.1425418
vt 0.2774668 0.1425418
vt 0.2858314 0.05129162
vt 0.2973191 0.08407032
vt -0.2925776 0.2625934
vt -0.2925776 0.2625934
vt 0.4147142 0.2377799
vt 0.4147142 0.2377799
vt -0.2925776 0.2625934
vt 0.4147142 0.2377799
vt 0.4147142 0.2377799
vt 0.1447245 0.2625934
vt 0.1447245 0.2625934
vt -0.2617635 0.2625934
vt -0.2617635 0.2625934
vt -0.1579036 0.05129161
vt -0.1579036 0.05129161
vt 0.3300788 0.1304662
vt -0.1579036 0.05129161
vt 0.3300788 0.1304662
vt 0.272247 0.1076117
vt 0.3211895 0.05129161
vt 0.272247 0.1076117
vt 0.3211895 0.05129161
vt 0.1292222 0.05129161
vt 0.2921027 0.2055648
vt 0.252149 0.05129161
vt 0.252149 0.05129161
vt -0.252149 0.05129161
vt -0.252149 0.05129161
vt -0.252149 0.05129161
vt 0.3627826 0.1732766
vt 0.1783178 0.1732766
vt 0.3627826 0.1732766
vt 0.3614337 0.121342
vt 0.1710845 0.121342
vt 0.1710845 0.121342
vt 0.1710845 0.121342
vt 0.1710845 0.121342
vt 0.1710845 0.121342
vt 0.310034 0.3214716
vt 0.310034 0.3214716
vt -0.2679 0.2625934
vt 0.310034 0.3214716
vt 0.2962392 0.07272317
vt -0.2983745 0.07272319
vt -0.2962392 0.07272317
vt 0.4070655 0.2382777
vt -0.2751199 0.2382777
vt -0.2751199 0.2382777
vt -0.2751199 0.2382777
vt 0.3041521 0.1420338
vt 0.3041521 0.1420338
vt 0.3041521 0.1420338
vt -0.3458263 0.1420339
vt -0.3458263 0.1420339
vt 0.3304383 0.1861759
vt 0.3304383 0.1861759
vt -0.3444754 0.1861759
vt -0.3444754 0.1861759
vt -0.3444754 0.1861759
vt 0.2595114 0.1789322
vt 0.2595114 0.1789322
vt 0.33915 0.2625934
vt 0.2187264 0.2625934
vt 0.2187264 0.2625934
vt 0.3609795 0.2265831
vt 0.3609795 0.2265831
vt 0.2114469 0.2265831
vt 0.2114469 0.2265831
vt 0.2114469 0.2265831
vt 0.2671096 0.2347351
vt 0.2887564 0.2625934
vt 0.2887564 0.2625934
vt 0.2887564 0.2625934
vt 0.2827021 0.2232423
vt 0.2827021 0.2232423
vt 0.2827021 0.2232423
vt 0.2827021 0.2232423
vt -0.2706424 0.2331147
vt -0.2706424 0.2331147
vt -0.2706424 0.2331147
vt -0.2706424 0.2331147
vt -0.3993305 0.191608
vt -0.246745 0.191608
vt -0.246745 0.191608
vt -0.246745 0.191608
vt -0.3993305 0.191608
vt -0.3993305 0.191608
vt -0.246745 0.191608
vt -0.3401048 0.2625934
vt -0.3401048 0.2625934
vt 0.3955632 0.2756515
vt -0.1472823 0.2625934
vt 0.3709055 0.2991279
vt 0.3709055 0.2991279
vt -0.1820559 0.2625934
vt -0.1820559 0.2625934
vt -0.1820559 0.2625934
vt -0.1820559 0.2625934
vt -0.1747182 0.2498001
vt -0.1747182 0.2498001
vt -0.1747182 0.2498001
vt -0.1819702 0.2612634
vt -0.1819702 0.2612634
vt -0.1819702 0.2612634
vn 0 0 1
vn 0.2187136 -0.6993096 0.6805368
vn 0.2187139 -0.6993097 0.6805366
vn 0.7825192 -0.6209038 -0.04628429
vn 0 0 1
vn 0 0 1
vn 0.7825197 -0.6209031 -0.04628451
vn -0.6385937 -0.7642796 0.08986048
vn 0.6769222 0.3846678 -0.6275404
vn -0.6385936 -0.7642797 0.0898601
vn -0.6385936 -0.7642797 0.0898601
vn -0.7974018 0.4434546 0.4092657
vn -0.8014411 0.182561 -0.5695294
vn -0.7974018 0.4434546 0.4092657
vn -0.8014411 0.182561 -0.5695294
vn -0.9914851 0.1229584 -0.04287824
vn 0 0 1
vn -0.9914854 0.122956 -0.04287762
vn -0.7974018 0.4434546 0.4092657
vn -0.9914852 0.1229575 -0.04287848
vn -0.5039299 0.7488188 -0.4304942
vn -0.50393 0.7488189 -0.4304937
vn 0.6769223 0.3846677 -0.6275404
vn 0.2991866 0.9159456 0.2674531
vn 0.6769223 0.3846684 -0.6275401
vn 0.3749229 0.9260916 0.04227617
vn 0.2187136 -0.6993096 0.6805368
vn -0.5240533 -0.715308 0.4622797
vn 0 0 1
vn -0.5240532 -0.7153081 0.4622798
vn -0.5240534 -0.7153078 0.46228
vn 0.2187139 -0.6993097 0.6805366
vn -0.6385933 -0.7642798 0.08986028
vn -0.6385936 -0.7642797 0.0898601
vn -0.6385937 -0.7642795 0.08986042
vn -0.5240533 -0.715308 0.4622797
vn 0.7825193 -0.6209037 -0.04628406
vn 0.7825192 -0.6209038 -0.04628429
vn -0.6385937 -0.7642796 0.08986048
vn -0.6385933 -0.7642798 0.08986028
vn -0.6385937 -0.7642796 0.08986048
vn 0 0 -1
vn 0.7825197 -0.6209031 -0.04628451
vn 0.6769222 0.3846678 -0.6275404
vn 0 0 1
vn 0 0 1
vn 0.6769223 0.3846677 -0.6275404
vn 0 0 1
vn 0 0 1
vn 0.2187136 -0.6993096 0.6805368
vn 0.2187139 -0.6993097 0.6805366
vn 0.7825197 -0.6209031 -0.04628451
vn 0.7825193 -0.6209037 -0.04628406
vn 0.7825193 -0.6209037 -0.04628406
vn 0.7825192 -0.6209038 -0.04628429
vn 0 0 -1
vn 0.6769222 0.3846678 -0.6275404
vn 0 0 -1
vn 0 0 -1
vn -0.6385933 -0.7642798 0.08986028
vn 0 0 -1
vn -0.6385937 -0.7642795 0.08986042
vn -0.8014411 0.182561 -0.5695294
vn 0 0 -1
vn -0.8014411 0.182561 -0.5695294
vn -0.8014411 0.182561 -0.5695294
vn 0.6769221 0.3846678 -0.6275405
vn 0.6769223 0.3846677 -0.6275404
vn 0.6769222 0.3846678 -0.6275405
vn -0.5240533 -0.715308 0.4622797
vn -0.9914854 0.122956 -0.04287762
vn -0.5240532 -0.7153081 0.4622798
vn -0.6385937 -0.7642795 0.08986042
vn -0.8014411 0.182561 -0.5695294
vn -0.8014411 0.182561 -0.5695294
vn -0.8014411 0.182561 -0.5695294
vn -0.9914854 0.122956 -0.04287762
vn -0.9914852 0.1229577 -0.04287829
vn 0 0 1
vn 0 0 1
vn 0.2991866 0.9159456 0.2674531
vn 0 0 1
vn -0.8014411 0.182561 -0.5695294
vn -0.50393 0.7488189 -0.4304937
vn 0.6769221 0.3846678 -0.6275405
vn -0.7974015 0.4434545 0.4092663
vn -0.5039299 0.7488188 -0.4304942
vn 0.2991866 0.9159456 0.2674531
vn 0.2991869 0.9159457 0.2674524
vn -0.9914852 0.1229577 -0.04287829
vn -0.9914852 0.1229575 -0.04287848
vn -0.9914851 0.1229584 -0.04287824
vn -0.50393 0.7488189 -0.4304937
vn -0.5039303 0.748819 -0.4304931
vn -0.7974015 0.4434545 0.4092663
vn -0.7974007 0.4434557 0.4092667
vn -0.5039299 0.7488188 -0.4304942
vn -0.5039303 0.748819 -0.4304931
vn -0.5039301 0.7488188 -0.430494
vn 0 0 1
vn 0 0 1
vn -0.5240534 -0.7153078 0.46228
vn -0.85928 0.1314812 0.4943184
vn -0.8592804 0.1314807 0.4943178
vn -0.5240532 -0.7153081 0.4622798
vn -0.5240534 -0.7153078 0.46228
vn -0.9914852 0.1229577 -0.04287829
vn -0.9914852 0.1229575 -0.04287848
vn -0.8592804 0.1314807 0.4943178
vn 0 0 1
vn -0.7974015 0.4434545 0.4092663
vn -0.7974007 0.4434557 0.4092667
vn -0.85928 0.1314812 0.4943184
vn -0.9914851 0.1229584 -0.04287824
vn -0.7974007 0.4434557 0.4092667
vn -0.85928 0.1314812 0.4943184
vn -0.8592804 0.1314807 0.4943178
vn -0.5039301 0.7488188 -0.430494
vn 0.3749229 0.9260916 0.04227617
vn 0.2991869 0.9159457 0.2674524
vn 0.2991883 0.9159459 0.2674502
vn 0.6769221 0.3846678 -0.6275405
vn -0.5039303 0.748819 -0.4304931
vn -0.5039301 0.7488188 -0.430494
vn 0.3749229 0.9260916 0.04227617
vn 0.6769222 0.3846678 -0.6275405
vn 0.6769223 0.3846684 -0.6275401
vn 0.3749231 0.9260915 0.04227606
vn 0.6769222 0.3846678 -0.6275405
vn 0.6769223 0.3846684 -0.6275401
vn 0 0 1
vn 0.627369 0.7404764 0.2410453
vn 0 0 1
vn 0 0 1
vn 0.2991869 0.9159457 0.2674524
vn 0.2991883 0.9159459 0.2674502
vn 0.627369 0.7404764 0.2410453
vn 0.6273559 0.7404907 0.2410355
vn 0.3749231 0.9260915 0.04227606
vn 0.627369 0.7404764 0.2410453
vn 0.6273559 0.7404907 0.2410355
vn 0.2991883 0.9159459 0.2674502
vn 0.3749231 0.9260915 0.04227606
vn 0.6273559 0.7404907 0.2410355
g wall__sh_44_0
f 6/6/6 5/5/5 1/1/1
f 56/56/56 42/42/42 59/59/59
f 64/64/64 58/58/58 61/61/61
f 17/17/17 29/29/29 45/45/45
f 100/100/100 46/46/46 79/79/79
f 80/80/80 110/110/110 101/101/101
f 133/133/133 82/82/82 48/48/48
f 49/49/49 131/131/131 134/134/134
f 50/50/50 27/27/27 2/2/2
f 51/51/51 32/32/32 3/3/3
f 7/7/7 43/43/43 52/52/52
f 54/54/54 53/53/53 37/37/37
f 38/38/38 4/4/4 55/55/55
f 41/41/41 39/39/39 8/8/8
f 44/44/44 57/57/57 9/9/9
f 60/60/60 40/40/40 33/33/33
f 11/11/11 34/34/34 10/10/10
f 62/62/62 35/35/35 73/73/73
f 65/65/65 63/63/63 74/74/74
f 70/70/70 36/36/36 28/28/28
f 13/13/13 66/66/66 75/75/75
f 83/83/83 76/76/76 15/15/15
f 77/77/77 71/71/71 18/18/18
f 19/19/19 12/12/12 14/14/14
f 105/105/105 72/72/72 30/30/30
f 31/31/31 102/102/102 106/106/106
f 90/90/90 78/78/78 107/107/107
f 91/91/91 108/108/108 20/20/20
f 114/114/114 16/16/16 92/92/92
f 111/111/111 86/86/86 95/95/95
f 112/112/112 96/96/96 115/115/115
f 103/103/103 113/113/113 116/116/116
f 117/117/117 109/109/109 104/104/104
f 22/22/22 84/84/84 93/93/93
f 97/97/97 87/87/87 21/21/21
f 67/67/67 85/85/85 122/122/122
f 123/123/123 94/94/94 98/98/98
f 124/124/124 99/99/99 118/118/118
f 23/23/23 47/47/47 68/68/68
f 88/88/88 81/81/81 24/24/24
f 125/125/125 119/119/119 26/26/26
f 129/129/129 69/69/69 126/126/126
f 127/127/127 25/25/25 130/130/130
f 120/120/120 89/89/89 135/135/135
f 136/136/136 142/142/142 121/121/121
f 139/139/139 128/128/128 143/143/143
f 137/137/137 132/132/132 140/140/140
f 141/141/141 144/144/144 138/138/138
