g wall__sh_77
v 0.05655783 -0.4703774 0.3621439
v -0.1249713 -0.610343 0.3621439
v 0.5505891 -0.08946145 0.3621439
v 0.1329638 0.1644139 -0.3621439
v 0.3693612 0.2127013 -0.1936319
v 0.3188581 0.4950058 0.3621439
v -0.4547815 -0.1178398 0.3621439
v -0.4761215 0.003643274 0.3621439
v -0.4593046 0.610343 0.3621439
v -0.2744455 0.3540826 -0.1006896
v -0.5138291 0.2550964 0.1843325
v -0.5505891 0.4275672 0.3621439
v -0.4674811 0.6004746 0.3621439
v -0.4605462 0.6081378 0.3573121
v 0.05655783 -0.4703774 0.3621439
v 0.05655783 -0.4703774 0.3621439
v 0.05655783 -0.4703774 0.3621439
v 0.05655783 -0.4703774 0.3621439
v -0.1249713 -0.610343 0.3621439
v -0.1249713 -0.610343 0.3621439
v 0.5505891 -0.08946145 0.3621439
v 0.5505891 -0.08946145 0.3621439
v 0.5505891 -0.08946145 0.3621439
v 0.5505891 -0.08946145 0.3621439
v 0.1329638 0.1644139 -0.3621439
v 0.1329638 0.1644139 -0.3621439
v 0.1329638 0.1644139 -0.3621439
v 0.1329638 0.1644139 -0.3621439
v 0.1329638 0.1644139 -0.3621439
v 0.1329638 0.1644139 -0.3621439
v 0.3693612 0.2127013 -0.1936319
v 0.3693612 0.2127013 -0.1936319
v 0.3188581 0.4950058 0.3621439
v 0.3188581 0.4950058 0.3621439
v 0.3188581 0.4950058 0.3621439
v 0.3188581 0.4950058 0.3621439
v 0.3188581 0.4950058 0.3621439
v 0.3188581 0.4950058 0.3621439
v -0.4547815 -0.1178398 0.3621439
v -0.4547815 -0.1178398 0.3621439
v -0.4547815 -0.1178398 0.3621439
v -0.4547815 -0.1178398 0.3621439
v -0.4547815 -0.1178398 0.3621439
v -0.4761215 0.003643274 0.3621439
v -0.4761215 0.003643274 0.3621439
v -0.4761215 0.003643274 0.3621439
v -0.4761215 0.003643274 0.3621439
v -0.4761215 0.003643274 0.3621439
v -0.4761215 0.003643274 0.3621439
v -0.4593046 0.610343 0.3621439
v -0.4593046 0.610343 0.3621439
v -0.4593046 0.610343 0.3621439
v -0.4593046 0.610343 0.3621439
v -0.2744455 0.3540826 -0.1006896
v -0.2744455 0.3540826 -0.1006896
v -0.2744455 0.3540826 -0.1006896
v -0.2744455 0.3540826 -0.1006896
v -0.5138291 0.2550964 0.1843325
v -0.5138291 0.2550964 0.1843325
v -0.5138291 0.2550964 0.1843325
v -0.5138291 0.2550964 0.1843325
v -0.5505891 0.4275672 0.3621439
v -0.5505891 0.4275672 0.3621439
v -0.5505891 0.4275672 0.3621439
v -0.5505891 0.4275672 0.3621439
v -0.4674811 0.6004746 0.3621439
v -0.4674811 0.6004746 0.3621439
v -0.4605462 0.6081378 0.3573121
v -0.4605462 0.6081378 0.3573121
v -0.4605462 0.6081378 0.3573121
v -0.4605462 0.6081378 0.3573121
v -0.4605462 0.6081378 0.3573121
vt -0.2476684 0.2625934
vt -0.2015599 0.2625934
vt -0.4980102 0.2625934
vt -0.2670756 0.07862395
vt -0.5747597 0.1214261
vt -0.6464652 0.2625934
vt 0.5835226 0.3957331
vt 0.579679 0.4203211
vt 0.5827078 0.5431158
vt 0.1635934 0.6106706
vt 0.5855281 0.2174292
vt 0.5662666 0.5061223
vt 0.5812352 0.5411184
vt 0.1163237 0.2613662
vt -0.2476684 0.2625934
vt 0.6756197 0.3243804
vt 0.6756197 0.3243804
vt 0.6756197 0.3243802
vt 0.6429245 0.2960516
vt 0.2015599 0.365706
vt -0.3731526 0.2625934
vt -0.3731526 0.2625934
vt 0.7645997 0.4014769
vt 0.7645997 0.4014769
vt -0.2670756 0.07862395
vt -0.2670756 0.07862395
vt 0.2670756 0.07862393
vt 0.2670756 0.5624946
vt 0.2670756 0.5624946
vt 0.2670756 0.07862393
vt -0.3271206 0.1214261
vt 0.3271206 0.121426
vt 0.3142928 0.2625934
vt 0.7228627 0.5197718
vt 0.7228627 0.5197718
vt 0.3142928 0.2625934
vt 0.3142928 0.2625934
vt 0.3142928 0.2625934
vt 0.5835226 0.3957331
vt 0.117788 0.4908021
vt 0.117788 0.4908021
vt 0.4908021 0.2625934
vt 0.117788 0.4908021
vt 0.5796789 0.420321
vt 0.5796789 0.420321
vt 0.5796789 0.420321
vt 0.5796789 0.420321
vt 0.5216588 0.2625934
vt 0.5216588 0.2625934
vt 0.5827078 0.5431158
vt 0.5827078 0.5431158
vt 0.1166391 0.2625934
vt 0.6757609 0.2625934
vt 0.1635934 0.1450335
vt 0.1635934 0.6106706
vt 0.1635934 0.1450335
vt 0.6106706 0.1450335
vt 0.1027899 0.5855281
vt 0.5855281 0.2174292
vt 0.5855281 0.2174292
vt 0.5855281 0.2174292
vt 0.5662666 0.5061223
vt 0.6293358 0.2625934
vt 0.6293358 0.2625934
vt 0.6293358 0.2625934
vt 0.6732543 0.2625934
vt 0.6732543 0.2625934
vt 0.6752008 0.2613662
vt 0.1163237 0.2613662
vt 0.6752008 0.2613662
vt 0.6752008 0.2613662
vt 0.6752008 0.2613662
vn 0.5167091 -0.6701491 -0.5328339
vn 0.5167091 -0.6701491 -0.5328339
vn 0.9247321 0.3666401 -0.1022036
vn 0.5167091 -0.6701491 -0.5328339
vn 0.9247321 0.3666401 -0.1022036
vn 0.9247321 0.3666401 -0.1022036
vn 0 0 1
vn 0 0 1
vn 0 0 1
vn -0.6203424 -0.415419 -0.6652837
vn -0.984289 -0.1729023 -0.03577761
vn 0 0 1
vn 0 0 1
vn 0.131705 0.8885942 -0.4393792
vn 0.5167091 -0.670149 -0.5328339
vn 0 0 1
vn 0 0 1
vn 0 0 1
vn 0 0 1
vn -0.6203424 -0.4154191 -0.6652837
vn 0.5167091 -0.670149 -0.5328339
vn 0.5167089 -0.6701492 -0.5328339
vn 0 0 1
vn 0 0 1
vn 0.5167091 -0.670149 -0.5328339
vn 0.5167089 -0.6701492 -0.5328339
vn 0.1317041 0.8885899 -0.4393884
vn -0.6203424 -0.4154191 -0.6652837
vn -0.6203424 -0.415419 -0.6652837
vn 0.1317045 0.8885898 -0.4393885
vn 0.5167089 -0.6701492 -0.5328339
vn 0.1317041 0.8885899 -0.4393884
vn 0.1317041 0.8885899 -0.4393884
vn 0 0 1
vn 0 0 1
vn 0.1317045 0.8885898 -0.4393885
vn 0.131705 0.8885942 -0.4393792
vn 0.1317044 0.8885898 -0.4393884
vn 0 0 1
vn -0.6203424 -0.4154191 -0.6652837
vn -0.6203424 -0.415419 -0.6652837
vn -0.984289 -0.1729023 -0.03577761
vn -0.6203426 -0.4154188 -0.6652836
vn 0 0 1
vn 0 0 1
vn 0 0 1
vn 0 0 1
vn -0.984289 -0.1729023 -0.03577761
vn -0.9842889 -0.1729028 -0.03577834
vn 0 0 1
vn 0 0 1
vn 0.131705 0.8885942 -0.4393792
vn -0.7666985 0.6352501 -0.0929019
vn 0.1317045 0.8885898 -0.4393885
vn -0.6203426 -0.4154188 -0.6652836
vn 0.1317044 0.8885898 -0.4393884
vn -0.7706256 0.3704017 -0.518593
vn -0.6203426 -0.4154188 -0.6652836
vn -0.9842889 -0.1729028 -0.03577834
vn -0.7706256 0.3704017 -0.518593
vn -0.7706259 0.3704017 -0.5185928
vn 0 0 1
vn -0.9842889 -0.1729028 -0.03577834
vn -0.7706259 0.3704017 -0.5185928
vn -0.770627 0.3704022 -0.5185907
vn -0.7666985 0.6352501 -0.0929019
vn -0.770627 0.3704022 -0.5185907
vn -0.7666985 0.6352501 -0.0929019
vn 0.1317044 0.8885898 -0.4393884
vn -0.7706256 0.3704017 -0.518593
vn -0.7706259 0.3704017 -0.5185928
vn -0.770627 0.3704022 -0.5185907
g wall__sh_77_0
f 7/7/7 16/16/16 8/8/8
f 19/19/19 17/17/17 39/39/39
f 44/44/44 18/18/18 23/23/23
f 45/45/45 24/24/24 34/34/34
f 46/46/46 35/35/35 9/9/9
f 12/12/12 47/47/47 50/50/50
f 13/13/13 62/62/62 51/51/51
f 1/1/1 2/2/2 4/4/4
f 5/5/5 6/6/6 3/3/3
f 21/21/21 15/15/15 25/25/25
f 31/31/31 22/22/22 26/26/26
f 33/33/33 32/32/32 27/27/27
f 28/28/28 20/20/20 40/40/40
f 10/10/10 29/29/29 41/41/41
f 11/11/11 42/42/42 48/48/48
f 36/36/36 30/30/30 54/54/54
f 14/14/14 52/52/52 37/37/37
f 68/68/68 66/66/66 53/53/53
f 55/55/55 43/43/43 58/58/58
f 59/59/59 49/49/49 63/63/63
f 69/69/69 38/38/38 56/56/56
f 70/70/70 57/57/57 60/60/60
f 71/71/71 61/61/61 64/64/64
f 65/65/65 67/67/67 72/72/72
