g wall__sh_80
v -0.2169595 -0.2944574 -0.4159476
v 0.3120359 0.4627595 0.4159477
v -0.3149438 0.1808431 -0.4159476
v 0.2226262 0.3246818 -0.4159476
v 0.2283123 0.5139186 0.4159477
v 0.1777669 0.5122025 0.4159477
v 0.2752764 0.4857407 0.284932
v 0.08784032 0.3201058 -0.4159476
v -0.3185758 -0.32425 -0.04688567
v 0.4485184 0.193583 0.4159477
v 0.2747275 -0.1833267 0.4159477
v -0.4776654 0.2262397 0.1093075
v -0.5046764 -0.07019472 0.4111164
v -0.503435 -0.06798959 0.4159477
v 0.4620707 -0.1475611 -0.4159476
v 0.5046765 -0.1859019 -0.2950644
v 0.08883405 -0.5139186 -0.3083401
v 0.1027617 -0.4953661 -0.4159476
v 0.3252306 -0.4656315 -0.1398287
v 0.3294411 -0.4274693 -0.4159476
v 0.3932291 -0.4250097 -0.2913851
v -0.4143088 0.3061903 0.4092213
v -0.410818 0.3084254 0.4159477
v -0.4132282 0.3065705 0.4159477
v -0.2169595 -0.2944574 -0.4159476
v -0.2169595 -0.2944574 -0.4159476
v -0.2169595 -0.2944574 -0.4159476
v -0.2169595 -0.2944574 -0.4159476
v -0.2169595 -0.2944574 -0.4159476
v 0.3120359 0.4627595 0.4159477
v 0.3120359 0.4627595 0.4159477
v 0.3120359 0.4627595 0.4159477
v 0.3120359 0.4627595 0.4159477
v 0.3120359 0.4627595 0.4159477
v -0.3149438 0.1808431 -0.4159476
v -0.3149438 0.1808431 -0.4159476
v -0.3149438 0.1808431 -0.4159476
v -0.3149438 0.1808431 -0.4159476
v -0.3149438 0.1808431 -0.4159476
v 0.2226262 0.3246818 -0.4159476
v 0.2226262 0.3246818 -0.4159476
v 0.2226262 0.3246818 -0.4159476
v 0.2226262 0.3246818 -0.4159476
v 0.2226262 0.3246818 -0.4159476
v 0.2226262 0.3246818 -0.4159476
v 0.2226262 0.3246818 -0.4159476
v 0.2283123 0.5139186 0.4159477
v 0.2283123 0.5139186 0.4159477
v 0.1777669 0.5122025 0.4159477
v 0.1777669 0.5122025 0.4159477
v 0.1777669 0.5122025 0.4159477
v 0.1777669 0.5122025 0.4159477
v 0.1777669 0.5122025 0.4159477
v 0.1777669 0.5122025 0.4159477
v 0.1777669 0.5122025 0.4159477
v 0.2752764 0.4857407 0.284932
v 0.2752764 0.4857407 0.284932
v 0.2752764 0.4857407 0.284932
v 0.08784032 0.3201058 -0.4159476
v 0.08784032 0.3201058 -0.4159476
v -0.3185758 -0.32425 -0.04688567
v -0.3185758 -0.32425 -0.04688567
v -0.3185758 -0.32425 -0.04688567
v -0.3185758 -0.32425 -0.04688567
v -0.3185758 -0.32425 -0.04688567
v -0.3185758 -0.32425 -0.04688567
v 0.4485184 0.193583 0.4159477
v 0.4485184 0.193583 0.4159477
v 0.4485184 0.193583 0.4159477
v 0.4485184 0.193583 0.4159477
v 0.4485184 0.193583 0.4159477
v 0.4485184 0.193583 0.4159477
v 0.4485184 0.193583 0.4159477
v 0.2747275 -0.1833267 0.4159477
v 0.2747275 -0.1833267 0.4159477
v 0.2747275 -0.1833267 0.4159477
v 0.2747275 -0.1833267 0.4159477
v 0.2747275 -0.1833267 0.4159477
v -0.4776654 0.2262397 0.1093075
v -0.4776654 0.2262397 0.1093075
v -0.4776654 0.2262397 0.1093075
v -0.4776654 0.2262397 0.1093075
v -0.4776654 0.2262397 0.1093075
v -0.5046764 -0.07019472 0.4111164
v -0.5046764 -0.07019472 0.4111164
v -0.5046764 -0.07019472 0.4111164
v -0.5046764 -0.07019472 0.4111164
v -0.5046764 -0.07019472 0.4111164
v -0.503435 -0.06798959 0.4159477
v -0.503435 -0.06798959 0.4159477
v -0.503435 -0.06798959 0.4159477
v 0.4620707 -0.1475611 -0.4159476
v 0.4620707 -0.1475611 -0.4159476
v 0.4620707 -0.1475611 -0.4159476
v 0.4620707 -0.1475611 -0.4159476
v 0.4620707 -0.1475611 -0.4159476
v 0.5046765 -0.1859019 -0.2950644
v 0.5046765 -0.1859019 -0.2950644
v 0.5046765 -0.1859019 -0.2950644
v 0.5046765 -0.1859019 -0.2950644
v 0.5046765 -0.1859019 -0.2950644
v 0.08883405 -0.5139186 -0.3083401
v 0.08883405 -0.5139186 -0.3083401
v 0.08883405 -0.5139186 -0.3083401
v 0.08883405 -0.5139186 -0.3083401
v 0.08883405 -0.5139186 -0.3083401
v 0.1027617 -0.4953661 -0.4159476
v 0.1027617 -0.4953661 -0.4159476
v 0.1027617 -0.4953661 -0.4159476
v 0.3252306 -0.4656315 -0.1398287
v 0.3252306 -0.4656315 -0.1398287
v 0.3252306 -0.4656315 -0.1398287
v 0.3252306 -0.4656315 -0.1398287
v 0.3294411 -0.4274693 -0.4159476
v 0.3294411 -0.4274693 -0.4159476
v 0.3294411 -0.4274693 -0.4159476
v 0.3294411 -0.4274693 -0.4159476
v 0.3932291 -0.4250097 -0.2913851
v 0.3932291 -0.4250097 -0.2913851
v 0.3932291 -0.4250097 -0.2913851
v -0.4143088 0.3061903 0.4092213
v -0.4143088 0.3061903 0.4092213
v -0.4143088 0.3061903 0.4092213
v -0.410818 0.3084254 0.4159477
v -0.410818 0.3084254 0.4159477
v -0.410818 0.3084254 0.4159477
v -0.410818 0.3084254 0.4159477
v -0.410818 0.3084254 0.4159477
v -0.4132282 0.3065705 0.4159477
v -0.4132282 0.3065705 0.4159477
v -0.4132282 0.3065705 0.4159477
v -0.4132282 0.3065705 0.4159477
vt 0.6343049 0.4972793
vt 0.3237692 0.2625934
vt 0.6166571 0.5934791
vt 0.7134788 0.6225918
vt 0.3025033 0.2625934
vt 0.2896648 0.2625934
vt 0.3144323 0.2293154
vt 0.6892024 0.6216656
vt 0.6106707 0.1450335
vt -0.7422005 0.2625934
vt 0.7228626 0.5197718
vt 0.7504953 0.1847067
vt -0.1163238 0.2613663
vt 0.5827079 0.5431159
vt -0.6555498 0.05129159
vt -0.6458111 0.08199599
vt -0.2670758 0.07862396
vt 0.69189 0.4566158
vt -0.3271206 0.1214259
vt 0.7327171 0.470358
vt -0.5850776 0.08293055
vt 0.7708028 0.2608849
vt 0.5993891 0.6193014
vt 0.598955 0.6189259
vt 0.618238 0.0512916
vt 0.6343049 0.4972793
vt -0.1894041 0.0512916
vt 0.6343049 0.4972793
vt -0.1894041 0.0512916
vt -0.8105715 0.2625934
vt -0.8105715 0.2625934
vt 0.7295823 0.6505383
vt 0.7295823 0.6505383
vt 0.7295823 0.6505383
vt 0.6166571 0.5934791
vt 0.164516 0.05129157
vt 0.7389646 0.05129159
vt 0.7389646 0.05129159
vt 0.164516 0.05129157
vt 0.7134788 0.6225918
vt -0.7754996 0.05129159
vt 0.3010591 0.05129156
vt 0.3010591 0.05129156
vt -0.7754996 0.05129159
vt -0.7754996 0.05129159
vt 0.7134788 0.6225918
vt 0.3025033 0.2625934
vt 0.7145028 0.6608928
vt 0.2896648 0.2625934
vt 0.2896648 0.2625934
vt 0.2896648 0.2625934
vt 0.705399 0.6605455
vt 0.705399 0.6605455
vt 0.2896648 0.2625934
vt 0.2896648 0.2625934
vt -0.8164087 0.2293154
vt 0.3144323 0.2293154
vt 0.3144323 0.2293154
vt 0.2668234 0.05129157
vt 0.2668234 0.05129157
vt -0.1635935 0.1450335
vt 0.6106707 0.1450335
vt 0.6106707 0.1450335
vt -0.1635935 0.1450335
vt -0.1635935 0.1450335
vt -0.1635935 0.1450335
vt 0.754164 0.5960575
vt -0.7422005 0.2625934
vt -0.7422005 0.2625934
vt -0.7422005 0.2625934
vt 0.754164 0.5960575
vt 0.754164 0.5960575
vt 0.754164 0.5960575
vt -0.3142928 0.2625934
vt -0.3142928 0.2625934
vt -0.6464652 0.2625934
vt -0.3142928 0.2625934
vt -0.6464652 0.2625934
vt 0.7504953 0.1847067
vt 0.7504953 0.1847067
vt 0.1231846 0.1847067
vt 0.1231846 0.1847067
vt 0.1231846 0.1847067
vt -0.1163238 0.2613663
vt 0.6752008 0.2613663
vt 0.6752008 0.2613663
vt 0.6752008 0.2613663
vt 0.6752008 0.2613663
vt -0.1166391 0.2625934
vt 0.5827079 0.5431159
vt 0.6757609 0.2625934
vt -0.6555498 0.05129159
vt 0.756605 0.5270108
vt 0.756605 0.5270108
vt 0.756605 0.5270108
vt -0.6555498 0.05129159
vt -0.6458111 0.08199599
vt -0.6458111 0.08199599
vt -0.6458111 0.08199599
vt -0.6458111 0.08199599
vt -0.6458111 0.08199599
vt -0.2670758 0.07862396
vt -0.2670758 0.07862396
vt -0.2670758 0.07862396
vt -0.2670758 0.07862396
vt -0.2670758 0.07862396
vt 0.69189 0.4566158
vt -0.2706134 0.0512916
vt -0.2706134 0.0512916
vt -0.5747597 0.1214259
vt -0.5747597 0.1214259
vt -0.3271206 0.1214259
vt -0.3271206 0.1214259
vt -0.5844529 0.0512916
vt -0.5844529 0.0512916
vt -0.3281901 0.0512916
vt -0.3281901 0.0512916
vt -0.5850776 0.08293055
vt -0.3443923 0.08293055
vt -0.3443923 0.08293055
vt 0.1392772 0.2608849
vt 0.7708028 0.2608849
vt 0.1392772 0.2608849
vt 0.5993891 0.6193014
vt 0.1401639 0.2625934
vt 0.1401639 0.2625934
vt 0.5993891 0.6193014
vt 0.1401639 0.2625934
vt 0.7708994 0.2625934
vt 0.598955 0.6189259
vt 0.7708994 0.2625934
vt 0.1395517 0.2625934
vn 0 0 -1
vn 0.5214075 0.853301 0.003382615
vn 0 0 -1
vn 0 0 -1
vn 0.5214075 0.853301 0.003382615
vn -0.3214368 0.9296793 -0.1799297
vn 0.5214075 0.853301 0.003382615
vn 0 0 -1
vn -0.9416589 -0.194125 -0.2749439
vn 0.8791534 0.4457634 -0.1684766
vn 0 0 1
vn -0.9416589 -0.194125 -0.2749438
vn -0.1317027 -0.8885785 0.4394117
vn 0 0 1
vn 0.8791531 0.4457639 -0.1684769
vn 0.8791531 0.4457639 -0.1684769
vn -0.5201891 -0.8278171 -0.2100527
vn 0 0 -1
vn -0.1317043 -0.8885898 0.4393884
vn 0 0 -1
vn 0.8709541 -0.4015919 0.2831304
vn -0.962418 0.2317828 0.1415217
vn 0 0 1
vn 0 0 1
vn -0.9416589 -0.194125 -0.2749439
vn 0 0 -1
vn -0.5201891 -0.8278171 -0.2100527
vn 0 0 -1
vn -0.5201894 -0.8278171 -0.2100519
vn 0.8791533 0.4457635 -0.1684765
vn 0.8791534 0.4457634 -0.1684766
vn 0 0 1
vn 0 0 1
vn 0 0 1
vn 0 0 -1
vn -0.3214368 0.9296793 -0.1799297
vn -0.9416589 -0.194125 -0.2749439
vn -0.9416589 -0.194125 -0.2749438
vn -0.3214368 0.9296793 -0.1799296
vn 0 0 -1
vn 0.8791533 0.4457635 -0.1684765
vn -0.03308773 0.9746048 -0.2214737
vn -0.03309121 0.9746047 -0.2214738
vn 0.8791534 0.4457634 -0.1684766
vn 0.8791535 0.4457631 -0.1684766
vn 0 0 -1
vn -0.03309021 0.9746049 -0.2214731
vn 0 0 1
vn -0.03308773 0.9746048 -0.2214737
vn -0.03309121 0.9746047 -0.2214738
vn -0.03309021 0.9746049 -0.2214731
vn 0 0 1
vn 0 0 1
vn -0.3214368 0.9296793 -0.1799296
vn -0.3218777 0.9297042 -0.1790103
vn 0.8791533 0.4457635 -0.1684765
vn -0.03309121 0.9746047 -0.2214738
vn -0.03309021 0.9746049 -0.2214731
vn -0.3214368 0.9296793 -0.1799297
vn -0.03308773 0.9746048 -0.2214737
vn -0.1317042 -0.8885899 0.4393883
vn -0.9416589 -0.194125 -0.2749438
vn -0.9416589 -0.194125 -0.2749438
vn -0.5201891 -0.8278171 -0.2100527
vn -0.1317043 -0.8885898 0.4393884
vn -0.1317044 -0.8885899 0.4393882
vn 0 0 1
vn 0.8791531 0.4457639 -0.1684769
vn 0.8791535 0.4457631 -0.1684766
vn 0.8709541 -0.401592 0.2831305
vn 0 0 1
vn 0 0 1
vn 0 0 1
vn -0.1317027 -0.8885785 0.4394117
vn -0.1317042 -0.8885899 0.4393883
vn 0.8709541 -0.401592 0.2831305
vn -0.1317043 -0.8885898 0.4393884
vn 0.8709541 -0.4015919 0.2831305
vn -0.9416589 -0.194125 -0.2749438
vn -0.962418 0.2317828 0.1415217
vn -0.3214368 0.9296793 -0.1799296
vn -0.3218777 0.9297042 -0.1790103
vn -0.2041292 0.9557861 -0.21167
vn -0.1317042 -0.8885899 0.4393883
vn -0.9416589 -0.194125 -0.2749438
vn -0.962418 0.2317828 0.1415217
vn -0.9624195 0.2317833 0.1415103
vn -0.9624178 0.2317827 0.1415226
vn -0.1317027 -0.8885785 0.4394117
vn 0 0 1
vn -0.9624195 0.2317833 0.1415103
vn 0.8791535 0.4457631 -0.1684766
vn 0 0 -1
vn 0 0 -1
vn 0 0 -1
vn 0.8227555 -0.3898484 -0.4136324
vn 0.8709541 -0.401592 0.2831305
vn 0.8709541 -0.4015919 0.2831304
vn 0.8709541 -0.4015919 0.2831305
vn 0.8227555 -0.3898484 -0.4136324
vn 0.8227554 -0.3898483 -0.4136326
vn -0.5201894 -0.8278171 -0.2100519
vn -0.1317044 -0.8885899 0.4393882
vn 0.2846101 -0.9501956 -0.126986
vn 0.2846101 -0.9501956 -0.1269859
vn 0.2846104 -0.9501956 -0.1269854
vn 0 0 -1
vn -0.5201894 -0.8278171 -0.2100519
vn 0.2846104 -0.9501956 -0.1269854
vn 0.8709541 -0.4015919 0.2831304
vn 0.8709541 -0.4015919 0.2831305
vn -0.1317044 -0.8885899 0.4393882
vn 0.2846101 -0.9501956 -0.126986
vn 0.8227555 -0.3898484 -0.4136324
vn 0.8227554 -0.3898483 -0.4136326
vn 0.2846101 -0.9501956 -0.1269859
vn 0.2846104 -0.9501956 -0.1269854
vn 0.8227554 -0.3898483 -0.4136326
vn 0.2846101 -0.9501956 -0.126986
vn 0.2846101 -0.9501956 -0.1269859
vn -0.2041292 0.9557861 -0.21167
vn -0.9624178 0.2317827 0.1415226
vn -0.6090487 0.7913524 0.05311329
vn 0 0 1
vn -0.3218777 0.9297042 -0.1790103
vn -0.2041292 0.9557861 -0.21167
vn 0 0 1
vn -0.6090487 0.7913524 0.05311329
vn -0.9624195 0.2317833 0.1415103
vn 0 0 1
vn -0.9624178 0.2317827 0.1415226
vn -0.6090487 0.7913524 0.05311329
g wall__sh_80_0
f 4/4/4 1/1/1 3/3/3
f 35/35/35 8/8/8 40/40/40
f 11/11/11 67/67/67 14/14/14
f 32/32/32 48/48/48 52/52/52
f 26/26/26 46/46/46 93/93/93
f 18/18/18 94/94/94 20/20/20
f 28/28/28 95/95/95 107/107/107
f 33/33/33 53/53/53 23/23/23
f 24/24/24 90/90/90 71/71/71
f 72/72/72 34/34/34 124/124/124
f 130/130/130 73/73/73 127/127/127
f 7/7/7 5/5/5 2/2/2
f 56/56/56 30/30/30 41/41/41
f 59/59/59 36/36/36 6/6/6
f 42/42/42 60/60/60 49/49/49
f 57/57/57 43/43/43 50/50/50
f 51/51/51 47/47/47 58/58/58
f 37/37/37 25/25/25 9/9/9
f 44/44/44 31/31/31 10/10/10
f 13/13/13 74/74/74 89/89/89
f 61/61/61 75/75/75 84/84/84
f 12/12/12 38/38/38 62/62/62
f 63/63/63 85/85/85 79/79/79
f 15/15/15 68/68/68 16/16/16
f 45/45/45 69/69/69 92/92/92
f 97/97/97 70/70/70 76/76/76
f 17/17/17 64/64/64 27/27/27
f 19/19/19 77/77/77 65/65/65
f 21/21/21 98/98/98 110/110/110
f 99/99/99 78/78/78 111/111/111
f 114/114/114 96/96/96 100/100/100
f 102/102/102 29/29/29 108/108/108
f 112/112/112 66/66/66 103/103/103
f 115/115/115 101/101/101 118/118/118
f 119/119/119 113/113/113 104/104/104
f 116/116/116 120/120/120 105/105/105
f 106/106/106 109/109/109 117/117/117
f 22/22/22 80/80/80 86/86/86
f 87/87/87 91/91/91 129/129/129
f 54/54/54 39/39/39 81/81/81
f 125/125/125 55/55/55 82/82/82
f 83/83/83 121/121/121 126/126/126
f 122/122/122 88/88/88 131/131/131
f 128/128/128 123/123/123 132/132/132
