g wall__sh_11
v -0.1482241 -0.4563181 0.1814829
v 0.4990416 0.4656734 0.1814829
v 0.5274472 0.4656734 -0.03965348
v 0.4992427 0.09908438 0.1814829
v 0.5249237 0.07822418 -0.01835215
v -0.1934386 -0.372324 0.07943976
v 0.3516505 -0.2333579 -0.1705644
v 0.4474876 0.4656734 -0.1791614
v -0.225189 -0.2499509 -0.0736981
v -0.3021073 -0.1770797 -0.05997312
v 0.1700675 -0.4056745 0.1814829
v -0.05639017 -0.4656739 0.1814829
v 0.2384197 -0.3552766 0.000974834
v 0.4302329 -0.1129541 -0.1708787
v 0.4194528 -0.1325006 -0.1808854
v 0.4240084 -0.1168118 -0.1814829
v -0.5181144 0.1785493 0.1814829
v -0.5274473 0.4656734 0.1814829
v -0.5246649 0.4656734 -0.01561075
v -0.5155344 0.1867456 -0.02014995
v -0.1482241 -0.4563181 0.1814829
v -0.1482241 -0.4563181 0.1814829
v -0.1482241 -0.4563181 0.1814829
v -0.1482241 -0.4563181 0.1814829
v -0.1482241 -0.4563181 0.1814829
v 0.4990416 0.4656734 0.1814829
v 0.4990416 0.4656734 0.1814829
v 0.4990416 0.4656734 0.1814829
v 0.4990416 0.4656734 0.1814829
v 0.4990416 0.4656734 0.1814829
v 0.5274472 0.4656734 -0.03965348
v 0.5274472 0.4656734 -0.03965348
v 0.5274472 0.4656734 -0.03965348
v 0.4992427 0.09908438 0.1814829
v 0.4992427 0.09908438 0.1814829
v 0.4992427 0.09908438 0.1814829
v 0.4992427 0.09908438 0.1814829
v 0.4992427 0.09908438 0.1814829
v 0.5249237 0.07822418 -0.01835215
v 0.5249237 0.07822418 -0.01835215
v 0.5249237 0.07822418 -0.01835215
v 0.5249237 0.07822418 -0.01835215
v 0.5249237 0.07822418 -0.01835215
v -0.1934386 -0.372324 0.07943976
v -0.1934386 -0.372324 0.07943976
v -0.1934386 -0.372324 0.07943976
v -0.1934386 -0.372324 0.07943976
v 0.3516505 -0.2333579 -0.1705644
v 0.3516505 -0.2333579 -0.1705644
v 0.3516505 -0.2333579 -0.1705644
v 0.3516505 -0.2333579 -0.1705644
v 0.3516505 -0.2333579 -0.1705644
v 0.4474876 0.4656734 -0.1791614
v 0.4474876 0.4656734 -0.1791614
v 0.4474876 0.4656734 -0.1791614
v 0.4474876 0.4656734 -0.1791614
v 0.4474876 0.4656734 -0.1791614
v 0.4474876 0.4656734 -0.1791614
v -0.225189 -0.2499509 -0.0736981
v -0.225189 -0.2499509 -0.0736981
v -0.225189 -0.2499509 -0.0736981
v -0.225189 -0.2499509 -0.0736981
v -0.225189 -0.2499509 -0.0736981
v -0.225189 -0.2499509 -0.0736981
v -0.3021073 -0.1770797 -0.05997312
v -0.3021073 -0.1770797 -0.05997312
v -0.3021073 -0.1770797 -0.05997312
v -0.3021073 -0.1770797 -0.05997312
v -0.3021073 -0.1770797 -0.05997312
v -0.3021073 -0.1770797 -0.05997312
v 0.1700675 -0.4056745 0.1814829
v 0.1700675 -0.4056745 0.1814829
v 0.1700675 -0.4056745 0.1814829
v -0.05639017 -0.4656739 0.1814829
v -0.05639017 -0.4656739 0.1814829
v -0.05639017 -0.4656739 0.1814829
v -0.05639017 -0.4656739 0.1814829
v 0.2384197 -0.3552766 0.000974834
v 0.2384197 -0.3552766 0.000974834
v 0.2384197 -0.3552766 0.000974834
v 0.2384197 -0.3552766 0.000974834
v 0.4302329 -0.1129541 -0.1708787
v 0.4302329 -0.1129541 -0.1708787
v 0.4302329 -0.1129541 -0.1708787
v 0.4302329 -0.1129541 -0.1708787
v 0.4194528 -0.1325006 -0.1808854
v 0.4194528 -0.1325006 -0.1808854
v 0.4194528 -0.1325006 -0.1808854
v 0.4240084 -0.1168118 -0.1814829
v 0.4240084 -0.1168118 -0.1814829
v 0.4240084 -0.1168118 -0.1814829
v 0.4240084 -0.1168118 -0.1814829
v -0.5181144 0.1785493 0.1814829
v -0.5181144 0.1785493 0.1814829
v -0.5181144 0.1785493 0.1814829
v -0.5181144 0.1785493 0.1814829
v -0.5181144 0.1785493 0.1814829
v -0.5274473 0.4656734 0.1814829
v -0.5274473 0.4656734 0.1814829
v -0.5274473 0.4656734 0.1814829
v -0.5274473 0.4656734 0.1814829
v -0.5274473 0.4656734 0.1814829
v -0.5246649 0.4656734 -0.01561075
v -0.5246649 0.4656734 -0.01561075
v -0.5246649 0.4656734 -0.01561075
v -0.5155344 0.1867456 -0.02014995
v -0.5155344 0.1867456 -0.02014995
v -0.5155344 0.1867456 -0.02014995
vt 0.6894666 0.8133909
vt 0.8060456 1
vt -1.249131 0.2064247
vt 0.8060818 0.9258032
vt -1.150718 0.2118352
vt 1.036279 0.2366744
vt -1.071576 0.1731732
vt -1.249131 0.1709896
vt 1.067362 0.1977773
vt 1.085871 0.2012635
vt 0.7467941 0.8236411
vt 0.7060068 0.8114974
vt -1.040609 0.2167443
vt -1.102159 0.1730934
vt 0.4113863 1.097194
vt -1.101179 0.1703999
vt 0.6228459 0.9418868
vt 0.6211648 1
vt 0.1715799 1.249131
vt 0.173899 1.178283
vt 0.6894666 0.8133909
vt 0.6894666 0.8133909
vt -0.267196 0.2625934
vt 0.6894666 0.8133909
vt 1.014944 0.2625934
vt -1.249131 0.2625934
vt -1.249131 0.2625934
vt 0.8060456 1
vt 0.8060456 1
vt 0.9846751 0.255551
vt -1.249131 0.2064247
vt 0.9732103 0.2570237
vt 0.9732103 0.2570237
vt -1.156017 0.2625934
vt 0.8060818 0.9258032
vt -1.156017 0.2625934
vt -1.156017 0.2625934
vt -1.156017 0.2625934
vt -1.150718 0.2118352
vt -1.150718 0.2118352
vt -1.150718 0.2118352
vt -1.150718 0.2118352
vt -1.150718 0.2118352
vt -0.2557115 0.2366744
vt -0.2557115 0.2366744
vt 1.036279 0.2366744
vt 1.036279 0.2366744
vt -0.3941644 0.1731732
vt 0.3941644 1.071576
vt -1.071576 0.1731732
vt -1.071576 0.1731732
vt -1.071576 0.1731732
vt -1.249131 0.1709896
vt -1.249131 0.1709896
vt 0.4185071 1.249131
vt 0.4185071 1.249131
vt 0.9659775 0.2528782
vt 0.9659775 0.2528782
vt -0.2476469 0.1977773
vt -0.2476469 0.1977773
vt -0.2476469 0.1977773
vt 0.2476469 1.067362
vt 0.2476469 1.067362
vt 0.2476469 1.067362
vt 0.2281096 1.085871
vt 0.2281096 1.085871
vt 0.2281096 1.085871
vt 0.2281096 1.085871
vt 1.085871 0.2012635
vt 1.085871 0.2012635
vt 0.7467941 0.8236411
vt -1.027808 0.2625934
vt -0.3480422 0.2625934
vt -0.2905219 0.2625934
vt -0.2905219 0.2625934
vt -0.2905219 0.2625934
vt -0.2905219 0.2625934
vt -1.040609 0.2167443
vt -0.3654037 0.2167443
vt -0.3654037 0.2167443
vt -0.3654037 0.2167443
vt -1.102159 0.1730934
vt -1.102159 0.1730934
vt -1.102159 0.1730934
vt -1.102159 0.1730934
vt -1.097194 0.1705517
vt 0.4113863 1.097194
vt -1.097194 0.1705517
vt 0.4125434 1.101179
vt 0.4125434 1.101179
vt 0.4125434 1.101179
vt -1.101179 0.1703999
vt 0.6228459 0.9418868
vt 1.176201 0.2625934
vt 1.176201 0.2625934
vt 1.176201 0.2625934
vt 1.176201 0.2625934
vt 0.9846752 0.2023327
vt 0.9846752 0.2023327
vt 0.9846752 0.2023327
vt 1.249131 0.2625934
vt 1.249131 0.2625934
vt 0.1715799 1.249131
vt 0.9744568 0.202477
vt 1.249131 0.2125315
vt 1.178283 0.2113786
vt 1.178283 0.2113786
vt 1.178283 0.2113786
vn 0 0 1
vn 0 0 1
vn 0.9918504 0.000544456 0.1274064
vn 0 0 1
vn 0.9918504 0.000544456 0.1274064
vn -0.6725379 -0.6398494 -0.3718676
vn 0.8264922 -0.5389915 0.1624775
vn 0.8671256 -0.03297186 -0.4969971
vn -0.6725379 -0.6398494 -0.3718676
vn -0.6725379 -0.6398494 -0.3718676
vn 0 0 1
vn 0 0 1
vn 0.8264922 -0.5389914 0.1624773
vn 0.867125 -0.03297196 -0.496998
vn -0.1658948 0.01061588 -0.9860863
vn 0.867125 -0.03297196 -0.496998
vn 0 0 1
vn 0 0 1
vn -0.1658947 0.01061682 -0.9860863
vn -0.1658947 0.01061682 -0.9860863
vn 0 0 1
vn 0 0 1
vn -0.08015028 -0.7867343 -0.6120661
vn 0 0 1
vn -0.8636158 -0.5031651 -0.03150583
vn 0.9918504 0.000544456 0.1274064
vn 0.9918504 0.0005441156 0.127407
vn 0 0 1
vn 0 0 1
vn 0 1 0
vn 0.8671256 -0.03297186 -0.4969971
vn 0 1 0
vn 0 1 0
vn 0.9918504 0.0005441156 0.127407
vn 0 0 1
vn 0.8264922 -0.5389914 0.1624773
vn 0.8264922 -0.5389915 0.1624775
vn 0.8264924 -0.5389912 0.1624772
vn 0.9918504 0.0005441156 0.127407
vn 0.8671256 -0.03297186 -0.4969971
vn 0.8671255 -0.03297197 -0.4969973
vn 0.8264924 -0.5389912 0.1624772
vn 0.8264917 -0.5389917 0.1624791
vn -0.08015028 -0.7867343 -0.6120661
vn -0.08015139 -0.786735 -0.6120653
vn -0.8636158 -0.5031651 -0.03150583
vn -0.8636158 -0.5031653 -0.0315047
vn -0.08015095 -0.7867349 -0.6120654
vn -0.1658948 0.01061588 -0.9860863
vn 0.8264924 -0.5389912 0.1624772
vn 0.8264917 -0.5389917 0.1624791
vn 0.8264933 -0.5389929 0.1624669
vn 0.867125 -0.03297196 -0.496998
vn 0.8671255 -0.03297197 -0.4969973
vn -0.165895 0.01061693 -0.9860862
vn -0.1658948 0.01061677 -0.9860863
vn 0 1 0
vn 0 1 0
vn -0.08015095 -0.7867349 -0.6120654
vn -0.08015093 -0.7867349 -0.6120654
vn -0.08015139 -0.786735 -0.6120653
vn -0.1658948 0.01061588 -0.9860863
vn -0.165895 0.01061683 -0.9860863
vn -0.1658952 0.01061806 -0.9860862
vn -0.165895 0.01061693 -0.9860862
vn -0.165895 0.01061683 -0.9860863
vn -0.1658947 0.01061682 -0.9860863
vn -0.1658948 0.01061677 -0.9860863
vn -0.8636158 -0.5031653 -0.0315047
vn -0.8636157 -0.5031655 -0.03150429
vn 0 0 1
vn 0.8264922 -0.5389914 0.1624773
vn 0.2523663 -0.9525135 -0.1703796
vn -0.08015028 -0.7867343 -0.6120661
vn -0.08015093 -0.7867349 -0.6120654
vn -0.08015139 -0.786735 -0.6120653
vn 0.2523663 -0.9525135 -0.1703796
vn 0.8264922 -0.5389915 0.1624775
vn -0.08015095 -0.7867349 -0.6120654
vn -0.08015093 -0.7867349 -0.6120654
vn 0.2523663 -0.9525135 -0.1703796
vn 0.8671255 -0.03297197 -0.4969973
vn 0.8264917 -0.5389917 0.1624791
vn 0.8264933 -0.5389929 0.1624669
vn 0.8702046 -0.2684153 -0.4131553
vn 0.8264933 -0.5389929 0.1624669
vn -0.1658952 0.01061806 -0.9860862
vn 0.8702046 -0.2684153 -0.4131553
vn -0.165895 0.01061693 -0.9860862
vn -0.165895 0.01061683 -0.9860863
vn -0.1658952 0.01061806 -0.9860862
vn 0.8702046 -0.2684153 -0.4131553
vn 0 0 1
vn -0.8636158 -0.5031651 -0.03150583
vn -0.8636158 -0.5031653 -0.0315047
vn -0.8636157 -0.5031655 -0.03150429
vn -0.9993727 -0.03248435 -0.01410823
vn 0 1 0
vn 0 1 0
vn 0 1 0
vn -0.9993727 -0.03248435 -0.01410823
vn -0.9993727 -0.03248428 -0.01410832
vn -0.1658948 0.01061677 -0.9860863
vn 0 1 0
vn -0.9993727 -0.03248428 -0.01410832
vn -0.8636157 -0.5031655 -0.03150429
vn -0.9993727 -0.03248435 -0.01410823
vn -0.9993727 -0.03248428 -0.01410832
g wall__sh_11_0
f 4/4/4 2/2/2 1/1/1
f 11/11/11 21/21/21 12/12/12
f 35/35/35 22/22/22 71/71/71
f 17/17/17 28/28/28 18/18/18
f 24/24/24 29/29/29 93/93/93
f 30/30/30 32/32/32 98/98/98
f 99/99/99 33/33/33 57/57/57
f 100/100/100 58/58/58 104/104/104
f 5/5/5 3/3/3 26/26/26
f 27/27/27 34/34/34 39/39/39
f 8/8/8 31/31/31 40/40/40
f 10/10/10 9/9/9 6/6/6
f 13/13/13 36/36/36 72/72/72
f 7/7/7 37/37/37 78/78/78
f 59/59/59 48/48/48 79/79/79
f 74/74/74 23/23/23 44/44/44
f 60/60/60 80/80/80 75/75/75
f 76/76/76 45/45/45 61/61/61
f 73/73/73 77/77/77 81/81/81
f 16/16/16 53/53/53 14/14/14
f 54/54/54 41/41/41 82/82/82
f 65/65/65 55/55/55 89/89/89
f 15/15/15 49/49/49 62/62/62
f 42/42/42 38/38/38 50/50/50
f 83/83/83 43/43/43 51/51/51
f 52/52/52 86/86/86 84/84/84
f 63/63/63 66/66/66 90/90/90
f 87/87/87 64/64/64 91/91/91
f 85/85/85 88/88/88 92/92/92
f 46/46/46 25/25/25 94/94/94
f 19/19/19 67/67/67 20/20/20
f 56/56/56 68/68/68 103/103/103
f 69/69/69 47/47/47 95/95/95
f 96/96/96 106/106/106 70/70/70
f 107/107/107 97/97/97 101/101/101
f 102/102/102 105/105/105 108/108/108
