g wall__sh_86
v 0.3471167 -0.3982998 0.4159477
v 0.3263521 -0.3982998 0.360849
v 0.4501617 -0.1812347 0.4159477
v 0.03361034 -0.3982998 -0.4159476
v 0.514461 -0.0457873 0.4159477
v 0.2733455 -0.02388972 0.4159477
v -0.0915761 -0.3982998 0.2982298
v 0.003676414 -0.3982998 0.4159477
v -0.1063306 0.01059163 0.4159477
v -0.2000778 0.08853182 0.3260044
v 0.5091264 0.3665805 -0.1176564
v -0.4482672 -0.3982998 -0.4159476
v -0.4798677 -0.3982998 -0.1816414
v -0.1682339 0.2748249 0.08091092
v 0.2873075 0.1361165 -0.4159476
v 0.5021279 0.3982998 -0.1761832
v 0.4627399 0.3973106 -0.1520102
v -0.4699094 -0.2040338 -0.4159476
v -0.514461 -0.1399949 -0.1385099
v -0.4191799 0.1007579 0.05929148
v -0.3869311 0.1429202 0.03219569
v -0.4784693 -0.178561 -0.373521
v 0.3471167 -0.3982998 0.4159477
v 0.3471167 -0.3982998 0.4159477
v 0.3471167 -0.3982998 0.4159477
v 0.3263521 -0.3982998 0.360849
v 0.3263521 -0.3982998 0.360849
v 0.3263521 -0.3982998 0.360849
v 0.3263521 -0.3982998 0.360849
v 0.3263521 -0.3982998 0.360849
v 0.4501617 -0.1812347 0.4159477
v 0.4501617 -0.1812347 0.4159477
v 0.4501617 -0.1812347 0.4159477
v 0.03361034 -0.3982998 -0.4159476
v 0.03361034 -0.3982998 -0.4159476
v 0.03361034 -0.3982998 -0.4159476
v 0.03361034 -0.3982998 -0.4159476
v 0.03361034 -0.3982998 -0.4159476
v 0.03361034 -0.3982998 -0.4159476
v 0.514461 -0.0457873 0.4159477
v 0.514461 -0.0457873 0.4159477
v 0.514461 -0.0457873 0.4159477
v 0.514461 -0.0457873 0.4159477
v 0.2733455 -0.02388972 0.4159477
v 0.2733455 -0.02388972 0.4159477
v 0.2733455 -0.02388972 0.4159477
v 0.2733455 -0.02388972 0.4159477
v 0.2733455 -0.02388972 0.4159477
v 0.2733455 -0.02388972 0.4159477
v -0.0915761 -0.3982998 0.2982298
v -0.0915761 -0.3982998 0.2982298
v -0.0915761 -0.3982998 0.2982298
v -0.0915761 -0.3982998 0.2982298
v -0.0915761 -0.3982998 0.2982298
v -0.0915761 -0.3982998 0.2982298
v 0.003676414 -0.3982998 0.4159477
v 0.003676414 -0.3982998 0.4159477
v 0.003676414 -0.3982998 0.4159477
v 0.003676414 -0.3982998 0.4159477
v -0.1063306 0.01059163 0.4159477
v -0.1063306 0.01059163 0.4159477
v -0.1063306 0.01059163 0.4159477
v -0.1063306 0.01059163 0.4159477
v -0.2000778 0.08853182 0.3260044
v -0.2000778 0.08853182 0.3260044
v -0.2000778 0.08853182 0.3260044
v -0.2000778 0.08853182 0.3260044
v 0.5091264 0.3665805 -0.1176564
v 0.5091264 0.3665805 -0.1176564
v 0.5091264 0.3665805 -0.1176564
v 0.5091264 0.3665805 -0.1176564
v 0.5091264 0.3665805 -0.1176564
v 0.5091264 0.3665805 -0.1176564
v -0.4482672 -0.3982998 -0.4159476
v -0.4482672 -0.3982998 -0.4159476
v -0.4482672 -0.3982998 -0.4159476
v -0.4482672 -0.3982998 -0.4159476
v -0.4482672 -0.3982998 -0.4159476
v -0.4798677 -0.3982998 -0.1816414
v -0.4798677 -0.3982998 -0.1816414
v -0.4798677 -0.3982998 -0.1816414
v -0.4798677 -0.3982998 -0.1816414
v -0.1682339 0.2748249 0.08091092
v -0.1682339 0.2748249 0.08091092
v -0.1682339 0.2748249 0.08091092
v -0.1682339 0.2748249 0.08091092
v -0.1682339 0.2748249 0.08091092
v -0.1682339 0.2748249 0.08091092
v -0.1682339 0.2748249 0.08091092
v -0.1682339 0.2748249 0.08091092
v -0.1682339 0.2748249 0.08091092
v 0.2873075 0.1361165 -0.4159476
v 0.2873075 0.1361165 -0.4159476
v 0.2873075 0.1361165 -0.4159476
v 0.2873075 0.1361165 -0.4159476
v 0.2873075 0.1361165 -0.4159476
v 0.5021279 0.3982998 -0.1761832
v 0.5021279 0.3982998 -0.1761832
v 0.4627399 0.3973106 -0.1520102
v 0.4627399 0.3973106 -0.1520102
v 0.4627399 0.3973106 -0.1520102
v -0.4699094 -0.2040338 -0.4159476
v -0.4699094 -0.2040338 -0.4159476
v -0.4699094 -0.2040338 -0.4159476
v -0.4699094 -0.2040338 -0.4159476
v -0.514461 -0.1399949 -0.1385099
v -0.514461 -0.1399949 -0.1385099
v -0.514461 -0.1399949 -0.1385099
v -0.514461 -0.1399949 -0.1385099
v -0.4191799 0.1007579 0.05929148
v -0.4191799 0.1007579 0.05929148
v -0.4191799 0.1007579 0.05929148
v -0.4191799 0.1007579 0.05929148
v -0.3869311 0.1429202 0.03219569
v -0.3869311 0.1429202 0.03219569
v -0.3869311 0.1429202 0.03219569
v -0.4784693 -0.178561 -0.373521
v -0.4784693 -0.178561 -0.373521
v -0.4784693 -0.178561 -0.373521
v -0.4784693 -0.178561 -0.373521
vt 0.005825798 0.2625934
vt 0.005825798 0.2485984
vt -0.04930884 0.2625934
vt 0.005825804 0.05129162
vt -0.08371256 0.2625934
vt 0.9242202 0.0757798
vt 0.978572 0.2706478
vt 0.9846751 0.2755868
vt 0.8558367 0.08275876
vt 0.1178297 0.2397478
vt -0.1884542 0.1270577
vt 0.9415456 0.252156
vt 0.953693 0.2505171
vt 0.4860967 0.1774939
vt -0.1299162 0.05129161
vt -0.1965109 0.1121919
vt 0.6463643 0.1183318
vt 0.7903528 0.039319
vt 0.0597838 0.1217609
vt 0.1209351 0.1720026
vt 0.4305475 0.1651202
vt 0.4072967 0.06206797
vt 0.9375071 0
vt 0.9846751 0.2933925
vt 0.9375071 0
vt 0.005825798 0.2485984
vt 0.005825798 0.2485984
vt 0.9818186 0.2923161
vt 0.9818185 0.292316
vt 0.9818185 0.292316
vt -0.04930884 0.2625934
vt 0.9560665 0.04393352
vt 0.9560665 0.04393351
vt 0.9415455 0.2771382
vt 0.005825804 0.05129162
vt 0.9415455 0.2771382
vt 0.005825804 0.05129162
vt 0.8810416 0
vt 0.8810416 0
vt 0.9676475 0.07134777
vt -0.08371256 0.2625934
vt -0.08371256 0.2625934
vt 0.6595016 0.2625934
vt 0.9242202 0.07577979
vt 0.9242202 0.0757798
vt 0.9242202 0.0757798
vt 0.5982581 0.2625934
vt 0.5982581 0.2625934
vt 0.5982581 0.2625934
vt 0.978572 0.2706484
vt -0.005825751 0.232693
vt -0.005825751 0.232693
vt 0.978572 0.2706478
vt 0.978572 0.2706478
vt -0.005825751 0.232693
vt 0.9846751 0.2755868
vt 0.8756502 0
vt 0.8756502 0
vt -0.005825748 0.2625934
vt 0.09803288 0.2625934
vt 0.09803288 0.2625934
vt 0.5018201 0.2625934
vt 0.5018201 0.2625934
vt 0.1178297 0.2397478
vt 0.4780083 0.2397478
vt 0.1178297 0.2397478
vt 0.4780083 0.2397478
vt 0.6581466 0.1270577
vt -0.1884542 0.1270577
vt -0.1884542 0.1270577
vt 0.6581466 0.1270577
vt 0.6581466 0.1270577
vt 0.6581466 0.1270577
vt 0.9415456 0.252156
vt 0.7942506 0
vt -0.005825762 0.05129162
vt -0.005825762 0.05129162
vt -0.005825762 0.05129162
vt -0.00582576 0.1108055
vt -0.00582576 0.1108055
vt -0.00582576 0.1108055
vt -0.00582576 0.1108055
vt 0.4860967 0.1774939
vt 0.4860967 0.1774939
vt 0.4860967 0.1774939
vt 0.4860967 0.1774939
vt 0.4860967 0.1774939
vt 0.4860967 0.1774939
vt 0.4860967 0.1774939
vt 0.4860967 0.1774939
vt 0.4860967 0.1774939
vt -0.1299162 0.05129161
vt 0.926735 0.1081648
vt 0.6018044 0.05129156
vt 0.6018044 0.05129156
vt 0.6018044 0.05129156
vt 0.6563689 0.1121918
vt 0.6563689 0.1121918
vt 0.6463643 0.1183318
vt 0.6463643 0.1183318
vt 0.6463643 0.1183318
vt 0.7903528 0.039319
vt 0.4094709 0.05129158
vt 0.4094709 0.05129158
vt 0.0435179 0.05129162
vt 0.0597838 0.1217609
vt 0.0597838 0.1217609
vt 0.0597838 0.1217609
vt 0.0597838 0.1217609
vt 0.4223563 0.1720026
vt 0.4223563 0.1720026
vt 0.1209351 0.1720026
vt 0.1209351 0.1720026
vt 0.4305475 0.1651202
vt 0.1316444 0.1651203
vt 0.1316444 0.1651203
vt 0.049988 0.06206801
vt 0.049988 0.06206801
vt 0.4072967 0.06206797
vt 0.049988 0.06206801
vn 0.8551748 -0.405968 -0.3222826
vn 0.8551748 -0.405968 -0.3222826
vn 0.8551748 -0.405968 -0.3222826
vn 0.8551756 -0.4059685 -0.3222795
vn 0.8551742 -0.4059668 -0.3222857
vn 0 0 1
vn 0 -1 0
vn 0 -1 0
vn 0 0 1
vn -0.7609201 -0.2047157 0.6157046
vn 0.8551759 -0.4059675 -0.3222801
vn 0 -1 0
vn 0 -1 0
vn 0.07170678 0.7895679 0.6094593
vn 0.8551759 -0.4059684 -0.3222793
vn 0.8551759 -0.4059684 -0.3222793
vn 0.2474905 0.863923 0.4386179
vn 0 0 -1
vn -0.9850423 -0.1097379 -0.1328509
vn -0.7609201 -0.2047157 0.6157045
vn -0.5305021 0.7066546 0.4681953
vn -0.3466447 0.7716755 -0.533249
vn 0 0 1
vn 0 -1 0
vn 0 0 1
vn 0.8551742 -0.4059668 -0.3222857
vn 0.8551756 -0.4059685 -0.3222795
vn 0 -1 0
vn 0 -1 0
vn 0 -1 0
vn 0.8551742 -0.4059668 -0.3222857
vn 0 0 1
vn 0 0 1
vn 0 -1 0
vn 0.8551759 -0.4059675 -0.3222801
vn 0 -1 0
vn 0.855176 -0.4059677 -0.3222799
vn 0 0 -1
vn 0 0 -1
vn 0 0 1
vn 0.8551756 -0.4059685 -0.3222795
vn 0.8551759 -0.4059675 -0.3222801
vn 0.07170684 0.7895679 0.6094592
vn 0 0 1
vn 0 0 1
vn 0 0 1
vn 0.07170684 0.7895679 0.6094592
vn 0.07170682 0.7895679 0.6094593
vn 0.07170689 0.789568 0.6094592
vn 0 -1 0
vn -0.7609201 -0.2047157 0.6157046
vn -0.7609197 -0.2047158 0.615705
vn 0 -1 0
vn 0 -1 0
vn -0.7609201 -0.2047157 0.6157046
vn 0 -1 0
vn 0 0 1
vn 0 0 1
vn -0.7609197 -0.2047158 0.615705
vn -0.7609201 -0.2047157 0.6157046
vn -0.7609197 -0.2047158 0.615705
vn 0.07170678 0.7895679 0.6094593
vn 0.07170682 0.7895679 0.6094593
vn -0.7609201 -0.2047157 0.6157046
vn 0.07170678 0.7895679 0.6094593
vn -0.7609201 -0.2047157 0.6157045
vn -0.5305021 0.7066545 0.4681954
vn 0.07170684 0.7895679 0.6094592
vn 0.8551759 -0.4059684 -0.3222793
vn 0.855176 -0.4059677 -0.3222799
vn 0.2474905 0.863923 0.4386179
vn 0.07170689 0.789568 0.6094592
vn 0.07170683 0.789568 0.6094592
vn 0 -1 0
vn 0 0 -1
vn -0.9850423 -0.1097379 -0.1328509
vn -0.9850423 -0.1097389 -0.1328501
vn -0.9850421 -0.1097387 -0.1328512
vn -0.7609201 -0.2047157 0.6157046
vn -0.7609201 -0.2047157 0.6157045
vn -0.9850423 -0.1097379 -0.1328509
vn -0.7609202 -0.2047156 0.6157045
vn 0.07170682 0.7895679 0.6094593
vn 0.07170689 0.789568 0.6094592
vn 0.07170683 0.789568 0.6094592
vn -0.3466451 0.7716755 -0.5332487
vn -0.3466452 0.7716754 -0.5332487
vn -0.5305021 0.7066545 0.4681954
vn -0.5305021 0.7066546 0.4681953
vn -0.3466447 0.7716755 -0.533249
vn -0.3466451 0.7716755 -0.5332488
vn 0.855176 -0.4059677 -0.3222799
vn 0 0 -1
vn -0.3466442 0.7716755 -0.5332493
vn -0.3466451 0.7716755 -0.5332487
vn -0.3466452 0.7716754 -0.5332487
vn 0.2474905 0.863923 0.4386179
vn -0.3466442 0.7716755 -0.5332493
vn 0.07170683 0.789568 0.6094592
vn -0.3466442 0.7716755 -0.5332493
vn -0.3466451 0.7716755 -0.5332487
vn 0 0 -1
vn -0.3466452 0.7716754 -0.5332487
vn -0.3466447 0.7716755 -0.533249
vn -0.9850421 -0.1097387 -0.1328512
vn -0.7609202 -0.2047156 0.6157045
vn -0.9850423 -0.1097389 -0.1328501
vn -0.8371202 0.5046771 -0.2110235
vn -0.8371205 0.5046768 -0.2110227
vn -0.5305021 0.7066545 0.4681954
vn -0.5305021 0.7066546 0.4681953
vn -0.7609202 -0.2047156 0.6157045
vn -0.8371205 0.5046768 -0.2110227
vn -0.3466451 0.7716755 -0.5332488
vn -0.8371202 0.5046771 -0.2110235
vn -0.8371205 0.5046768 -0.2110227
vn -0.9850423 -0.1097389 -0.1328501
vn -0.9850421 -0.1097387 -0.1328512
vn -0.3466451 0.7716755 -0.5332488
vn -0.8371202 0.5046771 -0.2110235
g wall__sh_86_0
f 23/23/23 32/32/32 6/6/6
f 40/40/40 44/44/44 33/33/33
f 34/34/34 28/28/28 7/7/7
f 29/29/29 24/24/24 8/8/8
f 50/50/50 30/30/30 56/56/56
f 45/45/45 9/9/9 57/57/57
f 58/58/58 25/25/25 46/46/46
f 12/12/12 36/36/36 53/53/53
f 13/13/13 74/74/74 54/54/54
f 38/38/38 75/75/75 18/18/18
f 93/93/93 39/39/39 102/102/102
f 3/3/3 1/1/1 2/2/2
f 31/31/31 26/26/26 5/5/5
f 41/41/41 27/27/27 4/4/4
f 60/60/60 10/10/10 51/51/51
f 52/52/52 59/59/59 61/61/61
f 42/42/42 35/35/35 11/11/11
f 47/47/47 43/43/43 68/68/68
f 55/55/55 64/64/64 79/79/79
f 65/65/65 62/62/62 14/14/14
f 16/16/16 69/69/69 15/15/15
f 70/70/70 37/37/37 92/92/92
f 97/97/97 17/17/17 71/71/71
f 83/83/83 63/63/63 48/48/48
f 84/84/84 49/49/49 72/72/72
f 73/73/73 99/99/99 85/85/85
f 100/100/100 98/98/98 94/94/94
f 86/86/86 101/101/101 95/95/95
f 87/87/87 96/96/96 103/103/103
f 80/80/80 66/66/66 20/20/20
f 76/76/76 81/81/81 19/19/19
f 110/110/110 67/67/67 88/88/88
f 21/21/21 111/111/111 89/89/89
f 90/90/90 104/104/104 22/22/22
f 106/106/106 82/82/82 112/112/112
f 77/77/77 107/107/107 117/117/117
f 118/118/118 105/105/105 78/78/78
f 114/114/114 91/91/91 119/119/119
f 115/115/115 120/120/120 108/108/108
f 109/109/109 113/113/113 116/116/116
