g wall__sh_41
v -0.174814 0.5453829 -0.4159476
v -0.2321962 0.4943197 -0.4159476
v -0.1997623 0.5500786 -0.4159476
v -0.3255564 0.4004194 0.1364781
v -0.04198569 0.2751588 0.3655812
v 0.06602722 0.167249 0.4159477
v -0.01769811 0.5158101 -0.4159476
v 0.176808 0.3227717 0.0825913
v 0.2838642 0.2150333 0.1336462
v 0.3295037 0.1652911 -0.4159476
v -0.2975524 -0.5500785 -0.4159476
v 0.1723576 -0.01986682 0.4159477
v 0.3452365 -0.00573194 0.392886
v 0.3108234 0.001608729 0.4159477
v 0.5288215 -0.42191 -0.4159476
v -0.5251948 -0.009388685 -0.4159476
v -0.5288214 -0.005451083 -0.3315715
v -0.5084017 -0.1790345 -0.4159476
v -0.174814 0.5453829 -0.4159476
v -0.174814 0.5453829 -0.4159476
v -0.174814 0.5453829 -0.4159476
v -0.174814 0.5453829 -0.4159476
v -0.174814 0.5453829 -0.4159476
v -0.2321962 0.4943197 -0.4159476
v -0.2321962 0.4943197 -0.4159476
v -0.2321962 0.4943197 -0.4159476
v -0.1997623 0.5500786 -0.4159476
v -0.1997623 0.5500786 -0.4159476
v -0.3255564 0.4004194 0.1364781
v -0.3255564 0.4004194 0.1364781
v -0.3255564 0.4004194 0.1364781
v -0.3255564 0.4004194 0.1364781
v -0.3255564 0.4004194 0.1364781
v -0.3255564 0.4004194 0.1364781
v -0.3255564 0.4004194 0.1364781
v -0.04198569 0.2751588 0.3655812
v -0.04198569 0.2751588 0.3655812
v -0.04198569 0.2751588 0.3655812
v -0.04198569 0.2751588 0.3655812
v 0.06602722 0.167249 0.4159477
v 0.06602722 0.167249 0.4159477
v 0.06602722 0.167249 0.4159477
v 0.06602722 0.167249 0.4159477
v -0.01769811 0.5158101 -0.4159476
v -0.01769811 0.5158101 -0.4159476
v -0.01769811 0.5158101 -0.4159476
v -0.01769811 0.5158101 -0.4159476
v -0.01769811 0.5158101 -0.4159476
v 0.176808 0.3227717 0.0825913
v 0.176808 0.3227717 0.0825913
v 0.176808 0.3227717 0.0825913
v 0.176808 0.3227717 0.0825913
v 0.176808 0.3227717 0.0825913
v 0.2838642 0.2150333 0.1336462
v 0.2838642 0.2150333 0.1336462
v 0.2838642 0.2150333 0.1336462
v 0.3295037 0.1652911 -0.4159476
v 0.3295037 0.1652911 -0.4159476
v 0.3295037 0.1652911 -0.4159476
v 0.3295037 0.1652911 -0.4159476
v 0.3295037 0.1652911 -0.4159476
v -0.2975524 -0.5500785 -0.4159476
v -0.2975524 -0.5500785 -0.4159476
v -0.2975524 -0.5500785 -0.4159476
v -0.2975524 -0.5500785 -0.4159476
v -0.2975524 -0.5500785 -0.4159476
v 0.1723576 -0.01986682 0.4159477
v 0.1723576 -0.01986682 0.4159477
v 0.1723576 -0.01986682 0.4159477
v 0.1723576 -0.01986682 0.4159477
v 0.1723576 -0.01986682 0.4159477
v 0.1723576 -0.01986682 0.4159477
v 0.1723576 -0.01986682 0.4159477
v 0.3452365 -0.00573194 0.392886
v 0.3452365 -0.00573194 0.392886
v 0.3452365 -0.00573194 0.392886
v 0.3452365 -0.00573194 0.392886
v 0.3108234 0.001608729 0.4159477
v 0.3108234 0.001608729 0.4159477
v 0.3108234 0.001608729 0.4159477
v 0.3108234 0.001608729 0.4159477
v 0.5288215 -0.42191 -0.4159476
v 0.5288215 -0.42191 -0.4159476
v 0.5288215 -0.42191 -0.4159476
v -0.5251948 -0.009388685 -0.4159476
v -0.5251948 -0.009388685 -0.4159476
v -0.5251948 -0.009388685 -0.4159476
v -0.5251948 -0.009388685 -0.4159476
v -0.5251948 -0.009388685 -0.4159476
v -0.5251948 -0.009388685 -0.4159476
v -0.5288214 -0.005451083 -0.3315715
v -0.5288214 -0.005451083 -0.3315715
v -0.5288214 -0.005451083 -0.3315715
v -0.5084017 -0.1790345 -0.4159476
v -0.5084017 -0.1790345 -0.4159476
v -0.5084017 -0.1790345 -0.4159476
vt 0.3521851 0.3521851
vt 0.3418501 0.3418501
vt 0.3476918 0.3531356
vt -0.246745 0.191608
vt -0.1747179 0.2498003
vt 0.3401051 0.2625934
vt -0.1685489 0.05129162
vt -0.1191442 0.1779208
vt -0.3522423 0.1908887
vt -0.3396077 0.05129161
vt 0.3300788 0.1304661
vt 0.4147141 0.2377799
vt -0.0763633 0.2567358
vt -0.08510425 0.2625934
vt 0.4789168 0.1564071
vt 0.2890781 0.2399006
vt 0.2962391 0.07272319
vt 0.2521489 0.05129161
vt -0.2084564 0.05129162
vt -0.2084564 0.05129162
vt -0.2084564 0.05129162
vt 0.3521852 0.3521852
vt 0.3521852 0.3521852
vt 0.4231812 0.0512916
vt 0.3418501 0.3418501
vt 0.4231812 0.0512916
vt -0.2147933 0.05129162
vt 0.437344 0.0512916
vt 0.3993304 0.191608
vt -0.246745 0.191608
vt 0.3993304 0.191608
vt 0.3993304 0.191608
vt 0.3993304 0.191608
vt 0.3993304 0.191608
vt 0.3993304 0.191608
vt 0.3675142 0.2498003
vt -0.1747179 0.2498003
vt -0.1747179 0.2498003
vt -0.1747179 0.2498003
vt -0.1472826 0.2625934
vt -0.1472826 0.2625934
vt 0.3955629 0.2756518
vt 0.3401051 0.2625934
vt -0.1685489 0.05129162
vt -0.4286398 0.0512916
vt 0.3804833 0.3461997
vt 0.3804833 0.3461997
vt 0.3804833 0.3461997
vt -0.1191442 0.1779208
vt -0.3796079 0.1779207
vt -0.3796079 0.1779207
vt -0.1191442 0.1779208
vt -0.1191442 0.1779208
vt -0.0919519 0.1908887
vt -0.0919519 0.1908887
vt -0.3522423 0.1908887
vt -0.3396077 0.05129161
vt 0.4430178 0.2752555
vt 0.4430178 0.2752555
vt -0.3396077 0.05129161
vt -0.3396077 0.05129161
vt 0.3300788 0.1304661
vt 0.239632 0.05129161
vt 0.1579035 0.05129161
vt 0.3300788 0.1304661
vt 0.3300788 0.1304661
vt 0.1202746 0.2625934
vt 0.1202746 0.2625934
vt 0.1202746 0.2625934
vt 0.2925775 0.2625934
vt 0.2925775 0.2625934
vt 0.2925775 0.2625934
vt 0.2925775 0.2625934
vt -0.2961678 0.2567358
vt -0.2961678 0.2567358
vt 0.07636332 0.2567358
vt 0.07636332 0.2567358
vt 0.4396532 0.2421264
vt -0.08510425 0.2625934
vt -0.08510425 0.2625934
vt 0.08510427 0.2625934
vt -0.1904584 0.05129161
vt 0.02973264 0.05129161
vt 0.02973264 0.05129161
vt 0.295239 0.05129161
vt 0.295239 0.05129161
vt 0.2890781 0.2399006
vt 0.2890781 0.2399006
vt 0.2890781 0.2399006
vt 0.295239 0.05129161
vt 0.2962391 0.07272319
vt 0.2962391 0.07272319
vt 0.2962391 0.07272319
vt 0.2921028 0.2055646
vt 0.2521489 0.05129161
vt 0.2521489 0.05129161
vn 0 0 -1
vn 0 0 -1
vn 0 0 -1
vn 0.17676 0.9391097 0.2946674
vn 0.1767607 0.9391095 0.2946675
vn -0.6769221 -0.3846658 0.6275418
vn 0.1767609 0.9391096 0.2946674
vn 0.1767609 0.9391096 0.2946674
vn 0.7104529 0.7037292 -0.004694939
vn 0.7104528 0.7037293 -0.004694965
vn 0 0 -1
vn 0 0 1
vn 0.4863192 0.7187218 0.4969231
vn 0.4863198 0.7187216 0.4969229
vn 0 0 -1
vn 0 0 -1
vn -0.8628156 0.5018848 -0.06050641
vn -0.6769224 -0.3846676 0.6275403
vn 0.17676 0.9391097 0.2946674
vn 0.1767607 0.9391095 0.2946675
vn 0.1767614 0.9391094 0.2946675
vn 0 0 -1
vn 0 0 -1
vn -0.8628165 0.5018831 -0.06050728
vn 0 0 -1
vn -0.8628153 0.5018852 -0.06050673
vn 0.17676 0.9391097 0.2946674
vn -0.8628165 0.5018831 -0.06050728
vn -0.8628165 0.5018831 -0.06050728
vn 0.1767607 0.9391095 0.2946675
vn -0.6769221 -0.3846658 0.6275418
vn -0.8628156 0.5018848 -0.06050641
vn -0.8628153 0.5018852 -0.06050673
vn -0.6769223 -0.384668 0.6275403
vn -0.6769222 -0.3846678 0.6275405
vn -0.6769221 -0.3846658 0.6275418
vn 0.1767609 0.9391096 0.2946674
vn 0.1767614 0.9391094 0.2946675
vn 0.4863198 0.7187216 0.4969229
vn 0.4863198 0.7187216 0.4969229
vn 0.4863198 0.7187216 0.4969229
vn 0 0 1
vn -0.6769222 -0.3846678 0.6275405
vn 0.1767614 0.9391094 0.2946675
vn 0.7104528 0.7037293 -0.004694965
vn 0 0 -1
vn 0 0 -1
vn 0 0 -1
vn 0.4863198 0.7187216 0.4969229
vn 0.7104528 0.7037293 -0.004694965
vn 0.7104529 0.7037292 -0.004694939
vn 0.4863198 0.7187216 0.4969229
vn 0.4863198 0.7187216 0.496923
vn 0.4863198 0.7187216 0.496923
vn 0.4863192 0.7187218 0.4969231
vn 0.945775 0.3210312 0.04948369
vn 0.7104529 0.7037292 -0.004694939
vn 0 0 -1
vn 0 0 -1
vn 0.9457751 0.321031 0.04948364
vn 0.945775 0.3210312 0.04948369
vn 0 0 -1
vn 0.1346754 -0.8683271 0.477358
vn -0.6769224 -0.3846676 0.6275403
vn 0 0 -1
vn 0 0 -1
vn 0.1346754 -0.8683271 0.477358
vn 0.1346744 -0.8683274 0.4773577
vn 0.1346745 -0.8683268 0.4773587
vn -0.6769224 -0.3846676 0.6275403
vn -0.6769223 -0.384668 0.6275403
vn -0.6769222 -0.3846678 0.6275405
vn -0.6769222 -0.3846679 0.6275403
vn 0.9457751 0.321031 0.04948364
vn 0.945775 0.3210312 0.04948369
vn 0.1346744 -0.8683274 0.4773577
vn 0.1346745 -0.8683268 0.4773587
vn 0 0 1
vn 0.4863198 0.7187216 0.496923
vn 0.4863192 0.7187218 0.4969231
vn 0.1346745 -0.8683268 0.4773587
vn 0.9457751 0.321031 0.04948364
vn 0.1346754 -0.8683271 0.477358
vn 0.1346744 -0.8683274 0.4773577
vn -0.8628156 0.5018848 -0.06050641
vn -0.8628153 0.5018852 -0.06050673
vn 0 0 -1
vn 0 0 -1
vn 0 0 -1
vn -0.9944119 -0.09843619 -0.03814725
vn -0.6769223 -0.384668 0.6275403
vn -0.6769222 -0.3846679 0.6275403
vn -0.9944119 -0.09843619 -0.03814725
vn 0 0 -1
vn -0.6769222 -0.3846679 0.6275403
vn -0.9944119 -0.09843619 -0.03814725
g wall__sh_41_0
f 2/2/2 3/3/3 1/1/1
f 12/12/12 78/78/78 42/42/42
f 11/11/11 46/46/46 58/58/58
f 59/59/59 15/15/15 62/62/62
f 16/16/16 25/25/25 22/22/22
f 87/87/87 23/23/23 47/47/47
f 88/88/88 48/48/48 65/65/65
f 66/66/66 94/94/94 89/89/89
f 19/19/19 27/27/27 4/4/4
f 29/29/29 28/28/28 24/24/24
f 5/5/5 20/20/20 30/30/30
f 6/6/6 36/36/36 31/31/31
f 7/7/7 37/37/37 8/8/8
f 21/21/21 38/38/38 44/44/44
f 39/39/39 40/40/40 49/49/49
f 10/10/10 45/45/45 50/50/50
f 57/57/57 51/51/51 9/9/9
f 52/52/52 41/41/41 14/14/14
f 54/54/54 53/53/53 79/79/79
f 80/80/80 13/13/13 55/55/55
f 74/74/74 82/82/82 60/60/60
f 61/61/61 56/56/56 75/75/75
f 67/67/67 63/63/63 83/83/83
f 68/68/68 84/84/84 76/76/76
f 77/77/77 81/81/81 69/69/69
f 17/17/17 32/32/32 85/85/85
f 33/33/33 26/26/26 86/86/86
f 18/18/18 64/64/64 70/70/70
f 34/34/34 91/91/91 71/71/71
f 72/72/72 43/43/43 35/35/35
f 95/95/95 73/73/73 92/92/92
f 90/90/90 96/96/96 93/93/93
