g wall__sh_51
v 0.03258467 0.1916719 0.3401343
v 0.3316473 0.1648313 0.07171279
v 0.07828832 -0.3701325 0.3401343
v -0.2273142 -0.4127724 0.3401343
v 0.1483566 -0.3687642 -0.08313006
v -0.1264582 0.2701756 0.3401343
v 0.1264234 0.3769985 -0.1746866
v -0.1208668 0.4127724 0.01708645
v -0.3316472 -0.2321253 0.3401343
v -0.2887032 -0.40509 0.3401343
v -0.03696752 -0.3001086 -0.2945479
v -0.06303549 -0.1147507 -0.3401343
v -0.2468262 0.1362209 -0.06259495
v 0.3275647 -0.3284712 0.111688
v 0.3165549 -0.3412095 0.1225795
v 0.2952156 -0.3450851 0.07736367
v 0.03258467 0.1916719 0.3401343
v 0.03258467 0.1916719 0.3401343
v 0.3316473 0.1648313 0.07171279
v 0.3316473 0.1648313 0.07171279
v 0.3316473 0.1648313 0.07171279
v 0.3316473 0.1648313 0.07171279
v 0.3316473 0.1648313 0.07171279
v 0.3316473 0.1648313 0.07171279
v 0.3316473 0.1648313 0.07171279
v 0.07828832 -0.3701325 0.3401343
v 0.07828832 -0.3701325 0.3401343
v 0.07828832 -0.3701325 0.3401343
v 0.07828832 -0.3701325 0.3401343
v 0.07828832 -0.3701325 0.3401343
v 0.07828832 -0.3701325 0.3401343
v 0.07828832 -0.3701325 0.3401343
v 0.07828832 -0.3701325 0.3401343
v -0.2273142 -0.4127724 0.3401343
v -0.2273142 -0.4127724 0.3401343
v 0.1483566 -0.3687642 -0.08313006
v 0.1483566 -0.3687642 -0.08313006
v 0.1483566 -0.3687642 -0.08313006
v 0.1483566 -0.3687642 -0.08313006
v 0.1483566 -0.3687642 -0.08313006
v 0.1483566 -0.3687642 -0.08313006
v 0.1483566 -0.3687642 -0.08313006
v 0.1483566 -0.3687642 -0.08313006
v -0.1264582 0.2701756 0.3401343
v -0.1264582 0.2701756 0.3401343
v -0.1264582 0.2701756 0.3401343
v -0.1264582 0.2701756 0.3401343
v -0.1264582 0.2701756 0.3401343
v 0.1264234 0.3769985 -0.1746866
v 0.1264234 0.3769985 -0.1746866
v 0.1264234 0.3769985 -0.1746866
v -0.1208668 0.4127724 0.01708645
v -0.1208668 0.4127724 0.01708645
v -0.1208668 0.4127724 0.01708645
v -0.1208668 0.4127724 0.01708645
v -0.3316472 -0.2321253 0.3401343
v -0.3316472 -0.2321253 0.3401343
v -0.3316472 -0.2321253 0.3401343
v -0.3316472 -0.2321253 0.3401343
v -0.2887032 -0.40509 0.3401343
v -0.2887032 -0.40509 0.3401343
v -0.2887032 -0.40509 0.3401343
v -0.2887032 -0.40509 0.3401343
v -0.03696752 -0.3001086 -0.2945479
v -0.03696752 -0.3001086 -0.2945479
v -0.03696752 -0.3001086 -0.2945479
v -0.03696752 -0.3001086 -0.2945479
v -0.06303549 -0.1147507 -0.3401343
v -0.06303549 -0.1147507 -0.3401343
v -0.06303549 -0.1147507 -0.3401343
v -0.06303549 -0.1147507 -0.3401343
v -0.2468262 0.1362209 -0.06259495
v -0.2468262 0.1362209 -0.06259495
v -0.2468262 0.1362209 -0.06259495
v -0.2468262 0.1362209 -0.06259495
v 0.3275647 -0.3284712 0.111688
v 0.3275647 -0.3284712 0.111688
v 0.3275647 -0.3284712 0.111688
v 0.3165549 -0.3412095 0.1225795
v 0.3165549 -0.3412095 0.1225795
v 0.3165549 -0.3412095 0.1225795
v 0.2952156 -0.3450851 0.07736367
v 0.2952156 -0.3450851 0.07736367
v 0.2952156 -0.3450851 0.07736367
vt 0.5294088 0.2824371
vt 0.4534467 0.2756196
vt 0.5178 0.1397385
vt 0.5954233 0.2625934
vt 0.5000027 0.1550841
vt -0.5698057 0.2625935
vt -0.5055737 0.1318287
vt -0.5683855 0.1805392
vt 0.05899854 0.143924
vt 0.06673314 0.1089161
vt -0.1575246 0.1013838
vt -0.2046056 0.08980486
vt 0.2683525 0.1603
vt 0.4544837 0.1503205
vt 0.4572802 0.147085
vt 0.4627004 0.1958496
vt -0.5294088 0.2625935
vt 0.1246001 0.2296996
vt -0.4534467 0.1944143
vt -0.4534467 0.1944143
vt -0.4534467 0.1944143
vt -0.2756196 0.1944142
vt 0.4534467 0.2756196
vt -0.2756196 0.1944142
vt -0.2756196 0.1944142
vt 0.5178 0.2625934
vt 0.132832 0.1159915
vt 0.132832 0.1159915
vt 0.132832 0.1159915
vt 0.132832 0.1159915
vt 0.5178 0.1397385
vt 0.5178 0.1397385
vt 0.5178 0.2625934
vt 0.07778992 0.1073613
vt 0.5954233 0.2625934
vt -0.140086 0.1550841
vt 0.5000027 0.1550841
vt -0.140086 0.1550841
vt -0.140086 0.1550841
vt 0.5000027 0.1550841
vt 0.5000027 0.1550841
vt 0.5000027 0.1550841
vt -0.140086 0.1550841
vt 0.09595515 0.2455885
vt -0.5698057 0.2625935
vt 0.09595515 0.2455885
vt 0.302377 0.2625934
vt 0.302377 0.2625934
vt -0.3295102 0.1318287
vt -0.3295102 0.1318287
vt -0.5055737 0.3295102
vt -0.5683855 0.1805392
vt -0.5683855 0.3385967
vt 0.3385967 0.1805391
vt -0.5683855 0.3385967
vt 0.05899854 0.143924
vt 0.1747924 0.2625934
vt 0.1747924 0.2625934
vt 0.1747924 0.2625934
vt 0.6110161 0.2625934
vt 0.06673314 0.1089161
vt 0.6110161 0.2625934
vt 0.1308592 0.2625934
vt 0.5470751 0.1013838
vt 0.1575246 0.1013838
vt 0.1575246 0.1013838
vt 0.1575246 0.1013838
vt -0.2046056 0.08980486
vt -0.5536964 0.2046056
vt -0.5536964 0.2046056
vt 0.2046055 0.08980486
vt 0.2683525 0.1603
vt -0.6003793 0.2683525
vt 0.2683525 0.1603
vt 0.2683525 0.1603
vt 0.4544837 0.1503205
vt -0.1503205 0.204568
vt 0.4544837 0.204568
vt 0.4572802 0.2073344
vt 0.4572802 0.2073344
vt 0.4572802 0.2073344
vt -0.1461006 0.1958496
vt -0.1461006 0.1958496
vt 0.4627004 0.1958496
vn 0.6696654 0.05447831 0.7406621
vn 0.6696654 0.05447831 0.7406621
vn 0.6696654 0.05447831 0.7406621
vn 0.1381618 -0.9902143 0.01967059
vn 0.1381618 -0.9902143 0.01967059
vn 0.4104658 0.8315739 0.3741692
vn 0.4104662 0.8315737 0.3741695
vn 0.4104662 0.8315737 0.3741695
vn 0 0 1
vn 0 0 1
vn 0.7408233 -0.06034178 -0.6689841
vn 0.7408233 -0.06034178 -0.6689841
vn -0.9153756 0.3739292 0.1492127
vn 0.6696657 0.05447808 0.7406619
vn 0.6696649 0.05448472 0.7406621
vn 0.1381637 -0.990214 0.01966942
vn 0.4104658 0.8315739 0.3741692
vn 0 0 1
vn 0.4104658 0.8315739 0.3741692
vn 0.4104662 0.8315737 0.3741695
vn 0.4104661 0.8315736 0.3741698
vn 0.740823 -0.06034262 -0.6689843
vn 0.6696657 0.05447808 0.7406619
vn 0.7408232 -0.06034277 -0.6689842
vn 0.7408233 -0.06034278 -0.668984
vn 0.1381618 -0.9902143 0.01967059
vn 0 0 1
vn 0 0 1
vn 0 0 1
vn 0 0 1
vn 0.6696657 0.05447808 0.7406619
vn 0.6696649 0.05448472 0.7406621
vn 0.1381622 -0.9902142 0.01967066
vn 0 0 1
vn -0.1214394 -0.9704146 -0.2086813
vn 0.740823 -0.06034262 -0.6689843
vn -0.1214394 -0.9704146 -0.2086813
vn 0.7408233 -0.06034178 -0.6689841
vn 0.7408228 -0.06034267 -0.6689846
vn -0.121439 -0.9704148 -0.2086809
vn 0.1381637 -0.990214 0.01966942
vn 0.1381622 -0.9902142 0.01967066
vn 0.7408233 -0.06034278 -0.668984
vn 0 0 1
vn 0.4104661 0.8315736 0.3741698
vn 0 0 1
vn -0.9153756 0.3739292 0.1492127
vn -0.9153756 0.3739292 0.1492127
vn 0.740823 -0.06034262 -0.6689843
vn 0.7408228 -0.06034267 -0.6689846
vn -0.508088 0.4440558 -0.7380116
vn 0.4104661 0.8315736 0.3741698
vn -0.508088 0.4440558 -0.7380116
vn -0.9153756 0.3739292 0.1492127
vn -0.5080882 0.4440557 -0.7380115
vn 0 0 1
vn -0.9153756 0.3739292 0.1492127
vn -0.8932755 -0.2217838 -0.390987
vn -0.8932754 -0.2217843 -0.3909869
vn -0.1214394 -0.9704146 -0.2086813
vn 0 0 1
vn -0.121439 -0.9704148 -0.2086809
vn -0.8932755 -0.2217838 -0.390987
vn -0.121439 -0.9704148 -0.2086809
vn -0.8932755 -0.2217838 -0.390987
vn -0.8932754 -0.2217843 -0.3909869
vn -0.8932756 -0.2217847 -0.3909862
vn 0.7408228 -0.06034267 -0.6689846
vn -0.508088 0.4440558 -0.7380116
vn -0.5080882 0.4440557 -0.7380115
vn -0.8932756 -0.2217847 -0.3909862
vn -0.9153756 0.3739292 0.1492127
vn -0.5080882 0.4440557 -0.7380115
vn -0.8932754 -0.2217843 -0.3909869
vn -0.8932756 -0.2217847 -0.3909862
vn 0.6696649 0.05448472 0.7406621
vn 0.7408232 -0.06034277 -0.6689842
vn 0.6283473 -0.7422441 -0.2329237
vn 0.1381637 -0.990214 0.01966942
vn 0.1381622 -0.9902142 0.01967066
vn 0.6283473 -0.7422441 -0.2329237
vn 0.7408232 -0.06034277 -0.6689842
vn 0.7408233 -0.06034278 -0.668984
vn 0.6283473 -0.7422441 -0.2329237
g wall__sh_51_0
f 27/27/27 18/18/18 44/44/44
f 28/28/28 46/46/46 9/9/9
f 10/10/10 34/34/34 29/29/29
f 61/61/61 30/30/30 56/56/56
f 2/2/2 1/1/1 3/3/3
f 26/26/26 4/4/4 5/5/5
f 6/6/6 17/17/17 19/19/19
f 8/8/8 20/20/20 7/7/7
f 45/45/45 21/21/21 52/52/52
f 36/36/36 49/49/49 22/22/22
f 37/37/37 35/35/35 60/60/60
f 12/12/12 38/38/38 11/11/11
f 50/50/50 39/39/39 68/68/68
f 53/53/53 51/51/51 69/69/69
f 64/64/64 40/40/40 62/62/62
f 13/13/13 57/57/57 47/47/47
f 48/48/48 54/54/54 72/72/72
f 73/73/73 55/55/55 70/70/70
f 65/65/65 63/63/63 58/58/58
f 66/66/66 59/59/59 74/74/74
f 75/75/75 71/71/71 67/67/67
f 14/14/14 23/23/23 31/31/31
f 15/15/15 76/76/76 32/32/32
f 79/79/79 41/41/41 16/16/16
f 33/33/33 42/42/42 80/80/80
f 82/82/82 24/24/24 77/77/77
f 43/43/43 25/25/25 83/83/83
f 81/81/81 84/84/84 78/78/78
