g wall__sh_40
v -0.04951882 -0.3666639 -0.4159476
v 0.08982015 -0.4258351 -0.4159476
v -0.245967 -0.02052712 0.4159477
v -0.1794753 0.03889275 0.4159477
v 0.115333 0.1492901 0.23544
v 0.228564 0.2712088 0.06390023
v -0.4748769 -0.1860297 -0.4159476
v -0.3482758 0.2546153 0.1607673
v -0.2713109 0.04824901 0.4159477
v -0.281424 -0.005469799 0.4159477
v -0.3036027 -0.007555246 0.3795193
v -0.3165256 0.1322432 0.313904
v 0.4748769 -0.08173156 -0.4159476
v 0.4183737 0.04970455 -0.4159476
v 0.3371421 0.131072 -0.01981521
v 0.2669215 0.2851262 0.01439542
v -0.4733199 0.01363802 -0.4159476
v -0.3774915 0.2963953 0.02244043
v -0.3299919 0.4258351 -0.4159476
v 0.3038104 0.3161993 -0.4159476
v 0.2648364 0.3402705 -0.1707768
v 0.2302887 0.4139557 -0.4159476
v -0.04951882 -0.3666639 -0.4159476
v -0.04951882 -0.3666639 -0.4159476
v -0.04951882 -0.3666639 -0.4159476
v -0.04951882 -0.3666639 -0.4159476
v -0.04951882 -0.3666639 -0.4159476
v -0.04951882 -0.3666639 -0.4159476
v -0.04951882 -0.3666639 -0.4159476
v 0.08982015 -0.4258351 -0.4159476
v 0.08982015 -0.4258351 -0.4159476
v 0.08982015 -0.4258351 -0.4159476
v 0.08982015 -0.4258351 -0.4159476
v -0.245967 -0.02052712 0.4159477
v -0.245967 -0.02052712 0.4159477
v -0.245967 -0.02052712 0.4159477
v -0.245967 -0.02052712 0.4159477
v -0.245967 -0.02052712 0.4159477
v -0.1794753 0.03889275 0.4159477
v -0.1794753 0.03889275 0.4159477
v 0.115333 0.1492901 0.23544
v 0.115333 0.1492901 0.23544
v 0.115333 0.1492901 0.23544
v 0.115333 0.1492901 0.23544
v 0.115333 0.1492901 0.23544
v 0.115333 0.1492901 0.23544
v 0.228564 0.2712088 0.06390023
v 0.228564 0.2712088 0.06390023
v 0.228564 0.2712088 0.06390023
v -0.4748769 -0.1860297 -0.4159476
v -0.4748769 -0.1860297 -0.4159476
v -0.4748769 -0.1860297 -0.4159476
v -0.4748769 -0.1860297 -0.4159476
v -0.4748769 -0.1860297 -0.4159476
v -0.3482758 0.2546153 0.1607673
v -0.3482758 0.2546153 0.1607673
v -0.3482758 0.2546153 0.1607673
v -0.3482758 0.2546153 0.1607673
v -0.3482758 0.2546153 0.1607673
v -0.3482758 0.2546153 0.1607673
v -0.3482758 0.2546153 0.1607673
v -0.3482758 0.2546153 0.1607673
v -0.2713109 0.04824901 0.4159477
v -0.2713109 0.04824901 0.4159477
v -0.2713109 0.04824901 0.4159477
v -0.2713109 0.04824901 0.4159477
v -0.2713109 0.04824901 0.4159477
v -0.2713109 0.04824901 0.4159477
v -0.281424 -0.005469799 0.4159477
v -0.281424 -0.005469799 0.4159477
v -0.281424 -0.005469799 0.4159477
v -0.3036027 -0.007555246 0.3795193
v -0.3036027 -0.007555246 0.3795193
v -0.3036027 -0.007555246 0.3795193
v -0.3036027 -0.007555246 0.3795193
v -0.3036027 -0.007555246 0.3795193
v -0.3165256 0.1322432 0.313904
v -0.3165256 0.1322432 0.313904
v 0.4748769 -0.08173156 -0.4159476
v 0.4748769 -0.08173156 -0.4159476
v 0.4748769 -0.08173156 -0.4159476
v 0.4183737 0.04970455 -0.4159476
v 0.4183737 0.04970455 -0.4159476
v 0.4183737 0.04970455 -0.4159476
v 0.4183737 0.04970455 -0.4159476
v 0.4183737 0.04970455 -0.4159476
v 0.3371421 0.131072 -0.01981521
v 0.3371421 0.131072 -0.01981521
v 0.3371421 0.131072 -0.01981521
v 0.3371421 0.131072 -0.01981521
v 0.3371421 0.131072 -0.01981521
v 0.2669215 0.2851262 0.01439542
v 0.2669215 0.2851262 0.01439542
v 0.2669215 0.2851262 0.01439542
v 0.2669215 0.2851262 0.01439542
v 0.2669215 0.2851262 0.01439542
v -0.4733199 0.01363802 -0.4159476
v -0.4733199 0.01363802 -0.4159476
v -0.4733199 0.01363802 -0.4159476
v -0.3774915 0.2963953 0.02244043
v -0.3774915 0.2963953 0.02244043
v -0.3774915 0.2963953 0.02244043
v -0.3774915 0.2963953 0.02244043
v -0.3299919 0.4258351 -0.4159476
v -0.3299919 0.4258351 -0.4159476
v -0.3299919 0.4258351 -0.4159476
v -0.3299919 0.4258351 -0.4159476
v -0.3299919 0.4258351 -0.4159476
v 0.3038104 0.3161993 -0.4159476
v 0.3038104 0.3161993 -0.4159476
v 0.3038104 0.3161993 -0.4159476
v 0.3038104 0.3161993 -0.4159476
v 0.3038104 0.3161993 -0.4159476
v 0.2648364 0.3402705 -0.1707768
v 0.2648364 0.3402705 -0.1707768
v 0.2648364 0.3402705 -0.1707768
v 0.2648364 0.3402705 -0.1707768
v 0.2648364 0.3402705 -0.1707768
v 0.2302887 0.4139557 -0.4159476
v 0.2302887 0.4139557 -0.4159476
vt -0.3235312 0.05129158
vt -0.3589234 0.05129158
vt -0.2736333 0.2625934
vt -0.2905222 0.2625934
vt -0.3654037 0.2167444
vt 0.3941644 0.1731731
vt 0.9554376 0.05129158
vt 0.2476468 0.1977774
vt 0.267196 0.2625934
vt -0.2646272 0.2625934
vt 1.00077 0.2533406
vt 0.2557114 0.2366742
vt 0.8238624 0.7870834
vt 0.8136857 0.8136858
vt -0.4217433 0.1519094
vt 0.4039072 0.1605989
vt 1.006153 0.05129158
vt 1.077974 0.1626424
vt 0.6788976 0.8898136
vt 0.7930516 0.8676236
vt -1.089118 0.1135651
vt 0.7798096 0.8874093
vt -0.3235312 0.05129158
vt -0.3235312 0.05129158
vt -0.3235312 0.05129158
vt 0.7294136 0.7294136
vt 0.7294136 0.7294136
vt 0.7294136 0.7294135
vt 0.7294136 0.7294135
vt -0.3589234 0.05129158
vt 0.7545099 0.7174376
vt -0.3589234 0.05129158
vt -0.3589234 0.05129158
vt -0.2736333 0.2625934
vt -0.2736333 0.2625934
vt -0.2736333 0.2625934
vt 0.6940312 0.7994708
vt 0.6940312 0.7994708
vt 0.2905222 0.2625934
vt 0.706007 0.8114973
vt -0.3654037 0.2167444
vt 0.3654037 0.2167443
vt 0.3654037 0.2167443
vt 0.3654037 0.2167443
vt -0.3654037 0.2167444
vt -1.040609 0.2167444
vt 0.3941644 0.1731731
vt -1.071576 0.1731732
vt -1.071576 0.1731732
vt -0.2154901 0.05129158
vt 0.9554376 0.05129158
vt 0.6528023 0.7659735
vt 0.6528023 0.7659735
vt 0.6528023 0.7659735
vt 1.067362 0.1977775
vt 0.2476468 0.1977774
vt 0.2476468 0.1977774
vt 1.067362 0.1977775
vt 0.2476468 0.1977774
vt 1.067362 0.1977775
vt 1.067362 0.1977775
vt 0.2476468 0.1977774
vt 0.6894666 0.813391
vt 0.6894666 0.813391
vt 0.267196 0.2625934
vt 0.267196 0.2625934
vt 1.014945 0.2625934
vt 1.014945 0.2625934
vt 0.6876451 0.8025184
vt -0.2646272 0.2625934
vt 1.0013 0.2625934
vt -0.2589938 0.2533406
vt -0.2589938 0.2533406
vt 1.00077 0.2533406
vt 1.00077 0.2533406
vt 1.00077 0.2533406
vt 1.036279 0.2366743
vt 1.036279 0.2366743
vt -0.456728 0.05129158
vt 0.8238624 0.7870834
vt -0.9819294 0.05129158
vt -1.015314 0.05129158
vt -1.015314 0.05129158
vt 0.8136857 0.8136857
vt -1.015314 0.05129158
vt -1.015314 0.05129158
vt -0.4217433 0.1519094
vt -1.035982 0.1519094
vt -1.035982 0.1519094
vt -1.035982 0.1519094
vt -1.035982 0.1519094
vt -1.075112 0.1605989
vt -1.075112 0.1605989
vt -1.075112 0.1605989
vt 0.4039072 0.1605989
vt 0.4039072 0.1605989
vt 1.006153 0.05129158
vt 0.6530827 0.8063859
vt 1.006153 0.05129158
vt 1.077974 0.1626424
vt 0.240226 0.1626423
vt 0.240226 0.1626423
vt 0.240226 0.1626423
vt 1.110852 0.05129157
vt 0.6788976 0.8898136
vt 0.6788976 0.8898136
vt 0.2522909 0.05129155
vt 0.2522909 0.05129155
vt -1.083004 0.05129157
vt 0.7930516 0.8676236
vt 0.7930516 0.8676236
vt 0.7930516 0.8676236
vt -1.083004 0.05129157
vt -1.089118 0.1135651
vt 0.4033776 0.1135651
vt 0.4033776 0.1135651
vt 0.4033776 0.1135651
vt -1.089118 0.1135651
vt 0.3946025 0.05129154
vt -1.107834 0.05129157
vn -0.3753374 -0.8838614 0.2791249
vn -0.3753374 -0.8838614 0.2791249
vn -0.3753374 -0.8838614 0.2791249
vn 0.5632143 -0.6302451 0.5343975
vn 0.5632144 -0.6302446 0.5343981
vn 0.08015087 0.7867358 0.6120642
vn -0.9779185 0.007625406 0.2088475
vn 0.08015087 0.7867358 0.6120642
vn 0.08015279 0.7867329 0.6120677
vn -0.3753436 -0.8838596 0.2791226
vn -0.9779185 0.007625406 0.2088475
vn 0.08013988 0.7867346 0.6120672
vn 0 0 -1
vn 0 0 -1
vn 0.5632142 -0.6302446 0.5343983
vn 0.02031771 0.9582694 0.2851439
vn -0.9779185 0.007625453 0.2088475
vn -0.9779185 0.007625453 0.2088475
vn 0 0 -1
vn 0 0 -1
vn 0.9134657 0.3926894 0.1066555
vn 0 0 -1
vn -0.3753436 -0.8838596 0.2791226
vn -0.3753472 -0.8838586 0.2791212
vn -0.3753434 -0.8838596 0.2791229
vn 0 0 -1
vn 0 0 -1
vn 0 0 -1
vn 0 0 -1
vn 0.5632144 -0.6302446 0.5343981
vn 0 0 -1
vn 0.5632142 -0.6302446 0.5343983
vn 0.5632144 -0.6302445 0.5343981
vn 0.5632144 -0.6302446 0.5343981
vn 0.5632143 -0.6302451 0.5343975
vn -0.3753436 -0.8838596 0.2791226
vn 0 0 1
vn 0 0 1
vn 0.08015279 0.7867329 0.6120677
vn 0 0 1
vn 0.5632143 -0.6302451 0.5343975
vn 0.08015087 0.7867358 0.6120642
vn 0.08015279 0.7867329 0.6120677
vn 0.08015069 0.7867354 0.6120647
vn 0.5632144 -0.6302445 0.5343981
vn 0.7466689 0.19942 0.6346
vn 0.02031771 0.9582694 0.2851439
vn 0.7466689 0.19942 0.6346
vn 0.7466689 0.1994199 0.6346002
vn -0.3753434 -0.8838596 0.2791229
vn -0.9779185 0.007625438 0.2088475
vn 0 0 -1
vn 0 0 -1
vn 0 0 -1
vn -0.9779185 0.007625406 0.2088475
vn 0.08015069 0.7867354 0.6120647
vn 0.08013988 0.7867346 0.6120672
vn -0.9779183 0.007626094 0.2088482
vn 0.02031771 0.9582694 0.2851439
vn -0.9779185 0.007625453 0.2088475
vn -0.9779185 0.007625438 0.2088475
vn 0.02031742 0.9582697 0.2851428
vn 0 0 1
vn 0 0 1
vn 0.08015069 0.7867354 0.6120647
vn 0.08013988 0.7867346 0.6120672
vn -0.8472424 0.1595019 0.5066947
vn -0.8472425 0.1595022 0.5066944
vn 0 0 1
vn -0.3753472 -0.8838586 0.2791212
vn -0.8472425 0.1595022 0.5066944
vn -0.3753472 -0.8838586 0.2791212
vn -0.3753434 -0.8838596 0.2791229
vn -0.9779183 0.007626094 0.2088482
vn -0.8472424 0.1595019 0.5066947
vn -0.8472425 0.1595022 0.5066944
vn -0.9779183 0.007626094 0.2088482
vn -0.8472424 0.1595019 0.5066947
vn 0.5632142 -0.6302446 0.5343983
vn 0 0 -1
vn 0.9134653 0.3926903 0.1066563
vn 0.9134653 0.3926903 0.1066563
vn 0.9134659 0.3926886 0.1066568
vn 0 0 -1
vn 0.9134657 0.3926894 0.1066555
vn 0.913466 0.3926885 0.1066568
vn 0.5632144 -0.6302445 0.5343981
vn 0.7466689 0.19942 0.6346
vn 0.7466689 0.1994199 0.6346002
vn 0.9134653 0.3926903 0.1066563
vn 0.9134659 0.3926886 0.1066568
vn 0.7466689 0.1994199 0.6346002
vn 0.9134659 0.3926886 0.1066568
vn 0.913466 0.3926885 0.1066568
vn 0.02031743 0.9582694 0.285144
vn 0.02031742 0.9582697 0.2851428
vn -0.9779185 0.007625438 0.2088475
vn 0 0 -1
vn -0.9445151 0.3284241 -0.005367218
vn -0.9445151 0.3284241 -0.005367218
vn 0.02031743 0.9582694 0.285144
vn 0.02031742 0.9582697 0.2851428
vn 0.02031713 0.9582696 0.285143
vn -0.9445151 0.3284241 -0.005367218
vn 0 0 -1
vn 0 0 -1
vn 0.02031713 0.9582696 0.285143
vn 0.02031788 0.9582701 0.2851414
vn 0.9134657 0.3926894 0.1066555
vn 0 0 -1
vn 0 0 -1
vn 0 0 -1
vn 0.7973544 0.5996824 0.06787492
vn 0.913466 0.3926885 0.1066568
vn 0.02031743 0.9582694 0.285144
vn 0.02031713 0.9582696 0.285143
vn 0.02031788 0.9582701 0.2851414
vn 0.7973544 0.5996824 0.06787492
vn 0.02031788 0.9582701 0.2851414
vn 0.7973544 0.5996824 0.06787492
g wall__sh_40_0
f 37/37/37 40/40/40 63/63/63
f 64/64/64 69/69/69 38/38/38
f 13/13/13 31/31/31 26/26/26
f 80/80/80 27/27/27 14/14/14
f 19/19/19 52/52/52 98/98/98
f 20/20/20 84/84/84 28/28/28
f 110/110/110 29/29/29 53/53/53
f 111/111/111 54/54/54 105/105/105
f 106/106/106 22/22/22 112/112/112
f 1/1/1 2/2/2 3/3/3
f 34/34/34 30/30/30 5/5/5
f 41/41/41 4/4/4 35/35/35
f 42/42/42 6/6/6 8/8/8
f 23/23/23 36/36/36 10/10/10
f 9/9/9 39/39/39 43/43/43
f 55/55/55 7/7/7 11/11/11
f 24/24/24 70/70/70 72/72/72
f 73/73/73 50/50/50 25/25/25
f 65/65/65 44/44/44 56/56/56
f 57/57/57 12/12/12 66/66/66
f 77/77/77 58/58/58 74/74/74
f 67/67/67 78/78/78 75/75/75
f 76/76/76 71/71/71 68/68/68
f 15/15/15 32/32/32 79/79/79
f 45/45/45 33/33/33 87/87/87
f 59/59/59 47/47/47 16/16/16
f 48/48/48 46/46/46 88/88/88
f 89/89/89 92/92/92 49/49/49
f 90/90/90 81/81/81 82/82/82
f 93/93/93 91/91/91 83/83/83
f 17/17/17 60/60/60 18/18/18
f 51/51/51 61/61/61 97/97/97
f 99/99/99 100/100/100 104/104/104
f 21/21/21 85/85/85 109/109/109
f 94/94/94 86/86/86 114/114/114
f 95/95/95 115/115/115 101/101/101
f 102/102/102 62/62/62 96/96/96
f 107/107/107 103/103/103 116/116/116
f 117/117/117 119/119/119 108/108/108
f 120/120/120 118/118/118 113/113/113
