g wall__sh_73
v 0.4298075 0.4146991 -0.08931637
v 0.1690276 0.4146991 -0.4159476
v 0.4051261 0.4146991 -0.1851092
v 0.06403577 0.4146991 -0.4159476
v 0.1364168 0.3740277 -0.4159476
v -0.5183398 0.4146991 0.4159477
v -0.4138384 0.4146991 0.03708923
v -0.3271087 0.4146991 -0.2773391
v -0.4036139 -0.08143759 0.4159477
v 0.5092092 0.4146991 0.2188544
v 0.5064268 0.4146991 0.4159477
v -0.3089666 0.1289511 -0.1035606
v -0.3618714 -0.2062025 0.3692087
v -0.3285331 -0.288806 0.4159477
v 0.4981006 0.12358 0.134016
v 0.5183398 0.1357718 0.214315
v 0.5157597 0.1275749 0.4159477
v 0.0726544 -0.1800437 -0.04392606
v -0.1014497 -0.3111033 0.1004235
v -0.2303811 -0.4146991 0.4159477
v 0.4298075 0.4146991 -0.08931637
v 0.4298075 0.4146991 -0.08931637
v 0.4298075 0.4146991 -0.08931637
v 0.4298075 0.4146991 -0.08931637
v 0.4298075 0.4146991 -0.08931637
v 0.4298075 0.4146991 -0.08931637
v 0.4298075 0.4146991 -0.08931637
v 0.1690276 0.4146991 -0.4159476
v 0.1690276 0.4146991 -0.4159476
v 0.1690276 0.4146991 -0.4159476
v 0.1690276 0.4146991 -0.4159476
v 0.1690276 0.4146991 -0.4159476
v 0.4051261 0.4146991 -0.1851092
v 0.4051261 0.4146991 -0.1851092
v 0.06403577 0.4146991 -0.4159476
v 0.06403577 0.4146991 -0.4159476
v 0.06403577 0.4146991 -0.4159476
v 0.06403577 0.4146991 -0.4159476
v 0.06403577 0.4146991 -0.4159476
v 0.06403577 0.4146991 -0.4159476
v 0.06403577 0.4146991 -0.4159476
v 0.1364168 0.3740277 -0.4159476
v 0.1364168 0.3740277 -0.4159476
v -0.5183398 0.4146991 0.4159477
v -0.5183398 0.4146991 0.4159477
v -0.5183398 0.4146991 0.4159477
v -0.5183398 0.4146991 0.4159477
v -0.4138384 0.4146991 0.03708923
v -0.4138384 0.4146991 0.03708923
v -0.4138384 0.4146991 0.03708923
v -0.4138384 0.4146991 0.03708923
v -0.4138384 0.4146991 0.03708923
v -0.3271087 0.4146991 -0.2773391
v -0.3271087 0.4146991 -0.2773391
v -0.4036139 -0.08143759 0.4159477
v -0.4036139 -0.08143759 0.4159477
v -0.4036139 -0.08143759 0.4159477
v -0.4036139 -0.08143759 0.4159477
v -0.4036139 -0.08143759 0.4159477
v -0.4036139 -0.08143759 0.4159477
v -0.4036139 -0.08143759 0.4159477
v 0.5092092 0.4146991 0.2188544
v 0.5092092 0.4146991 0.2188544
v 0.5092092 0.4146991 0.2188544
v 0.5064268 0.4146991 0.4159477
v 0.5064268 0.4146991 0.4159477
v 0.5064268 0.4146991 0.4159477
v 0.5064268 0.4146991 0.4159477
v -0.3089666 0.1289511 -0.1035606
v -0.3089666 0.1289511 -0.1035606
v -0.3089666 0.1289511 -0.1035606
v -0.3089666 0.1289511 -0.1035606
v -0.3089666 0.1289511 -0.1035606
v -0.3618714 -0.2062025 0.3692087
v -0.3618714 -0.2062025 0.3692087
v -0.3618714 -0.2062025 0.3692087
v -0.3618714 -0.2062025 0.3692087
v -0.3285331 -0.288806 0.4159477
v -0.3285331 -0.288806 0.4159477
v 0.4981006 0.12358 0.134016
v 0.4981006 0.12358 0.134016
v 0.4981006 0.12358 0.134016
v 0.4981006 0.12358 0.134016
v 0.4981006 0.12358 0.134016
v 0.5183398 0.1357718 0.214315
v 0.5183398 0.1357718 0.214315
v 0.5183398 0.1357718 0.214315
v 0.5183398 0.1357718 0.214315
v 0.5157597 0.1275749 0.4159477
v 0.5157597 0.1275749 0.4159477
v 0.5157597 0.1275749 0.4159477
v 0.5157597 0.1275749 0.4159477
v 0.5157597 0.1275749 0.4159477
v 0.5157597 0.1275749 0.4159477
v 0.0726544 -0.1800437 -0.04392606
v 0.0726544 -0.1800437 -0.04392606
v 0.0726544 -0.1800437 -0.04392606
v 0.0726544 -0.1800437 -0.04392606
v 0.0726544 -0.1800437 -0.04392606
v -0.1014497 -0.3111033 0.1004235
v -0.1014497 -0.3111033 0.1004235
v -0.1014497 -0.3111033 0.1004235
v -0.1014497 -0.3111033 0.1004235
v -0.1014497 -0.3111033 0.1004235
v -0.2303811 -0.4146991 0.4159477
v -0.2303811 -0.4146991 0.4159477
v -0.2303811 -0.4146991 0.4159477
v -0.2303811 -0.4146991 0.4159477
vt 0.9584798 0.1983604
vt 0.9415455 0.1848402
vt 0.9535134 0.197081
vt 0.5414858 1
vt 0.5545225 0.9917681
vt 0.9846751 0.1492038
vt 0.9650334 0.1546211
vt 0.9487317 0.1591177
vt 1.123112 0.2625934
vt 0.9744568 0.202477
vt 0.9846752 0.2023327
vt 1.176551 0.130638
vt 1.091421 0.2507217
vt 1.07044 0.2625934
vt 0.1687583 1.175186
vt -1.178283 0.2113786
vt 0.6228459 0.9418868
vt 0.06069472 1.098066
vt 0.01647219 1.064777
vt 0.4884585 0.8321316
vt 0.9584798 0.1983604
vt 0.9584798 0.1983604
vt 0.9584796 0.1983604
vt 0.9584796 0.1983604
vt -1.249131 0.1342561
vt -1.249131 0.1342561
vt -1.249131 0.1342561
vt 0.5603959 1
vt 0.9415455 0.1848402
vt 0.08517356 1.249131
vt 0.08517356 1.249131
vt 0.08517356 1.249131
vt 0.1451427 1.249131
vt -1.249131 0.1099246
vt 0.9415455 0.179397
vt 0.9415455 0.179397
vt 0.9415455 0.179397
vt 0.05850558 1.249131
vt 0.05850558 1.249131
vt 0.05850558 1.249131
vt 0.05850558 1.249131
vt 0.07689039 1.2388
vt 0.07689039 1.2388
vt 1.249131 0.2625934
vt 0.9846751 0.1492038
vt 0.9846751 0.1492038
vt 0.4365943 1
vt 0.9650334 0.1546211
vt 0.9650332 0.1546216
vt 1.249131 0.1663631
vt 1.249131 0.1663631
vt 1.249131 0.1663631
vt 1.249131 0.0864982
vt -0.04084533 1.249131
vt 0.4572574 0.899583
vt 1.123112 0.2625934
vt 1.123112 0.2625934
vt 1.123112 0.2625934
vt 0.4572574 0.899583
vt 0.4572574 0.899583
vt 0.4572574 0.899583
vt 0.9744568 0.202477
vt -1.249131 0.2125316
vt -1.249131 0.2125316
vt 0.6211648 1
vt 0.6211648 1
vt -1.249131 0.2625934
vt -1.249131 0.2625934
vt -0.03623721 1.176551
vt 1.176551 0.130638
vt 1.176551 0.130638
vt -0.03623721 1.176551
vt 1.176551 0.130638
vt 1.091421 0.2507217
vt 1.091421 0.2507217
vt 1.091421 0.2507217
vt 1.091421 0.2507217
vt 0.4707804 0.8576122
vt 1.07044 0.2625934
vt -1.175186 0.1909826
vt -1.175186 0.1909826
vt 0.1687583 1.175186
vt -0.1687583 0.1909826
vt -0.1687583 0.1909826
vt -1.178283 0.2113786
vt -1.178283 0.2113786
vt -1.178283 0.2113786
vt -0.173899 0.2113786
vt -1.176201 0.2625934
vt 0.6228459 0.9418868
vt -0.1732437 0.2625934
vt -0.1732437 0.2625934
vt -0.1732437 0.2625934
vt -0.1732437 0.2625934
vt 0.06069472 1.098066
vt 0.06069472 1.098066
vt 0.06069472 1.098066
vt -0.06069471 0.1457852
vt -0.06069471 0.1457852
vt 1.064777 0.1824501
vt 0.01647219 1.064777
vt 1.064777 0.1824501
vt -0.01647218 0.1824501
vt -0.01647218 0.1824501
vt 0.4884585 0.8321316
vt 1.038463 0.2625934
vt 1.038463 0.2625934
vt 0.01627647 0.2625934
vn 0 1 0
vn 0 1 0
vn 0 1 0
vn 0 0 -1
vn 0 0 -1
vn 0 1 0
vn 0 1 0
vn 0 1 0
vn -0.9409063 -0.2175737 -0.2595323
vn 0 1 0
vn 0 1 0
vn -0.9409062 -0.2175739 -0.2595328
vn -0.938036 -0.33963 0.06884789
vn -0.938036 -0.33963 0.06884789
vn 0.6098248 -0.4889644 -0.6237207
vn 0.9677547 0.03573695 -0.2493466
vn 0 0 1
vn -0.2871186 -0.5109723 -0.8102286
vn -0.287118 -0.5109723 -0.8102288
vn 0 0 1
vn 0 1 0
vn 0 1 0
vn 0 1 0
vn 0 1 0
vn 0.9677548 0.03573726 -0.2493463
vn 0.9677547 0.03573695 -0.2493466
vn 0.9677547 0.03573719 -0.2493464
vn 0 0 -1
vn 0 1 0
vn 0.6098248 -0.4889644 -0.6237207
vn 0.6098244 -0.4889648 -0.6237207
vn 0.6098239 -0.488965 -0.6237211
vn 0.6098248 -0.4889644 -0.6237207
vn 0.9677548 0.03573726 -0.2493463
vn 0 1 0
vn 0 1 0
vn 0 1 0
vn -0.2871179 -0.5109722 -0.8102288
vn -0.2871186 -0.5109723 -0.8102286
vn -0.287118 -0.5109723 -0.8102288
vn -0.2871174 -0.5109724 -0.8102288
vn -0.2871186 -0.5109723 -0.8102286
vn 0.6098239 -0.488965 -0.6237211
vn -0.9409063 -0.2175737 -0.2595323
vn 0 1 0
vn 0 1 0
vn 0 0 1
vn 0 1 0
vn 0 1 0
vn -0.9409063 -0.2175737 -0.2595323
vn -0.9409062 -0.2175739 -0.2595328
vn -0.9409062 -0.217574 -0.2595327
vn -0.9409062 -0.2175739 -0.2595328
vn -0.2871179 -0.5109722 -0.8102288
vn 0 0 1
vn -0.938036 -0.33963 0.06884789
vn -0.9409062 -0.217574 -0.2595327
vn -0.9409063 -0.2175736 -0.2595326
vn 0 0 1
vn 0 0 1
vn 0 0 1
vn 0 1 0
vn 0.9677547 0.03573695 -0.2493466
vn 0.9993726 0.03248432 0.01410864
vn 0 0 1
vn 0 0 1
vn 0.9993726 0.03248432 0.01410864
vn 0.9993727 0.03248456 0.01410832
vn -0.2871179 -0.5109722 -0.8102288
vn -0.9409062 -0.217574 -0.2595327
vn -0.9409063 -0.2175736 -0.2595326
vn -0.287118 -0.5109723 -0.8102288
vn -0.6985075 -0.5445875 -0.4642324
vn -0.9409063 -0.2175736 -0.2595326
vn -0.6985075 -0.5445875 -0.4642324
vn -0.6985075 -0.5445876 -0.4642324
vn -0.6985068 -0.5445876 -0.4642335
vn 0 0 1
vn -0.6985068 -0.5445876 -0.4642335
vn 0.9677548 0.03573726 -0.2493463
vn 0.9677547 0.03573719 -0.2493464
vn 0.6098244 -0.4889648 -0.6237207
vn 0.5877181 -0.8086685 -0.02535368
vn 0.5877201 -0.8086669 -0.02535383
vn 0.9993726 0.03248432 0.01410864
vn 0.9677547 0.03573719 -0.2493464
vn 0.9993727 0.03248456 0.01410832
vn 0.5877201 -0.8086669 -0.02535383
vn 0.9993727 0.03248456 0.01410832
vn 0 0 1
vn 0.5877176 -0.8086689 -0.02535265
vn 0.5877178 -0.8086687 -0.02535339
vn 0.5877181 -0.8086685 -0.02535368
vn 0.5877201 -0.8086669 -0.02535383
vn 0.6098244 -0.4889648 -0.6237207
vn 0.6098239 -0.488965 -0.6237211
vn -0.2871174 -0.5109724 -0.8102288
vn 0.5877178 -0.8086687 -0.02535339
vn 0.5877181 -0.8086685 -0.02535368
vn -0.6985075 -0.5445875 -0.4642324
vn -0.2871174 -0.5109724 -0.8102288
vn -0.6985075 -0.5445876 -0.4642324
vn 0.5877176 -0.8086689 -0.02535265
vn 0.5877178 -0.8086687 -0.02535339
vn 0 0 1
vn -0.6985075 -0.5445876 -0.4642324
vn -0.6985068 -0.5445876 -0.4642335
vn 0.5877176 -0.8086689 -0.02535265
g wall__sh_73_0
f 3/3/3 2/2/2 1/1/1
f 5/5/5 4/4/4 28/28/28
f 21/21/21 29/29/29 35/35/35
f 7/7/7 36/36/36 8/8/8
f 22/22/22 37/37/37 48/48/48
f 6/6/6 23/23/23 49/49/49
f 10/10/10 45/45/45 11/11/11
f 24/24/24 46/46/46 62/62/62
f 65/65/65 47/47/47 55/55/55
f 17/17/17 66/66/66 59/59/59
f 60/60/60 78/78/78 20/20/20
f 90/90/90 61/61/61 105/105/105
f 9/9/9 44/44/44 50/50/50
f 51/51/51 53/53/53 12/12/12
f 13/13/13 14/14/14 56/56/56
f 69/69/69 54/54/54 38/38/38
f 57/57/57 52/52/52 70/70/70
f 71/71/71 74/74/74 58/58/58
f 30/30/30 33/33/33 15/15/15
f 80/80/80 34/34/34 25/25/25
f 26/26/26 63/63/63 16/16/16
f 85/85/85 64/64/64 67/67/67
f 39/39/39 42/42/42 18/18/18
f 72/72/72 40/40/40 19/19/19
f 75/75/75 73/73/73 100/100/100
f 81/81/81 27/27/27 86/86/86
f 31/31/31 82/82/82 95/95/95
f 96/96/96 43/43/43 32/32/32
f 87/87/87 68/68/68 89/89/89
f 101/101/101 41/41/41 97/97/97
f 76/76/76 102/102/102 106/106/106
f 107/107/107 79/79/79 77/77/77
f 91/91/91 108/108/108 103/103/103
f 92/92/92 104/104/104 98/98/98
f 93/93/93 99/99/99 83/83/83
f 84/84/84 88/88/88 94/94/94
