g wall__sh_37
v 0.3302386 -0.4893904 0.4159477
v 0.3302386 -0.4893904 -0.4159476
v 0.3302386 0.48707 -0.4159476
v 0.3302386 0.412983 -0.2640116
v 0.3302386 0.4893904 -0.3965896
v -0.01673198 -0.4893904 0.4159477
v -0.03749657 -0.4893904 0.360849
v -0.3302386 -0.4893904 -0.4159476
v -0.07654142 0.045026 -0.4159476
v 0.08631253 -0.2723253 0.4159477
v 0.138279 0.3072091 -0.1761833
v 0.3302386 -0.02206647 0.4159477
v 0.3302386 0.1437649 0.2031217
v 0.1506119 -0.1368779 0.4159477
v 0.1452777 0.2754891 -0.117655
v 0.3302386 -0.4893904 0.4159477
v 0.3302386 -0.4893904 0.4159477
v 0.3302386 -0.4893904 0.4159477
v 0.3302386 -0.4893904 0.4159477
v 0.3302386 -0.4893904 -0.4159476
v 0.3302386 -0.4893904 -0.4159476
v 0.3302386 -0.4893904 -0.4159476
v 0.3302386 -0.4893904 -0.4159476
v 0.3302386 -0.4893904 -0.4159476
v 0.3302386 -0.4893904 -0.4159476
v 0.3302386 0.48707 -0.4159476
v 0.3302386 0.48707 -0.4159476
v 0.3302386 0.48707 -0.4159476
v 0.3302386 0.48707 -0.4159476
v 0.3302386 0.412983 -0.2640116
v 0.3302386 0.412983 -0.2640116
v 0.3302386 0.412983 -0.2640116
v 0.3302386 0.412983 -0.2640116
v 0.3302386 0.412983 -0.2640116
v 0.3302386 0.412983 -0.2640116
v 0.3302386 0.4893904 -0.3965896
v 0.3302386 0.4893904 -0.3965896
v -0.01673198 -0.4893904 0.4159477
v -0.01673198 -0.4893904 0.4159477
v -0.03749657 -0.4893904 0.360849
v -0.03749657 -0.4893904 0.360849
v -0.03749657 -0.4893904 0.360849
v -0.03749657 -0.4893904 0.360849
v -0.03749657 -0.4893904 0.360849
v -0.03749657 -0.4893904 0.360849
v -0.03749657 -0.4893904 0.360849
v -0.03749657 -0.4893904 0.360849
v -0.3302386 -0.4893904 -0.4159476
v -0.3302386 -0.4893904 -0.4159476
v -0.07654142 0.045026 -0.4159476
v -0.07654142 0.045026 -0.4159476
v -0.07654142 0.045026 -0.4159476
v -0.07654142 0.045026 -0.4159476
v 0.08631253 -0.2723253 0.4159477
v 0.08631253 -0.2723253 0.4159477
v 0.08631253 -0.2723253 0.4159477
v 0.08631253 -0.2723253 0.4159477
v 0.138279 0.3072091 -0.1761833
v 0.138279 0.3072091 -0.1761833
v 0.138279 0.3072091 -0.1761833
v 0.138279 0.3072091 -0.1761833
v 0.138279 0.3072091 -0.1761833
v 0.3302386 -0.02206647 0.4159477
v 0.3302386 -0.02206647 0.4159477
v 0.3302386 -0.02206647 0.4159477
v 0.3302386 -0.02206647 0.4159477
v 0.3302386 -0.02206647 0.4159477
v 0.3302386 0.1437649 0.2031217
v 0.3302386 0.1437649 0.2031217
v 0.3302386 0.1437649 0.2031217
v 0.1506119 -0.1368779 0.4159477
v 0.1506119 -0.1368779 0.4159477
v 0.1506119 -0.1368779 0.4159477
v 0.1506119 -0.1368779 0.4159477
v 0.1452777 0.2754891 -0.117655
v 0.1452777 0.2754891 -0.117655
v 0.1452777 0.2754891 -0.117655
v 0.1452777 0.2754891 -0.117655
vt 0.9846751 0.3113812
vt 0.9914867 0.3394024
vt 0.9914867 0.4001519
vt 0.9820342 0.3955427
vt 0.9902824 0.4002962
vt 0.984675 0.2933925
vt 0.9818186 0.292316
vt 0.8810416 0
vt 0.9267352 0.1081648
vt 0.9560665 0.04393351
vt 0.1965109 0.1121919
vt 0.9397312 0.3684765
vt 0.9529719 0.3787935
vt 0.9676475 0.07134777
vt 0.188454 0.1270581
vt 0.9846751 0.3113812
vt 1 0
vt 0.9397312 0.3394024
vt 1 0
vt 0.9415455 0.3113812
vt 1 0
vt 1 0
vt 0.9415455 0.3113812
vt 0.9914867 0.3394024
vt 0.9914867 0.3394024
vt 0.9914867 0.4001519
vt 1 0.1976335
vt 0.2421957 0.05129161
vt 0.2421957 0.05129161
vt 0.9820342 0.3955427
vt 0.7051268 0.08988337
vt 0.9820342 0.3955426
vt 0.9820342 0.3955426
vt 0.7051268 0.08988337
vt 0.7051268 0.08988337
vt 0.2427851 0.05620855
vt 0.7051268 0.05620849
vt 0.9375072 0
vt -0.005825744 0.2625934
vt 0.9818186 0.2923161
vt 0.9818186 0.2923161
vt -0.005825745 0.2485984
vt -0.005825745 0.2485984
vt -0.005825745 0.2485984
vt -0.005825745 0.2485984
vt -0.005825745 0.2485984
vt -0.005825745 0.2485984
vt 0.9415455 0.2771382
vt -0.005825757 0.05129162
vt 0.9267352 0.1081648
vt 0.1299163 0.05129161
vt 0.1299163 0.05129161
vt 0.1299163 0.05129161
vt 0.04930889 0.2625934
vt 0.9560665 0.0439335
vt 0.9560665 0.0439335
vt 0.04930889 0.2625934
vt 0.656369 0.1121918
vt 0.1965109 0.1121919
vt 0.1965109 0.1121919
vt 0.1965109 0.1121919
vt 0.656369 0.1121918
vt 0.9397312 0.3684765
vt 0.9397312 0.3684765
vt 1 0.09458535
vt 1 0.09458535
vt 0.7051268 0.2625934
vt 0.7051268 0.2085355
vt 0.7051268 0.2085355
vt 0.7051268 0.2085355
vt 0.08371262 0.2625934
vt 0.08371262 0.2625934
vt 0.6595016 0.2625934
vt 0.6595016 0.2625934
vt 0.6581467 0.127058
vt 0.6581467 0.127058
vt 0.188454 0.1270581
vt 0.6581467 0.127058
vn 0 -1 0
vn 1 0 0
vn 1 0 0
vn 1 0 0
vn 1 0 0
vn 0 -1 0
vn 0 -1 0
vn 0 0 -1
vn 0 0 -1
vn 0 0 1
vn -0.7334368 0.6749261 -0.08090227
vn 1 0 0
vn 1 0 0
vn 0 0 1
vn -0.8551762 0.4059677 0.3222795
vn 0 -1 0
vn 0 0 1
vn 1 0 0
vn 0 0 1
vn 0 -1 0
vn 0 0 -1
vn 0 0 -1
vn 0 -1 0
vn 1 0 0
vn 1 0 0
vn 1 0 0
vn 0 0 -1
vn -0.7334368 0.6749261 -0.08090227
vn -0.7334364 0.6749267 -0.0809015
vn 1 0 0
vn -0.2415767 0.84075 0.4845411
vn 1 0 0
vn 1 0 0
vn -0.2415769 0.8407502 0.4845408
vn -0.241577 0.8407502 0.4845407
vn -0.7334368 0.6749261 -0.08090227
vn -0.2415767 0.84075 0.4845411
vn 0 0 1
vn -0.8551754 0.4059665 0.3222831
vn 0 -1 0
vn 0 -1 0
vn -0.855176 0.4059676 0.3222799
vn -0.8551757 0.4059679 0.3222801
vn -0.8551754 0.4059665 0.3222831
vn -0.8551762 0.4059677 0.3222795
vn -0.8551761 0.4059677 0.3222797
vn -0.855176 0.4059675 0.3222801
vn 0 -1 0
vn -0.855176 0.4059676 0.3222799
vn 0 0 -1
vn -0.7334364 0.6749267 -0.0809015
vn -0.855176 0.4059676 0.3222799
vn -0.8551757 0.4059679 0.3222801
vn -0.8551754 0.4059665 0.3222831
vn 0 0 1
vn 0 0 1
vn -0.855176 0.4059675 0.3222801
vn -0.2415767 0.84075 0.4845411
vn -0.7334364 0.6749267 -0.0809015
vn -0.8551757 0.4059679 0.3222801
vn -0.8551762 0.4059677 0.3222795
vn -0.241577 0.8407502 0.4845407
vn 1 0 0
vn 1 0 0
vn 0 0 1
vn 0 0 1
vn -0.4501992 0.7043533 0.5488234
vn -0.2415769 0.8407502 0.4845408
vn -0.4501995 0.7043533 0.5488231
vn -0.4501992 0.7043533 0.5488234
vn -0.8551761 0.4059677 0.3222797
vn -0.855176 0.4059675 0.3222801
vn -0.4501995 0.7043533 0.5488231
vn -0.4501992 0.7043533 0.5488234
vn -0.2415769 0.8407502 0.4845408
vn -0.241577 0.8407502 0.4845407
vn -0.8551761 0.4059677 0.3222797
vn -0.4501995 0.7043533 0.5488231
g wall__sh_37_0
f 4/4/4 3/3/3 5/5/5
f 2/2/2 26/26/26 30/30/30
f 1/1/1 6/6/6 7/7/7
f 20/20/20 16/16/16 40/40/40
f 9/9/9 27/27/27 21/21/21
f 8/8/8 50/50/50 22/22/22
f 48/48/48 23/23/23 41/41/41
f 38/38/38 17/17/17 10/10/10
f 12/12/12 18/18/18 24/24/24
f 63/63/63 25/25/25 32/32/32
f 33/33/33 13/13/13 64/64/64
f 55/55/55 19/19/19 65/65/65
f 66/66/66 14/14/14 56/56/56
f 11/11/11 36/36/36 28/28/28
f 31/31/31 37/37/37 58/58/58
f 59/59/59 29/29/29 51/51/51
f 52/52/52 49/49/49 42/42/42
f 60/60/60 53/53/53 43/43/43
f 44/44/44 39/39/39 54/54/54
f 15/15/15 61/61/61 45/45/45
f 75/75/75 68/68/68 34/34/34
f 35/35/35 62/62/62 76/76/76
f 71/71/71 77/77/77 46/46/46
f 47/47/47 57/57/57 72/72/72
f 69/69/69 78/78/78 73/73/73
f 74/74/74 67/67/67 70/70/70
