g wall__sh_29
v -0.4233581 0.2124252 -0.1341659
v -0.3555558 0.3132825 -0.1444868
v -0.3850007 0.2263427 -0.1836706
v 0.6049409 0.08936357 0.2178815
v -0.5365893 0.09050608 0.03737408
v -0.3147799 0.07228851 -0.2178815
v 0.1308913 -0.2535923 -0.2047467
v 0.213202 -0.5448675 0.2178815
v -0.6049409 0.04010868 0.2178815
v 0.5683613 0.1236644 0.1247788
v 0.5691674 0.127068 0.2178815
v 0.5309184 0.1390872 0.04907733
v -0.2757658 0.5448675 0.2178815
v -0.3447763 0.332828 -0.1344806
v -0.2500849 0.5240073 0.01804686
v -0.08736992 0.4419184 -0.02187294
v -0.4233581 0.2124252 -0.1341659
v -0.4233581 0.2124252 -0.1341659
v -0.3555558 0.3132825 -0.1444868
v -0.3555558 0.3132825 -0.1444868
v -0.3555558 0.3132825 -0.1444868
v -0.3555558 0.3132825 -0.1444868
v -0.3555558 0.3132825 -0.1444868
v -0.3850007 0.2263427 -0.1836706
v -0.3850007 0.2263427 -0.1836706
v -0.3850007 0.2263427 -0.1836706
v -0.3850007 0.2263427 -0.1836706
v 0.6049409 0.08936357 0.2178815
v 0.6049409 0.08936357 0.2178815
v 0.6049409 0.08936357 0.2178815
v 0.6049409 0.08936357 0.2178815
v 0.6049409 0.08936357 0.2178815
v -0.5365893 0.09050608 0.03737408
v -0.5365893 0.09050608 0.03737408
v -0.5365893 0.09050608 0.03737408
v -0.5365893 0.09050608 0.03737408
v -0.3147799 0.07228851 -0.2178815
v -0.3147799 0.07228851 -0.2178815
v -0.3147799 0.07228851 -0.2178815
v -0.3147799 0.07228851 -0.2178815
v -0.3147799 0.07228851 -0.2178815
v -0.3147799 0.07228851 -0.2178815
v 0.1308913 -0.2535923 -0.2047467
v 0.1308913 -0.2535923 -0.2047467
v 0.1308913 -0.2535923 -0.2047467
v 0.1308913 -0.2535923 -0.2047467
v 0.1308913 -0.2535923 -0.2047467
v 0.213202 -0.5448675 0.2178815
v 0.213202 -0.5448675 0.2178815
v -0.6049409 0.04010868 0.2178815
v -0.6049409 0.04010868 0.2178815
v -0.6049409 0.04010868 0.2178815
v -0.6049409 0.04010868 0.2178815
v -0.6049409 0.04010868 0.2178815
v -0.6049409 0.04010868 0.2178815
v 0.5683613 0.1236644 0.1247788
v 0.5683613 0.1236644 0.1247788
v 0.5683613 0.1236644 0.1247788
v 0.5691674 0.127068 0.2178815
v 0.5691674 0.127068 0.2178815
v 0.5691674 0.127068 0.2178815
v 0.5691674 0.127068 0.2178815
v 0.5691674 0.127068 0.2178815
v 0.5309184 0.1390872 0.04907733
v 0.5309184 0.1390872 0.04907733
v 0.5309184 0.1390872 0.04907733
v 0.5309184 0.1390872 0.04907733
v -0.2757658 0.5448675 0.2178815
v -0.2757658 0.5448675 0.2178815
v -0.2757658 0.5448675 0.2178815
v -0.2757658 0.5448675 0.2178815
v -0.2757658 0.5448675 0.2178815
v -0.3447763 0.332828 -0.1344806
v -0.3447763 0.332828 -0.1344806
v -0.3447763 0.332828 -0.1344806
v -0.3447763 0.332828 -0.1344806
v -0.3447763 0.332828 -0.1344806
v -0.2500849 0.5240073 0.01804686
v -0.2500849 0.5240073 0.01804686
v -0.2500849 0.5240073 0.01804686
v -0.08736992 0.4419184 -0.02187294
v -0.08736992 0.4419184 -0.02187294
v -0.08736992 0.4419184 -0.02187294
v -0.08736992 0.4419184 -0.02187294
vt 1.071576 0.1731732
vt 1.097194 0.1705517
vt 1.075112 0.160599
vt -1.040319 0.2625934
vt 1.040609 0.2167444
vt 1.035982 0.1519094
vt -0.9532077 0.1552456
vt -0.8792236 0.2625934
vt 1.027808 0.2625934
vt -1.049031 0.2389453
vt -1.049896 0.2625934
vt 0.6365511 1.052948
vt 0.8060818 0.9258032
vt 0.4141243 1.102159
vt 1.150718 0.2118353
vt 0.4795056 1.129868
vt 1.071576 0.1731732
vt 1.071576 0.1731732
vt 1.097194 0.1705517
vt 1.097194 0.1705517
vt 1.097194 0.1705517
vt 0.4113863 1.097194
vt 1.097194 0.1705517
vt 1.075112 0.160599
vt 1.075112 0.160599
vt 0.4039072 1.075112
vt 0.4039072 1.075112
vt 0.9647056 0.8336101
vt -1.040319 0.2625934
vt -1.040319 0.2625934
vt 0.9647056 0.8336101
vt 0.9647056 0.8336101
vt 1.040609 0.2167444
vt 1.040609 0.2167444
vt 1.040609 0.2167444
vt -0.3654036 0.2167444
vt -0.4217433 0.1519094
vt -0.4217433 0.1519094
vt 0.4217433 1.035982
vt 0.4217433 1.035982
vt 0.4217433 1.035982
vt 0.4217433 1.035982
vt -0.534944 0.1552456
vt -0.534944 0.1552456
vt 0.534944 0.9532077
vt -0.9532077 0.1552456
vt -0.9532077 0.1552456
vt 0.8941497 0.7052431
vt -0.555851 0.2625934
vt 0.7467941 0.8236411
vt -0.3480422 0.2625934
vt -0.3480422 0.2625934
vt -0.3480422 0.2625934
vt 0.7467941 0.8236411
vt 1.027808 0.2625934
vt -1.049031 0.2389453
vt -1.049031 0.2389453
vt 0.6460616 0.2389452
vt 0.9582626 0.8412414
vt 0.6462663 0.2625934
vt 0.6462663 0.2625934
vt 0.6462663 0.2625934
vt 0.6462663 0.2625934
vt -1.052948 0.2197171
vt 0.6365511 0.219717
vt 0.6365511 1.052948
vt 0.6365511 0.219717
vt 0.8060818 0.9258032
vt 1.156017 0.2625934
vt 1.156017 0.2625934
vt 1.156017 0.2625934
vt 0.4316529 0.2625934
vt 1.102159 0.1730933
vt 1.102159 0.1730933
vt 0.4141243 1.102159
vt 0.4141243 1.102159
vt 0.4141243 1.102159
vt 0.4381759 0.2118353
vt 0.4381759 0.2118353
vt 0.4381759 1.150718
vt 0.4795056 1.129868
vt 0.4795056 0.2016956
vt 0.4795056 0.2016956
vt 0.4795056 1.129868
vn -0.7588438 0.4633011 -0.4577206
vn -0.7588438 0.4633011 -0.4577206
vn -0.7588438 0.4633011 -0.4577206
vn 0.7523985 -0.4647261 -0.4668256
vn -0.7466682 -0.1994212 -0.6346005
vn -0.7466689 -0.1994198 -0.6346002
vn 0.7523985 -0.4647261 -0.4668256
vn 0.7523985 -0.4647261 -0.4668256
vn -0.8264924 0.5389912 -0.1624772
vn 0.7250803 0.6879469 -0.0314279
vn 0.7250803 0.6879469 -0.0314279
vn 0.2618663 0.3214476 -0.9099987
vn 0 0 1
vn 0.2618737 0.3214437 -0.9099978
vn -0.8264925 0.5389911 -0.162477
vn 0.2618664 0.3214473 -0.9099987
vn -0.7466682 -0.1994212 -0.6346005
vn -0.8264924 0.5389912 -0.1624772
vn -0.8264924 0.5389912 -0.1624772
vn -0.8264924 0.5389912 -0.1624772
vn -0.8264922 0.5389914 -0.162477
vn 0.2618737 0.3214437 -0.9099978
vn -0.8264894 0.538995 -0.16248
vn -0.7466682 -0.1994212 -0.6346005
vn -0.7466689 -0.1994198 -0.6346002
vn 0.2618737 0.3214437 -0.9099978
vn 0.2618655 0.3214474 -0.9099989
vn 0 0 1
vn 0.7250803 0.6879469 -0.0314279
vn 0.7523987 -0.4647244 -0.466827
vn 0 0 1
vn 0 0 1
vn -0.8264924 0.5389912 -0.1624772
vn -0.8264924 0.5389912 -0.1624772
vn -0.7466689 -0.1994198 -0.6346002
vn -0.5309181 -0.7425436 -0.4083565
vn -0.5309207 -0.7425409 -0.4083581
vn -0.5309181 -0.7425436 -0.4083565
vn 0.2618663 0.3214476 -0.9099987
vn 0.2618664 0.3214473 -0.9099987
vn 0.2618662 0.3214474 -0.9099988
vn 0.2618655 0.3214474 -0.9099989
vn -0.5309206 -0.7425412 -0.4083577
vn -0.5309207 -0.7425409 -0.4083581
vn 0.2618663 0.3214476 -0.9099987
vn 0.7523987 -0.4647244 -0.466827
vn 0.7523988 -0.4647258 -0.4668255
vn 0 0 1
vn -0.5309206 -0.7425412 -0.4083577
vn 0 0 1
vn -0.5309206 -0.7425412 -0.4083577
vn -0.5309207 -0.7425409 -0.4083581
vn -0.5309181 -0.7425436 -0.4083565
vn 0 0 1
vn -0.8264922 0.5389914 -0.162477
vn 0.7523987 -0.4647244 -0.466827
vn 0.7523988 -0.4647258 -0.4668255
vn 0.4429472 0.8958009 -0.03658393
vn 0 0 1
vn 0.4429472 0.8958009 -0.03658393
vn 0.4429514 0.8957989 -0.03658608
vn 0.4429511 0.895799 -0.03658414
vn 0.4429512 0.895799 -0.0365851
vn 0.7523988 -0.4647258 -0.4668255
vn 0.4429472 0.8958009 -0.03658393
vn 0.2618664 0.3214473 -0.9099987
vn 0.4429512 0.895799 -0.0365851
vn 0 0 1
vn -0.8264922 0.5389914 -0.162477
vn -0.8264925 0.5389911 -0.162477
vn -0.8264894 0.538995 -0.16248
vn 0.4429514 0.8957989 -0.03658608
vn -0.8264925 0.5389911 -0.162477
vn -0.8264894 0.538995 -0.16248
vn 0.2618662 0.3214474 -0.9099988
vn 0.2618655 0.3214474 -0.9099989
vn 0.1007769 0.5895044 -0.8014539
vn 0.4429514 0.8957989 -0.03658608
vn 0.4429511 0.895799 -0.03658414
vn 0.1007769 0.5895044 -0.8014539
vn 0.2618662 0.3214474 -0.9099988
vn 0.4429511 0.895799 -0.03658414
vn 0.4429512 0.895799 -0.0365851
vn 0.1007769 0.5895044 -0.8014539
g wall__sh_29_0
f 48/48/48 28/28/28 50/50/50
f 13/13/13 31/31/31 59/59/59
f 54/54/54 32/32/32 68/68/68
f 2/2/2 3/3/3 1/1/1
f 5/5/5 17/17/17 24/24/24
f 33/33/33 9/9/9 19/19/19
f 20/20/20 18/18/18 34/34/34
f 35/35/35 25/25/25 6/6/6
f 7/7/7 4/4/4 8/8/8
f 43/43/43 49/49/49 51/51/51
f 37/37/37 44/44/44 52/52/52
f 53/53/53 36/36/36 38/38/38
f 10/10/10 11/11/11 29/29/29
f 45/45/45 39/39/39 12/12/12
f 56/56/56 30/30/30 46/46/46
f 64/64/64 57/57/57 47/47/47
f 21/21/21 55/55/55 69/69/69
f 60/60/60 58/58/58 65/65/65
f 26/26/26 22/22/22 14/14/14
f 73/73/73 70/70/70 15/15/15
f 23/23/23 71/71/71 74/74/74
f 16/16/16 66/66/66 40/40/40
f 78/78/78 72/72/72 61/61/61
f 75/75/75 81/81/81 41/41/41
f 42/42/42 27/27/27 76/76/76
f 82/82/82 79/79/79 62/62/62
f 63/63/63 67/67/67 83/83/83
f 84/84/84 77/77/77 80/80/80
