g wall__sh_8
v -0.4562945 -0.2213976 0.1753594
v -0.432646 0.3156903 0.1753594
v 0.2616451 0.4607494 0.1753594
v -0.4995177 -0.2927494 -0.1522728
v -0.462543 0.3826816 -0.09313339
v 0.2204144 0.5298321 -0.1094814
v 0.4995178 0.04916453 0.1753594
v 0.4431316 0.144119 -0.1538149
v -0.03783214 -0.5298321 0.1753594
v 0.4311684 -0.1012146 -0.1753594
v -0.3995528 -0.369982 -0.1635481
v 0.4922858 -0.1707432 0.1753594
v 0.3207843 -0.4179106 0.1753594
v 0.4575006 -0.2289095 -0.006473958
v -0.4562945 -0.2213976 0.1753594
v -0.4562945 -0.2213976 0.1753594
v -0.4562945 -0.2213976 0.1753594
v -0.432646 0.3156903 0.1753594
v -0.432646 0.3156903 0.1753594
v -0.432646 0.3156903 0.1753594
v -0.432646 0.3156903 0.1753594
v -0.432646 0.3156903 0.1753594
v 0.2616451 0.4607494 0.1753594
v 0.2616451 0.4607494 0.1753594
v -0.4995177 -0.2927494 -0.1522728
v -0.4995177 -0.2927494 -0.1522728
v -0.4995177 -0.2927494 -0.1522728
v -0.4995177 -0.2927494 -0.1522728
v -0.4995177 -0.2927494 -0.1522728
v -0.4995177 -0.2927494 -0.1522728
v -0.462543 0.3826816 -0.09313339
v -0.462543 0.3826816 -0.09313339
v -0.462543 0.3826816 -0.09313339
v 0.2204144 0.5298321 -0.1094814
v 0.2204144 0.5298321 -0.1094814
v 0.2204144 0.5298321 -0.1094814
v 0.2204144 0.5298321 -0.1094814
v 0.2204144 0.5298321 -0.1094814
v 0.4995178 0.04916453 0.1753594
v 0.4995178 0.04916453 0.1753594
v 0.4995178 0.04916453 0.1753594
v 0.4995178 0.04916453 0.1753594
v 0.4995178 0.04916453 0.1753594
v 0.4431316 0.144119 -0.1538149
v 0.4431316 0.144119 -0.1538149
v 0.4431316 0.144119 -0.1538149
v 0.4431316 0.144119 -0.1538149
v -0.03783214 -0.5298321 0.1753594
v -0.03783214 -0.5298321 0.1753594
v -0.03783214 -0.5298321 0.1753594
v -0.03783214 -0.5298321 0.1753594
v -0.03783214 -0.5298321 0.1753594
v -0.03783214 -0.5298321 0.1753594
v -0.03783214 -0.5298321 0.1753594
v 0.4311684 -0.1012146 -0.1753594
v 0.4311684 -0.1012146 -0.1753594
v 0.4311684 -0.1012146 -0.1753594
v 0.4311684 -0.1012146 -0.1753594
v 0.4311684 -0.1012146 -0.1753594
v 0.4311684 -0.1012146 -0.1753594
v -0.3995528 -0.369982 -0.1635481
v -0.3995528 -0.369982 -0.1635481
v 0.4922858 -0.1707432 0.1753594
v 0.4922858 -0.1707432 0.1753594
v 0.4922858 -0.1707432 0.1753594
v 0.4922858 -0.1707432 0.1753594
v 0.4922858 -0.1707432 0.1753594
v 0.3207843 -0.4179106 0.1753594
v 0.3207843 -0.4179106 0.1753594
v 0.3207843 -0.4179106 0.1753594
v 0.4575006 -0.2289095 -0.006473958
v 0.4575006 -0.2289095 -0.006473958
vt 0.7448688 0.2625934
vt -0.5627696 0.2625934
vt -0.3864193 0.2625934
vt 0.7267454 0.1793747
vt 0.8983053 0.1943961
vt -0.3968919 0.1902437
vt 0.2688362 0.6529451
vt -0.8377103 0.178983
vt 0.1720542 0.5357574
vt -0.3433602 0.7753954
vt 0.5543639 0.1765108
vt -0.7577351 0.2625934
vt 0.2366446 0.5584101
vt 0.3366719 0.2164077
vt 0.7448688 0.2625934
vt 0.09668505 0.598184
vt 0.5687763 0.2625934
vt 0.8812894 0.2625934
vt -0.5627696 0.2625934
vt 0.1009445 0.7068894
vt 0.1009445 0.7068894
vt 0.1009445 0.7068894
vt 0.2259929 0.7362489
vt -0.9181345 0.2625934
vt -0.579755 0.7267454
vt 0.579755 0.1793747
vt 0.579755 0.1793747
vt -0.579755 0.7267454
vt -0.579755 0.7267454
vt -0.579755 0.7267454
vt 0.8983053 0.1943961
vt -0.5703635 0.1943962
vt -0.5703635 0.8983053
vt -0.3968919 0.1902437
vt -0.3968919 0.9356816
vt -0.9356816 0.1902437
vt -0.9356816 0.1902437
vt -0.3968919 0.9356816
vt -0.8135918 0.2625934
vt -0.8135918 0.2625934
vt 0.2688362 0.6529451
vt -0.8135918 0.2625934
vt 0.2688362 0.6529451
vt -0.3403216 0.8377103
vt -0.3403216 0.8377103
vt -0.8377103 0.178983
vt -0.8377103 0.178983
vt 0.4624867 0.2625934
vt 0.1720542 0.5357574
vt 0.4624867 0.2625934
vt 0.4624867 0.2625934
vt 0.1720542 0.5357574
vt 0.1720542 0.5357574
vt 0.4624867 0.2625934
vt -0.3433602 0.7753954
vt 0.3433603 0.1735107
vt 0.3433603 0.1735107
vt 0.3433603 0.1735107
vt -0.7753954 0.1735107
vt -0.7753954 0.1735107
vt -0.5543639 0.7071283
vt 0.5543639 0.1765108
vt 0.2675336 0.6084363
vt 0.2675336 0.6084363
vt -0.7577351 0.2625934
vt -0.7577351 0.2625934
vt -0.7577351 0.2625934
vt 0.3713979 0.2625934
vt 0.3713979 0.2625934
vt -0.6949545 0.2625934
vt -0.7429608 0.2164077
vt -0.7429608 0.2164077
vn -0.9916532 0.04366326 0.1213157
vn -0.1975929 0.9457315 0.2579708
vn -0.1975929 0.9457315 0.2579708
vn -0.9916532 0.04366326 0.1213157
vn -0.9916532 0.04366326 0.1213157
vn -0.1975929 0.9457315 0.2579708
vn 0 0 1
vn 0.8657962 0.5003811 -0.003966172
vn 0 0 1
vn -0.0430993 0.0894846 -0.9950553
vn -0.5751132 -0.7802738 0.2458
vn 0.9835339 -0.03234478 -0.1778056
vn 0 0 1
vn 0.2362545 -0.757001 -0.6092071
vn -0.9916531 0.04366345 0.1213161
vn 0 0 1
vn -0.5751133 -0.7802736 0.2458003
vn -0.9916531 0.04366345 0.1213161
vn -0.197593 0.9457316 0.2579706
vn 0 0 1
vn 0 0 1
vn 0 0 1
vn 0 0 1
vn 0.8657961 0.5003811 -0.003965946
vn -0.04309908 0.08948437 -0.9950553
vn -0.5751133 -0.7802736 0.2458003
vn -0.5751132 -0.7802738 0.2458
vn -0.04309927 0.08948452 -0.9950553
vn -0.0430993 0.0894846 -0.9950553
vn -0.04309929 0.08948454 -0.9950553
vn -0.9916531 0.04366345 0.1213161
vn -0.197593 0.9457316 0.2579706
vn -0.04309908 0.08948437 -0.9950553
vn -0.197593 0.9457316 0.2579706
vn -0.04309908 0.08948437 -0.9950553
vn 0.8657961 0.5003811 -0.003965946
vn 0.8657962 0.5003811 -0.003966172
vn -0.04309927 0.08948452 -0.9950553
vn 0.8657961 0.5003811 -0.003965946
vn 0.8657962 0.5003811 -0.003966172
vn 0 0 1
vn 0.9835339 -0.03234478 -0.1778056
vn 0 0 1
vn -0.04309927 0.08948452 -0.9950553
vn -0.0430993 0.0894846 -0.9950553
vn 0.9835339 -0.03234478 -0.1778056
vn 0.9835339 -0.03234531 -0.1778062
vn -0.5751133 -0.7802736 0.2458003
vn 0 0 1
vn -0.5751132 -0.7802738 0.2458
vn 0.2362545 -0.7570011 -0.609207
vn 0 0 1
vn 0 0 1
vn 0.2362544 -0.757001 -0.6092071
vn -0.04309929 0.08948454 -0.9950553
vn 0.2362545 -0.7570011 -0.609207
vn 0.2362545 -0.757001 -0.6092071
vn 0.2362544 -0.757001 -0.6092071
vn 0.9835339 -0.03234531 -0.1778062
vn 0.9835339 -0.03234523 -0.1778061
vn -0.04309929 0.08948454 -0.9950553
vn 0.2362545 -0.7570011 -0.609207
vn 0 0 1
vn 0 0 1
vn 0.9835339 -0.03234531 -0.1778062
vn 0.9835339 -0.03234523 -0.1778061
vn 0.8213313 -0.5698955 0.02517944
vn 0.2362545 -0.757001 -0.6092071
vn 0.2362544 -0.757001 -0.6092071
vn 0.8213313 -0.5698955 0.02517944
vn 0.9835339 -0.03234523 -0.1778061
vn 0.8213313 -0.5698955 0.02517944
g wall__sh_8_0
f 23/23/23 20/20/20 7/7/7
f 21/21/21 16/16/16 9/9/9
f 41/41/41 22/22/22 49/49/49
f 63/63/63 52/52/52 13/13/13
f 43/43/43 53/53/53 64/64/64
f 2/2/2 3/3/3 6/6/6
f 5/5/5 4/4/4 1/1/1
f 15/15/15 18/18/18 31/31/31
f 32/32/32 19/19/19 34/34/34
f 25/25/25 33/33/33 35/35/35
f 36/36/36 24/24/24 39/39/39
f 8/8/8 37/37/37 40/40/40
f 48/48/48 17/17/17 26/26/26
f 50/50/50 27/27/27 11/11/11
f 28/28/28 38/38/38 44/44/44
f 29/29/29 45/45/45 10/10/10
f 55/55/55 61/61/61 30/30/30
f 51/51/51 62/62/62 56/56/56
f 46/46/46 42/42/42 12/12/12
f 68/68/68 57/57/57 14/14/14
f 54/54/54 58/58/58 69/69/69
f 59/59/59 47/47/47 65/65/65
f 66/66/66 71/71/71 60/60/60
f 67/67/67 70/70/70 72/72/72
