g wall__sh_87
v -0.5329736 0.01417994 -0.4159476
v -0.2870345 0.3735893 -0.4159476
v -0.4435636 0.1522572 0.4159477
v -0.4803233 0.1752384 0.2849311
v 0.477504 0.3303838 0.4159477
v 0.5329735 0.2326097 0.4159477
v 0.3480229 0.4964037 -0.4159476
v 0.4435165 0.3280811 -0.4159476
v -0.3070817 -0.1169183 0.4159477
v 0.5288835 -0.06830597 0.4159477
v 0.4379656 -0.08030558 -0.4159476
v -0.2935295 -0.4580624 -0.4159476
v -0.2509236 -0.4964035 -0.2950642
v 0.48386 -0.2789614 0.02949011
v -0.5329736 0.01417994 -0.4159476
v -0.5329736 0.01417994 -0.4159476
v -0.5329736 0.01417994 -0.4159476
v -0.5329736 0.01417994 -0.4159476
v -0.5329736 0.01417994 -0.4159476
v -0.5329736 0.01417994 -0.4159476
v -0.5329736 0.01417994 -0.4159476
v -0.5329736 0.01417994 -0.4159476
v -0.2870345 0.3735893 -0.4159476
v -0.2870345 0.3735893 -0.4159476
v -0.2870345 0.3735893 -0.4159476
v -0.2870345 0.3735893 -0.4159476
v -0.4435636 0.1522572 0.4159477
v -0.4435636 0.1522572 0.4159477
v -0.4435636 0.1522572 0.4159477
v -0.4435636 0.1522572 0.4159477
v -0.4803233 0.1752384 0.2849311
v -0.4803233 0.1752384 0.2849311
v 0.477504 0.3303838 0.4159477
v 0.477504 0.3303838 0.4159477
v 0.477504 0.3303838 0.4159477
v 0.477504 0.3303838 0.4159477
v 0.477504 0.3303838 0.4159477
v 0.477504 0.3303838 0.4159477
v 0.5329735 0.2326097 0.4159477
v 0.5329735 0.2326097 0.4159477
v 0.5329735 0.2326097 0.4159477
v 0.5329735 0.2326097 0.4159477
v 0.3480229 0.4964037 -0.4159476
v 0.3480229 0.4964037 -0.4159476
v 0.3480229 0.4964037 -0.4159476
v 0.4435165 0.3280811 -0.4159476
v 0.4435165 0.3280811 -0.4159476
v 0.4435165 0.3280811 -0.4159476
v 0.4435165 0.3280811 -0.4159476
v -0.3070817 -0.1169183 0.4159477
v -0.3070817 -0.1169183 0.4159477
v -0.3070817 -0.1169183 0.4159477
v -0.3070817 -0.1169183 0.4159477
v -0.3070817 -0.1169183 0.4159477
v 0.5288835 -0.06830597 0.4159477
v 0.5288835 -0.06830597 0.4159477
v 0.5288835 -0.06830597 0.4159477
v 0.4379656 -0.08030558 -0.4159476
v 0.4379656 -0.08030558 -0.4159476
v 0.4379656 -0.08030558 -0.4159476
v 0.4379656 -0.08030558 -0.4159476
v 0.4379656 -0.08030558 -0.4159476
v -0.2935295 -0.4580624 -0.4159476
v -0.2935295 -0.4580624 -0.4159476
v -0.2509236 -0.4964035 -0.2950642
v -0.2509236 -0.4964035 -0.2950642
v -0.2509236 -0.4964035 -0.2950642
v -0.2509236 -0.4964035 -0.2950642
v 0.48386 -0.2789614 0.02949011
v 0.48386 -0.2789614 0.02949011
v 0.48386 -0.2789614 0.02949011
v 0.48386 -0.2789614 0.02949011
vt 0.7754996 0.05129159
vt 0.8667898 0.05129158
vt 0.8105713 0.2625934
vt 0.8164085 0.2293151
vt 0.5577209 0.2625934
vt -0.8309809 0.2625934
vt 0.8721547 0.7201928
vt 0.8893542 0.6861247
vt 0.7422006 0.2625934
vt 0.9047295 0.6058967
vt 0.8883543 0.6034681
vt 0.6555498 0.05129159
vt 0.6458111 0.08199605
vt -0.5593354 0.164433
vt 0.7754996 0.05129159
vt 0.7134788 0.6225918
vt 0.7134788 0.6225918
vt 0.7754996 0.05129159
vt 0.7754996 0.05129159
vt 0.7754996 0.05129159
vt 0.7134788 0.6225918
vt 0.7134788 0.6225918
vt 0.3635277 0.05129155
vt 0.7577748 0.6953354
vt 0.3635277 0.05129155
vt 0.3635277 0.05129155
vt 0.3237693 0.2625934
vt 0.3237693 0.2625934
vt 0.8105713 0.2625934
vt 0.7295824 0.6505382
vt 0.8164085 0.2293151
vt 0.3144323 0.2293151
vt 0.5577209 0.2625934
vt -0.8558155 0.2625934
vt -0.8558155 0.2625934
vt 0.8954756 0.6865906
vt 0.8954756 0.6865906
vt 0.8954756 0.6865906
vt 0.9054662 0.6668013
vt -0.8309809 0.2625934
vt -0.8309809 0.2625934
vt -0.8309809 0.2625934
vt 0.8721547 0.7201928
vt 0.5248327 0.05129154
vt -0.8979847 0.05129158
vt -0.8552307 0.05129158
vt -0.8552307 0.05129158
vt 0.8893542 0.6861247
vt -0.8552307 0.05129158
vt 0.754164 0.5960576
vt 0.754164 0.5960576
vt 0.7422006 0.2625934
vt -0.3584357 0.2625934
vt -0.3584357 0.2625934
vt 0.9047295 0.6058967
vt -0.5707713 0.2625934
vt -0.7545481 0.2625934
vt 0.8883543 0.6034681
vt -0.7515002 0.05129159
vt -0.7515002 0.05129159
vt -0.5476781 0.05129159
vt -0.5476781 0.05129159
vt 0.756605 0.5270108
vt -0.361878 0.05129159
vt 0.6458111 0.08199605
vt -0.3726999 0.08199605
vt -0.3726999 0.08199605
vt -0.3726999 0.08199605
vt -0.7010415 0.164433
vt -0.7010415 0.164433
vt -0.5593354 0.164433
vt -0.5593354 0.164433
vn -0.879153 -0.4457641 0.1684767
vn -0.8233889 0.5634343 -0.06762104
vn -0.879153 -0.4457641 0.1684767
vn -0.879153 -0.4457641 0.1684767
vn -0.1852228 0.9577612 0.2199682
vn 0.8691854 0.4931094 -0.03687593
vn 0 0 -1
vn 0 0 -1
vn -0.8791535 -0.4457631 0.1684766
vn 0 0 1
vn 0 0 -1
vn -0.8791535 -0.445763 0.168477
vn -0.8791535 -0.445763 0.168477
vn 0.0511365 -0.8793716 0.4733821
vn -0.8233889 0.5634343 -0.06762104
vn 0 0 -1
vn 0 0 -1
vn -0.8791535 -0.4457631 0.1684766
vn -0.8791535 -0.445763 0.168477
vn -0.8791535 -0.4457631 0.1684767
vn 0 0 -1
vn 0 0 -1
vn -0.1852272 0.9577606 0.2199672
vn 0 0 -1
vn -0.1852228 0.9577612 0.2199682
vn -0.1852225 0.9577613 0.2199679
vn -0.1852272 0.9577606 0.2199672
vn -0.1852228 0.9577612 0.2199682
vn -0.8791535 -0.4457631 0.1684766
vn 0 0 1
vn -0.8233889 0.5634343 -0.06762104
vn -0.1852272 0.9577606 0.2199672
vn -0.1852225 0.9577613 0.2199679
vn 0.869185 0.4931102 -0.03687591
vn 0.8691854 0.4931094 -0.03687593
vn 0 0 1
vn 0 0 1
vn 0 0 1
vn 0 0 1
vn 0.9940112 -0.01351077 -0.1084406
vn 0.9940111 -0.01351074 -0.1084406
vn 0.9940111 -0.01351068 -0.1084406
vn 0 0 -1
vn -0.1852225 0.9577613 0.2199679
vn 0.869185 0.4931102 -0.03687591
vn 0.869185 0.4931102 -0.03687591
vn 0.8691854 0.4931094 -0.03687593
vn 0 0 -1
vn 0.9940112 -0.01351077 -0.1084406
vn 0 0 1
vn 0 0 1
vn -0.8791535 -0.4457631 0.1684767
vn 0.0511365 -0.8793716 0.4733821
vn 0.05113645 -0.8793717 0.473382
vn 0 0 1
vn 0.0511365 -0.8793716 0.4733821
vn 0.9940111 -0.01351068 -0.1084406
vn 0 0 -1
vn 0.9940112 -0.01351077 -0.1084406
vn 0.9940111 -0.01351074 -0.1084406
vn 0.4194396 -0.8122102 -0.4054443
vn 0.4194394 -0.81221 -0.4054449
vn 0 0 -1
vn 0.4194394 -0.81221 -0.4054449
vn -0.8791535 -0.4457631 0.1684767
vn 0.05113645 -0.8793717 0.473382
vn 0.4194396 -0.8122102 -0.4054443
vn 0.4194394 -0.81221 -0.4054449
vn 0.9940111 -0.01351074 -0.1084406
vn 0.9940111 -0.01351068 -0.1084406
vn 0.05113645 -0.8793717 0.473382
vn 0.4194396 -0.8122102 -0.4054443
g wall__sh_87_0
f 16/16/16 24/24/24 7/7/7
f 17/17/17 43/43/43 8/8/8
f 39/39/39 36/36/36 10/10/10
f 37/37/37 30/30/30 50/50/50
f 51/51/51 55/55/55 38/38/38
f 21/21/21 48/48/48 11/11/11
f 58/58/58 63/63/63 22/22/22
f 4/4/4 1/1/1 3/3/3
f 31/31/31 2/2/2 15/15/15
f 23/23/23 32/32/32 27/27/27
f 25/25/25 28/28/28 5/5/5
f 44/44/44 26/26/26 33/33/33
f 46/46/46 45/45/45 34/34/34
f 35/35/35 6/6/6 47/47/47
f 9/9/9 29/29/29 18/18/18
f 13/13/13 19/19/19 12/12/12
f 52/52/52 20/20/20 65/65/65
f 14/14/14 56/56/56 53/53/53
f 59/59/59 49/49/49 40/40/40
f 69/69/69 60/60/60 41/41/41
f 42/42/42 57/57/57 70/70/70
f 71/71/71 54/54/54 66/66/66
f 61/61/61 72/72/72 67/67/67
f 68/68/68 64/64/64 62/62/62
