g wall__sh_66
v -0.37605 0.4216936 -0.4159476
v 0.5109315 -0.0287509 -0.4159476
v -0.01508033 -0.3672116 -0.4159476
v -0.5662885 0.5457261 -0.2012857
v 0.08160043 0.2955506 0.4159477
v -0.3366928 -0.3217548 0.4159477
v 0.5662885 -0.03981686 -0.2825065
v 0.3039509 0.1826322 0.4159477
v 0.4448471 -0.29706 0.229422
v 0.3711977 -0.2163489 0.4159477
v -0.1240038 -0.544121 -0.1106149
v -0.1327679 -0.5434952 -0.09698147
v -0.1231391 -0.5457261 -0.1044372
v -0.4802411 -0.3615301 0.3279049
v -0.448966 -0.3684084 0.3550404
v -0.4409201 -0.398321 0.2917432
v -0.37605 0.4216936 -0.4159476
v -0.37605 0.4216936 -0.4159476
v -0.37605 0.4216936 -0.4159476
v 0.5109315 -0.0287509 -0.4159476
v 0.5109315 -0.0287509 -0.4159476
v 0.5109315 -0.0287509 -0.4159476
v -0.01508033 -0.3672116 -0.4159476
v -0.01508033 -0.3672116 -0.4159476
v -0.01508033 -0.3672116 -0.4159476
v -0.01508033 -0.3672116 -0.4159476
v -0.01508033 -0.3672116 -0.4159476
v -0.01508033 -0.3672116 -0.4159476
v -0.5662885 0.5457261 -0.2012857
v -0.5662885 0.5457261 -0.2012857
v -0.5662885 0.5457261 -0.2012857
v -0.5662885 0.5457261 -0.2012857
v 0.08160043 0.2955506 0.4159477
v 0.08160043 0.2955506 0.4159477
v 0.08160043 0.2955506 0.4159477
v 0.08160043 0.2955506 0.4159477
v 0.08160043 0.2955506 0.4159477
v 0.08160043 0.2955506 0.4159477
v -0.3366928 -0.3217548 0.4159477
v -0.3366928 -0.3217548 0.4159477
v -0.3366928 -0.3217548 0.4159477
v -0.3366928 -0.3217548 0.4159477
v -0.3366928 -0.3217548 0.4159477
v -0.3366928 -0.3217548 0.4159477
v -0.3366928 -0.3217548 0.4159477
v 0.5662885 -0.03981686 -0.2825065
v 0.5662885 -0.03981686 -0.2825065
v 0.5662885 -0.03981686 -0.2825065
v 0.5662885 -0.03981686 -0.2825065
v 0.3039509 0.1826322 0.4159477
v 0.3039509 0.1826322 0.4159477
v 0.3039509 0.1826322 0.4159477
v 0.4448471 -0.29706 0.229422
v 0.4448471 -0.29706 0.229422
v 0.4448471 -0.29706 0.229422
v 0.4448471 -0.29706 0.229422
v 0.4448471 -0.29706 0.229422
v 0.3711977 -0.2163489 0.4159477
v 0.3711977 -0.2163489 0.4159477
v 0.3711977 -0.2163489 0.4159477
v 0.3711977 -0.2163489 0.4159477
v -0.1240038 -0.544121 -0.1106149
v -0.1240038 -0.544121 -0.1106149
v -0.1240038 -0.544121 -0.1106149
v -0.1240038 -0.544121 -0.1106149
v -0.1327679 -0.5434952 -0.09698147
v -0.1327679 -0.5434952 -0.09698147
v -0.1327679 -0.5434952 -0.09698147
v -0.1327679 -0.5434952 -0.09698147
v -0.1231391 -0.5457261 -0.1044372
v -0.1231391 -0.5457261 -0.1044372
v -0.1231391 -0.5457261 -0.1044372
v -0.1231391 -0.5457261 -0.1044372
v -0.4802411 -0.3615301 0.3279049
v -0.4802411 -0.3615301 0.3279049
v -0.4802411 -0.3615301 0.3279049
v -0.4802411 -0.3615301 0.3279049
v -0.4802411 -0.3615301 0.3279049
v -0.4802411 -0.3615301 0.3279049
v -0.448966 -0.3684084 0.3550404
v -0.448966 -0.3684084 0.3550404
v -0.4409201 -0.398321 0.2917432
v -0.4409201 -0.398321 0.2917432
v -0.4409201 -0.398321 0.2917432
vt 0.09615148 0.5337245
vt 0.2559055 0.4425556
vt 0.1611656 0.3740518
vt -0.6178496 0.1058159
vt -0.4532854 0.2625934
vt 0.5595322 0.475139
vt 0.3301744 0.08518572
vt -0.3968083 0.2625934
vt 0.3610206 0.2152158
vt 0.2307381 0.4045862
vt 0.505509 0.1288463
vt 0.5077351 0.1323092
vt 0.5052894 0.1304154
vt 0.5959935 0.4650361
vt 0.5880496 0.463289
vt 0.5860059 0.2310454
vt -0.5695289 0.05129164
vt -0.5695289 0.05129164
vt 0.6639753 0.05129159
vt -0.3442351 0.05129163
vt 0.3442351 0.0512916
vt -0.3442351 0.05129163
vt 0.4635929 0.0512916
vt 0.4778424 0.0512916
vt 0.4778424 0.0512916
vt 0.4778424 0.0512916
vt 0.4635929 0.0512916
vt 0.4635929 0.0512916
vt 0.6954796 0.1058158
vt 0.6178496 0.6954796
vt 0.6178496 0.6954796
vt 0.6954796 0.1058158
vt -0.4532854 0.2625934
vt 0.4532855 0.6319349
vt -0.4532854 0.2625934
vt -0.4532854 0.2625934
vt 0.1785787 0.5081937
vt 0.1785787 0.5081937
vt 0.10324 0.3832523
vt 0.5595322 0.2625934
vt 0.5595322 0.2625934
vt 0.5595322 0.475139
vt 0.5595322 0.475139
vt 0.5595322 0.2625934
vt 0.5595322 0.2625934
vt -0.3301744 0.08518575
vt -0.3301744 0.08518575
vt 0.3301744 0.08518572
vt -0.5467514 0.08518572
vt 0.2186262 0.485339
vt -0.6032536 0.2625934
vt -0.6032536 0.2625934
vt -0.4814115 0.2152158
vt -0.4814115 0.2152158
vt 0.3610206 0.2152158
vt 0.3610206 0.2152158
vt 0.3610206 0.2152158
vt 0.2307381 0.4045862
vt -0.5019122 0.2625934
vt 0.3797276 0.2625934
vt 0.3797276 0.2625934
vt 0.505509 0.1288463
vt 0.505509 0.1288463
vt 0.4186579 0.1288463
vt 0.4186579 0.1288463
vt 0.5077351 0.1323092
vt 0.5077351 0.1323092
vt 0.4188168 0.1323092
vt 0.4188168 0.1323092
vt 0.5052894 0.1304154
vt 0.5052894 0.1304154
vt 0.5052894 0.1304154
vt 0.5052894 0.1304154
vt 0.5959935 0.4650361
vt 0.4650361 0.2402305
vt 0.4650361 0.2402305
vt 0.4650361 0.2402305
vt 0.4650361 0.2402305
vt 0.5959935 0.2402305
vt 0.5880496 0.247123
vt 0.5880496 0.247123
vt 0.5860059 0.2310454
vt 0.4556911 0.2310454
vt 0.5860059 0.2310454
vn 0 0 -1
vn 0 0 -1
vn 0 0 -1
vn 0.449888 0.885886 -0.113167
vn 0.4498881 0.885886 -0.1131671
vn -0.557888 0.3780313 0.7388188
vn 0.5191075 -0.8067603 -0.2822503
vn 0.449888 0.885886 -0.113167
vn 0.5191075 -0.8067601 -0.2822511
vn 0 0 1
vn 0.5191105 -0.8067551 -0.2822596
vn 0.1324417 -0.8895538 0.4372108
vn 0.1324549 -0.8895499 0.4372149
vn -0.5578884 0.3780306 0.7388189
vn -0.5578884 0.3780306 0.7388189
vn 0.1324556 -0.88955 0.4372143
vn 0.4498881 0.885886 -0.1131671
vn 0.449888 0.885886 -0.113167
vn -0.791547 -0.3621785 -0.4922196
vn 0.4498881 0.885886 -0.1131671
vn 0.5191075 -0.8067603 -0.2822503
vn 0.4498873 0.8858863 -0.1131676
vn -0.791547 -0.3621785 -0.4922196
vn 0.5191075 -0.8067603 -0.2822503
vn 0.5191075 -0.8067601 -0.2822511
vn 0.5191075 -0.80676 -0.2822511
vn -0.7915469 -0.3621784 -0.4922197
vn -0.7915471 -0.3621782 -0.4922197
vn -0.791547 -0.3621785 -0.4922196
vn -0.557888 0.3780313 0.7388188
vn -0.5578883 0.3780312 0.7388187
vn -0.7915469 -0.3621784 -0.4922197
vn 0.449888 0.885886 -0.113167
vn -0.557888 0.3780313 0.7388188
vn 0.449888 0.885886 -0.113167
vn 0.4498873 0.8858863 -0.1131676
vn 0 0 1
vn 0 0 1
vn 0 0 1
vn 0.1324553 -0.8895499 0.4372146
vn 0.1324417 -0.8895538 0.4372108
vn -0.5578884 0.3780306 0.7388189
vn -0.5578883 0.3780312 0.7388187
vn 0.1324556 -0.88955 0.4372143
vn 0.1324553 -0.8895499 0.4372145
vn 0.449888 0.885886 -0.113167
vn 0.4498873 0.8858863 -0.1131676
vn 0.5191075 -0.8067601 -0.2822511
vn 0.9398734 0.1584122 0.3025617
vn 0 0 1
vn 0.9398734 0.1584122 0.3025617
vn 0.9398735 0.1584122 0.3025616
vn 0.9398734 0.1584122 0.3025617
vn 0.9398735 0.1584122 0.3025616
vn 0.1324549 -0.8895499 0.4372149
vn 0.5191105 -0.8067551 -0.2822596
vn 0.5191075 -0.80676 -0.2822511
vn 0 0 1
vn 0.9398735 0.1584122 0.3025616
vn 0.1324549 -0.8895499 0.4372149
vn 0.1324553 -0.8895499 0.4372146
vn 0.5191075 -0.80676 -0.2822511
vn -0.3573185 -0.9149276 -0.1876993
vn -0.7915471 -0.3621782 -0.4922197
vn -0.7915452 -0.3621925 -0.4922122
vn -0.3573185 -0.9149276 -0.1876993
vn 0.1324553 -0.8895499 0.4372145
vn -0.7915452 -0.3621925 -0.4922122
vn -0.7915473 -0.3621758 -0.4922212
vn 0.5191105 -0.8067551 -0.2822596
vn 0.1324553 -0.8895499 0.4372146
vn 0.1324417 -0.8895538 0.4372108
vn -0.3573185 -0.9149276 -0.1876993
vn -0.5578883 0.3780312 0.7388187
vn -0.7915469 -0.3621784 -0.4922197
vn -0.7915471 -0.3621782 -0.4922197
vn -0.7915452 -0.3621925 -0.4922122
vn -0.7915473 -0.3621758 -0.4922212
vn -0.4660244 -0.8213621 0.3289159
vn 0.1324556 -0.88955 0.4372143
vn -0.4660244 -0.8213621 0.3289159
vn 0.1324553 -0.8895499 0.4372145
vn -0.7915473 -0.3621758 -0.4922212
vn -0.4660244 -0.8213621 0.3289159
g wall__sh_66_0
f 2/2/2 3/3/3 1/1/1
f 37/37/37 39/39/39 10/10/10
f 58/58/58 50/50/50 38/38/38
f 5/5/5 20/20/20 17/17/17
f 18/18/18 4/4/4 33/33/33
f 29/29/29 19/19/19 23/23/23
f 34/34/34 30/30/30 6/6/6
f 24/24/24 21/21/21 7/7/7
f 46/46/46 35/35/35 8/8/8
f 22/22/22 36/36/36 47/47/47
f 25/25/25 48/48/48 9/9/9
f 53/53/53 49/49/49 51/51/51
f 52/52/52 59/59/59 54/54/54
f 55/55/55 60/60/60 13/13/13
f 11/11/11 56/56/56 70/70/70
f 26/26/26 57/57/57 62/62/62
f 71/71/71 61/61/61 40/40/40
f 41/41/41 12/12/12 72/72/72
f 73/73/73 66/66/66 63/63/63
f 15/15/15 42/42/42 14/14/14
f 43/43/43 31/31/31 74/74/74
f 16/16/16 44/44/44 80/80/80
f 67/67/67 45/45/45 82/82/82
f 75/75/75 32/32/32 27/27/27
f 76/76/76 28/28/28 64/64/64
f 77/77/77 65/65/65 68/68/68
f 69/69/69 83/83/83 78/78/78
f 79/79/79 84/84/84 81/81/81
