g wall__sh_43
v 0.06146505 0.4924867 -0.1795029
v -0.3395607 0.2095344 -0.4159476
v -0.2667032 -0.2323315 -0.4159476
v -0.4749122 0.1559463 -0.07771528
v -0.2359748 -0.4186945 -0.4159476
v 0.09206536 0.5055203 -0.2468092
v 0.127983 0.4501762 -0.1029089
v 0.1232786 0.5087407 -0.4159476
v 0.3507935 0.3171666 -0.4159476
v -0.02734774 -0.1082978 0.4159477
v -0.0001302361 -0.4570014 -0.4159476
v -0.1445382 -0.5087404 -0.0822081
v 0.254194 0.3068862 0.1093076
v 0.5149 -0.2138107 -0.4159476
v 0.416916 0.2614896 -0.4159476
v 0.227183 0.01045227 0.4111159
v 0.2202481 0.002789259 0.4159477
v 0.1738998 -0.3425896 0.2381362
v 0.1371398 -0.1701186 0.4159477
v 0.4132837 -0.243603 -0.04688591
v -0.3344547 -0.45819 -0.1696589
v -0.3087608 -0.4750009 -0.1135684
v -0.3658291 -0.1168363 0.2638036
v -0.5149 -0.01129985 0.0807761
v -0.5072247 -0.05515456 0.07973373
v -0.4092819 -0.1680279 0.1881279
v 0.06146505 0.4924867 -0.1795029
v 0.06146505 0.4924867 -0.1795029
v 0.06146505 0.4924867 -0.1795029
v 0.06146505 0.4924867 -0.1795029
v -0.3395607 0.2095344 -0.4159476
v -0.3395607 0.2095344 -0.4159476
v -0.3395607 0.2095344 -0.4159476
v -0.2667032 -0.2323315 -0.4159476
v -0.2667032 -0.2323315 -0.4159476
v -0.2667032 -0.2323315 -0.4159476
v -0.2667032 -0.2323315 -0.4159476
v -0.4749122 0.1559463 -0.07771528
v -0.4749122 0.1559463 -0.07771528
v -0.4749122 0.1559463 -0.07771528
v -0.4749122 0.1559463 -0.07771528
v -0.4749122 0.1559463 -0.07771528
v -0.4749122 0.1559463 -0.07771528
v -0.4749122 0.1559463 -0.07771528
v -0.2359748 -0.4186945 -0.4159476
v -0.2359748 -0.4186945 -0.4159476
v -0.2359748 -0.4186945 -0.4159476
v -0.2359748 -0.4186945 -0.4159476
v 0.09206536 0.5055203 -0.2468092
v 0.09206536 0.5055203 -0.2468092
v 0.127983 0.4501762 -0.1029089
v 0.127983 0.4501762 -0.1029089
v 0.127983 0.4501762 -0.1029089
v 0.127983 0.4501762 -0.1029089
v 0.127983 0.4501762 -0.1029089
v 0.127983 0.4501762 -0.1029089
v 0.127983 0.4501762 -0.1029089
v 0.127983 0.4501762 -0.1029089
v 0.1232786 0.5087407 -0.4159476
v 0.1232786 0.5087407 -0.4159476
v 0.1232786 0.5087407 -0.4159476
v 0.1232786 0.5087407 -0.4159476
v 0.1232786 0.5087407 -0.4159476
v 0.3507935 0.3171666 -0.4159476
v 0.3507935 0.3171666 -0.4159476
v 0.3507935 0.3171666 -0.4159476
v 0.3507935 0.3171666 -0.4159476
v 0.3507935 0.3171666 -0.4159476
v 0.3507935 0.3171666 -0.4159476
v -0.02734774 -0.1082978 0.4159477
v -0.02734774 -0.1082978 0.4159477
v -0.02734774 -0.1082978 0.4159477
v -0.02734774 -0.1082978 0.4159477
v -0.02734774 -0.1082978 0.4159477
v -0.02734774 -0.1082978 0.4159477
v -0.02734774 -0.1082978 0.4159477
v -0.02734774 -0.1082978 0.4159477
v -0.0001302361 -0.4570014 -0.4159476
v -0.0001302361 -0.4570014 -0.4159476
v -0.0001302361 -0.4570014 -0.4159476
v -0.0001302361 -0.4570014 -0.4159476
v -0.0001302361 -0.4570014 -0.4159476
v -0.0001302361 -0.4570014 -0.4159476
v -0.1445382 -0.5087404 -0.0822081
v -0.1445382 -0.5087404 -0.0822081
v -0.1445382 -0.5087404 -0.0822081
v -0.1445382 -0.5087404 -0.0822081
v 0.254194 0.3068862 0.1093076
v 0.254194 0.3068862 0.1093076
v 0.254194 0.3068862 0.1093076
v 0.254194 0.3068862 0.1093076
v 0.5149 -0.2138107 -0.4159476
v 0.5149 -0.2138107 -0.4159476
v 0.5149 -0.2138107 -0.4159476
v 0.416916 0.2614896 -0.4159476
v 0.416916 0.2614896 -0.4159476
v 0.416916 0.2614896 -0.4159476
v 0.416916 0.2614896 -0.4159476
v 0.227183 0.01045227 0.4111159
v 0.227183 0.01045227 0.4111159
v 0.227183 0.01045227 0.4111159
v 0.227183 0.01045227 0.4111159
v 0.227183 0.01045227 0.4111159
v 0.2202481 0.002789259 0.4159477
v 0.2202481 0.002789259 0.4159477
v 0.1738998 -0.3425896 0.2381362
v 0.1738998 -0.3425896 0.2381362
v 0.1738998 -0.3425896 0.2381362
v 0.1738998 -0.3425896 0.2381362
v 0.1738998 -0.3425896 0.2381362
v 0.1371398 -0.1701186 0.4159477
v 0.1371398 -0.1701186 0.4159477
v 0.1371398 -0.1701186 0.4159477
v 0.4132837 -0.243603 -0.04688591
v 0.4132837 -0.243603 -0.04688591
v 0.4132837 -0.243603 -0.04688591
v 0.4132837 -0.243603 -0.04688591
v 0.4132837 -0.243603 -0.04688591
v -0.3344547 -0.45819 -0.1696589
v -0.3344547 -0.45819 -0.1696589
v -0.3344547 -0.45819 -0.1696589
v -0.3344547 -0.45819 -0.1696589
v -0.3344547 -0.45819 -0.1696589
v -0.3344547 -0.45819 -0.1696589
v -0.3344547 -0.45819 -0.1696589
v -0.3087608 -0.4750009 -0.1135684
v -0.3087608 -0.4750009 -0.1135684
v -0.3087608 -0.4750009 -0.1135684
v -0.3087608 -0.4750009 -0.1135684
v -0.3658291 -0.1168363 0.2638036
v -0.3658291 -0.1168363 0.2638036
v -0.3658291 -0.1168363 0.2638036
v -0.3658291 -0.1168363 0.2638036
v -0.3658291 -0.1168363 0.2638036
v -0.5149 -0.01129985 0.0807761
v -0.5149 -0.01129985 0.0807761
v -0.5149 -0.01129985 0.0807761
v -0.5149 -0.01129985 0.0807761
v -0.5072247 -0.05515456 0.07973373
v -0.5072247 -0.05515456 0.07973373
v -0.4092819 -0.1680279 0.1881279
v -0.4092819 -0.1680279 0.1881279
v -0.4092819 -0.1680279 0.1881279
v -0.4092819 -0.1680279 0.1881279
vt 0.07423134 0.1113487
vt -0.02762941 0.05129159
vt 0.6135336 0.0512916
vt -0.06200875 0.1372028
vt 0.5661973 0.0512916
vt 0.08200384 0.09425283
vt 0.09112695 0.1308036
vt 0.08993201 0.05129158
vt 0.6047478 0.604748
vt 0.05167286 0.2625934
vt 0.541543 0.4480579
vt -0.0219064 0.1360616
vt 0.1231846 0.1847067
vt 0.6343049 0.4972792
vt 0.6166571 0.5934791
vt 0.1163238 0.2613662
vt 0.1145623 0.2625934
vt -0.1027898 0.2174292
vt 0.5662666 0.5061223
vt -0.6106707 0.1450335
vt 0.02633248 0.1138491
vt 0.01980621 0.1280961
vt -0.03430159 0.2239487
vt 0.6696758 0.1774597
vt 0.6585367 0.1771949
vt 0.04533865 0.2047271
vt 0.07423134 0.1113487
vt 0.07423134 0.1113487
vt 0.07423134 0.1113487
vt 0.07423134 0.1113487
vt 0.7257678 0.05129159
vt -0.02762941 0.05129159
vt 0.4804083 0.5829633
vt 0.6135336 0.0512916
vt 0.4935305 0.4935306
vt 0.4935306 0.4935307
vt 0.4935305 0.4935306
vt 0.7121564 0.1372028
vt 0.7121564 0.1372028
vt -0.06200875 0.1372028
vt 0.7121564 0.1372028
vt 0.7121564 0.1372028
vt -0.06200875 0.1372028
vt -0.06200875 0.1372028
vt 0.499065 0.4558112
vt 0.499065 0.4558112
vt 0.001318539 0.0512916
vt 0.5661973 0.0512916
vt 0.08200384 0.09425283
vt 0.08200384 0.09425283
vt 0.09112695 0.1308036
vt 0.09112695 0.1308036
vt 0.09112695 0.1308036
vt 0.09112695 0.1308036
vt 0.09112695 0.1308036
vt 0.09112695 0.1308036
vt 0.09112695 0.1308036
vt 0.09112695 0.1308036
vt 0.08993201 0.05129158
vt 0.5637702 0.643522
vt 0.5637702 0.643522
vt 0.08993201 0.05129158
vt 0.08993201 0.05129158
vt 0.6047478 0.6047478
vt 0.1477209 0.05129158
vt 0.6047478 0.604748
vt 0.6047478 0.604748
vt 0.6047478 0.604748
vt 0.1477209 0.05129158
vt 0.05167286 0.2625934
vt 0.05167286 0.2625934
vt 0.5366408 0.5186348
vt -0.05167284 0.2625934
vt -0.05167284 0.2625934
vt -0.05167284 0.2625934
vt 0.05167286 0.2625934
vt -0.05167284 0.2625934
vt 0.541543 0.4480579
vt -0.0585861 0.0512916
vt -0.0585861 0.0512916
vt -0.0585861 0.0512916
vt -0.0585861 0.0512916
vt -0.0585861 0.0512916
vt -0.0219064 0.1360616
vt -0.0219064 0.1360616
vt -0.0219064 0.1360616
vt -0.0219064 0.1360616
vt 0.1231846 0.1847067
vt 0.1231846 0.1847067
vt -0.7504952 0.1847067
vt -0.7504952 0.1847067
vt 0.6343049 0.4972792
vt -0.6182379 0.0512916
vt -0.1894041 0.0512916
vt 0.164516 0.05129157
vt 0.164516 0.05129157
vt -0.7389644 0.05129159
vt -0.7389644 0.05129159
vt 0.1163238 0.2613662
vt -0.6752008 0.2613662
vt -0.6752008 0.2613662
vt -0.6752008 0.2613662
vt -0.6752008 0.2613662
vt 0.5812352 0.5411185
vt -0.6732544 0.2625934
vt -0.1027898 0.2174292
vt -0.1027898 0.2174292
vt -0.1027898 0.2174292
vt -0.585528 0.2174292
vt -0.585528 0.2174292
vt -0.09345276 0.2625934
vt -0.6293358 0.2625934
vt -0.6293358 0.2625934
vt -0.1635935 0.1450335
vt -0.1635935 0.1450335
vt -0.6106707 0.1450335
vt -0.6106707 0.1450335
vt -0.6106707 0.1450335
vt 0.5561655 0.1138491
vt 0.02633248 0.1138491
vt 0.02633248 0.1138491
vt 0.5561655 0.1138491
vt 0.5561655 0.1138491
vt 0.5561655 0.1138491
vt 0.5561655 0.1138491
vt 0.01980621 0.1280961
vt 0.01980621 0.1280961
vt 0.01980621 0.1280961
vt 0.5518955 0.1280961
vt 0.03430161 0.2239487
vt 0.03430161 0.2239487
vt -0.03430159 0.2239487
vt -0.03430159 0.2239487
vt 0.6428695 0.2239487
vt 0.6696758 0.1774597
vt -0.07216568 0.1774597
vt 0.6696758 0.1774597
vt 0.6696758 0.1774597
vt 0.6585367 0.1771949
vt 0.6585367 0.1771949
vt 0.6298668 0.2047271
vt 0.6298668 0.2047271
vt 0.6298668 0.2047271
vt 0.6298668 0.2047271
vn -0.5409817 0.836839 -0.08390097
vn -0.5409817 0.836839 -0.08390097
vn -0.9094979 -0.1499623 -0.3877175
vn -0.5409817 0.836839 -0.08390097
vn -0.9094979 -0.1499623 -0.3877175
vn 0.2502526 0.9229397 0.2924998
vn 0.2502526 0.9229397 0.2924998
vn -0.5409781 0.8368413 -0.08390033
vn 0 0 -1
vn -0.3104405 0.6919239 0.6518191
vn 0 0 -1
vn 0.426557 -0.9033642 0.04452308
vn -0.3104405 0.6919239 0.6518191
vn 0 0 -1
vn 0 0 -1
vn -0.3104402 0.6919239 0.6518192
vn -0.3104444 0.6919323 0.6518083
vn 0.426557 -0.9033642 0.04452308
vn 0 0 1
vn 0.9416588 0.1941248 0.2749441
vn -0.1565001 -0.9635245 -0.2170905
vn -0.2700183 -0.7184409 0.6410404
vn -0.3104406 0.6919239 0.6518191
vn -0.9094981 -0.1499628 -0.3877169
vn -0.9094981 -0.1499628 -0.3877169
vn -0.2700185 -0.7184411 0.6410402
vn 0.2502526 0.9229397 0.2924998
vn -0.5409781 0.8368413 -0.08390033
vn -0.5409815 0.8368391 -0.08390138
vn -0.3104402 0.6919235 0.6518195
vn -0.9094982 -0.1499635 -0.3877164
vn -0.5409815 0.8368391 -0.08390138
vn 0 0 -1
vn -0.9094982 -0.1499635 -0.3877164
vn 0 0 -1
vn 0 0 -1
vn 0 0 -1
vn -0.9094979 -0.1499623 -0.3877175
vn -0.9094982 -0.1499635 -0.3877164
vn -0.3104402 0.6919235 0.6518195
vn -0.9094983 -0.1499632 -0.3877163
vn -0.9094983 -0.1499632 -0.3877161
vn -0.3104404 0.6919238 0.6518191
vn -0.3104405 0.6919238 0.6518192
vn 0 0 -1
vn 0 0 -1
vn -0.1565001 -0.9635245 -0.2170905
vn -0.9094983 -0.1499632 -0.3877163
vn -0.5409781 0.8368413 -0.08390033
vn 0.638443 0.7582209 0.132256
vn 0.6384434 0.7582205 0.1322559
vn 0.638443 0.7582209 0.132256
vn -0.3104402 0.6919235 0.6518195
vn -0.3104405 0.6919239 0.6518191
vn 0.6384434 0.7582206 0.132256
vn 0.6384433 0.7582207 0.1322557
vn -0.3104406 0.6919239 0.6518191
vn -0.3104404 0.6919238 0.6518191
vn -0.5409815 0.8368391 -0.08390138
vn 0 0 -1
vn 0 0 -1
vn 0.6384434 0.7582205 0.1322559
vn 0.638443 0.7582209 0.132256
vn 0 0 -1
vn 0.6384434 0.7582205 0.1322559
vn 0 0 -1
vn 0 0 -1
vn 0 0 -1
vn 0.6384433 0.7582207 0.1322557
vn -0.3104402 0.6919239 0.6518192
vn -0.3104444 0.6919323 0.6518083
vn 0 0 1
vn -0.2700182 -0.718441 0.6410403
vn -0.2700177 -0.7184409 0.6410407
vn -0.2700183 -0.7184409 0.6410404
vn -0.3104406 0.6919239 0.6518191
vn -0.2700181 -0.7184411 0.6410403
vn 0 0 -1
vn 0.426557 -0.9033642 0.04452308
vn 0.4265574 -0.903364 0.04452296
vn 0.4265571 -0.9033641 0.04452334
vn -0.1565001 -0.9635245 -0.2170905
vn -0.1564999 -0.9635245 -0.2170902
vn -0.2700182 -0.718441 0.6410403
vn -0.2700183 -0.7184409 0.6410404
vn -0.1564999 -0.9635245 -0.2170902
vn -0.1565008 -0.9635249 -0.2170884
vn 0.6384434 0.7582206 0.132256
vn -0.3104402 0.6919239 0.6518192
vn 0.9416587 0.194125 0.2749444
vn 0.9416587 0.1941251 0.2749441
vn 0 0 -1
vn 0.9416588 0.1941248 0.2749441
vn 0.4265571 -0.9033641 0.04452334
vn 0.6384434 0.7582206 0.132256
vn 0.6384433 0.7582207 0.1322557
vn 0.9416588 0.1941248 0.2749441
vn 0.9416587 0.194125 0.2749444
vn -0.3104444 0.6919323 0.6518083
vn 0.9416587 0.1941251 0.2749441
vn 0.7706254 -0.3704021 0.5185931
vn 0.7706255 -0.3704021 0.5185931
vn 0.7706217 -0.3704 0.5186
vn 0 0 1
vn 0.7706217 -0.3704 0.5186
vn -0.2700182 -0.718441 0.6410403
vn 0.4265574 -0.903364 0.04452296
vn -0.2700177 -0.7184409 0.6410407
vn 0.7706254 -0.3704021 0.5185931
vn 0.7706255 -0.3704021 0.5185931
vn -0.2700177 -0.7184409 0.6410407
vn 0.7706255 -0.3704021 0.5185931
vn 0.7706217 -0.3704 0.5186
vn 0.4265574 -0.903364 0.04452296
vn 0.4265571 -0.9033641 0.04452334
vn 0.9416587 0.194125 0.2749444
vn 0.9416587 0.1941251 0.2749441
vn 0.7706254 -0.3704021 0.5185931
vn -0.9094983 -0.1499632 -0.3877163
vn -0.1564999 -0.9635245 -0.2170902
vn -0.1565008 -0.9635249 -0.2170884
vn -0.9094981 -0.1499628 -0.3877169
vn -0.9094983 -0.1499632 -0.3877161
vn -0.8338642 -0.5009172 0.2318459
vn -0.8338641 -0.5009173 0.231846
vn -0.1565008 -0.9635249 -0.2170884
vn -0.2700185 -0.7184411 0.6410402
vn -0.2700181 -0.7184411 0.6410403
vn -0.8338642 -0.5009172 0.2318459
vn -0.2700185 -0.7184411 0.6410402
vn -0.2700181 -0.7184411 0.6410403
vn -0.3104404 0.6919238 0.6518191
vn -0.3104405 0.6919238 0.6518192
vn -0.8078574 -0.1549055 0.5686569
vn -0.9094983 -0.1499632 -0.3877161
vn -0.3104405 0.6919238 0.6518192
vn -0.8078574 -0.1549055 0.5686569
vn -0.8078574 -0.1549055 0.5686569
vn -0.8338641 -0.5009173 0.231846
vn -0.8078574 -0.1549055 0.5686569
vn -0.8338642 -0.5009172 0.2318459
vn -0.8338641 -0.5009173 0.231846
vn -0.8078574 -0.1549055 0.5686569
vn -0.8078574 -0.1549055 0.5686569
g wall__sh_43_0
f 35/35/35 33/33/33 60/60/60
f 45/45/45 36/36/36 9/9/9
f 64/64/64 37/37/37 61/61/61
f 11/11/11 46/46/46 66/66/66
f 14/14/14 78/78/78 67/67/67
f 15/15/15 92/92/92 68/68/68
f 19/19/19 104/104/104 72/72/72
f 4/4/4 1/1/1 2/2/2
f 3/3/3 5/5/5 38/38/38
f 39/39/39 31/31/31 34/34/34
f 7/7/7 6/6/6 27/27/27
f 8/8/8 28/28/28 49/49/49
f 32/32/32 29/29/29 59/59/59
f 51/51/51 65/65/65 62/62/62
f 63/63/63 50/50/50 52/52/52
f 53/53/53 30/30/30 40/40/40
f 13/13/13 54/54/54 10/10/10
f 55/55/55 88/88/88 95/95/95
f 96/96/96 69/69/69 56/56/56
f 16/16/16 89/89/89 70/70/70
f 17/17/17 99/99/99 71/71/71
f 18/18/18 12/12/12 79/79/79
f 73/73/73 84/84/84 106/106/106
f 20/20/20 93/93/93 97/97/97
f 114/114/114 107/107/107 80/80/80
f 81/81/81 94/94/94 115/115/115
f 111/111/111 74/74/74 108/108/108
f 116/116/116 98/98/98 90/90/90
f 117/117/117 91/91/91 100/100/100
f 109/109/109 118/118/118 101/101/101
f 112/112/112 110/110/110 102/102/102
f 103/103/103 105/105/105 113/113/113
f 21/21/21 47/47/47 82/82/82
f 85/85/85 75/75/75 22/22/22
f 41/41/41 48/48/48 119/119/119
f 120/120/120 83/83/83 86/86/86
f 87/87/87 126/126/126 121/121/121
f 23/23/23 76/76/76 57/57/57
f 24/24/24 122/122/122 25/25/25
f 42/42/42 123/123/123 135/135/135
f 26/26/26 127/127/127 130/130/130
f 128/128/128 77/77/77 131/131/131
f 124/124/124 129/129/129 141/141/141
f 132/132/132 58/58/58 43/43/43
f 133/133/133 44/44/44 136/136/136
f 139/139/139 125/125/125 142/142/142
f 143/143/143 134/134/134 137/137/137
f 138/138/138 140/140/140 144/144/144
