g wall__sh_1
v -0.3214705 -0.3913103 -0.178626
v 0.1644391 0.3352911 -0.178626
v 0.4086162 0.3096049 -0.178626
v 0.3151672 -0.3440031 -0.178626
v 0.4254094 0.1399586 -0.178626
v 0.4049896 0.3135427 -0.0942497
v -0.3253363 -0.3881939 -0.178626
v -0.3219914 -0.3903381 -0.1770472
v -0.3689243 -0.1393384 -0.178626
v 0.1567256 -0.1791914 0.09716251
v 0.2181718 0.3446959 0.178626
v -0.3475178 0.389146 -0.178626
v -0.4254094 0.1831508 -0.178626
v -0.3427051 0.3913103 -0.1152637
v -0.3214705 -0.3913103 -0.178626
v -0.3214705 -0.3913103 -0.178626
v -0.3214705 -0.3913103 -0.178626
v 0.1644391 0.3352911 -0.178626
v 0.1644391 0.3352911 -0.178626
v 0.1644391 0.3352911 -0.178626
v 0.1644391 0.3352911 -0.178626
v 0.1644391 0.3352911 -0.178626
v 0.1644391 0.3352911 -0.178626
v 0.4086162 0.3096049 -0.178626
v 0.4086162 0.3096049 -0.178626
v 0.3151672 -0.3440031 -0.178626
v 0.3151672 -0.3440031 -0.178626
v 0.3151672 -0.3440031 -0.178626
v 0.3151672 -0.3440031 -0.178626
v 0.3151672 -0.3440031 -0.178626
v 0.4254094 0.1399586 -0.178626
v 0.4254094 0.1399586 -0.178626
v 0.4254094 0.1399586 -0.178626
v 0.4254094 0.1399586 -0.178626
v 0.4254094 0.1399586 -0.178626
v 0.4049896 0.3135427 -0.0942497
v 0.4049896 0.3135427 -0.0942497
v 0.4049896 0.3135427 -0.0942497
v -0.3253363 -0.3881939 -0.178626
v -0.3253363 -0.3881939 -0.178626
v -0.3253363 -0.3881939 -0.178626
v -0.3219914 -0.3903381 -0.1770472
v -0.3219914 -0.3903381 -0.1770472
v -0.3219914 -0.3903381 -0.1770472
v -0.3689243 -0.1393384 -0.178626
v -0.3689243 -0.1393384 -0.178626
v -0.3689243 -0.1393384 -0.178626
v -0.3689243 -0.1393384 -0.178626
v -0.3689243 -0.1393384 -0.178626
v -0.3689243 -0.1393384 -0.178626
v -0.3689243 -0.1393384 -0.178626
v 0.1567256 -0.1791914 0.09716251
v 0.1567256 -0.1791914 0.09716251
v 0.1567256 -0.1791914 0.09716251
v 0.1567256 -0.1791914 0.09716251
v 0.1567256 -0.1791914 0.09716251
v 0.2181718 0.3446959 0.178626
v 0.2181718 0.3446959 0.178626
v 0.2181718 0.3446959 0.178626
v 0.2181718 0.3446959 0.178626
v 0.2181718 0.3446959 0.178626
v 0.2181718 0.3446959 0.178626
v 0.2181718 0.3446959 0.178626
v -0.3475178 0.389146 -0.178626
v -0.3475178 0.389146 -0.178626
v -0.3475178 0.389146 -0.178626
v -0.3475178 0.389146 -0.178626
v -0.4254094 0.1831508 -0.178626
v -0.4254094 0.1831508 -0.178626
v -0.4254094 0.1831508 -0.178626
v -0.3427051 0.3913103 -0.1152637
v -0.3427051 0.3913103 -0.1152637
vt 0.4828958 0.05129162
vt -0.3594745 0.05129164
vt -0.2974534 0.05129164
vt 0.272247 0.1076117
vt 0.2921027 0.2055645
vt -0.2983745 0.07272325
vt 0.4838777 0.05129162
vt 0.4830281 0.05169262
vt 0.1490354 0.1490354
vt -0.1710845 0.121342
vt -0.3458263 0.1420338
vt 0.152891 0.2559995
vt 0.1388619 0.2143065
vt -0.4882894 0.06738571
vt 0.1575823 0.09803686
vt 0.4828958 0.05129162
vt 0.4828958 0.05129162
vt 0.2450994 0.2450994
vt 0.2450994 0.2450994
vt 0.2450994 0.2450994
vt -0.3594745 0.05129164
vt 0.2450994 0.2450994
vt -0.3594745 0.05129164
vt 0.2890781 0.2399006
vt -0.295239 0.05129161
vt 0.272247 0.1076117
vt 0.272247 0.1076117
vt -0.1292222 0.05129161
vt 0.272247 0.1076117
vt 0.3211895 0.05129161
vt 0.2921027 0.2055645
vt -0.2521487 0.05129161
vt -0.2521487 0.05129161
vt -0.2521487 0.05129161
vt -0.2521487 0.05129161
vt -0.2962392 0.07272322
vt -0.2983745 0.07272325
vt -0.2962392 0.07272322
vt 0.156886 0.09866755
vt 0.156886 0.09866755
vt 0.4838777 0.1179977
vt 0.4830281 0.05169262
vt 0.4830281 0.1174531
vt 0.4830281 0.1174531
vt 0.1490354 0.1490354
vt 0.494949 0.1812072
vt 0.494949 0.1812072
vt 0.494949 0.1812072
vt 0.1490354 0.1490354
vt 0.1490354 0.1490354
vt 0.494949 0.1812072
vt 0.3614337 0.121342
vt 0.3614337 0.121342
vt -0.1710845 0.121342
vt 0.3614337 0.1710845
vt 0.3614337 0.1710845
vt -0.3041521 0.1420338
vt -0.3041521 0.1420338
vt 0.3458263 0.3041521
vt -0.3458263 0.1420338
vt -0.3458263 0.1420338
vt 0.3458263 0.3041521
vt 0.3458263 0.3041521
vt 0.152891 0.2559995
vt -0.4895118 0.05129165
vt -0.4895118 0.05129165
vt 0.3154424 0.05129161
vt 0.5092963 0.2631196
vt 0.5092963 0.2631196
vt 0.2631195 0.05129161
vt 0.4882894 0.3159922
vt 0.3159922 0.06738567
vn -0.6055467 -0.7511845 0.2627455
vn 0.1045257 0.99364 -0.04187914
vn 0.1045257 0.99364 -0.04187914
vn 0 0 -1
vn 0 0 -1
vn 0.1045257 0.99364 -0.04187914
vn -0.6055467 -0.7511845 0.2627455
vn -0.6055467 -0.7511845 0.2627455
vn 0 0 -1
vn 0.8014408 -0.1825612 0.5695297
vn 0.1045257 0.99364 -0.04187918
vn 0 0 -1
vn 0 0 -1
vn 0.104525 0.9936401 -0.04187868
vn 0 0 -1
vn 0.06245684 -0.8405154 0.5381755
vn 0.06245636 -0.8405151 0.5381761
vn 0 0 -1
vn 0 0 -1
vn 0 0 -1
vn 0.1045257 0.99364 -0.04187918
vn 0 0 -1
vn 0.1045253 0.9936401 -0.04187912
vn 0 0 -1
vn 0.9944119 0.09843656 0.03814702
vn 0 0 -1
vn 0 0 -1
vn 0.8014408 -0.1825612 0.5695297
vn 0 0 -1
vn 0.06245684 -0.8405154 0.5381755
vn 0 0 -1
vn 0.9944119 0.09843656 0.03814702
vn 0.8014408 -0.1825612 0.5695297
vn 0.8014407 -0.182561 0.56953
vn 0.8014411 -0.1825599 0.5695296
vn 0.9944119 0.09843656 0.03814702
vn 0.1045257 0.99364 -0.04187918
vn 0.8014411 -0.1825599 0.5695296
vn 0 0 -1
vn 0 0 -1
vn -0.4678756 -0.08195005 0.8799868
vn 0.06245636 -0.8405151 0.5381761
vn -0.4679015 -0.08195499 0.8799725
vn -0.4678756 -0.08195005 0.8799868
vn 0 0 -1
vn -0.4679015 -0.08195435 0.8799725
vn -0.4679015 -0.08195499 0.8799725
vn -0.4678756 -0.08195005 0.8799868
vn 0 0 -1
vn 0 0 -1
vn -0.4679013 -0.08195465 0.8799726
vn 0.06245684 -0.8405154 0.5381755
vn 0.06245636 -0.8405151 0.5381761
vn 0.8014407 -0.182561 0.56953
vn -0.4679015 -0.08195435 0.8799725
vn -0.4679015 -0.08195499 0.8799725
vn 0.8014407 -0.182561 0.56953
vn 0.8014411 -0.1825599 0.5695296
vn -0.4679015 -0.08195435 0.8799725
vn 0.104525 0.9936401 -0.04187868
vn 0.1045253 0.9936401 -0.04187912
vn -0.4679013 -0.08195461 0.8799726
vn -0.4679013 -0.08195465 0.8799726
vn 0 0 -1
vn 0.104525 0.9936401 -0.04187868
vn 0.1045253 0.9936401 -0.04187912
vn -0.9337434 0.3530701 0.05886328
vn -0.4679013 -0.08195461 0.8799726
vn -0.4679013 -0.08195465 0.8799726
vn -0.9337434 0.3530701 0.05886328
vn -0.4679013 -0.08195461 0.8799726
vn -0.9337434 0.3530701 0.05886328
g wall__sh_1_0
f 5/5/5 4/4/4 18/18/18
f 19/19/19 24/24/24 31/31/31
f 26/26/26 15/15/15 39/39/39
f 20/20/20 27/27/27 9/9/9
f 45/45/45 29/29/29 40/40/40
f 12/12/12 49/49/49 13/13/13
f 22/22/22 50/50/50 64/64/64
f 6/6/6 3/3/3 2/2/2
f 32/32/32 25/25/25 36/36/36
f 8/8/8 7/7/7 1/1/1
f 11/11/11 37/37/37 21/21/21
f 10/10/10 28/28/28 33/33/33
f 16/16/16 30/30/30 52/52/52
f 53/53/53 42/42/42 17/17/17
f 57/57/57 54/54/54 34/34/34
f 35/35/35 38/38/38 58/58/58
f 55/55/55 59/59/59 46/46/46
f 43/43/43 56/56/56 47/47/47
f 48/48/48 41/41/41 44/44/44
f 14/14/14 60/60/60 65/65/65
f 61/61/61 23/23/23 66/66/66
f 68/68/68 62/62/62 71/71/71
f 51/51/51 63/63/63 69/69/69
f 67/67/67 70/70/70 72/72/72
