g wall__sh_61
v -0.205312 -0.2314968 -0.4159476
v -0.2234399 -0.1222966 -0.4159476
v -0.5592263 0.2830119 0.4159477
v -0.4927342 0.342432 0.4159477
v 0.4297452 -0.1086822 -0.4159476
v 0.5592263 -0.2747025 0.4159477
v -0.4455652 -0.4016695 0.4159477
v -0.3986005 -0.4298477 0.284931
v -0.3618406 -0.4528291 0.4159477
v -0.197926 0.4528289 0.2354401
v -0.266279 0.4024315 0.4159477
v 0.5518644 -0.1825449 0.4159477
v 0.1616175 0.2218075 -0.4159476
v 0.4185202 0.03183603 -0.4159476
v 0.02388287 0.4346108 -0.01981485
v 0.4695535 0.1087308 -0.006680846
v -0.205312 -0.2314968 -0.4159476
v -0.205312 -0.2314968 -0.4159476
v -0.205312 -0.2314968 -0.4159476
v -0.205312 -0.2314968 -0.4159476
v -0.205312 -0.2314968 -0.4159476
v -0.205312 -0.2314968 -0.4159476
v -0.2234399 -0.1222966 -0.4159476
v -0.2234399 -0.1222966 -0.4159476
v -0.5592263 0.2830119 0.4159477
v -0.5592263 0.2830119 0.4159477
v -0.5592263 0.2830119 0.4159477
v -0.5592263 0.2830119 0.4159477
v -0.5592263 0.2830119 0.4159477
v -0.5592263 0.2830119 0.4159477
v -0.4927342 0.342432 0.4159477
v -0.4927342 0.342432 0.4159477
v -0.4927342 0.342432 0.4159477
v -0.4927342 0.342432 0.4159477
v 0.4297452 -0.1086822 -0.4159476
v 0.4297452 -0.1086822 -0.4159476
v 0.4297452 -0.1086822 -0.4159476
v 0.4297452 -0.1086822 -0.4159476
v 0.5592263 -0.2747025 0.4159477
v 0.5592263 -0.2747025 0.4159477
v 0.5592263 -0.2747025 0.4159477
v 0.5592263 -0.2747025 0.4159477
v -0.4455652 -0.4016695 0.4159477
v -0.4455652 -0.4016695 0.4159477
v -0.4455652 -0.4016695 0.4159477
v -0.4455652 -0.4016695 0.4159477
v -0.3986005 -0.4298477 0.284931
v -0.3986005 -0.4298477 0.284931
v -0.3986005 -0.4298477 0.284931
v -0.3618406 -0.4528291 0.4159477
v -0.3618406 -0.4528291 0.4159477
v -0.3618406 -0.4528291 0.4159477
v -0.3618406 -0.4528291 0.4159477
v -0.3618406 -0.4528291 0.4159477
v -0.197926 0.4528289 0.2354401
v -0.197926 0.4528289 0.2354401
v -0.197926 0.4528289 0.2354401
v -0.266279 0.4024315 0.4159477
v -0.266279 0.4024315 0.4159477
v -0.266279 0.4024315 0.4159477
v -0.266279 0.4024315 0.4159477
v -0.266279 0.4024315 0.4159477
v 0.5518644 -0.1825449 0.4159477
v 0.5518644 -0.1825449 0.4159477
v 0.5518644 -0.1825449 0.4159477
v 0.5518644 -0.1825449 0.4159477
v 0.5518644 -0.1825449 0.4159477
v 0.1616175 0.2218075 -0.4159476
v 0.1616175 0.2218075 -0.4159476
v 0.1616175 0.2218075 -0.4159476
v 0.1616175 0.2218075 -0.4159476
v 0.1616175 0.2218075 -0.4159476
v 0.1616175 0.2218075 -0.4159476
v 0.4185202 0.03183603 -0.4159476
v 0.4185202 0.03183603 -0.4159476
v 0.4185202 0.03183603 -0.4159476
v 0.02388287 0.4346108 -0.01981485
v 0.02388287 0.4346108 -0.01981485
v 0.02388287 0.4346108 -0.01981485
v 0.02388287 0.4346108 -0.01981485
v 0.4695535 0.1087308 -0.006680846
v 0.4695535 0.1087308 -0.006680846
v 0.4695535 0.1087308 -0.006680846
v 0.4695535 0.1087308 -0.006680846
vt 0.8667898 0.05129158
vt 0.8945267 0.05129158
vt 0.9974753 0.2625934
vt 0.7060072 0.8114974
vt -0.5248327 0.05129158
vt -0.5577209 0.2625934
vt 0.8235658 0.2625934
vt 0.8164086 0.2293151
vt -0.3237695 0.2625934
vt 0.3654039 0.2167444
vt 0.3480422 0.2625934
vt -0.8792236 0.2625934
vt 0.4567281 0.05129154
vt -0.9336765 0.05129158
vt 0.4217434 0.1519095
vt -0.9532078 0.1552455
vt -0.3635278 0.05129158
vt 0.8667898 0.05129158
vt 0.8667898 0.05129158
vt -0.3635278 0.05129158
vt 0.7577748 0.6953354
vt 0.7577748 0.6953354
vt 0.3589233 0.05129155
vt 0.7545097 0.7174374
vt 0.9974753 0.2625934
vt 0.6940313 0.7994709
vt 0.2736334 0.2625934
vt 0.2736334 0.2625934
vt 0.2736334 0.2625934
vt 0.2736334 0.2625934
vt 0.7060072 0.8114974
vt 0.2905224 0.2625934
vt 0.7060072 0.8114974
vt 0.2905224 0.2625934
vt -0.8979848 0.05129158
vt -0.8979848 0.05129158
vt 0.8721547 0.7201928
vt 0.8721547 0.7201928
vt -0.5577209 0.2625934
vt -0.5577209 0.2625934
vt -0.8558155 0.2625934
vt 0.8954756 0.6865906
vt 0.8235658 0.2625934
vt 0.7145028 0.6608927
vt 0.7145028 0.6608927
vt -0.3025033 0.2625934
vt -0.3144324 0.2293151
vt -0.3144324 0.2293151
vt -0.3144324 0.2293151
vt 0.7295824 0.6505382
vt -0.3237695 0.2625934
vt 0.7295824 0.6505382
vt 0.7295824 0.6505382
vt 0.7295824 0.6505382
vt 0.3654039 0.2167444
vt 0.3654039 0.2167444
vt 0.3654039 0.2167444
vt 0.746794 0.8236411
vt 0.746794 0.8236411
vt 0.3480422 0.2625934
vt 0.3480422 0.2625934
vt 0.3480422 0.2625934
vt 0.8941497 0.7052431
vt 0.8941497 0.7052431
vt -0.8792236 0.2625934
vt -0.8792236 0.2625934
vt 0.555851 0.2625934
vt 0.8238624 0.7870833
vt 0.4567281 0.05129154
vt 0.8238624 0.7870833
vt 0.8238624 0.7870833
vt 0.4567281 0.05129154
vt 0.4567281 0.05129154
vt -0.9336765 0.05129158
vt 0.870133 0.7486334
vt 0.5219815 0.05129154
vt 0.4217434 0.1519095
vt 0.4217434 0.1519095
vt 0.4217434 0.1519095
vt 0.4217434 0.1519095
vt 0.5349439 0.1552455
vt 0.5349439 0.1552455
vt 0.5349439 0.1552455
vt 0.5349439 0.1552455
vn -0.9400007 -0.1560461 -0.3033947
vn -0.9400007 -0.1560461 -0.3033947
vn -0.9400007 -0.1560461 -0.3033947
vn 0 0 1
vn 0.1852228 -0.9577611 -0.2199685
vn 0.1852228 -0.9577611 -0.2199685
vn -0.9400006 -0.1560459 -0.3033951
vn -0.9400006 -0.1560459 -0.3033951
vn 0.1852229 -0.9577612 -0.2199679
vn -0.2523691 0.9525136 0.1703753
vn -0.2523691 0.9525136 0.1703753
vn 0.987297 0.07886889 -0.1379289
vn -0.5632141 0.6302449 -0.5343981
vn 0.987297 0.07886934 -0.1379287
vn -0.5632137 0.6302456 -0.5343977
vn 0.987297 0.07886934 -0.1379287
vn 0.1852228 -0.9577611 -0.2199685
vn -0.9400006 -0.1560459 -0.3033951
vn -0.9400007 -0.1560455 -0.303395
vn 0.185223 -0.9577611 -0.2199686
vn 0 0 -1
vn 0 0 -1
vn -0.5632141 0.6302449 -0.5343981
vn 0 0 -1
vn -0.9400007 -0.1560455 -0.303395
vn 0 0 1
vn -0.5632136 0.6302452 -0.5343981
vn -0.5632141 0.6302449 -0.5343981
vn -0.5632137 0.6302456 -0.5343977
vn -0.5632136 0.6302457 -0.5343976
vn 0 0 1
vn -0.2523691 0.9525136 0.1703753
vn 0 0 1
vn -0.5632136 0.6302452 -0.5343981
vn 0.987297 0.07886889 -0.1379289
vn 0.987297 0.07886804 -0.137929
vn 0 0 -1
vn 0 0 -1
vn 0.1852229 -0.9577612 -0.2199679
vn 0.185223 -0.9577611 -0.2199686
vn 0.987297 0.07886889 -0.1379289
vn 0 0 1
vn -0.9400007 -0.1560455 -0.303395
vn 0 0 1
vn 0 0 1
vn -0.5214068 -0.8533016 -0.003383023
vn 0.1852229 -0.9577612 -0.2199679
vn 0.185223 -0.9577611 -0.2199686
vn -0.5214068 -0.8533016 -0.003383023
vn 0 0 1
vn -0.5214068 -0.8533016 -0.003383023
vn 0 0 1
vn 0 0 1
vn 0 0 1
vn -0.5632136 0.6302452 -0.5343981
vn -0.5632136 0.6302457 -0.5343976
vn 0.5309238 0.7425373 0.4083605
vn 0 0 1
vn 0 0 1
vn 0.5309205 0.7425411 0.4083578
vn 0.5309207 0.7425405 0.4083587
vn 0.5309238 0.7425373 0.4083605
vn 0 0 1
vn 0 0 1
vn 0.987297 0.07886934 -0.1379287
vn 0.987297 0.07886804 -0.137929
vn 0.5309205 0.7425411 0.4083578
vn 0 0 -1
vn -0.5632137 0.6302456 -0.5343977
vn 0 0 -1
vn 0 0 -1
vn 0.5800389 0.7844012 -0.2197035
vn 0.5800395 0.7844005 -0.2197041
vn 0.987297 0.07886804 -0.137929
vn 0 0 -1
vn 0.5800395 0.7844005 -0.2197041
vn -0.5632136 0.6302457 -0.5343976
vn 0.5309207 0.7425405 0.4083587
vn 0.5309238 0.7425373 0.4083605
vn 0.5800389 0.7844012 -0.2197035
vn 0.5309205 0.7425411 0.4083578
vn 0.5309207 0.7425405 0.4083587
vn 0.5800389 0.7844012 -0.2197035
vn 0.5800395 0.7844005 -0.2197041
g wall__sh_61_0
f 4/4/4 26/26/26 44/44/44
f 31/31/31 45/45/45 50/50/50
f 33/33/33 52/52/52 58/58/58
f 63/63/63 59/59/59 53/53/53
f 54/54/54 42/42/42 64/64/64
f 21/21/21 24/24/24 68/68/68
f 37/37/37 22/22/22 70/70/70
f 75/75/75 38/38/38 71/71/71
f 2/2/2 1/1/1 3/3/3
f 6/6/6 17/17/17 5/5/5
f 7/7/7 18/18/18 8/8/8
f 25/25/25 19/19/19 43/43/43
f 47/47/47 39/39/39 9/9/9
f 20/20/20 40/40/40 48/48/48
f 46/46/46 49/49/49 51/51/51
f 11/11/11 10/10/10 32/32/32
f 12/12/12 41/41/41 35/35/35
f 27/27/27 34/34/34 55/55/55
f 13/13/13 23/23/23 28/28/28
f 16/16/16 65/65/65 14/14/14
f 66/66/66 36/36/36 74/74/74
f 60/60/60 67/67/67 81/81/81
f 15/15/15 69/69/69 29/29/29
f 30/30/30 56/56/56 77/77/77
f 61/61/61 82/82/82 78/78/78
f 79/79/79 57/57/57 62/62/62
f 72/72/72 80/80/80 83/83/83
f 84/84/84 76/76/76 73/73/73
