g wall__sh_82
v -0.2576904 -0.3624867 -0.3181918
v 0.3157949 -0.3624867 -0.07825071
v 0.3695929 -0.3624867 -0.3181918
v 0.2503375 -0.3624867 0.2136946
v 0.3635583 -0.01742914 0.1223848
v 0.3496298 0.1157533 0.1061091
v -0.410677 0.1218901 -0.3181918
v 0.2259606 0.1691972 -0.3181918
v -0.06715751 -0.3624867 0.3181918
v -0.3058081 0.2377112 0.3027316
v 0.4178612 -0.1829104 -0.3181918
v 0.4011116 0.05373022 0.0402025
v 0.3980966 0.06760857 0.04106015
v 0.3651652 0.05288485 -0.3181918
v -0.3098288 0.2395228 0.2961485
v -0.2628607 -0.3624867 -0.2800255
v -0.2592252 -0.3624867 -0.1644074
v -0.2557986 -0.3624867 -0.05542293
v 0.06220841 0.3624867 0.1620631
v 0.06751919 0.334009 -0.04240328
v -0.2789179 0.2601058 0.2903737
v -0.2988189 0.2522611 0.2852571
v -0.4111979 0.1228623 -0.3166129
v -0.3311677 0.2356473 0.2509332
v -0.4135585 0.1241606 -0.3022139
v -0.4178612 0.1720924 0.03081864
v -0.2576904 -0.3624867 -0.3181918
v -0.2576904 -0.3624867 -0.3181918
v -0.2576904 -0.3624867 -0.3181918
v 0.3157949 -0.3624867 -0.07825071
v 0.3157949 -0.3624867 -0.07825071
v 0.3157949 -0.3624867 -0.07825071
v 0.3157949 -0.3624867 -0.07825071
v 0.3157949 -0.3624867 -0.07825071
v 0.3157949 -0.3624867 -0.07825071
v 0.3157949 -0.3624867 -0.07825071
v 0.3695929 -0.3624867 -0.3181918
v 0.3695929 -0.3624867 -0.3181918
v 0.3695929 -0.3624867 -0.3181918
v 0.3695929 -0.3624867 -0.3181918
v 0.2503375 -0.3624867 0.2136946
v 0.2503375 -0.3624867 0.2136946
v 0.2503375 -0.3624867 0.2136946
v 0.2503375 -0.3624867 0.2136946
v 0.3635583 -0.01742914 0.1223848
v 0.3635583 -0.01742914 0.1223848
v 0.3635583 -0.01742914 0.1223848
v 0.3635583 -0.01742914 0.1223848
v 0.3635583 -0.01742914 0.1223848
v 0.3635583 -0.01742914 0.1223848
v 0.3635583 -0.01742914 0.1223848
v 0.3496298 0.1157533 0.1061091
v 0.3496298 0.1157533 0.1061091
v 0.3496298 0.1157533 0.1061091
v 0.3496298 0.1157533 0.1061091
v 0.3496298 0.1157533 0.1061091
v 0.3496298 0.1157533 0.1061091
v -0.410677 0.1218901 -0.3181918
v -0.410677 0.1218901 -0.3181918
v -0.410677 0.1218901 -0.3181918
v -0.410677 0.1218901 -0.3181918
v -0.410677 0.1218901 -0.3181918
v 0.2259606 0.1691972 -0.3181918
v 0.2259606 0.1691972 -0.3181918
v 0.2259606 0.1691972 -0.3181918
v 0.2259606 0.1691972 -0.3181918
v 0.2259606 0.1691972 -0.3181918
v -0.06715751 -0.3624867 0.3181918
v -0.06715751 -0.3624867 0.3181918
v -0.06715751 -0.3624867 0.3181918
v -0.3058081 0.2377112 0.3027316
v -0.3058081 0.2377112 0.3027316
v -0.3058081 0.2377112 0.3027316
v -0.3058081 0.2377112 0.3027316
v -0.3058081 0.2377112 0.3027316
v -0.3058081 0.2377112 0.3027316
v -0.3058081 0.2377112 0.3027316
v 0.4178612 -0.1829104 -0.3181918
v 0.4178612 -0.1829104 -0.3181918
v 0.4178612 -0.1829104 -0.3181918
v 0.4178612 -0.1829104 -0.3181918
v 0.4011116 0.05373022 0.0402025
v 0.4011116 0.05373022 0.0402025
v 0.4011116 0.05373022 0.0402025
v 0.4011116 0.05373022 0.0402025
v 0.4011116 0.05373022 0.0402025
v 0.3980966 0.06760857 0.04106015
v 0.3980966 0.06760857 0.04106015
v 0.3651652 0.05288485 -0.3181918
v 0.3651652 0.05288485 -0.3181918
v 0.3651652 0.05288485 -0.3181918
v 0.3651652 0.05288485 -0.3181918
v -0.3098288 0.2395228 0.2961485
v -0.3098288 0.2395228 0.2961485
v -0.2628607 -0.3624867 -0.2800255
v -0.2628607 -0.3624867 -0.2800255
v -0.2628607 -0.3624867 -0.2800255
v -0.2628607 -0.3624867 -0.2800255
v -0.2628607 -0.3624867 -0.2800255
v -0.2592252 -0.3624867 -0.1644074
v -0.2592252 -0.3624867 -0.1644074
v -0.2592252 -0.3624867 -0.1644074
v -0.2592252 -0.3624867 -0.1644074
v -0.2557986 -0.3624867 -0.05542293
v -0.2557986 -0.3624867 -0.05542293
v -0.2557986 -0.3624867 -0.05542293
v -0.2557986 -0.3624867 -0.05542293
v -0.2557986 -0.3624867 -0.05542293
v 0.06220841 0.3624867 0.1620631
v 0.06220841 0.3624867 0.1620631
v 0.06220841 0.3624867 0.1620631
v 0.06220841 0.3624867 0.1620631
v 0.06751919 0.334009 -0.04240328
v 0.06751919 0.334009 -0.04240328
v 0.06751919 0.334009 -0.04240328
v 0.06751919 0.334009 -0.04240328
v 0.06751919 0.334009 -0.04240328
v 0.06751919 0.334009 -0.04240328
v 0.06751919 0.334009 -0.04240328
v -0.2789179 0.2601058 0.2903737
v -0.2789179 0.2601058 0.2903737
v -0.2789179 0.2601058 0.2903737
v -0.2789179 0.2601058 0.2903737
v -0.2988189 0.2522611 0.2852571
v -0.2988189 0.2522611 0.2852571
v -0.2988189 0.2522611 0.2852571
v -0.4111979 0.1228623 -0.3166129
v -0.4111979 0.1228623 -0.3166129
v -0.4111979 0.1228623 -0.3166129
v -0.3311677 0.2356473 0.2509332
v -0.3311677 0.2356473 0.2509332
v -0.3311677 0.2356473 0.2509332
v -0.3311677 0.2356473 0.2509332
v -0.3311677 0.2356473 0.2509332
v -0.3311677 0.2356473 0.2509332
v -0.4135585 0.1241606 -0.3022139
v -0.4135585 0.1241606 -0.3022139
v -0.4135585 0.1241606 -0.3022139
v -0.4135585 0.1241606 -0.3022139
v -0.4135585 0.1241606 -0.3022139
v -0.4178612 0.1720924 0.03081864
v -0.4178612 0.1720924 0.03081864
v -0.4178612 0.1720924 0.03081864
v -0.4178612 0.1720924 0.03081864
vt 0.9415456 0.07682127
vt 0.9539853 0.1065537
vt 0.9415456 0.109343
vt 0.005825761 0.186391
vt -0.08181904 0.1631983
vt -0.1156475 0.1590643
vt 0.1575823 0.09803683
vt 0.272247 0.1076117
vt 0.3956416 -0.005825783
vt 0.456259 0.1466248
vt -0.0397867 0.05129162
vt -0.09989355 0.142324
vt -0.1034187 0.1425418
vt 0.2973191 0.08407032
vt -0.4572802 0.2073344
vt 0.9435243 0.07655321
vt 0.9495186 0.07674159
vt -0.005825797 0.1180351
vt 0.3627826 0.1783178
vt -0.3614337 0.1213421
vt 0.4494289 0.152313
vt -0.4544837 0.204568
vt 0.1174531 0.05169268
vt -0.4627003 0.1958497
vt 0.1177829 0.05535001
vt 0.1299576 0.1399405
vt 0.1851367 0
vt 0.9415456 0.07682127
vt -0.0058258 0.05129162
vt 0.005825764 0.1122368
vt 0.005825764 0.1122368
vt 0.005825764 0.1122368
vt 0.005825764 0.1122368
vt 0.9539853 0.1065537
vt 0.9539853 0.1065537
vt 0.9539853 0.1065536
vt 0.2981167 0
vt 0.2981167 0
vt 0.005825768 0.05129162
vt 0.2981167 0
vt 0.3149977 -0.005825783
vt 0.9691212 0.1031599
vt 0.9691212 0.1031599
vt 0.9691212 0.1031599
vt 0.2862396 0.08181901
vt 0.2862396 0.08181901
vt -0.08181904 0.1631983
vt -0.08181904 0.1631983
vt 0.2862396 0.08181901
vt 0.2862396 0.08181901
vt 0.2862396 0.08181901
vt -0.1156475 0.1590643
vt -0.2897775 0.1590643
vt -0.2897775 0.1590643
vt 0.2897775 0.1156474
vt -0.2897775 0.1590643
vt -0.2897775 0.1590643
vt 0.1575823 0.09803683
vt 0.1172061 0.05129162
vt -0.4828957 0.05129166
vt 0.1172061 0.05129162
vt -0.4828957 0.05129166
vt 0.272247 0.1076117
vt 0.272247 0.1076117
vt -0.3211895 0.05129164
vt -0.3211895 0.05129164
vt -0.3211895 0.05129164
vt 0.3956416 -0.005825783
vt -0.005825791 0.2129334
vt 0.9745389 0.08669941
vt 0.1466248 0.2090065
vt 0.456259 0.1466248
vt -0.456259 0.2090065
vt 0.1466248 0.2090065
vt 0.1466248 0.2090065
vt -0.456259 0.2090065
vt 0.1466248 0.2090065
vt 0.3068102 0.03634588
vt 0.3068102 0.03634588
vt -0.0397867 0.05129162
vt -0.0397867 0.05129162
vt -0.09989355 0.142324
vt -0.09989355 0.142324
vt -0.09989355 0.142324
vt -0.09989355 0.142324
vt -0.09989355 0.142324
vt -0.2774669 0.1425418
vt -0.1034187 0.1425418
vt -0.2858314 0.05129164
vt -0.2858314 0.05129164
vt -0.09967881 0.05129162
vt -0.09967881 0.05129162
vt -0.4572802 0.2073344
vt 0.147085 0.2073344
vt 0.9435243 0.07655321
vt -0.005825799 0.06098588
vt -0.005825799 0.06098588
vt -0.005825799 0.06098588
vt -0.005825799 0.06098588
vt 0.9495186 0.07674167
vt 0.9495186 0.07674167
vt -0.005825798 0.09035294
vt -0.005825798 0.09035294
vt 0.9551688 0.07691932
vt 0.9551688 0.07691932
vt -0.005825797 0.1180351
vt -0.005825797 0.1180351
vt -0.005825797 0.1180351
vt 0.3627826 0.1783178
vt -0.3627826 0.1732766
vt -0.3627826 0.1732766
vt -0.3627826 0.1732766
vt -0.3614337 0.1213421
vt -0.3614337 0.1213421
vt -0.3614337 0.1213421
vt -0.3614337 0.1213421
vt -0.3614337 0.1213421
vt -0.3614337 0.1213421
vt -0.3614337 0.1213421
vt 0.4494289 0.152313
vt -0.4494289 0.2058676
vt -0.4494289 0.2058676
vt -0.4494289 0.2058676
vt -0.4544837 0.204568
vt -0.4544837 0.204568
vt -0.4544837 0.204568
vt 0.1174531 0.05169268
vt -0.4830281 0.05169272
vt -0.4830281 0.05169272
vt 0.1461006 0.1958497
vt 0.1461006 0.1958497
vt -0.4627003 0.1958497
vt -0.4627003 0.1958497
vt -0.4627003 0.1958497
vt -0.4627003 0.1958497
vt 0.1177829 0.05535001
vt 0.1177829 0.05535001
vt 0.1177829 0.05535001
vt -0.4836276 0.05535005
vt -0.4836276 0.05535005
vt 0.1299576 0.1399405
vt 0.1299576 0.1399405
vt -0.4847206 0.1399405
vt -0.4847206 0.1399405
vn 0 -1 0
vn 0 -1 0
vn 0 -1 0
vn 0.9438504 -0.2536978 0.211622
vn 0.9438504 -0.2536978 0.211622
vn 0.8430214 0.151246 0.5161778
vn 0 0 -1
vn 0 0 -1
vn 0.3092287 0.1471565 0.9395332
vn 0.3092288 0.1471564 0.9395332
vn 0.9438501 -0.2536975 0.2116236
vn 0.8430214 0.151246 0.5161778
vn 0.8430214 0.151246 0.5161778
vn 0 0 -1
vn -0.4256719 0.7717953 0.472372
vn 0 -1 0
vn 0 -1 0
vn -0.8442923 -0.3247268 0.4262899
vn 0.3092286 0.1471561 0.9395333
vn -0.06245689 0.8405155 -0.5381755
vn 0.3092288 0.1471562 0.9395332
vn -0.4256719 0.7717953 0.472372
vn -0.9457135 -0.2986951 -0.1280909
vn -0.6283504 0.7422413 0.2329241
vn -0.945711 -0.2986951 -0.1281094
vn -0.8442923 -0.3247268 0.42629
vn 0 0 -1
vn 0 -1 0
vn -0.9457107 -0.2986952 -0.1281115
vn 0.9438504 -0.2536978 0.211622
vn 0.9438501 -0.2536975 0.2116236
vn 0.94385 -0.2536984 0.211623
vn 0.94385 -0.2536984 0.2116231
vn 0 -1 0
vn 0 -1 0
vn 0 -1 0
vn 0 0 -1
vn 0 0 -1
vn 0.9438501 -0.2536975 0.2116236
vn 0 0 -1
vn 0.3092287 0.1471565 0.9395332
vn 0 -1 0
vn 0 -1 0
vn 0 -1 0
vn 0.3092287 0.1471565 0.9395332
vn 0.3092288 0.1471564 0.9395332
vn 0.8430211 0.151245 0.5161785
vn 0.94385 -0.2536984 0.2116231
vn 0.3092286 0.1471561 0.9395333
vn 0.3092288 0.1471562 0.9395332
vn 0.3092288 0.1471563 0.9395332
vn 0.8430211 0.151245 0.5161785
vn 0.6385936 0.7642795 -0.0898613
vn 0.6385946 0.7642787 -0.08986113
vn 0.3092286 0.1471561 0.9395333
vn 0.6385933 0.7642797 -0.08986117
vn 0.6385931 0.7642799 -0.08986063
vn 0 0 -1
vn -0.9457107 -0.2986952 -0.1281115
vn -0.06245689 0.8405155 -0.5381755
vn -0.9457135 -0.2986951 -0.1280909
vn -0.06246027 0.8405179 -0.5381714
vn 0 0 -1
vn 0 0 -1
vn 0.6385936 0.7642795 -0.0898613
vn -0.06245689 0.8405155 -0.5381755
vn 0.6385933 0.7642797 -0.08986117
vn 0.3092288 0.1471564 0.9395332
vn -0.8442923 -0.3247268 0.4262899
vn 0 -1 0
vn -0.8442923 -0.3247268 0.4262899
vn 0.3092288 0.1471562 0.9395332
vn -0.4256719 0.7717953 0.472372
vn -0.8442923 -0.3247268 0.42629
vn -0.8442888 -0.3247376 0.4262885
vn -0.4256746 0.7717949 0.4723706
vn -0.8442928 -0.3247255 0.4262899
vn 0 0 -1
vn 0 0 -1
vn 0.94385 -0.2536984 0.211623
vn 0.9712355 0.2170537 -0.09792533
vn 0.8430211 0.151245 0.5161785
vn 0.94385 -0.2536984 0.211623
vn 0.94385 -0.2536984 0.2116231
vn 0.9712355 0.2170537 -0.09792533
vn 0.9712362 0.2170506 -0.0979254
vn 0.6385946 0.7642787 -0.08986113
vn 0.9712362 0.2170506 -0.0979254
vn 0.6385936 0.7642795 -0.0898613
vn 0.6385946 0.7642787 -0.08986113
vn 0.9712355 0.2170537 -0.09792533
vn 0.9712362 0.2170506 -0.0979254
vn -0.6283504 0.7422413 0.2329241
vn -0.8442888 -0.3247376 0.4262885
vn 0 -1 0
vn -0.9457107 -0.2986952 -0.1281115
vn -0.9457135 -0.2986951 -0.1280909
vn -0.945711 -0.2986951 -0.1281094
vn -0.9552029 -0.2944238 0.03003466
vn 0 -1 0
vn 0 -1 0
vn -0.9552029 -0.2944238 0.03003466
vn -0.9552028 -0.2944242 0.03003331
vn 0 -1 0
vn 0 -1 0
vn -0.8442923 -0.3247268 0.42629
vn -0.9552029 -0.2944239 0.03003393
vn -0.9552028 -0.2944242 0.03003331
vn 0.3092288 0.1471563 0.9395332
vn 0.6385931 0.7642799 -0.08986063
vn -0.3321391 0.9329958 -0.1385727
vn -0.3321393 0.9329956 -0.138574
vn 0.6385933 0.7642797 -0.08986117
vn 0.6385931 0.7642799 -0.08986063
vn -0.06246027 0.8405179 -0.5381714
vn -0.3321386 0.9329957 -0.1385748
vn -0.3321396 0.9329956 -0.1385728
vn -0.3321397 0.9329955 -0.1385736
vn -0.3321391 0.9329958 -0.1385727
vn 0.3092288 0.1471563 0.9395332
vn -0.4256746 0.7717949 0.4723706
vn -0.3321393 0.9329956 -0.138574
vn -0.3321436 0.9329949 -0.138568
vn -0.6283504 0.7422413 0.2329241
vn -0.4256746 0.7717949 0.4723706
vn -0.3321436 0.9329949 -0.138568
vn -0.945711 -0.2986951 -0.1281094
vn -0.06246027 0.8405179 -0.5381714
vn -0.3321386 0.9329957 -0.1385748
vn -0.8442888 -0.3247376 0.4262885
vn -0.8442928 -0.3247255 0.4262899
vn -0.3321397 0.9329955 -0.1385736
vn -0.3321391 0.9329958 -0.1385727
vn -0.3321393 0.9329956 -0.138574
vn -0.3321436 0.9329949 -0.138568
vn -0.9552029 -0.2944238 0.03003466
vn -0.9552029 -0.2944239 0.03003393
vn -0.9552028 -0.2944242 0.03003331
vn -0.3321386 0.9329957 -0.1385748
vn -0.3321396 0.9329956 -0.1385728
vn -0.8442928 -0.3247255 0.4262899
vn -0.9552029 -0.2944239 0.03003393
vn -0.3321396 0.9329956 -0.1385728
vn -0.3321397 0.9329955 -0.1385736
g wall__sh_82_0
f 1/1/1 3/3/3 2/2/2
f 37/37/37 27/27/27 7/7/7
f 38/38/38 58/58/58 8/8/8
f 78/78/78 63/63/63 14/14/14
f 40/40/40 64/64/64 79/79/79
f 16/16/16 34/34/34 17/17/17
f 28/28/28 35/35/35 95/95/95
f 100/100/100 36/36/36 42/42/42
f 104/104/104 101/101/101 43/43/43
f 44/44/44 70/70/70 105/105/105
f 5/5/5 4/4/4 30/30/30
f 9/9/9 41/41/41 45/45/45
f 10/10/10 68/68/68 46/46/46
f 31/31/31 39/39/39 11/11/11
f 13/13/13 6/6/6 12/12/12
f 52/52/52 47/47/47 82/82/82
f 65/65/65 53/53/53 89/89/89
f 32/32/32 80/80/80 83/83/83
f 84/84/84 48/48/48 33/33/33
f 90/90/90 54/54/54 87/87/87
f 85/85/85 81/81/81 91/91/91
f 92/92/92 88/88/88 86/86/86
f 59/59/59 29/29/29 96/96/96
f 18/18/18 69/69/69 71/71/71
f 49/49/49 55/55/55 19/19/19
f 20/20/20 66/66/66 60/60/60
f 72/72/72 50/50/50 21/21/21
f 22/22/22 15/15/15 73/73/73
f 124/124/124 24/24/24 93/93/93
f 23/23/23 61/61/61 97/97/97
f 25/25/25 127/127/127 98/98/98
f 26/26/26 106/106/106 74/74/74
f 75/75/75 94/94/94 130/130/130
f 136/136/136 99/99/99 102/102/102
f 120/120/120 51/51/51 109/109/109
f 56/56/56 67/67/67 113/113/113
f 114/114/114 110/110/110 57/57/57
f 115/115/115 62/62/62 128/128/128
f 125/125/125 76/76/76 121/121/121
f 141/141/141 77/77/77 131/131/131
f 107/107/107 142/142/142 137/137/137
f 138/138/138 103/103/103 108/108/108
f 116/116/116 129/129/129 139/139/139
f 117/117/117 140/140/140 143/143/143
f 118/118/118 144/144/144 132/132/132
f 111/111/111 119/119/119 133/133/133
f 122/122/122 112/112/112 134/134/134
f 135/135/135 126/126/126 123/123/123
