g wall__sh_46
v -0.2735147 0.5276308 -0.280733
v -0.3061253 0.4869595 -0.280733
v -0.3747229 -0.5276308 -0.280733
v -0.03741574 0.5276308 -0.04989412
v 0.03174961 0.5276308 -0.280733
v 0.2410983 -0.4289718 -0.280733
v 0.3844265 -0.01677465 -0.280733
v 0.336927 -0.146214 0.157656
v -0.3698875 -0.06711149 0.09128848
v -0.3844265 -0.33042 0.04512617
v 0.0555585 0.2365122 0.2692311
v 0.2594561 -0.08355188 0.280733
v -0.2735147 0.5276308 -0.280733
v -0.2735147 0.5276308 -0.280733
v -0.2735147 0.5276308 -0.280733
v -0.2735147 0.5276308 -0.280733
v -0.2735147 0.5276308 -0.280733
v -0.3061253 0.4869595 -0.280733
v -0.3061253 0.4869595 -0.280733
v -0.3061253 0.4869595 -0.280733
v -0.3747229 -0.5276308 -0.280733
v -0.3747229 -0.5276308 -0.280733
v -0.3747229 -0.5276308 -0.280733
v -0.3747229 -0.5276308 -0.280733
v -0.03741574 0.5276308 -0.04989412
v -0.03741574 0.5276308 -0.04989412
v -0.03741574 0.5276308 -0.04989412
v -0.03741574 0.5276308 -0.04989412
v 0.03174961 0.5276308 -0.280733
v 0.03174961 0.5276308 -0.280733
v 0.03174961 0.5276308 -0.280733
v 0.2410983 -0.4289718 -0.280733
v 0.2410983 -0.4289718 -0.280733
v 0.2410983 -0.4289718 -0.280733
v 0.2410983 -0.4289718 -0.280733
v 0.2410983 -0.4289718 -0.280733
v 0.3844265 -0.01677465 -0.280733
v 0.3844265 -0.01677465 -0.280733
v 0.3844265 -0.01677465 -0.280733
v 0.3844265 -0.01677465 -0.280733
v 0.3844265 -0.01677465 -0.280733
v 0.336927 -0.146214 0.157656
v 0.336927 -0.146214 0.157656
v -0.3698875 -0.06711149 0.09128848
v -0.3698875 -0.06711149 0.09128848
v -0.3698875 -0.06711149 0.09128848
v -0.3698875 -0.06711149 0.09128848
v -0.3698875 -0.06711149 0.09128848
v -0.3844265 -0.33042 0.04512617
v -0.3844265 -0.33042 0.04512617
v -0.3844265 -0.33042 0.04512617
v 0.0555585 0.2365122 0.2692311
v 0.0555585 0.2365122 0.2692311
v 0.0555585 0.2365122 0.2692311
v 0.0555585 0.2365122 0.2692311
v 0.2594561 -0.08355188 0.280733
v 0.2594561 -0.08355188 0.280733
v 0.2594561 -0.08355188 0.280733
v 0.2594561 -0.08355188 0.280733
v 0.2594561 -0.08355188 0.280733
vt 0.5603959 1
vt 0.5545225 0.9917681
vt 0.5421673 0.7864173
vt 0.9535134 0.197081
vt 0.9415456 0.2006667
vt 0.6530827 0.8063857
vt 0.6788976 0.8898136
vt -1.077974 0.1626426
vt 1.098066 0.1457852
vt 1.031185 0.13406
vt -1.175187 0.1909827
vt -1.09389 0.1939042
vt 0.9415455 0.1848402
vt -0.08517351 1.249131
vt 0.5603959 1
vt 0.5603959 1
vt 0.5603959 1
vt -0.07689039 1.2388
vt 1.2388 0.05129157
vt -0.07689039 1.2388
vt 0.5421673 0.7864173
vt 0.9810938 0.05129158
vt 0.9810938 0.05129158
vt -0.05946658 0.05129158
vt -0.1451428 1.249131
vt -0.1451428 1.249131
vt -1.249131 0.1099248
vt -0.1451428 1.249131
vt 0.6153769 1
vt -1.249131 0.05129157
vt -1.249131 0.05129157
vt 0.6530827 0.8063857
vt -1.006153 0.05129158
vt -0.2158855 0.05129158
vt -0.2158855 0.05129158
vt -0.2158855 0.05129158
vt 0.6788976 0.8898136
vt -1.110852 0.05129157
vt -1.110852 0.05129157
vt -1.110852 0.05129157
vt -1.110852 0.05129157
vt -1.077974 0.1626426
vt -0.240226 0.1626426
vt 1.098066 0.1457852
vt -0.06069477 1.098066
vt -0.06069477 1.098066
vt -0.06069477 1.098066
vt -0.06069477 1.098066
vt -0.05700185 0.13406
vt -0.05700185 0.13406
vt -0.05700185 1.031185
vt -0.1687583 1.175187
vt -1.175187 0.1909827
vt -1.175187 0.1909827
vt -0.1687583 1.175187
vt -0.2205484 0.1939042
vt -0.2205484 0.1939042
vt -1.09389 0.1939042
vt -0.2205484 1.09389
vt -0.2205484 1.09389
vn 0 0 -1
vn 0 0 -1
vn 0 0 -1
vn 0 1 0
vn 0 1 0
vn 0 0 -1
vn 0 0 -1
vn 0.944515 -0.3284245 0.005367322
vn -0.9952494 0.06728987 -0.07036117
vn -0.9952494 0.06728987 -0.07036117
vn 0.8139376 0.5272851 0.243877
vn 0.8139375 0.5272852 0.2438772
vn 0 1 0
vn -0.6098253 0.488963 0.6237214
vn 0 0 -1
vn 0 0 -1
vn 0 0 -1
vn -0.6098253 0.488963 0.6237214
vn -0.9952494 0.0672899 -0.07036119
vn -0.6098248 0.4889647 0.6237205
vn 0 0 -1
vn -0.9952494 0.06728987 -0.07036117
vn -0.9952494 0.0672899 -0.07036119
vn 0.1355096 -0.8458391 0.5159393
vn -0.6098253 0.488963 0.6237214
vn -0.6098248 0.4889647 0.6237205
vn 0.8139376 0.5272851 0.243877
vn -0.6098251 0.4889647 0.6237201
vn 0 0 -1
vn 0.8139376 0.5272851 0.243877
vn 0.8139375 0.5272853 0.2438771
vn 0 0 -1
vn 0.944515 -0.3284245 0.005367322
vn 0.1355096 -0.8458391 0.5159393
vn 0.1355093 -0.8458394 0.5159389
vn 0.1355098 -0.8458393 0.5159389
vn 0 0 -1
vn 0.944515 -0.3284245 0.005367322
vn 0.8139375 0.5272852 0.2438772
vn 0.8139375 0.5272853 0.2438771
vn 0.8139377 0.527285 0.2438773
vn 0.8139375 0.5272852 0.2438772
vn 0.1355098 -0.8458393 0.5159389
vn -0.9952494 0.0672899 -0.07036119
vn -0.6098248 0.4889647 0.6237205
vn -0.6098251 0.4889647 0.6237201
vn -0.2885756 -0.149855 0.9456573
vn -0.2885756 -0.1498544 0.9456573
vn 0.1355096 -0.8458391 0.5159393
vn 0.1355093 -0.8458394 0.5159389
vn -0.2885756 -0.149855 0.9456573
vn -0.6098251 0.4889647 0.6237201
vn 0.8139375 0.5272853 0.2438771
vn 0.8139377 0.527285 0.2438773
vn -0.2885756 -0.1498544 0.9456573
vn 0.1355093 -0.8458394 0.5159389
vn 0.1355098 -0.8458393 0.5159389
vn 0.8139377 0.527285 0.2438773
vn -0.2885756 -0.149855 0.9456573
vn -0.2885756 -0.1498544 0.9456573
g wall__sh_46_0
f 3/3/3 2/2/2 1/1/1
f 13/13/13 4/4/4 5/5/5
f 6/6/6 21/21/21 15/15/15
f 7/7/7 32/32/32 16/16/16
f 17/17/17 29/29/29 37/37/37
f 25/25/25 14/14/14 18/18/18
f 38/38/38 8/8/8 33/33/33
f 9/9/9 22/22/22 10/10/10
f 19/19/19 23/23/23 44/44/44
f 26/26/26 20/20/20 45/45/45
f 30/30/30 27/27/27 11/11/11
f 42/42/42 39/39/39 12/12/12
f 49/49/49 24/24/24 34/34/34
f 52/52/52 28/28/28 46/46/46
f 56/56/56 50/50/50 35/35/35
f 36/36/36 43/43/43 57/57/57
f 40/40/40 31/31/31 53/53/53
f 54/54/54 58/58/58 41/41/41
f 47/47/47 51/51/51 59/59/59
f 60/60/60 55/55/55 48/48/48
