g wall__sh_84
v 0.4479649 -0.1196251 0.2839789
v 0.02722311 -0.3677278 0.2839789
v 0.4479649 -0.2748139 0.2839789
v 0.2683382 -0.3896254 0.2839789
v 0.4479649 -0.108982 0.07115209
v 0.2630033 0.02274263 -0.2496253
v -0.4157708 0.02648365 0.2839789
v -0.3524534 -0.3332464 0.2839789
v -0.4479651 -0.2411798 0.2839789
v -0.4462012 -0.2553058 0.1940352
v -0.33191 0.3681431 0.2839789
v -0.3797352 0.3260812 0.2839789
v 0.2166173 0.05347252 -0.2839789
v -0.4143574 -0.06901318 -0.0510577
v -0.3654615 0.3699974 0.05044609
v -0.3460587 0.3896254 0.03135824
v -0.3902377 0.1195757 -0.0883621
v -0.2499042 0.3395522 -0.1699296
v 0.4479649 -0.1196251 0.2839789
v 0.4479649 -0.1196251 0.2839789
v 0.4479649 -0.1196251 0.2839789
v 0.4479649 -0.1196251 0.2839789
v 0.02722311 -0.3677278 0.2839789
v 0.02722311 -0.3677278 0.2839789
v 0.02722311 -0.3677278 0.2839789
v 0.02722311 -0.3677278 0.2839789
v 0.02722311 -0.3677278 0.2839789
v 0.02722311 -0.3677278 0.2839789
v 0.02722311 -0.3677278 0.2839789
v 0.4479649 -0.2748139 0.2839789
v 0.4479649 -0.2748139 0.2839789
v 0.4479649 -0.2748139 0.2839789
v 0.2683382 -0.3896254 0.2839789
v 0.2683382 -0.3896254 0.2839789
v 0.2683382 -0.3896254 0.2839789
v 0.4479649 -0.108982 0.07115209
v 0.4479649 -0.108982 0.07115209
v 0.4479649 -0.108982 0.07115209
v 0.4479649 -0.108982 0.07115209
v 0.4479649 -0.108982 0.07115209
v 0.2630033 0.02274263 -0.2496253
v 0.2630033 0.02274263 -0.2496253
v 0.2630033 0.02274263 -0.2496253
v -0.4157708 0.02648365 0.2839789
v -0.4157708 0.02648365 0.2839789
v -0.4157708 0.02648365 0.2839789
v -0.4157708 0.02648365 0.2839789
v -0.4157708 0.02648365 0.2839789
v -0.4157708 0.02648365 0.2839789
v -0.3524534 -0.3332464 0.2839789
v -0.3524534 -0.3332464 0.2839789
v -0.3524534 -0.3332464 0.2839789
v -0.3524534 -0.3332464 0.2839789
v -0.4479651 -0.2411798 0.2839789
v -0.4479651 -0.2411798 0.2839789
v -0.4479651 -0.2411798 0.2839789
v -0.4462012 -0.2553058 0.1940352
v -0.4462012 -0.2553058 0.1940352
v -0.33191 0.3681431 0.2839789
v -0.33191 0.3681431 0.2839789
v -0.33191 0.3681431 0.2839789
v -0.33191 0.3681431 0.2839789
v -0.33191 0.3681431 0.2839789
v -0.33191 0.3681431 0.2839789
v -0.33191 0.3681431 0.2839789
v -0.3797352 0.3260812 0.2839789
v -0.3797352 0.3260812 0.2839789
v -0.3797352 0.3260812 0.2839789
v -0.3797352 0.3260812 0.2839789
v 0.2166173 0.05347252 -0.2839789
v 0.2166173 0.05347252 -0.2839789
v 0.2166173 0.05347252 -0.2839789
v 0.2166173 0.05347252 -0.2839789
v 0.2166173 0.05347252 -0.2839789
v -0.4143574 -0.06901318 -0.0510577
v -0.4143574 -0.06901318 -0.0510577
v -0.4143574 -0.06901318 -0.0510577
v -0.4143574 -0.06901318 -0.0510577
v -0.4143574 -0.06901318 -0.0510577
v -0.4143574 -0.06901318 -0.0510577
v -0.4143574 -0.06901318 -0.0510577
v -0.4143574 -0.06901318 -0.0510577
v -0.3654615 0.3699974 0.05044609
v -0.3654615 0.3699974 0.05044609
v -0.3654615 0.3699974 0.05044609
v -0.3654615 0.3699974 0.05044609
v -0.3460587 0.3896254 0.03135824
v -0.3460587 0.3896254 0.03135824
v -0.3902377 0.1195757 -0.0883621
v -0.3902377 0.1195757 -0.0883621
v -0.3902377 0.1195757 -0.0883621
v -0.2499042 0.3395522 -0.1699296
v -0.2499042 0.3395522 -0.1699296
v -0.2499042 0.3395522 -0.1699296
v -0.2499042 0.3395522 -0.1699296
v -0.2499042 0.3395522 -0.1699296
vt 1 0.1259952
vt 0.9242203 0.07577977
vt 1 0.09458534
vt 0.9676475 0.07134774
vt 0.952972 0.3787935
vt -0.6581465 0.1270577
vt 0.8444327 0.1555673
vt 0.8558368 0.08275872
vt 0.8386342 0.1013928
vt -0.4780082 0.2397477
vt 0.8595369 0.2247185
vt 0.8509231 0.2162052
vt 0.6463644 0.1183318
vt 0.1651482 0.177494
vt 0.4985161 0.2032759
vt 0.5034444 0.1984276
vt 0.2130499 0.1680186
vt 0.5278677 0.1473004
vt 0.9397312 0.3781313
vt 1 0.1259952
vt 1 0.1259952
vt 0.7051268 0.2625934
vt 0.9242203 0.07577977
vt -0.5982582 0.2625934
vt 0.9242203 0.07577977
vt 0.9242202 0.07577977
vt -0.5982582 0.2625934
vt -0.5982582 0.2625934
vt -0.5982582 0.2625934
vt 1 0.09458534
vt 0.9397312 0.3684765
vt -0.7051268 0.2625934
vt -0.6595016 0.2625934
vt -0.6595016 0.2625934
vt -0.6595016 0.2625934
vt -0.7051268 0.2085353
vt -0.7051268 0.2085353
vt 0.7051268 0.2085353
vt 0.7051268 0.2085353
vt 0.7051268 0.2085353
vt -0.6581465 0.1270577
vt 0.6581465 0.1270576
vt -0.6581465 0.1270577
vt 0.8444327 0.1555673
vt 0.8444327 0.1555673
vt 0.8444327 0.1555673
vt 0.8444327 0.1555673
vt 0.1894045 0.2625934
vt 0.1894045 0.2625934
vt 0.8558368 0.08275872
vt -0.5018201 0.2625934
vt -0.5018201 0.2625934
vt -0.5018201 0.2625934
vt -0.4775601 0.2625934
vt 0.1214178 0.2625934
vt 0.1214178 0.2625934
vt 0.1178298 0.2397477
vt -0.4780082 0.2397477
vt 0.8595369 0.2247185
vt 0.5070382 0.2625934
vt 0.5070382 0.2625934
vt 0.5070382 0.2625934
vt 0.5070382 0.2625934
vt 0.5070382 0.2625934
vt 0.5070382 0.2625934
vt 0.2655024 0.2625934
vt 0.4948906 0.2625934
vt 0.2655024 0.2625934
vt 0.2655024 0.2625934
vt -0.6463644 0.1183319
vt -0.6463644 0.1183319
vt 0.6463644 0.1183318
vt 0.6463644 0.1183318
vt 0.6463644 0.1962596
vt -0.4860965 0.177494
vt -0.4860965 0.177494
vt -0.4860965 0.177494
vt 0.1651482 0.177494
vt 0.1651482 0.177494
vt 0.1651482 0.177494
vt 0.4860965 0.1651482
vt 0.4860965 0.1651482
vt 0.4985161 0.2032759
vt 0.2766571 0.203276
vt 0.2766571 0.203276
vt 0.2766571 0.203276
vt 0.5034444 0.1984276
vt 0.2816426 0.1984276
vt 0.4922229 0.2130499
vt 0.2130499 0.1680186
vt 0.2130499 0.1680186
vt 0.5278677 0.268924
vt 0.5278677 0.268924
vt 0.5278677 0.1473004
vt 0.268924 0.1473004
vt 0.268924 0.1473004
vn 0 0 1
vn 0 0 1
vn 0 0 1
vn 0 0 1
vn 1 0 0
vn -0.07170707 -0.789568 -0.6094592
vn 0 0 1
vn 0 0 1
vn 0 0 1
vn -0.6905951 -0.7164372 0.09897546
vn 0 0 1
vn 0 0 1
vn 0.5297956 0.8470669 0.04235883
vn -0.9921193 0.1193319 -0.03819855
vn -0.6570816 0.7471123 0.1003346
vn -0.6570816 0.7471123 0.1003346
vn -0.9921193 0.1193319 -0.03819885
vn 0.5297936 0.8470681 0.04236035
vn 1 0 0
vn 0 0 1
vn 0 0 1
vn 0.5297937 0.8470681 0.0423605
vn 0 0 1
vn -0.07170707 -0.789568 -0.6094592
vn 0 0 1
vn 0 0 1
vn -0.07170749 -0.7895679 -0.6094593
vn -0.07170683 -0.7895681 -0.6094592
vn -0.07170676 -0.789568 -0.6094592
vn 0 0 1
vn 1 0 0
vn 0.4501994 -0.7043534 -0.5488232
vn -0.07170707 -0.789568 -0.6094592
vn 0.450199 -0.7043534 -0.5488235
vn 0.4501994 -0.7043534 -0.5488232
vn 0.450199 -0.7043534 -0.5488235
vn 0.4501994 -0.7043534 -0.5488232
vn 0.5297937 0.8470681 0.0423605
vn 0.5297956 0.8470669 0.04235883
vn 0.5297937 0.8470681 0.04236049
vn 0.450199 -0.7043534 -0.5488235
vn 0.5297956 0.8470669 0.04235883
vn -0.07170749 -0.7895679 -0.6094593
vn 0 0 1
vn 0 0 1
vn 0 0 1
vn 0 0 1
vn -0.9921194 0.1193315 -0.03819875
vn -0.9921193 0.1193319 -0.03819889
vn 0 0 1
vn -0.6905951 -0.7164372 0.09897546
vn -0.07170676 -0.789568 -0.6094592
vn -0.07170713 -0.789568 -0.6094592
vn -0.6905951 -0.7164372 0.09897546
vn -0.9921193 0.1193319 -0.03819855
vn -0.9921194 0.1193315 -0.03819875
vn -0.9921193 0.1193319 -0.03819855
vn -0.07170713 -0.789568 -0.6094592
vn 0 0 1
vn 0.5297937 0.8470681 0.0423605
vn 0.5297937 0.8470681 0.04236049
vn -0.6570816 0.7471123 0.1003346
vn -0.6570805 0.7471132 0.1003344
vn 0.5297936 0.8470681 0.04236035
vn 0.5297937 0.847068 0.0423604
vn -0.9921193 0.1193319 -0.03819889
vn -0.6570805 0.7471132 0.1003344
vn -0.9921193 0.1193319 -0.03819885
vn -0.9921193 0.1193318 -0.0381988
vn -0.07170749 -0.7895679 -0.6094593
vn -0.07170683 -0.7895681 -0.6094592
vn 0.5297937 0.8470681 0.04236049
vn 0.5297936 0.8470681 0.04236035
vn -0.3178146 -0.1447081 -0.937045
vn -0.07170683 -0.7895681 -0.6094592
vn -0.07170676 -0.789568 -0.6094592
vn -0.07170713 -0.789568 -0.6094592
vn -0.9921194 0.1193315 -0.03819875
vn -0.9921193 0.1193319 -0.03819889
vn -0.9921193 0.1193319 -0.03819885
vn -0.3178146 -0.1447081 -0.937045
vn -0.3178152 -0.1447078 -0.9370449
vn -0.6570805 0.7471132 0.1003344
vn -0.9921193 0.1193318 -0.0381988
vn -0.8117797 0.34249 -0.4729844
vn -0.8117785 0.3424932 -0.4729842
vn 0.5297937 0.847068 0.0423604
vn -0.8117785 0.3424932 -0.4729842
vn -0.3178152 -0.1447078 -0.9370449
vn -0.9921193 0.1193318 -0.0381988
vn -0.8117797 0.34249 -0.4729844
vn -0.3178146 -0.1447081 -0.937045
vn -0.3178152 -0.1447078 -0.9370449
vn 0.5297937 0.847068 0.0423604
vn -0.8117797 0.34249 -0.4729844
vn -0.8117785 0.3424932 -0.4729842
g wall__sh_84_0
f 3/3/3 1/1/1 2/2/2
f 4/4/4 30/30/30 23/23/23
f 31/31/31 5/5/5 19/19/19
f 25/25/25 20/20/20 7/7/7
f 8/8/8 44/44/44 9/9/9
f 26/26/26 45/45/45 50/50/50
f 12/12/12 46/46/46 11/11/11
f 47/47/47 21/21/21 59/59/59
f 6/6/6 33/33/33 24/24/24
f 34/34/34 41/41/41 36/36/36
f 37/37/37 32/32/32 35/35/35
f 10/10/10 51/51/51 54/54/54
f 60/60/60 22/22/22 38/38/38
f 39/39/39 42/42/42 13/13/13
f 43/43/43 27/27/27 70/70/70
f 57/57/57 55/55/55 14/14/14
f 75/75/75 71/71/71 28/28/28
f 76/76/76 29/29/29 52/52/52
f 53/53/53 58/58/58 77/77/77
f 78/78/78 56/56/56 48/48/48
f 79/79/79 49/49/49 66/66/66
f 61/61/61 40/40/40 72/72/72
f 15/15/15 62/62/62 16/16/16
f 67/67/67 63/63/63 83/83/83
f 17/17/17 80/80/80 68/68/68
f 64/64/64 73/73/73 18/18/18
f 92/92/92 74/74/74 81/81/81
f 89/89/89 93/93/93 82/82/82
f 90/90/90 69/69/69 84/84/84
f 87/87/87 65/65/65 94/94/94
f 95/95/95 91/91/91 85/85/85
f 86/86/86 88/88/88 96/96/96
