g wall__sh_54
v -0.05432057 -0.5082133 0.1343703
v -0.05398333 -0.5067946 0.1291342
v 0.4904912 0.5082133 0.1343703
v 0.4614458 0.4860139 -0.07776898
v -0.1505332 0.3737502 0.1343703
v -0.003247619 0.3842411 -0.1343703
v -0.3922892 -0.3978184 0.1343703
v -0.4904913 -0.2777636 0.1343703
v -0.4030857 -0.3604035 0.01831239
v -0.4334724 -0.3079283 -0.003511369
v -0.4207139 -0.3605808 0.03863925
v -0.4567171 -0.3163974 0.0321641
v -0.05432057 -0.5082133 0.1343703
v -0.05432057 -0.5082133 0.1343703
v -0.05432057 -0.5082133 0.1343703
v -0.05398333 -0.5067946 0.1291342
v -0.05398333 -0.5067946 0.1291342
v -0.05398333 -0.5067946 0.1291342
v 0.4904912 0.5082133 0.1343703
v 0.4904912 0.5082133 0.1343703
v 0.4904912 0.5082133 0.1343703
v 0.4904912 0.5082133 0.1343703
v 0.4904912 0.5082133 0.1343703
v 0.4614458 0.4860139 -0.07776898
v 0.4614458 0.4860139 -0.07776898
v 0.4614458 0.4860139 -0.07776898
v -0.1505332 0.3737502 0.1343703
v -0.1505332 0.3737502 0.1343703
v -0.1505332 0.3737502 0.1343703
v -0.1505332 0.3737502 0.1343703
v -0.003247619 0.3842411 -0.1343703
v -0.003247619 0.3842411 -0.1343703
v -0.003247619 0.3842411 -0.1343703
v -0.003247619 0.3842411 -0.1343703
v -0.3922892 -0.3978184 0.1343703
v -0.3922892 -0.3978184 0.1343703
v -0.3922892 -0.3978184 0.1343703
v -0.3922892 -0.3978184 0.1343703
v -0.3922892 -0.3978184 0.1343703
v -0.3922892 -0.3978184 0.1343703
v -0.4904913 -0.2777636 0.1343703
v -0.4904913 -0.2777636 0.1343703
v -0.4904913 -0.2777636 0.1343703
v -0.4030857 -0.3604035 0.01831239
v -0.4030857 -0.3604035 0.01831239
v -0.4030857 -0.3604035 0.01831239
v -0.4030857 -0.3604035 0.01831239
v -0.4030857 -0.3604035 0.01831239
v -0.4030857 -0.3604035 0.01831239
v -0.4030857 -0.3604035 0.01831239
v -0.4334724 -0.3079283 -0.003511369
v -0.4334724 -0.3079283 -0.003511369
v -0.4334724 -0.3079283 -0.003511369
v -0.4334724 -0.3079283 -0.003511369
v -0.4207139 -0.3605808 0.03863925
v -0.4207139 -0.3605808 0.03863925
v -0.4567171 -0.3163974 0.0321641
v -0.4567171 -0.3163974 0.0321641
v -0.4567171 -0.3163974 0.0321641
v -0.4567171 -0.3163974 0.0321641
vt -0.3695666 0.2625934
vt -0.369927 0.2612635
vt -0.6277395 0.2625934
vt -0.6221008 0.2087099
vt -0.2064938 0.2625934
vt -0.1690832 0.1943332
vt 0.310034 0.3214715
vt 0.2923471 0.3457704
vt 0.2706423 0.2331147
vt 0.4204391 0.2275714
vt 0.2751199 0.2382777
vt 0.4182879 0.236633
vt 0.3709056 0.2991278
vt 0.1820558 0.2625934
vt 0.1820558 0.2625934
vt -0.369927 0.2612635
vt 0.1819701 0.2612635
vt -0.1819701 0.369927
vt -0.6277395 0.2625934
vt -0.04367331 0.2625934
vt -0.04367331 0.2625934
vt 0.4690316 0.5048504
vt 0.4690316 0.5048504
vt -0.05105087 0.2087099
vt -0.05105087 0.6221008
vt -0.05105087 0.6221008
vt 0.3535767 0.4776354
vt 0.3535767 0.4776354
vt 0.5935858 0.2625934
vt 0.5935858 0.2625934
vt -0.1690832 0.1943332
vt 0.5962505 0.1943332
vt -0.1690832 0.5962505
vt -0.1690832 0.5962505
vt 0.310034 0.3214715
vt 0.310034 0.3214715
vt 0.397607 0.2625934
vt 0.2679 0.2625934
vt 0.2679 0.2625934
vt 0.397607 0.2625934
vt 0.4281009 0.2625934
vt 0.4281009 0.2625934
vt 0.4281009 0.2625934
vt -0.2706423 0.4071104
vt 0.2706423 0.2331147
vt 0.2706423 0.2331147
vt -0.2706423 0.4071104
vt -0.2706423 0.4071104
vt 0.4071104 0.2331147
vt 0.4071104 0.2331147
vt 0.4204391 0.2275714
vt 0.4204391 0.2275714
vt -0.2783605 0.4204391
vt 0.4204391 0.2275714
vt 0.4070653 0.2382777
vt 0.4070653 0.2382777
vt 0.4182879 0.236633
vt 0.4182879 0.236633
vt 0.4182879 0.236633
vt 0.4182879 0.236633
vn 0.8791447 -0.4712278 -0.07105574
vn 0.8791447 -0.4712278 -0.07105574
vn 0.8791447 -0.4712278 -0.07105574
vn 0.8791446 -0.4712277 -0.07105789
vn -0.2047304 0.9760093 -0.07410356
vn -0.2047303 0.9760093 -0.07410385
vn 0 0 1
vn 0 0 1
vn -0.2991884 -0.9159467 -0.2674472
vn -0.8030308 0.4190191 -0.4237506
vn -0.2991849 -0.9159465 -0.2674519
vn -0.7739301 -0.6330572 -0.01645112
vn 0 0 1
vn -0.2991884 -0.9159467 -0.2674472
vn -0.2991867 -0.915946 -0.2674515
vn 0.8791446 -0.4712277 -0.07105789
vn -0.2991884 -0.9159467 -0.2674472
vn 0.1777573 -0.2883654 -0.9408761
vn 0.8791446 -0.4712277 -0.07105789
vn -0.2047303 0.9760093 -0.07410385
vn -0.2047304 0.9760093 -0.07410356
vn 0 0 1
vn 0 0 1
vn -0.2047303 0.9760093 -0.07410385
vn 0.1777573 -0.2883654 -0.9408761
vn 0.177757 -0.288365 -0.9408762
vn 0 0 1
vn 0 0 1
vn -0.8030308 0.4190191 -0.4237506
vn -0.8030306 0.4190191 -0.4237511
vn -0.2047304 0.9760093 -0.07410356
vn -0.8030308 0.4190191 -0.4237506
vn 0.177757 -0.288365 -0.9408762
vn 0.1777569 -0.288365 -0.9408762
vn 0 0 1
vn 0 0 1
vn -0.7739301 -0.6330572 -0.01645112
vn -0.2991867 -0.915946 -0.2674515
vn -0.2991849 -0.9159465 -0.2674519
vn -0.7739314 -0.6330559 -0.01644931
vn -0.7739301 -0.6330572 -0.01645112
vn -0.8030306 0.4190191 -0.4237511
vn -0.8030304 0.4190193 -0.4237511
vn 0.1777573 -0.2883654 -0.9408761
vn -0.2991867 -0.915946 -0.2674515
vn -0.2991849 -0.9159465 -0.2674519
vn 0.177757 -0.288365 -0.9408762
vn 0.1777569 -0.288365 -0.9408762
vn -0.6136029 -0.5787259 -0.5371852
vn -0.6136028 -0.5787255 -0.5371858
vn -0.8030306 0.4190191 -0.4237511
vn -0.8030304 0.4190193 -0.4237511
vn 0.1777569 -0.288365 -0.9408762
vn -0.6136029 -0.5787259 -0.5371852
vn -0.7739314 -0.6330559 -0.01644931
vn -0.6136028 -0.5787255 -0.5371858
vn -0.8030304 0.4190193 -0.4237511
vn -0.7739314 -0.6330559 -0.01644931
vn -0.6136029 -0.5787259 -0.5371852
vn -0.6136028 -0.5787255 -0.5371858
g wall__sh_54_0
f 7/7/7 13/13/13 22/22/22
f 35/35/35 23/23/23 27/27/27
f 28/28/28 8/8/8 36/36/36
f 3/3/3 1/1/1 2/2/2
f 19/19/19 16/16/16 4/4/4
f 20/20/20 24/24/24 6/6/6
f 5/5/5 21/21/21 31/31/31
f 9/9/9 17/17/17 14/14/14
f 25/25/25 18/18/18 44/44/44
f 29/29/29 32/32/32 10/10/10
f 37/37/37 41/41/41 12/12/12
f 45/45/45 15/15/15 38/38/38
f 39/39/39 11/11/11 46/46/46
f 33/33/33 26/26/26 47/47/47
f 42/42/42 30/30/30 51/51/51
f 52/52/52 57/57/57 43/43/43
f 53/53/53 34/34/34 48/48/48
f 55/55/55 40/40/40 58/58/58
f 59/59/59 54/54/54 49/49/49
f 50/50/50 56/56/56 60/60/60
