g wall__sh_16
v -0.2253725 -0.1567341 -0.4159476
v 0.1641598 -0.6031009 0.4159477
v 0.285841 -0.4042273 -0.4159476
v 0.4895797 0.4021922 -0.4159476
v 0.2177165 -0.3911175 0.4159477
v 0.475652 0.3836397 -0.3083402
v -0.3451718 0.3599101 -0.4159476
v 0.1698583 0.6031009 -0.4159476
v 0.06824207 0.5733086 -0.04688561
v -0.4581499 -0.2054203 0.1048452
v -0.2407551 -0.40707 0.4159477
v -0.1120939 0.1013857 0.4159477
v -0.1711415 0.4743222 0.2381362
v -0.4895797 0.3081714 -0.08220834
v -0.2253725 -0.1567341 -0.4159476
v -0.2253725 -0.1567341 -0.4159476
v -0.2253725 -0.1567341 -0.4159476
v -0.2253725 -0.1567341 -0.4159476
v 0.1641598 -0.6031009 0.4159477
v 0.1641598 -0.6031009 0.4159477
v 0.1641598 -0.6031009 0.4159477
v 0.1641598 -0.6031009 0.4159477
v 0.285841 -0.4042273 -0.4159476
v 0.285841 -0.4042273 -0.4159476
v 0.285841 -0.4042273 -0.4159476
v 0.285841 -0.4042273 -0.4159476
v 0.285841 -0.4042273 -0.4159476
v 0.4895797 0.4021922 -0.4159476
v 0.4895797 0.4021922 -0.4159476
v 0.4895797 0.4021922 -0.4159476
v 0.2177165 -0.3911175 0.4159477
v 0.2177165 -0.3911175 0.4159477
v 0.2177165 -0.3911175 0.4159477
v 0.2177165 -0.3911175 0.4159477
v 0.475652 0.3836397 -0.3083402
v 0.475652 0.3836397 -0.3083402
v 0.475652 0.3836397 -0.3083402
v 0.475652 0.3836397 -0.3083402
v 0.475652 0.3836397 -0.3083402
v -0.3451718 0.3599101 -0.4159476
v -0.3451718 0.3599101 -0.4159476
v -0.3451718 0.3599101 -0.4159476
v -0.3451718 0.3599101 -0.4159476
v -0.3451718 0.3599101 -0.4159476
v 0.1698583 0.6031009 -0.4159476
v 0.1698583 0.6031009 -0.4159476
v 0.1698583 0.6031009 -0.4159476
v 0.06824207 0.5733086 -0.04688561
v 0.06824207 0.5733086 -0.04688561
v 0.06824207 0.5733086 -0.04688561
v 0.06824207 0.5733086 -0.04688561
v 0.06824207 0.5733086 -0.04688561
v -0.4581499 -0.2054203 0.1048452
v -0.4581499 -0.2054203 0.1048452
v -0.4581499 -0.2054203 0.1048452
v -0.4581499 -0.2054203 0.1048452
v -0.2407551 -0.40707 0.4159477
v -0.2407551 -0.40707 0.4159477
v -0.2407551 -0.40707 0.4159477
v -0.1120939 0.1013857 0.4159477
v -0.1120939 0.1013857 0.4159477
v -0.1120939 0.1013857 0.4159477
v -0.1120939 0.1013857 0.4159477
v -0.1120939 0.1013857 0.4159477
v -0.1120939 0.1013857 0.4159477
v -0.1711415 0.4743222 0.2381362
v -0.1711415 0.4743222 0.2381362
v -0.4895797 0.3081714 -0.08220834
v -0.4895797 0.3081714 -0.08220834
v -0.4895797 0.3081714 -0.08220834
v -0.4895797 0.3081714 -0.08220834
v -0.4895797 0.3081714 -0.08220834
vt -0.08901513 0.0512916
vt -0.1879565 0.2625934
vt -0.2188636 0.05129161
vt -0.567207 0.0512916
vt -0.3657059 0.2625934
vt -0.5624946 0.07862394
vt 0.5415429 0.4480578
vt 0.189404 0.05129158
vt 0.1635934 0.1450335
vt -0.02988955 0.1835733
vt -0.08510794 0.2625934
vt -0.117788 0.490802
vt -0.1027898 0.585528
vt 0.5433256 0.1360615
vt 0.56312 0.3434902
vt -0.08901513 0.0512916
vt 0.4252394 0.0512916
vt 0.4252394 0.0512916
vt -0.311862 0.2625934
vt -0.1879565 0.2625934
vt -0.1879565 0.2625934
vt 0.6332785 0.2531464
vt -0.362376 0.05129161
vt -0.362376 0.05129161
vt -0.362376 0.05129161
vt 0.6551945 0.2933981
vt 0.6551945 0.2933981
vt 0.2706134 0.05129157
vt 0.6918898 0.4566157
vt 0.6918898 0.4566157
vt -0.3657059 0.2625934
vt -0.20156 0.3657059
vt 0.6429247 0.2960514
vt 0.6429247 0.2960514
vt -0.5624946 0.07862394
vt 0.2670757 0.07862392
vt 0.2670757 0.07862392
vt -0.2670757 0.5624946
vt -0.2670757 0.5624946
vt 0.5415429 0.4480578
vt 0.5415429 0.4480578
vt 0.05858606 0.05129159
vt 0.5564673 0.0512916
vt 0.05858606 0.05129159
vt 0.6343048 0.4972791
vt 0.189404 0.05129158
vt 0.189404 0.05129158
vt 0.1635934 0.1450335
vt -0.1635934 0.6106706
vt -0.1635934 0.6106706
vt 0.1635934 0.1450335
vt 0.1635934 0.1450335
vt -0.02988955 0.1835733
vt 0.4128731 0.1835733
vt 0.4128731 0.1835733
vt 0.4128731 0.1835733
vt 0.5603493 0.2928227
vt 0.5603493 0.2928227
vt 0.3616539 0.2625934
vt 0.5835226 0.3957331
vt -0.117788 0.490802
vt -0.117788 0.490802
vt 0.490802 0.2625934
vt 0.490802 0.2625934
vt 0.490802 0.2625934
vt 0.1027899 0.2174292
vt 0.585528 0.2174292
vt 0.5433256 0.1360615
vt 0.02190638 0.1360615
vt 0.02190638 0.1360615
vt 0.5433256 0.1360615
vt 0.5433256 0.1360615
vn -0.4197293 -0.8669787 -0.2686545
vn -0.4197293 -0.8669787 -0.2686545
vn -0.4197293 -0.8669787 -0.2686545
vn 0.966193 -0.2441048 0.08296899
vn 0.9661931 -0.2441044 0.08296911
vn 0.966193 -0.2441048 0.08296912
vn 0 0 -1
vn 0.5201893 0.8278171 0.210052
vn 0.5201892 0.8278171 0.2100521
vn -0.4197291 -0.8669787 -0.2686547
vn -0.4197291 -0.8669787 -0.2686547
vn 0.620342 0.415419 0.665284
vn 0.6203419 0.415419 0.6652842
vn -0.8861725 -0.2054854 -0.4153
vn 0 0 -1
vn -0.4197293 -0.8669787 -0.2686545
vn -0.8861725 -0.2054854 -0.4153
vn -0.8861725 -0.2054854 -0.4152999
vn 0.9661931 -0.2441044 0.08296911
vn -0.4197291 -0.8669787 -0.2686547
vn -0.4197293 -0.8669787 -0.2686545
vn 0 0 1
vn 0.9661931 -0.2441044 0.08296911
vn 0.966193 -0.2441048 0.08296912
vn 0.966193 -0.2441048 0.08296899
vn 0 0 -1
vn 0 0 -1
vn 0.5201893 0.8278171 0.210052
vn 0 0 -1
vn 0 0 -1
vn 0.966193 -0.2441048 0.08296912
vn 0.620342 0.415419 0.665284
vn 0 0 1
vn 0 0 1
vn 0.966193 -0.2441048 0.08296899
vn 0.5201893 0.8278171 0.210052
vn 0.5201892 0.8278171 0.2100521
vn 0.620342 0.415419 0.665284
vn 0.6203423 0.4154187 0.665284
vn 0 0 -1
vn 0 0 -1
vn -0.4265572 0.9033641 -0.04452324
vn -0.8861725 -0.2054854 -0.4152999
vn -0.4265569 0.9033642 -0.0445236
vn 0 0 -1
vn 0.5201892 0.8278171 0.2100521
vn -0.4265572 0.9033641 -0.04452324
vn -0.4265572 0.9033641 -0.04452324
vn 0.6203423 0.4154187 0.665284
vn 0.6203419 0.415419 0.6652842
vn -0.4265569 0.9033642 -0.0445236
vn -0.426557 0.9033642 -0.04452283
vn -0.4197293 -0.8669787 -0.2686545
vn -0.8861725 -0.2054854 -0.4153
vn -0.7436097 0.1881654 0.6415905
vn -0.7436097 0.1881656 0.6415904
vn 0 0 1
vn 0 0 1
vn -0.7436097 0.1881654 0.6415905
vn 0 0 1
vn 0.6203423 0.4154187 0.665284
vn 0.6203419 0.415419 0.6652842
vn -0.7436097 0.1881654 0.6415905
vn -0.7436097 0.1881656 0.6415904
vn -0.7436098 0.1881654 0.6415904
vn -0.426557 0.9033642 -0.04452283
vn -0.7436098 0.1881654 0.6415904
vn -0.8861725 -0.2054854 -0.4152999
vn -0.4265569 0.9033642 -0.0445236
vn -0.426557 0.9033642 -0.04452283
vn -0.7436097 0.1881656 0.6415904
vn -0.7436098 0.1881654 0.6415904
g wall__sh_16_0
f 26/26/26 15/15/15 7/7/7
f 29/29/29 27/27/27 40/40/40
f 45/45/45 30/30/30 41/41/41
f 33/33/33 60/60/60 57/57/57
f 58/58/58 22/22/22 34/34/34
f 2/2/2 1/1/1 3/3/3
f 5/5/5 19/19/19 23/23/23
f 6/6/6 31/31/31 24/24/24
f 25/25/25 4/4/4 35/35/35
f 36/36/36 28/28/28 8/8/8
f 9/9/9 37/37/37 46/46/46
f 48/48/48 47/47/47 42/42/42
f 10/10/10 20/20/20 11/11/11
f 16/16/16 21/21/21 53/53/53
f 12/12/12 32/32/32 38/38/38
f 17/17/17 54/54/54 14/14/14
f 68/68/68 43/43/43 18/18/18
f 61/61/61 39/39/39 49/49/49
f 50/50/50 13/13/13 62/62/62
f 51/51/51 44/44/44 69/69/69
f 66/66/66 52/52/52 70/70/70
f 55/55/55 59/59/59 63/63/63
f 71/71/71 56/56/56 64/64/64
f 65/65/65 67/67/67 72/72/72
