g wall__sh_18
v -0.1691508 0.4351292 -0.06836379
v 0.3578819 0.4351292 0.1416928
v 0.5054578 0.324863 0.1416928
v -0.2467864 0.4351292 -0.09930658
v -0.4110934 0.4351292 -0.03211296
v 0.2996413 -0.05261135 -0.1416928
v 0.2353787 -0.3633761 0.1416928
v 0.2200008 -0.3248911 -0.008038402
v -0.04605699 -0.4351287 0.1416928
v -0.5054578 0.4351292 0.1416928
v -0.491824 0.4351292 0.0009019971
v -0.4570948 0.01764488 0.1416928
v -0.1691508 0.4351292 -0.06836379
v -0.1691508 0.4351292 -0.06836379
v -0.1691508 0.4351292 -0.06836379
v -0.1691508 0.4351292 -0.06836379
v 0.3578819 0.4351292 0.1416928
v 0.3578819 0.4351292 0.1416928
v 0.3578819 0.4351292 0.1416928
v 0.3578819 0.4351292 0.1416928
v 0.3578819 0.4351292 0.1416928
v 0.3578819 0.4351292 0.1416928
v 0.5054578 0.324863 0.1416928
v 0.5054578 0.324863 0.1416928
v 0.5054578 0.324863 0.1416928
v -0.2467864 0.4351292 -0.09930658
v -0.2467864 0.4351292 -0.09930658
v -0.4110934 0.4351292 -0.03211296
v -0.4110934 0.4351292 -0.03211296
v -0.4110934 0.4351292 -0.03211296
v -0.4110934 0.4351292 -0.03211296
v -0.4110934 0.4351292 -0.03211296
v 0.2996413 -0.05261135 -0.1416928
v 0.2996413 -0.05261135 -0.1416928
v 0.2996413 -0.05261135 -0.1416928
v 0.2996413 -0.05261135 -0.1416928
v 0.2996413 -0.05261135 -0.1416928
v 0.2996413 -0.05261135 -0.1416928
v 0.2353787 -0.3633761 0.1416928
v 0.2353787 -0.3633761 0.1416928
v 0.2353787 -0.3633761 0.1416928
v 0.2200008 -0.3248911 -0.008038402
v 0.2200008 -0.3248911 -0.008038402
v 0.2200008 -0.3248911 -0.008038402
v -0.04605699 -0.4351287 0.1416928
v -0.04605699 -0.4351287 0.1416928
v -0.04605699 -0.4351287 0.1416928
v -0.04605699 -0.4351287 0.1416928
v -0.04605699 -0.4351287 0.1416928
v -0.04605699 -0.4351287 0.1416928
v -0.5054578 0.4351292 0.1416928
v -0.5054578 0.4351292 0.1416928
v -0.5054578 0.4351292 0.1416928
v -0.5054578 0.4351292 0.1416928
v -0.491824 0.4351292 0.0009019971
v -0.491824 0.4351292 0.0009019971
v -0.491824 0.4351292 0.0009019971
v -0.4570948 0.01764488 0.1416928
v -0.4570948 0.01764488 0.1416928
v -0.4570948 0.01764488 0.1416928
vt 0.9737848 0.09621286
vt -0.215166 1.249131
vt -0.1776816 1.221123
vt 0.9721806 0.09218819
vt 0.9756643 0.08366945
vt -0.2299591 1.125244
vt -1.04631 0.2625934
vt -1.056085 0.2245616
vt 0.2746742 0.8238618
vt 0.9846752 0.07877715
vt -0.4309917 1.249131
vt -0.4221705 1.14309
vt -0.3490326 1.249131
vt -0.3490326 1.249131
vt 0.9737848 0.09621292
vt 0.9737848 0.09621292
vt -0.215166 1.249131
vt 0.3474274 1
vt 0.3474274 1
vt 0.9846752 0.1235369
vt 0.3474274 1
vt 0.3474274 1
vt -1.221123 0.2625934
vt -1.221123 0.2625934
vt 0.3740073 0.9776825
vt -0.368752 1.249131
vt -0.368752 1.249131
vt -0.4104861 1.249131
vt -0.4104861 1.249131
vt -0.4104861 1.249131
vt 0.9756643 0.08366941
vt 0.9756643 0.08366941
vt -0.2299591 1.125244
vt -0.2299591 1.125244
vt -0.2299591 1.125244
vt -1.125244 0.1906133
vt -0.2299591 1.125244
vt -0.2299591 1.125244
vt 0.3253635 0.8383843
vt 0.3253635 0.8383843
vt 0.2462819 0.2625934
vt -1.056085 0.2245616
vt -0.2501878 1.056085
vt 0.2501879 0.2245616
vt -0.3177666 1.028085
vt -0.3177666 1.028085
vt 0.3177667 0.2625934
vt -0.3177666 1.028085
vt -0.3177666 1.028085
vt 0.2746742 0.8238618
vt 0.1919314 1
vt 0.9846752 0.07877715
vt 0.9846752 0.07877715
vt 1.249131 0.2625934
vt -0.4309917 1.249131
vt 0.9773759 0.07948398
vt 1.249131 0.2268324
vt 0.2006421 0.9155021
vt 0.2006421 0.9155021
vt 1.14309 0.2625934
vn 0 1 0
vn 0.3317472 0.4439973 -0.8323522
vn 0.3317472 0.4439973 -0.8323522
vn 0 1 0
vn 0 1 0
vn 0.3317472 0.4439973 -0.8323522
vn 0.914613 -0.3589128 -0.1861846
vn 0.914613 -0.3589128 -0.1861846
vn 0 0 1
vn 0 1 0
vn -0.357977 -0.3249794 -0.8753519
vn -0.357977 -0.3249794 -0.8753519
vn 0.3317462 0.4439976 -0.8323525
vn 0.3317463 0.4439976 -0.8323525
vn 0 1 0
vn 0 1 0
vn 0.3317462 0.4439976 -0.8323525
vn 0 0 1
vn 0 0 1
vn 0 1 0
vn 0 0 1
vn 0 0 1
vn 0.914613 -0.3589128 -0.1861846
vn 0.9146129 -0.3589127 -0.1861851
vn 0 0 1
vn 0.3317463 0.4439976 -0.8323525
vn -0.3579768 -0.3249792 -0.875352
vn -0.3579768 -0.3249792 -0.875352
vn -0.3579768 -0.3249793 -0.875352
vn -0.3579767 -0.3249792 -0.875352
vn 0 1 0
vn 0 1 0
vn 0.3317462 0.4439976 -0.8323525
vn 0.3317463 0.4439976 -0.8323525
vn -0.3579768 -0.3249792 -0.875352
vn 0.9146129 -0.3589127 -0.1861851
vn -0.3579768 -0.3249793 -0.875352
vn -0.3579772 -0.324979 -0.875352
vn 0 0 1
vn 0 0 1
vn 0.2382406 -0.9344531 -0.2646484
vn 0.9146129 -0.3589127 -0.1861851
vn -0.3579772 -0.324979 -0.875352
vn 0.2382406 -0.9344531 -0.2646484
vn -0.3579768 -0.3249793 -0.875352
vn -0.3579772 -0.324979 -0.875352
vn 0.2382406 -0.9344531 -0.2646484
vn -0.357977 -0.3249794 -0.8753519
vn -0.3579767 -0.3249792 -0.875352
vn 0 0 1
vn 0 0 1
vn 0 1 0
vn 0 1 0
vn -0.9887927 -0.1145455 -0.09575149
vn -0.3579767 -0.3249792 -0.875352
vn 0 1 0
vn -0.9887927 -0.1145455 -0.09575149
vn 0 0 1
vn 0 0 1
vn -0.9887927 -0.1145455 -0.09575149
g wall__sh_18_0
f 1/1/1 4/4/4 5/5/5
f 18/18/18 9/9/9 39/39/39
f 40/40/40 25/25/25 19/19/19
f 10/10/10 20/20/20 15/15/15
f 58/58/58 21/21/21 51/51/51
f 50/50/50 22/22/22 59/59/59
f 52/52/52 16/16/16 31/31/31
f 32/32/32 56/56/56 53/53/53
f 2/2/2 3/3/3 6/6/6
f 13/13/13 17/17/17 33/33/33
f 26/26/26 14/14/14 34/34/34
f 28/28/28 27/27/27 35/35/35
f 8/8/8 23/23/23 7/7/7
f 36/36/36 24/24/24 42/42/42
f 45/45/45 29/29/29 37/37/37
f 38/38/38 43/43/43 46/46/46
f 41/41/41 47/47/47 44/44/44
f 11/11/11 48/48/48 12/12/12
f 30/30/30 49/49/49 55/55/55
f 57/57/57 60/60/60 54/54/54
