g wall__sh_42
v -0.1918108 -0.4648619 -0.2702972
v -0.1973762 -0.4632843 -0.2699311
v -0.2010546 -0.4586294 -0.2702972
v -0.1947691 -0.4634895 -0.2669521
v 0.4438086 -0.270807 -0.2702972
v 0.1837443 0.4594541 -0.2702972
v 0.4456586 -0.09273148 -0.00933674
v 0.1876456 0.4536648 -0.2629415
v -0.4456585 -0.1214099 -0.2702972
v -0.05264533 -0.06411314 0.2563873
v 0.1040326 0.08233547 0.2258772
v 0.1354666 0.002779961 0.2702972
v -0.2372587 0.06963921 0.1502252
v -0.2059671 0.1891952 0.1022338
v -0.3322064 0.1697855 -0.2702972
v -0.2997769 0.2294931 -0.2702972
v 0.04529619 0.4648619 -0.2702972
v -0.2071136 0.2338328 0.04404324
v -0.3068157 0.2216434 -0.2540166
v -0.1918108 -0.4648619 -0.2702972
v -0.1918108 -0.4648619 -0.2702972
v -0.1918108 -0.4648619 -0.2702972
v -0.1918108 -0.4648619 -0.2702972
v -0.1918108 -0.4648619 -0.2702972
v -0.1918108 -0.4648619 -0.2702972
v -0.1973762 -0.4632843 -0.2699311
v -0.1973762 -0.4632843 -0.2699311
v -0.2010546 -0.4586294 -0.2702972
v -0.2010546 -0.4586294 -0.2702972
v -0.2010546 -0.4586294 -0.2702972
v -0.2010546 -0.4586294 -0.2702972
v -0.1947691 -0.4634895 -0.2669521
v -0.1947691 -0.4634895 -0.2669521
v -0.1947691 -0.4634895 -0.2669521
v 0.4438086 -0.270807 -0.2702972
v 0.4438086 -0.270807 -0.2702972
v 0.4438086 -0.270807 -0.2702972
v 0.4438086 -0.270807 -0.2702972
v 0.1837443 0.4594541 -0.2702972
v 0.1837443 0.4594541 -0.2702972
v 0.1837443 0.4594541 -0.2702972
v 0.1837443 0.4594541 -0.2702972
v 0.1837443 0.4594541 -0.2702972
v 0.4456586 -0.09273148 -0.00933674
v 0.4456586 -0.09273148 -0.00933674
v 0.4456586 -0.09273148 -0.00933674
v 0.4456586 -0.09273148 -0.00933674
v 0.1876456 0.4536648 -0.2629415
v 0.1876456 0.4536648 -0.2629415
v 0.1876456 0.4536648 -0.2629415
v 0.1876456 0.4536648 -0.2629415
v 0.1876456 0.4536648 -0.2629415
v 0.1876456 0.4536648 -0.2629415
v -0.4456585 -0.1214099 -0.2702972
v -0.4456585 -0.1214099 -0.2702972
v -0.4456585 -0.1214099 -0.2702972
v -0.4456585 -0.1214099 -0.2702972
v -0.4456585 -0.1214099 -0.2702972
v -0.4456585 -0.1214099 -0.2702972
v -0.05264533 -0.06411314 0.2563873
v -0.05264533 -0.06411314 0.2563873
v -0.05264533 -0.06411314 0.2563873
v -0.05264533 -0.06411314 0.2563873
v -0.05264533 -0.06411314 0.2563873
v -0.05264533 -0.06411314 0.2563873
v -0.05264533 -0.06411314 0.2563873
v -0.05264533 -0.06411314 0.2563873
v 0.1040326 0.08233547 0.2258772
v 0.1040326 0.08233547 0.2258772
v 0.1040326 0.08233547 0.2258772
v 0.1040326 0.08233547 0.2258772
v 0.1040326 0.08233547 0.2258772
v 0.1354666 0.002779961 0.2702972
v 0.1354666 0.002779961 0.2702972
v -0.2372587 0.06963921 0.1502252
v -0.2372587 0.06963921 0.1502252
v -0.2372587 0.06963921 0.1502252
v -0.2059671 0.1891952 0.1022338
v -0.2059671 0.1891952 0.1022338
v -0.2059671 0.1891952 0.1022338
v -0.2059671 0.1891952 0.1022338
v -0.2059671 0.1891952 0.1022338
v -0.3322064 0.1697855 -0.2702972
v -0.3322064 0.1697855 -0.2702972
v -0.3322064 0.1697855 -0.2702972
v -0.3322064 0.1697855 -0.2702972
v -0.3322064 0.1697855 -0.2702972
v -0.3322064 0.1697855 -0.2702972
v -0.2997769 0.2294931 -0.2702972
v -0.2997769 0.2294931 -0.2702972
v -0.2997769 0.2294931 -0.2702972
v 0.04529619 0.4648619 -0.2702972
v 0.04529619 0.4648619 -0.2702972
v 0.04529619 0.4648619 -0.2702972
v 0.04529619 0.4648619 -0.2702972
v -0.2071136 0.2338328 0.04404324
v -0.2071136 0.2338328 0.04404324
v -0.2071136 0.2338328 0.04404324
v -0.2071136 0.2338328 0.04404324
v -0.2071136 0.2338328 0.04404324
v -0.3068157 0.2216434 -0.2540166
v -0.3068157 0.2216434 -0.2540166
vt 0.3468951 0.7371701
vt 0.3458927 0.7374895
vt 0.3452302 0.7384317
vt 0.2166682 0.05214125
vt -0.9685807 0.05129158
vt -1.154067 0.05129157
vt -1.013812 0.1175757
vt -1.152597 0.05315992
vt 0.3011746 0.8066841
vt 0.1805687 0.1850697
vt -1.058279 0.1773201
vt -1.038072 0.1886028
vt 1.055054 0.1581045
vt 1.085422 0.1459147
vt 1.080491 0.05129157
vt 1.095657 0.05129157
vt -0.1556915 0.05129158
vt 1.09676 0.1311342
vt 1.093663 0.05542687
vt 0.2159168 0.05129158
vt 0.3468951 0.7371701
vt 0.3468951 0.7371701
vt 0.3468951 0.7371701
vt 0.2159168 0.05129158
vt 0.2159168 0.05129158
vt 0.2173304 0.05138458
vt 0.9196914 0.05138458
vt 0.9208738 0.05129158
vt 0.3452302 0.7384317
vt 0.9208738 0.05129158
vt 0.9208738 0.05129158
vt 0.9196393 0.05214125
vt 0.2166682 0.05214125
vt 0.9196393 0.05214125
vt -0.9685807 0.05129158
vt 0.4613763 0.7764465
vt 0.05446911 0.05129158
vt 0.05446911 0.05129158
vt 0.4145362 0.9242498
vt 0.4145362 0.9242498
vt -0.1205256 0.05129158
vt 0.4145362 0.9242498
vt 0.4145362 0.9242498
vt -1.013812 0.1175757
vt -1.013812 0.1175757
vt 0.05399922 0.1175757
vt 0.05399922 0.1175757
vt -1.152597 0.05315992
vt -1.152597 0.05315992
vt -0.1195346 0.05315993
vt -0.1195346 0.05315993
vt -0.1195346 0.05315993
vt -0.1195346 0.05315993
vt 0.3011746 0.8066841
vt 1.006528 0.05129158
vt 1.006528 0.05129158
vt 1.006528 0.05129158
vt 1.006528 0.05129158
vt 0.3011746 0.8066841
vt 1.021081 0.1850697
vt 0.1805687 0.1850697
vt 0.1805687 0.1850697
vt 0.1805687 0.1850697
vt 1.021081 0.1850697
vt 1.021081 0.1850697
vt 0.1805687 1.021081
vt 0.1805687 1.021081
vt -1.058279 0.1773201
vt -0.1407724 0.1773202
vt 0.1407724 1.058279
vt 0.1407724 1.058279
vt 0.1407724 1.058279
vt 0.1327881 0.1886028
vt 0.1327881 1.038072
vt 1.055054 0.1581045
vt 0.2274605 1.055054
vt 0.2274605 1.055054
vt -0.2195125 0.1459147
vt 0.2195125 1.085422
vt 1.085422 0.1459147
vt 1.085422 0.1459147
vt -0.2195125 0.1459147
vt 1.080491 0.05129157
vt 1.080491 0.05129157
vt 1.080491 0.05129157
vt 0.3216085 0.8656213
vt 0.3216085 0.8656213
vt 0.3216085 0.8656213
vt 0.3274493 0.8777061
vt -0.2433402 0.0512916
vt -0.2433402 0.0512916
vt 0.3896004 0.9253442
vt 0.3896004 0.9253442
vt -0.1556915 0.05129158
vt -0.1556915 0.05129158
vt 1.09676 0.1311342
vt -0.2198037 0.1311342
vt -0.2198037 0.1311342
vt -0.2198037 0.1311342
vt -0.2198037 0.1311342
vt 1.093663 0.05542687
vt -0.2451281 0.05542689
vn 0 0 -1
vn 0 0 -1
vn 0 0 -1
vn -0.2593124 -0.9522253 0.1613197
vn 0.9169386 0.3265449 -0.2293295
vn 0.9169386 0.3265449 -0.2293296
vn 0.9169386 0.3265449 -0.2293295
vn 0.9169386 0.3265449 -0.2293295
vn 0 0 -1
vn 0.2447371 -0.8016946 0.5453343
vn 0.6461067 0.5504852 0.5286892
vn 0.6461067 0.5504852 0.5286892
vn -0.8932555 0.3480205 0.2845634
vn -0.8932555 0.3480205 0.2845634
vn -0.8932556 0.3480196 0.2845643
vn -0.8690527 0.4720168 -0.1481471
vn 0.03098857 0.7933539 0.6079715
vn -0.8932559 0.3480185 0.2845648
vn -0.8932559 0.3480185 0.2845648
vn -0.2593124 -0.9522253 0.1613197
vn 0 0 -1
vn 0 0 -1
vn 0 0 -1
vn 0.2447371 -0.8016946 0.5453343
vn 0.2447572 -0.801693 0.5453278
vn -0.2593124 -0.9522253 0.1613197
vn -0.6731305 -0.4882385 0.5554445
vn -0.6731305 -0.4882385 0.5554445
vn 0 0 -1
vn -0.6731347 -0.4882655 0.5554156
vn -0.6731375 -0.4882637 0.5554138
vn -0.6731305 -0.4882385 0.5554445
vn 0.2447371 -0.8016946 0.5453343
vn -0.6731347 -0.4882655 0.5554156
vn 0.9169386 0.3265449 -0.2293296
vn 0 0 -1
vn 0.2447572 -0.801693 0.5453278
vn 0.2447576 -0.8016925 0.545328
vn 0 0 -1
vn 0 0 -1
vn 0.03098857 0.7933539 0.6079715
vn 0 0 -1
vn 0 0 -1
vn 0.6461067 0.5504852 0.5286892
vn 0.6461068 0.5504839 0.5286903
vn 0.2447576 -0.8016925 0.545328
vn 0.2447589 -0.8016908 0.5453302
vn 0.9169386 0.3265449 -0.2293296
vn 0.6461068 0.5504839 0.5286903
vn 0.03098785 0.7933552 0.6079698
vn 0.03098619 0.7933562 0.6079686
vn 0.03098857 0.7933539 0.6079715
vn 0.03098866 0.7933546 0.6079707
vn 0 0 -1
vn -0.8932555 0.3480205 0.2845634
vn -0.6731375 -0.4882637 0.5554138
vn -0.673138 -0.4882629 0.555414
vn -0.8932556 0.3480196 0.2845643
vn 0 0 -1
vn -0.6731347 -0.4882655 0.5554156
vn 0.2447572 -0.801693 0.5453278
vn 0.2447576 -0.8016925 0.545328
vn 0.2447589 -0.8016908 0.5453302
vn -0.6731375 -0.4882637 0.5554138
vn -0.673138 -0.4882629 0.555414
vn -0.211816 0.4113074 0.886544
vn -0.211818 0.4113093 0.8865426
vn 0.6461068 0.5504839 0.5286903
vn 0.03098785 0.7933552 0.6079698
vn -0.2118159 0.411309 0.8865433
vn -0.211816 0.4113074 0.886544
vn -0.211818 0.4113093 0.8865426
vn 0.2447589 -0.8016908 0.5453302
vn -0.211818 0.4113093 0.8865426
vn -0.673138 -0.4882629 0.555414
vn -0.2118159 0.411309 0.8865433
vn -0.211816 0.4113074 0.886544
vn 0.03098785 0.7933552 0.6079698
vn -0.2118159 0.411309 0.8865433
vn -0.8932556 0.3480196 0.2845643
vn -0.8932552 0.3480207 0.2845641
vn 0.03098619 0.7933562 0.6079686
vn -0.8932559 0.3480185 0.2845648
vn -0.8932552 0.3480207 0.2845641
vn -0.8690527 0.4720168 -0.1481471
vn 0 0 -1
vn 0 0 -1
vn 0 0 -1
vn 0 0 -1
vn -0.5568624 0.8164134 0.1528841
vn -0.5568554 0.8164185 0.1528821
vn 0 0 -1
vn 0 0 -1
vn 0.03098866 0.7933546 0.6079707
vn -0.5568624 0.8164134 0.1528841
vn -0.8932552 0.3480207 0.2845641
vn 0.03098619 0.7933562 0.6079686
vn 0.03098866 0.7933546 0.6079707
vn -0.5568624 0.8164134 0.1528841
vn -0.5568554 0.8164185 0.1528821
vn -0.8690527 0.4720168 -0.1481471
vn -0.5568554 0.8164185 0.1528821
g wall__sh_42_0
f 3/3/3 1/1/1 2/2/2
f 21/21/21 29/29/29 9/9/9
f 39/39/39 36/36/36 22/22/22
f 40/40/40 23/23/23 54/54/54
f 42/42/42 59/59/59 86/86/86
f 92/92/92 43/43/43 87/87/87
f 88/88/88 89/89/89 93/93/93
f 26/26/26 20/20/20 4/4/4
f 28/28/28 27/27/27 32/32/32
f 7/7/7 5/5/5 8/8/8
f 35/35/35 6/6/6 48/48/48
f 10/10/10 33/33/33 24/24/24
f 30/30/30 34/34/34 60/60/60
f 12/12/12 44/44/44 11/11/11
f 45/45/45 49/49/49 68/68/68
f 13/13/13 14/14/14 55/55/55
f 61/61/61 25/25/25 37/37/37
f 62/62/62 38/38/38 46/46/46
f 63/63/63 47/47/47 73/73/73
f 56/56/56 31/31/31 64/64/64
f 65/65/65 75/75/75 57/57/57
f 78/78/78 69/69/69 50/50/50
f 70/70/70 79/79/79 76/76/76
f 71/71/71 77/77/77 66/66/66
f 67/67/67 74/74/74 72/72/72
f 58/58/58 80/80/80 15/15/15
f 19/19/19 83/83/83 18/18/18
f 84/84/84 81/81/81 96/96/96
f 97/97/97 82/82/82 51/51/51
f 52/52/52 41/41/41 17/17/17
f 101/101/101 16/16/16 85/85/85
f 98/98/98 53/53/53 94/94/94
f 99/99/99 95/95/95 90/90/90
f 91/91/91 102/102/102 100/100/100
