g wall__sh_36
v -0.4915313 -0.2378538 0.1997142
v 0.5894878 0.233171 -0.2484294
v -0.2728342 -0.1059492 0.2484294
v 0.3581393 0.01653641 0.01550844
v -0.5745093 -0.5848077 -0.2484294
v -0.5830692 -0.5593344 -0.206002
v -0.5894876 -0.5568571 -0.2484294
v 0.5894878 0.1997069 -0.2290715
v 0.5894878 0.1973864 -0.2484294
v 0.3975282 0.01752561 -0.008665264
v 0.1827071 -0.2446582 -0.2484294
v -0.2487144 0.08264023 0.2111248
v -0.4842616 -0.09819502 0.1681625
v -0.1083813 0.3026157 0.1295576
v -0.5137527 0.3098529 -0.2484294
v -0.2269696 0.5848077 -0.2484294
v -0.04525018 0.5567058 -0.05525213
v 0.2979465 0.5351594 -0.2484294
v 0.2608914 0.5539256 -0.2370818
v 0.2659075 0.5546151 -0.2484294
v -0.4915313 -0.2378538 0.1997142
v -0.4915313 -0.2378538 0.1997142
v -0.4915313 -0.2378538 0.1997142
v -0.4915313 -0.2378538 0.1997142
v 0.5894878 0.233171 -0.2484294
v 0.5894878 0.233171 -0.2484294
v 0.5894878 0.233171 -0.2484294
v 0.5894878 0.233171 -0.2484294
v 0.5894878 0.233171 -0.2484294
v 0.5894878 0.233171 -0.2484294
v -0.2728342 -0.1059492 0.2484294
v -0.2728342 -0.1059492 0.2484294
v -0.2728342 -0.1059492 0.2484294
v -0.2728342 -0.1059492 0.2484294
v -0.2728342 -0.1059492 0.2484294
v 0.3581393 0.01653641 0.01550844
v 0.3581393 0.01653641 0.01550844
v 0.3581393 0.01653641 0.01550844
v 0.3581393 0.01653641 0.01550844
v 0.3581393 0.01653641 0.01550844
v -0.5745093 -0.5848077 -0.2484294
v -0.5745093 -0.5848077 -0.2484294
v -0.5745093 -0.5848077 -0.2484294
v -0.5830692 -0.5593344 -0.206002
v -0.5830692 -0.5593344 -0.206002
v -0.5830692 -0.5593344 -0.206002
v -0.5894876 -0.5568571 -0.2484294
v -0.5894876 -0.5568571 -0.2484294
v -0.5894876 -0.5568571 -0.2484294
v -0.5894876 -0.5568571 -0.2484294
v -0.5894876 -0.5568571 -0.2484294
v -0.5894876 -0.5568571 -0.2484294
v -0.5894876 -0.5568571 -0.2484294
v 0.5894878 0.1997069 -0.2290715
v 0.5894878 0.1997069 -0.2290715
v 0.5894878 0.1997069 -0.2290715
v 0.5894878 0.1973864 -0.2484294
v 0.5894878 0.1973864 -0.2484294
v 0.5894878 0.1973864 -0.2484294
v 0.5894878 0.1973864 -0.2484294
v 0.3975282 0.01752561 -0.008665264
v 0.3975282 0.01752561 -0.008665264
v 0.3975282 0.01752561 -0.008665264
v 0.1827071 -0.2446582 -0.2484294
v 0.1827071 -0.2446582 -0.2484294
v 0.1827071 -0.2446582 -0.2484294
v 0.1827071 -0.2446582 -0.2484294
v 0.1827071 -0.2446582 -0.2484294
v 0.1827071 -0.2446582 -0.2484294
v -0.2487144 0.08264023 0.2111248
v -0.2487144 0.08264023 0.2111248
v -0.4842616 -0.09819502 0.1681625
v -0.4842616 -0.09819502 0.1681625
v -0.4842616 -0.09819502 0.1681625
v -0.4842616 -0.09819502 0.1681625
v -0.4842616 -0.09819502 0.1681625
v -0.4842616 -0.09819502 0.1681625
v -0.1083813 0.3026157 0.1295576
v -0.1083813 0.3026157 0.1295576
v -0.1083813 0.3026157 0.1295576
v -0.1083813 0.3026157 0.1295576
v -0.1083813 0.3026157 0.1295576
v -0.1083813 0.3026157 0.1295576
v -0.1083813 0.3026157 0.1295576
v -0.5137527 0.3098529 -0.2484294
v -0.5137527 0.3098529 -0.2484294
v -0.5137527 0.3098529 -0.2484294
v -0.5137527 0.3098529 -0.2484294
v -0.5137527 0.3098529 -0.2484294
v -0.2269696 0.5848077 -0.2484294
v -0.2269696 0.5848077 -0.2484294
v -0.2269696 0.5848077 -0.2484294
v -0.04525018 0.5567058 -0.05525213
v -0.04525018 0.5567058 -0.05525213
v -0.04525018 0.5567058 -0.05525213
v -0.04525018 0.5567058 -0.05525213
v -0.04525018 0.5567058 -0.05525213
v 0.2979465 0.5351594 -0.2484294
v 0.2979465 0.5351594 -0.2484294
v 0.2979465 0.5351594 -0.2484294
v 0.2979465 0.5351594 -0.2484294
v 0.2979465 0.5351594 -0.2484294
v 0.2608914 0.5539256 -0.2370818
v 0.2608914 0.5539256 -0.2370818
v 0.2659075 0.5546151 -0.2484294
v 0.2659075 0.5546151 -0.2484294
v 0.2659075 0.5546151 -0.2484294
v 0.2659075 0.5546151 -0.2484294
vt -0.4305474 0.1651203
vt 0.9914867 0.4023781
vt -0.4860966 0.177494
vt -0.6463642 0.1962596
vt -0.409471 0.05129162
vt -0.4072967 0.0620682
vt 0.05061743 0.05129162
vt 0.9902824 0.4002963
vt 0.9914867 0.4001519
vt -0.656369 0.1965109
vt 0.9267349 0.1081646
vt -0.492223 0.2130501
vt -0.4323939 0.1671178
vt -0.5278677 0.2689239
vt 0.2707622 0.05129161
vt -0.4977462 0.3406008
vt -0.5439031 0.333463
vt 0.9474906 0.2659981
vt -0.6216632 0.3327568
vt 0.94172 0.2699359
vt -0.4305474 0.1651203
vt -0.4305474 0.1651203
vt -0.4305474 0.1316444
vt 0.1316444 0.1651203
vt -0.7051268 0.251285
vt 1 0.2048762
vt -0.7051268 0.251285
vt -0.7051268 0.251285
vt 1 0.2048762
vt -0.7051268 0.251285
vt -0.4860966 0.177494
vt -0.4860966 0.1651482
vt -0.4860966 0.1651482
vt -0.4860966 0.1651482
vt -0.4860966 0.1651482
vt -0.6463642 0.1962596
vt -0.6463642 0.118332
vt -0.6463642 0.118332
vt -0.6463642 0.1962596
vt -0.6463642 0.1962596
vt 0.04351795 0.05129162
vt 0.7903528 0.03931908
vt -0.409471 0.05129162
vt 0.04998818 0.0620682
vt 0.04998818 0.0620682
vt 0.04998818 0.0620682
vt 0.7876549 0.04497624
vt 0.7876549 0.04497624
vt 0.7876549 0.04497624
vt 0.05061743 0.05129162
vt 0.05061743 0.05129162
vt 0.7876549 0.04497624
vt 0.7876549 0.04497624
vt -0.7051268 0.2427851
vt -0.7051268 0.2427851
vt -0.242785 0.05620851
vt 1 0.1976334
vt 1 0.1976334
vt -0.2421956 0.05129161
vt -0.2421956 0.05129161
vt -0.656369 0.1121918
vt -0.1965109 0.1121918
vt -0.1965109 0.1121918
vt -0.6018043 0.05129161
vt -0.6018043 0.05129161
vt -0.6018043 0.05129161
vt -0.6018043 0.05129161
vt 0.9267349 0.1081646
vt -0.1299161 0.05129161
vt -0.492223 0.2130501
vt -0.492223 0.2130501
vt 0.1671178 0.1571062
vt -0.4323939 0.1671178
vt 0.1671178 0.1571062
vt 0.1671178 0.1571062
vt -0.4323939 0.1671178
vt -0.4323939 0.1671178
vt -0.5278677 0.2689239
vt -0.5278677 0.2689239
vt -0.5278677 0.2689239
vt -0.5278677 0.2689239
vt -0.5278677 0.2689239
vt -0.5278677 0.2689239
vt -0.5278677 0.2689239
vt -0.4249032 0.2707622
vt -0.4249032 0.2707622
vt 0.8012957 0.2203965
vt 0.8012957 0.2203965
vt 0.8012957 0.2203965
vt -0.4977462 0.3406008
vt 0.8529482 0.2760468
vt 0.4977462 0.05129156
vt -0.5439031 0.333463
vt -0.5439031 0.333463
vt -0.5439031 0.333463
vt 0.5439031 0.1003587
vt 0.5439031 0.1003587
vt -0.6310751 0.3279901
vt -0.6310751 0.3279901
vt 0.9474906 0.2659981
vt 0.9474906 0.2659981
vt 0.6310751 0.05129155
vt 0.6216632 0.05417384
vt 0.6216632 0.05417384
vt 0.6229373 0.05129155
vt 0.6229373 0.05129155
vt 0.94172 0.2699359
vt 0.6229373 0.05129155
vn 0.3466443 -0.7716757 0.5332488
vn 1 0 0
vn 0.346645 -0.7716753 0.533249
vn 0.4604191 0.4444938 0.7684006
vn 0.3466443 -0.7716757 0.5332488
vn 0.3466443 -0.7716757 0.5332488
vn -0.8765293 -0.4697181 0.105173
vn 1 0 0
vn 1 0 0
vn 0.4604191 0.4444938 0.7684006
vn 0 0 -1
vn 0.3178136 0.1447086 0.9370453
vn -0.3387065 0.2240803 0.9138195
vn 0.3178136 0.1447086 0.9370453
vn -0.9843308 0.0860128 0.1539308
vn -0.5520513 0.5757996 0.6030707
vn 0.4604203 0.4444924 0.7684007
vn 0 0 -1
vn 0.4604204 0.444492 0.7684009
vn 0 0 -1
vn 0.3466448 -0.7716756 0.5332487
vn 0.346645 -0.7716753 0.533249
vn -0.3387065 0.2240803 0.9138195
vn -0.9843308 0.08601303 0.1539305
vn 0.4604201 0.4444926 0.7684007
vn 0 0 -1
vn 0.4604203 0.4444924 0.7684007
vn 0.4604203 0.4444924 0.7684007
vn 0 0 -1
vn 0.4604203 0.4444925 0.7684007
vn 0.3466452 -0.7716751 0.5332491
vn -0.3387065 0.2240803 0.9138195
vn 0.3178136 0.1447086 0.9370453
vn 0.3178149 0.144708 0.937045
vn -0.3387064 0.2240802 0.9138195
vn 0.4604201 0.4444926 0.7684007
vn 0.3466452 -0.7716751 0.5332491
vn 0.3466448 -0.7716751 0.5332495
vn 0.3178149 0.144708 0.937045
vn 0.4604203 0.4444924 0.7684007
vn -0.8765293 -0.4697181 0.105173
vn 0 0 -1
vn 0.3466448 -0.7716756 0.5332487
vn -0.8765293 -0.4697181 0.105173
vn -0.9843308 0.08601303 0.1539305
vn -0.9843308 0.08601315 0.1539303
vn 0 0 -1
vn 0 0 -1
vn 0 0 -1
vn -0.9843308 0.08601315 0.1539303
vn -0.9843308 0.0860128 0.1539308
vn 0 0 -1
vn 0 0 -1
vn 0.4604191 0.4444938 0.7684006
vn 0.4604201 0.4444926 0.7684007
vn 0.7334394 -0.6749228 0.08090678
vn 0 0 -1
vn 0 0 -1
vn 0.7334363 -0.6749268 0.08090154
vn 0.7334394 -0.6749228 0.08090678
vn 0.3466448 -0.7716751 0.5332495
vn 0.7334363 -0.6749268 0.08090154
vn 0.7334394 -0.6749228 0.08090678
vn 0.3466448 -0.7716756 0.5332487
vn 0.346645 -0.7716753 0.533249
vn 0.3466452 -0.7716751 0.5332491
vn 0.3466448 -0.7716751 0.5332495
vn 0 0 -1
vn 0.7334363 -0.6749268 0.08090154
vn -0.3387064 0.2240802 0.9138195
vn -0.5520515 0.5757999 0.6030701
vn -0.9843308 0.08601303 0.1539305
vn -0.3387064 0.2240802 0.9138195
vn -0.9843308 0.08601315 0.1539303
vn -0.9843308 0.0860128 0.1539308
vn -0.5520511 0.5757996 0.6030709
vn -0.5520515 0.5757999 0.6030701
vn 0.3178149 0.144708 0.937045
vn 0.4604203 0.4444924 0.7684007
vn -0.5520511 0.5757996 0.6030709
vn -0.5520515 0.5757999 0.6030701
vn 0.4604203 0.4444924 0.7684007
vn -0.5520513 0.5757996 0.6030707
vn -0.552051 0.5757998 0.6030708
vn -0.5520511 0.5757996 0.6030709
vn -0.552051 0.5757998 0.6030708
vn 0 0 -1
vn 0 0 -1
vn 0 0 -1
vn -0.552051 0.5757998 0.6030708
vn 0 0 -1
vn 0.06090958 0.994314 0.08734819
vn -0.5520513 0.5757996 0.6030707
vn 0.4604204 0.444492 0.7684009
vn 0.4604203 0.4444925 0.7684007
vn 0.06090399 0.9943151 0.08733917
vn 0.06090958 0.994314 0.08734819
vn 0.4604204 0.444492 0.7684009
vn 0.4604203 0.4444925 0.7684007
vn 0 0 -1
vn 0 0 -1
vn 0.4996434 0.8227955 0.270858
vn 0.06090399 0.9943151 0.08733917
vn 0.4996434 0.8227955 0.270858
vn 0.06090399 0.9943151 0.08733917
vn 0.06090958 0.994314 0.08734819
vn 0 0 -1
vn 0.4996434 0.8227955 0.270858
g wall__sh_36_0
f 8/8/8 9/9/9 2/2/2
f 47/47/47 26/26/26 57/57/57
f 11/11/11 42/42/42 48/48/48
f 68/68/68 49/49/49 58/58/58
f 18/18/18 29/29/29 52/52/52
f 87/87/87 91/91/91 20/20/20
f 100/100/100 53/53/53 88/88/88
f 101/101/101 89/89/89 107/107/107
f 5/5/5 1/1/1 6/6/6
f 41/41/41 44/44/44 7/7/7
f 54/54/54 4/4/4 10/10/10
f 25/25/25 36/36/36 55/55/55
f 21/21/21 43/43/43 64/64/64
f 3/3/3 22/22/22 65/65/65
f 37/37/37 31/31/31 66/66/66
f 67/67/67 61/61/61 38/38/38
f 62/62/62 69/69/69 59/59/59
f 60/60/60 56/56/56 63/63/63
f 13/13/13 23/23/23 32/32/32
f 12/12/12 33/33/33 14/14/14
f 34/34/34 39/39/39 78/78/78
f 45/45/45 24/24/24 72/72/72
f 73/73/73 35/35/35 70/70/70
f 79/79/79 40/40/40 27/27/27
f 50/50/50 46/46/46 74/74/74
f 15/15/15 51/51/51 75/75/75
f 80/80/80 85/85/85 76/76/76
f 77/77/77 71/71/71 81/81/81
f 82/82/82 28/28/28 17/17/17
f 16/16/16 83/83/83 93/93/93
f 86/86/86 84/84/84 90/90/90
f 19/19/19 94/94/94 98/98/98
f 95/95/95 30/30/30 99/99/99
f 105/105/105 96/96/96 103/103/103
f 92/92/92 97/97/97 106/106/106
f 104/104/104 102/102/102 108/108/108
