g wall__sh_99
v -0.395618 0.2787003 0.1342108
v -0.09655535 0.2518598 -0.1342108
v -0.1006377 -0.2414427 -0.09423554
v -0.08073604 -0.2335979 -0.08911878
v -0.1043653 -0.3035789 0.1342108
v -0.3499143 -0.2831042 0.1342108
v -0.1076269 -0.2559929 -0.07676065
v -0.1116477 -0.2541813 -0.08334392
v 0.3028468 0.279743 -0.02071464
v 0.3956178 0.3035789 0.1342108
v 0.2674882 -0.0007879734 -0.007561982
v 0.353431 0.02787107 0.1342108
v -0.395618 0.2787003 0.1342108
v -0.395618 0.2787003 0.1342108
v -0.395618 0.2787003 0.1342108
v -0.395618 0.2787003 0.1342108
v -0.09655535 0.2518598 -0.1342108
v -0.09655535 0.2518598 -0.1342108
v -0.09655535 0.2518598 -0.1342108
v -0.09655535 0.2518598 -0.1342108
v -0.09655535 0.2518598 -0.1342108
v -0.1006377 -0.2414427 -0.09423554
v -0.1006377 -0.2414427 -0.09423554
v -0.1006377 -0.2414427 -0.09423554
v -0.1006377 -0.2414427 -0.09423554
v -0.08073604 -0.2335979 -0.08911878
v -0.08073604 -0.2335979 -0.08911878
v -0.08073604 -0.2335979 -0.08911878
v -0.1043653 -0.3035789 0.1342108
v -0.1043653 -0.3035789 0.1342108
v -0.1043653 -0.3035789 0.1342108
v -0.1043653 -0.3035789 0.1342108
v -0.1043653 -0.3035789 0.1342108
v -0.3499143 -0.2831042 0.1342108
v -0.3499143 -0.2831042 0.1342108
v -0.3499143 -0.2831042 0.1342108
v -0.3499143 -0.2831042 0.1342108
v -0.1076269 -0.2559929 -0.07676065
v -0.1076269 -0.2559929 -0.07676065
v -0.1076269 -0.2559929 -0.07676065
v -0.1076269 -0.2559929 -0.07676065
v -0.1076269 -0.2559929 -0.07676065
v -0.1116477 -0.2541813 -0.08334392
v -0.1116477 -0.2541813 -0.08334392
v -0.1116477 -0.2541813 -0.08334392
v 0.3028468 0.279743 -0.02071464
v 0.3028468 0.279743 -0.02071464
v 0.3028468 0.279743 -0.02071464
v 0.3028468 0.279743 -0.02071464
v 0.3956178 0.3035789 0.1342108
v 0.3956178 0.3035789 0.1342108
v 0.3956178 0.3035789 0.1342108
v 0.2674882 -0.0007879734 -0.007561982
v 0.2674882 -0.0007879734 -0.007561982
v 0.2674882 -0.0007879734 -0.007561982
v 0.2674882 -0.0007879734 -0.007561982
v 0.353431 0.02787107 0.1342108
v 0.353431 0.02787107 0.1342108
v 0.353431 0.02787107 0.1342108
v 0.353431 0.02787107 0.1342108
vt 0.1246001 0.2296996
vt -0.4534467 0.2756196
vt -0.4544836 0.1503205
vt -0.4494286 0.1523131
vt 0.1770578 0.1118474
vt 0.132832 0.1159915
vt 0.4562589 0.2090066
vt 0.4572802 0.2073345
vt -0.3519984 0.2232423
vt 0.2671096 0.2347349
vt -0.3609795 0.211447
vt 0.2595114 0.1789322
vt -0.5294088 0.2824371
vt -0.5294088 0.2625935
vt 0.1246001 0.2296996
vt -0.5294088 0.2625935
vt -0.4534467 0.2756196
vt -0.4534467 0.2756196
vt -0.4534467 0.1944143
vt -0.4534467 0.2756196
vt -0.4534467 0.2756196
vt 0.4544837 0.204568
vt 0.4544837 0.204568
vt -0.4544836 0.1503205
vt -0.4544836 0.1503205
vt 0.4494286 0.2058676
vt -0.4494286 0.1523131
vt 0.4494286 0.2058676
vt 0.4554305 0.2625934
vt 0.4554305 0.2625934
vt 0.1770578 0.1118474
vt 0.1770578 0.1118474
vt 0.4554305 0.2625934
vt -0.5178 0.1397385
vt -0.5178 0.1397385
vt -0.5178 0.1397385
vt 0.5178 0.2625934
vt 0.4562589 0.2090066
vt 0.4562589 0.2090066
vt 0.4562589 0.2090066
vt 0.4562589 0.2090066
vt 0.4562589 0.2090066
vt -0.4572802 0.1470849
vt 0.4572802 0.2073345
vt 0.4572802 0.2073345
vt -0.3519984 0.282702
vt -0.3519984 0.2232423
vt -0.282702 0.2232423
vt -0.282702 0.2232423
vt 0.2671096 0.2347349
vt -0.3284345 0.2625935
vt -0.2887563 0.2625934
vt -0.3609795 0.211447
vt 0.3609795 0.2265831
vt 0.3609795 0.2265831
vt -0.211447 0.2265831
vt 0.33915 0.2625934
vt 0.33915 0.2625934
vt -0.2187264 0.2625934
vt -0.2187264 0.2625934
vn 0 0 1
vn 0.2776266 -0.07987824 -0.9573625
vn 0.2776266 -0.07987824 -0.9573625
vn 0.2776266 -0.07987824 -0.9573625
vn 0 0 1
vn 0 0 1
vn 0.4256731 -0.7717948 -0.4723717
vn 0.4256731 -0.7717948 -0.4723717
vn -0.03114482 0.9905261 -0.1337464
vn 0 0 1
vn 0.2776255 -0.07987817 -0.9573628
vn 0 0 1
vn -0.6696653 -0.05447829 -0.7406622
vn -0.03114482 0.9905261 -0.1337464
vn 0 0 1
vn -0.03114485 0.9905261 -0.1337465
vn -0.6696653 -0.05447829 -0.7406622
vn -0.6696653 -0.05447844 -0.7406623
vn -0.03114482 0.9905261 -0.1337464
vn 0.2776255 -0.07987817 -0.9573628
vn 0.2776255 -0.07987832 -0.9573628
vn 0.4256731 -0.7717948 -0.4723717
vn 0.4256733 -0.7717949 -0.4723717
vn -0.6696653 -0.05447844 -0.7406623
vn -0.6696655 -0.05447684 -0.7406622
vn 0.4256733 -0.7717949 -0.4723717
vn 0.2776255 -0.07987832 -0.9573628
vn 0.5759484 -0.7954969 -0.1883301
vn -0.08109429 -0.9725489 -0.2181107
vn -0.08107959 -0.97255 -0.2181115
vn 0 0 1
vn 0 0 1
vn 0.5759485 -0.795496 -0.1883333
vn -0.6696653 -0.05447829 -0.7406622
vn -0.6696653 -0.05447844 -0.7406623
vn -0.6696655 -0.05447684 -0.7406622
vn -0.08109429 -0.9725489 -0.2181107
vn 0.4256733 -0.7717949 -0.4723717
vn -0.08107959 -0.97255 -0.2181115
vn 0.5759485 -0.795496 -0.1883333
vn 0.5759484 -0.7954963 -0.1883326
vn 0.5759484 -0.7954969 -0.1883301
vn -0.6696655 -0.05447684 -0.7406622
vn -0.08109429 -0.9725489 -0.2181107
vn -0.08107959 -0.97255 -0.2181115
vn 0.2776255 -0.07987817 -0.9573628
vn -0.03114485 0.9905261 -0.1337465
vn 0.8592803 -0.131481 -0.4943177
vn 0.8592803 -0.131481 -0.4943177
vn 0 0 1
vn -0.03114485 0.9905261 -0.1337465
vn 0.8592803 -0.131481 -0.4943177
vn 0.2776255 -0.07987832 -0.9573628
vn 0.5759484 -0.7954963 -0.1883326
vn 0.5759484 -0.7954969 -0.1883301
vn 0.8592803 -0.131481 -0.4943177
vn 0.5759485 -0.795496 -0.1883333
vn 0.5759484 -0.7954963 -0.1883326
vn 0.8592803 -0.131481 -0.4943177
vn 0.8592803 -0.131481 -0.4943177
g wall__sh_99_0
f 6/6/6 5/5/5 1/1/1
f 10/10/10 31/31/31 12/12/12
f 15/15/15 32/32/32 50/50/50
f 4/4/4 3/3/3 2/2/2
f 34/34/34 13/13/13 17/17/17
f 8/8/8 22/22/22 7/7/7
f 23/23/23 26/26/26 38/38/38
f 35/35/35 18/18/18 24/24/24
f 36/36/36 25/25/25 43/43/43
f 29/29/29 37/37/37 44/44/44
f 45/45/45 39/39/39 30/30/30
f 9/9/9 19/19/19 14/14/14
f 11/11/11 20/20/20 46/46/46
f 27/27/27 21/21/21 53/53/53
f 33/33/33 40/40/40 57/57/57
f 47/47/47 16/16/16 51/51/51
f 54/54/54 58/58/58 41/41/41
f 42/42/42 28/28/28 55/55/55
f 48/48/48 52/52/52 59/59/59
f 60/60/60 56/56/56 49/49/49
