g wall__sh_9
v -0.1259209 0.4484181 0.2296821
v -0.07352716 0.4884453 0.2296821
v 0.01938975 -0.192698 -0.1060391
v -0.3960003 -0.2398214 0.2296821
v 0.3638681 -0.3445535 0.2296821
v 0.05082417 -0.2722545 -0.06161875
v 0.009658098 -0.4884453 0.2296821
v -0.1372876 -0.3391476 -0.07552844
v -0.295619 -0.004044533 -0.1856982
v -0.2906092 -0.08583879 -0.2296821
v -0.4113783 -0.2013359 0.07995075
v -0.3317378 0.07094336 -0.05370378
v -0.3219008 -0.2053957 -0.1816905
v 0.3780398 -0.06221628 0.1829427
v 0.3362967 0.06255007 0.2296821
v 0.4113783 -0.1448207 0.2296821
v -0.1259209 0.4484181 0.2296821
v -0.1259209 0.4484181 0.2296821
v -0.1259209 0.4484181 0.2296821
v -0.1259209 0.4484181 0.2296821
v -0.07352716 0.4884453 0.2296821
v -0.07352716 0.4884453 0.2296821
v -0.07352716 0.4884453 0.2296821
v -0.07352716 0.4884453 0.2296821
v -0.07352716 0.4884453 0.2296821
v 0.01938975 -0.192698 -0.1060391
v 0.01938975 -0.192698 -0.1060391
v 0.01938975 -0.192698 -0.1060391
v 0.01938975 -0.192698 -0.1060391
v 0.01938975 -0.192698 -0.1060391
v 0.01938975 -0.192698 -0.1060391
v 0.01938975 -0.192698 -0.1060391
v -0.3960003 -0.2398214 0.2296821
v -0.3960003 -0.2398214 0.2296821
v -0.3960003 -0.2398214 0.2296821
v -0.3960003 -0.2398214 0.2296821
v -0.3960003 -0.2398214 0.2296821
v -0.3960003 -0.2398214 0.2296821
v -0.3960003 -0.2398214 0.2296821
v 0.3638681 -0.3445535 0.2296821
v 0.3638681 -0.3445535 0.2296821
v 0.3638681 -0.3445535 0.2296821
v 0.3638681 -0.3445535 0.2296821
v 0.3638681 -0.3445535 0.2296821
v 0.05082417 -0.2722545 -0.06161875
v 0.05082417 -0.2722545 -0.06161875
v 0.05082417 -0.2722545 -0.06161875
v 0.009658098 -0.4884453 0.2296821
v 0.009658098 -0.4884453 0.2296821
v 0.009658098 -0.4884453 0.2296821
v -0.1372876 -0.3391476 -0.07552844
v -0.1372876 -0.3391476 -0.07552844
v -0.1372876 -0.3391476 -0.07552844
v -0.1372876 -0.3391476 -0.07552844
v -0.1372876 -0.3391476 -0.07552844
v -0.295619 -0.004044533 -0.1856982
v -0.295619 -0.004044533 -0.1856982
v -0.295619 -0.004044533 -0.1856982
v -0.295619 -0.004044533 -0.1856982
v -0.295619 -0.004044533 -0.1856982
v -0.2906092 -0.08583879 -0.2296821
v -0.2906092 -0.08583879 -0.2296821
v -0.2906092 -0.08583879 -0.2296821
v -0.4113783 -0.2013359 0.07995075
v -0.4113783 -0.2013359 0.07995075
v -0.4113783 -0.2013359 0.07995075
v -0.3317378 0.07094336 -0.05370378
v -0.3317378 0.07094336 -0.05370378
v -0.3317378 0.07094336 -0.05370378
v -0.3219008 -0.2053957 -0.1816905
v -0.3219008 -0.2053957 -0.1816905
v -0.3219008 -0.2053957 -0.1816905
v -0.3219008 -0.2053957 -0.1816905
v -0.3219008 -0.2053957 -0.1816905
v 0.3780398 -0.06221628 0.1829427
v 0.3780398 -0.06221628 0.1829427
v 0.3780398 -0.06221628 0.1829427
v 0.3362967 0.06255007 0.2296821
v 0.3362967 0.06255007 0.2296821
v 0.3362967 0.06255007 0.2296821
v 0.3362967 0.06255007 0.2296821
v 0.4113783 -0.1448207 0.2296821
v 0.4113783 -0.1448207 0.2296821
v 0.4113783 -0.1448207 0.2296821
vt 0.3740075 0.9776825
vt 0.3834441 0.9857839
vt -0.1407725 1.058279
vt 0.3253635 0.8383844
vt 0.4622232 0.8171867
vt -0.1327881 1.038072
vt 0.3984266 0.7880633
vt -0.1805686 1.021081
vt -0.2207848 0.1570866
vt -0.2195124 1.085422
vt 1.056085 0.2245616
vt 1.125244 0.1906132
vt 0.2274605 0.1581045
vt -0.04967517 1.091422
vt -0.06027793 1.123113
vt -0.04120717 1.07044
vt -0.1776814 0.2625934
vt 1.221123 0.2625934
vt 1.221123 0.2625934
vt -0.1776814 0.2625934
vt -0.1643734 0.2625934
vt -0.1643734 1.23129
vt -0.1643734 1.23129
vt -0.1643734 1.23129
vt 0.3834441 0.9857839
vt -0.1407725 1.058279
vt -0.1407725 1.058279
vt -0.1407725 1.058279
vt -0.1407725 1.058279
vt -0.1407725 1.058279
vt -0.1407725 1.058279
vt -0.1407725 1.058279
vt 0.3253635 0.8383844
vt 0.2462818 0.2625934
vt 1.04631 0.2625934
vt 0.2462818 0.2625934
vt 0.2462818 0.2625934
vt 0.3253635 0.8383844
vt 0.3253635 0.8383844
vt -0.0532748 1.019708
vt 0.05327482 0.2625934
vt -0.0532748 1.019708
vt 0.4622232 0.8171867
vt 0.4622232 0.8171867
vt -0.1327881 1.038072
vt 0.1327881 0.1886028
vt 0.1327881 0.1886028
vt 0.1432443 0.2625934
vt 0.1432443 0.2625934
vt 0.1432443 0.2625934
vt 0.1805686 0.1850698
vt 0.1805686 0.1850698
vt 0.1805686 0.1850698
vt -0.1805686 1.021081
vt -0.1805686 1.021081
vt -0.2207848 1.106197
vt -0.2207848 1.106197
vt -0.2207848 0.1570866
vt 1.106197 0.1570866
vt 1.106197 0.1570866
vt -0.2195124 1.085422
vt -0.2195124 1.085422
vt 1.085422 0.1459146
vt 1.056085 0.2245616
vt 0.2501878 0.2245616
vt 1.056085 0.2245616
vt -0.2299591 0.1906133
vt 1.125244 0.1906132
vt 1.125244 0.1906132
vt -0.2274605 1.055054
vt 0.2274605 0.1581045
vt 1.055054 0.1581045
vt 1.055054 0.1581045
vt 1.055054 0.1581045
vt -0.04967517 1.091422
vt -0.04967517 1.091422
vt -1.091422 0.2507215
vt 0.4572574 0.8995835
vt 0.4572574 0.8995835
vt 0.4572574 0.8995835
vt -1.123113 0.2625934
vt -0.04120717 1.07044
vt 0.4707804 0.8576122
vt -1.07044 0.2625934
vn 0 0 1
vn 0 0 1
vn 0.2118168 -0.4113084 -0.8865433
vn 0 0 1
vn 0 0 1
vn 0.2118168 -0.4113084 -0.8865433
vn 0 0 1
vn 0.2118168 -0.4113084 -0.8865433
vn -0.5165209 0.6761031 -0.5254433
vn 0.4596317 0.4422875 -0.7701432
vn -0.9146128 0.3589129 0.1861855
vn -0.9146128 0.3589131 0.1861847
vn -0.515543 -0.8411674 -0.1632566
vn 0.4596318 0.4422873 -0.7701432
vn 0.4596311 0.4422868 -0.7701439
vn 0.6534679 -0.1554395 -0.7408227
vn -0.5165209 0.6761031 -0.5254433
vn -0.9146128 0.3589129 0.1861855
vn -0.9146128 0.3589131 0.1861847
vn -0.5165199 0.6761034 -0.525444
vn -0.5165209 0.6761031 -0.5254433
vn 0.4596316 0.4422873 -0.7701433
vn 0.4596318 0.4422873 -0.7701432
vn 0.4596311 0.4422868 -0.7701439
vn 0 0 1
vn 0.653468 -0.1554396 -0.7408226
vn 0.4596317 0.4422875 -0.7701432
vn 0.4596316 0.4422873 -0.7701433
vn 0.2118165 -0.4113081 -0.8865436
vn 0.4596318 0.4422873 -0.7701432
vn 0.6534679 -0.1554395 -0.7408227
vn 0.6534679 -0.1554398 -0.7408226
vn 0 0 1
vn -0.5155429 -0.8411676 -0.1632564
vn -0.9146128 0.3589129 0.1861855
vn -0.515543 -0.8411674 -0.1632566
vn -0.5155457 -0.8411658 -0.1632569
vn 0 0 1
vn 0 0 1
vn 0.653468 -0.1554396 -0.7408226
vn 0.3178058 -0.7823237 -0.5356949
vn 0.6534679 -0.1554398 -0.7408226
vn 0 0 1
vn 0 0 1
vn 0.653468 -0.1554396 -0.7408226
vn 0.3178058 -0.7823237 -0.5356949
vn 0.3178078 -0.7823234 -0.5356943
vn -0.5155429 -0.8411676 -0.1632564
vn 0.3178058 -0.7823237 -0.5356949
vn 0.3178078 -0.7823234 -0.5356943
vn -0.5155429 -0.8411676 -0.1632564
vn 0.3178078 -0.7823234 -0.5356943
vn -0.515543 -0.8411674 -0.1632566
vn 0.2118165 -0.4113081 -0.8865436
vn 0.211816 -0.4113083 -0.8865435
vn 0.4596317 0.4422875 -0.7701432
vn 0.4596316 0.4422873 -0.7701433
vn -0.5165199 0.6761034 -0.525444
vn -0.9392391 0.1161675 -0.3230091
vn -0.9392393 0.1161675 -0.323009
vn 0.2118165 -0.4113081 -0.8865436
vn 0.211816 -0.4113083 -0.8865435
vn -0.9392393 0.1161675 -0.323009
vn -0.9146128 0.3589131 0.1861847
vn -0.5155457 -0.8411658 -0.1632569
vn -0.9392394 0.1161672 -0.3230084
vn -0.5165199 0.6761034 -0.525444
vn -0.9392394 0.1161672 -0.3230084
vn -0.9392391 0.1161675 -0.3230091
vn 0.211816 -0.4113083 -0.8865435
vn -0.5155457 -0.8411658 -0.1632569
vn -0.9392394 0.1161672 -0.3230084
vn -0.9392391 0.1161675 -0.3230091
vn -0.9392393 0.1161675 -0.323009
vn 0.4596311 0.4422868 -0.7701439
vn 0.6534679 -0.1554395 -0.7408227
vn 0.9380362 0.3396296 -0.06884649
vn 0 0 1
vn 0 0 1
vn 0 0 1
vn 0.9380362 0.3396296 -0.06884649
vn 0.6534679 -0.1554398 -0.7408226
vn 0 0 1
vn 0.9380362 0.3396296 -0.06884649
g wall__sh_9_0
f 2/2/2 1/1/1 4/4/4
f 7/7/7 5/5/5 33/33/33
f 78/78/78 25/25/25 38/38/38
f 79/79/79 39/39/39 43/43/43
f 44/44/44 83/83/83 80/80/80
f 8/8/8 3/3/3 6/6/6
f 40/40/40 45/45/45 26/26/26
f 51/51/51 48/48/48 34/34/34
f 46/46/46 41/41/41 49/49/49
f 50/50/50 52/52/52 47/47/47
f 17/17/17 21/21/21 9/9/9
f 56/56/56 27/27/27 10/10/10
f 22/22/22 28/28/28 57/57/57
f 11/11/11 35/35/35 18/18/18
f 12/12/12 64/64/64 19/19/19
f 53/53/53 36/36/36 13/13/13
f 67/67/67 20/20/20 58/58/58
f 61/61/61 29/29/29 54/54/54
f 55/55/55 70/70/70 62/62/62
f 71/71/71 37/37/37 65/65/65
f 72/72/72 66/66/66 68/68/68
f 73/73/73 69/69/69 59/59/59
f 60/60/60 63/63/63 74/74/74
f 14/14/14 30/30/30 23/23/23
f 15/15/15 75/75/75 24/24/24
f 16/16/16 31/31/31 76/76/76
f 42/42/42 32/32/32 82/82/82
f 77/77/77 81/81/81 84/84/84
