g wall__sh_76
v 0.04853408 0.324919 -0.2647582
v 0.01869054 0.6954999 0.2647582
v 0.3299487 0.6916218 0.2647582
v 0.009702057 0.695612 0.2647582
v -0.05198696 0.6318917 0.03693789
v -0.008534446 0.6830833 0.1126133
v 0.5689024 0.2058775 0.2647582
v 0.4944348 0.6298015 0.2647582
v 0.2127565 0.2911794 -0.2333979
v 0.5311948 0.4573305 0.08694667
v 0.5902424 0.0843941 0.2647582
v -0.3425599 -0.3533766 -0.06859899
v -0.561354 -0.4009894 0.2143911
v -0.4533394 -0.5089008 0.2647582
v -0.04543109 0.6235168 0.2647582
v -0.07447644 0.6013167 0.05261874
v -0.5902424 -0.3929096 0.2647582
v -0.5899051 -0.3914909 0.259522
v -0.2085451 -0.6745397 0.2647582
v 0.2441863 -0.2224119 -0.04634452
v -0.2355035 -0.4611154 -0.01754385
v -0.1552514 -0.6956121 0.2647582
v 0.4615811 -0.4240618 0.2647582
v -0.1741313 -0.6818805 0.2416959
v 0.04853408 0.324919 -0.2647582
v 0.04853408 0.324919 -0.2647582
v 0.04853408 0.324919 -0.2647582
v 0.04853408 0.324919 -0.2647582
v 0.01869054 0.6954999 0.2647582
v 0.01869054 0.6954999 0.2647582
v 0.01869054 0.6954999 0.2647582
v 0.01869054 0.6954999 0.2647582
v 0.01869054 0.6954999 0.2647582
v 0.3299487 0.6916218 0.2647582
v 0.3299487 0.6916218 0.2647582
v 0.3299487 0.6916218 0.2647582
v 0.3299487 0.6916218 0.2647582
v 0.3299487 0.6916218 0.2647582
v 0.3299487 0.6916218 0.2647582
v 0.009702057 0.695612 0.2647582
v 0.009702057 0.695612 0.2647582
v 0.009702057 0.695612 0.2647582
v -0.05198696 0.6318917 0.03693789
v -0.05198696 0.6318917 0.03693789
v -0.05198696 0.6318917 0.03693789
v -0.05198696 0.6318917 0.03693789
v -0.05198696 0.6318917 0.03693789
v -0.008534446 0.6830833 0.1126133
v -0.008534446 0.6830833 0.1126133
v -0.008534446 0.6830833 0.1126133
v 0.5689024 0.2058775 0.2647582
v 0.5689024 0.2058775 0.2647582
v 0.5689024 0.2058775 0.2647582
v 0.5689024 0.2058775 0.2647582
v 0.4944348 0.6298015 0.2647582
v 0.4944348 0.6298015 0.2647582
v 0.4944348 0.6298015 0.2647582
v 0.2127565 0.2911794 -0.2333979
v 0.2127565 0.2911794 -0.2333979
v 0.2127565 0.2911794 -0.2333979
v 0.2127565 0.2911794 -0.2333979
v 0.2127565 0.2911794 -0.2333979
v 0.5311948 0.4573305 0.08694667
v 0.5311948 0.4573305 0.08694667
v 0.5311948 0.4573305 0.08694667
v 0.5311948 0.4573305 0.08694667
v 0.5902424 0.0843941 0.2647582
v 0.5902424 0.0843941 0.2647582
v 0.5902424 0.0843941 0.2647582
v 0.5902424 0.0843941 0.2647582
v 0.5902424 0.0843941 0.2647582
v 0.5902424 0.0843941 0.2647582
v -0.3425599 -0.3533766 -0.06859899
v -0.3425599 -0.3533766 -0.06859899
v -0.3425599 -0.3533766 -0.06859899
v -0.3425599 -0.3533766 -0.06859899
v -0.3425599 -0.3533766 -0.06859899
v -0.3425599 -0.3533766 -0.06859899
v -0.561354 -0.4009894 0.2143911
v -0.561354 -0.4009894 0.2143911
v -0.561354 -0.4009894 0.2143911
v -0.561354 -0.4009894 0.2143911
v -0.561354 -0.4009894 0.2143911
v -0.561354 -0.4009894 0.2143911
v -0.4533394 -0.5089008 0.2647582
v -0.4533394 -0.5089008 0.2647582
v -0.4533394 -0.5089008 0.2647582
v -0.4533394 -0.5089008 0.2647582
v -0.4533394 -0.5089008 0.2647582
v -0.4533394 -0.5089008 0.2647582
v -0.04543109 0.6235168 0.2647582
v -0.04543109 0.6235168 0.2647582
v -0.04543109 0.6235168 0.2647582
v -0.04543109 0.6235168 0.2647582
v -0.04543109 0.6235168 0.2647582
v -0.04543109 0.6235168 0.2647582
v -0.04543109 0.6235168 0.2647582
v -0.04543109 0.6235168 0.2647582
v -0.07447644 0.6013167 0.05261874
v -0.07447644 0.6013167 0.05261874
v -0.07447644 0.6013167 0.05261874
v -0.07447644 0.6013167 0.05261874
v -0.5902424 -0.3929096 0.2647582
v -0.5902424 -0.3929096 0.2647582
v -0.5902424 -0.3929096 0.2647582
v -0.5899051 -0.3914909 0.259522
v -0.5899051 -0.3914909 0.259522
v -0.5899051 -0.3914909 0.259522
v -0.5899051 -0.3914909 0.259522
v -0.2085451 -0.6745397 0.2647582
v -0.2085451 -0.6745397 0.2647582
v -0.2085451 -0.6745397 0.2647582
v 0.2441863 -0.2224119 -0.04634452
v 0.2441863 -0.2224119 -0.04634452
v 0.2441863 -0.2224119 -0.04634452
v 0.2441863 -0.2224119 -0.04634452
v 0.2441863 -0.2224119 -0.04634452
v -0.2355035 -0.4611154 -0.01754385
v -0.2355035 -0.4611154 -0.01754385
v -0.2355035 -0.4611154 -0.01754385
v -0.2355035 -0.4611154 -0.01754385
v -0.1552514 -0.6956121 0.2647582
v -0.1552514 -0.6956121 0.2647582
v -0.1552514 -0.6956121 0.2647582
v -0.1552514 -0.6956121 0.2647582
v -0.1552514 -0.6956121 0.2647582
v 0.4615811 -0.4240618 0.2647582
v 0.4615811 -0.4240618 0.2647582
v 0.4615811 -0.4240618 0.2647582
v -0.1741313 -0.6818805 0.2416959
v -0.1741313 -0.6818805 0.2416959
v -0.1741313 -0.6818805 0.2416959
vt -0.01980623 0.128096
vt -0.0273865 0.2625934
vt 0.05167323 0.2625934
vt -0.02966958 0.2625934
vt -0.04533862 0.204727
vt -0.03430166 0.2239486
vt 0.579679 0.4203211
vt 0.5662667 0.5061225
vt 0.02190635 0.1360615
vt -0.5855281 0.2174292
vt -0.490802 0.2625934
vt -0.1191443 0.379608
vt 0.3675144 0.2498002
vt 0.1472824 0.2625934
vt 0.4690314 0.5048505
vt 0.6221007 0.2087099
vt 0.1820558 0.2625934
vt 0.369927 0.2612634
vt 0.0851045 0.2625934
vt -0.4128732 0.1835732
vt 0.09195194 0.1908886
vt 0.07156786 0.2625934
vt 0.5603493 0.2928228
vt 0.07636335 0.2567356
vt -0.01980623 0.128096
vt -0.01980623 0.5518955
vt 0.5518955 0.128096
vt 0.5518955 0.128096
vt -0.0273865 0.2625934
vt 0.4805803 0.5194197
vt 0.4805803 0.5194197
vt 0.4805804 0.5194197
vt 0.4805804 0.5194197
vt 0.05167323 0.2625934
vt 0.05167323 0.2625934
vt 0.536641 0.5186347
vt 0.05167323 0.2625934
vt 0.05167323 0.2625934
vt 0.05167323 0.2625934
vt 0.6460517 0.2625934
vt 0.4789615 0.5194424
vt 0.6460517 0.2625934
vt -0.04533862 0.204727
vt 0.6298667 0.204727
vt 0.6298667 0.204727
vt 0.6298667 0.204727
vt 0.6298667 0.204727
vt -0.03430166 0.2239486
vt -0.03430166 0.2239486
vt 0.6428694 0.2239486
vt -0.5216589 0.2625934
vt -0.5216589 0.2625934
vt 0.579679 0.4203211
vt 0.579679 0.4203211
vt 0.5662667 0.5061225
vt -0.6293358 0.2625934
vt 0.09345278 0.2625934
vt 0.02190635 0.1360615
vt -0.5433256 0.1360615
vt 0.02190635 0.5433256
vt -0.5433256 0.1360615
vt 0.02190635 0.5433256
vt 0.1027899 0.2174292
vt 0.1027899 0.2174292
vt -0.5855281 0.2174292
vt -0.5855281 0.2174292
vt -0.490802 0.2625934
vt 0.5835226 0.3957332
vt 0.5835226 0.3957332
vt -0.490802 0.2625934
vt 0.5835226 0.3957332
vt -0.490802 0.2625934
vt 0.379608 0.1779206
vt 0.379608 0.1779206
vt 0.379608 0.1779206
vt 0.1191443 0.1779206
vt -0.1191443 0.379608
vt -0.1191443 0.379608
vt 0.1747181 0.2498002
vt 0.1747181 0.2498002
vt 0.1747181 0.2498002
vt 0.1747181 0.2498002
vt 0.1747181 0.2498002
vt 0.1747181 0.2498002
vt 0.3955632 0.2756515
vt 0.3955632 0.2756515
vt 0.1472824 0.2625934
vt 0.3955632 0.2756515
vt 0.3955632 0.2756515
vt 0.3955632 0.2756515
vt 0.6277395 0.2625934
vt 0.6277395 0.2625934
vt 0.4690314 0.5048505
vt 0.4690314 0.5048505
vt 0.4690314 0.5048505
vt 0.4690314 0.5048505
vt 0.6277395 0.2625934
vt 0.6277395 0.2625934
vt 0.6221007 0.2087099
vt 0.6221007 0.2087099
vt 0.6221007 0.2087099
vt 0.6221007 0.2087099
vt 0.1820558 0.2625934
vt 0.3709055 0.2991279
vt 0.3695666 0.2625934
vt 0.1819701 0.2612634
vt 0.369927 0.2612634
vt 0.369927 0.2612634
vt 0.369927 0.2612634
vt 0.0851045 0.2625934
vt 0.0851045 0.2625934
vt 0.4396529 0.2421266
vt 0.02988953 0.4128732
vt 0.02988953 0.4128732
vt -0.4128732 0.1835732
vt -0.02988951 0.1835732
vt -0.02988951 0.1835732
vt -0.09195192 0.3522424
vt 0.09195194 0.1908886
vt 0.09195194 0.1908886
vt 0.09195194 0.1908886
vt 0.4492517 0.2378616
vt 0.4492517 0.2378616
vt 0.07156786 0.2625934
vt 0.07156786 0.2625934
vt 0.07156786 0.2625934
vt 0.5603493 0.2928228
vt -0.361654 0.2625934
vt -0.08510792 0.2625934
vt 0.07636335 0.2567356
vt 0.07636335 0.2567356
vt 0.07636335 0.2567356
vn 0.2700179 0.7184411 -0.6410403
vn 0.01241497 0.996427 -0.08354036
vn 0.2700186 0.7184402 -0.6410412
vn 0.01242211 0.9964269 -0.08354164
vn 0.2700186 0.7184402 -0.6410412
vn 0.2700186 0.7184402 -0.6410412
vn 0 0 1
vn 0 0 1
vn 0.2700183 0.7184408 -0.6410404
vn 0.9842889 0.1729028 0.03577832
vn 0.9842889 0.1729028 0.03577832
vn 0.1100939 -0.3341806 -0.936057
vn -0.780202 0.2894944 -0.5545068
vn -0.6273686 -0.7404763 -0.241047
vn 0 0 1
vn -0.7935402 0.6068411 0.04514347
vn -0.627364 -0.7404813 -0.2410435
vn -0.780202 0.2894944 -0.5545068
vn -0.4863196 -0.7187214 -0.4969233
vn 0.7436098 -0.1881656 -0.6415904
vn -0.4863199 -0.7187215 -0.4969229
vn -0.3564957 -0.9016059 -0.244985
vn 0 0 1
vn -0.4863195 -0.7187214 -0.4969233
vn 0.2700183 0.7184408 -0.6410404
vn 0.1100939 -0.3341806 -0.936057
vn -0.7802029 0.2894911 -0.5545073
vn -0.7802025 0.2894915 -0.5545076
vn 0.01242211 0.9964269 -0.08354164
vn 0 0 1
vn 0 0 1
vn 0 0 1
vn 0 0 1
vn 0.2700179 0.7184411 -0.6410403
vn 0.01241497 0.996427 -0.08354036
vn 0 0 1
vn 0.2700183 0.7184408 -0.6410404
vn 0.2700181 0.7184409 -0.6410405
vn 0.270018 0.7184409 -0.6410405
vn -0.7935418 0.6068388 0.04514482
vn 0 0 1
vn -0.7935397 0.6068417 0.04514347
vn 0.2700179 0.7184411 -0.6410403
vn -0.7935418 0.6068388 0.04514482
vn -0.7935402 0.6068411 0.04514347
vn -0.7935397 0.6068417 0.04514347
vn -0.7802029 0.2894911 -0.5545073
vn 0.01241497 0.996427 -0.08354036
vn 0.01242211 0.9964269 -0.08354164
vn -0.7935418 0.6068388 0.04514482
vn 0.9842889 0.1729028 0.03577832
vn 0.9842889 0.1729028 0.03577832
vn 0 0 1
vn 0 0 1
vn 0 0 1
vn 0.9842889 0.1729028 0.03577832
vn 0.270018 0.7184409 -0.6410405
vn 0.2700181 0.7184409 -0.6410405
vn 0.7436098 -0.1881654 -0.6415903
vn 0.1100939 -0.3341806 -0.936057
vn 0.7436098 -0.1881656 -0.6415904
vn 0.1100942 -0.3341809 -0.9360569
vn 0.2700181 0.7184409 -0.6410405
vn 0.270018 0.7184409 -0.6410405
vn 0.9842889 0.1729028 0.03577832
vn 0.7436098 -0.1881654 -0.6415903
vn 0.7436098 -0.1881654 -0.6415903
vn 0 0 1
vn 0 0 1
vn 0.7436098 -0.1881656 -0.6415904
vn 0 0 1
vn 0.7436098 -0.1881655 -0.6415904
vn -0.780202 0.2894944 -0.5545068
vn -0.7802025 0.2894915 -0.5545076
vn -0.7802026 0.2894915 -0.5545076
vn -0.4863199 -0.7187215 -0.4969229
vn 0.1100942 -0.3341809 -0.9360569
vn 0.1100942 -0.3341808 -0.9360569
vn -0.627364 -0.7404813 -0.2410435
vn -0.6273686 -0.7404763 -0.241047
vn -0.4863196 -0.7187214 -0.4969233
vn -0.4863199 -0.7187215 -0.4969229
vn -0.4863195 -0.7187214 -0.4969233
vn -0.4863198 -0.7187217 -0.4969227
vn 0 0 1
vn 0 0 1
vn -0.4863196 -0.7187214 -0.4969233
vn 0 0 1
vn 0 0 1
vn 0 0 1
vn -0.7935402 0.6068411 0.04514347
vn -0.7935397 0.6068417 0.04514347
vn 0 0 1
vn 0 0 1
vn 0 0 1
vn 0 0 1
vn -0.8791454 0.4712278 0.0710476
vn -0.8791449 0.4712275 0.07105578
vn -0.7802029 0.2894911 -0.5545073
vn -0.7802025 0.2894915 -0.5545076
vn -0.7802026 0.2894915 -0.5545076
vn -0.8791449 0.4712275 0.07105578
vn -0.6273686 -0.7404763 -0.241047
vn 0 0 1
vn -0.8791454 0.4712278 0.0710476
vn -0.627364 -0.7404813 -0.2410435
vn -0.7802026 0.2894915 -0.5545076
vn -0.8791454 0.4712278 0.0710476
vn -0.8791449 0.4712275 0.07105578
vn -0.4863195 -0.7187214 -0.4969233
vn -0.3564957 -0.9016059 -0.244985
vn 0 0 1
vn 0.1100942 -0.3341809 -0.9360569
vn 0.1100942 -0.3341808 -0.9360569
vn 0.7436098 -0.1881655 -0.6415904
vn 0.303258 -0.6888571 -0.6584151
vn 0.3032582 -0.6888573 -0.658415
vn 0.1100942 -0.3341808 -0.9360569
vn -0.4863198 -0.7187217 -0.4969227
vn 0.3032582 -0.6888573 -0.658415
vn 0.3032538 -0.688859 -0.6584151
vn 0 0 1
vn 0 0 1
vn 0.303258 -0.6888571 -0.6584151
vn 0.3032582 -0.6888573 -0.658415
vn 0.3032538 -0.688859 -0.6584151
vn 0 0 1
vn 0.7436098 -0.1881655 -0.6415904
vn 0.303258 -0.6888571 -0.6584151
vn -0.3564957 -0.9016059 -0.244985
vn -0.4863198 -0.7187217 -0.4969227
vn 0.3032538 -0.688859 -0.6584151
g wall__sh_76_0
f 36/36/36 30/30/30 8/8/8
f 55/55/55 31/31/31 7/7/7
f 32/32/32 41/41/41 15/15/15
f 93/93/93 68/68/68 53/53/53
f 54/54/54 33/33/33 94/94/94
f 85/85/85 69/69/69 95/95/95
f 96/96/96 104/104/104 86/86/86
f 23/23/23 71/71/71 88/88/88
f 122/122/122 127/127/127 89/89/89
f 90/90/90 112/112/112 123/123/123
f 6/6/6 3/3/3 5/5/5
f 34/34/34 1/1/1 43/43/43
f 2/2/2 35/35/35 48/48/48
f 4/4/4 29/29/29 49/49/49
f 40/40/40 50/50/50 44/44/44
f 9/9/9 25/25/25 37/37/37
f 10/10/10 56/56/56 51/51/51
f 63/63/63 58/58/58 38/38/38
f 39/39/39 57/57/57 64/64/64
f 65/65/65 52/52/52 11/11/11
f 59/59/59 66/66/66 67/67/67
f 12/12/12 26/26/26 60/60/60
f 91/91/91 45/45/45 16/16/16
f 42/42/42 46/46/46 92/92/92
f 73/73/73 13/13/13 18/18/18
f 106/106/106 79/79/79 17/17/17
f 80/80/80 14/14/14 103/103/103
f 99/99/99 47/47/47 27/27/27
f 100/100/100 28/28/28 74/74/74
f 101/101/101 75/75/75 107/107/107
f 108/108/108 105/105/105 97/97/97
f 98/98/98 102/102/102 109/109/109
f 19/19/19 87/87/87 81/81/81
f 82/82/82 76/76/76 21/21/21
f 20/20/20 61/61/61 70/70/70
f 110/110/110 83/83/83 24/24/24
f 130/130/130 22/22/22 111/111/111
f 77/77/77 62/62/62 113/113/113
f 114/114/114 118/118/118 78/78/78
f 131/131/131 84/84/84 119/119/119
f 115/115/115 72/72/72 128/128/128
f 116/116/116 129/129/129 124/124/124
f 120/120/120 117/117/117 125/125/125
f 126/126/126 132/132/132 121/121/121
