g wall__sh_59
v -0.2691753 -0.442062 0.1162575
v -0.2691753 -0.5796262 0.263798
v 0.05839372 -0.6072363 0.263798
v -0.2691753 0.5267941 -0.04687256
v 0.2635839 -0.1049329 0.263798
v 0.1998034 0.4986631 0.1395946
v -0.2691753 0.5913504 0.263798
v -0.2691753 0.6072363 0.07413501
v 0.1880198 0.5240241 0.263798
v 0.1917574 0.5285752 0.2028909
v 0.1604829 0.5354533 0.1757557
v -0.2691753 -0.08770692 -0.2637979
v -0.2691753 0.4265984 -0.1975952
v 0.1432152 -0.2388897 -0.1389313
v 0.2691753 0.03766286 -0.05924976
v 0.2263961 0.3769325 -0.03054971
v -0.2691753 -0.442062 0.1162575
v -0.2691753 -0.442062 0.1162575
v -0.2691753 -0.442062 0.1162575
v -0.2691753 -0.442062 0.1162575
v -0.2691753 -0.442062 0.1162575
v -0.2691753 -0.442062 0.1162575
v -0.2691753 -0.5796262 0.263798
v -0.2691753 -0.5796262 0.263798
v 0.05839372 -0.6072363 0.263798
v 0.05839372 -0.6072363 0.263798
v 0.05839372 -0.6072363 0.263798
v 0.05839372 -0.6072363 0.263798
v -0.2691753 0.5267941 -0.04687256
v -0.2691753 0.5267941 -0.04687256
v -0.2691753 0.5267941 -0.04687256
v -0.2691753 0.5267941 -0.04687256
v -0.2691753 0.5267941 -0.04687256
v -0.2691753 0.5267941 -0.04687256
v 0.2635839 -0.1049329 0.263798
v 0.2635839 -0.1049329 0.263798
v 0.2635839 -0.1049329 0.263798
v 0.2635839 -0.1049329 0.263798
v 0.2635839 -0.1049329 0.263798
v 0.2635839 -0.1049329 0.263798
v 0.1998034 0.4986631 0.1395946
v 0.1998034 0.4986631 0.1395946
v 0.1998034 0.4986631 0.1395946
v 0.1998034 0.4986631 0.1395946
v 0.1998034 0.4986631 0.1395946
v -0.2691753 0.5913504 0.263798
v -0.2691753 0.5913504 0.263798
v -0.2691753 0.5913504 0.263798
v -0.2691753 0.5913504 0.263798
v -0.2691753 0.5913504 0.263798
v -0.2691753 0.5913504 0.263798
v -0.2691753 0.6072363 0.07413501
v -0.2691753 0.6072363 0.07413501
v -0.2691753 0.6072363 0.07413501
v 0.1880198 0.5240241 0.263798
v 0.1880198 0.5240241 0.263798
v 0.1880198 0.5240241 0.263798
v 0.1880198 0.5240241 0.263798
v 0.1917574 0.5285752 0.2028909
v 0.1917574 0.5285752 0.2028909
v 0.1604829 0.5354533 0.1757557
v 0.1604829 0.5354533 0.1757557
v 0.1604829 0.5354533 0.1757557
v 0.1604829 0.5354533 0.1757557
v 0.1604829 0.5354533 0.1757557
v -0.2691753 -0.08770692 -0.2637979
v -0.2691753 -0.08770692 -0.2637979
v -0.2691753 -0.08770692 -0.2637979
v -0.2691753 -0.08770692 -0.2637979
v -0.2691753 -0.08770692 -0.2637979
v -0.2691753 0.4265984 -0.1975952
v -0.2691753 0.4265984 -0.1975952
v 0.1432152 -0.2388897 -0.1389313
v 0.1432152 -0.2388897 -0.1389313
v 0.1432152 -0.2388897 -0.1389313
v 0.1432152 -0.2388897 -0.1389313
v 0.2691753 0.03766286 -0.05924976
v 0.2691753 0.03766286 -0.05924976
v 0.2691753 0.03766286 -0.05924976
v 0.2263961 0.3769325 -0.03054971
v 0.2263961 0.3769325 -0.03054971
v 0.2263961 0.3769325 -0.03054971
v 0.2263961 0.3769325 -0.03054971
v 0.2263961 0.3769325 -0.03054971
vt 0.7051268 0.2251181
vt 0.7051268 0.2625934
vt 0.6219241 0.2625934
vt 0.9590594 0.4541951
vt 0.09595513 0.245589
vt -0.586006 0.2310458
vt 0 0.3865153
vt 0.9515309 0.4591995
vt 0.08234525 0.3728884
vt -0.5880497 0.2471231
vt -0.5959934 0.2402307
vt 0.972555 0.4159643
vt 0.9684363 0.4479612
vt 0.6003794 0.1603
vt -0.3385971 0.1805391
vt -0.4247717 0.187829
vt 0.9489104 0.3939185
vt 0.9489104 0.3939185
vt 0.9489104 0.3939185
vt 0.9489104 0.3939185
vt 0.7051268 0.2251181
vt 0.7051268 0.2251181
vt -2.980232E-08 0.149512
vt 0.9397312 0.3853601
vt 0.05899841 0.1439238
vt 0.05899841 0.1439238
vt 0.6219241 0.2625934
vt -0.1747924 0.2625934
vt -0.7051268 0.183683
vt -0.7051268 0.183683
vt 0.9590592 0.4541948
vt 0.9590592 0.4541948
vt -0.7051268 0.183683
vt -0.7051268 0.183683
vt 0.09595513 0.245589
vt -0.3023776 0.2625934
vt -0.3023776 0.2625934
vt -0.3023776 0.2625934
vt -0.3023776 0.2625934
vt -0.3023776 0.2625934
vt -0.586006 0.2310458
vt -0.4556913 0.2310457
vt -0.4556913 0.2310457
vt -0.4556913 0.2310457
vt -0.586006 0.2310458
vt 0.9397313 0.4582114
vt 0 0.3865153
vt 0.9397313 0.4582114
vt 0 0.3865153
vt -0.7051268 0.2625935
vt -0.7051268 0.2625935
vt 0.9515309 0.4591995
vt -0.7051268 0.214419
vt -0.7051268 0.214419
vt -0.4621331 0.2625934
vt -0.4621331 0.2625934
vt -0.588999 0.2625935
vt -0.588999 0.2625935
vt -0.463289 0.247123
vt -0.5880497 0.2471231
vt -0.5959934 0.2402307
vt -0.5959934 0.2402307
vt -0.5959934 0.2402307
vt -0.5959934 0.2402307
vt -0.5959934 0.2402307
vt 0.972555 0.4159643
vt 0.7051268 0.1285838
vt -0.7051268 0.306753
vt -0.7051268 0.306753
vt -0.7051268 0.306753
vt -0.7051268 0.1453994
vt -0.7051268 0.4373869
vt 0.6003794 0.1603
vt -0.2683526 0.1603
vt -0.2683526 0.1603
vt -0.6003794 0.2683525
vt -0.3385971 0.1805391
vt -0.5683855 0.338597
vt -0.5683855 0.338597
vt -0.4247717 0.187829
vt -0.5792514 0.187829
vt -0.5792514 0.187829
vt -0.5792514 0.4247717
vt -0.5792514 0.4247717
vn -0.06153144 -0.7300162 -0.6806543
vn -0.06153144 -0.7300162 -0.6806543
vn -0.06153144 -0.7300162 -0.6806543
vn -1 0 0
vn 0 0 1
vn 0.2607268 0.8039758 -0.5344571
vn 0 0 1
vn -1 0 0
vn 0 0 1
vn 0.4660225 0.8213634 -0.3289152
vn 0.2607268 0.8039758 -0.5344571
vn -1 0 0
vn -1 0 0
vn -0.06153285 -0.7300175 -0.6806527
vn 0.9904478 0.1189941 0.06966785
vn 0.9904478 0.1189941 0.06966785
vn -1 0 0
vn -1 0 0
vn -1 0 0
vn -1 0 0
vn -0.06153285 -0.7300175 -0.6806527
vn -0.06153236 -0.730018 -0.6806523
vn 0 0 1
vn -1 0 0
vn 0 0 1
vn 0 0 1
vn -0.06153285 -0.7300175 -0.6806527
vn 0.9153755 -0.3739295 -0.1492123
vn 0.2607268 0.8039758 -0.5344571
vn 0.2607275 0.8039748 -0.5344583
vn -1 0 0
vn -1 0 0
vn 0.2607271 0.8039755 -0.5344574
vn 0.2607271 0.8039753 -0.5344578
vn 0 0 1
vn 0.9904476 0.1189943 0.06966969
vn 0.9904478 0.1189941 0.06966785
vn 0.9904478 0.1189939 0.06966746
vn 0.9153755 -0.3739295 -0.1492123
vn 0.9153754 -0.3739302 -0.1492121
vn 0.4660225 0.8213634 -0.3289152
vn 0.9904476 0.1189943 0.06966969
vn 0.9904486 0.1189852 0.06967165
vn 0.9904478 0.1189939 0.06966746
vn 0.2607271 0.8039753 -0.5344578
vn -1 0 0
vn 0 0 1
vn -1 0 0
vn 0 0 1
vn 0.145191 0.9859512 0.0825815
vn 0.1451907 0.9859514 0.08257995
vn -1 0 0
vn 0.2607275 0.8039748 -0.5344583
vn 0.145191 0.9859512 0.0825815
vn 0.9904476 0.1189943 0.06966969
vn 0.9904486 0.1189852 0.06967165
vn 0.1451907 0.9859514 0.08257995
vn 0.1451867 0.9859519 0.08258126
vn 0.9904486 0.1189852 0.06967165
vn 0.1451867 0.9859519 0.08258126
vn 0.4660225 0.8213634 -0.3289152
vn 0.2607275 0.8039748 -0.5344583
vn 0.145191 0.9859512 0.0825815
vn 0.1451907 0.9859514 0.08257995
vn 0.1451867 0.9859519 0.08258126
vn -1 0 0
vn -0.06153236 -0.730018 -0.6806523
vn 0.3279198 0.1206098 -0.9369749
vn 0.3279195 0.1206102 -0.9369749
vn 0.3279197 0.1206092 -0.9369749
vn 0.2607271 0.8039755 -0.5344574
vn 0.3279198 0.1206098 -0.9369749
vn -0.06153236 -0.730018 -0.6806523
vn 0.9153755 -0.3739295 -0.1492123
vn 0.9153754 -0.3739302 -0.1492121
vn 0.3279197 0.1206092 -0.9369749
vn 0.9153754 -0.3739302 -0.1492121
vn 0.3279195 0.1206102 -0.9369749
vn 0.3279197 0.1206092 -0.9369749
vn 0.9904478 0.1189939 0.06966746
vn 0.2607271 0.8039755 -0.5344574
vn 0.2607271 0.8039753 -0.5344578
vn 0.3279198 0.1206098 -0.9369749
vn 0.3279195 0.1206102 -0.9369749
g wall__sh_59_0
f 7/7/7 23/23/23 25/25/25
f 17/17/17 24/24/24 46/46/46
f 8/8/8 4/4/4 18/18/18
f 47/47/47 26/26/26 5/5/5
f 52/52/52 19/19/19 48/48/48
f 49/49/49 35/35/35 9/9/9
f 12/12/12 31/31/31 13/13/13
f 20/20/20 32/32/32 66/66/66
f 3/3/3 2/2/2 1/1/1
f 6/6/6 29/29/29 11/11/11
f 61/61/61 10/10/10 41/41/41
f 62/62/62 30/30/30 53/53/53
f 55/55/55 36/36/36 42/42/42
f 43/43/43 59/59/59 56/56/56
f 63/63/63 54/54/54 50/50/50
f 64/64/64 51/51/51 57/57/57
f 58/58/58 60/60/60 65/65/65
f 14/14/14 27/27/27 21/21/21
f 16/16/16 37/37/37 15/15/15
f 44/44/44 38/38/38 80/80/80
f 73/73/73 22/22/22 67/67/67
f 39/39/39 28/28/28 74/74/74
f 75/75/75 77/77/77 40/40/40
f 81/81/81 71/71/71 33/33/33
f 34/34/34 45/45/45 82/82/82
f 68/68/68 72/72/72 83/83/83
f 69/69/69 84/84/84 78/78/78
f 79/79/79 76/76/76 70/70/70
