g wall__sh_58
v 0.3236441 -0.5713875 0.2936214
v 0.2565556 -0.5713875 0.0364514
v -0.4725763 -0.5713875 0.2936214
v -0.4305982 -0.5713875 -0.05652505
v 0.271078 -0.5202989 0.008876562
v 0.5649245 -0.003750861 0.2936214
v 0.3870624 0.5713875 0.2936214
v -0.4472833 -0.4532492 -0.1270911
v -0.5649245 -0.1375132 0.2936214
v -0.4522014 0.5564576 0.2936214
v -0.3291442 -0.1375918 -0.2936215
v -0.3021557 0.2623905 -0.1990286
v 0.3236441 -0.5713875 0.2936214
v 0.3236441 -0.5713875 0.2936214
v 0.3236441 -0.5713875 0.2936214
v 0.2565556 -0.5713875 0.0364514
v 0.2565556 -0.5713875 0.0364514
v 0.2565556 -0.5713875 0.0364514
v 0.2565556 -0.5713875 0.0364514
v -0.4725763 -0.5713875 0.2936214
v -0.4725763 -0.5713875 0.2936214
v -0.4725763 -0.5713875 0.2936214
v -0.4725763 -0.5713875 0.2936214
v -0.4725763 -0.5713875 0.2936214
v -0.4305982 -0.5713875 -0.05652505
v -0.4305982 -0.5713875 -0.05652505
v 0.271078 -0.5202989 0.008876562
v 0.271078 -0.5202989 0.008876562
v 0.271078 -0.5202989 0.008876562
v 0.271078 -0.5202989 0.008876562
v 0.271078 -0.5202989 0.008876562
v 0.5649245 -0.003750861 0.2936214
v 0.5649245 -0.003750861 0.2936214
v 0.5649245 -0.003750861 0.2936214
v 0.5649245 -0.003750861 0.2936214
v 0.5649245 -0.003750861 0.2936214
v 0.5649245 -0.003750861 0.2936214
v 0.3870624 0.5713875 0.2936214
v 0.3870624 0.5713875 0.2936214
v -0.4472833 -0.4532492 -0.1270911
v -0.4472833 -0.4532492 -0.1270911
v -0.4472833 -0.4532492 -0.1270911
v -0.4472833 -0.4532492 -0.1270911
v -0.4472833 -0.4532492 -0.1270911
v -0.5649245 -0.1375132 0.2936214
v -0.5649245 -0.1375132 0.2936214
v -0.5649245 -0.1375132 0.2936214
v -0.5649245 -0.1375132 0.2936214
v -0.5649245 -0.1375132 0.2936214
v -0.4522014 0.5564576 0.2936214
v -0.4522014 0.5564576 0.2936214
v -0.4522014 0.5564576 0.2936214
v -0.3291442 -0.1375918 -0.2936215
v -0.3291442 -0.1375918 -0.2936215
v -0.3291442 -0.1375918 -0.2936215
v -0.3021557 0.2623905 -0.1990286
v -0.3021557 0.2623905 -0.1990286
v -0.3021557 0.2623905 -0.1990286
v -0.3021557 0.2623905 -0.1990286
v -0.3021557 0.2623905 -0.1990286
vt 0.9846752 0.1953846
vt 0.9713422 0.1919064
vt 0.9846751 0.1541046
vt 0.9665219 0.1562809
vt -0.007150759 0.1902681
vt 0.6404837 0.1148885
vt 0.608449 0.2312952
vt 0.02418141 0.1557323
vt 0.4369868 0.08781527
vt 0.4572895 0.2282735
vt -0.02897616 0.1043586
vt -0.02212106 0.1374601
vt 0.005825777 0.2625934
vt 0.5970268 0
vt 0.005825777 0.2625934
vt 0.9713422 0.1919064
vt 0.005825779 0.1972721
vt 0.1197919 -0.005825783
vt 0.1197919 -0.005825783
vt 0.9846751 0.1541046
vt 0.4536197 0
vt -0.005825774 0.2625934
vt 0.4536197 0
vt -0.005825774 0.2625934
vt -0.005825778 0.1736561
vt -0.05474551 -0.005825783
vt -0.007150759 0.1902681
vt 0.1234806 0.007150756
vt 0.1234806 0.007150756
vt 0.1234806 0.007150756
vt 0.1234806 0.007150756
vt -0.1383542 0.2625934
vt 0.6404837 0.1148885
vt 0.6404837 0.1148885
vt 0.1981178 0.1383542
vt 0.6404837 0.1148885
vt 0.1981178 0.1383542
vt 0.1529407 0.2625934
vt 0.1529407 0.2844397
vt -0.05898356 0.0241814
vt 0.02418141 0.1557323
vt -0.05898356 0.0241814
vt -0.05898356 0.0241814
vt 0.02418141 0.1557323
vt 0.1043785 0.2625934
vt 0.4369868 0.08781527
vt 0.1043785 0.2625934
vt 0.1043785 0.2625934
vt 0.1043785 0.2625934
vt -0.06023273 0.2625934
vt 0.4572895 0.2282735
vt 0.2806475 0.2625934
vt -0.02897616 0.1043586
vt 0.1043586 0.1134335
vt 0.1043586 0.1134335
vt -0.02212106 0.2059543
vt -0.02212106 0.2059543
vt -0.02212106 0.2059543
vt 0.2059543 0.1374601
vt 0.2059543 0.1374601
vn 0 -1 0
vn 0 -1 0
vn 0 -1 0
vn 0 -1 0
vn 0.8948813 -0.3803797 -0.2334496
vn 0 0 1
vn 0 0 1
vn -0.9714344 -0.206765 -0.1164628
vn 0 0 1
vn 0 0 1
vn 0.11634 -0.4971573 -0.8598254
vn -0.01523674 0.8565128 -0.5159007
vn 0.8948813 -0.3803797 -0.2334496
vn 0 0 1
vn 0.8948815 -0.3803795 -0.2334495
vn 0 -1 0
vn 0.8948813 -0.3803797 -0.2334496
vn 0.1163401 -0.4971571 -0.8598255
vn 0.1163401 -0.4971571 -0.8598255
vn 0 -1 0
vn 0 0 1
vn -0.9714344 -0.206765 -0.1164628
vn 0 0 1
vn -0.9714342 -0.2067653 -0.1164629
vn -0.9714344 -0.206765 -0.1164628
vn 0.1163401 -0.4971571 -0.8598255
vn 0.8948815 -0.3803795 -0.2334495
vn 0.11634 -0.4971573 -0.8598254
vn 0.1163401 -0.4971571 -0.8598255
vn 0.5246339 0.1622435 -0.835725
vn 0.5246339 0.1622435 -0.835725
vn 0.8948815 -0.3803795 -0.2334495
vn 0 0 1
vn 0 0 1
vn 0.5246339 0.1622436 -0.8357251
vn 0 0 1
vn 0.5246339 0.1622435 -0.835725
vn -0.01523674 0.8565128 -0.5159007
vn 0.5246339 0.1622436 -0.8357251
vn 0.1163401 -0.4971571 -0.8598255
vn -0.9714342 -0.2067653 -0.1164629
vn 0.11634 -0.4971573 -0.8598254
vn 0.1163401 -0.4971571 -0.8598255
vn -0.9176216 0.1490512 -0.3684486
vn -0.9714342 -0.2067653 -0.1164629
vn 0 0 1
vn -0.9176216 0.1490512 -0.3684486
vn -0.9176216 0.1490512 -0.3684486
vn -0.9176216 0.1490512 -0.3684486
vn -0.01523674 0.8565128 -0.5159007
vn 0 0 1
vn -0.9176216 0.1490512 -0.3684486
vn 0.5246339 0.1622435 -0.835725
vn -0.9176216 0.1490512 -0.3684486
vn -0.9176216 0.1490512 -0.3684486
vn 0.5246339 0.1622436 -0.8357251
vn 0.5246339 0.1622435 -0.835725
vn 0.5246339 0.1622435 -0.835725
vn -0.9176216 0.1490512 -0.3684486
vn -0.9176216 0.1490512 -0.3684486
g wall__sh_58_0
f 2/2/2 1/1/1 3/3/3
f 20/20/20 4/4/4 16/16/16
f 21/21/21 14/14/14 6/6/6
f 9/9/9 23/23/23 33/33/33
f 34/34/34 7/7/7 10/10/10
f 46/46/46 36/36/36 51/51/51
f 13/13/13 17/17/17 5/5/5
f 32/32/32 15/15/15 27/27/27
f 8/8/8 25/25/25 22/22/22
f 18/18/18 26/26/26 40/40/40
f 12/12/12 50/50/50 38/38/38
f 56/56/56 39/39/39 35/35/35
f 41/41/41 24/24/24 45/45/45
f 42/42/42 11/11/11 28/28/28
f 29/29/29 19/19/19 43/43/43
f 57/57/57 37/37/37 30/30/30
f 58/58/58 31/31/31 53/53/53
f 47/47/47 52/52/52 59/59/59
f 48/48/48 60/60/60 54/54/54
f 55/55/55 44/44/44 49/49/49
