g wall__sh_19
v -0.5549927 -0.2822304 -0.2873626
v -0.2795734 0.2822304 -0.2873626
v 0.3456954 -0.2822304 0.2068324
v -0.2906162 0.1515658 -0.04271048
v 0.2950837 -0.2822304 0.2873626
v 0.309606 -0.2311416 0.2597876
v -0.5205656 -0.2822304 -0.1275787
v -0.4337097 -0.2822304 0.09005219
v -0.4087555 -0.1640919 0.1238199
v -0.3920703 -0.2822304 0.1943861
v 0.5549927 -0.2822304 -0.2873626
v 0.4754645 0.01022869 -0.2873626
v 0.5222669 -0.2822304 -0.07411748
v 0.474293 -0.141966 -0.01005086
v -0.5549927 -0.2822304 -0.2873626
v -0.5549927 -0.2822304 -0.2873626
v -0.5549927 -0.2822304 -0.2873626
v -0.2795734 0.2822304 -0.2873626
v -0.2795734 0.2822304 -0.2873626
v -0.2795734 0.2822304 -0.2873626
v -0.2795734 0.2822304 -0.2873626
v -0.2795734 0.2822304 -0.2873626
v 0.3456954 -0.2822304 0.2068324
v 0.3456954 -0.2822304 0.2068324
v 0.3456954 -0.2822304 0.2068324
v 0.3456954 -0.2822304 0.2068324
v 0.3456954 -0.2822304 0.2068324
v 0.3456954 -0.2822304 0.2068324
v -0.2906162 0.1515658 -0.04271048
v -0.2906162 0.1515658 -0.04271048
v -0.2906162 0.1515658 -0.04271048
v 0.2950837 -0.2822304 0.2873626
v 0.2950837 -0.2822304 0.2873626
v 0.2950837 -0.2822304 0.2873626
v 0.2950837 -0.2822304 0.2873626
v 0.309606 -0.2311416 0.2597876
v 0.309606 -0.2311416 0.2597876
v 0.309606 -0.2311416 0.2597876
v 0.309606 -0.2311416 0.2597876
v 0.309606 -0.2311416 0.2597876
v 0.309606 -0.2311416 0.2597876
v -0.5205656 -0.2822304 -0.1275787
v -0.5205656 -0.2822304 -0.1275787
v -0.5205656 -0.2822304 -0.1275787
v -0.5205656 -0.2822304 -0.1275787
v -0.5205656 -0.2822304 -0.1275787
v -0.4337097 -0.2822304 0.09005219
v -0.4337097 -0.2822304 0.09005219
v -0.4337097 -0.2822304 0.09005219
v -0.4337097 -0.2822304 0.09005219
v -0.4087555 -0.1640919 0.1238199
v -0.4087555 -0.1640919 0.1238199
v -0.4087555 -0.1640919 0.1238199
v -0.4087555 -0.1640919 0.1238199
v -0.3920703 -0.2822304 0.1943861
v -0.3920703 -0.2822304 0.1943861
v -0.3920703 -0.2822304 0.1943861
v 0.5549927 -0.2822304 -0.2873626
v 0.5549927 -0.2822304 -0.2873626
v 0.5549927 -0.2822304 -0.2873626
v 0.5549927 -0.2822304 -0.2873626
v 0.5549927 -0.2822304 -0.2873626
v 0.4754645 0.01022869 -0.2873626
v 0.4754645 0.01022869 -0.2873626
v 0.4754645 0.01022869 -0.2873626
v 0.5222669 -0.2822304 -0.07411748
v 0.5222669 -0.2822304 -0.07411748
v 0.474293 -0.141966 -0.01005086
v 0.474293 -0.141966 -0.01005086
v 0.474293 -0.141966 -0.01005086
v 0.474293 -0.141966 -0.01005086
v 0.474293 -0.141966 -0.01005086
vt -0.005825785 0.05129162
vt -0.02617127 0.05129162
vt 0.9671672 0.1945301
vt -0.02897614 0.1134334
vt 0.9713422 0.1919064
vt 0.1234806 0.1902681
vt -0.005825782 0.09187683
vt 0.9611127 0.154122
vt 0.05898358 0.02418146
vt 0.05474554 -0.005825783
vt 0.6317558 0
vt 0.1656087 0.0512916
vt 0.9526013 0.2036846
vt 0.1653112 0.1217289
vt 0.9415456 0.1478343
vt 0.4318365 0
vt 0.9415456 0.1478343
vt 0.1375475 0.05129161
vt 0.1375475 0.05129161
vt 0.4814422 0.1142457
vt -0.02617127 0.05129162
vt 0.4814422 0.1142457
vt 0.9671672 0.1945301
vt 0.9671671 0.1945304
vt 0.9671672 0.1945301
vt 0.9671672 0.1945301
vt 0.00582578 0.1768174
vt 0.00582578 0.1768174
vt 0.02897615 0.1043587
vt 0.1043587 0.1134334
vt 0.1043587 0.1134334
vt -0.1197919 -0.005825783
vt 0.9713422 0.1919064
vt 0.005825779 0.1972721
vt 0.005825779 0.1972721
vt -0.1234806 0.007150794
vt -0.1234806 0.007150794
vt -0.1234806 0.007150794
vt 0.1234806 0.1902681
vt 0.1234806 0.1902681
vt -0.007150797 0.1902681
vt 0.9498295 0.1496189
vt 0.9498295 0.1496189
vt -0.005825782 0.09187683
vt -0.005825782 0.09187683
vt -0.005825782 0.09187683
vt 0.9611126 0.1541221
vt 0.9611126 0.1541221
vt -0.005825779 0.1471552
vt -0.005825779 0.1471552
vt 0.02418147 0.1557322
vt 0.05898358 0.02418146
vt 0.02418147 0.1557322
vt 0.02418147 0.1557322
vt 0.9665219 0.1562809
vt 0.05474554 -0.005825783
vt -0.005825778 0.1736561
vt 0.9415455 0.2053811
vt 0.9415455 0.2053811
vt 0.6317558 0
vt 0.005825788 0.05129162
vt 0.005825788 0.05129162
vt 0.1656087 0.0512916
vt 0.6174319 0.05919311
vt -0.06845897 0.05129162
vt 0.005825786 0.105456
vt 0.005825786 0.105456
vt -0.02980143 0.121729
vt -0.02980143 0.121729
vt -0.02980143 0.121729
vt -0.02980143 0.121729
vt -0.02980143 0.121729
vn -0.8823331 0.4305199 0.1901078
vn 0.3009759 0.835466 0.4597934
vn 0 -1 0
vn 0.3009759 0.835466 0.4597934
vn 0 -1 0
vn 0.3009759 0.835466 0.4597934
vn -0.8823331 0.4305199 0.1901078
vn 0 -1 0
vn -0.1163401 0.4971571 0.8598255
vn -0.11634 0.4971583 0.8598248
vn 0 0 -1
vn 0.300976 0.835466 0.4597934
vn 0 -1 0
vn 0.300976 0.835466 0.4597934
vn 0 -1 0
vn 0 0 -1
vn 0 -1 0
vn -0.8823331 0.4305199 0.1901078
vn -0.882333 0.4305199 0.1901079
vn 0 0 -1
vn 0.3009759 0.8354661 0.4597934
vn 0 0 -1
vn 0 -1 0
vn 0 -1 0
vn 0 -1 0
vn 0 -1 0
vn 0.8457558 0.04648541 0.5315413
vn 0.845756 0.04648503 0.5315412
vn -0.1163401 0.4971571 0.8598255
vn -0.882333 0.4305199 0.1901079
vn -0.8823331 0.4305199 0.1901077
vn -0.11634 0.4971583 0.8598248
vn 0 -1 0
vn 0.8457558 0.04648518 0.5315413
vn 0.8457558 0.04648541 0.5315413
vn -0.1163401 0.4971571 0.8598255
vn -0.11634 0.4971583 0.8598248
vn -0.11634 0.4971573 0.8598253
vn 0.300976 0.835466 0.4597934
vn 0.3009759 0.8354661 0.4597934
vn 0.8457558 0.04648518 0.5315413
vn 0 -1 0
vn 0 -1 0
vn -0.882333 0.4305199 0.1901079
vn -0.8823331 0.4305199 0.1901077
vn -0.9250073 0.08986766 0.3691683
vn 0 -1 0
vn 0 -1 0
vn -0.9250073 0.08986766 0.3691683
vn -0.9250075 0.08986779 0.369168
vn -0.8823331 0.4305199 0.1901077
vn -0.11634 0.4971573 0.8598253
vn -0.9250073 0.08986766 0.3691683
vn -0.9250075 0.08986779 0.369168
vn 0 -1 0
vn -0.11634 0.4971573 0.8598253
vn -0.9250075 0.08986779 0.369168
vn 0 -1 0
vn 0 -1 0
vn 0 0 -1
vn 0.9545491 0.25957 0.1464902
vn 0.9545493 0.2595694 0.1464906
vn 0.3009759 0.8354661 0.4597934
vn 0 0 -1
vn 0.9545491 0.25957 0.1464902
vn 0.845756 0.04648503 0.5315412
vn 0.9545493 0.2595694 0.1464906
vn 0.8457558 0.04648518 0.5315413
vn 0.8457558 0.04648541 0.5315413
vn 0.845756 0.04648503 0.5315412
vn 0.9545491 0.25957 0.1464902
vn 0.9545493 0.2595694 0.1464906
g wall__sh_19_0
f 42/42/42 3/3/3 8/8/8
f 15/15/15 23/23/23 43/43/43
f 47/47/47 24/24/24 5/5/5
f 48/48/48 33/33/33 55/55/55
f 11/11/11 16/16/16 20/20/20
f 13/13/13 25/25/25 58/58/58
f 26/26/26 17/17/17 59/59/59
f 60/60/60 22/22/22 64/64/64
f 6/6/6 2/2/2 4/4/4
f 18/18/18 1/1/1 7/7/7
f 36/36/36 29/29/29 9/9/9
f 10/10/10 32/32/32 37/37/37
f 30/30/30 19/19/19 44/44/44
f 51/51/51 31/31/31 45/45/45
f 56/56/56 38/38/38 52/52/52
f 53/53/53 46/46/46 49/49/49
f 50/50/50 57/57/57 54/54/54
f 12/12/12 39/39/39 14/14/14
f 21/21/21 40/40/40 63/63/63
f 41/41/41 34/34/34 68/68/68
f 69/69/69 35/35/35 27/27/27
f 28/28/28 66/66/66 70/70/70
f 61/61/61 65/65/65 71/71/71
f 72/72/72 67/67/67 62/62/62
