g wall__sh_57
v -0.03772473 -0.3225703 -0.4159476
v 0.2858558 0.2367431 -0.4159476
v -0.02051902 -0.05808818 -0.4159476
v 0.2858558 0.3761746 0.4159477
v 0.2858558 0.3954164 -0.07049912
v 0.2858558 0.4043969 -0.2975309
v 0.1728785 0.395979 0.4159477
v -0.1756799 0.3878883 0.004517257
v -0.1179326 0.4626943 0.01810294
v -0.005685806 -0.3420256 -0.4159476
v 0.2858558 -0.4626943 -0.4159476
v 0.2858558 -0.2113029 0.4159477
v 0.2858558 -0.3987087 -0.204209
v -0.04273987 -0.3232599 -0.4046008
v -0.1037869 -0.05003035 0.4159477
v -0.2858558 -0.04230022 0.1921557
v -0.03772473 -0.3225703 -0.4159476
v -0.03772473 -0.3225703 -0.4159476
v -0.03772473 -0.3225703 -0.4159476
v -0.03772473 -0.3225703 -0.4159476
v 0.2858558 0.2367431 -0.4159476
v 0.2858558 0.2367431 -0.4159476
v 0.2858558 0.2367431 -0.4159476
v 0.2858558 0.2367431 -0.4159476
v 0.2858558 0.2367431 -0.4159476
v 0.2858558 0.2367431 -0.4159476
v -0.02051902 -0.05808818 -0.4159476
v -0.02051902 -0.05808818 -0.4159476
v -0.02051902 -0.05808818 -0.4159476
v 0.2858558 0.3761746 0.4159477
v 0.2858558 0.3761746 0.4159477
v 0.2858558 0.3761746 0.4159477
v 0.2858558 0.3761746 0.4159477
v 0.2858558 0.3954164 -0.07049912
v 0.2858558 0.3954164 -0.07049912
v 0.2858558 0.3954164 -0.07049912
v 0.2858558 0.3954164 -0.07049912
v 0.2858558 0.3954164 -0.07049912
v 0.2858558 0.4043969 -0.2975309
v 0.2858558 0.4043969 -0.2975309
v 0.2858558 0.4043969 -0.2975309
v 0.2858558 0.4043969 -0.2975309
v 0.1728785 0.395979 0.4159477
v 0.1728785 0.395979 0.4159477
v 0.1728785 0.395979 0.4159477
v 0.1728785 0.395979 0.4159477
v -0.1756799 0.3878883 0.004517257
v -0.1756799 0.3878883 0.004517257
v -0.1756799 0.3878883 0.004517257
v -0.1756799 0.3878883 0.004517257
v -0.1756799 0.3878883 0.004517257
v -0.1756799 0.3878883 0.004517257
v -0.1756799 0.3878883 0.004517257
v -0.1179326 0.4626943 0.01810294
v -0.1179326 0.4626943 0.01810294
v -0.1179326 0.4626943 0.01810294
v -0.005685806 -0.3420256 -0.4159476
v -0.005685806 -0.3420256 -0.4159476
v -0.005685806 -0.3420256 -0.4159476
v -0.005685806 -0.3420256 -0.4159476
v 0.2858558 -0.4626943 -0.4159476
v 0.2858558 -0.4626943 -0.4159476
v 0.2858558 -0.2113029 0.4159477
v 0.2858558 -0.2113029 0.4159477
v 0.2858558 -0.3987087 -0.204209
v 0.2858558 -0.3987087 -0.204209
v 0.2858558 -0.3987087 -0.204209
v 0.2858558 -0.3987087 -0.204209
v 0.2858558 -0.3987087 -0.204209
v 0.2858558 -0.3987087 -0.204209
v 0.2858558 -0.3987087 -0.204209
v 0.2858558 -0.3987087 -0.204209
v -0.04273987 -0.3232599 -0.4046008
v -0.04273987 -0.3232599 -0.4046008
v -0.04273987 -0.3232599 -0.4046008
v -0.04273987 -0.3232599 -0.4046008
v -0.1037869 -0.05003035 0.4159477
v -0.1037869 -0.05003035 0.4159477
v -0.1037869 -0.05003035 0.4159477
v -0.1037869 -0.05003035 0.4159477
v -0.1037869 -0.05003035 0.4159477
v -0.2858558 -0.04230022 0.1921557
v -0.2858558 -0.04230022 0.1921557
v -0.2858558 -0.04230022 0.1921557
vt 0.94172 0.2699359
vt 1 0.3831397
vt 0.9448189 0.3234664
vt 0.7051268 0.2625934
vt 0.969995 0.4670455
vt 0.9841195 0.4676041
vt 0.6764305 0.2625934
vt 0.5133888 0.1580899
vt 0.6025644 0.5323895
vt 0.9474906 0.2659981
vt 1 0.241575
vt 0.9397312 0.4292988
vt 0.9783137 0.4176396
vt 0.3327567 0.0541737
vt 0.9298216 0.3250973
vt 0.4041207 0.2057502
vt 0.3329319 0.05129161
vt 0.94172 0.2699359
vt 0.3329319 0.05129161
vt -0.6229372 0.05129161
vt 0.9914867 0.4571736
vt 0.7051268 0.4749978
vt 1 0.3831397
vt 1 0.3831397
vt 0.9914867 0.4571736
vt 0.9914867 0.4571736
vt 0.6273075 0.4001105
vt 0.4001105 0.0512916
vt 0.6273075 0.4001105
vt 0.9397312 0.4658481
vt 0.9397312 0.4658481
vt 1 0.4113602
vt 1 0.4113602
vt 0.7051268 0.1390356
vt 0.7051268 0.1390356
vt 0.7051268 0.1390356
vt 0.969995 0.4670452
vt 0.969995 0.4670455
vt 0.7051268 0.5175819
vt 0.7051268 0.5175819
vt 0.7051268 0.5175819
vt 0.7051268 0.08136946
vt 0.6764305 0.2625934
vt 0.5154438 0.2625934
vt 0.9796517 0.4153686
vt 0.5154438 0.2625934
vt 0.5878965 0.5133888
vt 0.5878965 0.5133888
vt 0.5133888 0.1580899
vt 0.5133888 0.1580899
vt 0.5133888 0.1580899
vt 0.5133888 0.1580899
vt 0.5133888 0.1580899
vt 0.6025644 0.1615406
vt 0.6025644 0.1615406
vt 0.5323895 0.1615407
vt 0.9474906 0.2659981
vt -0.6310751 0.05129161
vt -0.6310751 0.05129161
vt -0.6310751 0.05129161
vt 0.9914868 0.4136589
vt -0.7051268 0.05129161
vt 1 0.2924561
vt -0.7051268 0.2625934
vt 0.9783137 0.4176397
vt 0.9783137 0.4176397
vt 0.9783137 0.4176396
vt -0.7051268 0.1050733
vt -0.7051268 0.1050733
vt -0.7051268 0.1050733
vt -0.7051268 0.1050733
vt -0.7051268 0.1050733
vt 0.3327567 0.0541737
vt -0.6216633 0.0541737
vt -0.6216633 0.0541737
vt -0.6216633 0.0541737
vt 0.9298216 0.3250973
vt 0.4021572 0.2625934
vt 0.4021572 0.2625934
vt -0.6061574 0.2625934
vt -0.6061574 0.2625934
vt 0.4041207 0.2057502
vt -0.5599118 0.2057502
vt -0.5599118 0.2057502
vn 0 0 -1
vn 0 0 -1
vn 0 0 -1
vn 0.1725324 0.9842341 0.0389322
vn 1 0 0
vn 1 0 0
vn 0.1725327 0.9842342 0.03893226
vn -0.9143592 0.05948304 -0.4005111
vn -0.4853943 0.5043997 -0.7141242
vn 0 0 -1
vn 0 0 -1
vn 1 0 0
vn 1 0 0
vn -0.9143591 0.05948322 -0.4005111
vn 0 0 1
vn -0.9143591 0.05948322 -0.4005111
vn -0.9143592 0.05948304 -0.4005111
vn 0 0 -1
vn -0.914356 0.05948754 -0.4005177
vn -0.4996391 -0.8228036 -0.2708414
vn 1 0 0
vn -0.4853941 0.5043987 -0.714125
vn 0 0 -1
vn 0 0 -1
vn 1 0 0
vn 1 0 0
vn -0.4853941 0.5043987 -0.714125
vn -0.9143592 0.05948304 -0.4005111
vn -0.4853945 0.5043989 -0.7141246
vn 1 0 0
vn 1 0 0
vn 0 0 1
vn 0 0 1
vn 0.1725328 0.9842341 0.03893257
vn 0.1725327 0.9842342 0.03893226
vn 0.1725324 0.9842341 0.0389322
vn 1 0 0
vn 1 0 0
vn -0.4853941 0.5043987 -0.714125
vn -0.4853943 0.5043997 -0.7141242
vn -0.4853945 0.5043989 -0.7141246
vn 0.1725328 0.9842341 0.03893257
vn 0.1725324 0.9842341 0.0389322
vn -0.6930422 0.4299064 0.5786821
vn 0 0 1
vn -0.6930431 0.4299037 0.578683
vn -0.4853943 0.5043997 -0.7141242
vn -0.4853945 0.5043989 -0.7141246
vn -0.6930422 0.4299064 0.5786821
vn -0.9143591 0.05948322 -0.4005111
vn -0.914356 0.05948754 -0.4005177
vn -0.6930431 0.4299037 0.578683
vn -0.6930426 0.4299041 0.5786834
vn 0.1725328 0.9842341 0.03893257
vn 0.1725327 0.9842342 0.03893226
vn -0.6930422 0.4299064 0.5786821
vn 0 0 -1
vn -0.4996391 -0.8228036 -0.2708414
vn -0.3683457 -0.8899419 0.2689328
vn -0.3683477 -0.8899401 0.268936
vn 1 0 0
vn -0.3683457 -0.8899419 0.2689328
vn 0 0 1
vn -0.3683456 -0.889942 0.2689326
vn 1 0 0
vn 1 0 0
vn 1 0 0
vn -0.3683457 -0.8899419 0.2689328
vn -0.3683456 -0.889942 0.2689326
vn -0.3683458 -0.889942 0.2689324
vn -0.3683459 -0.889942 0.2689323
vn -0.3683477 -0.8899401 0.268936
vn -0.914356 0.05948754 -0.4005177
vn -0.4996391 -0.8228036 -0.2708414
vn -0.3683459 -0.889942 0.2689323
vn -0.3683477 -0.8899401 0.268936
vn 0 0 1
vn -0.6930431 0.4299037 0.578683
vn -0.6930426 0.4299041 0.5786834
vn -0.3683456 -0.889942 0.2689326
vn -0.3683458 -0.889942 0.2689324
vn -0.6930426 0.4299041 0.5786834
vn -0.3683458 -0.889942 0.2689324
vn -0.3683459 -0.889942 0.2689323
g wall__sh_57_0
f 2/2/2 1/1/1 3/3/3
f 5/5/5 21/21/21 6/6/6
f 10/10/10 23/23/23 11/11/11
f 18/18/18 24/24/24 57/57/57
f 37/37/37 30/30/30 13/13/13
f 25/25/25 38/38/38 65/65/65
f 66/66/66 61/61/61 26/26/26
f 67/67/67 31/31/31 12/12/12
f 15/15/15 63/63/63 32/32/32
f 33/33/33 45/45/45 77/77/77
f 39/39/39 22/22/22 27/27/27
f 8/8/8 28/28/28 17/17/17
f 9/9/9 40/40/40 47/47/47
f 41/41/41 29/29/29 48/48/48
f 34/34/34 42/42/42 54/54/54
f 35/35/35 55/55/55 7/7/7
f 43/43/43 4/4/4 36/36/36
f 44/44/44 56/56/56 49/49/49
f 16/16/16 50/50/50 14/14/14
f 51/51/51 19/19/19 73/73/73
f 74/74/74 20/20/20 58/58/58
f 78/78/78 46/46/46 52/52/52
f 53/53/53 82/82/82 79/79/79
f 59/59/59 62/62/62 68/68/68
f 69/69/69 64/64/64 80/80/80
f 70/70/70 81/81/81 83/83/83
f 71/71/71 84/84/84 75/75/75
f 76/76/76 60/60/60 72/72/72
