g wall__sh_94
v -0.2822677 0.04501683 0.4159477
v -0.1565758 -0.0637337 0.3637244
v -0.3584089 0.2727246 0.4159477
v -0.3614134 0.2753578 0.4159477
v 0.2187295 0.530127 -0.4159476
v -0.4081513 0.3809155 0.3455397
v 0.426708 -0.2508079 0.0592919
v -0.2810597 -0.02274758 0.26739
v -0.4003345 0.02877349 -0.4159476
v -0.07024205 -0.1782836 0.2394173
v 0.3314269 -0.4915612 -0.1385098
v 0.4662268 -0.06898659 0.0006443262
v 0.4367356 0.3390613 -0.4159476
v 0.4589571 -0.2086454 0.03219593
v 0.3610005 -0.5276496 -0.4159476
v 0.3674188 -0.530127 -0.3735212
v -0.4309821 0.3983117 0.2321825
v -0.3242588 0.5076132 -0.4159476
v -0.4662268 0.2205014 -0.4159476
v -0.2822677 0.04501683 0.4159477
v -0.2822677 0.04501683 0.4159477
v -0.2822677 0.04501683 0.4159477
v -0.2822677 0.04501683 0.4159477
v -0.2822677 0.04501683 0.4159477
v -0.1565758 -0.0637337 0.3637244
v -0.1565758 -0.0637337 0.3637244
v -0.1565758 -0.0637337 0.3637244
v -0.1565758 -0.0637337 0.3637244
v -0.1565758 -0.0637337 0.3637244
v -0.3584089 0.2727246 0.4159477
v -0.3584089 0.2727246 0.4159477
v -0.3584089 0.2727246 0.4159477
v -0.3584089 0.2727246 0.4159477
v -0.3614134 0.2753578 0.4159477
v -0.3614134 0.2753578 0.4159477
v -0.3614134 0.2753578 0.4159477
v 0.2187295 0.530127 -0.4159476
v 0.2187295 0.530127 -0.4159476
v 0.2187295 0.530127 -0.4159476
v 0.2187295 0.530127 -0.4159476
v 0.2187295 0.530127 -0.4159476
v 0.2187295 0.530127 -0.4159476
v 0.2187295 0.530127 -0.4159476
v -0.4081513 0.3809155 0.3455397
v -0.4081513 0.3809155 0.3455397
v -0.4081513 0.3809155 0.3455397
v 0.426708 -0.2508079 0.0592919
v 0.426708 -0.2508079 0.0592919
v 0.426708 -0.2508079 0.0592919
v -0.2810597 -0.02274758 0.26739
v -0.2810597 -0.02274758 0.26739
v -0.2810597 -0.02274758 0.26739
v -0.2810597 -0.02274758 0.26739
v -0.2810597 -0.02274758 0.26739
v -0.4003345 0.02877349 -0.4159476
v -0.4003345 0.02877349 -0.4159476
v -0.4003345 0.02877349 -0.4159476
v -0.4003345 0.02877349 -0.4159476
v -0.4003345 0.02877349 -0.4159476
v -0.4003345 0.02877349 -0.4159476
v -0.4003345 0.02877349 -0.4159476
v -0.07024205 -0.1782836 0.2394173
v -0.07024205 -0.1782836 0.2394173
v -0.07024205 -0.1782836 0.2394173
v -0.07024205 -0.1782836 0.2394173
v 0.3314269 -0.4915612 -0.1385098
v 0.3314269 -0.4915612 -0.1385098
v 0.3314269 -0.4915612 -0.1385098
v 0.3314269 -0.4915612 -0.1385098
v 0.4662268 -0.06898659 0.0006443262
v 0.4662268 -0.06898659 0.0006443262
v 0.4662268 -0.06898659 0.0006443262
v 0.4662268 -0.06898659 0.0006443262
v 0.4662268 -0.06898659 0.0006443262
v 0.4662268 -0.06898659 0.0006443262
v 0.4662268 -0.06898659 0.0006443262
v 0.4367356 0.3390613 -0.4159476
v 0.4367356 0.3390613 -0.4159476
v 0.4589571 -0.2086454 0.03219593
v 0.4589571 -0.2086454 0.03219593
v 0.4589571 -0.2086454 0.03219593
v 0.4589571 -0.2086454 0.03219593
v 0.3610005 -0.5276496 -0.4159476
v 0.3610005 -0.5276496 -0.4159476
v 0.3610005 -0.5276496 -0.4159476
v 0.3610005 -0.5276496 -0.4159476
v 0.3674188 -0.530127 -0.3735212
v 0.3674188 -0.530127 -0.3735212
v 0.3674188 -0.530127 -0.3735212
v 0.3674188 -0.530127 -0.3735212
v -0.4309821 0.3983117 0.2321825
v -0.4309821 0.3983117 0.2321825
v -0.4309821 0.3983117 0.2321825
v -0.4309821 0.3983117 0.2321825
v -0.4309821 0.3983117 0.2321825
v -0.4309821 0.3983117 0.2321825
v -0.3242588 0.5076132 -0.4159476
v -0.3242588 0.5076132 -0.4159476
v -0.3242588 0.5076132 -0.4159476
v -0.4662268 0.2205014 -0.4159476
v -0.4662268 0.2205014 -0.4159476
v -0.4662268 0.2205014 -0.4159476
vt 0.6717961 0.1608826
vt -0.2742019 0.1684522
vt 0.6580823 0.2069702
vt 0.6575412 0.2075032
vt 0.3695296 0.05129158
vt 0.2103016 0.2447098
vt -0.4223562 0.1209352
vt -0.2425829 0.2248597
vt -0.212287 0.05129161
vt -0.2961307 0.1393564
vt -0.3981548 0.05978375
vt -0.4323941 0.1671179
vt 0.4249033 0.05129157
vt -0.4305475 0.1316445
vt 0.787655 0.04497608
vt -0.4072967 0.06206796
vt 0.2045026 0.215917
vt 0.2316103 0.05129159
vt 0.240648 0.05129161
vt -0.2422761 0.2625934
vt -0.2422761 0.1960749
vt -0.2422761 0.1960749
vt 0.1960749 0.2625934
vt 0.1960749 0.2625934
vt -0.2742019 0.2493287
vt -0.2742019 0.2493287
vt -0.2742019 0.1684522
vt -0.2742019 0.1684522
vt -0.2742019 0.1684522
vt 0.2229362 0.2625934
vt 0.2229362 0.2625934
vt -0.2229362 0.2539127
vt 0.2229362 0.2625934
vt 0.222173 0.2625934
vt 0.2545816 0.2625934
vt 0.2545816 0.2625934
vt 0.7620306 0.2590679
vt 0.3695296 0.05129158
vt 0.3695296 0.05129158
vt 0.7620306 0.2590679
vt 0.3695296 0.05129158
vt 0.3695296 0.05129158
vt 0.7620306 0.2590679
vt 0.2103016 0.2447098
vt 0.2103016 0.2447098
vt 0.2813933 0.2447098
vt -0.4223562 0.1209352
vt -0.4223562 0.1209352
vt -0.1209352 0.1720027
vt -0.2425829 0.2248597
vt -0.2425829 0.2248597
vt 0.1788627 0.2248597
vt 0.1788627 0.2248597
vt 0.1788627 0.2248597
vt -0.212287 0.05129161
vt 0.6505311 0.1575949
vt -0.212287 0.05129161
vt -0.212287 0.05129161
vt 0.1919491 0.05129161
vt 0.6505311 0.1575949
vt 0.6505311 0.1575949
vt -0.2961307 0.1393564
vt -0.2961307 0.2177546
vt -0.2961307 0.2177546
vt -0.2961307 0.2177546
vt -0.3981548 0.121761
vt -0.05978374 0.121761
vt -0.3981548 0.121761
vt -0.05978374 0.121761
vt -0.4323941 0.1671179
vt 0.4323941 0.1571061
vt 0.4323941 0.1571061
vt -0.4323941 0.1671179
vt -0.1671179 0.1571062
vt -0.1671179 0.1571062
vt -0.1671179 0.1571062
vt 0.8012958 0.2203966
vt -0.2707623 0.05129161
vt -0.1316445 0.1651203
vt -0.4305475 0.1316445
vt -0.1316445 0.1651203
vt -0.1316445 0.1651203
vt -0.4056665 0.05129162
vt 0.787655 0.04497608
vt -0.05061726 0.05129162
vt -0.05061726 0.05129162
vt -0.4072967 0.06206796
vt -0.04998802 0.06206796
vt -0.04998802 0.06206796
vt -0.04998802 0.06206796
vt 0.2045026 0.215917
vt 0.2858119 0.215917
vt 0.2858119 0.215917
vt 0.2858119 0.215917
vt 0.2858119 0.215917
vt 0.2858119 0.215917
vt 0.6642332 0.2545111
vt 0.6642332 0.2545111
vt 0.3135746 0.05129161
vt 0.6386632 0.1964003
vt 0.240648 0.05129161
vt 0.240648 0.05129161
vn 0 0 1
vn 0.1670244 -0.6645218 0.7283638
vn 0 0 1
vn 0 0 1
vn 0.5425101 0.6190054 0.5679042
vn 0.5425101 0.6190054 0.5679042
vn 0.1670244 -0.6645219 0.7283636
vn -0.5257835 -0.7755126 0.3494737
vn -0.5895374 -0.8066441 0.04208418
vn 0.1670244 -0.6645219 0.7283636
vn 0.1670244 -0.6645219 0.7283636
vn 0.4976664 0.1664103 0.8512554
vn 0.5425104 0.619005 0.5679044
vn 0.4976666 0.1664106 0.8512552
vn 0 0 -1
vn -0.5895374 -0.8066441 0.04208364
vn -0.04089604 0.9863339 0.1596026
vn -0.04089604 0.9863339 0.1596026
vn -0.9365014 -0.3218528 0.1391975
vn -0.5257835 -0.7755126 0.3494737
vn 0.4976664 0.1664103 0.8512554
vn 0.4976664 0.1664107 0.8512554
vn -0.9365172 -0.3217897 0.1392371
vn -0.9365157 -0.321818 0.1391815
vn -0.5257835 -0.7755126 0.3494737
vn -0.5257835 -0.7755127 0.3494736
vn 0.4976666 0.1664106 0.8512552
vn 0.4976664 0.1664107 0.8512554
vn 0.4976665 0.1664096 0.8512555
vn 0.5425101 0.6190054 0.5679042
vn 0.5425023 0.6190061 0.5679109
vn 0.4976664 0.1664103 0.8512554
vn 0.5425104 0.6190049 0.5679044
vn 0.5425023 0.6190061 0.5679109
vn -0.9365171 -0.32179 0.1392368
vn -0.9365172 -0.3217897 0.1392371
vn 0 0 -1
vn 0.5425104 0.6190049 0.5679044
vn 0.5425104 0.619005 0.5679044
vn 0 0 -1
vn -0.04089604 0.9863339 0.1596026
vn -0.04089564 0.9863338 0.159603
vn 0 0 -1
vn 0.5425023 0.6190061 0.5679109
vn -0.04089564 0.9863338 0.159603
vn -0.9365171 -0.32179 0.1392368
vn 0.1670244 -0.6645218 0.7283638
vn 0.4976666 0.1664106 0.8512552
vn 0.8371202 -0.5046769 0.2110239
vn -0.5257835 -0.7755127 0.3494736
vn -0.5895377 -0.8066438 0.04208443
vn -0.9365014 -0.3218528 0.1391975
vn -0.9365122 -0.3218139 0.1392142
vn -0.9365157 -0.321818 0.1391815
vn -0.5895377 -0.8066438 0.04208443
vn 0 0 -1
vn -0.5895374 -0.8066441 0.04208364
vn -0.5895373 -0.8066441 0.0420842
vn -0.9365014 -0.3218528 0.1391975
vn 0 0 -1
vn 0 0 -1
vn 0.1670244 -0.6645218 0.7283638
vn -0.5257835 -0.7755127 0.3494736
vn -0.5895374 -0.8066441 0.04208418
vn -0.5895377 -0.8066438 0.04208443
vn -0.5895374 -0.8066441 0.04208418
vn 0.8371202 -0.5046769 0.2110239
vn -0.5895373 -0.8066441 0.0420842
vn 0.8371206 -0.5046766 0.211023
vn 0.4976664 0.1664107 0.8512554
vn 0.5425104 0.6190049 0.5679044
vn 0.5425104 0.619005 0.5679044
vn 0.4976665 0.1664096 0.8512555
vn 0.9843308 -0.08601296 -0.1539312
vn 0.9843308 -0.0860131 -0.1539309
vn 0.9843308 -0.08601374 -0.1539303
vn 0 0 -1
vn 0.9843308 -0.08601296 -0.1539312
vn 0.8371202 -0.5046769 0.2110239
vn 0.4976665 0.1664096 0.8512555
vn 0.8371206 -0.5046766 0.211023
vn 0.9843308 -0.08601374 -0.1539303
vn -0.5895374 -0.8066441 0.04208364
vn 0 0 -1
vn 0.9843308 -0.08601296 -0.1539312
vn 0.9843308 -0.0860131 -0.1539309
vn -0.5895373 -0.8066441 0.0420842
vn 0.8371206 -0.5046766 0.211023
vn 0.9843308 -0.0860131 -0.1539309
vn 0.9843308 -0.08601374 -0.1539303
vn -0.04089564 0.9863338 0.159603
vn -0.9365171 -0.32179 0.1392368
vn -0.9365172 -0.3217897 0.1392371
vn -0.9365122 -0.3218139 0.1392142
vn -0.9365157 -0.321818 0.1391815
vn -0.894032 0.4420712 -0.07266277
vn 0 0 -1
vn 0 0 -1
vn -0.894032 0.4420712 -0.07266277
vn 0 0 -1
vn -0.9365122 -0.3218139 0.1392142
vn -0.894032 0.4420712 -0.07266277
g wall__sh_94_0
f 1/1/1 3/3/3 4/4/4
f 15/15/15 56/56/56 37/37/37
f 84/84/84 40/40/40 77/77/77
f 97/97/97 60/60/60 100/100/100
f 43/43/43 61/61/61 98/98/98
f 30/30/30 5/5/5 6/6/6
f 44/44/44 34/34/34 31/31/31
f 11/11/11 7/7/7 10/10/10
f 47/47/47 2/2/2 62/62/62
f 25/25/25 20/20/20 8/8/8
f 63/63/63 26/26/26 50/50/50
f 9/9/9 66/66/66 64/64/64
f 65/65/65 51/51/51 55/55/55
f 12/12/12 32/32/32 21/21/21
f 27/27/27 48/48/48 14/14/14
f 79/79/79 49/49/49 67/67/67
f 16/16/16 57/57/57 83/83/83
f 68/68/68 58/58/58 87/87/87
f 70/70/70 22/22/22 28/28/28
f 38/38/38 33/33/33 71/71/71
f 72/72/72 13/13/13 39/39/39
f 73/73/73 29/29/29 80/80/80
f 81/81/81 69/69/69 88/88/88
f 85/85/85 78/78/78 74/74/74
f 89/89/89 86/86/86 75/75/75
f 76/76/76 82/82/82 90/90/90
f 17/17/17 41/41/41 18/18/18
f 45/45/45 42/42/42 91/91/91
f 59/59/59 52/52/52 19/19/19
f 35/35/35 46/46/46 92/92/92
f 23/23/23 36/36/36 93/93/93
f 94/94/94 101/101/101 53/53/53
f 54/54/54 24/24/24 95/95/95
f 102/102/102 96/96/96 99/99/99
