g wall__sh_64
v -0.0697456 -0.3060868 0.4159477
v -0.4493614 -0.1256402 -0.4159476
v 0.008650184 -0.3420017 0.1972498
v -0.305676 -0.1928513 -0.4159476
v 0.1909605 0.2697027 0.4159477
v -0.1220837 0.3420017 0.1246471
v 0.2945963 -0.1458633 0.4159477
v 0.3249363 -0.2324376 0.1055136
v 0.365012 0.08681989 0.4159477
v 0.3186716 0.2352154 0.4159477
v -0.09265983 -0.2953682 0.4159477
v -0.4523196 -0.1242681 -0.4126026
v -0.1632499 0.1258109 0.4159477
v -0.3101958 0.2751091 0.1107371
v 0.1862589 0.06841493 -0.4159476
v 0.1881086 0.2464905 -0.154987
v 0.3141658 -0.04399323 -0.4159476
v 0.4456354 -0.06350565 -0.2764987
v 0.4523197 0.1525099 0.04572833
v 0.4320891 0.1902547 0.0747214
v -0.0697456 -0.3060868 0.4159477
v -0.0697456 -0.3060868 0.4159477
v -0.0697456 -0.3060868 0.4159477
v -0.4493614 -0.1256402 -0.4159476
v -0.4493614 -0.1256402 -0.4159476
v -0.4493614 -0.1256402 -0.4159476
v -0.4493614 -0.1256402 -0.4159476
v -0.4493614 -0.1256402 -0.4159476
v 0.008650184 -0.3420017 0.1972498
v 0.008650184 -0.3420017 0.1972498
v 0.008650184 -0.3420017 0.1972498
v 0.008650184 -0.3420017 0.1972498
v 0.008650184 -0.3420017 0.1972498
v 0.008650184 -0.3420017 0.1972498
v 0.008650184 -0.3420017 0.1972498
v 0.008650184 -0.3420017 0.1972498
v -0.305676 -0.1928513 -0.4159476
v -0.305676 -0.1928513 -0.4159476
v -0.305676 -0.1928513 -0.4159476
v 0.1909605 0.2697027 0.4159477
v 0.1909605 0.2697027 0.4159477
v 0.1909605 0.2697027 0.4159477
v 0.1909605 0.2697027 0.4159477
v 0.1909605 0.2697027 0.4159477
v 0.1909605 0.2697027 0.4159477
v 0.1909605 0.2697027 0.4159477
v 0.1909605 0.2697027 0.4159477
v -0.1220837 0.3420017 0.1246471
v -0.1220837 0.3420017 0.1246471
v -0.1220837 0.3420017 0.1246471
v -0.1220837 0.3420017 0.1246471
v -0.1220837 0.3420017 0.1246471
v 0.2945963 -0.1458633 0.4159477
v 0.2945963 -0.1458633 0.4159477
v 0.2945963 -0.1458633 0.4159477
v 0.2945963 -0.1458633 0.4159477
v 0.3249363 -0.2324376 0.1055136
v 0.3249363 -0.2324376 0.1055136
v 0.3249363 -0.2324376 0.1055136
v 0.3249363 -0.2324376 0.1055136
v 0.365012 0.08681989 0.4159477
v 0.365012 0.08681989 0.4159477
v 0.365012 0.08681989 0.4159477
v 0.365012 0.08681989 0.4159477
v 0.365012 0.08681989 0.4159477
v 0.3186716 0.2352154 0.4159477
v 0.3186716 0.2352154 0.4159477
v -0.09265983 -0.2953682 0.4159477
v -0.09265983 -0.2953682 0.4159477
v -0.09265983 -0.2953682 0.4159477
v -0.09265983 -0.2953682 0.4159477
v -0.09265983 -0.2953682 0.4159477
v -0.4523196 -0.1242681 -0.4126026
v -0.4523196 -0.1242681 -0.4126026
v -0.4523196 -0.1242681 -0.4126026
v -0.1632499 0.1258109 0.4159477
v -0.1632499 0.1258109 0.4159477
v -0.1632499 0.1258109 0.4159477
v -0.3101958 0.2751091 0.1107371
v -0.3101958 0.2751091 0.1107371
v -0.3101958 0.2751091 0.1107371
v -0.3101958 0.2751091 0.1107371
v 0.1862589 0.06841493 -0.4159476
v 0.1862589 0.06841493 -0.4159476
v 0.1862589 0.06841493 -0.4159476
v 0.1862589 0.06841493 -0.4159476
v 0.1862589 0.06841493 -0.4159476
v 0.1881086 0.2464905 -0.154987
v 0.1881086 0.2464905 -0.154987
v 0.1881086 0.2464905 -0.154987
v 0.1881086 0.2464905 -0.154987
v 0.1881086 0.2464905 -0.154987
v 0.3141658 -0.04399323 -0.4159476
v 0.3141658 -0.04399323 -0.4159476
v 0.3141658 -0.04399323 -0.4159476
v 0.4456354 -0.06350565 -0.2764987
v 0.4456354 -0.06350565 -0.2764987
v 0.4456354 -0.06350565 -0.2764987
v 0.4456354 -0.06350565 -0.2764987
v 0.4456354 -0.06350565 -0.2764987
v 0.4523197 0.1525099 0.04572833
v 0.4523197 0.1525099 0.04572833
v 0.4523197 0.1525099 0.04572833
v 0.4523197 0.1525099 0.04572833
v 0.4320891 0.1902547 0.0747214
v 0.4320891 0.1902547 0.0747214
v 0.4320891 0.1902547 0.0747214
v 0.4320891 0.1902547 0.0747214
vt 0.1194942 0.2625934
vt 0.2159168 0.05129158
vt 0.09958165 0.2070441
vt 0.1794207 0.05129158
vt 0.4622232 0.8171867
vt -0.1327881 0.1886029
vt 0.0269512 0.2625934
vt 0.01924482 0.183743
vt 0.4935715 0.7801716
vt 0.4852253 0.8102067
vt 0.1253144 0.2625934
vt -0.2166682 0.05214123
vt 0.3984266 0.7880633
vt -0.1805687 0.1850698
vt 0.4613766 0.7764465
vt -0.05399911 0.1175757
vt 0.02198052 0.05129158
vt -0.01141282 0.08671167
vt -0.989941 0.1685575
vt -0.9995282 0.1759218
vt 0.4152675 0.7006482
vt 0.1194942 0.2625934
vt 0.4152675 0.7006482
vt -0.2159168 0.0512916
vt -0.2159168 0.0512916
vt 0.2159168 0.05129158
vt 0.346895 0.7371701
vt -0.2159168 0.0512916
vt 0.09958165 0.2070441
vt 0.09958165 0.2070441
vt 0.09958165 0.2070441
vt 0.09958165 0.2070441
vt 0.09958165 0.2070441
vt 0.09958165 0.2070441
vt 0.09958165 0.2070441
vt 0.09958165 0.2070441
vt 0.3727742 0.7235668
vt 0.1794207 0.05129158
vt 0.3727742 0.7235668
vt 0.4622232 0.8171867
vt 0.4622232 0.8171867
vt 0.4622232 0.8171867
vt 0.4622232 0.8171867
vt -0.05327472 0.2625934
vt -0.05327472 0.2625934
vt -0.05327472 0.2625934
vt -0.05327472 0.2625934
vt -0.1327881 0.1886029
vt -0.1327881 0.1886029
vt -0.1327881 0.1886029
vt -0.1327881 0.1886029
vt -0.1327881 0.1886029
vt 0.0269512 0.2625934
vt 0.4808891 0.733077
vt 0.4808891 0.733077
vt -0.9141541 0.2625934
vt 0.01924482 0.183743
vt -0.8921641 0.183743
vt -0.8921641 0.183743
vt -0.8921641 0.183743
vt 0.4935715 0.7801716
vt -0.9732557 0.2625934
vt -0.9732557 0.2625934
vt -0.9732557 0.2625934
vt -0.9732557 0.2625934
vt -1.010948 0.2625934
vt -0.02083603 0.2625934
vt 0.4111404 0.7028176
vt 0.4111404 0.7028176
vt 0.1253144 0.2625934
vt 0.8761797 0.2625934
vt 0.8761797 0.2625934
vt 0.2166682 0.05214121
vt 0.2166682 0.05214121
vt 0.9196392 0.05214121
vt -0.1432443 0.2625934
vt -0.1432443 0.2625934
vt 0.9831594 0.2625934
vt -0.1805687 0.1850698
vt -0.1805687 0.1850698
vt 1.021081 0.1850698
vt 1.021081 0.1850698
vt -0.05446893 0.05129158
vt -0.05446893 0.05129158
vt 0.4613766 0.7764465
vt -0.05446893 0.05129158
vt -0.05446893 0.05129158
vt -0.05399911 0.1175757
vt -0.05399911 0.1175757
vt -0.05399911 0.1175757
vt -0.05399911 0.1175757
vt -0.05399911 0.1175757
vt 0.4844138 0.7536954
vt 0.02198052 0.05129158
vt -0.02198051 0.05129158
vt -0.01141282 0.08671167
vt -0.9350729 0.08671167
vt 0.01141283 0.08671167
vt 0.01141283 0.08671167
vt 0.01141283 0.08671167
vt -0.989941 0.1685575
vt -0.989941 0.1685575
vt 0.01311064 0.1685575
vt 0.01311064 0.1685575
vt -0.9995282 0.1759218
vt 0.00797207 0.1759218
vt 0.00797207 0.1759218
vt 0.00797207 0.1759218
vn 0.3861443 -0.878077 0.2826189
vn -0.423701 -0.9057967 -0.003130492
vn -0.423701 -0.9057967 -0.003130492
vn -0.423701 -0.9057967 -0.003130492
vn 0 0 1
vn -0.2447575 0.8016927 -0.545328
vn 0.3861443 -0.878077 0.2826189
vn 0.3861443 -0.878077 0.2826189
vn 0 0 1
vn 0 0 1
vn -0.4237037 -0.9057955 -0.003132316
vn -0.2447748 0.8016913 -0.5453222
vn 0 0 1
vn -0.2447748 0.8016913 -0.5453222
vn 0 0 -1
vn 0.2604899 0.9646259 -0.04051946
vn 0.2199762 -0.9159762 -0.3355566
vn 0.2199762 -0.9159762 -0.3355565
vn 0.9196657 0.2871883 0.2678393
vn 0.9196657 0.2871883 0.2678393
vn 0 0 1
vn -0.4237037 -0.9057955 -0.003132316
vn 0 0 1
vn -0.2447748 0.8016913 -0.5453222
vn -0.2447575 0.8016927 -0.545328
vn -0.4236848 -0.9058042 -0.003144397
vn 0 0 -1
vn -0.244757 0.8016927 -0.5453282
vn 0.3861443 -0.878077 0.2826189
vn 0.3861443 -0.878077 0.2826189
vn -0.4237037 -0.9057955 -0.003132316
vn -0.4237007 -0.9057969 -0.003130609
vn -0.4236848 -0.9058042 -0.003144397
vn 0.2199762 -0.9159762 -0.3355566
vn 0.2199762 -0.9159762 -0.3355565
vn 0.2199757 -0.9159761 -0.3355568
vn 0 0 -1
vn 0.2199762 -0.9159762 -0.3355566
vn 0 0 -1
vn 0 0 1
vn 0 0 1
vn 0 0 1
vn 0 0 1
vn -0.3178054 0.7823237 0.5356952
vn 0.2604899 0.9646259 -0.04051946
vn 0.2604887 0.9646263 -0.04051947
vn 0.2604887 0.9646263 -0.04051952
vn -0.3178054 0.7823237 0.5356952
vn -0.3178059 0.7823236 0.5356951
vn 0.2604899 0.9646259 -0.04051946
vn -0.244757 0.8016927 -0.5453282
vn -0.244757 0.8016927 -0.5453282
vn 0.3861443 -0.878077 0.2826189
vn 0 0 1
vn 0 0 1
vn 0.9429125 -0.2853487 0.1717332
vn 0.2199762 -0.9159762 -0.3355565
vn 0.9429125 -0.2853487 0.1717332
vn 0.9429125 -0.2853486 0.1717332
vn 0.9429125 -0.2853487 0.1717332
vn 0 0 1
vn 0.9196657 0.2871883 0.2678393
vn 0.9196653 0.2871894 0.2678396
vn 0.9429125 -0.2853486 0.1717332
vn 0.9429125 -0.2853487 0.1717332
vn 0.9196653 0.2871894 0.2678396
vn 0.2604887 0.9646263 -0.04051952
vn 0 0 1
vn 0 0 1
vn -0.4237007 -0.9057969 -0.003130609
vn -0.9175978 -0.1537905 0.3665552
vn -0.9175977 -0.1537904 0.3665555
vn -0.4237007 -0.9057969 -0.003130609
vn -0.4236848 -0.9058042 -0.003144397
vn -0.9175978 -0.1537905 0.3665552
vn -0.3178054 0.7823237 0.5356952
vn -0.3178059 0.7823236 0.5356951
vn -0.9175977 -0.1537904 0.3665555
vn -0.2447575 0.8016927 -0.545328
vn -0.3178059 0.7823236 0.5356951
vn -0.9175978 -0.1537905 0.3665552
vn -0.9175977 -0.1537904 0.3665555
vn -0.244757 0.8016927 -0.5453282
vn -0.244757 0.8016927 -0.5453282
vn 0 0 -1
vn 0.5863375 0.667182 -0.4594308
vn 0.5863376 0.6671812 -0.4594317
vn -0.244757 0.8016927 -0.5453282
vn 0.2604887 0.9646263 -0.04051947
vn 0.5863397 0.6671766 -0.4594357
vn 0.5863377 0.667182 -0.4594305
vn 0.5863375 0.667182 -0.4594308
vn 0 0 -1
vn 0.2199757 -0.9159761 -0.3355568
vn 0.5863376 0.6671812 -0.4594317
vn 0.2199757 -0.9159761 -0.3355568
vn 0.9429125 -0.2853487 0.1717332
vn 0.5863377 0.667182 -0.4594305
vn 0.5863375 0.667182 -0.4594308
vn 0.5863376 0.6671812 -0.4594317
vn 0.9429125 -0.2853487 0.1717332
vn 0.9429125 -0.2853486 0.1717332
vn 0.5863397 0.6671766 -0.4594357
vn 0.5863377 0.667182 -0.4594305
vn 0.9196653 0.2871894 0.2678396
vn 0.2604887 0.9646263 -0.04051947
vn 0.2604887 0.9646263 -0.04051952
vn 0.5863397 0.6671766 -0.4594357
g wall__sh_64_0
f 5/5/5 21/21/21 54/54/54
f 40/40/40 55/55/55 9/9/9
f 61/61/61 10/10/10 41/41/41
f 68/68/68 42/42/42 13/13/13
f 23/23/23 43/43/43 69/69/69
f 37/37/37 27/27/27 15/15/15
f 93/93/93 39/39/39 85/85/85
f 2/2/2 4/4/4 3/3/3
f 7/7/7 1/1/1 29/29/29
f 53/53/53 30/30/30 8/8/8
f 31/31/31 22/22/22 11/11/11
f 14/14/14 24/24/24 12/12/12
f 6/6/6 25/25/25 79/79/79
f 76/76/76 44/44/44 48/48/48
f 32/32/32 70/70/70 73/73/73
f 74/74/74 26/26/26 33/33/33
f 77/77/77 49/49/49 80/80/80
f 81/81/81 75/75/75 71/71/71
f 72/72/72 78/78/78 82/82/82
f 50/50/50 45/45/45 16/16/16
f 83/83/83 51/51/51 88/88/88
f 28/28/28 52/52/52 84/84/84
f 34/34/34 38/38/38 17/17/17
f 18/18/18 57/57/57 35/35/35
f 20/20/20 62/62/62 19/19/19
f 66/66/66 63/63/63 105/105/105
f 96/96/96 36/36/36 94/94/94
f 106/106/106 89/89/89 46/46/46
f 47/47/47 67/67/67 107/107/107
f 58/58/58 97/97/97 101/101/101
f 59/59/59 102/102/102 64/64/64
f 65/65/65 56/56/56 60/60/60
f 90/90/90 108/108/108 103/103/103
f 91/91/91 104/104/104 98/98/98
f 86/86/86 92/92/92 99/99/99
f 100/100/100 95/95/95 87/87/87
