g wall__sh_13
v 0.07741213 -0.4376242 -0.03072482
v 0.4893386 -0.2497036 -0.3931531
v 0.1697209 -0.2339263 0.246372
v 0.2240021 -0.2339153 0.21495
v 0.3341777 0.1962731 0.02731186
v 0.1609757 -0.5120944 -0.1999756
v -0.0207442 -0.4839926 -0.3931531
v 0.4721329 -0.5141853 -0.3931531
v 0.4671175 -0.5148749 -0.3818054
v 0.1549768 0.2118721 -0.3931531
v 0.1303523 0.4952309 0.05920875
v -0.2309258 0.06169522 0.3931531
v 0.0762918 0.5148749 0.0848437
v -0.4707835 0.2544837 -0.3931531
v -0.1771958 -0.4201353 -0.3931531
v -0.1404018 -0.349491 -0.03395247
v -0.2396233 0.06079388 0.3879676
v -0.4893388 0.3908837 -0.1761332
v 0.07741213 -0.4376242 -0.03072482
v 0.07741213 -0.4376242 -0.03072482
v 0.07741213 -0.4376242 -0.03072482
v 0.07741213 -0.4376242 -0.03072482
v 0.07741213 -0.4376242 -0.03072482
v 0.4893386 -0.2497036 -0.3931531
v 0.4893386 -0.2497036 -0.3931531
v 0.4893386 -0.2497036 -0.3931531
v 0.1697209 -0.2339263 0.246372
v 0.1697209 -0.2339263 0.246372
v 0.1697209 -0.2339263 0.246372
v 0.2240021 -0.2339153 0.21495
v 0.2240021 -0.2339153 0.21495
v 0.2240021 -0.2339153 0.21495
v 0.2240021 -0.2339153 0.21495
v 0.2240021 -0.2339153 0.21495
v 0.2240021 -0.2339153 0.21495
v 0.3341777 0.1962731 0.02731186
v 0.3341777 0.1962731 0.02731186
v 0.3341777 0.1962731 0.02731186
v 0.3341777 0.1962731 0.02731186
v 0.3341777 0.1962731 0.02731186
v 0.3341777 0.1962731 0.02731186
v 0.1609757 -0.5120944 -0.1999756
v 0.1609757 -0.5120944 -0.1999756
v 0.1609757 -0.5120944 -0.1999756
v 0.1609757 -0.5120944 -0.1999756
v -0.0207442 -0.4839926 -0.3931531
v -0.0207442 -0.4839926 -0.3931531
v -0.0207442 -0.4839926 -0.3931531
v -0.0207442 -0.4839926 -0.3931531
v -0.0207442 -0.4839926 -0.3931531
v 0.4721329 -0.5141853 -0.3931531
v 0.4721329 -0.5141853 -0.3931531
v 0.4721329 -0.5141853 -0.3931531
v 0.4721329 -0.5141853 -0.3931531
v 0.4721329 -0.5141853 -0.3931531
v 0.4671175 -0.5148749 -0.3818054
v 0.4671175 -0.5148749 -0.3818054
v 0.1549768 0.2118721 -0.3931531
v 0.1549768 0.2118721 -0.3931531
v 0.1549768 0.2118721 -0.3931531
v 0.1549768 0.2118721 -0.3931531
v 0.1549768 0.2118721 -0.3931531
v 0.1549768 0.2118721 -0.3931531
v 0.1303523 0.4952309 0.05920875
v 0.1303523 0.4952309 0.05920875
v 0.1303523 0.4952309 0.05920875
v 0.1303523 0.4952309 0.05920875
v -0.2309258 0.06169522 0.3931531
v -0.2309258 0.06169522 0.3931531
v -0.2309258 0.06169522 0.3931531
v -0.2309258 0.06169522 0.3931531
v -0.2309258 0.06169522 0.3931531
v -0.2309258 0.06169522 0.3931531
v 0.0762918 0.5148749 0.0848437
v 0.0762918 0.5148749 0.0848437
v 0.0762918 0.5148749 0.0848437
v -0.4707835 0.2544837 -0.3931531
v -0.4707835 0.2544837 -0.3931531
v -0.4707835 0.2544837 -0.3931531
v -0.4707835 0.2544837 -0.3931531
v -0.1771958 -0.4201353 -0.3931531
v -0.1771958 -0.4201353 -0.3931531
v -0.1771958 -0.4201353 -0.3931531
v -0.1404018 -0.349491 -0.03395247
v -0.1404018 -0.349491 -0.03395247
v -0.1404018 -0.349491 -0.03395247
v -0.1404018 -0.349491 -0.03395247
v -0.1404018 -0.349491 -0.03395247
v -0.1404018 -0.349491 -0.03395247
v -0.2396233 0.06079388 0.3879676
v -0.2396233 0.06079388 0.3879676
v -0.4893388 0.3908837 -0.1761332
v -0.4893388 0.3908837 -0.1761332
v -0.4893388 0.3908837 -0.1761332
v -0.4893388 0.3908837 -0.1761332
v -0.4893388 0.3908837 -0.1761332
vt -0.5226779 0.1433486
vt -0.4001103 0.0512916
vt -0.5461244 0.2137313
vt -0.5599118 0.2057501
vt -0.5133887 0.1580899
vt -0.5439031 0.1003588
vt -0.4977461 0.05129161
vt -0.3329318 0.05129161
vt -0.3327567 0.05417392
vt -0.5173509 0.0512916
vt -0.5893241 0.1661917
vt -0.4443599 0.2510138
vt -0.5223933 0.5943137
vt 0.3834359 0.05129157
vt 0.8247695 0.2889712
vt -0.467353 0.1425287
vt -0.4421507 0.2496967
vt 0.3787229 0.1064147
vt -0.5226779 0.1433486
vt -0.5226779 0.1433486
vt -0.5226779 0.1433486
vt -0.5226779 0.1433486
vt -0.5226779 0.1433486
vt -0.4001103 0.0512916
vt -0.4001103 0.0512916
vt 0.9448189 0.3234662
vt -0.5461244 0.4041178
vt -0.5461244 0.2137313
vt -0.5461244 0.4041178
vt -0.4041206 0.2057501
vt -0.5599118 0.4041206
vt -0.4041206 0.2057501
vt -0.4041206 0.2057501
vt -0.5599118 0.2057501
vt -0.5599118 0.2057501
vt -0.5878965 0.5133887
vt -0.5133887 0.1580899
vt -0.5133887 0.1580899
vt -0.5878965 0.5133887
vt -0.5878965 0.5133887
vt -0.5878965 0.5133887
vt -0.5439031 0.1003588
vt -0.5439031 0.1003588
vt -0.5439031 0.1003588
vt -0.5439031 0.1003588
vt 0.8529481 0.2760468
vt -0.4977461 0.05129161
vt 0.8529481 0.2760468
vt -0.4977461 0.05129161
vt -0.4977461 0.05129161
vt -0.3329318 0.05129161
vt -0.6229372 0.05129161
vt -0.6229372 0.05129161
vt 0.94172 0.2699359
vt 0.94172 0.2699359
vt -0.6216633 0.05417392
vt -0.6216633 0.05417392
vt 0.8845971 0.4168882
vt -0.5173509 0.0512916
vt 0.8845971 0.4168882
vt 0.8845971 0.4168882
vt 0.5423794 0.05129155
vt 0.8845971 0.4168882
vt -0.5361247 0.5893241
vt 0.5361247 0.1661917
vt 0.5361247 0.1661917
vt 0.5361247 0.1661917
vt -0.4443599 0.4792058
vt -0.4443599 0.4792058
vt -0.4443599 0.2510138
vt -0.4443599 0.2510138
vt 0.44436 0.2510137
vt 0.44436 0.2510137
vt -0.5223933 0.5943137
vt 0.5223933 0.172703
vt 0.5223933 0.172703
vt 0.7718915 0.4255128
vt 0.3834359 0.05129157
vt 0.5281742 0.0512916
vt 0.5281742 0.0512916
vt 0.8247695 0.2889712
vt -0.4580074 0.05129161
vt 0.3568207 0.05129161
vt -0.467353 0.1425287
vt -0.467353 0.1425287
vt -0.467353 0.1425287
vt 0.3747644 0.1425287
vt 0.3747644 0.1425287
vt 0.3747644 0.1425287
vt 0.4421508 0.2496966
vt 0.4789769 0.2496967
vt 0.3787229 0.1064147
vt 0.3787229 0.1064147
vt 0.3787229 0.1064147
vt 0.5628198 0.1064148
vt 0.5628198 0.1064148
vn 0.2907309 -0.8145682 0.5019504
vn 0.9143592 -0.05948305 0.4005111
vn 0.2907309 -0.8145682 0.5019504
vn 0.2907309 -0.8145682 0.5019504
vn 0.9143592 -0.05948305 0.4005111
vn 0.29073 -0.8145683 0.5019507
vn -0.06090983 -0.9943141 -0.0873471
vn 0.9143607 -0.05947642 0.4005086
vn 0.9143607 -0.05947642 0.4005086
vn 0.7705536 0.5581829 -0.3076994
vn 0.7705537 0.5581828 -0.3076994
vn -0.2999107 -0.7182103 0.6278754
vn 0.4860857 0.2418061 0.8397919
vn 0.05770861 0.8474631 -0.5277083
vn 0 0 -1
vn -0.2999107 -0.7182103 0.6278754
vn -0.2999116 -0.7182102 0.6278751
vn -0.4229284 0.6879561 0.5897865
vn 0.2907305 -0.8145683 0.5019505
vn -0.2999107 -0.7182103 0.6278754
vn -0.3690064 -0.9040739 0.2156034
vn -0.2999107 -0.7182103 0.6278754
vn -0.3690067 -0.9040737 0.2156034
vn 0.9143592 -0.05948315 0.4005111
vn 0.7705536 0.5581829 -0.3076994
vn 0 0 -1
vn 0.4860854 0.2418064 0.8397921
vn -0.2999107 -0.7182103 0.6278754
vn 0.4860857 0.2418061 0.839792
vn 0.9143592 -0.05948305 0.4005111
vn 0.4860854 0.2418064 0.8397921
vn 0.9143607 -0.05947642 0.4005086
vn 0.9143592 -0.05948315 0.4005111
vn 0.29073 -0.8145683 0.5019507
vn 0.2907305 -0.8145683 0.5019505
vn 0.4860854 0.2418064 0.8397921
vn 0.7705536 0.5581829 -0.3076994
vn 0.7705537 0.5581828 -0.3076994
vn 0.4860857 0.2418061 0.839792
vn 0.4860857 0.2418061 0.8397919
vn 0.4860865 0.241807 0.8397912
vn 0.2907305 -0.8145683 0.5019505
vn -0.06090983 -0.9943141 -0.0873471
vn -0.06091002 -0.994314 -0.08734742
vn -0.3690064 -0.9040739 0.2156034
vn 0 0 -1
vn -0.3690064 -0.9040739 0.2156034
vn 0 0 -1
vn -0.3690067 -0.9040737 0.2156034
vn -0.3690069 -0.9040736 0.2156033
vn 0.9143592 -0.05948315 0.4005111
vn -0.06090983 -0.9943141 -0.0873471
vn -0.06091002 -0.994314 -0.08734742
vn 0 0 -1
vn 0 0 -1
vn 0.29073 -0.8145683 0.5019507
vn -0.06091002 -0.994314 -0.08734742
vn 0 0 -1
vn 0.7705537 0.5581828 -0.3076994
vn 0 0 -1
vn 0 0 -1
vn 0.05770861 0.8474631 -0.5277083
vn 0 0 -1
vn 0.4860865 0.241807 0.8397912
vn 0.05770861 0.8474631 -0.5277083
vn 0.05770858 0.8474631 -0.5277083
vn 0.05770903 0.8474625 -0.5277092
vn 0.4860857 0.2418061 0.839792
vn 0.4860857 0.2418061 0.8397919
vn -0.2999107 -0.7182103 0.6278754
vn -0.2999116 -0.7182102 0.6278751
vn -0.4229284 0.6879561 0.5897865
vn -0.4229276 0.6879564 0.5897866
vn 0.4860865 0.241807 0.8397912
vn -0.4229284 0.6879561 0.5897865
vn 0.05770903 0.8474625 -0.5277092
vn 0 0 -1
vn 0.05770858 0.8474631 -0.5277083
vn -0.9036027 -0.3932389 0.1698978
vn -0.9036027 -0.3932392 0.1698973
vn 0 0 -1
vn -0.3690069 -0.9040736 0.2156033
vn -0.9036027 -0.3932392 0.1698973
vn -0.2999116 -0.7182102 0.6278751
vn -0.3690067 -0.9040737 0.2156034
vn -0.3690069 -0.9040736 0.2156033
vn -0.9036027 -0.393239 0.1698976
vn -0.9036027 -0.3932389 0.1698978
vn -0.9036027 -0.3932392 0.1698973
vn -0.4229276 0.6879564 0.5897866
vn -0.9036027 -0.393239 0.1698976
vn 0.05770858 0.8474631 -0.5277083
vn 0.05770903 0.8474625 -0.5277092
vn -0.4229276 0.6879564 0.5897866
vn -0.9036027 -0.393239 0.1698976
vn -0.9036027 -0.3932389 0.1698978
g wall__sh_13_0
f 58/58/58 26/26/26 54/54/54
f 60/60/60 55/55/55 46/46/46
f 61/61/61 48/48/48 15/15/15
f 77/77/77 63/63/63 81/81/81
f 4/4/4 3/3/3 1/1/1
f 30/30/30 2/2/2 5/5/5
f 27/27/27 31/31/31 36/36/36
f 8/8/8 32/32/32 9/9/9
f 24/24/24 33/33/33 51/51/51
f 6/6/6 56/56/56 34/34/34
f 35/35/35 19/19/19 42/42/42
f 43/43/43 7/7/7 52/52/52
f 53/53/53 57/57/57 44/44/44
f 37/37/37 25/25/25 10/10/10
f 11/11/11 38/38/38 59/59/59
f 20/20/20 28/28/28 12/12/12
f 29/29/29 39/39/39 68/68/68
f 47/47/47 45/45/45 21/21/21
f 13/13/13 69/69/69 40/40/40
f 41/41/41 64/64/64 74/74/74
f 65/65/65 62/62/62 14/14/14
f 16/16/16 22/22/22 70/70/70
f 17/17/17 84/84/84 71/71/71
f 49/49/49 23/23/23 85/85/85
f 72/72/72 75/75/75 18/18/18
f 66/66/66 78/78/78 92/92/92
f 93/93/93 76/76/76 67/67/67
f 82/82/82 50/50/50 86/86/86
f 90/90/90 73/73/73 94/94/94
f 87/87/87 91/91/91 95/95/95
f 88/88/88 96/96/96 79/79/79
f 80/80/80 83/83/83 89/89/89
