g wall__sh_47
v -0.2802298 -0.4575839 -0.04803252
v -0.2802298 -0.3692515 0.4159477
v 0.2565815 -0.2577541 0.4159477
v 0.2133584 -0.3291061 0.08831561
v 0.110024 -0.3930972 -0.1350706
v -0.01781607 -0.330564 -0.4159476
v -0.2802298 -0.4917164 -0.2273193
v -0.2802298 -0.3886261 -0.4159476
v 0.03767061 -0.4244351 -0.2207416
v -0.2802298 0.2656703 -0.1698096
v -0.01264524 0.02345824 -0.4159476
v -0.2802298 0.0301342 -0.4159476
v 0.2802298 0.2793334 0.4159477
v 0.2503328 0.3463244 0.1474546
v -0.2802298 0.4917164 0.4159477
v -0.2802298 0.4852009 0.05960262
v 0.1767869 0.4026198 -0.01478058
v 0.2005627 0.3993444 0.03719097
v 0.05585694 0.431987 0.4159477
v -0.2802298 -0.4575839 -0.04803252
v -0.2802298 -0.4575839 -0.04803252
v -0.2802298 -0.4575839 -0.04803252
v -0.2802298 -0.4575839 -0.04803252
v -0.2802298 -0.4575839 -0.04803252
v -0.2802298 -0.4575839 -0.04803252
v -0.2802298 -0.4575839 -0.04803252
v -0.2802298 -0.3692515 0.4159477
v -0.2802298 -0.3692515 0.4159477
v -0.2802298 -0.3692515 0.4159477
v 0.2565815 -0.2577541 0.4159477
v 0.2565815 -0.2577541 0.4159477
v 0.2565815 -0.2577541 0.4159477
v 0.2565815 -0.2577541 0.4159477
v 0.2133584 -0.3291061 0.08831561
v 0.2133584 -0.3291061 0.08831561
v 0.2133584 -0.3291061 0.08831561
v 0.2133584 -0.3291061 0.08831561
v 0.2133584 -0.3291061 0.08831561
v 0.2133584 -0.3291061 0.08831561
v 0.110024 -0.3930972 -0.1350706
v 0.110024 -0.3930972 -0.1350706
v 0.110024 -0.3930972 -0.1350706
v -0.01781607 -0.330564 -0.4159476
v -0.01781607 -0.330564 -0.4159476
v -0.01781607 -0.330564 -0.4159476
v -0.01781607 -0.330564 -0.4159476
v -0.01781607 -0.330564 -0.4159476
v -0.01781607 -0.330564 -0.4159476
v -0.2802298 -0.4917164 -0.2273193
v -0.2802298 -0.4917164 -0.2273193
v -0.2802298 -0.4917164 -0.2273193
v -0.2802298 -0.4917164 -0.2273193
v -0.2802298 -0.3886261 -0.4159476
v -0.2802298 -0.3886261 -0.4159476
v 0.03767061 -0.4244351 -0.2207416
v 0.03767061 -0.4244351 -0.2207416
v 0.03767061 -0.4244351 -0.2207416
v -0.2802298 0.2656703 -0.1698096
v -0.2802298 0.2656703 -0.1698096
v -0.2802298 0.2656703 -0.1698096
v -0.2802298 0.2656703 -0.1698096
v -0.2802298 0.2656703 -0.1698096
v -0.2802298 0.2656703 -0.1698096
v -0.01264524 0.02345824 -0.4159476
v -0.01264524 0.02345824 -0.4159476
v -0.01264524 0.02345824 -0.4159476
v -0.01264524 0.02345824 -0.4159476
v -0.01264524 0.02345824 -0.4159476
v -0.2802298 0.0301342 -0.4159476
v -0.2802298 0.0301342 -0.4159476
v -0.2802298 0.0301342 -0.4159476
v -0.2802298 0.0301342 -0.4159476
v -0.2802298 0.0301342 -0.4159476
v 0.2802298 0.2793334 0.4159477
v 0.2802298 0.2793334 0.4159477
v 0.2802298 0.2793334 0.4159477
v 0.2802298 0.2793334 0.4159477
v 0.2503328 0.3463244 0.1474546
v 0.2503328 0.3463244 0.1474546
v 0.2503328 0.3463244 0.1474546
v 0.2503328 0.3463244 0.1474546
v 0.2503328 0.3463244 0.1474546
v -0.2802298 0.4917164 0.4159477
v -0.2802298 0.4917164 0.4159477
v -0.2802298 0.4917164 0.4159477
v -0.2802298 0.4917164 0.4159477
v -0.2802298 0.4917164 0.4159477
v -0.2802298 0.4852009 0.05960262
v -0.2802298 0.4852009 0.05960262
v -0.2802298 0.4852009 0.05960262
v 0.1767869 0.4026198 -0.01478058
v 0.1767869 0.4026198 -0.01478058
v 0.1767869 0.4026198 -0.01478058
v 0.1767869 0.4026198 -0.01478058
v 0.1767869 0.4026198 -0.01478058
v 0.2005627 0.3993444 0.03719097
v 0.2005627 0.3993444 0.03719097
v 0.05585694 0.431987 0.4159477
v 0.05585694 0.431987 0.4159477
v 0.05585694 0.431987 0.4159477
v 0.05585694 0.431987 0.4159477
v 0.05585694 0.431987 0.4159477
vt 0.7051268 0.1447422
vt 0.7051268 0.2625934
vt 0.5687764 0.2625934
vt 0.5797551 0.1793747
vt 0.6060022 0.1226345
vt -0.7263752 0.05129159
vt 0.7051268 0.09920327
vt 0.7051268 0.05129159
vt -0.7025319 0.100874
vt 0.9761737 0.5558394
vt -0.8162971 0.05129158
vt 0.9914868 0.5411854
vt -0.8812894 0.2625934
vt -0.8983052 0.194396
vt 0 0.7498751
vt 0.9619011 0.5694976
vt -0.9126043 0.1531882
vt -0.9117723 0.166389
vt -0.6197606 0.2625934
vt 0.7051268 0.1447422
vt 0.7051268 0.1447422
vt 0.7051268 0.1447422
vt 0.7051268 0.1447422
vt 0.9685974 0.5108428
vt 0.9685972 0.5108426
vt 0.9685972 0.5108426
vt 0.9397312 0.5163383
vt -5.960464E-08 0.5756171
vt 0.9397312 0.5163383
vt 0.5687764 0.2625934
vt -0.7448689 0.2625934
vt 0.09668487 0.598184
vt 0.09668487 0.598184
vt 0.5797551 0.1793747
vt -0.7267455 0.1793747
vt -0.7267455 0.1793747
vt -0.7267455 0.1793747
vt -0.7267455 0.1793747
vt -0.7267455 0.1793747
vt -0.7104917 0.1226345
vt -0.7104917 0.1226345
vt 0.6060022 0.1226345
vt -0.7263752 0.05129159
vt 0.6384736 0.05129159
vt 0.6384736 0.05129159
vt -0.7263752 0.05129159
vt 0.04726329 0.5834473
vt 0.04726329 0.5834473
vt 0.7051268 0.09920327
vt 0.7051268 0.09920327
vt 0.9797514 0.508719
vt 0.9797514 0.508719
vt 0.9914867 0.5151327
vt 0 0.5716957
vt 0.6243799 0.100874
vt 0.6243799 0.100874
vt 0.6243799 0.100874
vt 0.9761735 0.5558391
vt -0.7051268 0.1138108
vt 0.9761737 0.5558394
vt 0.9761737 0.5558394
vt -0.7051268 0.1138108
vt -0.7051268 0.1138108
vt 0.04819458 0.6551006
vt -0.6371602 0.05129164
vt -0.8162971 0.05129158
vt -0.8162971 0.05129158
vt -0.6371602 0.05129164
vt 0 0.6564518
vt 0 0.6564518
vt 0.9914868 0.5411854
vt 0.9914868 0.5411854
vt -0.7051268 0.05129165
vt -0.8812894 0.2625934
vt -0.5627698 0.2625934
vt 0.1009443 0.7068893
vt 0.1009443 0.7068893
vt -0.8983052 0.194396
vt -0.8983052 0.194396
vt -0.8983052 0.194396
vt -0.5703636 0.1943961
vt -0.5703636 0.1943961
vt 0 0.7498751
vt 0 0.7498751
vt 0.9397312 0.5699029
vt 0.9397312 0.5699029
vt -0.7051268 0.2625935
vt -0.7051268 0.1720816
vt -0.7051268 0.1720816
vt -0.7051268 0.1720816
vt -0.9126043 0.1531882
vt -0.5890443 0.1531883
vt -0.5890443 0.1531883
vt -0.5890443 0.1531883
vt -0.5890443 0.1531883
vt -0.5830052 0.1663891
vt -0.5830052 0.1663891
vt 0.06053233 0.7377862
vt -0.6197606 0.2625934
vt -0.6197606 0.2625934
vt -0.6197606 0.2625934
vt -0.6197606 0.2625934
vn 0.1999194 -0.9625245 0.1832451
vn 0.1999194 -0.9625245 0.1832451
vn 0.1999194 -0.9625245 0.1832451
vn 0.1999196 -0.9625245 0.1832449
vn 0.1999196 -0.9625245 0.183245
vn 0.9089625 -0.01327644 -0.4166664
vn 0.1999196 -0.9625246 0.1832447
vn 0.1905978 -0.8614138 -0.4707852
vn 0.7451665 -0.4931263 -0.4489469
vn -1 0 0
vn 0.9089625 -0.01327624 -0.4166664
vn -1 0 0
vn 0.9916532 -0.04366305 -0.1213157
vn 0.9089625 -0.01327617 -0.4166664
vn 0 0 1
vn -1 0 0
vn 0.9089624 -0.01327846 -0.4166667
vn 0.9089624 -0.01327846 -0.4166667
vn 0.5567961 0.818388 0.1421943
vn 0.1999196 -0.9625245 0.1832449
vn 0.1999196 -0.9625245 0.183245
vn 0.1999194 -0.9625247 0.1832444
vn 0.1999196 -0.9625246 0.1832447
vn -1 0 0
vn -1 0 0
vn -1 0 0
vn -1 0 0
vn 0 0 1
vn -1 0 0
vn 0.1999196 -0.9625245 0.1832449
vn 0.9916532 -0.04366305 -0.1213157
vn 0 0 1
vn 0 0 1
vn 0.1999196 -0.9625245 0.183245
vn 0.9089625 -0.01327644 -0.4166664
vn 0.9089625 -0.01327624 -0.4166664
vn 0.9916532 -0.04366305 -0.1213157
vn 0.9089625 -0.01327617 -0.4166664
vn 0.9916531 -0.04366298 -0.1213158
vn 0.9089625 -0.01327644 -0.4166664
vn 0.7451665 -0.4931263 -0.4489469
vn 0.1999194 -0.9625247 0.1832444
vn 0.7451665 -0.4931263 -0.4489469
vn 0.1921378 -0.8619776 -0.4691243
vn 0.1905978 -0.8614138 -0.4707852
vn 0.9089625 -0.01327624 -0.4166664
vn 0 0 -1
vn 0 0 -1
vn 0.1921378 -0.8619776 -0.4691243
vn 0.1905978 -0.8614138 -0.4707852
vn -1 0 0
vn -1 0 0
vn -1 0 0
vn 0 0 -1
vn 0.1999194 -0.9625247 0.1832444
vn 0.1999196 -0.9625246 0.1832447
vn 0.1921378 -0.8619776 -0.4691243
vn -1 0 0
vn 0.01802259 0.7223783 -0.6912633
vn -1 0 0
vn -1 0 0
vn 0.0180224 0.7223781 -0.6912634
vn 0.01802215 0.7223785 -0.691263
vn 0 0 -1
vn 0.01802259 0.7223783 -0.6912633
vn 0.9089625 -0.01327617 -0.4166664
vn 0.9089626 -0.01327668 -0.4166662
vn 0.0180224 0.7223781 -0.6912634
vn 0 0 -1
vn 0 0 -1
vn -1 0 0
vn -1 0 0
vn 0.01802259 0.7223783 -0.6912633
vn 0.9916531 -0.04366298 -0.1213158
vn 0.5567961 0.818388 0.1421943
vn 0 0 1
vn 0 0 1
vn 0.9916531 -0.04366298 -0.1213158
vn 0.9089624 -0.01327846 -0.4166667
vn 0.9089626 -0.01327668 -0.4166662
vn 0.5567961 0.818388 0.1421943
vn 0.5567974 0.8183869 0.1421956
vn 0 0 1
vn 0 0 1
vn -1 0 0
vn -1 0 0
vn 0.1749499 0.9844128 -0.01799925
vn 0.01802215 0.7223785 -0.691263
vn 0.1749499 0.9844128 -0.01799925
vn 0.1749498 0.9844128 -0.01799924
vn 0.9089626 -0.01327668 -0.4166662
vn 0.0180224 0.7223781 -0.6912634
vn 0.01802215 0.7223785 -0.691263
vn 0.1749498 0.9844128 -0.01799924
vn 0.1749552 0.9844119 -0.01799766
vn 0.5567974 0.8183869 0.1421956
vn 0.1749552 0.9844119 -0.01799766
vn 0 0 1
vn 0.5567974 0.8183869 0.1421956
vn 0.1749499 0.9844128 -0.01799925
vn 0.1749498 0.9844128 -0.01799924
vn 0.1749552 0.9844119 -0.01799766
g wall__sh_47_0
f 53/53/53 51/51/51 12/12/12
f 10/10/10 24/24/24 27/27/27
f 47/47/47 54/54/54 69/69/69
f 70/70/70 64/64/64 48/48/48
f 25/25/25 58/58/58 71/71/71
f 72/72/72 52/52/52 26/26/26
f 15/15/15 28/28/28 32/32/32
f 83/83/83 33/33/33 76/76/76
f 77/77/77 98/98/98 84/84/84
f 60/60/60 29/29/29 85/85/85
f 86/86/86 16/16/16 61/61/61
f 3/3/3 2/2/2 1/1/1
f 4/4/4 30/30/30 20/20/20
f 34/34/34 21/21/21 5/5/5
f 6/6/6 35/35/35 40/40/40
f 43/43/43 41/41/41 9/9/9
f 55/55/55 42/42/42 22/22/22
f 23/23/23 7/7/7 56/56/56
f 44/44/44 57/57/57 49/49/49
f 50/50/50 8/8/8 45/45/45
f 36/36/36 46/46/46 11/11/11
f 65/65/65 73/73/73 59/59/59
f 13/13/13 31/31/31 37/37/37
f 38/38/38 66/66/66 14/14/14
f 74/74/74 39/39/39 78/78/78
f 18/18/18 79/79/79 17/17/17
f 80/80/80 67/67/67 91/91/91
f 19/19/19 75/75/75 81/81/81
f 92/92/92 68/68/68 62/62/62
f 63/63/63 88/88/88 93/93/93
f 99/99/99 82/82/82 96/96/96
f 89/89/89 87/87/87 100/100/100
f 94/94/94 90/90/90 101/101/101
f 102/102/102 97/97/97 95/95/95
