g wall__sh_93
v 0.2636483 0.3509178 -0.2726505
v -0.1360452 -0.004761696 -0.2726505
v -0.263648 0.3509178 -0.2726505
v -0.2548881 0.3509178 -0.1949568
v 0.2636483 -0.3509183 -0.2726505
v 0.1193419 -0.3509026 -0.2726505
v -0.1260126 -0.03272629 -0.2726505
v 0.2636483 0.3509178 0.2726505
v -0.2158537 0.3509178 0.1512499
v 0.2636483 -0.2854576 0.1903908
v -0.1051328 0.03840876 0.1388865
v 0.1519177 -0.2895193 0.1615778
v 0.2636483 0.3509178 -0.2726505
v 0.2636483 0.3509178 -0.2726505
v 0.2636483 0.3509178 -0.2726505
v 0.2636483 0.3509178 -0.2726505
v 0.2636483 0.3509178 -0.2726505
v 0.2636483 0.3509178 -0.2726505
v -0.1360452 -0.004761696 -0.2726505
v -0.1360452 -0.004761696 -0.2726505
v -0.1360452 -0.004761696 -0.2726505
v -0.1360452 -0.004761696 -0.2726505
v -0.263648 0.3509178 -0.2726505
v -0.263648 0.3509178 -0.2726505
v -0.2548881 0.3509178 -0.1949568
v -0.2548881 0.3509178 -0.1949568
v -0.2548881 0.3509178 -0.1949568
v -0.2548881 0.3509178 -0.1949568
v -0.2548881 0.3509178 -0.1949568
v 0.2636483 -0.3509183 -0.2726505
v 0.2636483 -0.3509183 -0.2726505
v 0.2636483 -0.3509183 -0.2726505
v 0.2636483 -0.3509183 -0.2726505
v 0.1193419 -0.3509026 -0.2726505
v 0.1193419 -0.3509026 -0.2726505
v 0.1193419 -0.3509026 -0.2726505
v -0.1260126 -0.03272629 -0.2726505
v -0.1260126 -0.03272629 -0.2726505
v -0.1260126 -0.03272629 -0.2726505
v -0.1260126 -0.03272629 -0.2726505
v -0.1260126 -0.03272629 -0.2726505
v 0.2636483 0.3509178 0.2726505
v 0.2636483 0.3509178 0.2726505
v 0.2636483 0.3509178 0.2726505
v -0.2158537 0.3509178 0.1512499
v -0.2158537 0.3509178 0.1512499
v -0.2158537 0.3509178 0.1512499
v 0.2636483 -0.2854576 0.1903908
v 0.2636483 -0.2854576 0.1903908
v 0.2636483 -0.2854576 0.1903908
v 0.2636483 -0.2854576 0.1903908
v 0.2636483 -0.2854576 0.1903908
v -0.1051328 0.03840876 0.1388865
v -0.1051328 0.03840876 0.1388865
v -0.1051328 0.03840876 0.1388865
v -0.1051328 0.03840876 0.1388865
v -0.1051328 0.03840876 0.1388865
v 0.1519177 -0.2895193 0.1615778
v 0.1519177 -0.2895193 0.1615778
v 0.1519177 -0.2895193 0.1615778
vt 1 1
vt 0.9280113 0.9280113
vt 0.9050289 1
vt 0.9455736 0.2844977
vt 1 0.85795
vt 0.974009 0.857953
vt 1.151685 0.05129157
vt 0.9698166 0.3113812
vt 0.9635227 0.2865214
vt -0.7051268 0.1689043
vt 1.169753 0.1558222
vt 1.086459 0.1615858
vt 0.9415455 0.3113812
vt 1 1
vt 0.9415455 0.3113812
vt 0.9415455 0.3113812
vt 0.9914867 0.6467867
vt 0.9914867 0.6467867
vt 1.158788 0.05129157
vt 1.158788 0.05129157
vt 0.9280113 0.9280113
vt 0.9280113 0.9280113
vt 0.9415455 0.2840435
vt 1.249131 0.05129157
vt 1.249131 0.07102579
vt 1.249131 0.07102579
vt 0.9455736 0.2844977
vt 1.249131 0.07102579
vt 1.249131 0.07102579
vt 1 0.85795
vt 1 0.85795
vt -0.7051268 0.05129157
vt 0.9914867 0.6031233
vt -0.6684729 0.05129157
vt 1.070868 0.05129157
vt -0.6684729 0.05129157
vt 0.9298183 0.9223514
vt 0.9298183 0.9223514
vt 1.151685 0.05129157
vt 1.151685 0.05129157
vt 1.151685 0.05129157
vt 0.9575614 0.6467867
vt -0.7051268 1.249131
vt -0.7051268 1.249131
vt 0.9635227 0.2865214
vt 1.249131 0.1589625
vt -0.5833331 1.249131
vt 0.9626791 0.6071957
vt 0.9626791 0.6071957
vt -0.7051268 0.1689043
vt -0.7051268 1.087491
vt -0.7051268 1.087491
vt 1.169753 0.1558222
vt 1.169753 0.1558222
vt -0.6114562 1.169753
vt -0.6114562 1.169753
vt -0.6114562 1.169753
vt -0.6767472 0.1615858
vt 1.086459 0.1615858
vt -0.6767472 1.086459
vn 0 0 -1
vn 0 0 -1
vn 0 0 -1
vn 0 1 0
vn 0 0 -1
vn 0 0 -1
vn -0.9359996 -0.3358018 0.1055552
vn 0 1 0
vn 0 1 0
vn -0.0001079758 -0.9901544 0.1399793
vn -0.9360034 -0.3357985 0.1055326
vn -0.7836202 -0.6042709 0.144208
vn 0 1 0
vn 0 0 -1
vn 0 1 0
vn 0 1 0
vn 1 0 0
vn 1 0 0
vn -0.9360031 -0.3357984 0.1055346
vn -0.9359996 -0.3358018 0.1055552
vn 0 0 -1
vn 0 0 -1
vn 0 1 0
vn -0.9360031 -0.3357984 0.1055346
vn -0.9360031 -0.3357984 0.1055346
vn -0.9359996 -0.3358018 0.1055552
vn 0 1 0
vn -0.9360034 -0.3357985 0.1055326
vn -0.9360035 -0.3357978 0.1055332
vn 0 0 -1
vn 0 0 -1
vn -0.0001079758 -0.9901544 0.1399793
vn 1 0 0
vn -0.0001079758 -0.9901544 0.1399793
vn -0.7836202 -0.6042709 0.144208
vn -0.0001026298 -0.9901547 0.1399777
vn 0 0 -1
vn 0 0 -1
vn -0.7836202 -0.6042709 0.144208
vn -0.9360034 -0.3357985 0.1055326
vn -0.7836198 -0.6042716 0.1442074
vn 1 0 0
vn -0.2435318 -0.1243364 0.9618902
vn -0.2435317 -0.1243366 0.9618902
vn 0 1 0
vn -0.9360035 -0.3357978 0.1055332
vn -0.2435318 -0.1243364 0.9618902
vn 1 0 0
vn 1 0 0
vn -0.0001026298 -0.9901547 0.1399777
vn -0.2435317 -0.1243366 0.9618902
vn -0.2435317 -0.1243365 0.9618902
vn -0.9360035 -0.3357978 0.1055332
vn -0.7836198 -0.6042716 0.1442074
vn -0.2435318 -0.1243364 0.9618902
vn -0.2435317 -0.1243366 0.9618902
vn -0.2435317 -0.1243365 0.9618902
vn -0.0001026298 -0.9901547 0.1399777
vn -0.7836198 -0.6042716 0.1442074
vn -0.2435317 -0.1243365 0.9618902
g wall__sh_93_0
f 2/2/2 3/3/3 1/1/1
f 23/23/23 4/4/4 13/13/13
f 21/21/21 14/14/14 5/5/5
f 37/37/37 22/22/22 30/30/30
f 31/31/31 6/6/6 38/38/38
f 9/9/9 8/8/8 15/15/15
f 16/16/16 27/27/27 45/45/45
f 48/48/48 33/33/33 17/17/17
f 18/18/18 42/42/42 49/49/49
f 25/25/25 24/24/24 19/19/19
f 26/26/26 20/20/20 7/7/7
f 34/34/34 32/32/32 10/10/10
f 39/39/39 35/35/35 12/12/12
f 28/28/28 40/40/40 11/11/11
f 53/53/53 46/46/46 29/29/29
f 58/58/58 36/36/36 50/50/50
f 54/54/54 41/41/41 59/59/59
f 43/43/43 47/47/47 55/55/55
f 51/51/51 44/44/44 56/56/56
f 57/57/57 60/60/60 52/52/52
