g wall__sh_20
v 0.1928293 -0.0007038116 -0.4159476
v -0.602315 -0.06704056 0.4159477
v 0.2223204 -0.4087516 0.0006443262
v -0.02517664 0.1903617 -0.4159476
v -0.3937876 0.02751255 0.4159477
v -0.5596418 0.09113622 0.4159477
v 0.4796118 0.2742505 -0.4159476
v 0.3599545 0.4087517 -0.05674732
v 0.323236 0.3382533 -0.4152067
v 0.6613313 0.2461487 -0.2227705
v 0.5777677 0.3206189 -0.05351973
v 0.4578669 -0.2279171 0.04360658
v 0.482643 0.02250397 0.1824149
v 0.5982002 -0.007941246 -0.03796083
v 0.5020455 0.04213166 0.163327
v -0.6520116 0.04116118 0.3454842
v -0.6052196 -0.06449497 0.4159477
v -0.6613314 0.04800487 0.4159477
v 0.1928293 -0.0007038116 -0.4159476
v 0.1928293 -0.0007038116 -0.4159476
v 0.1928293 -0.0007038116 -0.4159476
v 0.1928293 -0.0007038116 -0.4159476
v 0.1928293 -0.0007038116 -0.4159476
v -0.602315 -0.06704056 0.4159477
v -0.602315 -0.06704056 0.4159477
v -0.602315 -0.06704056 0.4159477
v -0.602315 -0.06704056 0.4159477
v -0.602315 -0.06704056 0.4159477
v -0.602315 -0.06704056 0.4159477
v 0.2223204 -0.4087516 0.0006443262
v 0.2223204 -0.4087516 0.0006443262
v 0.2223204 -0.4087516 0.0006443262
v -0.02517664 0.1903617 -0.4159476
v -0.02517664 0.1903617 -0.4159476
v -0.02517664 0.1903617 -0.4159476
v -0.02517664 0.1903617 -0.4159476
v -0.02517664 0.1903617 -0.4159476
v -0.02517664 0.1903617 -0.4159476
v -0.02517664 0.1903617 -0.4159476
v -0.3937876 0.02751255 0.4159477
v -0.3937876 0.02751255 0.4159477
v -0.3937876 0.02751255 0.4159477
v -0.3937876 0.02751255 0.4159477
v -0.3937876 0.02751255 0.4159477
v -0.5596418 0.09113622 0.4159477
v -0.5596418 0.09113622 0.4159477
v -0.5596418 0.09113622 0.4159477
v -0.5596418 0.09113622 0.4159477
v -0.5596418 0.09113622 0.4159477
v 0.4796118 0.2742505 -0.4159476
v 0.4796118 0.2742505 -0.4159476
v 0.4796118 0.2742505 -0.4159476
v 0.4796118 0.2742505 -0.4159476
v 0.3599545 0.4087517 -0.05674732
v 0.3599545 0.4087517 -0.05674732
v 0.3599545 0.4087517 -0.05674732
v 0.3599545 0.4087517 -0.05674732
v 0.3599545 0.4087517 -0.05674732
v 0.3599545 0.4087517 -0.05674732
v 0.3599545 0.4087517 -0.05674732
v 0.3599545 0.4087517 -0.05674732
v 0.323236 0.3382533 -0.4152067
v 0.323236 0.3382533 -0.4152067
v 0.6613313 0.2461487 -0.2227705
v 0.6613313 0.2461487 -0.2227705
v 0.6613313 0.2461487 -0.2227705
v 0.6613313 0.2461487 -0.2227705
v 0.6613313 0.2461487 -0.2227705
v 0.5777677 0.3206189 -0.05351973
v 0.5777677 0.3206189 -0.05351973
v 0.5777677 0.3206189 -0.05351973
v 0.4578669 -0.2279171 0.04360658
v 0.4578669 -0.2279171 0.04360658
v 0.4578669 -0.2279171 0.04360658
v 0.4578669 -0.2279171 0.04360658
v 0.4578669 -0.2279171 0.04360658
v 0.482643 0.02250397 0.1824149
v 0.482643 0.02250397 0.1824149
v 0.482643 0.02250397 0.1824149
v 0.482643 0.02250397 0.1824149
v 0.5982002 -0.007941246 -0.03796083
v 0.5982002 -0.007941246 -0.03796083
v 0.5982002 -0.007941246 -0.03796083
v 0.5982002 -0.007941246 -0.03796083
v 0.5020455 0.04213166 0.163327
v 0.5020455 0.04213166 0.163327
v 0.5020455 0.04213166 0.163327
v -0.6520116 0.04116118 0.3454842
v -0.6520116 0.04116118 0.3454842
v -0.6520116 0.04116118 0.3454842
v -0.6052196 -0.06449497 0.4159477
v -0.6052196 -0.06449497 0.4159477
v -0.6052196 -0.06449497 0.4159477
v -0.6613314 0.04800487 0.4159477
v -0.6613314 0.04800487 0.4159477
v -0.6613314 0.04800487 0.4159477
vt -0.4249033 0.05129161
vt -0.2229362 0.2625934
vt -0.4323941 0.1571062
vt -0.3695297 0.05129161
vt -0.2759023 0.2779293
vt 0.6657682 0.2389848
vt 0.8529482 0.2760468
vt 0.4673532 0.1425286
vt 0.8247832 0.2890008
vt 0.5439031 0.333463
vt 0.5226778 0.1433484
vt 0.492223 0.21305
vt -0.4985161 0.2766571
vt -0.268924 0.1473005
vt -0.5034444 0.2816425
vt -0.2103133 0.2446957
vt -0.2221985 0.2625934
vt 0.2079461 0.2625934
vt -0.4249033 0.05129161
vt 0.8012958 0.2203966
vt 0.4249033 0.2707623
vt 0.4249033 0.2707623
vt 0.4249033 0.2707623
vt -0.2229362 0.2625934
vt -0.2229362 0.2539127
vt 0.6580824 0.2069702
vt -0.2229362 0.2625934
vt -0.2229362 0.2625934
vt 0.6580824 0.2069702
vt -0.4323941 0.167118
vt 0.4323941 0.167118
vt -0.4323941 0.167118
vt 0.7620307 0.2590679
vt 0.3695297 0.05129158
vt 0.7620307 0.2590679
vt 0.3695297 0.05129158
vt -0.3695297 0.05129161
vt 0.3695297 0.05129158
vt 0.3695297 0.05129158
vt 0.6956401 0.2261075
vt -0.2759023 0.2779293
vt -0.2759023 0.2779293
vt -0.2759023 0.2779293
vt -0.2759023 0.2779293
vt 0.2337753 0.2625934
vt -0.2337752 0.2940897
vt 0.2337753 0.2625934
vt 0.6657682 0.2389848
vt 0.6657682 0.2389848
vt 0.8529482 0.2760468
vt 0.4977462 0.3406008
vt 0.4977462 0.05129156
vt 0.4977462 0.05129156
vt -0.4673532 0.3747642
vt 0.4673532 0.1425286
vt 0.4673532 0.1425286
vt 0.4673532 0.1425286
vt 0.4673532 0.1425286
vt -0.4673532 0.3747642
vt -0.4673532 0.3747642
vt -0.4673532 0.3747642
vt 0.4580266 0.05147977
vt 0.4580266 0.05147977
vt 0.5439031 0.1003587
vt 0.5439031 0.1003587
vt -0.333463 0.1003587
vt 0.5439031 0.333463
vt 0.5439031 0.333463
vt -0.5226778 0.3523784
vt -0.3523784 0.1433485
vt -0.3523784 0.1433485
vt -0.492223 0.21305
vt 0.492223 0.21305
vt 0.492223 0.21305
vt -0.492223 0.21305
vt -0.21305 0.1680186
vt -0.4985161 0.2766571
vt -0.4985161 0.2766571
vt -0.2766571 0.203276
vt -0.2766571 0.203276
vt 0.5278677 0.268924
vt -0.268924 0.1473005
vt -0.268924 0.1473005
vt -0.268924 0.1473005
vt -0.2816425 0.1984277
vt -0.5034444 0.2816425
vt -0.2816425 0.1984277
vt -0.2103133 0.2446957
vt 0.2103133 0.2446957
vt 0.281396 0.2446957
vt 0.6575592 0.2074854
vt 0.6575592 0.2074854
vt 0.2545593 0.2625934
vt 0.2079461 0.2625934
vt 0.647453 0.2302551
vt 0.2831343 0.2625934
vn -0.5425105 -0.619005 -0.5679042
vn -0.5425105 -0.619005 -0.5679042
vn -0.5425105 -0.619005 -0.5679042
vn -0.5425106 -0.6190049 -0.5679044
vn 0.2219185 -0.4894189 0.8433394
vn 0 0 1
vn 0 0 -1
vn -0.3866472 0.9115889 -0.1396769
vn 0 0 -1
vn 0.5520511 -0.5757996 -0.6030708
vn 0.3690064 0.9040738 -0.2156033
vn 0.5520512 -0.5757996 -0.6030707
vn 0.2158494 0.5626786 0.7979987
vn 0.9069448 0.07602168 0.414333
vn 0.2158494 0.5626786 0.7979985
vn -0.542499 -0.6190063 -0.5679138
vn -0.542499 -0.6190063 -0.5679138
vn -0.3866464 0.9115893 -0.1396762
vn -0.5425106 -0.6190049 -0.5679044
vn 0 0 -1
vn 0.5520511 -0.5757996 -0.6030708
vn 0.5520512 -0.5757996 -0.6030707
vn 0.5520511 -0.5757998 -0.6030707
vn -0.5425106 -0.6190049 -0.5679044
vn 0.2219185 -0.4894189 0.8433394
vn 0 0 1
vn -0.542499 -0.6190063 -0.5679138
vn -0.5425103 -0.6190051 -0.5679042
vn 0 0 1
vn 0.2219185 -0.4894189 0.8433394
vn 0.5520512 -0.5757996 -0.6030707
vn 0.2219184 -0.489419 0.8433394
vn 0 0 -1
vn -0.3866472 0.9115889 -0.1396769
vn 0 0 -1
vn -0.3866472 0.9115888 -0.139677
vn -0.5425103 -0.6190051 -0.5679042
vn -0.3866464 0.9115893 -0.1396762
vn -0.3866479 0.9115885 -0.1396775
vn 0 0 1
vn 0.21585 0.5626779 0.797999
vn 0.2219184 -0.489419 0.8433394
vn 0.2158494 0.5626786 0.7979987
vn 0.2219184 -0.4894189 0.8433394
vn -0.3866472 0.9115889 -0.1396769
vn 0.21585 0.5626779 0.797999
vn -0.3866479 0.9115885 -0.1396775
vn 0 0 1
vn 0 0 1
vn 0 0 -1
vn 0.5520511 -0.5757996 -0.6030708
vn 0.3690053 0.9040742 -0.2156037
vn 0.3690065 0.9040738 -0.2156032
vn 0.21585 0.5626779 0.797999
vn -0.3866472 0.9115888 -0.139677
vn 0.3690053 0.9040742 -0.2156037
vn 0.3690065 0.9040738 -0.2156032
vn 0.3690064 0.9040738 -0.2156033
vn 0.2158494 0.5626786 0.7979987
vn 0.2158494 0.5626786 0.7979985
vn 0.2158487 0.5626786 0.7979989
vn -0.3866472 0.9115888 -0.139677
vn 0.3690053 0.9040742 -0.2156037
vn 0.3690065 0.9040738 -0.2156032
vn 0.3690064 0.9040738 -0.2156033
vn 0.9069448 0.07602168 0.414333
vn 0.5520511 -0.5757998 -0.6030707
vn 0.5520507 -0.5757998 -0.603071
vn 0.2158494 0.5626786 0.7979985
vn 0.9069448 0.07602168 0.414333
vn 0.9069445 0.07602169 0.4143337
vn 0.2219184 -0.489419 0.8433394
vn 0.5520511 -0.5757998 -0.6030707
vn 0.5520507 -0.5757998 -0.603071
vn 0.2219184 -0.4894189 0.8433394
vn 0.8117797 -0.3424906 0.472984
vn 0.2219184 -0.4894189 0.8433394
vn 0.2158487 0.5626786 0.7979989
vn 0.8117797 -0.3424906 0.472984
vn 0.8117796 -0.3424911 0.472984
vn 0.5520507 -0.5757998 -0.603071
vn 0.9069445 0.07602169 0.4143337
vn 0.8117797 -0.3424906 0.472984
vn 0.8117796 -0.3424911 0.472984
vn 0.9069445 0.07602169 0.4143337
vn 0.2158487 0.5626786 0.7979989
vn 0.8117796 -0.3424911 0.472984
vn -0.5425103 -0.6190051 -0.5679042
vn -0.3866464 0.9115893 -0.1396762
vn -0.8923596 -0.4450839 -0.07479803
vn 0 0 1
vn 0 0 1
vn -0.8923596 -0.4450839 -0.07479803
vn -0.3866479 0.9115885 -0.1396775
vn 0 0 1
vn -0.8923596 -0.4450839 -0.07479803
g wall__sh_20_0
f 26/26/26 40/40/40 6/6/6
f 20/20/20 33/33/33 7/7/7
f 50/50/50 35/35/35 9/9/9
f 91/91/91 48/48/48 95/95/95
f 29/29/29 49/49/49 92/92/92
f 2/2/2 1/1/1 3/3/3
f 4/4/4 19/19/19 24/24/24
f 5/5/5 25/25/25 30/30/30
f 34/34/34 45/45/45 8/8/8
f 54/54/54 46/46/46 41/41/41
f 62/62/62 36/36/36 55/55/55
f 10/10/10 21/21/21 51/51/51
f 52/52/52 63/63/63 56/56/56
f 64/64/64 53/53/53 57/57/57
f 58/58/58 11/11/11 65/65/65
f 12/12/12 31/31/31 22/22/22
f 42/42/42 32/32/32 72/72/72
f 59/59/59 43/43/43 13/13/13
f 15/15/15 69/69/69 60/60/60
f 66/66/66 70/70/70 14/14/14
f 73/73/73 23/23/23 67/67/67
f 68/68/68 81/81/81 74/74/74
f 77/77/77 44/44/44 75/75/75
f 82/82/82 71/71/71 85/85/85
f 86/86/86 61/61/61 78/78/78
f 79/79/79 76/76/76 83/83/83
f 84/84/84 87/87/87 80/80/80
f 16/16/16 27/27/27 17/17/17
f 37/37/37 28/28/28 88/88/88
f 18/18/18 38/38/38 89/89/89
f 47/47/47 39/39/39 94/94/94
f 90/90/90 93/93/93 96/96/96
