g wall__sh_96
v -0.306506 0.3893197 -0.3416626
v -0.1871375 0.3377298 0.3416625
v 0.2682658 -0.3893197 0.0660671
v 0.02358651 0.1822631 0.3137027
v -0.4902782 -0.09686077 -0.3416626
v -0.4914498 -0.2490557 -0.06435075
v -0.41075 -0.3893197 -0.3416626
v -0.4434758 -0.3893197 -0.1284174
v 0.4252558 -0.1310148 -0.06422469
v 0.4598492 -0.3893197 -0.1073562
v 0.4914497 -0.3893197 -0.3416626
v 0.454829 -0.167103 -0.3416626
v 0.4612476 -0.1695805 -0.2992351
v 0.4698075 -0.1950538 -0.3416626
v -0.306506 0.3893197 -0.3416626
v -0.306506 0.3893197 -0.3416626
v -0.306506 0.3893197 -0.3416626
v -0.1871375 0.3377298 0.3416625
v -0.1871375 0.3377298 0.3416625
v -0.1871375 0.3377298 0.3416625
v 0.2682658 -0.3893197 0.0660671
v 0.2682658 -0.3893197 0.0660671
v 0.2682658 -0.3893197 0.0660671
v 0.2682658 -0.3893197 0.0660671
v 0.02358651 0.1822631 0.3137027
v 0.02358651 0.1822631 0.3137027
v 0.02358651 0.1822631 0.3137027
v 0.02358651 0.1822631 0.3137027
v 0.02358651 0.1822631 0.3137027
v 0.02358651 0.1822631 0.3137027
v -0.4902782 -0.09686077 -0.3416626
v -0.4902782 -0.09686077 -0.3416626
v -0.4902782 -0.09686077 -0.3416626
v -0.4902782 -0.09686077 -0.3416626
v -0.4902782 -0.09686077 -0.3416626
v -0.4914498 -0.2490557 -0.06435075
v -0.4914498 -0.2490557 -0.06435075
v -0.4914498 -0.2490557 -0.06435075
v -0.4914498 -0.2490557 -0.06435075
v -0.4914498 -0.2490557 -0.06435075
v -0.41075 -0.3893197 -0.3416626
v -0.41075 -0.3893197 -0.3416626
v -0.41075 -0.3893197 -0.3416626
v -0.41075 -0.3893197 -0.3416626
v -0.41075 -0.3893197 -0.3416626
v -0.4434758 -0.3893197 -0.1284174
v -0.4434758 -0.3893197 -0.1284174
v -0.4434758 -0.3893197 -0.1284174
v 0.4252558 -0.1310148 -0.06422469
v 0.4252558 -0.1310148 -0.06422469
v 0.4252558 -0.1310148 -0.06422469
v 0.4598492 -0.3893197 -0.1073562
v 0.4598492 -0.3893197 -0.1073562
v 0.4598492 -0.3893197 -0.1073562
v 0.4598492 -0.3893197 -0.1073562
v 0.4598492 -0.3893197 -0.1073562
v 0.4914497 -0.3893197 -0.3416626
v 0.4914497 -0.3893197 -0.3416626
v 0.4914497 -0.3893197 -0.3416626
v 0.454829 -0.167103 -0.3416626
v 0.454829 -0.167103 -0.3416626
v 0.454829 -0.167103 -0.3416626
v 0.454829 -0.167103 -0.3416626
v 0.454829 -0.167103 -0.3416626
v 0.4612476 -0.1695805 -0.2992351
v 0.4612476 -0.1695805 -0.2992351
v 0.4612476 -0.1695805 -0.2992351
v 0.4612476 -0.1695805 -0.2992351
v 0.4698075 -0.1950538 -0.3416626
v 0.4698075 -0.1950538 -0.3416626
v 0.4698075 -0.1950538 -0.3416626
v 0.4698075 -0.1950538 -0.3416626
vt 0.191949 0.05129161
vt 0.1788452 0.2248565
vt -0.3582793 -0.005825783
vt -0.2961306 0.1393565
vt 0.06845894 0.05129162
vt 0.02980135 0.121729
vt 0.9415455 0.2053811
vt -0.1774966 -0.005825783
vt -0.3981548 0.05978379
vt 0.953693 0.2505171
vt 0.7942508 0
vt 0.4056664 0.05129158
vt 0.4072967 0.06206818
vt 0.7903528 0.039319
vt 0.191949 0.05129161
vt 0.2122869 0.0512916
vt 0.6505311 0.1575949
vt -0.2426066 0.1788452
vt 0.2426066 0.2248565
vt 0.2426066 0.2248565
vt 0.9626842 0.2405852
vt -0.3582793 -0.005825783
vt 0.9626842 0.2405852
vt -0.3582793 -0.005825783
vt -0.2961306 0.1393565
vt -0.2961306 0.1393565
vt -0.2961306 0.1393565
vt 0.2961307 0.2177547
vt 0.2961307 0.2177547
vt 0.2961307 0.2177547
vt 0.06845894 0.05129162
vt 0.6174319 0.05919311
vt 0.6174319 0.05919311
vt 0.6174319 0.05919311
vt 0.6174319 0.05919311
vt 0.02980135 0.121729
vt -0.1653111 0.02980134
vt -0.1653111 0.02980134
vt 0.02980135 0.121729
vt 0.02980135 0.121729
vt -0.005825772 0.05129162
vt -0.005825772 0.05129162
vt 0.6317557 0
vt 0.9415455 0.2053811
vt 0.9415455 0.2053811
vt 0.9526013 0.2036846
vt -0.1774966 -0.005825783
vt -0.00582577 0.105456
vt -0.3981548 0.05978379
vt 0.3981548 0.121761
vt -0.05978378 0.121761
vt 0.953693 0.2505171
vt -0.4069416 -0.005825783
vt 0.005825796 0.1108056
vt 0.005825796 0.1108056
vt 0.005825796 0.1108056
vt 0.9415456 0.252156
vt 0.7942508 0
vt 0.005825798 0.05129162
vt 0.7876549 0.04497616
vt 0.4056664 0.05129158
vt 0.4056664 0.05129158
vt 0.7876549 0.04497616
vt -0.05061735 0.05129162
vt -0.04998807 0.06206822
vt 0.4072967 0.06206818
vt -0.04998807 0.06206822
vt -0.04998807 0.06206822
vt -0.04351784 0.05129162
vt 0.7903528 0.039319
vt -0.04351784 0.05129162
vt -0.04351784 0.05129162
vn -0.9189491 0.3473551 0.1867538
vn -0.9189491 0.3473551 0.1867538
vn -0.2328262 -0.4688169 0.8520579
vn -0.2328262 -0.4688169 0.8520579
vn -0.9189491 0.3473551 0.1867539
vn -0.9189491 0.3473551 0.1867538
vn 0 -1 0
vn -0.2328262 -0.4688169 0.8520579
vn 0.6707105 -0.03389737 0.7409443
vn 0 -1 0
vn 0 0 -1
vn 0.589537 0.8066443 -0.04208463
vn 0.589537 0.8066444 -0.04208462
vn 0 0 -1
vn -0.9189491 0.3473551 0.1867539
vn 0.589537 0.8066443 -0.04208463
vn 0 0 -1
vn -0.2328261 -0.468817 0.8520579
vn 0.589537 0.8066443 -0.04208463
vn 0.5895372 0.8066442 -0.04208439
vn 0 -1 0
vn 0.6707105 -0.03389737 0.7409443
vn 0 -1 0
vn 0.6707105 -0.03389731 0.7409443
vn -0.2328264 -0.4688168 0.8520579
vn -0.2328261 -0.468817 0.8520579
vn 0.6707105 -0.03389737 0.7409443
vn 0.589537 0.8066444 -0.04208462
vn 0.5895372 0.8066442 -0.04208439
vn 0.5895369 0.8066444 -0.04208467
vn -0.9545491 -0.2595701 -0.1464906
vn 0 0 -1
vn 0 0 -1
vn 0 0 -1
vn 0 0 -1
vn -0.9189491 0.3473551 0.1867539
vn -0.2328264 -0.4688168 0.8520579
vn -0.2328261 -0.468817 0.8520579
vn -0.9545491 -0.2595701 -0.1464906
vn -0.954549 -0.2595703 -0.1464905
vn -0.9545491 -0.2595701 -0.1464906
vn -0.954549 -0.2595703 -0.1464905
vn 0 0 -1
vn 0 -1 0
vn 0 -1 0
vn 0 -1 0
vn -0.2328264 -0.4688168 0.8520579
vn -0.954549 -0.2595703 -0.1464905
vn 0.6707105 -0.03389731 0.7409443
vn 0.589537 0.8066444 -0.04208462
vn 0.9850422 0.1097384 0.1328506
vn 0 -1 0
vn 0.6707105 -0.03389731 0.7409443
vn 0.9850422 0.1097384 0.1328506
vn 0.9850422 0.1097387 0.1328509
vn 0.9850423 0.1097383 0.1328505
vn 0 -1 0
vn 0 0 -1
vn 0.9850422 0.1097387 0.1328509
vn 0 0 -1
vn 0.5895372 0.8066442 -0.04208439
vn 0.5895369 0.8066444 -0.04208467
vn 0 0 -1
vn 0.8765272 0.4697214 -0.1051757
vn 0.9850422 0.1097384 0.1328506
vn 0.5895369 0.8066444 -0.04208467
vn 0.9850423 0.1097383 0.1328505
vn 0.8765272 0.4697214 -0.1051757
vn 0.9850422 0.1097387 0.1328509
vn 0 0 -1
vn 0.9850423 0.1097383 0.1328505
vn 0.8765272 0.4697214 -0.1051757
g wall__sh_96_0
f 21/21/21 46/46/46 7/7/7
f 43/43/43 32/32/32 11/11/11
f 10/10/10 44/44/44 57/57/57
f 23/23/23 45/45/45 52/52/52
f 14/14/14 58/58/58 33/33/33
f 34/34/34 17/17/17 60/60/60
f 70/70/70 35/35/35 63/63/63
f 3/3/3 4/4/4 8/8/8
f 6/6/6 2/2/2 1/1/1
f 15/15/15 5/5/5 36/36/36
f 37/37/37 47/47/47 25/25/25
f 26/26/26 18/18/18 38/38/38
f 39/39/39 31/31/31 41/41/41
f 42/42/42 48/48/48 40/40/40
f 9/9/9 27/27/27 22/22/22
f 49/49/49 24/24/24 53/53/53
f 12/12/12 16/16/16 19/19/19
f 28/28/28 50/50/50 13/13/13
f 65/65/65 51/51/51 54/54/54
f 55/55/55 59/59/59 69/69/69
f 61/61/61 20/20/20 29/29/29
f 62/62/62 30/30/30 66/66/66
f 67/67/67 56/56/56 71/71/71
f 64/64/64 68/68/68 72/72/72
