g wall__sh_24
v -0.3434029 -0.3046374 0.2199664
v -0.3527543 0.2590163 0.2199664
v -0.08797446 0.3020031 0.2199664
v -0.1111808 0.06282306 -0.2143612
v -0.1961171 -0.2941465 -0.0487743
v -0.1067141 -0.02102184 -0.2199665
v 0.2976211 -0.1701744 0.2199664
v 0.268576 -0.1923738 0.007826924
v -0.07174906 0.3046374 0.2199664
v 0.2186184 0.02917242 0.2199664
v 0.04476425 0.1207445 -0.1542089
v 0.3527542 -0.0980792 0.2199664
v 0.2910652 -0.1617992 -0.007853627
v 0.1931226 -0.04892564 -0.1162475
v 0.1854474 -0.005071402 -0.1152051
v 0.334518 -0.1106076 0.06782198
v -0.3434029 -0.3046374 0.2199664
v -0.3434029 -0.3046374 0.2199664
v -0.3434029 -0.3046374 0.2199664
v -0.3527543 0.2590163 0.2199664
v -0.3527543 0.2590163 0.2199664
v -0.3527543 0.2590163 0.2199664
v -0.08797446 0.3020031 0.2199664
v -0.08797446 0.3020031 0.2199664
v -0.08797446 0.3020031 0.2199664
v -0.08797446 0.3020031 0.2199664
v -0.1111808 0.06282306 -0.2143612
v -0.1111808 0.06282306 -0.2143612
v -0.1111808 0.06282306 -0.2143612
v -0.1111808 0.06282306 -0.2143612
v -0.1111808 0.06282306 -0.2143612
v -0.1111808 0.06282306 -0.2143612
v -0.1111808 0.06282306 -0.2143612
v -0.1961171 -0.2941465 -0.0487743
v -0.1961171 -0.2941465 -0.0487743
v -0.1961171 -0.2941465 -0.0487743
v -0.1961171 -0.2941465 -0.0487743
v -0.1067141 -0.02102184 -0.2199665
v -0.1067141 -0.02102184 -0.2199665
v -0.1067141 -0.02102184 -0.2199665
v 0.2976211 -0.1701744 0.2199664
v 0.2976211 -0.1701744 0.2199664
v 0.2976211 -0.1701744 0.2199664
v 0.2976211 -0.1701744 0.2199664
v 0.2976211 -0.1701744 0.2199664
v 0.2976211 -0.1701744 0.2199664
v 0.268576 -0.1923738 0.007826924
v 0.268576 -0.1923738 0.007826924
v 0.268576 -0.1923738 0.007826924
v 0.268576 -0.1923738 0.007826924
v 0.268576 -0.1923738 0.007826924
v -0.07174906 0.3046374 0.2199664
v -0.07174906 0.3046374 0.2199664
v -0.07174906 0.3046374 0.2199664
v 0.2186184 0.02917242 0.2199664
v 0.2186184 0.02917242 0.2199664
v 0.2186184 0.02917242 0.2199664
v 0.2186184 0.02917242 0.2199664
v 0.2186184 0.02917242 0.2199664
v 0.2186184 0.02917242 0.2199664
v 0.04476425 0.1207445 -0.1542089
v 0.04476425 0.1207445 -0.1542089
v 0.04476425 0.1207445 -0.1542089
v 0.04476425 0.1207445 -0.1542089
v 0.3527542 -0.0980792 0.2199664
v 0.3527542 -0.0980792 0.2199664
v 0.3527542 -0.0980792 0.2199664
v 0.3527542 -0.0980792 0.2199664
v 0.2910652 -0.1617992 -0.007853627
v 0.2910652 -0.1617992 -0.007853627
v 0.2910652 -0.1617992 -0.007853627
v 0.2910652 -0.1617992 -0.007853627
v 0.1931226 -0.04892564 -0.1162475
v 0.1931226 -0.04892564 -0.1162475
v 0.1931226 -0.04892564 -0.1162475
v 0.1931226 -0.04892564 -0.1162475
v 0.1931226 -0.04892564 -0.1162475
v 0.1854474 -0.005071402 -0.1152051
v 0.1854474 -0.005071402 -0.1152051
v 0.1854474 -0.005071402 -0.1152051
v 0.1854474 -0.005071402 -0.1152051
v 0.334518 -0.1106076 0.06782198
v 0.334518 -0.1106076 0.06782198
v 0.334518 -0.1106076 0.06782198
vt 0.5935858 0.2625934
vt 0.7367541 0.2625934
vt -0.1416149 0.2625934
vt 0.6869209 0.152274
vt 0.5962505 0.1943332
vt 0.6656243 0.1508503
vt 0.4690314 0.5048505
vt -0.05105095 0.6221008
vt 0.4025043 0.6009513
vt 0.4548022 0.5451978
vt -0.1078992 0.1675527
vt 0.4789615 0.5194423
vt -0.6298668 0.204727
vt -0.07021614 0.6585367
vt -0.07216566 0.1774597
vt -0.6428695 0.2239487
vt 0.5935858 0.2625934
vt 0.3535767 0.4776354
vt 0.2064939 0.2625934
vt -0.2088691 0.2625934
vt 0.3518924 0.5917178
vt 0.3518924 0.5917178
vt 0.3995818 0.6004183
vt 0.3995818 0.6004181
vt -0.1416149 0.2625934
vt 0.3995818 0.6004183
vt -0.1475094 0.152274
vt 0.6869209 0.152274
vt 0.6869209 0.152274
vt -0.1475094 0.152274
vt -0.1475094 0.152274
vt -0.1475094 0.6869209
vt -0.1475094 0.6869209
vt 0.5962505 0.1943332
vt 0.1690832 0.1943332
vt -0.1690832 0.5962505
vt 0.1690832 0.1943332
vt -0.1463748 0.6656243
vt -0.1463748 0.6656243
vt -0.1463748 0.6656243
vt 0.0436735 0.2625934
vt 0.4690314 0.5048505
vt 0.0436735 0.2625934
vt 0.4690314 0.5048505
vt 0.4690314 0.5048505
vt -0.6277395 0.2625934
vt 0.05105096 0.2087099
vt -0.6221008 0.2087099
vt -0.05105095 0.6221008
vt -0.6221008 0.2087099
vt -0.05105095 0.6221008
vt -0.1374937 0.2625934
vt -0.1374937 0.2625934
vt -0.1374937 0.2625934
vt 0.4548023 0.5451978
vt 0.4548023 0.5451978
vt -0.0637402 0.2625934
vt -0.0637402 0.2625934
vt -0.0637402 0.2625934
vt -0.0637402 0.2625934
vt -0.1078992 0.1675527
vt -0.1078992 0.1675527
vt -0.1078992 0.701633
vt -0.1078992 0.701633
vt -0.6460517 0.2625934
vt -0.6460517 0.2625934
vt -0.6460517 0.2625934
vt -0.02966962 0.2625934
vt -0.6298668 0.204727
vt -0.04533868 0.6298668
vt -0.6298668 0.204727
vt -0.6298668 0.204727
vt -0.07021614 0.6585367
vt -0.07021614 0.6585367
vt -0.07021614 0.6585367
vt -0.07021614 0.6585367
vt -0.6585367 0.1771949
vt -0.07216566 0.6696757
vt -0.07216566 0.1774597
vt -0.6696757 0.1774597
vt -0.6696757 0.1774597
vt -0.03430165 0.2239487
vt -0.03430165 0.2239487
vt -0.6428695 0.2239487
vn -0.8766015 -0.01454337 -0.4809972
vn -0.8766015 -0.01454337 -0.4809972
vn -0.1412997 0.8703426 -0.4717396
vn -0.8766015 -0.01454337 -0.4809972
vn -0.8766015 -0.01454347 -0.4809972
vn -0.8766015 -0.01454354 -0.4809974
vn 0 0 1
vn 0.2210772 -0.5688788 -0.7921501
vn 0 0 1
vn 0 0 1
vn -0.1413013 0.8703423 -0.4717396
vn 0 0 1
vn 0.7935397 -0.6068416 -0.04514428
vn 0.2210775 -0.5688784 -0.7921504
vn 0.6813868 0.7182497 -0.1408172
vn 0.7935397 -0.6068416 -0.04514428
vn -0.8766015 -0.01454347 -0.4809972
vn 0 0 1
vn 0.2047306 -0.9760092 0.07410377
vn -0.1412997 0.8703426 -0.4717396
vn 0 0 1
vn 0 0 1
vn 0 0 1
vn 0 0 1
vn -0.141305 0.870342 -0.4717391
vn 0 0 1
vn -0.1412997 0.8703426 -0.4717396
vn -0.8766015 -0.01454347 -0.4809972
vn -0.8766015 -0.01454354 -0.4809974
vn -0.141305 0.870342 -0.4717391
vn -0.1413013 0.8703423 -0.4717396
vn 0.3325354 0.08053346 -0.939646
vn 0.3325354 0.08053339 -0.939646
vn -0.8766015 -0.01454354 -0.4809974
vn 0.2047306 -0.9760092 0.07410377
vn 0.2210772 -0.5688788 -0.7921501
vn 0.2047304 -0.9760092 0.07410408
vn 0.2210772 -0.5688788 -0.7921501
vn 0.2210775 -0.5688784 -0.7921504
vn 0.3325354 0.08053346 -0.939646
vn 0.2047306 -0.9760092 0.07410377
vn 0 0 1
vn 0.2047304 -0.9760092 0.07410408
vn 0 0 1
vn 0 0 1
vn 0.7935396 -0.6068418 -0.04514434
vn 0.2047304 -0.9760092 0.07410408
vn 0.7935396 -0.6068418 -0.04514434
vn 0.2210775 -0.5688784 -0.7921504
vn 0.7935392 -0.6068423 -0.04514397
vn 0.2210775 -0.5688784 -0.7921503
vn -0.141305 0.870342 -0.4717391
vn -0.1413013 0.8703423 -0.4717396
vn 0.6813869 0.7182494 -0.1408173
vn 0 0 1
vn 0 0 1
vn 0.6813869 0.7182494 -0.1408173
vn 0.6813868 0.7182497 -0.1408172
vn 0.6813869 0.7182496 -0.1408168
vn 0.6813867 0.7182497 -0.1408172
vn 0.6813869 0.7182494 -0.1408173
vn 0.6813868 0.7182497 -0.1408172
vn 0.3325354 0.08053339 -0.939646
vn 0.332536 0.08053395 -0.9396457
vn 0.7935396 -0.6068418 -0.04514434
vn 0.7935397 -0.6068416 -0.04514428
vn 0.7935392 -0.6068423 -0.04514397
vn 0.6813869 0.7182496 -0.1408168
vn 0.7935392 -0.6068423 -0.04514397
vn 0.2210775 -0.5688784 -0.7921503
vn 0.8078573 0.1549051 -0.5686572
vn 0.8078576 0.1549056 -0.5686567
vn 0.3325354 0.08053346 -0.939646
vn 0.2210775 -0.5688784 -0.7921503
vn 0.3325354 0.08053339 -0.939646
vn 0.332536 0.08053395 -0.9396457
vn 0.8078576 0.1549056 -0.5686567
vn 0.332536 0.08053395 -0.9396457
vn 0.6813867 0.7182497 -0.1408172
vn 0.8078573 0.1549051 -0.5686572
vn 0.8078576 0.1549056 -0.5686567
vn 0.6813869 0.7182496 -0.1408168
vn 0.6813867 0.7182497 -0.1408172
vn 0.8078573 0.1549051 -0.5686572
g wall__sh_24_0
f 21/21/21 18/18/18 7/7/7
f 23/23/23 22/22/22 42/42/42
f 10/10/10 9/9/9 24/24/24
f 55/55/55 44/44/44 12/12/12
f 26/26/26 45/45/45 56/56/56
f 1/1/1 2/2/2 4/4/4
f 27/27/27 20/20/20 3/3/3
f 5/5/5 17/17/17 28/28/28
f 6/6/6 34/34/34 29/29/29
f 41/41/41 19/19/19 35/35/35
f 36/36/36 38/38/38 8/8/8
f 43/43/43 37/37/37 47/47/47
f 30/30/30 25/25/25 52/52/52
f 65/65/65 46/46/46 48/48/48
f 11/11/11 31/31/31 53/53/53
f 61/61/61 54/54/54 57/57/57
f 49/49/49 39/39/39 14/14/14
f 73/73/73 40/40/40 32/32/32
f 16/16/16 66/66/66 13/13/13
f 67/67/67 50/50/50 69/69/69
f 15/15/15 62/62/62 58/58/58
f 59/59/59 68/68/68 82/82/82
f 70/70/70 51/51/51 74/74/74
f 75/75/75 33/33/33 63/63/63
f 64/64/64 78/78/78 76/76/76
f 79/79/79 60/60/60 83/83/83
f 80/80/80 84/84/84 71/71/71
f 72/72/72 77/77/77 81/81/81
