g wall__sh_30
v -0.5566805 -0.04564309 0.4159477
v -0.3919747 -0.4480901 -0.4159476
v -0.5755596 -0.03191197 0.3928863
v -0.3654537 -0.4762428 -0.4159476
v 0.4949643 -0.2504931 -0.4159476
v 0.636932 0.03661859 -0.4159476
v 0.4826161 -0.03731096 0.4159477
v 0.5302309 -0.07266033 0.2320491
v -0.636932 0.1888535 0.1336461
v -0.5912926 0.1391113 -0.4159476
v 0.06015223 0.2259073 0.4159477
v 0.4650672 0.02987635 0.4159477
v 0.5867485 0.22875 -0.4159476
v 0.07553551 0.4762428 -0.4159476
v -0.1572422 0.4275568 0.1048455
v -0.512054 -0.09301519 0.4159477
v -0.3620082 -0.3870825 -0.07670248
v 0.3272096 -0.0780853 0.4159477
v -0.5566805 -0.04564309 0.4159477
v -0.5566805 -0.04564309 0.4159477
v -0.5566805 -0.04564309 0.4159477
v -0.5566805 -0.04564309 0.4159477
v -0.3919747 -0.4480901 -0.4159476
v -0.3919747 -0.4480901 -0.4159476
v -0.3919747 -0.4480901 -0.4159476
v -0.3919747 -0.4480901 -0.4159476
v -0.3919747 -0.4480901 -0.4159476
v -0.3919747 -0.4480901 -0.4159476
v -0.3919747 -0.4480901 -0.4159476
v -0.5755596 -0.03191197 0.3928863
v -0.5755596 -0.03191197 0.3928863
v -0.5755596 -0.03191197 0.3928863
v -0.3654537 -0.4762428 -0.4159476
v -0.3654537 -0.4762428 -0.4159476
v 0.4949643 -0.2504931 -0.4159476
v 0.4949643 -0.2504931 -0.4159476
v 0.4949643 -0.2504931 -0.4159476
v 0.4949643 -0.2504931 -0.4159476
v 0.4949643 -0.2504931 -0.4159476
v 0.4949643 -0.2504931 -0.4159476
v 0.636932 0.03661859 -0.4159476
v 0.636932 0.03661859 -0.4159476
v 0.636932 0.03661859 -0.4159476
v 0.636932 0.03661859 -0.4159476
v 0.4826161 -0.03731096 0.4159477
v 0.4826161 -0.03731096 0.4159477
v 0.4826161 -0.03731096 0.4159477
v 0.4826161 -0.03731096 0.4159477
v 0.5302309 -0.07266033 0.2320491
v 0.5302309 -0.07266033 0.2320491
v 0.5302309 -0.07266033 0.2320491
v 0.5302309 -0.07266033 0.2320491
v -0.636932 0.1888535 0.1336461
v -0.636932 0.1888535 0.1336461
v -0.636932 0.1888535 0.1336461
v -0.636932 0.1888535 0.1336461
v -0.5912926 0.1391113 -0.4159476
v -0.5912926 0.1391113 -0.4159476
v -0.5912926 0.1391113 -0.4159476
v -0.5912926 0.1391113 -0.4159476
v -0.5912926 0.1391113 -0.4159476
v -0.5912926 0.1391113 -0.4159476
v 0.06015223 0.2259073 0.4159477
v 0.06015223 0.2259073 0.4159477
v 0.06015223 0.2259073 0.4159477
v 0.06015223 0.2259073 0.4159477
v 0.06015223 0.2259073 0.4159477
v 0.06015223 0.2259073 0.4159477
v 0.4650672 0.02987635 0.4159477
v 0.4650672 0.02987635 0.4159477
v 0.4650672 0.02987635 0.4159477
v 0.4650672 0.02987635 0.4159477
v 0.4650672 0.02987635 0.4159477
v 0.5867485 0.22875 -0.4159476
v 0.5867485 0.22875 -0.4159476
v 0.5867485 0.22875 -0.4159476
v 0.5867485 0.22875 -0.4159476
v 0.07553551 0.4762428 -0.4159476
v 0.07553551 0.4762428 -0.4159476
v 0.07553551 0.4762428 -0.4159476
v -0.1572422 0.4275568 0.1048455
v -0.1572422 0.4275568 0.1048455
v -0.1572422 0.4275568 0.1048455
v -0.1572422 0.4275568 0.1048455
v -0.512054 -0.09301519 0.4159477
v -0.512054 -0.09301519 0.4159477
v -0.512054 -0.09301519 0.4159477
v -0.512054 -0.09301519 0.4159477
v -0.3620082 -0.3870825 -0.07670248
v -0.3620082 -0.3870825 -0.07670248
v -0.3620082 -0.3870825 -0.07670248
v -0.3620082 -0.3870825 -0.07670248
v 0.3272096 -0.0780853 0.4159477
v 0.3272096 -0.0780853 0.4159477
v 0.3272096 -0.0780853 0.4159477
v 0.3272096 -0.0780853 0.4159477
vt 0.29268 0.2625934
vt 0.1904583 0.05129161
vt 0.2961678 0.2567359
vt 0.4836935 0.1507091
vt 0.6386632 0.1964003
vt -0.3135746 0.05129161
vt -0.1924139 0.2625934
vt -0.2045081 0.2158831
vt 0.3522423 0.1908887
vt 0.3396077 0.05129161
vt 0.08510789 0.2625934
vt -0.311862 0.2625934
vt 0.6551945 0.2933981
vt 0.5631201 0.3434901
vt 0.02988958 0.1835733
vt 0.2806475 0.2625934
vt 0.0221211 0.1374601
vt 0.608449 0.2312953
vt -0.07156795 0.2625934
vt -0.07156795 0.2625934
vt 0.29268 0.2625934
vt 0.4492517 0.2378615
vt 0.4789168 0.156407
vt 0.1904583 0.05129161
vt 0.4789168 0.156407
vt 0.4789168 0.156407
vt 0.1904583 0.05129161
vt 0.1904583 0.05129161
vt 0.1904583 0.05129161
vt 0.2961678 0.2567359
vt 0.2961678 0.2567359
vt -0.07636326 0.2567359
vt 0.02299626 0.05129161
vt 0.1833075 0.05129161
vt -0.1955504 0.05129161
vt -0.240648 0.05129161
vt 0.6386632 0.1964003
vt -0.1955504 0.05129161
vt -0.1955504 0.05129161
vt -0.1955504 0.05129161
vt 0.6642331 0.2545111
vt 0.6642331 0.2545111
vt 0.6642331 0.2545111
vt -0.3135746 0.05129161
vt -0.2947964 0.2625934
vt 0.6364393 0.2395479
vt 0.6364393 0.2395479
vt -0.1924139 0.2625934
vt -0.2858177 0.2158831
vt -0.2858177 0.2158831
vt -0.2858177 0.2158831
vt -0.2858177 0.2158831
vt -0.09195188 0.1908887
vt -0.09195188 0.1908887
vt -0.09195188 0.1908887
vt -0.09195188 0.1908887
vt 0.3396077 0.05129161
vt 0.4430177 0.2752554
vt 0.4430177 0.2752554
vt 0.4430177 0.2752554
vt -0.08035945 0.05129161
vt -0.08035945 0.05129161
vt 0.5603493 0.2928228
vt 0.08510789 0.2625934
vt 0.08510789 0.2625934
vt 0.5603493 0.2928228
vt 0.5603493 0.2928228
vt 0.5603493 0.2928228
vt 0.6332785 0.2531465
vt -0.311862 0.2625934
vt 0.1879565 0.2625934
vt 0.1879565 0.2625934
vt 0.1879565 0.2625934
vt 0.6551945 0.2933981
vt -0.362376 0.05129161
vt -0.362376 0.05129161
vt 0.2188636 0.05129159
vt 0.08901523 0.0512916
vt 0.08901523 0.0512916
vt 0.08901523 0.0512916
vt 0.02988958 0.1835733
vt 0.02988958 0.1835733
vt 0.02988958 0.1835733
vt 0.02988958 0.1835733
vt 0.4572893 0.2282735
vt 0.2806475 0.2625934
vt 0.4572893 0.2282735
vt 0.06023282 0.2625934
vt 0.2059543 0.1374601
vt 0.2059543 0.1374601
vt 0.0221211 0.1374601
vt 0.0221211 0.1374601
vt -0.1529406 0.2625934
vt -0.1529406 0.2625934
vt 0.608449 0.2312953
vt -0.1529406 0.2625934
vn -0.7154058 -0.6739397 0.1843905
vn -0.7154058 -0.6739397 0.1843905
vn -0.7154058 -0.6739397 0.1843905
vn 0 0 -1
vn 0 0 -1
vn 0.8940322 -0.4420708 0.07266268
vn 0.2461103 -0.9380186 0.2440305
vn 0.2461103 -0.9380186 0.2440305
vn -0.9457751 -0.321031 -0.04948347
vn -0.9457751 -0.321031 -0.04948347
vn -0.3032581 0.6888573 0.658415
vn 0.9483967 0.2477155 0.1979415
vn 0 0 -1
vn 0 0 -1
vn -0.4480681 0.8862547 -0.117421
vn -0.7154046 -0.6739407 0.1843912
vn 0.24611 -0.9380187 0.2440304
vn 0 0 1
vn -0.3032533 0.6888592 0.6584152
vn -0.3032581 0.6888573 0.658415
vn -0.7154046 -0.6739407 0.1843912
vn 0 0 1
vn 0 0 -1
vn -0.945775 -0.321031 -0.04948348
vn 0 0 -1
vn 0 0 -1
vn -0.7154046 -0.6739407 0.1843912
vn -0.7154052 -0.6739402 0.1843909
vn -0.7154051 -0.6739404 0.1843909
vn -0.9457751 -0.321031 -0.04948347
vn -0.945775 -0.321031 -0.04948348
vn -0.3032533 0.6888592 0.6584152
vn 0.24611 -0.9380187 0.2440304
vn -0.7154051 -0.6739404 0.1843909
vn 0.2461103 -0.9380186 0.2440305
vn 0.8940322 -0.4420708 0.07266268
vn 0 0 -1
vn 0.24611 -0.9380187 0.2440304
vn 0.24611 -0.9380187 0.2440305
vn 0.24611 -0.9380187 0.2440305
vn 0 0 -1
vn 0 0 -1
vn 0 0 -1
vn 0.9483968 0.2477154 0.1979409
vn 0.9483967 0.2477155 0.1979415
vn 0 0 1
vn 0 0 1
vn 0.24611 -0.9380187 0.2440305
vn 0.8940322 -0.4420708 0.07266268
vn 0.9483967 0.2477155 0.1979415
vn 0.9483966 0.247716 0.1979411
vn 0.9483968 0.2477154 0.1979409
vn -0.3032533 0.6888592 0.6584152
vn -0.3032581 0.6888573 0.658415
vn -0.4480681 0.8862547 -0.117421
vn -0.303258 0.6888573 0.6584149
vn -0.945775 -0.321031 -0.04948348
vn 0 0 -1
vn 0 0 -1
vn 0 0 -1
vn -0.4480681 0.8862547 -0.117421
vn -0.448068 0.8862547 -0.117421
vn 0 0 1
vn -0.303258 0.6888573 0.6584149
vn 0.4197294 0.8669788 0.2686543
vn 0 0 1
vn 0 0 1
vn 0 0 1
vn 0 0 1
vn 0.9483966 0.247716 0.1979411
vn 0.4197292 0.8669788 0.2686544
vn 0.4197293 0.8669788 0.2686544
vn 0.4197294 0.8669788 0.2686543
vn 0 0 -1
vn 0.9483966 0.247716 0.1979411
vn 0.9483968 0.2477154 0.1979409
vn 0.4197292 0.8669788 0.2686544
vn -0.448068 0.8862547 -0.117421
vn 0.4197292 0.8669788 0.2686544
vn 0.4197293 0.8669788 0.2686544
vn -0.303258 0.6888573 0.6584149
vn -0.448068 0.8862547 -0.117421
vn 0.4197293 0.8669788 0.2686544
vn 0.4197294 0.8669788 0.2686543
vn 0 0 1
vn -0.7154052 -0.6739402 0.1843909
vn 0 0 1
vn 0.01523674 -0.8565128 0.5159008
vn -0.7154052 -0.6739402 0.1843909
vn -0.7154051 -0.6739404 0.1843909
vn 0.24611 -0.9380187 0.2440305
vn 0.01523674 -0.8565128 0.5159008
vn 0.24611 -0.9380187 0.2440305
vn 0.24611 -0.9380187 0.2440305
vn 0 0 1
vn 0.01523674 -0.8565128 0.5159008
g wall__sh_30_0
f 5/5/5 4/4/4 23/23/23
f 25/25/25 58/58/58 41/41/41
f 42/42/42 37/37/37 26/26/26
f 13/13/13 59/59/59 14/14/14
f 43/43/43 60/60/60 74/74/74
f 46/46/46 69/69/69 63/63/63
f 66/66/66 22/22/22 85/85/85
f 47/47/47 67/67/67 18/18/18
f 95/95/95 68/68/68 87/87/87
f 2/2/2 1/1/1 3/3/3
f 7/7/7 35/35/35 8/8/8
f 49/49/49 36/36/36 6/6/6
f 10/10/10 30/30/30 9/9/9
f 24/24/24 31/31/31 57/57/57
f 53/53/53 32/32/32 19/19/19
f 12/12/12 45/45/45 50/50/50
f 54/54/54 20/20/20 11/11/11
f 61/61/61 55/55/55 15/15/15
f 75/75/75 70/70/70 51/51/51
f 52/52/52 44/44/44 76/76/76
f 81/81/81 56/56/56 64/64/64
f 78/78/78 62/62/62 82/82/82
f 71/71/71 77/77/77 79/79/79
f 72/72/72 80/80/80 83/83/83
f 84/84/84 65/65/65 73/73/73
f 16/16/16 21/21/21 27/27/27
f 17/17/17 33/33/33 38/38/38
f 89/89/89 86/86/86 28/28/28
f 29/29/29 34/34/34 90/90/90
f 93/93/93 91/91/91 39/39/39
f 40/40/40 48/48/48 94/94/94
f 92/92/92 96/96/96 88/88/88
