g wall__sh_88
v -0.4268446 -0.1818225 -0.2687738
v -0.4268446 -0.01414752 0.03552547
v 0.1804888 -0.5057998 -0.2687738
v 0.4156778 0.1533992 0.003031015
v -0.4268446 0.5001584 0.1017282
v -0.4268446 0.5057998 -0.2687738
v 0.06872678 0.4504923 0.2687738
v 0.3320167 0.4336418 -0.2687738
v 0.3599153 0.4248168 0.04273656
v 0.3502866 0.4270477 0.05019227
v 0.3590508 0.426422 0.03655884
v -0.01445365 -0.1653302 0.1603923
v 0.169337 -0.4163015 -0.1171468
v 0.3587956 0.07544768 0.04830089
v 0.111506 0.1112214 0.2400738
v 0.4220318 0.02006304 -0.2687738
v 0.4268446 0.02222717 -0.2054118
v 0.344141 -0.1859305 -0.2687738
v -0.4268446 -0.1818225 -0.2687738
v -0.4268446 -0.1818225 -0.2687738
v -0.4268446 -0.01414752 0.03552547
v -0.4268446 -0.01414752 0.03552547
v -0.4268446 -0.01414752 0.03552547
v -0.4268446 -0.01414752 0.03552547
v -0.4268446 -0.01414752 0.03552547
v 0.1804888 -0.5057998 -0.2687738
v 0.1804888 -0.5057998 -0.2687738
v 0.1804888 -0.5057998 -0.2687738
v 0.1804888 -0.5057998 -0.2687738
v 0.1804888 -0.5057998 -0.2687738
v 0.1804888 -0.5057998 -0.2687738
v 0.4156778 0.1533992 0.003031015
v 0.4156778 0.1533992 0.003031015
v 0.4156778 0.1533992 0.003031015
v 0.4156778 0.1533992 0.003031015
v 0.4156778 0.1533992 0.003031015
v -0.4268446 0.5001584 0.1017282
v -0.4268446 0.5001584 0.1017282
v -0.4268446 0.5001584 0.1017282
v -0.4268446 0.5001584 0.1017282
v -0.4268446 0.5057998 -0.2687738
v -0.4268446 0.5057998 -0.2687738
v -0.4268446 0.5057998 -0.2687738
v -0.4268446 0.5057998 -0.2687738
v 0.06872678 0.4504923 0.2687738
v 0.06872678 0.4504923 0.2687738
v 0.06872678 0.4504923 0.2687738
v 0.06872678 0.4504923 0.2687738
v 0.06872678 0.4504923 0.2687738
v 0.06872678 0.4504923 0.2687738
v 0.06872678 0.4504923 0.2687738
v 0.3320167 0.4336418 -0.2687738
v 0.3320167 0.4336418 -0.2687738
v 0.3320167 0.4336418 -0.2687738
v 0.3320167 0.4336418 -0.2687738
v 0.3320167 0.4336418 -0.2687738
v 0.3320167 0.4336418 -0.2687738
v 0.3320167 0.4336418 -0.2687738
v 0.3320167 0.4336418 -0.2687738
v 0.3599153 0.4248168 0.04273656
v 0.3599153 0.4248168 0.04273656
v 0.3599153 0.4248168 0.04273656
v 0.3599153 0.4248168 0.04273656
v 0.3502866 0.4270477 0.05019227
v 0.3502866 0.4270477 0.05019227
v 0.3590508 0.426422 0.03655884
v 0.3590508 0.426422 0.03655884
v 0.3590508 0.426422 0.03655884
v -0.01445365 -0.1653302 0.1603923
v -0.01445365 -0.1653302 0.1603923
v -0.01445365 -0.1653302 0.1603923
v -0.01445365 -0.1653302 0.1603923
v 0.169337 -0.4163015 -0.1171468
v 0.169337 -0.4163015 -0.1171468
v 0.169337 -0.4163015 -0.1171468
v 0.3587956 0.07544768 0.04830089
v 0.3587956 0.07544768 0.04830089
v 0.3587956 0.07544768 0.04830089
v 0.3587956 0.07544768 0.04830089
v 0.3587956 0.07544768 0.04830089
v 0.3587956 0.07544768 0.04830089
v 0.111506 0.1112214 0.2400738
v 0.111506 0.1112214 0.2400738
v 0.111506 0.1112214 0.2400738
v 0.111506 0.1112214 0.2400738
v 0.4220318 0.02006304 -0.2687738
v 0.4220318 0.02006304 -0.2687738
v 0.4220318 0.02006304 -0.2687738
v 0.4268446 0.02222717 -0.2054118
v 0.4268446 0.02222717 -0.2054118
v 0.4268446 0.02222717 -0.2054118
v 0.344141 -0.1859305 -0.2687738
v 0.344141 -0.1859305 -0.2687738
v 0.344141 -0.1859305 -0.2687738
v 0.344141 -0.1859305 -0.2687738
v 0.344141 -0.1859305 -0.2687738
vt 0.7051268 0.05129161
vt 0.7051268 0.1285838
vt 0.5508638 0.05129161
vt 0.4911257 0.34931
vt 0.9684363 0.4479613
vt 0.9914867 0.4483123
vt -0.5792514 0.187829
vt 0.1366784 0.339707
vt 0.5052894 0.4182502
vt 0.5077351 0.4188168
vt -0.4186579 0.1288463
vt 0.6003793 0.1603
vt 0.5536964 0.08980496
vt 0.5055738 0.3295102
vt 0.5683855 0.3385968
vt -0.3154425 0.05129161
vt -0.3159922 0.0673856
vt 0.1388621 0.2143069
vt 0.9914867 0.4055325
vt 0 0.2151383
vt 0.972555 0.4159642
vt 0.972555 0.4159642
vt 0.7051268 0.1285838
vt 0.7051268 0.306753
vt 0.7051268 0.306753
vt 0.1093867 0.149566
vt 0.1093867 0.149566
vt 0.5508638 0.05129161
vt 0.5508638 0.05129161
vt 0.1093867 0.149566
vt -0.1818731 0.05129161
vt -0.34931 0.1203302
vt 0.4911257 0.34931
vt -0.34931 0.1203302
vt -0.34931 0.1203302
vt -0.34931 0.1203302
vt -0.7051268 0.1453994
vt -0.7051268 0.1453994
vt 0.7051268 0.437387
vt 0.7051268 0.437387
vt 0 0.3543116
vt 0.9914867 0.4483123
vt 0 0.3543116
vt -0.7051268 0.05129166
vt 0.5792514 0.4247718
vt 0.5792514 0.4247718
vt -0.5792514 0.187829
vt -0.5792514 0.187829
vt 0.5792514 0.4247718
vt 0.5792514 0.4247718
vt 0.5792514 0.4247718
vt -0.5123757 0.05129165
vt -0.5123757 0.05129165
vt -0.4204918 0.0512916
vt -0.4204918 0.0512916
vt -0.5123757 0.05129165
vt -0.4204918 0.0512916
vt 0.1366784 0.339707
vt 0.1366784 0.339707
vt 0.5052894 0.4182502
vt -0.4182502 0.1304154
vt -0.4182502 0.1304154
vt -0.5052894 0.1304155
vt -0.5077351 0.1323092
vt -0.5077351 0.1323092
vt -0.505509 0.1288463
vt -0.505509 0.1288463
vt -0.505509 0.1288463
vt 0.6003793 0.1603
vt 0.6003793 0.2683525
vt 0.6003793 0.2683525
vt 0.6003793 0.2683525
vt 0.5536964 0.2046057
vt -0.2046057 0.08980496
vt -0.2046057 0.08980496
vt 0.5055738 0.3295102
vt 0.5055738 0.3295102
vt 0.5055738 0.3295102
vt -0.3295103 0.1318288
vt -0.3295103 0.1318288
vt -0.3295103 0.1318288
vt 0.5683855 0.3385968
vt 0.5683855 0.3385968
vt 0.5683855 0.3385968
vt 0.5683855 0.3385968
vt -0.3154425 0.05129161
vt 0.152891 0.2559995
vt -0.3154425 0.05129161
vt -0.3159922 0.0673856
vt -0.3159922 0.0673856
vt -0.3159922 0.0673856
vt 0.1388621 0.2143069
vt -0.2631201 0.05129161
vt -0.2631201 0.05129161
vt -0.2631201 0.05129161
vt -0.2631201 0.05129161
vn -0.423289 -0.793505 0.4372371
vn -0.423289 -0.793505 0.4372371
vn -0.423289 -0.793505 0.4372371
vn 0.613741 0.01060639 0.7894362
vn -1 0 0
vn -1 0 0
vn 0.09464958 0.9953952 0.01515661
vn 0 0 -1
vn 0.6137423 0.01063076 0.7894349
vn 0.6137423 0.01063076 0.7894349
vn 0.973901 0.2119448 -0.08121724
vn -0.4232891 -0.793505 0.437237
vn -0.4232898 -0.7935048 0.4372366
vn 0.6137412 0.01060659 0.789436
vn 0.6137412 0.01060659 0.789436
vn 0.9738968 0.2119654 -0.08121466
vn 0.9738968 0.2119654 -0.08121466
vn 0 0 -1
vn -1 0 0
vn 0 0 -1
vn -1 0 0
vn -1 0 0
vn -0.4232891 -0.793505 0.437237
vn -0.32792 -0.1206098 0.9369748
vn -0.3279199 -0.1206098 0.9369748
vn 0 0 -1
vn 0 0 -1
vn -0.4232891 -0.793505 0.437237
vn -0.4232898 -0.7935048 0.4372366
vn 0 0 -1
vn 0.8443155 -0.4319705 0.3170691
vn 0.9738962 0.2119673 -0.0812162
vn 0.613741 0.0106063 0.7894362
vn 0.9738968 0.2119654 -0.08121466
vn 0.9738961 0.2119676 -0.08121579
vn 0.8443154 -0.4319707 0.3170692
vn 0.09464932 0.9953952 0.01515609
vn 0.09464958 0.9953952 0.01515661
vn -0.3279199 -0.1206098 0.9369748
vn -0.32792 -0.1206098 0.9369748
vn 0 0 -1
vn -1 0 0
vn 0 0 -1
vn 0.09464932 0.9953952 0.01515609
vn 0.6137423 0.01063076 0.7894349
vn 0.613741 0.01060639 0.7894362
vn 0.09465396 0.9953948 0.01516224
vn 0.09464946 0.9953953 0.01515655
vn 0.6137412 0.01060659 0.789436
vn 0.613741 0.0106063 0.7894362
vn -0.3279199 -0.1206098 0.9369748
vn 0.09464932 0.9953952 0.01515609
vn 0.09464958 0.9953952 0.01515661
vn 0.9738962 0.2119673 -0.0812162
vn 0.973901 0.2119448 -0.08121724
vn 0.09464946 0.9953953 0.01515655
vn 0.9738961 0.2119676 -0.08121579
vn 0 0 -1
vn 0 0 -1
vn 0.613741 0.01060639 0.7894362
vn 0.9738962 0.2119673 -0.0812162
vn 0.973901 0.2119448 -0.08121724
vn 0.3573336 0.914918 0.1877175
vn 0.09465396 0.9953948 0.01516224
vn 0.3573336 0.914918 0.1877175
vn 0.09465396 0.9953948 0.01516224
vn 0.09464946 0.9953953 0.01515655
vn 0.3573336 0.914918 0.1877175
vn -0.4232898 -0.7935048 0.4372366
vn -0.3279199 -0.1206098 0.9369748
vn 0.5080881 -0.4440556 0.7380116
vn 0.5080883 -0.4440561 0.7380112
vn 0.5080881 -0.4440556 0.7380116
vn 0.8443155 -0.4319705 0.3170691
vn 0.8443155 -0.4319706 0.3170689
vn 0.613741 0.0106063 0.7894362
vn 0.5080881 -0.4440556 0.7380116
vn 0.5080883 -0.4440561 0.7380112
vn 0.8443154 -0.4319707 0.3170692
vn 0.8443155 -0.4319706 0.3170689
vn 0.8443152 -0.4319709 0.3170692
vn -0.3279199 -0.1206098 0.9369748
vn -0.32792 -0.1206098 0.9369748
vn -0.3279199 -0.1206098 0.9369748
vn 0.5080883 -0.4440561 0.7380112
vn 0.9738961 0.2119676 -0.08121579
vn 0 0 -1
vn 0.9337435 -0.3530692 -0.05886599
vn 0.8443154 -0.4319707 0.3170692
vn 0.8443152 -0.4319709 0.3170692
vn 0.9337435 -0.3530692 -0.05886599
vn 0 0 -1
vn 0.8443155 -0.4319705 0.3170691
vn 0.8443155 -0.4319706 0.3170689
vn 0.8443152 -0.4319709 0.3170692
vn 0.9337435 -0.3530692 -0.05886599
g wall__sh_88_0
f 6/6/6 19/19/19 21/21/21
f 26/26/26 20/20/20 41/41/41
f 42/42/42 22/22/22 5/5/5
f 27/27/27 43/43/43 8/8/8
f 18/18/18 58/58/58 87/87/87
f 30/30/30 59/59/59 92/92/92
f 2/2/2 1/1/1 3/3/3
f 52/52/52 44/44/44 37/37/37
f 53/53/53 38/38/38 7/7/7
f 10/10/10 45/45/45 9/9/9
f 46/46/46 4/4/4 60/60/60
f 61/61/61 32/32/32 54/54/54
f 11/11/11 62/62/62 55/55/55
f 66/66/66 47/47/47 64/64/64
f 56/56/56 48/48/48 67/67/67
f 68/68/68 65/65/65 63/63/63
f 12/12/12 23/23/23 28/28/28
f 13/13/13 69/69/69 29/29/29
f 14/14/14 49/49/49 15/15/15
f 33/33/33 50/50/50 76/76/76
f 51/51/51 39/39/39 82/82/82
f 83/83/83 40/40/40 24/24/24
f 25/25/25 70/70/70 84/84/84
f 71/71/71 73/73/73 77/77/77
f 78/78/78 85/85/85 72/72/72
f 16/16/16 34/34/34 17/17/17
f 57/57/57 35/35/35 86/86/86
f 74/74/74 31/31/31 93/93/93
f 89/89/89 36/36/36 79/79/79
f 80/80/80 75/75/75 94/94/94
f 90/90/90 81/81/81 95/95/95
f 91/91/91 96/96/96 88/88/88
