g wall__sh_75
v -0.4957497 -0.489239 0.3216335
v -0.4957497 0.4450676 0.3216335
v -0.4957497 0.3567357 -0.1423467
v -0.1054962 0.4212222 -0.2293853
v -0.03855395 -0.5565654 0.3216335
v 0.09780526 0.4079802 -0.01727223
v -0.002161026 0.4852135 -0.005997419
v 0.04106236 0.5565653 0.3216335
v 0.4595242 0.2481313 0.3216335
v -0.0348165 -0.5520144 0.2607267
v 0.077456 -0.5053611 0.3216335
v 0.4957495 0.1119449 0.3216335
v -0.4957497 -0.4733531 0.1319703
v -0.4957497 -0.1382399 -0.0590058
v -0.4957497 0.3226032 -0.3216334
v -0.1778488 0.3898845 -0.3150552
v -0.06609201 -0.5451359 0.2335908
v -0.1521394 0.3621199 -0.2955997
v -0.4957497 -0.489239 0.3216335
v -0.4957497 -0.489239 0.3216335
v -0.4957497 -0.489239 0.3216335
v -0.4957497 0.4450676 0.3216335
v -0.4957497 0.4450676 0.3216335
v -0.4957497 0.4450676 0.3216335
v -0.4957497 0.4450676 0.3216335
v -0.4957497 0.4450676 0.3216335
v -0.4957497 0.4450676 0.3216335
v -0.4957497 0.4450676 0.3216335
v -0.4957497 0.3567357 -0.1423467
v -0.4957497 0.3567357 -0.1423467
v -0.4957497 0.3567357 -0.1423467
v -0.4957497 0.3567357 -0.1423467
v -0.4957497 0.3567357 -0.1423467
v -0.4957497 0.3567357 -0.1423467
v -0.1054962 0.4212222 -0.2293853
v -0.1054962 0.4212222 -0.2293853
v -0.1054962 0.4212222 -0.2293853
v -0.1054962 0.4212222 -0.2293853
v -0.03855395 -0.5565654 0.3216335
v -0.03855395 -0.5565654 0.3216335
v -0.03855395 -0.5565654 0.3216335
v -0.03855395 -0.5565654 0.3216335
v -0.03855395 -0.5565654 0.3216335
v -0.03855395 -0.5565654 0.3216335
v 0.09780526 0.4079802 -0.01727223
v 0.09780526 0.4079802 -0.01727223
v 0.09780526 0.4079802 -0.01727223
v 0.09780526 0.4079802 -0.01727223
v 0.09780526 0.4079802 -0.01727223
v 0.09780526 0.4079802 -0.01727223
v -0.002161026 0.4852135 -0.005997419
v -0.002161026 0.4852135 -0.005997419
v -0.002161026 0.4852135 -0.005997419
v 0.04106236 0.5565653 0.3216335
v 0.04106236 0.5565653 0.3216335
v 0.04106236 0.5565653 0.3216335
v 0.4595242 0.2481313 0.3216335
v 0.4595242 0.2481313 0.3216335
v 0.4595242 0.2481313 0.3216335
v -0.0348165 -0.5520144 0.2607267
v -0.0348165 -0.5520144 0.2607267
v 0.077456 -0.5053611 0.3216335
v 0.077456 -0.5053611 0.3216335
v 0.077456 -0.5053611 0.3216335
v 0.077456 -0.5053611 0.3216335
v 0.4957495 0.1119449 0.3216335
v 0.4957495 0.1119449 0.3216335
v 0.4957495 0.1119449 0.3216335
v 0.4957495 0.1119449 0.3216335
v 0.4957495 0.1119449 0.3216335
v -0.4957497 -0.4733531 0.1319703
v -0.4957497 -0.4733531 0.1319703
v -0.4957497 -0.4733531 0.1319703
v -0.4957497 -0.4733531 0.1319703
v -0.4957497 -0.4733531 0.1319703
v -0.4957497 -0.1382399 -0.0590058
v -0.4957497 -0.1382399 -0.0590058
v -0.4957497 -0.1382399 -0.0590058
v -0.4957497 0.3226032 -0.3216334
v -0.4957497 0.3226032 -0.3216334
v -0.4957497 0.3226032 -0.3216334
v -0.1778488 0.3898845 -0.3150552
v -0.1778488 0.3898845 -0.3150552
v -0.1778488 0.3898845 -0.3150552
v -0.1778488 0.3898845 -0.3150552
v -0.06609201 -0.5451359 0.2335908
v -0.06609201 -0.5451359 0.2335908
v -0.06609201 -0.5451359 0.2335908
v -0.06609201 -0.5451359 0.2335908
v -0.1521394 0.3621199 -0.2955997
v -0.1521394 0.3621199 -0.2955997
v -0.1521394 0.3621199 -0.2955997
v -0.1521394 0.3621199 -0.2955997
v -0.1521394 0.3621199 -0.2955997
v -0.1521394 0.3621199 -0.2955997
v -0.1521394 0.3621199 -0.2955997
vt 0.9397313 0.4582114
vt 0.9397312 0.5163383
vt 0.9685974 0.5108428
vt -0.6060022 0.1226344
vt 0.08234549 0.3728887
vt -0.5543635 0.1765112
vt -0.579755 0.1793751
vt -0.5687762 0.2625935
vt 0.1720542 0.5357574
vt 0.5880495 0.2471231
vt 0.5595323 0.2625934
vt 0.1785787 0.5081937
vt 0.951531 0.4591998
vt 0.9634124 0.4800484
vt 0.9797514 0.508719
vt -0.6243798 0.1008742
vt 0.5959935 0.2402306
vt -0.6178496 0.6954796
vt 0 0.3865153
vt 0.9397313 0.4582114
vt 0.7051268 0.2625934
vt -0.7051268 0.2625935
vt 0 0.575617
vt -0.7051268 0.2625935
vt -0.7051268 0.2625935
vt 0 0.575617
vt 0 0.575617
vt 0 0.575617
vt -0.7051268 0.1447423
vt 0.9685974 0.5108428
vt 0.9685974 0.5108428
vt 0.9685973 0.5108426
vt -0.7051268 0.1447423
vt -0.7051268 0.1447423
vt -0.6060022 0.1226344
vt -0.6060022 0.1226344
vt -0.6060022 0.1226344
vt -0.7104916 0.1226344
vt 0.5889989 0.2625934
vt 0.08234549 0.3728887
vt 0.08234549 0.3728887
vt 0.5889989 0.2625934
vt 0.5889989 0.2625934
vt 0.5889989 0.2625934
vt -0.5543635 0.1765112
vt -0.5543635 0.1765112
vt -0.7071282 0.1765112
vt -0.7071282 0.1765112
vt -0.7071282 0.1765112
vt -0.7071282 0.1765112
vt -0.579755 0.1793751
vt -0.579755 0.1793751
vt -0.579755 0.1793751
vt 0.09668517 0.5981839
vt -0.5687762 0.2625935
vt -0.5687762 0.2625935
vt -0.4624867 0.2625934
vt 0.1720542 0.5357574
vt -0.6665264 0.2625934
vt 0.5880495 0.2471231
vt -0.5880495 0.463289
vt 0.1032399 0.3832522
vt -0.5595323 0.475139
vt -0.5595323 0.475139
vt -0.5595323 0.475139
vt 0.1785787 0.5081937
vt 0.1785787 0.5081937
vt -0.6319351 0.2625934
vt -0.4532855 0.6319351
vt -0.6319351 0.2625934
vt 0.951531 0.4591998
vt 0.7051268 0.2144189
vt 0.7051268 0.2144189
vt -0.7051268 0.483269
vt -0.7051268 0.483269
vt 0.9634123 0.4800481
vt -0.7051268 0.568388
vt -0.7051268 0.568388
vt -0.7051268 0.09920336
vt -0.7051268 0.6854423
vt -0.7051268 0.6854423
vt -0.7025318 0.1008742
vt -0.6243798 0.1008742
vt -0.7025318 0.1008742
vt -0.6243798 0.7025318
vt 0.5959935 0.2402306
vt -0.5959935 0.4650362
vt -0.5959935 0.4650362
vt -0.5959935 0.4650362
vt -0.6954796 0.1058159
vt -0.6954796 0.1058159
vt -0.6178496 0.6954796
vt -0.6178496 0.6954796
vt -0.6178496 0.6954796
vt -0.6178496 0.6954796
vt -0.6178496 0.6954796
vn -1 0 0
vn -1 0 0
vn -1 0 0
vn -0.1999192 0.9625248 -0.1832442
vn 0 0 1
vn 0.51458 0.7313765 -0.4475443
vn 0.51458 0.7313765 -0.4475443
vn -0.1999195 0.9625246 -0.1832447
vn 0 0 1
vn 0.4034122 -0.9139819 -0.04353947
vn 0.4034122 -0.9139819 -0.04353947
vn 0 0 1
vn -1 0 0
vn -1 0 0
vn -1 0 0
vn -0.1999194 0.9625244 -0.1832457
vn -0.1451906 -0.9859512 -0.08258172
vn 0.5578881 -0.3780312 -0.7388188
vn 0 0 1
vn -1 0 0
vn -0.1451907 -0.9859513 -0.08258142
vn -0.1999192 0.9625248 -0.1832442
vn 0 0 1
vn -0.1999195 0.9625246 -0.1832447
vn -0.1999192 0.9625247 -0.1832442
vn 0 0 1
vn 0 0 1
vn 0 0 1
vn -0.1999192 0.9625248 -0.1832442
vn -1 0 0
vn -1 0 0
vn -1 0 0
vn -0.1999194 0.9625244 -0.1832457
vn -0.199919 0.9625247 -0.1832448
vn 0.51458 0.7313765 -0.4475443
vn -0.1999192 0.9625247 -0.1832442
vn -0.1999194 0.9625244 -0.1832457
vn 0.7146797 0.1901024 -0.6731226
vn 0.4034122 -0.9139819 -0.04353947
vn 0 0 1
vn 0 0 1
vn -0.1451907 -0.9859513 -0.08258142
vn -0.1451906 -0.9859512 -0.08258172
vn -0.1451917 -0.9859512 -0.08258135
vn 0.5751131 0.7802735 -0.2458011
vn 0.5751119 0.7802743 -0.2458017
vn 0.7146792 0.1901034 -0.6731228
vn 0.7146797 0.1901024 -0.6731226
vn 0.7146793 0.1901036 -0.6731226
vn 0.71468 0.1901006 -0.6731228
vn -0.1999195 0.9625246 -0.1832447
vn -0.1999192 0.9625247 -0.1832442
vn 0.5751119 0.7802743 -0.2458017
vn 0 0 1
vn 0.5751131 0.7802735 -0.2458011
vn 0.5751119 0.7802743 -0.2458017
vn 0.5751131 0.7802735 -0.2458011
vn 0 0 1
vn 0.7146792 0.1901034 -0.6731228
vn -0.1451917 -0.9859512 -0.08258135
vn 0.5578877 -0.3780299 -0.7388198
vn 0 0 1
vn 0.5578881 -0.3780312 -0.7388188
vn 0.5578877 -0.3780315 -0.7388189
vn 0.5578877 -0.3780299 -0.7388198
vn 0 0 1
vn 0 0 1
vn 0.7146792 0.1901034 -0.6731228
vn 0.5578881 -0.3780312 -0.7388188
vn 0.7146793 0.1901036 -0.6731226
vn -1 0 0
vn -0.1451907 -0.9859513 -0.08258142
vn -0.1451906 -0.9859512 -0.08258172
vn 0.1218535 -0.4914381 -0.8623458
vn 0.1218535 -0.4914381 -0.8623458
vn -1 0 0
vn 0.1218535 -0.4914381 -0.8623458
vn 0.1218535 -0.4914381 -0.8623458
vn -0.199919 0.9625247 -0.1832448
vn 0.1218535 -0.4914381 -0.8623458
vn 0.1218535 -0.4914386 -0.8623455
vn 0.7146797 0.1901024 -0.6731226
vn -0.199919 0.9625247 -0.1832448
vn 0.71468 0.1901006 -0.6731228
vn 0.1218535 -0.4914386 -0.8623455
vn -0.1451917 -0.9859512 -0.08258135
vn 0.5578877 -0.3780315 -0.7388189
vn 0.5578877 -0.3780299 -0.7388198
vn 0.1218535 -0.4914381 -0.8623458
vn 0.7146793 0.1901036 -0.6731226
vn 0.71468 0.1901006 -0.6731228
vn 0.5578877 -0.3780315 -0.7388189
vn 0.1218535 -0.4914381 -0.8623458
vn 0.1218535 -0.4914381 -0.8623458
vn 0.1218535 -0.4914381 -0.8623458
vn 0.1218535 -0.4914386 -0.8623455
g wall__sh_75_0
f 3/3/3 1/1/1 2/2/2
f 23/23/23 19/19/19 5/5/5
f 9/9/9 54/54/54 26/26/26
f 58/58/58 27/27/27 12/12/12
f 66/66/66 28/28/28 40/40/40
f 41/41/41 62/62/62 67/67/67
f 13/13/13 30/30/30 14/14/14
f 20/20/20 31/31/31 71/71/71
f 15/15/15 76/76/76 32/32/32
f 29/29/29 22/22/22 4/4/4
f 35/35/35 7/7/7 6/6/6
f 51/51/51 24/24/24 8/8/8
f 36/36/36 25/25/25 52/52/52
f 55/55/55 57/57/57 45/45/45
f 46/46/46 53/53/53 56/56/56
f 39/39/39 10/10/10 11/11/11
f 47/47/47 59/59/59 68/68/68
f 42/42/42 21/21/21 72/72/72
f 33/33/33 37/37/37 16/16/16
f 82/82/82 38/38/38 48/48/48
f 18/18/18 69/69/69 63/63/63
f 79/79/79 34/34/34 83/83/83
f 43/43/43 73/73/73 17/17/17
f 86/86/86 60/60/60 44/44/44
f 49/49/49 70/70/70 90/90/90
f 91/91/91 84/84/84 50/50/50
f 87/87/87 92/92/92 64/64/64
f 65/65/65 61/61/61 88/88/88
f 93/93/93 89/89/89 74/74/74
f 94/94/94 75/75/75 77/77/77
f 95/95/95 78/78/78 80/80/80
f 81/81/81 85/85/85 96/96/96
