g wall__sh_62
v 0.002057195 0.3346069 -0.4159476
v 0.246938 0.5855997 0.4159477
v 0.4885116 0.3894064 -0.01837993
v 0.04044735 0.05300689 -0.4159476
v 0.4929783 0.3055615 -0.02398521
v 0.2562894 0.02194571 0.4159477
v 0.4035753 0.03243709 0.1472068
v -0.2214361 0.6682017 0.4159477
v -0.02946997 0.340167 -0.4159476
v -0.2562212 0.6100354 0.2341145
v -0.3929369 0.4210353 0.4159477
v -0.02664959 -0.6597326 0.2780659
v -0.1122106 -0.1509082 -0.4159476
v -0.1575154 -0.1219208 -0.4159476
v -0.4929782 0.06000829 0.4159477
v -0.2306406 -0.1624413 -0.2825062
v -0.08366847 -0.6295677 0.4159477
v -0.04989433 -0.6682017 0.3137413
v -0.4257315 -0.338973 0.4159477
v -0.3520821 -0.4196842 0.229422
v 0.002057195 0.3346069 -0.4159476
v 0.002057195 0.3346069 -0.4159476
v 0.002057195 0.3346069 -0.4159476
v 0.002057195 0.3346069 -0.4159476
v 0.002057195 0.3346069 -0.4159476
v 0.246938 0.5855997 0.4159477
v 0.246938 0.5855997 0.4159477
v 0.246938 0.5855997 0.4159477
v 0.4885116 0.3894064 -0.01837993
v 0.4885116 0.3894064 -0.01837993
v 0.4885116 0.3894064 -0.01837993
v 0.4885116 0.3894064 -0.01837993
v 0.4885116 0.3894064 -0.01837993
v 0.04044735 0.05300689 -0.4159476
v 0.04044735 0.05300689 -0.4159476
v 0.04044735 0.05300689 -0.4159476
v 0.04044735 0.05300689 -0.4159476
v 0.04044735 0.05300689 -0.4159476
v 0.04044735 0.05300689 -0.4159476
v 0.4929783 0.3055615 -0.02398521
v 0.4929783 0.3055615 -0.02398521
v 0.2562894 0.02194571 0.4159477
v 0.2562894 0.02194571 0.4159477
v 0.2562894 0.02194571 0.4159477
v 0.2562894 0.02194571 0.4159477
v 0.2562894 0.02194571 0.4159477
v 0.4035753 0.03243709 0.1472068
v 0.4035753 0.03243709 0.1472068
v 0.4035753 0.03243709 0.1472068
v 0.4035753 0.03243709 0.1472068
v -0.2214361 0.6682017 0.4159477
v -0.2214361 0.6682017 0.4159477
v -0.2214361 0.6682017 0.4159477
v -0.2214361 0.6682017 0.4159477
v -0.2214361 0.6682017 0.4159477
v -0.02946997 0.340167 -0.4159476
v -0.02946997 0.340167 -0.4159476
v -0.02946997 0.340167 -0.4159476
v -0.02946997 0.340167 -0.4159476
v -0.02946997 0.340167 -0.4159476
v -0.2562212 0.6100354 0.2341145
v -0.2562212 0.6100354 0.2341145
v -0.2562212 0.6100354 0.2341145
v -0.3929369 0.4210353 0.4159477
v -0.3929369 0.4210353 0.4159477
v -0.3929369 0.4210353 0.4159477
v -0.3929369 0.4210353 0.4159477
v -0.3929369 0.4210353 0.4159477
v -0.02664959 -0.6597326 0.2780659
v -0.02664959 -0.6597326 0.2780659
v -0.02664959 -0.6597326 0.2780659
v -0.02664959 -0.6597326 0.2780659
v -0.02664959 -0.6597326 0.2780659
v -0.02664959 -0.6597326 0.2780659
v -0.02664959 -0.6597326 0.2780659
v -0.02664959 -0.6597326 0.2780659
v -0.1122106 -0.1509082 -0.4159476
v -0.1122106 -0.1509082 -0.4159476
v -0.1122106 -0.1509082 -0.4159476
v -0.1575154 -0.1219208 -0.4159476
v -0.1575154 -0.1219208 -0.4159476
v -0.1575154 -0.1219208 -0.4159476
v -0.1575154 -0.1219208 -0.4159476
v -0.1575154 -0.1219208 -0.4159476
v -0.4929782 0.06000829 0.4159477
v -0.4929782 0.06000829 0.4159477
v -0.4929782 0.06000829 0.4159477
v -0.4929782 0.06000829 0.4159477
v -0.4929782 0.06000829 0.4159477
v -0.2306406 -0.1624413 -0.2825062
v -0.2306406 -0.1624413 -0.2825062
v -0.2306406 -0.1624413 -0.2825062
v -0.08366847 -0.6295677 0.4159477
v -0.08366847 -0.6295677 0.4159477
v -0.08366847 -0.6295677 0.4159477
v -0.08366847 -0.6295677 0.4159477
v -0.08366847 -0.6295677 0.4159477
v -0.08366847 -0.6295677 0.4159477
v -0.08366847 -0.6295677 0.4159477
v -0.04989433 -0.6682017 0.3137413
v -0.04989433 -0.6682017 0.3137413
v -0.4257315 -0.338973 0.4159477
v -0.4257315 -0.338973 0.4159477
v -0.3520821 -0.4196842 0.229422
v -0.3520821 -0.4196842 0.229422
v -0.3520821 -0.4196842 0.229422
v -0.3520821 -0.4196842 0.229422
v -0.3520821 -0.4196842 0.229422
vt -0.271069 0.05129161
vt -0.2088691 0.2625934
vt -0.1475094 0.152274
vt -0.2613179 0.6014753
vt -0.1463748 0.6656243
vt -0.5935857 0.2625934
vt -0.5962505 0.1943331
vt 0.2675336 0.6084363
vt 0.3021087 0.5420426
vt -0.3366718 0.2164077
vt 0.6949547 0.2625934
vt -0.4204391 0.2275714
vt 0.2872063 0.44265
vt 0.2790464 0.448517
vt 0.6032537 0.2625934
vt 0.5467513 0.08518578
vt -0.428101 0.2625934
vt -0.4182879 0.236633
vt 0.5019122 0.2625934
vt 0.4814115 0.2152158
vt -0.271069 0.6730018
vt -0.271069 0.05129161
vt 0.307787 0.5409173
vt -0.271069 0.05129161
vt -0.271069 0.05129161
vt -0.7367541 0.2625934
vt 0.3518924 0.5917178
vt -0.2088691 0.2625934
vt -0.1475094 0.6869209
vt -0.1475094 0.6869209
vt -0.6869209 0.152274
vt -0.6869209 0.152274
vt -0.6869209 0.152274
vt -0.2613179 0.6014753
vt -0.6014753 0.0512916
vt 0.3147015 0.483922
vt -0.6014753 0.0512916
vt 0.3147015 0.483922
vt -0.6014753 0.0512916
vt -0.6656243 0.1508503
vt -0.6656243 0.1508503
vt -0.5935857 0.2625934
vt 0.3535767 0.4776354
vt -0.5935857 0.2625934
vt -0.5935857 0.2625934
vt 0.3535767 0.4776354
vt -0.5962505 0.1943331
vt -0.5962505 0.1943331
vt -0.5962505 0.1943331
vt -0.5962505 0.1943331
vt -0.3278364 0.2625934
vt -0.3278364 0.2625934
vt 0.7577351 0.2625934
vt 0.2675336 0.6084363
vt 0.2675336 0.6084363
vt -0.2790769 0.05129162
vt 0.6744141 0.05129159
vt 0.3021087 0.5420426
vt 0.3021087 0.5420426
vt 0.6744141 0.05129159
vt -0.3366718 0.2164077
vt 0.7429608 0.2164077
vt 0.7429608 0.2164077
vt 0.6949547 0.2625934
vt 0.6949547 0.2625934
vt 0.6949547 0.2625934
vt 0.2366447 0.5584103
vt 0.2366447 0.5584103
vt -0.4204391 0.2275714
vt -0.4204391 0.2275714
vt 0.2783606 0.2275714
vt -0.4204391 0.2275714
vt -0.4204391 0.2275714
vt 0.2783606 0.2275714
vt 0.2783606 0.2275714
vt 0.2783606 0.2275714
vt 0.2872063 0.44265
vt -0.5496808 0.0512916
vt 0.3000931 0.0512916
vt 0.5570436 0.0512916
vt 0.3116006 0.0512916
vt 0.5570436 0.0512916
vt 0.5570436 0.0512916
vt 0.3116006 0.0512916
vt 0.6032537 0.2625934
vt 0.6032537 0.2625934
vt 0.6032537 0.2625934
vt 0.2186262 0.4853392
vt 0.2186262 0.4853392
vt 0.5467513 0.08518578
vt 0.3301744 0.08518578
vt 0.3301744 0.08518578
vt -0.428101 0.2625934
vt 0.2923471 0.3457704
vt 0.2923471 0.3457704
vt 0.2923471 0.3457704
vt 0.2923471 0.3457704
vt 0.2928434 0.2625934
vt 0.2928434 0.2625934
vt 0.2842647 0.236633
vt 0.2842647 0.236633
vt 0.2307381 0.4045862
vt 0.3797276 0.2625934
vt 0.4814115 0.2152158
vt 0.3610206 0.2152158
vt 0.3610206 0.2152158
vt 0.3610206 0.2152158
vt 0.3610206 0.2152158
vn 0.1640175 0.9300198 -0.3288791
vn 0.1640175 0.9300198 -0.3288791
vn 0.1640175 0.9300198 -0.3288791
vn 0.6247484 0.0851711 -0.7761671
vn 0.6247482 0.08517163 -0.7761672
vn 0.8766015 0.01454337 0.4809973
vn 0.7049516 -0.5277516 -0.4738369
vn 0 0 1
vn 0 0 -1
vn 0.1640192 0.9300197 -0.3288784
vn -0.8213313 0.5698954 -0.0251805
vn 0.7049517 -0.5277515 -0.473837
vn 0 0 -1
vn 0 0 -1
vn -0.8797885 0.243791 -0.408091
vn -0.8797885 0.243791 -0.408091
vn 0.8030304 -0.4190195 0.4237509
vn 0.8030304 -0.4190195 0.4237509
vn -0.9398734 -0.1584118 -0.3025617
vn -0.9398734 -0.1584118 -0.3025617
vn 0.6247484 0.0851711 -0.7761671
vn 0.1640174 0.9300198 -0.3288791
vn 0 0 -1
vn 0.1640192 0.9300197 -0.3288784
vn 0.1640173 0.9300199 -0.3288791
vn 0.8766015 0.01454337 0.4809973
vn 0 0 1
vn 0.1640174 0.9300198 -0.3288791
vn 0.6247484 0.0851711 -0.7761671
vn 0.6247482 0.08517163 -0.7761672
vn 0.8766015 0.01454337 0.4809973
vn 0.8766015 0.01454335 0.4809973
vn 0.8766013 0.01454352 0.4809975
vn 0.6247482 0.08517163 -0.7761672
vn 0.7049516 -0.5277516 -0.4738369
vn 0 0 -1
vn 0.7049517 -0.5277515 -0.473837
vn 0 0 -1
vn 0.7049516 -0.5277516 -0.473837
vn 0.7049516 -0.5277516 -0.4738369
vn 0.8766013 0.01454352 0.4809975
vn 0.8766015 0.01454335 0.4809973
vn 0 0 1
vn 0.8030309 -0.4190191 0.4237503
vn 0.8030306 -0.4190191 0.4237509
vn 0 0 1
vn 0.8766015 0.01454335 0.4809973
vn 0.8766013 0.01454352 0.4809975
vn 0.7049517 -0.5277515 -0.473837
vn 0.8030309 -0.4190191 0.4237503
vn 0.1640174 0.9300198 -0.3288791
vn 0.1640173 0.9300199 -0.3288791
vn -0.8213313 0.5698954 -0.0251805
vn 0 0 1
vn 0 0 1
vn 0.1640192 0.9300197 -0.3288784
vn -0.8797885 0.2437908 -0.408091
vn 0 0 -1
vn 0 0 -1
vn -0.8797884 0.2437911 -0.408091
vn 0.1640173 0.9300199 -0.3288791
vn -0.8213313 0.5698954 -0.0251805
vn -0.8797885 0.2437908 -0.408091
vn -0.8797885 0.2437908 -0.408091
vn -0.8797884 0.2437911 -0.408091
vn -0.8797885 0.2437911 -0.408091
vn 0 0 1
vn 0 0 1
vn 0.8030309 -0.4190191 0.4237503
vn 0.7049516 -0.5277516 -0.473837
vn -0.4720146 -0.7377177 -0.4826745
vn 0.8030304 -0.4190195 0.4237509
vn 0.8030306 -0.4190191 0.4237509
vn -0.4720143 -0.7377177 -0.4826748
vn -0.4720143 -0.7377179 -0.4826747
vn -0.4720142 -0.7377177 -0.482675
vn 0 0 -1
vn 0.7049516 -0.5277516 -0.473837
vn -0.4720146 -0.7377177 -0.4826745
vn -0.8797884 0.2437911 -0.408091
vn -0.4720146 -0.7377177 -0.4826745
vn -0.8797885 0.243791 -0.408091
vn -0.8797885 0.2437911 -0.408091
vn -0.4720143 -0.7377177 -0.4826748
vn -0.8797885 0.2437911 -0.408091
vn -0.9398734 -0.1584118 -0.3025617
vn -0.9398735 -0.1584118 -0.3025618
vn 0 0 1
vn 0 0 1
vn -0.9398735 -0.1584118 -0.3025618
vn -0.4720143 -0.7377177 -0.4826748
vn -0.4720143 -0.7377179 -0.4826747
vn 0.8030306 -0.4190191 0.4237509
vn 0 0 1
vn 0 0 1
vn 0 0 1
vn 0 0 1
vn -0.6456712 -0.7600285 0.07392795
vn -0.6456712 -0.7600285 0.07392801
vn -0.4720142 -0.7377177 -0.482675
vn -0.6456712 -0.7600285 0.07392801
vn 0 0 1
vn -0.6456712 -0.7600285 0.07392795
vn -0.9398735 -0.1584118 -0.3025618
vn -0.4720143 -0.7377179 -0.4826747
vn -0.4720142 -0.7377177 -0.482675
vn -0.6456712 -0.7600285 0.07392795
vn -0.6456712 -0.7600285 0.07392801
g wall__sh_62_0
f 43/43/43 27/27/27 8/8/8
f 9/9/9 23/23/23 36/36/36
f 14/14/14 58/58/58 13/13/13
f 59/59/59 38/38/38 77/77/77
f 94/94/94 46/46/46 54/54/54
f 95/95/95 55/55/55 67/67/67
f 96/96/96 68/68/68 88/88/88
f 97/97/97 89/89/89 102/102/102
f 3/3/3 1/1/1 2/2/2
f 4/4/4 21/21/21 29/29/29
f 34/34/34 30/30/30 5/5/5
f 31/31/31 26/26/26 6/6/6
f 35/35/35 40/40/40 7/7/7
f 32/32/32 42/42/42 47/47/47
f 48/48/48 41/41/41 33/33/33
f 51/51/51 28/28/28 22/22/22
f 10/10/10 24/24/24 56/56/56
f 52/52/52 25/25/25 61/61/61
f 62/62/62 11/11/11 53/53/53
f 64/64/64 63/63/63 57/57/57
f 37/37/37 49/49/49 12/12/12
f 50/50/50 44/44/44 69/69/69
f 78/78/78 39/39/39 70/70/70
f 65/65/65 60/60/60 80/80/80
f 81/81/81 79/79/79 71/71/71
f 15/15/15 82/82/82 16/16/16
f 66/66/66 83/83/83 85/85/85
f 18/18/18 72/72/72 17/17/17
f 73/73/73 45/45/45 93/93/93
f 19/19/19 86/86/86 20/20/20
f 87/87/87 90/90/90 104/104/104
f 91/91/91 84/84/84 74/74/74
f 105/105/105 92/92/92 75/75/75
f 76/76/76 100/100/100 106/106/106
f 98/98/98 103/103/103 107/107/107
f 108/108/108 101/101/101 99/99/99
