g wall__sh_85
v 0.3326805 0.4079552 -0.2565782
v -0.1777802 0.5353916 0.2565782
v -0.05534863 0.5819035 -0.2565782
v -0.2003124 0.5521066 0.2231044
v -0.2590275 0.3963916 0.2326768
v -0.3080561 -0.1203277 -0.2565782
v -0.3326807 0.1630311 0.1957835
v -0.174906 0.534205 0.2560634
v 0.3326805 0.384994 -0.1403743
v -0.1484277 0.3798213 0.2360264
v 0.02630568 -0.5819033 -0.2565782
v 0.3326805 -0.2870721 -0.2565782
v 0.3326805 -0.1194179 -0.1381613
v -0.128855 -0.1359267 0.1638866
v -0.07110763 -0.06112051 0.1774724
v 0.3326805 0.4079552 -0.2565782
v 0.3326805 0.4079552 -0.2565782
v 0.3326805 0.4079552 -0.2565782
v 0.3326805 0.4079552 -0.2565782
v 0.3326805 0.4079552 -0.2565782
v -0.1777802 0.5353916 0.2565782
v -0.1777802 0.5353916 0.2565782
v -0.1777802 0.5353916 0.2565782
v -0.1777802 0.5353916 0.2565782
v -0.05534863 0.5819035 -0.2565782
v -0.05534863 0.5819035 -0.2565782
v -0.05534863 0.5819035 -0.2565782
v -0.05534863 0.5819035 -0.2565782
v -0.05534863 0.5819035 -0.2565782
v -0.05534863 0.5819035 -0.2565782
v -0.2003124 0.5521066 0.2231044
v -0.2003124 0.5521066 0.2231044
v -0.2003124 0.5521066 0.2231044
v -0.2590275 0.3963916 0.2326768
v -0.2590275 0.3963916 0.2326768
v -0.2590275 0.3963916 0.2326768
v -0.3080561 -0.1203277 -0.2565782
v -0.3080561 -0.1203277 -0.2565782
v -0.3080561 -0.1203277 -0.2565782
v -0.3080561 -0.1203277 -0.2565782
v -0.3326807 0.1630311 0.1957835
v -0.3326807 0.1630311 0.1957835
v -0.3326807 0.1630311 0.1957835
v -0.3326807 0.1630311 0.1957835
v -0.3326807 0.1630311 0.1957835
v -0.174906 0.534205 0.2560634
v -0.174906 0.534205 0.2560634
v -0.174906 0.534205 0.2560634
v 0.3326805 0.384994 -0.1403743
v 0.3326805 0.384994 -0.1403743
v 0.3326805 0.384994 -0.1403743
v 0.3326805 0.384994 -0.1403743
v 0.3326805 0.384994 -0.1403743
v -0.1484277 0.3798213 0.2360264
v -0.1484277 0.3798213 0.2360264
v -0.1484277 0.3798213 0.2360264
v -0.1484277 0.3798213 0.2360264
v -0.1484277 0.3798213 0.2360264
v -0.1484277 0.3798213 0.2360264
v 0.02630568 -0.5819033 -0.2565782
v 0.02630568 -0.5819033 -0.2565782
v 0.02630568 -0.5819033 -0.2565782
v 0.3326805 -0.2870721 -0.2565782
v 0.3326805 -0.2870721 -0.2565782
v 0.3326805 -0.2870721 -0.2565782
v 0.3326805 -0.1194179 -0.1381613
v 0.3326805 -0.1194179 -0.1381613
v 0.3326805 -0.1194179 -0.1381613
v 0.3326805 -0.1194179 -0.1381613
v -0.128855 -0.1359267 0.1638866
v -0.128855 -0.1359267 0.1638866
v -0.128855 -0.1359267 0.1638866
v -0.128855 -0.1359267 0.1638866
v -0.128855 -0.1359267 0.1638866
v -0.128855 -0.1359267 0.1638866
v -0.07110763 -0.06112051 0.1774724
v -0.07110763 -0.06112051 0.1774724
v -0.07110763 -0.06112051 0.1774724
vt 1 0.5238116
vt 0.6839039 0.1816336
vt 0.6065672 0.05129154
vt 0.6881496 0.1731312
vt 0.6485979 0.1755626
vt 0.8845971 0.4168882
vt 0.5893242 0.1661917
vt -0.5761996 0.6836025
vt 0.7051268 0.08080739
vt -0.5829251 0.644389
vt 0.9448189 0.3234664
vt 1 0.3831397
vt 0.9841195 0.4676042
vt -0.5878966 0.5133888
vt -0.6025645 0.5323895
vt 0.7051268 0.05129153
vt 1 0.5238116
vt 1 0.5238116
vt 0.9914867 0.5004142
vt 0.9914867 0.5004142
vt 0.5754696 0.1816335
vt -0.5754696 0.6839039
vt -0.5754696 0.6839039
vt 0.5754696 0.1816335
vt 0.9301122 0.5590185
vt 0.695718 0.05129159
vt 0.695718 0.05129159
vt 0.6065672 0.05129154
vt 0.6065672 0.05129154
vt 0.6065672 0.05129154
vt 0.5697464 0.1731312
vt 0.6881496 0.1731312
vt 0.6881496 0.1731312
vt 0.6485979 0.1755626
vt -0.5548327 0.6485979
vt -0.5548327 0.6485979
vt 0.5173509 0.0512916
vt 0.8845971 0.4168882
vt 0.5173509 0.0512916
vt 0.5173509 0.0512916
vt 0.5893242 0.1661917
vt 0.5893242 0.1661917
vt -0.5361247 0.5893242
vt -0.5361247 0.5893242
vt 0.5893242 0.1661917
vt 0.5761996 0.1815028
vt 0.5761996 0.1815028
vt -0.5761996 0.6836025
vt 0.7051268 0.08080739
vt -0.7051268 0.6457029
vt 0.9842572 0.498986
vt -0.7051268 0.6457029
vt -0.7051268 0.6457029
vt -0.5829251 0.644389
vt -0.5829251 0.644389
vt -0.5829251 0.644389
vt -0.5829251 0.644389
vt -0.5829251 0.644389
vt -0.5829251 0.644389
vt 0.9448189 0.3234664
vt 0.4001105 0.0512916
vt -0.6273075 0.4001105
vt 0.9914867 0.4571739
vt -0.7051268 0.4749977
vt -0.7051268 0.4749977
vt 0.9841195 0.4676042
vt -0.7051268 0.517582
vt -0.7051268 0.517582
vt -0.7051268 0.517582
vt -0.5878966 0.5133888
vt 0.5133888 0.1580899
vt 0.5133888 0.1580899
vt -0.5878966 0.5133888
vt -0.5878966 0.5133888
vt -0.5878966 0.5133888
vt -0.6025645 0.5323895
vt -0.6025645 0.5323895
vt -0.6025645 0.5323895
vn 0 0 -1
vn -0.7113611 0.3070942 0.6321855
vn 0.4025716 0.8980256 0.1774436
vn -0.7113611 0.3070942 0.6321855
vn -0.7113611 0.3070942 0.6321855
vn 0 0 -1
vn -0.909911 0.3274439 -0.254642
vn 0.133142 -0.1050711 0.9855117
vn 0.4025727 0.898025 0.1774439
vn -0.0509587 -0.1402421 0.988805
vn 0 0 -1
vn 0 0 -1
vn 1 0 0
vn -0.0509587 -0.1402421 0.9888051
vn -0.0509587 -0.1402421 0.9888051
vn 0.4025727 0.898025 0.1774439
vn 0 0 -1
vn 0 0 -1
vn 1 0 0
vn 1 0 0
vn 0.4025716 0.8980256 0.1774436
vn -0.05095864 -0.1402416 0.9888051
vn 0.133142 -0.1050711 0.9855117
vn 0.4025444 0.8980388 0.1774383
vn 0 0 -1
vn -0.909911 0.3274439 -0.254642
vn -0.909911 0.327444 -0.254642
vn 0.4025727 0.898025 0.1774439
vn 0.4025728 0.898025 0.1774437
vn 0.4025444 0.8980388 0.1774383
vn 0.4025716 0.8980256 0.1774436
vn -0.909911 0.327444 -0.254642
vn -0.9099103 0.3274439 -0.2546444
vn -0.9099103 0.3274439 -0.2546444
vn -0.0509587 -0.1402421 0.988805
vn -0.05095864 -0.1402416 0.9888051
vn -0.909911 0.3274439 -0.254642
vn 0 0 -1
vn -0.7705533 -0.5581832 0.3076997
vn -0.7705535 -0.558183 0.3076998
vn -0.909911 0.327444 -0.254642
vn -0.9099103 0.3274439 -0.2546444
vn -0.0509587 -0.1402421 0.988805
vn -0.05095861 -0.1402421 0.988805
vn -0.7705533 -0.5581832 0.3076997
vn 0.4025728 0.898025 0.1774437
vn 0.4025444 0.8980388 0.1774383
vn 0.616161 0.003455966 0.7876127
vn 0.4025728 0.898025 0.1774437
vn 0.616161 0.003455966 0.7876127
vn 1 0 0
vn 0.6161609 0.003455692 0.7876127
vn 0.6161612 0.003455484 0.7876126
vn -0.05095864 -0.1402416 0.9888051
vn 0.133142 -0.1050711 0.9855117
vn 0.616161 0.003455966 0.7876127
vn -0.0509587 -0.1402421 0.9888051
vn -0.05095861 -0.1402421 0.988805
vn 0.6161609 0.003455692 0.7876127
vn 0 0 -1
vn -0.7705535 -0.558183 0.3076998
vn 0.4853944 -0.5043991 0.7141246
vn 1 0 0
vn 0.4853944 -0.5043991 0.7141246
vn 0.4853949 -0.5043982 0.7141249
vn 1 0 0
vn 0.6161612 0.003455484 0.7876126
vn 0.4853949 -0.5043982 0.7141249
vn 0.4853945 -0.5043994 0.7141243
vn -0.05095861 -0.1402421 0.988805
vn -0.7705533 -0.5581832 0.3076997
vn -0.7705535 -0.558183 0.3076998
vn 0.4853944 -0.5043991 0.7141246
vn 0.4853949 -0.5043982 0.7141249
vn 0.4853945 -0.5043994 0.7141243
vn 0.6161609 0.003455692 0.7876127
vn 0.6161612 0.003455484 0.7876126
vn 0.4853945 -0.5043994 0.7141243
g wall__sh_85_0
f 25/25/25 1/1/1 6/6/6
f 11/11/11 17/17/17 12/12/12
f 38/38/38 18/18/18 60/60/60
f 19/19/19 51/51/51 13/13/13
f 63/63/63 20/20/20 66/66/66
f 4/4/4 5/5/5 2/2/2
f 3/3/3 31/31/31 21/21/21
f 26/26/26 37/37/37 7/7/7
f 32/32/32 27/27/27 41/41/41
f 42/42/42 34/34/34 33/33/33
f 9/9/9 16/16/16 28/28/28
f 35/35/35 43/43/43 10/10/10
f 22/22/22 36/36/36 54/54/54
f 55/55/55 8/8/8 23/23/23
f 46/46/46 49/49/49 29/29/29
f 30/30/30 24/24/24 47/47/47
f 50/50/50 48/48/48 56/56/56
f 15/15/15 57/57/57 14/14/14
f 58/58/58 44/44/44 70/70/70
f 71/71/71 45/45/45 39/39/39
f 72/72/72 40/40/40 61/61/61
f 52/52/52 59/59/59 76/76/76
f 77/77/77 67/67/67 53/53/53
f 73/73/73 62/62/62 64/64/64
f 74/74/74 65/65/65 68/68/68
f 69/69/69 78/78/78 75/75/75
