g wall__sh_63
v 0.2039791 0.4224269 0.2363474
v 0.2068616 0.4189239 0.1907585
v -0.368019 -0.06548476 0.2363474
v 0.1354827 0.4186102 0.2363474
v 0.1981648 0.4180226 0.1855734
v 0.2973864 0.007737041 -0.2363474
v -0.6222101 -0.3098785 0.2363474
v -0.4563556 -0.373502 0.2363474
v 0.007707357 -0.3998361 0.2363474
v 0.4058013 -0.4224268 0.2363474
v 0.4200752 -0.3785106 0.00281477
v 0.5151998 -0.08039594 -0.2331198
v 0.6075088 0.123302 0.0439772
v 0.6222101 0.1185656 0.2363474
v 0.4536265 -0.3803651 0.2363474
v 0.4394778 -0.3588828 -0.01627326
v 0.2039791 0.4224269 0.2363474
v 0.2039791 0.4224269 0.2363474
v 0.2039791 0.4224269 0.2363474
v 0.2039791 0.4224269 0.2363474
v 0.2039791 0.4224269 0.2363474
v 0.2068616 0.4189239 0.1907585
v 0.2068616 0.4189239 0.1907585
v 0.2068616 0.4189239 0.1907585
v 0.2068616 0.4189239 0.1907585
v -0.368019 -0.06548476 0.2363474
v -0.368019 -0.06548476 0.2363474
v -0.368019 -0.06548476 0.2363474
v -0.368019 -0.06548476 0.2363474
v -0.368019 -0.06548476 0.2363474
v -0.368019 -0.06548476 0.2363474
v 0.1354827 0.4186102 0.2363474
v 0.1354827 0.4186102 0.2363474
v 0.1981648 0.4180226 0.1855734
v 0.1981648 0.4180226 0.1855734
v 0.1981648 0.4180226 0.1855734
v 0.1981648 0.4180226 0.1855734
v 0.2973864 0.007737041 -0.2363474
v 0.2973864 0.007737041 -0.2363474
v 0.2973864 0.007737041 -0.2363474
v 0.2973864 0.007737041 -0.2363474
v 0.2973864 0.007737041 -0.2363474
v 0.2973864 0.007737041 -0.2363474
v 0.2973864 0.007737041 -0.2363474
v 0.2973864 0.007737041 -0.2363474
v -0.6222101 -0.3098785 0.2363474
v -0.6222101 -0.3098785 0.2363474
v -0.4563556 -0.373502 0.2363474
v -0.4563556 -0.373502 0.2363474
v -0.4563556 -0.373502 0.2363474
v -0.4563556 -0.373502 0.2363474
v 0.007707357 -0.3998361 0.2363474
v 0.007707357 -0.3998361 0.2363474
v 0.007707357 -0.3998361 0.2363474
v 0.007707357 -0.3998361 0.2363474
v 0.007707357 -0.3998361 0.2363474
v 0.007707357 -0.3998361 0.2363474
v 0.4058013 -0.4224268 0.2363474
v 0.4058013 -0.4224268 0.2363474
v 0.4058013 -0.4224268 0.2363474
v 0.4200752 -0.3785106 0.00281477
v 0.4200752 -0.3785106 0.00281477
v 0.4200752 -0.3785106 0.00281477
v 0.4200752 -0.3785106 0.00281477
v 0.5151998 -0.08039594 -0.2331198
v 0.5151998 -0.08039594 -0.2331198
v 0.5151998 -0.08039594 -0.2331198
v 0.6075088 0.123302 0.0439772
v 0.6075088 0.123302 0.0439772
v 0.6075088 0.123302 0.0439772
v 0.6222101 0.1185656 0.2363474
v 0.6222101 0.1185656 0.2363474
v 0.6222101 0.1185656 0.2363474
v 0.6222101 0.1185656 0.2363474
v 0.6222101 0.1185656 0.2363474
v 0.6222101 0.1185656 0.2363474
v 0.4536265 -0.3803651 0.2363474
v 0.4536265 -0.3803651 0.2363474
v 0.4536265 -0.3803651 0.2363474
v 0.4394778 -0.3588828 -0.01627326
v 0.4394778 -0.3588828 -0.01627326
v 0.4394778 -0.3588828 -0.01627326
v 0.4394778 -0.3588828 -0.01627326
v 0.4394778 -0.3588828 -0.01627326
vt 0.8145729 0.3872018
vt 0.4443598 0.2510138
vt 0.7115505 0.2884496
vt 0.8022361 0.3864293
vt 0.4421508 0.2496968
vt 0.4673531 0.1425287
vt 0.2337752 0.2940897
vt 0.2759023 0.2779293
vt 0.7792225 0.2207776
vt -0.4948906 0.2625934
vt 0.4985162 0.2766572
vt 0.5226778 0.3523784
vt 0.5461244 0.2137313
vt 0.5498585 0.2625934
vt 0.8595369 0.2247185
vt 0.5034444 0.2816426
vt 0.4436277 0.2625934
vt 0.4436277 0.2625934
vt 0.8145729 0.3872018
vt 0.4436277 0.2625934
vt 0.8145729 0.3872018
vt 0.4443598 0.2510138
vt 0.4443598 0.2510138
vt 0.4443598 0.2510138
vt 0.4443598 0.2510138
vt 0.2983399 0.3561659
vt 0.2983399 0.3561659
vt 0.2983399 0.3561659
vt 0.7115505 0.2884496
vt 0.7115505 0.2884496
vt 0.7115505 0.2884496
vt 0.4262295 0.2625934
vt 0.4262295 0.4791262
vt 0.4421508 0.2496968
vt 0.4421508 0.478977
vt 0.4421508 0.2496968
vt 0.4421508 0.478977
vt 0.4673531 0.3747643
vt 0.4673531 0.3747643
vt 0.4673531 0.3747643
vt 0.4673531 0.3747643
vt 0.4673531 0.3747643
vt 0.4673531 0.3747643
vt 0.4673531 0.1425287
vt 0.4673531 0.1425287
vt 0.2337752 0.2940897
vt 0.6657681 0.2389849
vt 0.6956402 0.2261076
vt 0.6956402 0.2261076
vt 0.2759023 0.2779293
vt -0.2759023 0.2625934
vt 0.7792225 0.2207776
vt -0.3937745 0.2625934
vt -0.3937745 0.2625934
vt 0.7792225 0.2207776
vt 0.7792225 0.2207776
vt 0.7792225 0.2207776
vt 0.8509231 0.2162053
vt -0.4948906 0.2625934
vt -0.4948906 0.2625934
vt -0.4985161 0.203276
vt -0.4985161 0.203276
vt 0.4985162 0.2766572
vt -0.4985161 0.203276
vt 0.5226778 0.1433485
vt -0.3523784 0.1433485
vt -0.3523784 0.1433485
vt 0.5461244 0.2137313
vt 0.5461244 0.2137313
vt -0.4041178 0.2137313
vt 0.8899004 0.325701
vt 0.5498585 0.2625934
vt 0.8899004 0.325701
vt -0.4029147 0.2625934
vt -0.4029147 0.2625934
vt -0.4029147 0.2625934
vt 0.8595369 0.2247185
vt -0.5070382 0.2625934
vt -0.2761861 0.2625934
vt 0.5034444 0.2816426
vt -0.5034444 0.1984276
vt -0.5034444 0.1984276
vt -0.2816426 0.1984276
vt -0.2816426 0.1984276
vn 0 0 1
vn -0.05544952 0.9952529 -0.07998177
vn 0 0 1
vn 0 0 1
vn -0.05545694 0.9952525 -0.07998089
vn 0.2999153 0.7182097 -0.6278738
vn -0.5244504 0.5454749 -0.6537651
vn -0.2158494 -0.5626786 -0.7979987
vn 0 0 1
vn -0.05564797 -0.9806277 -0.18781
vn -0.2158493 -0.5626788 -0.7979985
vn -0.2158495 -0.5626789 -0.7979985
vn 0.2999107 0.7182104 -0.6278753
vn 0.5876001 0.8087654 -0.0249934
vn 0 0 1
vn -0.2158495 -0.5626789 -0.7979985
vn -0.05545694 0.9952525 -0.07998089
vn -0.05544952 0.9952529 -0.07998177
vn 0 0 1
vn 0.5876001 0.8087654 -0.0249934
vn 0 0 1
vn 0.2999153 0.7182097 -0.6278738
vn 0.5876001 0.8087654 -0.0249934
vn 0.2999107 0.7182104 -0.6278753
vn 0.5876 0.8087655 -0.02499278
vn -0.5244511 0.5454757 -0.653764
vn -0.5244504 0.5454749 -0.6537651
vn -0.5244505 0.5454747 -0.6537654
vn 0 0 1
vn 0 0 1
vn 0 0 1
vn -0.05545694 0.9952525 -0.07998089
vn -0.5244511 0.5454757 -0.653764
vn -0.05544952 0.9952529 -0.07998177
vn -0.5244511 0.5454757 -0.653764
vn 0.2999153 0.7182097 -0.6278738
vn -0.5244505 0.5454747 -0.6537654
vn -0.5244504 0.5454749 -0.6537651
vn -0.5244505 0.5454747 -0.6537654
vn -0.2158494 -0.5626786 -0.7979987
vn -0.2158493 -0.5626788 -0.7979985
vn -0.2158495 -0.5626789 -0.7979985
vn -0.2158501 -0.5626789 -0.7979982
vn 0.2999107 0.7182104 -0.6278753
vn 0.2999108 0.7182102 -0.6278754
vn -0.2158494 -0.5626786 -0.7979987
vn 0 0 1
vn 0 0 1
vn 0 0 1
vn -0.2158493 -0.5626788 -0.7979985
vn -0.05564741 -0.9806279 -0.1878091
vn 0 0 1
vn -0.05564741 -0.9806279 -0.1878091
vn -0.05564797 -0.9806277 -0.18781
vn 0 0 1
vn 0 0 1
vn 0 0 1
vn 0 0 1
vn 0.6570783 -0.7471152 -0.1003347
vn 0.6570784 -0.7471151 -0.1003346
vn -0.05564741 -0.9806279 -0.1878091
vn -0.05564797 -0.9806277 -0.18781
vn -0.2158501 -0.5626789 -0.7979982
vn 0.6570783 -0.7471152 -0.1003347
vn 0.2999108 0.7182102 -0.6278754
vn 0.944342 -0.3190835 -0.08002486
vn 0.9443421 -0.3190832 -0.08002502
vn 0.2999108 0.7182102 -0.6278754
vn 0.5876 0.8087655 -0.02499278
vn 0.9443421 -0.3190832 -0.08002502
vn 0 0 1
vn 0.5876 0.8087655 -0.02499278
vn 0 0 1
vn 0.944342 -0.3190836 -0.08002467
vn 0.944342 -0.3190835 -0.08002486
vn 0.9443421 -0.3190832 -0.08002502
vn 0 0 1
vn 0.6570784 -0.7471151 -0.1003346
vn 0.944342 -0.3190836 -0.08002467
vn -0.2158501 -0.5626789 -0.7979982
vn 0.6570783 -0.7471152 -0.1003347
vn 0.6570784 -0.7471151 -0.1003346
vn 0.944342 -0.3190836 -0.08002467
vn 0.944342 -0.3190835 -0.08002486
g wall__sh_63_0
f 3/3/3 1/1/1 4/4/4
f 19/19/19 29/29/29 9/9/9
f 48/48/48 52/52/52 30/30/30
f 31/31/31 47/47/47 49/49/49
f 71/71/71 21/21/21 55/55/55
f 56/56/56 58/58/58 15/15/15
f 73/73/73 57/57/57 77/77/77
f 5/5/5 32/32/32 17/17/17
f 18/18/18 2/2/2 34/34/34
f 26/26/26 33/33/33 35/35/35
f 6/6/6 36/36/36 22/22/22
f 38/38/38 7/7/7 27/27/27
f 28/28/28 37/37/37 39/39/39
f 8/8/8 46/46/46 40/40/40
f 11/11/11 50/50/50 41/41/41
f 53/53/53 51/51/51 61/61/61
f 62/62/62 10/10/10 54/54/54
f 23/23/23 20/20/20 14/14/14
f 16/16/16 42/42/42 12/12/12
f 63/63/63 43/43/43 80/80/80
f 59/59/59 64/64/64 81/81/81
f 44/44/44 24/24/24 13/13/13
f 68/68/68 65/65/65 45/45/45
f 69/69/69 25/25/25 72/72/72
f 78/78/78 60/60/60 82/82/82
f 74/74/74 79/79/79 83/83/83
f 75/75/75 84/84/84 66/66/66
f 67/67/67 70/70/70 76/76/76
