g wall__sh_98
v 0.4834018 -0.3215552 -0.270152
v -0.3840215 -0.3215552 0.407959
v 0.3720909 -0.3215552 -0.2868299
v 0.4797662 -0.3215552 -0.3857724
v 0.4868286 -0.3215552 -0.1611675
v -0.02761292 -0.3215552 0.407959
v -0.4868286 -0.03540745 0.407959
v -0.1110706 0.2088913 0.407959
v -0.1724601 0.2165737 0.407959
v 0.3290684 0.165092 -0.407959
v 0.07931352 0.3210913 -0.2299619
v 0.07927608 0.3215552 -0.2267231
v 0.3247658 0.2130239 -0.0749259
v 0.2646 0.2528996 -0.01530528
v 0.4834018 -0.3215552 -0.270152
v 0.4834018 -0.3215552 -0.270152
v 0.4834018 -0.3215552 -0.270152
v 0.4834018 -0.3215552 -0.270152
v -0.3840215 -0.3215552 0.407959
v -0.3840215 -0.3215552 0.407959
v 0.3720909 -0.3215552 -0.2868299
v 0.3720909 -0.3215552 -0.2868299
v 0.3720909 -0.3215552 -0.2868299
v 0.3720909 -0.3215552 -0.2868299
v 0.3720909 -0.3215552 -0.2868299
v 0.3720909 -0.3215552 -0.2868299
v 0.3720909 -0.3215552 -0.2868299
v 0.4797662 -0.3215552 -0.3857724
v 0.4797662 -0.3215552 -0.3857724
v 0.4868286 -0.3215552 -0.1611675
v 0.4868286 -0.3215552 -0.1611675
v 0.4868286 -0.3215552 -0.1611675
v 0.4868286 -0.3215552 -0.1611675
v -0.02761292 -0.3215552 0.407959
v -0.02761292 -0.3215552 0.407959
v -0.02761292 -0.3215552 0.407959
v -0.02761292 -0.3215552 0.407959
v -0.4868286 -0.03540745 0.407959
v -0.4868286 -0.03540745 0.407959
v -0.4868286 -0.03540745 0.407959
v -0.4868286 -0.03540745 0.407959
v -0.4868286 -0.03540745 0.407959
v -0.1110706 0.2088913 0.407959
v -0.1110706 0.2088913 0.407959
v -0.1110706 0.2088913 0.407959
v -0.1110706 0.2088913 0.407959
v -0.1110706 0.2088913 0.407959
v -0.1110706 0.2088913 0.407959
v -0.1724601 0.2165737 0.407959
v -0.1724601 0.2165737 0.407959
v -0.1724601 0.2165737 0.407959
v 0.3290684 0.165092 -0.407959
v 0.3290684 0.165092 -0.407959
v 0.3290684 0.165092 -0.407959
v 0.3290684 0.165092 -0.407959
v 0.07931352 0.3210913 -0.2299619
v 0.07931352 0.3210913 -0.2299619
v 0.07931352 0.3210913 -0.2299619
v 0.07931352 0.3210913 -0.2299619
v 0.07931352 0.3210913 -0.2299619
v 0.07927608 0.3215552 -0.2267231
v 0.07927608 0.3215552 -0.2267231
v 0.07927608 0.3215552 -0.2267231
v 0.07927608 0.3215552 -0.2267231
v 0.3247658 0.2130239 -0.0749259
v 0.3247658 0.2130239 -0.0749259
v 0.3247658 0.2130239 -0.0749259
v 0.3247658 0.2130239 -0.0749259
v 0.3247658 0.2130239 -0.0749259
v 0.3247658 0.2130239 -0.0749259
v 0.2646 0.2528996 -0.01530528
v 0.2646 0.2528996 -0.01530528
vt 0.9495186 0.07674159
vt 0.9846752 0.03177015
vt 0.9486539 0.07097081
vt 0.9435242 0.0765532
vt 0.9551688 0.07691932
vt 0.9846752 0.05024814
vt 0.01011232 0.05791565
vt -0.1289079 0.2625934
vt 0.06673308 0.1089161
vt -0.4836277 0.1177829
vt -0.5470656 0.1005613
vt -0.5470751 0.1013839
vt -0.1299576 0.1399404
vt -0.140086 0.1550841
vt 0.9495186 0.07674167
vt 0.005825759 0.09035292
vt 0.005825759 0.09035292
vt 0.005825759 0.09035292
vt 0.02862883 0
vt -0.6647529 -0.005825783
vt 0.9486538 0.07097076
vt 0.9486538 0.07097076
vt 0.9486538 0.07097076
vt -0.4727 -0.005825783
vt -0.4727 -0.005825783
vt -0.4727 -0.005825783
vt -0.4727 -0.005825783
vt -0.4453504 -0.005825783
vt 0.00582576 0.06098528
vt 0.9551688 0.07691932
vt 0.005825758 0.118035
vt 0.005825758 0.118035
vt 0.005825758 0.118035
vt 0.9846752 0.05024814
vt 0.09282148 0
vt 0.005825746 0.2625934
vt 0.09282148 0
vt -0.690866 0.0668559
vt 0.01011232 0.05791565
vt 0.01011232 0.05791565
vt -0.690866 0.2625935
vt -0.690866 0.0668559
vt 0.07778992 0.1073613
vt 0.07778992 0.1073613
vt -0.1289079 0.2625934
vt -0.1289079 0.2625934
vt -0.5954233 0.2625935
vt -0.5954233 0.2625935
vt -0.6110162 0.2625935
vt -0.6110162 0.2625935
vt -0.6110162 0.2625935
vt -0.1177829 0.05534986
vt -0.4836277 0.1177829
vt -0.1177829 0.05534986
vt -0.4836277 0.05534991
vt -0.5470656 0.1005613
vt -0.5470656 0.1574068
vt -0.5470656 0.1574068
vt -0.5470656 0.1005613
vt -0.5470656 0.1005613
vt -0.5470751 0.1013839
vt -0.5470751 0.1013839
vt -0.5470751 0.1013839
vt -0.5470751 0.1013839
vt -0.1299576 0.1399404
vt -0.1299576 0.1399404
vt -0.1299576 0.1399404
vt -0.4847206 0.1399405
vt -0.4847206 0.1399405
vt -0.4847206 0.1399405
vt -0.5000027 0.1550842
vt -0.5000027 0.1550842
vn 0 -1 0
vn 0 -1 0
vn 0 -1 0
vn 0 -1 0
vn 0 -1 0
vn 0 -1 0
vn 0 0 1
vn 0.7368464 0.1159316 0.666046
vn 0 0 1
vn -0.6574684 -0.2362154 -0.7154981
vn -0.6210304 0.7748289 -0.1181586
vn -0.6210304 0.7748289 -0.1181586
vn 0.7368463 0.1159315 0.6660461
vn 0.7368463 0.1159315 0.6660461
vn 0 -1 0
vn 0.9552028 0.294424 -0.03003511
vn 0.9552028 0.2944242 -0.03003437
vn 0.9552028 0.2944242 -0.03003439
vn 0 0 1
vn -0.6574686 -0.236215 -0.7154981
vn 0 -1 0
vn 0 -1 0
vn 0 -1 0
vn -0.6574686 -0.236215 -0.7154981
vn -0.6574684 -0.2362154 -0.7154981
vn -0.6574686 -0.2362154 -0.715498
vn -0.6574686 -0.2362153 -0.715498
vn -0.6574684 -0.2362154 -0.7154981
vn 0.9552028 0.294424 -0.03003511
vn 0 -1 0
vn 0.7368464 0.1159316 0.666046
vn 0.7368464 0.1159313 0.6660461
vn 0.9552028 0.2944242 -0.03003437
vn 0 -1 0
vn 0 0 1
vn 0.7368464 0.1159316 0.666046
vn 0 0 1
vn -0.6574686 -0.236215 -0.7154981
vn 0 0 1
vn 0 0 1
vn -0.6210489 0.7748126 -0.1181685
vn -0.6574686 -0.2362154 -0.715498
vn 0 0 1
vn 0 0 1
vn 0.7368463 0.1159315 0.6660461
vn 0.7368464 0.1159313 0.6660461
vn 0.1214403 0.9704145 0.2086816
vn 0.1214389 0.9704148 0.2086812
vn -0.6210304 0.7748289 -0.1181586
vn -0.6210489 0.7748126 -0.1181685
vn 0.1214403 0.9704145 0.2086816
vn 0.9552028 0.294424 -0.03003511
vn -0.6574686 -0.2362153 -0.715498
vn 0.9552028 0.2944242 -0.03003439
vn 0.4627498 0.878271 -0.1204271
vn -0.6210489 0.7748126 -0.1181685
vn -0.6574686 -0.2362154 -0.715498
vn -0.6574686 -0.2362153 -0.715498
vn 0.4627498 0.878271 -0.1204271
vn 0.4627596 0.878263 -0.1204481
vn 0.1214403 0.9704145 0.2086816
vn 0.1214389 0.9704148 0.2086812
vn 0.4627596 0.878263 -0.1204481
vn 0.4627498 0.878271 -0.1204267
vn 0.7368464 0.1159313 0.6660461
vn 0.9552028 0.2944242 -0.03003437
vn 0.9552028 0.2944242 -0.03003439
vn 0.4627498 0.878271 -0.1204271
vn 0.4627596 0.878263 -0.1204481
vn 0.4627498 0.878271 -0.1204267
vn 0.1214389 0.9704148 0.2086812
vn 0.4627498 0.878271 -0.1204267
g wall__sh_98_0
f 3/3/3 4/4/4 1/1/1
f 6/6/6 2/2/2 21/21/21
f 22/22/22 15/15/15 5/5/5
f 34/34/34 23/23/23 30/30/30
f 7/7/7 19/19/19 35/35/35
f 9/9/9 39/39/39 43/43/43
f 40/40/40 37/37/37 44/44/44
f 24/24/24 20/20/20 38/38/38
f 8/8/8 36/36/36 31/31/31
f 10/10/10 28/28/28 25/25/25
f 16/16/16 29/29/29 52/52/52
f 11/11/11 49/49/49 12/12/12
f 41/41/41 50/50/50 56/56/56
f 26/26/26 42/42/42 57/57/57
f 14/14/14 45/45/45 13/13/13
f 46/46/46 32/32/32 65/65/65
f 66/66/66 33/33/33 17/17/17
f 61/61/61 51/51/51 47/47/47
f 53/53/53 27/27/27 58/58/58
f 67/67/67 18/18/18 54/54/54
f 62/62/62 48/48/48 71/71/71
f 68/68/68 55/55/55 59/59/59
f 69/69/69 60/60/60 63/63/63
f 64/64/64 72/72/72 70/70/70
