g wall__sh_90
v -0.466338 -0.007104993 0.2076517
v 0.4921697 -0.0333668 0.2076517
v -0.5424792 0.2206028 0.2076517
v 0.2821565 -0.1211085 -0.2076517
v 0.5177031 0.059726 -0.1646894
v 0.1301112 0.2888217 0.2076517
v -0.3339514 0.3151559 0.2076517
v 0.5282053 0.2662311 0.2076517
v 0.5424792 0.3101473 -0.02588093
v -0.3699065 -0.1008427 0.2076517
v 0.4599754 -0.3010299 0.2076517
v -0.3406456 -0.115856 0.1554281
v 0.2426379 -0.3029301 -0.149004
v 0.2748868 -0.2607675 -0.1761
v 0.4935833 -0.1288633 -0.1273849
v 0.4617393 -0.3151559 0.117708
v -0.466338 -0.007104993 0.2076517
v -0.466338 -0.007104993 0.2076517
v -0.466338 -0.007104993 0.2076517
v -0.466338 -0.007104993 0.2076517
v 0.4921697 -0.0333668 0.2076517
v 0.4921697 -0.0333668 0.2076517
v 0.4921697 -0.0333668 0.2076517
v 0.4921697 -0.0333668 0.2076517
v 0.4921697 -0.0333668 0.2076517
v 0.4921697 -0.0333668 0.2076517
v 0.4921697 -0.0333668 0.2076517
v 0.4921697 -0.0333668 0.2076517
v -0.5424792 0.2206028 0.2076517
v -0.5424792 0.2206028 0.2076517
v -0.5424792 0.2206028 0.2076517
v -0.5424792 0.2206028 0.2076517
v 0.2821565 -0.1211085 -0.2076517
v 0.2821565 -0.1211085 -0.2076517
v 0.2821565 -0.1211085 -0.2076517
v 0.2821565 -0.1211085 -0.2076517
v 0.2821565 -0.1211085 -0.2076517
v 0.2821565 -0.1211085 -0.2076517
v 0.2821565 -0.1211085 -0.2076517
v 0.2821565 -0.1211085 -0.2076517
v 0.5177031 0.059726 -0.1646894
v 0.5177031 0.059726 -0.1646894
v 0.5177031 0.059726 -0.1646894
v 0.5177031 0.059726 -0.1646894
v 0.1301112 0.2888217 0.2076517
v 0.1301112 0.2888217 0.2076517
v 0.1301112 0.2888217 0.2076517
v 0.1301112 0.2888217 0.2076517
v -0.3339514 0.3151559 0.2076517
v -0.3339514 0.3151559 0.2076517
v -0.3339514 0.3151559 0.2076517
v 0.5282053 0.2662311 0.2076517
v 0.5282053 0.2662311 0.2076517
v 0.5282053 0.2662311 0.2076517
v 0.5424792 0.3101473 -0.02588093
v 0.5424792 0.3101473 -0.02588093
v 0.5424792 0.3101473 -0.02588093
v 0.5424792 0.3101473 -0.02588093
v -0.3699065 -0.1008427 0.2076517
v -0.3699065 -0.1008427 0.2076517
v -0.3699065 -0.1008427 0.2076517
v 0.4599754 -0.3010299 0.2076517
v 0.4599754 -0.3010299 0.2076517
v 0.4599754 -0.3010299 0.2076517
v 0.4599754 -0.3010299 0.2076517
v -0.3406456 -0.115856 0.1554281
v -0.3406456 -0.115856 0.1554281
v -0.3406456 -0.115856 0.1554281
v -0.3406456 -0.115856 0.1554281
v 0.2426379 -0.3029301 -0.149004
v 0.2426379 -0.3029301 -0.149004
v 0.2426379 -0.3029301 -0.149004
v 0.2426379 -0.3029301 -0.149004
v 0.2426379 -0.3029301 -0.149004
v 0.2748868 -0.2607675 -0.1761
v 0.2748868 -0.2607675 -0.1761
v 0.4935833 -0.1288633 -0.1273849
v 0.4935833 -0.1288633 -0.1273849
v 0.4935833 -0.1288633 -0.1273849
v 0.4935833 -0.1288633 -0.1273849
v 0.4935833 -0.1288633 -0.1273849
v 0.4617393 -0.3151559 0.117708
v 0.4617393 -0.3151559 0.117708
v 0.4617393 -0.3151559 0.117708
vt 0.6717961 0.1608826
vt 0.8444327 0.1555673
vt 0.6580823 0.2069702
vt 0.432394 0.1671179
vt -0.21305 0.1680186
vt 0.7792224 0.2207776
vt 0.6956402 0.2261076
vt 0.8509231 0.2162052
vt -0.2766571 0.203276
vt -0.2667697 0.2625934
vt 0.8386342 0.1013929
vt 0.274202 0.1684521
vt 0.4223563 0.1209352
vt 0.4305475 0.1316445
vt -0.1651482 0.177494
vt -0.1178298 0.2397477
vt 0.2422761 0.1960749
vt 0.2422761 0.1960749
vt -0.2422761 0.2625934
vt 0.6717961 0.1608826
vt 0.8444327 0.1555673
vt 0.8444327 0.1555673
vt -0.1894044 0.2625934
vt 0.8444327 0.1555673
vt 0.8444327 0.1555673
vt -0.1894044 0.2625934
vt -0.1894044 0.2625934
vt -0.1894044 0.2625934
vt 0.2229362 0.2539128
vt 0.6580823 0.2069702
vt 0.6580823 0.2069702
vt 0.2229362 0.2539128
vt 0.432394 0.1671179
vt 0.432394 0.1671179
vt 0.432394 0.1671179
vt 0.432394 0.1671179
vt 0.432394 0.1671179
vt 0.432394 0.1671179
vt 0.432394 0.1671179
vt 0.432394 0.1671179
vt -0.21305 0.1680186
vt 0.492223 0.21305
vt -0.21305 0.1680186
vt 0.492223 0.21305
vt 0.7792224 0.2207776
vt 0.7792224 0.2207775
vt 0.3937745 0.2625934
vt 0.3937745 0.2625934
vt 0.2759024 0.2779293
vt 0.2759024 0.2779293
vt 0.2759024 0.2625934
vt -0.2655024 0.2625934
vt -0.2655024 0.2625934
vt 0.4948906 0.2625934
vt 0.4985161 0.2766571
vt 0.4985161 0.2766571
vt 0.4985161 0.203276
vt 0.4985161 0.203276
vt 0.6891643 0.1419103
vt 0.6891643 0.1419103
vt -0.2667697 0.2625934
vt -0.4775601 0.2625934
vt -0.4775601 0.2625934
vt -0.1214178 0.2625934
vt -0.4775601 0.2625934
vt -0.274202 0.2493286
vt -0.274202 0.2493286
vt 0.274202 0.1684521
vt -0.274202 0.2493286
vt 0.4223563 0.1209352
vt -0.4223563 0.1720027
vt -0.4223563 0.1720027
vt -0.4223563 0.1720027
vt -0.4223563 0.1720027
vt 0.4305475 0.1316445
vt -0.4305475 0.1651203
vt 0.4860966 0.1651482
vt -0.1651482 0.177494
vt 0.4860966 0.1651482
vt -0.4860966 0.177494
vt -0.4860966 0.177494
vt -0.1178298 0.2397477
vt -0.4780082 0.2397477
vt -0.4780082 0.2397477
vn 0 0 1
vn 0 0 1
vn 0 0 1
vn -0.4976665 -0.1664102 -0.8512554
vn 0.9921193 -0.1193319 0.03819933
vn 0 0 1
vn 0 0 1
vn 0 0 1
vn 0.9921193 -0.1193319 0.03819933
vn -0.6854636 -0.705162 -0.1813456
vn 0 0 1
vn -0.4976665 -0.1664107 -0.8512553
vn -0.4976665 -0.1664106 -0.8512553
vn -0.4976669 -0.1664104 -0.8512551
vn 0.9921194 -0.1193315 0.03819937
vn 0.9921193 -0.1193319 0.03819949
vn -0.4976665 -0.1664102 -0.8512554
vn -0.4976665 -0.1664107 -0.8512553
vn -0.6854636 -0.705162 -0.1813456
vn 0 0 1
vn 0 0 1
vn 0 0 1
vn 0.9921193 -0.1193318 0.03819929
vn 0 0 1
vn 0 0 1
vn 0.9921194 -0.1193315 0.03819937
vn 0.9921193 -0.1193319 0.03819949
vn 0.9921194 -0.1193316 0.03819861
vn -0.4976665 -0.1664102 -0.8512554
vn 0 0 1
vn 0 0 1
vn -0.2219182 0.4894191 -0.8433394
vn -0.2219182 0.4894191 -0.8433394
vn -0.2219183 0.489419 -0.8433394
vn -0.2219183 0.489419 -0.8433394
vn -0.4976665 -0.1664107 -0.8512553
vn -0.4976665 -0.1664106 -0.8512553
vn -0.4976669 -0.1664104 -0.8512551
vn 0.3387065 -0.22408 -0.9138195
vn 0.3387065 -0.2240804 -0.9138194
vn 0.9921193 -0.1193318 0.03819929
vn -0.2219183 0.489419 -0.8433394
vn 0.9921194 -0.1193315 0.03819937
vn 0.3387065 -0.22408 -0.9138195
vn 0 0 1
vn 0 0 1
vn 0.0556477 0.9806277 0.1878101
vn 0.05564766 0.9806277 0.1878101
vn -0.2219182 0.4894191 -0.8433394
vn -0.2219183 0.489419 -0.8433394
vn 0.0556477 0.9806277 0.1878101
vn 0.9921193 -0.1193319 0.03819933
vn 0.9921193 -0.1193318 0.03819929
vn 0.05564766 0.9806277 0.1878101
vn -0.2219183 0.489419 -0.8433394
vn -0.2219183 0.489419 -0.8433394
vn 0.0556477 0.9806277 0.1878101
vn 0.05564766 0.9806277 0.1878101
vn 0 0 1
vn 0 0 1
vn -0.2319683 -0.9616312 0.1464793
vn -0.2319683 -0.9616312 0.1464793
vn -0.2319683 -0.9616312 0.1464793
vn 0.9921194 -0.1193316 0.03819861
vn -0.2319682 -0.9616312 0.1464792
vn -0.6854636 -0.705162 -0.1813456
vn -0.2319683 -0.9616312 0.1464793
vn -0.4976665 -0.1664106 -0.8512553
vn -0.2319683 -0.9616312 0.1464793
vn -0.4976669 -0.1664104 -0.8512551
vn -0.2319683 -0.9616312 0.1464793
vn -0.2319682 -0.9616312 0.1464792
vn 0.530502 -0.7066549 -0.468195
vn 0.5305017 -0.7066543 -0.4681963
vn 0.3387065 -0.2240804 -0.9138194
vn 0.5305017 -0.7066543 -0.4681963
vn 0.3387065 -0.22408 -0.9138195
vn 0.9921193 -0.1193319 0.03819949
vn 0.3387065 -0.2240804 -0.9138194
vn 0.530502 -0.7066549 -0.468195
vn 0.5305017 -0.7066543 -0.4681963
vn 0.9921194 -0.1193316 0.03819861
vn -0.2319682 -0.9616312 0.1464792
vn 0.530502 -0.7066549 -0.468195
g wall__sh_90_0
f 1/1/1 2/2/2 3/3/3
f 7/7/7 30/30/30 6/6/6
f 31/31/31 21/21/21 45/45/45
f 8/8/8 46/46/46 22/22/22
f 24/24/24 20/20/20 59/59/59
f 60/60/60 11/11/11 25/25/25
f 17/17/17 29/29/29 4/4/4
f 52/52/52 5/5/5 9/9/9
f 23/23/23 41/41/41 53/53/53
f 33/33/33 32/32/32 49/49/49
f 34/34/34 50/50/50 55/55/55
f 56/56/56 42/42/42 35/35/35
f 57/57/57 51/51/51 47/47/47
f 48/48/48 54/54/54 58/58/58
f 12/12/12 18/18/18 36/36/36
f 10/10/10 19/19/19 66/66/66
f 62/62/62 61/61/61 67/67/67
f 13/13/13 68/68/68 37/37/37
f 14/14/14 70/70/70 38/38/38
f 15/15/15 43/43/43 26/26/26
f 39/39/39 44/44/44 77/77/77
f 63/63/63 69/69/69 71/71/71
f 16/16/16 78/78/78 27/27/27
f 28/28/28 64/64/64 82/82/82
f 75/75/75 40/40/40 79/79/79
f 83/83/83 65/65/65 72/72/72
f 80/80/80 84/84/84 73/73/73
f 74/74/74 76/76/76 81/81/81
