g wall__sh_45
v 0.2610939 0.4110465 0.2101792
v -0.2531443 0.4110465 0.2101792
v -0.2610941 0.4110465 -0.1541966
v 0.2610939 0.4110465 -0.0764153
v -0.2184086 0.4110465 -0.1978158
v 0.2610939 -0.3824039 0.2101792
v 0.2610939 -0.329319 0.08552098
v 0.2610939 -0.2253289 -0.158675
v 0.1493635 -0.2293906 -0.1874879
v -0.107688 0.09853888 -0.2101792
v -0.1462362 0.09127331 -0.1684447
v 0.0137589 -0.3410511 0.02817768
v 0.06513309 -0.4110465 0.2101792
v 0.02935934 -0.3733416 0.2101792
v 0.02855468 -0.3767467 0.117079
v 0.2610939 0.4110465 0.2101792
v 0.2610939 0.4110465 0.2101792
v 0.2610939 0.4110465 0.2101792
v 0.2610939 0.4110465 0.2101792
v -0.2531443 0.4110465 0.2101792
v -0.2531443 0.4110465 0.2101792
v -0.2531443 0.4110465 0.2101792
v -0.2531443 0.4110465 0.2101792
v -0.2531443 0.4110465 0.2101792
v -0.2610941 0.4110465 -0.1541966
v -0.2610941 0.4110465 -0.1541966
v 0.2610939 0.4110465 -0.0764153
v 0.2610939 0.4110465 -0.0764153
v 0.2610939 0.4110465 -0.0764153
v 0.2610939 0.4110465 -0.0764153
v 0.2610939 0.4110465 -0.0764153
v -0.2184086 0.4110465 -0.1978158
v -0.2184086 0.4110465 -0.1978158
v -0.2184086 0.4110465 -0.1978158
v -0.2184086 0.4110465 -0.1978158
v 0.2610939 -0.3824039 0.2101792
v 0.2610939 -0.3824039 0.2101792
v 0.2610939 -0.3824039 0.2101792
v 0.2610939 -0.329319 0.08552098
v 0.2610939 -0.329319 0.08552098
v 0.2610939 -0.329319 0.08552098
v 0.2610939 -0.329319 0.08552098
v 0.2610939 -0.329319 0.08552098
v 0.2610939 -0.329319 0.08552098
v 0.2610939 -0.329319 0.08552098
v 0.2610939 -0.2253289 -0.158675
v 0.2610939 -0.2253289 -0.158675
v 0.2610939 -0.2253289 -0.158675
v 0.1493635 -0.2293906 -0.1874879
v 0.1493635 -0.2293906 -0.1874879
v 0.1493635 -0.2293906 -0.1874879
v 0.1493635 -0.2293906 -0.1874879
v -0.107688 0.09853888 -0.2101792
v -0.107688 0.09853888 -0.2101792
v -0.107688 0.09853888 -0.2101792
v -0.107688 0.09853888 -0.2101792
v -0.1462362 0.09127331 -0.1684447
v -0.1462362 0.09127331 -0.1684447
v -0.1462362 0.09127331 -0.1684447
v -0.1462362 0.09127331 -0.1684447
v -0.1462362 0.09127331 -0.1684447
v -0.1462362 0.09127331 -0.1684447
v -0.1462362 0.09127331 -0.1684447
v 0.0137589 -0.3410511 0.02817768
v 0.0137589 -0.3410511 0.02817768
v 0.0137589 -0.3410511 0.02817768
v 0.06513309 -0.4110465 0.2101792
v 0.06513309 -0.4110465 0.2101792
v 0.06513309 -0.4110465 0.2101792
v 0.02935934 -0.3733416 0.2101792
v 0.02935934 -0.3733416 0.2101792
v 0.02935934 -0.3733416 0.2101792
v 0.02935934 -0.3733416 0.2101792
v 0.02935934 -0.3733416 0.2101792
v 0.02855468 -0.3767467 0.117079
v 0.02855468 -0.3767467 0.117079
v 0.02855468 -0.3767467 0.117079
v 0.02855468 -0.3767467 0.117079
vt 0.9846751 0.3113812
vt 0.9846751 0.2847205
vt 0.9657841 0.2843084
vt 0.9698166 0.3113812
vt 0.9635227 0.2865214
vt 0.9397312 0.5974231
vt 0.9474866 0.6007257
vt 0.9626791 0.6071957
vt 0.6767473 1.086459
vt 0.611456 1.169754
vt 1.167908 0.1664228
vt -0.6423036 0.2163649
vt -0.6553527 0.2625934
vt 0.9582623 0.8412416
vt -0.6460617 0.2389459
vt 0.9397312 0.6467867
vt 0.9397312 0.6467867
vt 1 1
vt 1 1
vt 0.9846751 0.2847205
vt 0.9846751 0.2847205
vt 1.249131 0.2625934
vt 0.9073807 1
vt 1.249131 0.2625934
vt 1.249131 0.1700418
vt 1.249131 0.1700418
vt 0.9698166 0.3113812
vt 0.9575614 0.6467867
vt 0.9575614 0.6467867
vt 0.7051268 1.249131
vt 0.7051268 1.249131
vt 0.9635227 0.2865214
vt 1.249131 0.1589625
vt 0.583333 1.249131
vt 1.249131 0.1589625
vt -0.7051268 0.2625934
vt 1 0.8394073
vt 1 0.8394073
vt 0.9474867 0.6007267
vt 0.9474867 0.6007267
vt -0.7051268 0.2309302
vt -0.7051268 0.2309302
vt -0.7051268 0.2309302
vt -0.7051268 0.2309302
vt -0.7051268 0.2309302
vt 0.7051268 1.087491
vt 0.7051268 1.087491
vt -0.7051268 0.1689043
vt -0.6767473 0.1615858
vt -0.6767473 0.1615858
vt 0.6767473 1.086459
vt 0.6767473 1.086459
vt 0.611456 1.169754
vt 0.611456 1.169754
vt 1.169754 0.1558222
vt 0.611456 1.169754
vt 1.167908 0.1664228
vt 1.167908 0.1664228
vt 0.6016648 1.167908
vt 0.6016648 1.167908
vt 1.167908 0.1664228
vt 1.167908 0.1664228
vt 1.167908 0.1664228
vt 0.6423036 1.058098
vt -0.6423036 0.2163649
vt 1.058098 0.2163649
vt 0.9647056 0.8336101
vt -0.6553527 0.2625934
vt 1.040319 0.2625934
vt 1.049896 0.2625934
vt 0.9582623 0.8412416
vt 0.9582623 0.8412416
vt 1.049896 0.2625934
vt 1.049896 0.2625934
vt 1.049031 0.2389459
vt -0.6460617 0.2389459
vt 1.049031 0.2389459
vt 1.049031 0.2389459
vn 0 1 0
vn 0 1 0
vn 0 1 0
vn 0 1 0
vn 0 1 0
vn 1 0 0
vn 1 0 0
vn 1 0 0
vn 0.2435312 0.1243363 -0.9618904
vn 0.2435315 0.1243367 -0.9618902
vn -0.940642 -0.3387794 0.02052261
vn 0.1332785 -0.9118429 -0.3883033
vn 0.1332798 -0.9118431 -0.3883023
vn 0 0 1
vn 0.1332785 -0.9118428 -0.3883034
vn 1 0 0
vn 1 0 0
vn 0 0 1
vn 0 0 1
vn 0 1 0
vn 0 1 0
vn -0.940642 -0.3387794 0.02052261
vn 0 0 1
vn -0.9406418 -0.3387797 0.02052284
vn -0.940642 -0.3387794 0.02052261
vn -0.6972005 -0.2200241 -0.6822763
vn 0 1 0
vn 1 0 0
vn 1 0 0
vn 0.2435315 0.1243367 -0.9618902
vn 0.2435315 0.1243367 -0.9618902
vn 0 1 0
vn -0.6972005 -0.2200241 -0.6822763
vn 0.2435315 0.1243367 -0.9618902
vn -0.6972003 -0.2200241 -0.6822765
vn 0.1332798 -0.9118431 -0.3883023
vn 0 0 1
vn 0 0 1
vn 1 0 0
vn 1 0 0
vn 0.1332785 -0.9118429 -0.3883033
vn 0.1332835 -0.9118415 -0.3883048
vn 0.1332798 -0.9118431 -0.3883023
vn 0.1332785 -0.9118428 -0.3883034
vn 0.1332783 -0.9118425 -0.3883042
vn 0.2435315 0.1243367 -0.9618902
vn 0.2435312 0.1243363 -0.9618904
vn 0.1332835 -0.9118415 -0.3883048
vn 0.1332785 -0.9118429 -0.3883033
vn 0.1332835 -0.9118415 -0.3883048
vn -0.5884585 -0.5049627 -0.6314502
vn -0.5884615 -0.5049658 -0.6314449
vn 0.2435315 0.1243367 -0.9618902
vn 0.2435312 0.1243363 -0.9618904
vn -0.6972003 -0.2200241 -0.6822765
vn -0.5884615 -0.5049658 -0.6314449
vn -0.6972005 -0.2200241 -0.6822763
vn -0.6972003 -0.2200241 -0.6822765
vn -0.5884585 -0.5049627 -0.6314502
vn -0.5884615 -0.5049658 -0.6314449
vn -0.9406418 -0.3387797 0.02052284
vn -0.940642 -0.3387794 0.02052403
vn -0.9406414 -0.3387812 0.02052071
vn -0.5884585 -0.5049627 -0.6314502
vn 0.1332785 -0.9118428 -0.3883034
vn -0.940642 -0.3387794 0.02052403
vn 0 0 1
vn 0.1332783 -0.9118425 -0.3883042
vn -0.7250823 -0.6879447 0.03142815
vn -0.9406418 -0.3387797 0.02052284
vn 0 0 1
vn 0 0 1
vn -0.9406414 -0.3387812 0.02052071
vn -0.7250823 -0.6879447 0.03142815
vn -0.940642 -0.3387794 0.02052403
vn 0.1332783 -0.9118425 -0.3883042
vn -0.9406414 -0.3387812 0.02052071
vn -0.7250823 -0.6879447 0.03142815
g wall__sh_45_0
f 2/2/2 1/1/1 4/4/4
f 20/20/20 27/27/27 5/5/5
f 32/32/32 3/3/3 21/21/21
f 16/16/16 6/6/6 7/7/7
f 28/28/28 17/17/17 39/39/39
f 8/8/8 29/29/29 40/40/40
f 18/18/18 23/23/23 14/14/14
f 37/37/37 19/19/19 71/71/71
f 72/72/72 67/67/67 38/38/38
f 22/22/22 25/25/25 11/11/11
f 57/57/57 26/26/26 33/33/33
f 10/10/10 34/34/34 30/30/30
f 53/53/53 31/31/31 46/46/46
f 47/47/47 9/9/9 54/54/54
f 58/58/58 35/35/35 55/55/55
f 41/41/41 12/12/12 49/49/49
f 50/50/50 48/48/48 42/42/42
f 51/51/51 64/64/64 59/59/59
f 60/60/60 56/56/56 52/52/52
f 43/43/43 36/36/36 13/13/13
f 65/65/65 44/44/44 15/15/15
f 70/70/70 24/24/24 61/61/61
f 62/62/62 66/66/66 75/75/75
f 76/76/76 45/45/45 68/68/68
f 73/73/73 63/63/63 77/77/77
f 74/74/74 78/78/78 69/69/69
