g wall__sh_38
v -0.4311465 -0.3255339 -0.306599
v 0.3115433 0.407572 -0.306599
v -0.5302209 0.2997093 -0.306599
v 0.08962059 0.4485672 -0.306599
v 0.2210904 0.429055 -0.1671498
v 0.5025847 0.06517148 -0.306599
v 0.06738117 -0.3949795 -0.306599
v 0.5302209 -0.09577274 -0.306599
v 0.4990077 -0.0989933 -0.1374606
v -0.2158951 0.1505589 0.3065989
v 0.1003912 0.260123 0.2148628
v -0.221187 -0.4413497 0.09758627
v -0.06797019 -0.4485674 0.0316335
v 0.4684071 -0.1120272 -0.07015401
v -0.4311465 -0.3255339 -0.306599
v -0.4311465 -0.3255339 -0.306599
v -0.4311465 -0.3255339 -0.306599
v 0.3115433 0.407572 -0.306599
v 0.3115433 0.407572 -0.306599
v -0.5302209 0.2997093 -0.306599
v -0.5302209 0.2997093 -0.306599
v -0.5302209 0.2997093 -0.306599
v 0.08962059 0.4485672 -0.306599
v 0.08962059 0.4485672 -0.306599
v 0.08962059 0.4485672 -0.306599
v 0.08962059 0.4485672 -0.306599
v 0.08962059 0.4485672 -0.306599
v 0.08962059 0.4485672 -0.306599
v 0.2210904 0.429055 -0.1671498
v 0.2210904 0.429055 -0.1671498
v 0.2210904 0.429055 -0.1671498
v 0.5025847 0.06517148 -0.306599
v 0.5025847 0.06517148 -0.306599
v 0.5025847 0.06517148 -0.306599
v 0.5025847 0.06517148 -0.306599
v 0.5025847 0.06517148 -0.306599
v 0.5025847 0.06517148 -0.306599
v 0.5025847 0.06517148 -0.306599
v 0.06738117 -0.3949795 -0.306599
v 0.06738117 -0.3949795 -0.306599
v 0.06738117 -0.3949795 -0.306599
v 0.06738117 -0.3949795 -0.306599
v 0.06738117 -0.3949795 -0.306599
v 0.06738117 -0.3949795 -0.306599
v 0.06738117 -0.3949795 -0.306599
v 0.06738117 -0.3949795 -0.306599
v 0.5302209 -0.09577274 -0.306599
v 0.5302209 -0.09577274 -0.306599
v 0.4990077 -0.0989933 -0.1374606
v 0.4990077 -0.0989933 -0.1374606
v 0.4990077 -0.0989933 -0.1374606
v -0.2158951 0.1505589 0.3065989
v -0.2158951 0.1505589 0.3065989
v -0.2158951 0.1505589 0.3065989
v -0.2158951 0.1505589 0.3065989
v -0.2158951 0.1505589 0.3065989
v 0.1003912 0.260123 0.2148628
v 0.1003912 0.260123 0.2148628
v 0.1003912 0.260123 0.2148628
v 0.1003912 0.260123 0.2148628
v 0.1003912 0.260123 0.2148628
v -0.221187 -0.4413497 0.09758627
v -0.221187 -0.4413497 0.09758627
v -0.221187 -0.4413497 0.09758627
v -0.06797019 -0.4485674 0.0316335
v -0.06797019 -0.4485674 0.0316335
v -0.06797019 -0.4485674 0.0316335
v -0.06797019 -0.4485674 0.0316335
v 0.4684071 -0.1120272 -0.07015401
v 0.4684071 -0.1120272 -0.07015401
v 0.4684071 -0.1120272 -0.07015401
v 0.4684071 -0.1120272 -0.07015401
vt 0.3906185 0.597019
vt 0.0343879 0.05129158
vt 0.3727742 0.7235668
vt -0.02198057 0.05129158
vt 0.01141284 0.08671173
vt -0.8426463 0.05129158
vt 0.4804082 0.5829633
vt -0.8017664 0.05129159
vt -0.8009484 0.0942528
vt -0.09958169 0.2070442
vt -0.8921641 0.1837431
vt 0.1009259 0.1539548
vt 0.06200871 0.1372028
vt -0.0742314 0.1113487
vt 0.1542557 0.05129159
vt 0.743407 0.05129159
vt 0.743407 0.05129159
vt -0.9296162 0.05129158
vt 0.5243843 0.7453979
vt 0.3727742 0.7235668
vt -0.1794206 0.0512916
vt 0.9022191 0.05129158
vt 0.4844138 0.7536954
vt 0.4844138 0.7536954
vt 0.4844138 0.7536954
vt -0.02198057 0.05129158
vt -0.02198057 0.05129158
vt -0.02198057 0.05129158
vt -0.9350729 0.08671174
vt -0.9350729 0.08671174
vt 0.01141284 0.08671173
vt 0.5587925 0.6760967
vt -0.8426463 0.05129158
vt 0.5587925 0.6760967
vt 0.5587925 0.6760967
vt -0.8426463 0.05129158
vt -0.8426463 0.05129158
vt -0.8426463 0.05129158
vt 0.4804082 0.5829633
vt 0.4804082 0.5829633
vt 0.4804082 0.5829633
vt 0.0276294 0.05129159
vt 0.0276294 0.05129159
vt 0.0276294 0.05129159
vt 0.0276294 0.05129159
vt 0.0276294 0.05129159
vt 0.5637701 0.643522
vt -0.08993213 0.05129159
vt -0.08200396 0.0942528
vt -0.08200396 0.0942528
vt -0.8009484 0.0942528
vt 0.8643348 0.2070442
vt -0.09958169 0.2070442
vt 0.8643348 0.2070442
vt 0.0995817 0.8643348
vt 0.0995817 0.8643348
vt -0.01924482 0.1837431
vt -0.01924482 0.1837431
vt -0.8921641 0.1837431
vt 0.01924484 0.8921641
vt 0.01924484 0.8921641
vt 0.1009259 0.1539548
vt 0.7139897 0.1539548
vt 0.1009259 0.7139897
vt 0.06200871 0.1372028
vt 0.06200871 0.7121564
vt 0.06200871 0.7121564
vt 0.06200871 0.7121564
vt -0.7976378 0.1113487
vt -0.7976378 0.1113487
vt -0.0742314 0.1113487
vt -0.0742314 0.7976378
vn 0 0 -1
vn 0.1815508 0.9828058 -0.03364506
vn 0 0 -1
vn 0.1815508 0.9828058 -0.03364506
vn 0.1815508 0.9828058 -0.03364506
vn 0.7837597 0.4372965 0.4410129
vn 0 0 -1
vn 0.9691129 0.1664094 0.1820112
vn 0.9691129 0.1664094 0.1820112
vn -0.219976 0.9159763 0.3355562
vn 0.7837597 0.4372964 0.441013
vn -0.1349665 -0.9688767 -0.207514
vn -0.1349665 -0.9688767 -0.207514
vn 0.5409815 -0.8368391 0.08390081
vn -0.1349659 -0.9688768 -0.2075136
vn -0.8944843 -0.1417377 0.4240382
vn -0.8944843 -0.1417377 0.4240382
vn 0.7837597 0.4372965 0.4410129
vn 0 0 -1
vn 0 0 -1
vn -0.219976 0.9159763 0.3355562
vn -0.8944843 -0.1417377 0.4240382
vn 0 0 -1
vn 0 0 -1
vn 0 0 -1
vn -0.219976 0.9159763 0.3355562
vn -0.2199763 0.9159763 0.3355561
vn -0.2199768 0.9159762 0.335556
vn 0.7837597 0.4372965 0.4410129
vn 0.7837597 0.4372964 0.441013
vn -0.2199768 0.9159762 0.335556
vn 0 0 -1
vn 0.9691129 0.1664094 0.1820112
vn 0 0 -1
vn 0 0 -1
vn 0.7837597 0.4372964 0.441013
vn 0.7837598 0.4372964 0.4410131
vn 0.7837592 0.437297 0.4410134
vn 0 0 -1
vn 0 0 -1
vn 0 0 -1
vn 0.5409817 -0.836839 0.08389995
vn -0.1349665 -0.9688767 -0.207514
vn -0.1349659 -0.9688768 -0.2075136
vn 0.5409815 -0.8368391 0.08390081
vn 0.5409814 -0.8368391 0.08390111
vn 0 0 -1
vn 0.5409817 -0.836839 0.08389995
vn 0.5409817 -0.836839 0.08389995
vn 0.5409815 -0.8368391 0.08390081
vn 0.7837592 0.437297 0.4410134
vn -0.8944843 -0.1417377 0.4240382
vn -0.2199763 0.9159763 0.3355561
vn -0.8944843 -0.1417377 0.4240382
vn 0.3630114 -0.3131376 0.8775919
vn 0.3630117 -0.3131376 0.8775918
vn -0.2199763 0.9159763 0.3355561
vn -0.2199768 0.9159762 0.335556
vn 0.7837598 0.4372964 0.4410131
vn 0.3630118 -0.3131377 0.8775917
vn 0.3630114 -0.3131376 0.8775919
vn -0.1349659 -0.9688768 -0.2075136
vn -0.8944843 -0.1417377 0.4240382
vn 0.3630117 -0.3131376 0.8775918
vn 0.5409814 -0.8368391 0.08390111
vn 0.3630118 -0.3131377 0.8775917
vn 0.3630114 -0.3131376 0.8775919
vn 0.3630117 -0.3131376 0.8775918
vn 0.7837598 0.4372964 0.4410131
vn 0.7837592 0.437297 0.4410134
vn 0.5409814 -0.8368391 0.08390111
vn 0.3630118 -0.3131377 0.8775917
g wall__sh_38_0
f 23/23/23 19/19/19 32/32/32
f 7/7/7 1/1/1 3/3/3
f 39/39/39 20/20/20 24/24/24
f 40/40/40 25/25/25 34/34/34
f 35/35/35 47/47/47 41/41/41
f 4/4/4 5/5/5 2/2/2
f 6/6/6 18/18/18 29/29/29
f 9/9/9 8/8/8 33/33/33
f 42/42/42 48/48/48 49/49/49
f 26/26/26 21/21/21 10/10/10
f 36/36/36 30/30/30 11/11/11
f 12/12/12 43/43/43 13/13/13
f 15/15/15 44/44/44 62/62/62
f 45/45/45 50/50/50 14/14/14
f 52/52/52 22/22/22 16/16/16
f 27/27/27 53/53/53 57/57/57
f 58/58/58 31/31/31 28/28/28
f 54/54/54 17/17/17 63/63/63
f 37/37/37 59/59/59 69/69/69
f 70/70/70 51/51/51 38/38/38
f 65/65/65 46/46/46 71/71/71
f 66/66/66 72/72/72 60/60/60
f 67/67/67 61/61/61 55/55/55
f 56/56/56 64/64/64 68/68/68
