g wall__sh_55
v -0.3023436 0.3828182 -0.4159476
v -0.3023436 0.3828182 0.4159477
v -0.3023436 0.1367903 -0.4159476
v -0.3023436 0.06272316 -0.3620519
v -0.3023436 -0.3614774 0.4159477
v -0.3023436 -0.3828187 -0.03785038
v 0.2087493 0.3822985 -0.4159476
v 0.2862029 0.03011799 -0.4159476
v 0.1343839 -0.3002286 0.4159477
v 0.1258833 0.001747608 0.4159477
v 0.1291702 0.3828182 0.3512929
v 0.1151562 0.3828182 0.4159477
v 0.2606153 -0.309855 -0.1651896
v 0.2718155 0.38238 -0.3067653
v 0.3023434 0.002991676 -0.3983378
v -0.3023436 0.3828182 -0.4159476
v -0.3023436 0.3828182 -0.4159476
v -0.3023436 0.3828182 -0.4159476
v -0.3023436 0.3828182 -0.4159476
v -0.3023436 0.3828182 -0.4159476
v -0.3023436 0.3828182 -0.4159476
v -0.3023436 0.3828182 0.4159477
v -0.3023436 0.3828182 0.4159477
v -0.3023436 0.3828182 0.4159477
v -0.3023436 0.3828182 0.4159477
v -0.3023436 0.3828182 0.4159477
v -0.3023436 0.3828182 0.4159477
v -0.3023436 0.1367903 -0.4159476
v -0.3023436 0.1367903 -0.4159476
v -0.3023436 0.06272316 -0.3620519
v -0.3023436 0.06272316 -0.3620519
v -0.3023436 0.06272316 -0.3620519
v -0.3023436 0.06272316 -0.3620519
v -0.3023436 0.06272316 -0.3620519
v -0.3023436 -0.3614774 0.4159477
v -0.3023436 -0.3614774 0.4159477
v -0.3023436 -0.3614774 0.4159477
v -0.3023436 -0.3828187 -0.03785038
v -0.3023436 -0.3828187 -0.03785038
v -0.3023436 -0.3828187 -0.03785038
v -0.3023436 -0.3828187 -0.03785038
v 0.2087493 0.3822985 -0.4159476
v 0.2087493 0.3822985 -0.4159476
v 0.2862029 0.03011799 -0.4159476
v 0.2862029 0.03011799 -0.4159476
v 0.2862029 0.03011799 -0.4159476
v 0.2862029 0.03011799 -0.4159476
v 0.2862029 0.03011799 -0.4159476
v 0.2862029 0.03011799 -0.4159476
v 0.2862029 0.03011799 -0.4159476
v 0.1343839 -0.3002286 0.4159477
v 0.1343839 -0.3002286 0.4159477
v 0.1343839 -0.3002286 0.4159477
v 0.1343839 -0.3002286 0.4159477
v 0.1258833 0.001747608 0.4159477
v 0.1258833 0.001747608 0.4159477
v 0.1258833 0.001747608 0.4159477
v 0.1258833 0.001747608 0.4159477
v 0.1258833 0.001747608 0.4159477
v 0.1291702 0.3828182 0.3512929
v 0.1291702 0.3828182 0.3512929
v 0.1291702 0.3828182 0.3512929
v 0.1291702 0.3828182 0.3512929
v 0.1151562 0.3828182 0.4159477
v 0.1151562 0.3828182 0.4159477
v 0.2606153 -0.309855 -0.1651896
v 0.2606153 -0.309855 -0.1651896
v 0.2606153 -0.309855 -0.1651896
v 0.2606153 -0.309855 -0.1651896
v 0.2606153 -0.309855 -0.1651896
v 0.2718155 0.38238 -0.3067653
v 0.2718155 0.38238 -0.3067653
v 0.2718155 0.38238 -0.3067653
v 0.2718155 0.38238 -0.3067653
v 0.2718155 0.38238 -0.3067653
v 0.2718155 0.38238 -0.3067653
v 0.3023434 0.002991676 -0.3983378
v 0.3023434 0.002991676 -0.3983378
vt 0.9914867 0.6467867
vt 0.9397312 0.6467867
vt 0.9914867 0.6314803
vt 0.9881337 0.6268724
vt 0.9397312 0.6004819
vt 0.9679638 0.5991536
vt 0.09205286 0.9998947
vt -0.5556357 1.159545
vt 0.07865888 0.8617531
vt 0.07712781 0.9228723
vt 0.9813232 0.0459017
vt 0.07519591 1
vt -0.5621349 1.073191
vt -1.249019 0.07902393
vt -0.551536 1.152655
vt 0.9914867 0.6467867
vt 0 1
vt 0 1
vt 0.9415456 0.02352929
vt 0.9415456 0.02352929
vt 0.9415456 0.02352929
vt 0.9397312 0.6467867
vt 0 1
vt 0 1
vt 0.9846752 0.02352929
vt 0 1
vt 0.9846752 0.02352929
vt -0.7051268 1.18664
vt 0 0.9502044
vt 0.9881338 0.6268735
vt 0.9881338 0.6268735
vt 0.9881338 0.6268735
vt -0.7051268 1.167826
vt -0.7051268 1.167826
vt 0.9397312 0.6004819
vt 0 0.8493564
vt 0.7051268 0.2625934
vt -0.7051268 1.054659
vt 0.7051268 0.1473285
vt -0.7051268 1.054659
vt 0.7051268 0.1473285
vt -1.248999 0.05129157
vt 0.9415456 0.05002683
vt 0.106003 0.9286141
vt -0.5556357 1.159545
vt 0.106003 0.9286141
vt -0.5556357 1.159545
vt -0.5556357 1.159545
vt -1.159545 0.05129157
vt -1.159545 0.05129157
vt 0.07865888 0.8617531
vt 0.5941978 0.2625934
vt 0.5941978 0.2625934
vt -1.075637 0.2625934
vt 0.07712775 0.9228722
vt -1.152339 0.2625934
vt -1.152339 0.2625934
vt -1.152339 0.2625934
vt -1.152339 0.2625934
vt 0.9813231 0.04590108
vt 0.9813232 0.0459017
vt -1.249131 0.2461711
vt -1.249131 0.2461711
vt 0.9846752 0.04517456
vt -1.249131 0.2625934
vt -0.5621349 1.073191
vt 0.5621349 0.1149843
vt -1.073191 0.1149843
vt -1.073191 0.1149843
vt -1.073191 0.1149843
vt 0.9472061 0.05329631
vt 0.9472061 0.05329631
vt -1.249019 0.07902393
vt -1.249019 0.07902393
vt -1.249019 0.07902393
vt -1.249019 0.07902393
vt -1.152655 0.05576446
vt -1.152655 0.05576446
vn -1 0 0
vn -1 0 0
vn -1 0 0
vn -1 0 0
vn -1 0 0
vn -1 0 0
vn 0 0 -1
vn -0.1060402 -0.5850592 -0.8040282
vn 0 0 1
vn 0 0 1
vn 0 1 0
vn 0 0 1
vn -0.1060468 -0.5850564 -0.8040293
vn 0.850577 0.1870639 -0.4914529
vn -0.1060468 -0.5850564 -0.8040293
vn -1 0 0
vn 0 0 -1
vn 0 0 -1
vn 0 1 0
vn 0 1 0
vn 0 1 0
vn -1 0 0
vn 0 0 1
vn 0 0 1
vn 0 1 0
vn 0 0 1
vn 0 1 0
vn -0.1060402 -0.5850592 -0.8040282
vn 0 0 -1
vn -1 0 0
vn -1 0 0
vn -1 0 0
vn -0.1060402 -0.5850592 -0.8040282
vn -0.1060402 -0.5850574 -0.8040294
vn -1 0 0
vn 0 0 1
vn 0.1387353 -0.9892362 0.04652204
vn -0.1060402 -0.5850574 -0.8040294
vn 0.1387353 -0.9892362 0.04652204
vn -0.1060407 -0.5850571 -0.8040296
vn 0.1387355 -0.9892361 0.0465218
vn 0.850577 0.1870639 -0.4914529
vn 0 1 0
vn 0 0 -1
vn -0.1060402 -0.5850574 -0.8040294
vn 0 0 -1
vn -0.1060468 -0.5850564 -0.8040293
vn -0.1060407 -0.5850571 -0.8040296
vn 0.850577 0.1870639 -0.4914529
vn 0.8505774 0.1870638 -0.4914522
vn 0 0 1
vn 0.1387353 -0.9892362 0.04652204
vn 0.1387355 -0.9892361 0.0465218
vn 0.976937 0.02750061 0.2117493
vn 0 0 1
vn 0.9769364 0.02750083 0.2117522
vn 0.976937 0.02750061 0.2117493
vn 0.9769371 0.02750036 0.2117494
vn 0.976937 0.02750036 0.2117495
vn 0 1 0
vn 0 1 0
vn 0.9769364 0.02750083 0.2117522
vn 0.9769371 0.02750036 0.2117494
vn 0 1 0
vn 0.9769364 0.02750083 0.2117522
vn -0.1060407 -0.5850571 -0.8040296
vn 0.1387355 -0.9892361 0.0465218
vn 0.976937 0.02750061 0.2117493
vn 0.976937 0.02750036 0.2117495
vn 0.976937 0.02750038 0.2117496
vn 0 1 0
vn 0 1 0
vn 0.8505774 0.1870638 -0.4914522
vn 0.9769371 0.02750036 0.2117494
vn 0.976937 0.02750036 0.2117495
vn 0.976937 0.02750038 0.2117496
vn 0.8505774 0.1870638 -0.4914522
vn 0.976937 0.02750038 0.2117496
g wall__sh_55_0
f 1/1/1 3/3/3 4/4/4
f 2/2/2 16/16/16 30/30/30
f 5/5/5 22/22/22 31/31/31
f 6/6/6 35/35/35 32/32/32
f 44/44/44 29/29/29 17/17/17
f 46/46/46 18/18/18 7/7/7
f 10/10/10 23/23/23 9/9/9
f 24/24/24 36/36/36 51/51/51
f 19/19/19 25/25/25 11/11/11
f 26/26/26 55/55/55 12/12/12
f 64/64/64 60/60/60 27/27/27
f 20/20/20 61/61/61 71/71/71
f 72/72/72 43/43/43 21/21/21
f 33/33/33 28/28/28 8/8/8
f 38/38/38 34/34/34 45/45/45
f 52/52/52 37/37/37 39/39/39
f 13/13/13 47/47/47 15/15/15
f 40/40/40 48/48/48 66/66/66
f 49/49/49 42/42/42 14/14/14
f 53/53/53 41/41/41 67/67/67
f 77/77/77 50/50/50 73/73/73
f 62/62/62 65/65/65 56/56/56
f 57/57/57 54/54/54 68/68/68
f 74/74/74 63/63/63 58/58/58
f 75/75/75 59/59/59 69/69/69
f 70/70/70 78/78/78 76/76/76
