g wall__sh_83
v 0.3099375 -0.4158783 -0.4159476
v 0.3099375 0.4388392 -0.4159476
v 0.3099375 0.3356841 0.4159477
v 0.3099375 0.3684304 0.1518658
v -0.1480215 -0.1435347 0.4159477
v -0.2005227 -0.2884424 0.09720892
v 0.3099375 -0.3409746 0.03242064
v 0.3099375 -0.4388392 -0.2997442
v 0.3099375 -0.227977 0.4159477
v -0.001186848 -0.208112 0.4159477
v -0.07809091 -0.2419302 -0.4159476
v -0.2230554 -0.2717268 0.06373447
v -0.2149301 0.2905996 0.4159477
v -0.2190201 -0.01031494 0.4159477
v -0.3043869 0.3860705 -0.4159476
v -0.3099375 -0.02231503 -0.4159476
v -0.2640433 -0.2209709 0.02948964
v 0.3099375 -0.4158783 -0.4159476
v 0.3099375 -0.4158783 -0.4159476
v 0.3099375 -0.4158783 -0.4159476
v 0.3099375 -0.4158783 -0.4159476
v 0.3099375 0.4388392 -0.4159476
v 0.3099375 0.4388392 -0.4159476
v 0.3099375 0.3356841 0.4159477
v 0.3099375 0.3356841 0.4159477
v 0.3099375 0.3684304 0.1518658
v 0.3099375 0.3684304 0.1518658
v 0.3099375 0.3684304 0.1518658
v 0.3099375 0.3684304 0.1518658
v 0.3099375 0.3684304 0.1518658
v 0.3099375 0.3684304 0.1518658
v 0.3099375 0.3684304 0.1518658
v -0.1480215 -0.1435347 0.4159477
v -0.1480215 -0.1435347 0.4159477
v -0.1480215 -0.1435347 0.4159477
v -0.1480215 -0.1435347 0.4159477
v -0.2005227 -0.2884424 0.09720892
v -0.2005227 -0.2884424 0.09720892
v -0.2005227 -0.2884424 0.09720892
v -0.2005227 -0.2884424 0.09720892
v -0.2005227 -0.2884424 0.09720892
v 0.3099375 -0.3409746 0.03242064
v 0.3099375 -0.3409746 0.03242064
v 0.3099375 -0.3409746 0.03242064
v 0.3099375 -0.3409746 0.03242064
v 0.3099375 -0.4388392 -0.2997442
v 0.3099375 -0.4388392 -0.2997442
v 0.3099375 -0.4388392 -0.2997442
v 0.3099375 -0.4388392 -0.2997442
v 0.3099375 -0.227977 0.4159477
v 0.3099375 -0.227977 0.4159477
v 0.3099375 -0.227977 0.4159477
v 0.3099375 -0.227977 0.4159477
v 0.3099375 -0.227977 0.4159477
v 0.3099375 -0.227977 0.4159477
v -0.001186848 -0.208112 0.4159477
v -0.001186848 -0.208112 0.4159477
v -0.001186848 -0.208112 0.4159477
v -0.07809091 -0.2419302 -0.4159476
v -0.07809091 -0.2419302 -0.4159476
v -0.07809091 -0.2419302 -0.4159476
v -0.07809091 -0.2419302 -0.4159476
v -0.07809091 -0.2419302 -0.4159476
v -0.07809091 -0.2419302 -0.4159476
v -0.2230554 -0.2717268 0.06373447
v -0.2230554 -0.2717268 0.06373447
v -0.2230554 -0.2717268 0.06373447
v -0.2230554 -0.2717268 0.06373447
v -0.2149301 0.2905996 0.4159477
v -0.2149301 0.2905996 0.4159477
v -0.2149301 0.2905996 0.4159477
v -0.2149301 0.2905996 0.4159477
v -0.2149301 0.2905996 0.4159477
v -0.2149301 0.2905996 0.4159477
v -0.2190201 -0.01031494 0.4159477
v -0.2190201 -0.01031494 0.4159477
v -0.2190201 -0.01031494 0.4159477
v -0.2190201 -0.01031494 0.4159477
v -0.3043869 0.3860705 -0.4159476
v -0.3043869 0.3860705 -0.4159476
v -0.3043869 0.3860705 -0.4159476
v -0.3043869 0.3860705 -0.4159476
v -0.3043869 0.3860705 -0.4159476
v -0.3099375 -0.02231503 -0.4159476
v -0.3099375 -0.02231503 -0.4159476
v -0.3099375 -0.02231503 -0.4159476
v -0.2640433 -0.2209709 0.02948964
v -0.2640433 -0.2209709 0.02948964
v -0.2640433 -0.2209709 0.02948964
v -0.2640433 -0.2209709 0.02948964
vt 0.9914867 0.5004142
vt 0.9914867 0.5535895
vt 0.9397312 0.5471715
vt 0.9561607 0.5492095
vt -0.588805 0.2625934
vt -0.5754697 0.1816336
vt 0.9635919 0.505074
vt 0.9842573 0.4989855
vt 0.9397312 0.5121039
vt -0.6261011 0.2625934
vt -0.6065674 0.05129159
vt 0.6881496 0.1731311
vt 0.5718102 0.2625934
vt 0.9047295 0.6058967
vt 0.8893543 0.6861246
vt 0.8883544 0.6034681
vt -0.5593354 0.1644329
vt 0.9914867 0.5004142
vt -0.7051268 0.05129159
vt 1 0.5238116
vt 1 0.5238116
vt 1 0.6968046
vt 0.7051268 0.05129152
vt 0.7051268 0.2625934
vt 1 0.6759263
vt 0.9561607 0.5492095
vt 0.9561607 0.5492095
vt 0.9561608 0.5492088
vt 0.9561608 0.5492088
vt 0.7051268 0.1955164
vt 0.7051268 0.1955164
vt 0.7051268 0.1955164
vt 0.9175171 0.5789334
vt 0.7207105 0.2625934
vt 0.9175171 0.5789334
vt 0.7207105 0.2625934
vt -0.5754697 0.1816336
vt -0.5754697 0.1816336
vt 0.6839038 0.1816336
vt -0.5754697 0.1816336
vt -0.5754697 0.1816336
vt 0.963592 0.505074
vt -0.7051268 0.1651774
vt -0.7051268 0.1651774
vt -0.7051268 0.1651774
vt 0.9842573 0.4989855
vt -0.7051268 0.08080732
vt -0.7051268 0.08080732
vt -0.7051268 0.08080732
vt 0.9397312 0.5121039
vt 1 0.5618424
vt -0.7051268 0.2625934
vt 1 0.5618424
vt 1 0.5618424
vt 1 0.5618424
vt 0.9439635 0.5658631
vt -0.6261011 0.2625934
vt -0.6261011 0.2625934
vt -0.6065674 0.05129159
vt -0.6065674 0.05129159
vt -0.6065674 0.05129159
vt 0.9301124 0.5590184
vt 0.9301124 0.5590184
vt -0.6065674 0.05129159
vt -0.5697464 0.1731311
vt 0.6881496 0.1731311
vt -0.5697464 0.1731311
vt 0.6881496 0.1731311
vt 0.9054662 0.6668013
vt 0.9054662 0.6668013
vt 0.5718102 0.2625934
vt 0.8309808 0.2625934
vt 0.8309808 0.2625934
vt 0.8309808 0.2625934
vt 0.7545483 0.2625934
vt 0.9047295 0.6058967
vt 0.7545483 0.2625934
vt 0.7545483 0.2625934
vt 0.5490881 0.05129154
vt 0.8893543 0.6861246
vt 0.8893543 0.6861246
vt 0.5490881 0.05129154
vt 0.8552304 0.05129158
vt -0.5476782 0.05129159
vt 0.7515003 0.05129159
vt 0.7515003 0.05129159
vt 0.7010416 0.1644329
vt -0.5593354 0.1644329
vt 0.7010416 0.1644329
vt 0.7010416 0.1644329
vn 1 0 0
vn 1 0 0
vn 1 0 0
vn 1 0 0
vn -0.3625872 -0.8244431 0.434539
vn -0.3625872 -0.8244431 0.434539
vn 1 0 0
vn 1 0 0
vn 1 0 0
vn -0.3625872 -0.8244431 0.434539
vn -0.4025729 -0.8980251 -0.1774428
vn -0.8305463 -0.4426328 0.3380373
vn -0.08493597 0.9888133 0.1226135
vn 0 0 1
vn 0 0 -1
vn 0 0 -1
vn -0.6667029 -0.7038339 -0.2452042
vn 1 0 0
vn -0.4025729 -0.8980251 -0.1774428
vn 0 0 -1
vn 0 0 -1
vn 0 0 -1
vn -0.08493625 0.9888134 0.1226128
vn -0.08493597 0.9888133 0.1226135
vn 0 0 1
vn 1 0 0
vn 1 0 0
vn 1 0 0
vn 1 0 0
vn -0.08493597 0.9888133 0.1226135
vn -0.08493625 0.9888134 0.1226128
vn -0.08493631 0.9888134 0.1226128
vn 0 0 1
vn -0.8305463 -0.4426328 0.3380373
vn 0 0 1
vn -0.8305453 -0.4426343 0.3380376
vn -0.06272238 -0.9573445 0.2820593
vn -0.0629304 -0.9577224 0.2807267
vn -0.8305463 -0.4426328 0.3380373
vn -0.4025724 -0.898025 -0.1774443
vn -0.4025742 -0.8980242 -0.1774446
vn 1 0 0
vn -0.06272238 -0.9573445 0.2820593
vn -0.0629304 -0.9577224 0.2807267
vn -0.0611317 -0.957439 0.2820877
vn 1 0 0
vn -0.06272238 -0.9573445 0.2820593
vn -0.4025729 -0.8980251 -0.1774428
vn -0.4025724 -0.898025 -0.1774443
vn 1 0 0
vn 0 0 1
vn -0.0611317 -0.957439 0.2820877
vn 0 0 1
vn 0 0 1
vn 0 0 1
vn 0 0 1
vn -0.0629304 -0.9577224 0.2807267
vn -0.0611317 -0.957439 0.2820877
vn -0.4025724 -0.898025 -0.1774443
vn -0.4025742 -0.8980242 -0.1774446
vn -0.6667029 -0.7038339 -0.2452042
vn 0 0 -1
vn 0 0 -1
vn -0.6667026 -0.7038342 -0.2452041
vn -0.4025742 -0.8980242 -0.1774446
vn -0.8305453 -0.4426343 0.3380376
vn -0.6667029 -0.7038339 -0.2452042
vn -0.8305454 -0.4426342 0.3380376
vn 0 0 1
vn 0 0 1
vn -0.08493631 0.9888134 0.1226128
vn -0.9940112 0.01351023 0.1084402
vn -0.9940112 0.01351056 0.1084401
vn -0.9940112 0.01351073 0.1084398
vn -0.8305453 -0.4426343 0.3380376
vn 0 0 1
vn -0.8305454 -0.4426342 0.3380376
vn -0.9940112 0.01351073 0.1084398
vn -0.08493625 0.9888134 0.1226128
vn 0 0 -1
vn 0 0 -1
vn -0.08493631 0.9888134 0.1226128
vn -0.9940112 0.01351023 0.1084402
vn -0.6667026 -0.7038342 -0.2452041
vn -0.9940112 0.01351023 0.1084402
vn -0.9940112 0.01351056 0.1084401
vn -0.8305454 -0.4426342 0.3380376
vn -0.6667026 -0.7038342 -0.2452041
vn -0.9940112 0.01351056 0.1084401
vn -0.9940112 0.01351073 0.1084398
g wall__sh_83_0
f 1/1/1 2/2/2 4/4/4
f 8/8/8 26/26/26 7/7/7
f 18/18/18 27/27/27 46/46/46
f 9/9/9 42/42/42 28/28/28
f 29/29/29 3/3/3 50/50/50
f 33/33/33 56/56/56 51/51/51
f 53/53/53 25/25/25 69/69/69
f 35/35/35 54/54/54 14/14/14
f 15/15/15 22/22/22 20/20/20
f 76/76/76 55/55/55 70/70/70
f 80/80/80 21/21/21 62/62/62
f 63/63/63 16/16/16 81/81/81
f 10/10/10 5/5/5 6/6/6
f 37/37/37 47/47/47 43/43/43
f 57/57/57 38/38/38 44/44/44
f 45/45/45 52/52/52 58/58/58
f 39/39/39 34/34/34 12/12/12
f 11/11/11 19/19/19 48/48/48
f 59/59/59 49/49/49 40/40/40
f 41/41/41 65/65/65 60/60/60
f 13/13/13 24/24/24 30/30/30
f 31/31/31 23/23/23 79/79/79
f 66/66/66 36/36/36 75/75/75
f 61/61/61 67/67/67 17/17/17
f 71/71/71 32/32/32 82/82/82
f 87/87/87 68/68/68 77/77/77
f 84/84/84 64/64/64 88/88/88
f 72/72/72 83/83/83 85/85/85
f 73/73/73 86/86/86 89/89/89
f 90/90/90 78/78/78 74/74/74
