g wall__sh_7
v -0.3605218 -0.1006267 -0.4159476
v 0.3605216 0.3478649 0.4159477
v 0.3605216 0.4009502 0.2912894
v 0.1131871 0.3892186 0.233946
v 0.3605216 -0.3567007 -0.4159476
v 0.3605216 -0.4598556 0.4159477
v 0.3605216 -0.4271092 0.1518659
v -0.3492968 -0.2411461 -0.4159476
v -0.2198157 -0.4071667 0.4159477
v -0.2538025 -0.4094694 -0.4159476
v -0.1643453 -0.5049403 0.4159477
v -0.3094883 -0.02373219 -0.006680787
v 0.09053874 0.3689468 0.2471431
v 0.164561 0.3192227 0.4159477
v 0.1279819 0.3535235 0.3228455
v -0.2271776 -0.3150079 0.4159477
v 0.3605216 0.5049403 0.04709268
v 0.248791 0.5008786 0.01828098
v 0.3605216 0.4394796 -0.4159476
v 0.2162151 0.4394953 -0.4159476
v -0.3605218 -0.1006267 -0.4159476
v -0.3605218 -0.1006267 -0.4159476
v -0.3605218 -0.1006267 -0.4159476
v -0.3605218 -0.1006267 -0.4159476
v -0.3605218 -0.1006267 -0.4159476
v 0.3605216 0.3478649 0.4159477
v 0.3605216 0.3478649 0.4159477
v 0.3605216 0.3478649 0.4159477
v 0.3605216 0.4009502 0.2912894
v 0.3605216 0.4009502 0.2912894
v 0.3605216 0.4009502 0.2912894
v 0.3605216 0.4009502 0.2912894
v 0.3605216 0.4009502 0.2912894
v 0.3605216 0.4009502 0.2912894
v 0.3605216 0.4009502 0.2912894
v 0.1131871 0.3892186 0.233946
v 0.1131871 0.3892186 0.233946
v 0.1131871 0.3892186 0.233946
v 0.1131871 0.3892186 0.233946
v 0.3605216 -0.3567007 -0.4159476
v 0.3605216 -0.3567007 -0.4159476
v 0.3605216 -0.3567007 -0.4159476
v 0.3605216 -0.3567007 -0.4159476
v 0.3605216 -0.4598556 0.4159477
v 0.3605216 -0.4598556 0.4159477
v 0.3605216 -0.4598556 0.4159477
v 0.3605216 -0.4598556 0.4159477
v 0.3605216 -0.4598556 0.4159477
v 0.3605216 -0.4271092 0.1518659
v 0.3605216 -0.4271092 0.1518659
v 0.3605216 -0.4271092 0.1518659
v 0.3605216 -0.4271092 0.1518659
v 0.3605216 -0.4271092 0.1518659
v -0.3492968 -0.2411461 -0.4159476
v -0.3492968 -0.2411461 -0.4159476
v -0.3492968 -0.2411461 -0.4159476
v -0.3492968 -0.2411461 -0.4159476
v -0.2198157 -0.4071667 0.4159477
v -0.2198157 -0.4071667 0.4159477
v -0.2198157 -0.4071667 0.4159477
v -0.2198157 -0.4071667 0.4159477
v -0.2538025 -0.4094694 -0.4159476
v -0.2538025 -0.4094694 -0.4159476
v -0.2538025 -0.4094694 -0.4159476
v -0.2538025 -0.4094694 -0.4159476
v -0.2538025 -0.4094694 -0.4159476
v -0.1643453 -0.5049403 0.4159477
v -0.1643453 -0.5049403 0.4159477
v -0.1643453 -0.5049403 0.4159477
v -0.3094883 -0.02373219 -0.006680787
v -0.3094883 -0.02373219 -0.006680787
v -0.3094883 -0.02373219 -0.006680787
v -0.3094883 -0.02373219 -0.006680787
v -0.3094883 -0.02373219 -0.006680787
v 0.09053874 0.3689468 0.2471431
v 0.09053874 0.3689468 0.2471431
v 0.09053874 0.3689468 0.2471431
v 0.09053874 0.3689468 0.2471431
v 0.09053874 0.3689468 0.2471431
v 0.164561 0.3192227 0.4159477
v 0.164561 0.3192227 0.4159477
v 0.164561 0.3192227 0.4159477
v 0.164561 0.3192227 0.4159477
v 0.164561 0.3192227 0.4159477
v 0.164561 0.3192227 0.4159477
v 0.164561 0.3192227 0.4159477
v 0.1279819 0.3535235 0.3228455
v 0.1279819 0.3535235 0.3228455
v -0.2271776 -0.3150079 0.4159477
v -0.2271776 -0.3150079 0.4159477
v -0.2271776 -0.3150079 0.4159477
v -0.2271776 -0.3150079 0.4159477
v 0.3605216 0.5049403 0.04709268
v 0.3605216 0.5049403 0.04709268
v 0.248791 0.5008786 0.01828098
v 0.248791 0.5008786 0.01828098
v 0.248791 0.5008786 0.01828098
v 0.248791 0.5008786 0.01828098
v 0.248791 0.5008786 0.01828098
v 0.3605216 0.4394796 -0.4159476
v 0.3605216 0.4394796 -0.4159476
v 0.3605216 0.4394796 -0.4159476
v 0.3605216 0.4394796 -0.4159476
v 0.3605216 0.4394796 -0.4159476
v 0.2162151 0.4394953 -0.4159476
v 0.2162151 0.4394953 -0.4159476
v 0.2162151 0.4394953 -0.4159476
v 0.2162151 0.4394953 -0.4159476
vt 0.870133 0.7486335
vt 0.9397312 0.597423
vt 0.9474866 0.6007262
vt 0.6423037 0.2163648
vt 0.9914867 0.5535895
vt 0.9397312 0.5471715
vt 0.9561608 0.5492089
vt 0.8721547 0.7201928
vt 0.8954756 0.6865904
vt 0.8893543 0.6861246
vt 0.9054664 0.6668013
vt 0.9532079 0.1552456
vt 0.636551 0.2197169
vt 0.6553527 0.2625934
vt 0.6460616 0.2389454
vt 0.8941496 0.7052431
vt 0.7051268 0.168904
vt 0.6767472 0.1615858
vt 1 0.8579499
vt 0.974009 0.857953
vt 0.870133 0.7486335
vt 0.9336766 0.05129158
vt 0.870133 0.7486335
vt 0.870133 0.7486335
vt 0.5219814 0.05129154
vt 0.9397312 0.597423
vt 0.7051268 0.2625933
vt 1 0.8394071
vt 0.9474867 0.6007257
vt 0.7051268 0.2309301
vt 0.7051268 0.2309301
vt 0.7051268 0.2309301
vt 0.7051268 0.2309301
vt 0.9474866 0.6007262
vt 0.9474866 0.6007262
vt 0.6423037 0.2163648
vt 0.6423037 0.2163648
vt 0.6423037 0.2163648
vt 0.6423037 0.2163648
vt 1 0.6968046
vt -0.7051268 0.05129158
vt 1 0.6968046
vt 0.9914867 0.5535895
vt 1 0.6759263
vt -0.7051268 0.2625934
vt 1 0.6759263
vt 1 0.6759263
vt 1 0.6759263
vt 0.9561608 0.5492088
vt 0.9561608 0.5492088
vt -0.7051268 0.1955165
vt -0.7051268 0.1955165
vt -0.7051268 0.1955165
vt 0.8979846 0.05129158
vt 0.8979846 0.05129158
vt 0.8979846 0.05129158
vt 0.8979846 0.05129158
vt 0.8558153 0.2625934
vt 0.8558153 0.2625934
vt 0.8954756 0.6865904
vt 0.8558153 0.2625934
vt 0.8893543 0.6861246
vt -0.5490882 0.05129158
vt -0.5490882 0.05129158
vt 0.8552304 0.05129158
vt 0.8552304 0.05129158
vt -0.5718104 0.2625934
vt -0.5718104 0.2625934
vt 0.8309808 0.2625934
vt 0.9532079 0.1552456
vt 0.9532079 0.1552456
vt 0.9532079 0.1552456
vt 0.5349439 0.1552455
vt 0.5349439 0.1552455
vt 1.052948 0.219717
vt 1.052948 0.219717
vt 0.636551 0.2197169
vt 0.636551 0.2197169
vt 0.636551 0.2197169
vt 0.6553527 0.2625934
vt 0.6553527 0.2625934
vt 0.9647056 0.8336101
vt 0.9647056 0.8336101
vt 1.040319 0.2625934
vt 1.040319 0.2625934
vt 1.040319 0.2625934
vt 0.6460616 0.2389454
vt 1.049031 0.2389454
vt 0.8792236 0.2625934
vt 0.8941496 0.7052431
vt 0.8792236 0.2625934
vt 0.8792236 0.2625934
vt 0.9626791 0.6071957
vt 0.7051268 0.168904
vt 0.6767472 0.1615858
vt 0.6767472 0.1615858
vt 0.6767472 0.1615858
vt 0.6767472 0.1615858
vt 0.6767472 0.1615858
vt 1 0.8579499
vt 0.9914867 0.6031238
vt 0.9914867 0.6031238
vt 0.7051268 0.05129151
vt 0.7051268 0.05129151
vt 0.6684729 0.05129152
vt 0.6684729 0.05129152
vt 0.6684729 0.05129152
vt 0.6684729 0.05129152
vn 0 0 -1
vn 1 0 0
vn 1 0 0
vn -0.4742229 0.7868852 0.3948723
vn 1 0 0
vn 1 0 0
vn 1 0 0
vn 0 0 -1
vn 0 0 1
vn 0 0 -1
vn 0 0 1
vn -0.9872971 -0.07886738 0.1379288
vn -0.4742229 0.7868852 0.3948723
vn -0.1332776 0.9118422 0.3883051
vn -0.4742229 0.7868852 0.3948723
vn 0 0 1
vn -0.1332789 0.9118425 0.3883041
vn -0.1332789 0.9118425 0.3883041
vn 0 0 -1
vn 0 0 -1
vn 0 0 -1
vn -0.9872971 -0.07886738 0.1379288
vn 0 0 -1
vn 0 0 -1
vn -0.6826391 0.7289153 -0.05182958
vn 1 0 0
vn -0.1332776 0.9118422 0.3883051
vn 0 0 1
vn 1 0 0
vn -0.1332776 0.9118422 0.3883051
vn -0.1332776 0.9118422 0.3883051
vn -0.1332789 0.9118425 0.3883041
vn -0.1332772 0.9118429 0.3883035
vn 1 0 0
vn 1 0 0
vn -0.1332776 0.9118422 0.3883051
vn -0.1332722 0.9118434 0.3883041
vn -0.1332772 0.9118429 0.3883035
vn -0.6826311 0.7289235 -0.05182048
vn 0 0 -1
vn 0.08493628 -0.9888135 -0.1226124
vn 0 0 -1
vn 1 0 0
vn 0 0 1
vn 0.08493654 -0.9888133 -0.1226135
vn 0 0 1
vn 0 0 1
vn 0 0 1
vn 1 0 0
vn 1 0 0
vn 0.08493654 -0.9888133 -0.1226135
vn 0.08493628 -0.9888135 -0.1226124
vn 0.08493683 -0.9888133 -0.1226129
vn -0.8691843 -0.4931114 0.03687515
vn -0.987297 -0.0788679 0.1379291
vn -0.9872971 -0.07886738 0.1379288
vn -0.987297 -0.07886793 0.1379291
vn -0.8691843 -0.4931114 0.03687515
vn -0.8691808 -0.4931177 0.03687502
vn 0 0 1
vn -0.987297 -0.0788679 0.1379291
vn 0 0 -1
vn 0.08493628 -0.9888135 -0.1226124
vn 0.08493683 -0.9888133 -0.1226129
vn -0.8691843 -0.4931114 0.03687515
vn -0.8691808 -0.4931177 0.03687502
vn 0.08493654 -0.9888133 -0.1226135
vn 0.08493683 -0.9888133 -0.1226129
vn -0.8691808 -0.4931177 0.03687502
vn -0.987297 -0.07886793 0.1379291
vn -0.7523983 0.4647261 0.4668258
vn -0.7523984 0.4647259 0.466826
vn -0.6826391 0.7289153 -0.05182958
vn -0.6826392 0.7289153 -0.0518296
vn -0.7523984 0.4647259 0.466826
vn -0.7524017 0.4647207 0.4668259
vn -0.6826311 0.7289235 -0.05182048
vn -0.6826392 0.7289153 -0.0518296
vn -0.682638 0.7289164 -0.05182925
vn -0.1332776 0.9118422 0.3883051
vn -0.1332722 0.9118434 0.3883041
vn 0 0 1
vn 0 0 1
vn -0.7523983 0.4647261 0.4668258
vn -0.7523984 0.4647259 0.466826
vn -0.7524017 0.4647207 0.4668259
vn -0.1332722 0.9118434 0.3883041
vn -0.7524017 0.4647207 0.4668259
vn -0.987297 -0.0788679 0.1379291
vn 0 0 1
vn -0.987297 -0.07886793 0.1379291
vn -0.7523983 0.4647261 0.4668258
vn 1 0 0
vn 0.0001014915 0.9901544 -0.1399796
vn -0.1332772 0.9118429 0.3883035
vn -0.6826311 0.7289235 -0.05182048
vn -0.682638 0.7289164 -0.05182925
vn 0.0001014915 0.9901544 -0.1399796
vn 0.0001079883 0.9901546 -0.1399779
vn 0 0 -1
vn 1 0 0
vn 1 0 0
vn 0.0001014915 0.9901544 -0.1399796
vn 0.0001079883 0.9901546 -0.1399779
vn -0.6826391 0.7289153 -0.05182958
vn -0.6826392 0.7289153 -0.0518296
vn -0.682638 0.7289164 -0.05182925
vn 0.0001079883 0.9901546 -0.1399779
g wall__sh_7_0
f 7/7/7 5/5/5 3/3/3
f 29/29/29 2/2/2 49/49/49
f 50/50/50 26/26/26 6/6/6
f 11/11/11 44/44/44 9/9/9
f 1/1/1 40/40/40 10/10/10
f 62/62/62 8/8/8 21/21/21
f 60/60/60 46/46/46 16/16/16
f 82/82/82 90/90/90 47/47/47
f 48/48/48 28/28/28 83/83/83
f 19/19/19 23/23/23 20/20/20
f 42/42/42 24/24/24 100/100/100
f 34/34/34 43/43/43 101/101/101
f 102/102/102 93/93/93 35/35/35
f 51/51/51 45/45/45 67/67/67
f 63/63/63 41/41/41 52/52/52
f 64/64/64 53/53/53 68/68/68
f 58/58/58 54/54/54 65/65/65
f 66/66/66 69/69/69 59/59/59
f 14/14/14 27/27/27 30/30/30
f 4/4/4 13/13/13 15/15/15
f 55/55/55 61/61/61 89/89/89
f 12/12/12 22/22/22 56/56/56
f 80/80/80 31/31/31 36/36/36
f 37/37/37 87/87/87 81/81/81
f 70/70/70 57/57/57 91/91/91
f 71/71/71 92/92/92 84/84/84
f 75/75/75 72/72/72 85/85/85
f 86/86/86 88/88/88 76/76/76
f 18/18/18 32/32/32 17/17/17
f 38/38/38 33/33/33 95/95/95
f 105/105/105 25/25/25 73/73/73
f 77/77/77 39/39/39 96/96/96
f 106/106/106 74/74/74 78/78/78
f 107/107/107 79/79/79 97/97/97
f 98/98/98 94/94/94 103/103/103
f 104/104/104 108/108/108 99/99/99
