g wall__sh_33
v -0.4744998 0.3738003 0.2977253
v -0.3961041 0.3378856 0.07902765
v -0.4013962 -0.2540231 -0.129985
v -0.2481792 -0.2612407 -0.1959378
v -0.1101583 0.5340235 0.2977253
v -0.0798181 0.4474497 -0.0127086
v 0.2881978 0.0752995 -0.2977252
v -0.5453638 -0.1187782 0.2977253
v -0.4288503 -0.3026714 -0.07644981
v -0.2549954 -0.394244 0.2977253
v -0.2881672 -0.4284871 -0.03744608
v 0.3547163 0.03298879 -0.2211306
v 0.4809268 -0.1103008 -0.008914769
v 0.5453638 -0.02997017 0.2977253
v 0.5442829 -0.03035069 0.2909973
v -0.1208602 -0.5214951 0.2977253
v -0.1118716 -0.5216069 0.2977253
v -0.1390965 -0.5340235 0.1455813
v 0.199385 -0.5254848 0.2977253
v 0.4539157 -0.4067349 0.2928937
v 0.4551572 -0.4045298 0.2977253
v 0.4469811 -0.4143977 0.2977253
v -0.4744998 0.3738003 0.2977253
v -0.4744998 0.3738003 0.2977253
v -0.3961041 0.3378856 0.07902765
v -0.3961041 0.3378856 0.07902765
v -0.3961041 0.3378856 0.07902765
v -0.3961041 0.3378856 0.07902765
v -0.3961041 0.3378856 0.07902765
v -0.3961041 0.3378856 0.07902765
v -0.4013962 -0.2540231 -0.129985
v -0.4013962 -0.2540231 -0.129985
v -0.4013962 -0.2540231 -0.129985
v -0.2481792 -0.2612407 -0.1959378
v -0.2481792 -0.2612407 -0.1959378
v -0.2481792 -0.2612407 -0.1959378
v -0.2481792 -0.2612407 -0.1959378
v -0.2481792 -0.2612407 -0.1959378
v -0.2481792 -0.2612407 -0.1959378
v -0.2481792 -0.2612407 -0.1959378
v -0.1101583 0.5340235 0.2977253
v -0.1101583 0.5340235 0.2977253
v -0.1101583 0.5340235 0.2977253
v -0.1101583 0.5340235 0.2977253
v -0.1101583 0.5340235 0.2977253
v -0.1101583 0.5340235 0.2977253
v -0.1101583 0.5340235 0.2977253
v -0.0798181 0.4474497 -0.0127086
v -0.0798181 0.4474497 -0.0127086
v 0.2881978 0.0752995 -0.2977252
v 0.2881978 0.0752995 -0.2977252
v 0.2881978 0.0752995 -0.2977252
v 0.2881978 0.0752995 -0.2977252
v 0.2881978 0.0752995 -0.2977252
v 0.2881978 0.0752995 -0.2977252
v -0.5453638 -0.1187782 0.2977253
v -0.5453638 -0.1187782 0.2977253
v -0.5453638 -0.1187782 0.2977253
v -0.5453638 -0.1187782 0.2977253
v -0.5453638 -0.1187782 0.2977253
v -0.4288503 -0.3026714 -0.07644981
v -0.4288503 -0.3026714 -0.07644981
v -0.4288503 -0.3026714 -0.07644981
v -0.4288503 -0.3026714 -0.07644981
v -0.2549954 -0.394244 0.2977253
v -0.2549954 -0.394244 0.2977253
v -0.2549954 -0.394244 0.2977253
v -0.2549954 -0.394244 0.2977253
v -0.2549954 -0.394244 0.2977253
v -0.2549954 -0.394244 0.2977253
v -0.2549954 -0.394244 0.2977253
v -0.2549954 -0.394244 0.2977253
v -0.2881672 -0.4284871 -0.03744608
v -0.2881672 -0.4284871 -0.03744608
v -0.2881672 -0.4284871 -0.03744608
v -0.2881672 -0.4284871 -0.03744608
v 0.3547163 0.03298879 -0.2211306
v 0.3547163 0.03298879 -0.2211306
v 0.3547163 0.03298879 -0.2211306
v 0.3547163 0.03298879 -0.2211306
v 0.4809268 -0.1103008 -0.008914769
v 0.4809268 -0.1103008 -0.008914769
v 0.4809268 -0.1103008 -0.008914769
v 0.4809268 -0.1103008 -0.008914769
v 0.4809268 -0.1103008 -0.008914769
v 0.5453638 -0.02997017 0.2977253
v 0.5453638 -0.02997017 0.2977253
v 0.5453638 -0.02997017 0.2977253
v 0.5453638 -0.02997017 0.2977253
v 0.5453638 -0.02997017 0.2977253
v 0.5453638 -0.02997017 0.2977253
v 0.5442829 -0.03035069 0.2909973
v 0.5442829 -0.03035069 0.2909973
v -0.1208602 -0.5214951 0.2977253
v -0.1208602 -0.5214951 0.2977253
v -0.1208602 -0.5214951 0.2977253
v -0.1118716 -0.5216069 0.2977253
v -0.1118716 -0.5216069 0.2977253
v -0.1118716 -0.5216069 0.2977253
v -0.1390965 -0.5340235 0.1455813
v -0.1390965 -0.5340235 0.1455813
v -0.1390965 -0.5340235 0.1455813
v -0.1390965 -0.5340235 0.1455813
v 0.199385 -0.5254848 0.2977253
v 0.199385 -0.5254848 0.2977253
v 0.199385 -0.5254848 0.2977253
v 0.199385 -0.5254848 0.2977253
v 0.199385 -0.5254848 0.2977253
v 0.4539157 -0.4067349 0.2928937
v 0.4539157 -0.4067349 0.2928937
v 0.4539157 -0.4067349 0.2928937
v 0.4551572 -0.4045298 0.2977253
v 0.4551572 -0.4045298 0.2977253
v 0.4551572 -0.4045298 0.2977253
v 0.4551572 -0.4045298 0.2977253
v 0.4469811 -0.4143977 0.2977253
v 0.4469811 -0.4143977 0.2977253
v 0.4469811 -0.4143977 0.2977253
v 0.4469811 -0.4143977 0.2977253
v 0.4469811 -0.4143977 0.2977253
vt -0.1194942 0.2625934
vt -0.09958168 0.8643348
vt -0.1009259 0.7139897
vt -0.06200868 0.7121564
vt -0.02695128 0.2625934
vt -0.01924487 0.183743
vt 0.07423134 0.7976378
vt 0.7483419 0.2625934
vt 0.701633 0.1675528
vt 0.4548024 0.5451976
vt -0.07216565 0.6696757
vt 0.09112708 0.1308037
vt -0.7504952 0.1847067
vt 0.1395517 0.2625934
vt 0.1392771 0.2608845
vt 0.4789615 0.5194423
vt 0.4805804 0.5194197
vt 0.03430163 0.2239488
vt 0.5366408 0.5186348
vt -0.6752008 0.2613662
vt 0.5827079 0.5431158
vt -0.1145624 0.2625934
vt 0.8734571 0.2625934
vt 0.4152675 0.7006482
vt -0.09958168 0.2070441
vt -0.09958168 0.8643348
vt -0.09958168 0.2070441
vt -0.09958168 0.8643348
vt 0.8643348 0.2070441
vt 0.8643348 0.2070441
vt 0.7139897 0.1539548
vt 0.7139897 0.1539548
vt -0.1009259 0.7139897
vt -0.06200868 0.7121564
vt -0.06200868 0.7121564
vt -0.06200868 0.7121564
vt 0.06200869 0.1372028
vt 0.06200869 0.1372028
vt 0.06200869 0.1372028
vt 0.06200869 0.1372028
vt -0.02695128 0.2625934
vt -0.02695128 0.2625934
vt 0.480889 0.7330769
vt 0.480889 0.7330769
vt -0.02695128 0.2625934
vt -0.02695128 0.2625934
vt 0.480889 0.7330769
vt -0.01924487 0.8921641
vt -0.01924487 0.183743
vt 0.07423134 0.7976378
vt 0.07423134 0.1113487
vt 0.07423134 0.1113487
vt -0.07423133 0.1113487
vt -0.07423133 0.1113487
vt -0.07423133 0.1113487
vt 0.4025043 0.6009513
vt 0.7483419 0.2625934
vt 0.7483419 0.2625934
vt 0.4025043 0.6009513
vt 0.1374937 0.2625934
vt -0.1078992 0.701633
vt -0.1078992 0.701633
vt 0.1078992 0.1675528
vt 0.1078992 0.1675528
vt 0.06374002 0.2625934
vt 0.06374002 0.2625934
vt 0.4548024 0.5451976
vt 0.4548025 0.5451977
vt 0.06374002 0.2625934
vt 0.4548024 0.5451976
vt 0.4548024 0.5451976
vt 0.4548024 0.5451976
vt 0.07216567 0.1774597
vt 0.07216567 0.1774597
vt 0.07216567 0.1774597
vt 0.07216567 0.1774597
vt 0.09112708 0.1308037
vt 0.09112708 0.1308037
vt -0.7868908 0.1308038
vt -0.09112707 0.1308038
vt -0.1231846 0.1847067
vt -0.7504952 0.1847067
vt -0.7504952 0.1847067
vt -0.1231846 0.1847067
vt -0.1231846 0.1847067
vt 0.1395517 0.2625934
vt 0.5989549 0.6189258
vt -0.7708992 0.2625934
vt 0.5989549 0.6189258
vt -0.7708992 0.2625934
vt -0.7708992 0.2625934
vt -0.7708026 0.2608845
vt -0.7708026 0.2608845
vt 0.0296696 0.2625934
vt 0.0296696 0.2625934
vt 0.0296696 0.2625934
vt 0.4805804 0.5194196
vt 0.02738649 0.2625934
vt 0.02738649 0.2625934
vt 0.03430163 0.2239488
vt 0.03430163 0.2239488
vt 0.03430163 0.2239488
vt 0.03430163 0.2239488
vt -0.05167285 0.2625934
vt -0.05167285 0.2625934
vt -0.05167285 0.2625934
vt 0.5366408 0.5186348
vt 0.5366408 0.5186348
vt -0.6752008 0.2613662
vt -0.1163238 0.2613662
vt -0.6752008 0.2613662
vt -0.6757609 0.2625934
vt 0.5827079 0.5431158
vt 0.5827079 0.5431158
vt -0.6757609 0.2625934
vt 0.5812353 0.5411185
vt -0.1145624 0.2625934
vt -0.1145624 0.2625934
vt -0.1145624 0.2625934
vt -0.6732544 0.2625934
vn -0.3861443 0.8780773 -0.282618
vn -0.3630115 0.3131376 -0.8775918
vn -0.3630115 0.3131376 -0.8775918
vn -0.3630115 0.3131376 -0.8775918
vn -0.3861443 0.8780773 -0.282618
vn -0.3861442 0.8780773 -0.282618
vn -0.3630118 0.3131376 -0.8775918
vn -0.9258106 0.1331903 -0.3537442
vn -0.9258106 0.1331904 -0.3537443
vn 0 0 1
vn -0.3391852 -0.6030827 -0.7219728
vn 0.6452059 0.7499139 -0.1460774
vn 0.888033 0.361591 -0.2839884
vn 0.6451971 0.7499223 -0.1460731
vn 0.6451971 0.7499223 -0.1460731
vn 0 0 1
vn 0 0 1
vn -0.6813872 -0.7182492 0.1408173
vn 0 0 1
vn 0.9624174 -0.2317826 -0.1415263
vn 0 0 1
vn 0.3104404 -0.6919242 -0.6518188
vn -0.9258106 0.1331903 -0.3537442
vn 0 0 1
vn -0.3861443 0.8780773 -0.282618
vn -0.3630118 0.3131376 -0.8775918
vn -0.3861442 0.8780773 -0.282618
vn -0.3630119 0.3131374 -0.8775918
vn -0.9258106 0.1331903 -0.3537442
vn -0.9258107 0.1331903 -0.3537443
vn -0.9258107 0.1331903 -0.3537443
vn -0.9258106 0.1331904 -0.3537443
vn -0.3391857 -0.6030818 -0.7219733
vn -0.3630118 0.3131376 -0.8775918
vn -0.3391852 -0.6030827 -0.7219728
vn -0.3391857 -0.6030818 -0.7219733
vn 0.3104408 -0.6919238 -0.651819
vn 0.3104398 -0.6919243 -0.651819
vn 0.3104404 -0.6919242 -0.6518188
vn 0.3104407 -0.6919239 -0.651819
vn -0.3861442 0.8780773 -0.282618
vn 0.6452062 0.7499136 -0.146077
vn 0 0 1
vn 0 0 1
vn 0.6452059 0.7499139 -0.1460774
vn 0.6452059 0.7499139 -0.1460774
vn 0 0 1
vn -0.3630119 0.3131374 -0.8775918
vn 0.6452062 0.7499136 -0.146077
vn -0.3630119 0.3131374 -0.8775918
vn 0.6452062 0.7499136 -0.146077
vn 0.6452059 0.7499139 -0.1460774
vn 0.3104406 -0.6919238 -0.6518191
vn 0.3104407 -0.6919239 -0.651819
vn 0.3104406 -0.6919239 -0.651819
vn 0 0 1
vn -0.9258107 0.1331903 -0.3537443
vn -0.9258106 0.1331904 -0.3537443
vn 0 0 1
vn -0.6813867 -0.7182497 0.1408176
vn -0.3391852 -0.6030827 -0.7219728
vn -0.3391857 -0.6030818 -0.7219733
vn -0.6813867 -0.7182497 0.1408176
vn -0.6813864 -0.71825 0.1408173
vn -0.6813867 -0.7182497 0.1408176
vn -0.6813864 -0.71825 0.1408173
vn 0 0 1
vn 0 0 1
vn -0.6813873 -0.7182492 0.1408173
vn 0 0 1
vn 0 0 1
vn 0 0 1
vn -0.6813864 -0.71825 0.1408173
vn -0.6813872 -0.7182492 0.1408173
vn -0.6813873 -0.7182492 0.1408173
vn 0.3104398 -0.6919243 -0.651819
vn 0.6451971 0.7499223 -0.1460731
vn 0.6452059 0.7499139 -0.1460774
vn 0.888033 0.361591 -0.2839884
vn 0.3104406 -0.6919238 -0.6518191
vn 0.3104406 -0.6919238 -0.6518191
vn 0.962413 -0.2318085 -0.1415136
vn 0.962418 -0.2317828 -0.1415214
vn 0.3104406 -0.6919239 -0.651819
vn 0.3104392 -0.6919241 -0.6518195
vn 0.6452059 0.7499139 -0.1460774
vn 0 0 1
vn 0.962413 -0.2318085 -0.1415136
vn 0 0 1
vn 0.9624174 -0.2317826 -0.1415263
vn 0.962418 -0.2317828 -0.1415214
vn 0.888033 0.361591 -0.2839884
vn 0.962413 -0.2318085 -0.1415136
vn -0.6813872 -0.7182492 0.1408173
vn -0.6813873 -0.7182492 0.1408173
vn -0.01239557 -0.9964275 0.08353741
vn 0 0 1
vn -0.01241427 -0.9964271 0.08354071
vn -0.01239557 -0.9964275 0.08353741
vn 0.3104408 -0.6919238 -0.651819
vn 0.3104398 -0.6919243 -0.651819
vn -0.01241427 -0.9964271 0.08354071
vn -0.01239557 -0.9964275 0.08353741
vn 0.3104408 -0.6919238 -0.651819
vn -0.01241427 -0.9964271 0.08354071
vn 0.3104404 -0.6919242 -0.6518188
vn 0 0 1
vn 0 0 1
vn 0.962418 -0.2317828 -0.1415214
vn 0.3104392 -0.6919241 -0.6518195
vn 0.7666963 -0.6352512 0.09291229
vn 0.9624174 -0.2317826 -0.1415263
vn 0 0 1
vn 0 0 1
vn 0.7666963 -0.6352512 0.09291229
vn 0 0 1
vn 0.3104407 -0.6919239 -0.651819
vn 0.3104406 -0.6919239 -0.651819
vn 0.3104392 -0.6919241 -0.6518195
vn 0.7666963 -0.6352512 0.09291229
g wall__sh_33_0
f 43/43/43 24/24/24 56/56/56
f 10/10/10 44/44/44 59/59/59
f 87/87/87 47/47/47 67/67/67
f 16/16/16 17/17/17 68/68/68
f 19/19/19 70/70/70 97/97/97
f 89/89/89 71/71/71 21/21/21
f 113/113/113 72/72/72 107/107/107
f 108/108/108 116/116/116 114/114/114
f 4/4/4 3/3/3 2/2/2
f 25/25/25 1/1/1 5/5/5
f 34/34/34 26/26/26 7/7/7
f 6/6/6 27/27/27 41/41/41
f 50/50/50 28/28/28 48/48/48
f 51/51/51 49/49/49 42/42/42
f 23/23/23 29/29/29 8/8/8
f 57/57/57 30/30/30 31/31/31
f 58/58/58 32/32/32 9/9/9
f 35/35/35 11/11/11 61/61/61
f 62/62/62 33/33/33 36/36/36
f 65/65/65 60/60/60 63/63/63
f 64/64/64 73/73/73 66/66/66
f 52/52/52 45/45/45 12/12/12
f 15/15/15 77/77/77 14/14/14
f 78/78/78 46/46/46 86/86/86
f 92/92/92 13/13/13 79/79/79
f 53/53/53 80/80/80 81/81/81
f 82/82/82 93/93/93 88/88/88
f 94/94/94 74/74/74 18/18/18
f 69/69/69 75/75/75 95/95/95
f 37/37/37 104/104/104 100/100/100
f 101/101/101 76/76/76 38/38/38
f 102/102/102 105/105/105 98/98/98
f 99/99/99 96/96/96 103/103/103
f 20/20/20 90/90/90 112/112/112
f 83/83/83 91/91/91 109/109/109
f 106/106/106 39/39/39 22/22/22
f 117/117/117 40/40/40 54/54/54
f 118/118/118 55/55/55 84/84/84
f 85/85/85 110/110/110 119/119/119
f 115/115/115 120/120/120 111/111/111
